<?xml version="1.0" encoding="utf-8"?>
<!-- Generator: Adobe Illustrator 26.1.0, SVG Export Plug-In . SVG Version: 6.00 Build 0)  -->
<svg version="1.1" id="Layer_1" xmlns="http://www.w3.org/2000/svg" xmlns:xlink="http://www.w3.org/1999/xlink" x="0px" y="0px"
	 viewBox="0 0 64 64" style="enable-background:new 0 0 64 64;" xml:space="preserve">
<style type="text/css">
	.st0{fill:#F9C639;}
	.st1{fill:#E9FFFF;}
	.st2{fill:#F23923;}
</style>
<g>
	<g>
		<path class="st0" d="M38.5,12.7c0,0.5-0.1,1.1-0.3,1.6c-0.2,0.5-0.5,0.9-0.9,1.3c-0.4,0.4-0.8,0.7-1.3,0.9c-0.5,0.2-1,0.3-1.6,0.3
			c-0.5,0-1.1-0.1-1.6-0.3c-0.5-0.2-0.9-0.5-1.3-0.9c-0.4-0.4-0.7-0.8-0.9-1.3c-0.2-0.5-0.3-1-0.3-1.6c0-0.5,0.1-1.1,0.3-1.6
			c0.2-0.5,0.5-0.9,0.9-1.3c0.4-0.4,0.8-0.7,1.3-0.9c0.5-0.2,1-0.3,1.6-0.3c0.5,0,1.1,0.1,1.6,0.3c0.5,0.2,0.9,0.5,1.3,0.9
			c0.4,0.4,0.7,0.8,0.9,1.3C38.4,11.6,38.5,12.1,38.5,12.7z"/>
	</g>
</g>
<g>
	<g>
		<path class="st0" d="M43.9,30.1c-0.8-0.4-6-3-6-3s-1.9-4-2.8-6.2c-0.9-2.1-1.6-2.6-2.8-2.6c-0.5,0-1.5,0-2,0c-1,0-1.4,0.4-2.1,0.7
			l-5.4,4.6c-0.5,0.3-0.8,0.7-1,1.2l-1.2,7.8c-0.2,1.2,0.5,1.8,1.2,1.9c0.6,0.1,1.5-0.2,1.7-1c0.1-0.7,1.2-7.1,1.2-7.1l3.5-2.7
			c-0.6,2.7-1.2,5.6-1.4,6.6c-0.3,1.7,0.5,3,1.2,4c0.6,0.9,8.6,13.5,9.6,14.8c1,1.4,2,2,3.5,1.2c1.2-0.7,1-2.2,0.3-3.4
			c-0.7-1.2-8.7-14.2-8.7-14.2l1.3-5.8c0,0,0.9,1.3,1.4,2.1c0.2,0.4,0.5,0.5,1.1,0.8c0.7,0.4,4.3,2,5.4,2.5c1,0.4,2.2,0.6,2.7-0.3
			C45.3,31.5,44.7,30.4,43.9,30.1z"/>
	</g>
</g>
<g>
	<g>
		<path class="st0" d="M26.2,35.4l-1.6,5.7c0,0-3.4,4.9-4.3,6.3c-0.7,1-1.2,2.3,0,3.2c1.4,1,2.4-0.3,3.2-1.1c0.6-0.7,3.3-4.4,4-5.3
			c0.5-0.6,0.8-1.2,1-1.7c0.1-0.3,0.7-1.8,1-2.7L26.2,35.4z"/>
	</g>
</g>
<g>
	<g>
		<g>
			<g>
				<g>
					<g>
						<g>
							<g>
								<path class="st1" d="M10.7,49.6l39.5-39.5l2.8,2.8L13.4,52.4L10.7,49.6z"/>
							</g>
						</g>
					</g>
				</g>
			</g>
		</g>
	</g>
</g>
<g>
	<g>
		<path class="st2" d="M29.9,3c-3.6,0.3-7,1.2-10.1,2.7l1.1,1.9c2.8-1.3,5.8-2.2,9-2.4V3z"/>
	</g>
</g>
<g>
	<g>
		<path class="st2" d="M44.4,5.7C41.2,4.2,37.8,3.3,34.2,3v2.2c3.2,0.3,6.2,1.1,9,2.4L44.4,5.7z"/>
	</g>
</g>
<g>
	<g>
		<path class="st2" d="M34.2,59.8c3.6-0.3,7-1.2,10.1-2.7l-1.1-1.9c-2.8,1.3-5.8,2.2-9,2.4V59.8z"/>
	</g>
</g>
<path class="st2" d="M8.5,15.3l1.9,1.1c1.8-2.6,4-4.8,6.6-6.6l-1.1-1.9C13,9.9,10.5,12.4,8.5,15.3z"/>
<path class="st2" d="M53.6,16.4l1.9-1.1c-2-2.9-4.5-5.4-7.4-7.4l-1.1,1.9C49.6,11.6,51.9,13.8,53.6,16.4z"/>
<g>
	<g>
		<path class="st2" d="M3.6,29.2h2.2c0.3-3.2,1.1-6.2,2.4-9l-1.9-1.1C4.9,22.2,3.9,25.6,3.6,29.2z"/>
	</g>
</g>
<g>
	<g>
		<path class="st2" d="M3.6,33.6c0.3,3.6,1.2,7,2.7,10.1l1.9-1.1c-1.3-2.8-2.2-5.8-2.4-9H3.6z"/>
	</g>
</g>
<g>
	<g>
		<path class="st2" d="M19.7,57.1c3.1,1.5,6.5,2.4,10.1,2.7v-2.2c-3.2-0.3-6.2-1.1-9-2.4L19.7,57.1z"/>
	</g>
</g>
<g>
	<g>
		<path class="st2" d="M57.7,43.7c1.5-3.1,2.4-6.5,2.7-10.1h-2.2c-0.3,3.2-1.1,6.2-2.4,9L57.7,43.7z"/>
	</g>
</g>
<g>
	<g>
		<path class="st2" d="M60.5,29.2c-0.3-3.6-1.2-7-2.7-10.1l-1.9,1.1c1.3,2.8,2.2,5.8,2.4,9H60.5z"/>
	</g>
</g>
<path class="st2" d="M48.2,54.9c2.9-2,5.4-4.5,7.4-7.4l-1.9-1.1c-1.8,2.6-4,4.8-6.6,6.6L48.2,54.9z"/>
<path class="st2" d="M8.5,47.5c2,2.9,4.5,5.4,7.4,7.4L17,53c-2.6-1.8-4.8-4-6.6-6.6L8.5,47.5z"/>
</svg>
