<?xml version="1.0" encoding="utf-8"?>
<!-- Generator: Adobe Illustrator 26.1.0, SVG Export Plug-In . SVG Version: 6.00 Build 0)  -->
<svg version="1.1" id="Layer_1" xmlns="http://www.w3.org/2000/svg" xmlns:xlink="http://www.w3.org/1999/xlink" x="0px" y="0px"
	 viewBox="0 0 64 64" style="enable-background:new 0 0 64 64;" xml:space="preserve">
<style type="text/css">
	.st0{fill:#101317;}
	.st1{fill:#8391A5;}
</style>
<g>
	<g>
		<path class="st0" d="M60.6,3.1h-9.5v2.4h7.1v7.1h2.4V3.1z"/>
	</g>
</g>
<g>
	<g>
		<path class="st0" d="M39.3,57.6h9.5V60h-9.5V57.6z"/>
	</g>
</g>
<g>
	<g>
		<path class="st0" d="M27.5,57.6h9.5V60h-9.5V57.6z"/>
	</g>
</g>
<g>
	<g>
		<path class="st0" d="M15.6,57.6h9.5V60h-9.5V57.6z"/>
	</g>
</g>
<g>
	<g>
		<path class="st0" d="M3.8,38.6h2.4v9.5H3.8V38.6z"/>
	</g>
</g>
<g>
	<g>
		<path class="st0" d="M3.8,60h9.5v-2.4H6.2v-7.1H3.8V60z"/>
	</g>
</g>
<g>
	<g>
		<path class="st0" d="M58.2,26.8h2.4v9.5h-2.4V26.8z"/>
	</g>
</g>
<g>
	<g>
		<path class="st0" d="M3.8,26.8h2.4v9.5H3.8V26.8z"/>
	</g>
</g>
<g>
	<g>
		<path class="st0" d="M60.6,50.5h-2.4v7.1h-7.1V60h9.5V50.5z"/>
	</g>
</g>
<g>
	<g>
		<path class="st0" d="M58.2,15h2.4v9.5h-2.4V15z"/>
	</g>
</g>
<g>
	<g>
		<path class="st0" d="M58.2,38.6h2.4v9.5h-2.4V38.6z"/>
	</g>
</g>
<g>
	<g>
		<path class="st0" d="M6.2,5.5h7.1V3.1H3.8v9.5h2.4V5.5z"/>
	</g>
</g>
<g>
	<g>
		<path class="st0" d="M27.5,3.1h9.5v2.4h-9.5V3.1z"/>
	</g>
</g>
<g>
	<g>
		<path class="st0" d="M15.6,3.1h9.5v2.4h-9.5V3.1z"/>
	</g>
</g>
<g>
	<g>
		<path class="st0" d="M39.3,3.1h9.5v2.4h-9.5V3.1z"/>
	</g>
</g>
<g>
	<g>
		<path class="st0" d="M3.8,15h2.4v9.5H3.8V15z"/>
	</g>
</g>
<path class="st1" d="M22.1,28.4h19.6v5.7H22.1V28.4"/>
<g>
	<g>
		<path class="st1" d="M13.5,18.5h7.7V44h-7.7V18.5"/>
	</g>
</g>
<g>
	<g>
		<path class="st1" d="M42.6,18.5h7.7V44h-7.7V18.5"/>
	</g>
</g>
<g>
	<g>
		<path class="st1" d="M8.5,26h4v10.6h-4V26"/>
	</g>
</g>
<g>
	<g>
		<path class="st1" d="M51.3,26h4v10.6h-4V26"/>
	</g>
</g>
</svg>
