<?xml version="1.0" encoding="utf-8"?>
<!-- Generator: Adobe Illustrator 26.1.0, SVG Export Plug-In . SVG Version: 6.00 Build 0)  -->
<svg version="1.1" id="Layer_1" xmlns="http://www.w3.org/2000/svg" xmlns:xlink="http://www.w3.org/1999/xlink" x="0px" y="0px"
	 viewBox="0 0 64 64" style="enable-background:new 0 0 64 64;" xml:space="preserve">
<style type="text/css">
	.st0{fill:#101317;}
	.st1{fill:#F9C639;}
	.st2{fill:#F23923;}
</style>
<g>
	<g>
		<path class="st0" d="M60.6,3.1h-9.5v2.4h7.1v7.1h2.4V3.1z"/>
	</g>
</g>
<g>
	<g>
		<path class="st0" d="M39.3,57.6h9.5V60h-9.5V57.6z"/>
	</g>
</g>
<g>
	<g>
		<path class="st0" d="M27.5,57.6h9.5V60h-9.5V57.6z"/>
	</g>
</g>
<g>
	<g>
		<path class="st0" d="M15.6,57.6h9.5V60h-9.5V57.6z"/>
	</g>
</g>
<g>
	<g>
		<path class="st0" d="M3.8,38.6h2.4v9.5H3.8V38.6z"/>
	</g>
</g>
<g>
	<g>
		<path class="st0" d="M3.8,60h9.5v-2.4H6.2v-7.1H3.8V60z"/>
	</g>
</g>
<g>
	<g>
		<path class="st0" d="M58.2,26.8h2.4v9.5h-2.4V26.8z"/>
	</g>
</g>
<g>
	<g>
		<path class="st0" d="M3.8,26.8h2.4v9.5H3.8V26.8z"/>
	</g>
</g>
<g>
	<g>
		<path class="st0" d="M60.6,50.5h-2.4v7.1h-7.1V60h9.5V50.5z"/>
	</g>
</g>
<g>
	<g>
		<path class="st0" d="M58.2,15h2.4v9.5h-2.4V15z"/>
	</g>
</g>
<g>
	<g>
		<path class="st0" d="M58.2,38.6h2.4v9.5h-2.4V38.6z"/>
	</g>
</g>
<g>
	<g>
		<path class="st0" d="M6.2,5.5h7.1V3.1H3.8v9.5h2.4V5.5z"/>
	</g>
</g>
<g>
	<g>
		<path class="st0" d="M27.5,3.1h9.5v2.4h-9.5V3.1z"/>
	</g>
</g>
<g>
	<g>
		<path class="st0" d="M15.6,3.1h9.5v2.4h-9.5V3.1z"/>
	</g>
</g>
<g>
	<g>
		<path class="st0" d="M39.3,3.1h9.5v2.4h-9.5V3.1z"/>
	</g>
</g>
<g>
	<g>
		<path class="st0" d="M3.8,15h2.4v9.5H3.8V15z"/>
	</g>
</g>
<g>
	<g>
		<path class="st1" d="M17.6,18.9c0,0.5-0.1,0.9-0.3,1.3c-0.2,0.4-0.4,0.8-0.7,1.1c-0.3,0.3-0.7,0.6-1.1,0.7
			c-0.4,0.2-0.8,0.3-1.3,0.3c-0.5,0-0.9-0.1-1.3-0.3c-0.4-0.2-0.8-0.4-1.1-0.7c-0.3-0.3-0.6-0.7-0.7-1.1c-0.2-0.4-0.3-0.9-0.3-1.3
			s0.1-0.9,0.3-1.3c0.2-0.4,0.4-0.8,0.7-1.1c0.3-0.3,0.7-0.6,1.1-0.7c0.4-0.2,0.8-0.3,1.3-0.3c0.4,0,0.9,0.1,1.3,0.3
			c0.4,0.2,0.8,0.4,1.1,0.7c0.3,0.3,0.6,0.7,0.7,1.1C17.5,18,17.6,18.4,17.6,18.9z"/>
	</g>
</g>
<g>
	<g>
		<path class="st1" d="M16.4,23.2h-4.5c0,0-3.8-0.1-3.8,3.9c0,3.4,0,6.5,0,7.3c0,1.9,2.1,1.6,2.1,1.6v9.8c0,0,0,1.9,2,1.8
			c1.9-0.1,2-1.7,2-1.9c0,0.2,0.1,1.9,2,1.9c2,0.1,2-1.8,2-1.8V36c0,0,2.1,0.2,2.1-1.6c0-0.8,0-3.9,0-7.3
			C20.2,23.1,16.4,23.2,16.4,23.2z"/>
	</g>
</g>
<g>
	<g>
		<path class="st2" d="M55.7,31.5c-0.4-0.7-1.3-1.2-1.3-1.2L47,27.9c0,0-7.5-6.3-8.8-7.2c-1.3-0.9-3.5-0.8-3.5-0.8s-7-0.2-9.2,0
			C23.4,20,22.2,21,22.2,21L20,22.6c1.2,1,1.5,1.9,1.5,1.9c0.8-1.4,2.8-2.4,2.8-2.4h3.3l0,7H22c0,0,0,4,0,5.2s-0.7,2-0.7,2
			c1.6,0.3,2.7,1.7,2.6,3.4c-0.1,1.6-1.4,2.8-3,3c-0.3,0-0.7,0-1-0.1v2.6c0.2,0,0.5,0.1,0.8,0.1c2.9,0,5.3-2.2,5.7-5h14.7
			c0.4,2.8,2.8,5,5.7,5c2.9,0,5.3-2.2,5.7-5h0.8c0,0,0.5-0.1,0.8-0.3c0,0,0.6-0.7,1.2-1.4c0.3-0.4,0.5-0.6,0.6-0.8
			c0.1-0.2,0.1-0.3,0.1-0.5v-4.4C56,32.9,56.1,32.2,55.7,31.5z M42.8,28.9c0,0-0.2,0.2-0.6,0.2c-0.4,0-12.3,0-12.3,0v-7h5.4
			c0,0,0.8,0,1.5,0.5c0.7,0.4,6,5.1,6,5.1S43.5,28.2,42.8,28.9z M46.8,42.8c-1.7,0-3.2-1.4-3.2-3.2c0-1.8,1.4-3.2,3.2-3.2
			c1.7,0,3.2,1.5,3.2,3.2C50,41.4,48.6,42.8,46.8,42.8z"/>
	</g>
</g>
</svg>
