<?xml version="1.0" encoding="utf-8"?>
<!-- Generator: Adobe Illustrator 26.1.0, SVG Export Plug-In . SVG Version: 6.00 Build 0)  -->
<svg version="1.1" id="Layer_1" xmlns="http://www.w3.org/2000/svg" xmlns:xlink="http://www.w3.org/1999/xlink" x="0px" y="0px"
	 viewBox="0 0 64 64" style="enable-background:new 0 0 64 64;" xml:space="preserve">
<style type="text/css">
	.st0{fill:#101317;}
	.st1{fill:#AF6636;}
	.st2{fill:#894C3D;}
	.st3{fill:#65C936;}
	.st4{fill:#D4B859;}
	.st5{fill:#A74940;}
</style>
<g>
	<g>
		<path class="st0" d="M60.6,3.1h-9.5v2.4h7.1v7.1h2.4V3.1z"/>
	</g>
</g>
<g>
	<g>
		<path class="st0" d="M39.3,57.6h9.5V60h-9.5V57.6z"/>
	</g>
</g>
<g>
	<g>
		<path class="st0" d="M27.5,57.6h9.5V60h-9.5V57.6z"/>
	</g>
</g>
<g>
	<g>
		<path class="st0" d="M15.6,57.6h9.5V60h-9.5V57.6z"/>
	</g>
</g>
<g>
	<g>
		<path class="st0" d="M3.8,38.6h2.4v9.5H3.8V38.6z"/>
	</g>
</g>
<g>
	<g>
		<path class="st0" d="M3.8,60h9.5v-2.4H6.2v-7.1H3.8V60z"/>
	</g>
</g>
<g>
	<g>
		<path class="st0" d="M58.2,26.8h2.4v9.5h-2.4V26.8z"/>
	</g>
</g>
<g>
	<g>
		<path class="st0" d="M3.8,26.8h2.4v9.5H3.8V26.8z"/>
	</g>
</g>
<g>
	<g>
		<path class="st0" d="M60.6,50.5h-2.4v7.1h-7.1V60h9.5V50.5z"/>
	</g>
</g>
<g>
	<g>
		<path class="st0" d="M58.2,15h2.4v9.5h-2.4V15z"/>
	</g>
</g>
<g>
	<g>
		<path class="st0" d="M58.2,38.6h2.4v9.5h-2.4V38.6z"/>
	</g>
</g>
<g>
	<g>
		<path class="st0" d="M6.2,5.5h7.1V3.1H3.8v9.5h2.4V5.5z"/>
	</g>
</g>
<g>
	<g>
		<path class="st0" d="M27.5,3.1h9.5v2.4h-9.5V3.1z"/>
	</g>
</g>
<g>
	<g>
		<path class="st0" d="M15.6,3.1h9.5v2.4h-9.5V3.1z"/>
	</g>
</g>
<g>
	<g>
		<path class="st0" d="M39.3,3.1h9.5v2.4h-9.5V3.1z"/>
	</g>
</g>
<g>
	<g>
		<path class="st0" d="M3.8,15h2.4v9.5H3.8V15z"/>
	</g>
</g>
<path class="st1" d="M41.2,40.5c-0.2,0-0.4-0.1-0.6-0.3c-0.3-0.4-0.3-0.9,0.1-1.2c1.3-1.2,5.4-5.8,6.1-7.4c0.2-0.4,0.7-0.5,1-0.4
	c0.4,0.2,0.5,0.7,0.3,1.1c-0.9,1.9-5.1,6.6-6.5,7.8C41.6,40.4,41.4,40.5,41.2,40.5L41.2,40.5z"/>
<path class="st1" d="M38.6,38.8c-0.2,0-0.3-0.1-0.5-0.2c-1.4-1.1-6-5.5-7.1-7.3c-0.3-0.4-0.1-0.9,0.3-1.2s0.9-0.1,1.1,0.3
	c0.9,1.5,5.3,5.8,6.7,6.8c0.3,0.3,0.4,0.8,0.2,1.2C39.1,38.7,38.9,38.8,38.6,38.8z"/>
<g>
	<g>
		<path class="st2" d="M24.7,52.4h-9.6c-0.4,0-0.8-0.4-0.8-0.8V40.2c0-0.4,0.3-0.8,0.8-0.8h9.6c0.4,0,0.8,0.4,0.8,0.8v11.4
			C25.5,52.1,25.2,52.4,24.7,52.4z M15.9,50.8h8V41h-8C15.9,41,15.9,50.8,15.9,50.8z"/>
	</g>
</g>
<path class="st1" d="M36.6,51.6c0-1.2,1-5.1,1-6.7c0.2-1.6,0.3-4.4,0-7.2c-0.3-2.7,0-6.1,0.3-8.2h3.8c-0.2,4.8,0.1,4.3,0.4,8
	c0.3,3.6,0.2,5.2,0.2,6.7c0.2,3.3,1.7,4.8,1.7,7.4L36.6,51.6L36.6,51.6z"/>
<path class="st3" d="M29.9,30.5c1.7,2,4.3,1.4,5.4,0c1.6,1.5,4.2,2.5,8.7,0.8c0.8,0.9,4.8,2.8,7.1-0.4c2.6-0.1,4.6-3.3,2.7-5.8
	c1.6-1.3,2.3-5.3-0.8-6.5c0.4-2.3-1-4.6-3.6-4.2c-0.7-3.1-3.8-5.1-7.9-2.8c-1.4-1.6-5-1.6-6,1.4c-1.6-0.9-5.4-0.1-5,4.3
	c-2.2-0.3-4.1,1.3-4.1,4.7C25.1,23.3,24,25.4,25,28C26.2,31.1,29.9,30.5,29.9,30.5L29.9,30.5z"/>
<g>
	<g>
		<path class="st4" d="M55.1,52.4H10.4c-0.4,0-0.8-0.4-0.8-0.8c0-0.4,0.3-0.8,0.8-0.8h44.7c0.4,0,0.8,0.4,0.8,0.8
			C55.9,52.1,55.6,52.4,55.1,52.4z"/>
	</g>
</g>
<path class="st5" d="M13.6,36.1h12.8V41H13.6V36.1z"/>
<path class="st5" d="M11.9,43.4h16v3.3h-16V43.4z"/>
</svg>
