<?xml version="1.0" encoding="utf-8"?>
<!-- Generator: Adobe Illustrator 26.1.0, SVG Export Plug-In . SVG Version: 6.00 Build 0)  -->
<svg version="1.1" id="Layer_1" xmlns="http://www.w3.org/2000/svg" xmlns:xlink="http://www.w3.org/1999/xlink" x="0px" y="0px"
	 viewBox="0 0 64 64" style="enable-background:new 0 0 64 64;" xml:space="preserve">
<style type="text/css">
	.st0{fill:#101317;}
	.st1{fill:#F9C639;}
	.st2{fill:#E9FFFF;}
</style>
<g>
	<g>
		<path class="st0" d="M60.6,3.1h-9.5v2.4h7.1v7.1h2.4V3.1z"/>
	</g>
</g>
<g>
	<g>
		<path class="st0" d="M39.3,57.6h9.5V60h-9.5V57.6z"/>
	</g>
</g>
<g>
	<g>
		<path class="st0" d="M27.5,57.6h9.5V60h-9.5V57.6z"/>
	</g>
</g>
<g>
	<g>
		<path class="st0" d="M15.6,57.6h9.5V60h-9.5V57.6z"/>
	</g>
</g>
<g>
	<g>
		<path class="st0" d="M3.8,38.6h2.4v9.5H3.8V38.6z"/>
	</g>
</g>
<g>
	<g>
		<path class="st0" d="M3.8,60h9.5v-2.4H6.2v-7.1H3.8V60z"/>
	</g>
</g>
<g>
	<g>
		<path class="st0" d="M58.2,26.8h2.4v9.5h-2.4V26.8z"/>
	</g>
</g>
<g>
	<g>
		<path class="st0" d="M3.8,26.8h2.4v9.5H3.8V26.8z"/>
	</g>
</g>
<g>
	<g>
		<path class="st0" d="M60.6,50.5h-2.4v7.1h-7.1V60h9.5V50.5z"/>
	</g>
</g>
<g>
	<g>
		<path class="st0" d="M58.2,15h2.4v9.5h-2.4V15z"/>
	</g>
</g>
<g>
	<g>
		<path class="st0" d="M58.2,38.6h2.4v9.5h-2.4V38.6z"/>
	</g>
</g>
<g>
	<g>
		<path class="st0" d="M6.2,5.5h7.1V3.1H3.8v9.5h2.4V5.5z"/>
	</g>
</g>
<g>
	<g>
		<path class="st0" d="M27.5,3.1h9.5v2.4h-9.5V3.1z"/>
	</g>
</g>
<g>
	<g>
		<path class="st0" d="M15.6,3.1h9.5v2.4h-9.5V3.1z"/>
	</g>
</g>
<g>
	<g>
		<path class="st0" d="M39.3,3.1h9.5v2.4h-9.5V3.1z"/>
	</g>
</g>
<g>
	<g>
		<path class="st0" d="M3.8,15h2.4v9.5H3.8V15z"/>
	</g>
</g>
<g>
	<g>
		<path class="st1" d="M38.7,45.1c0.2,0,0.3,0,0.5-0.1c0.9-0.3,1.4-1.2,1.1-2.1l-2.4-8.5c-0.1-0.3-0.3-0.6-0.6-0.9l-4-3.2
			c0,0,0-0.1,0-0.1l0.9-6.9l1.8,2.6c0.2,0.2,0.4,0.4,0.6,0.5l5.6,2.3c0.7,0.3,1.5-0.1,1.8-0.8c0.3-0.7-0.1-1.5-0.8-1.8L38,23.9
			l-3.7-5.3c-0.2-0.2-0.4-0.4-0.6-0.5c1.9-0.3,3.4-2,3.4-4.1c0-2.3-1.8-4.1-4.1-4.1c-2.2,0-4.1,1.8-4.1,4.1c0,1.6,0.9,2.9,2.2,3.6
			c0,0,0,0,0,0l-0.2,0c-0.3,0-0.5,0-0.8,0.1L24,20.7c-0.4,0.2-0.6,0.5-0.7,0.9c-0.9,2.8-1.9,5.9-2.1,6.5c-0.3,0.6-0.2,1.4,0.4,1.8
			c0.2,0.2,0.5,0.3,0.8,0.3c0.4,0,0.8-0.2,1.1-0.6c0.2-0.2,0.4-0.5,2.3-6.6l3.3-1.6l-1,8.1c0,0.2,0,0.4,0,0.6L26,37l-4.8,4.6
			c-0.7,0.6-0.7,1.7-0.1,2.4c0.3,0.4,0.8,0.5,1.2,0.5c0.4,0,0.8-0.2,1.1-0.5l5.2-5c0.2-0.2,0.4-0.5,0.5-0.8l1.6-5.8l4.1,3.3l2.2,8
			C37.3,44.6,38,45.1,38.7,45.1"/>
	</g>
</g>
<g>
	<g>
		<path class="st2" d="M14.8,46.4l-5.5,6.7h5.8l4.1-6.7H14.8"/>
	</g>
</g>
<g>
	<g>
		<path class="st2" d="M19.1,53.1h5.8l1.6-6.7h-4.4L19.1,53.1"/>
	</g>
</g>
<g>
	<g>
		<path class="st2" d="M29.5,46.4l-0.6,6.7h5.8l-0.8-6.7H29.5"/>
	</g>
</g>
<g>
	<g>
		<path class="st2" d="M36.9,46.4l1.9,6.7h5.8l-3.3-6.7H36.9"/>
	</g>
</g>
<g>
	<g>
		<path class="st2" d="M48.6,46.4h-4.3l4.3,6.7h5.8L48.6,46.4"/>
	</g>
</g>
</svg>
