<?xml version="1.0" encoding="utf-8"?>
<!-- Generator: Adobe Illustrator 26.1.0, SVG Export Plug-In . SVG Version: 6.00 Build 0)  -->
<svg version="1.1" id="Layer_1" xmlns="http://www.w3.org/2000/svg" xmlns:xlink="http://www.w3.org/1999/xlink" x="0px" y="0px"
	 viewBox="0 0 167 167" style="enable-background:new 0 0 167 167;" xml:space="preserve">
<style type="text/css">
	.st0{fill:none;stroke:#455A64;stroke-width:2;}
	.st1{fill:#FF9800;}
	.st2{fill:#83E700;}
	.st3{fill:#4CAF50;}
	.st4{fill:#2E7D32;}
	.st5{fill:#BBDEFB;}
	.st6{fill:#424D51;}
	.st7{fill:#263238;}
	.st8{fill:#455A64;}
	.st9{fill:#FFEB3B;}
	.st10{fill:#AF980C;}
</style>
<g>
	<g>
		<path class="st0" d="M106.8,71.5V45.2c0,0,0-8.8,8.8-8.8"/>
	</g>
</g>
<path class="st1" d="M45.5,71.5c0,1.6-1.3,2.9-2.9,2.9H30.9c-1.6,0-2.9-1.3-2.9-2.9v-5.8c0-1.6,1.3-2.9,2.9-2.9h11.6
	c1.6,0,2.9,1.3,2.9,2.9V71.5z"/>
<path class="st2" d="M92.3,65.7l-3-32.2c0-3.2-2.6-5.8-5.8-5.8H54.3c-3.2,0-5.8,2.6-5.8,5.8l-2,32.2l28.3,5.9L92.3,65.7z"/>
<path class="st3" d="M48.5,65.7l-11.7,5.9v-8.8h11.7V65.7z"/>
<g>
	<g>
		<path class="st2" d="M141.9,103.7c0,3.2-2.6,5.8-5.8,5.8H89.3c0,0,0-2.9,0-8.8c0-17.5-14.5-29.2-14.5-29.2l5.8-5.9
			c29.2-2.9,58.4,2.9,58.4,2.9s5.8,0,5.8,5.9L141.9,103.7z"/>
	</g>
</g>
<g>
	<g>
		<path class="st2" d="M76.1,78.9c7.9,7.9,11.5,19.2,9.9,30.1l-0.1,0.6h5.9c1.8-12.7-2.5-25.7-11.5-34.8c-15.9-16-42.1-16-58.1,0
			l4.4,4.1C40.3,65.2,62.5,65.2,76.1,78.9z"/>
	</g>
</g>
<path class="st4" d="M84.4,70.6c-1.8-1.8-3.7-3.3-5.7-4.7c-4.4,0.5-7.4,0.8-9.4,1.1c3.9,1.9,7.6,4.5,10.9,7.7
	c9.1,9.1,13.3,22.1,11.5,34.8h5.8C99.4,95.3,94.5,80.8,84.4,70.6z"/>
<path class="st5" d="M69.4,67c2.3-0.4,5.9-0.8,11.2-1.3c4-0.4,7.7-0.6,11.6-0.7l-2.9-31.5H57.2c-1.6,0-2.9,1.3-2.9,3v26.5
	C59.5,63.3,64.6,64.6,69.4,67z"/>
<path class="st6" d="M84,39.3l1.9,20c-1.9,0.1-3.8,0.3-5.8,0.5c-4.1,0.4-7.3,0.8-9.8,1.1c-3.3-1.5-6.7-2.5-10.2-3.2V39.3H84
	 M89.3,33.5H57.2c-1.6,0-2.9,1.3-2.9,3v26.5c5.2,0.4,10.4,1.7,15.1,4.1c2.3-0.4,5.9-0.8,11.2-1.3c4-0.4,7.7-0.6,11.6-0.7L89.3,33.5z
	"/>
<g>
	<g>
		<path class="st7" d="M124.4,75.9c-1.6,0-2.9,1.3-2.9,2.9c0,0-2.9,8.8-2.9,23.4c0,1.5,1.3,2.9,2.9,2.9h20.2
			c0.1-0.5,0.2-0.9,0.2-1.4l2.8-27.8H124.4z"/>
	</g>
</g>
<path class="st7" d="M86,109c1.7-10.9-2-22.2-9.9-30.1c-13.7-13.7-35.9-13.7-49.5,0l-0.9-0.8c3.6,3.8,21.6,23.2,25.6,28.5v2.9h34.6
	L86,109z"/>
<path class="st6" d="M77.6,103.7c0,0.9,0,1.7-0.1,2.6c-0.1,0.9-0.2,1.7-0.4,2.6c-0.2,0.8-0.4,1.7-0.6,2.5c-0.2,0.8-0.5,1.6-0.9,2.4
	c-0.3,0.8-0.7,1.6-1.1,2.3c-0.4,0.8-0.8,1.5-1.3,2.2c-0.5,0.7-1,1.4-1.5,2.1c-0.5,0.7-1.1,1.3-1.7,1.9c-0.6,0.6-1.2,1.2-1.9,1.7
	c-0.7,0.5-1.4,1.1-2.1,1.5c-0.7,0.5-1.5,0.9-2.2,1.3c-0.8,0.4-1.5,0.8-2.3,1.1c-0.8,0.3-1.6,0.6-2.4,0.9c-0.8,0.2-1.7,0.5-2.5,0.6
	c-0.8,0.2-1.7,0.3-2.6,0.4c-0.9,0.1-1.7,0.1-2.6,0.1s-1.7,0-2.6-0.1c-0.9-0.1-1.7-0.2-2.6-0.4c-0.8-0.2-1.7-0.4-2.5-0.6
	c-0.8-0.2-1.6-0.5-2.4-0.9c-0.8-0.3-1.6-0.7-2.3-1.1c-0.8-0.4-1.5-0.8-2.2-1.3s-1.4-1-2.1-1.5s-1.3-1.1-1.9-1.7s-1.2-1.2-1.7-1.9
	c-0.5-0.7-1.1-1.4-1.5-2.1c-0.5-0.7-0.9-1.5-1.3-2.2c-0.4-0.8-0.8-1.5-1.1-2.3c-0.3-0.8-0.6-1.6-0.9-2.4c-0.2-0.8-0.5-1.7-0.6-2.5
	c-0.2-0.8-0.3-1.7-0.4-2.6c-0.1-0.9-0.1-1.7-0.1-2.6c0-0.9,0-1.7,0.1-2.6c0.1-0.9,0.2-1.7,0.4-2.6c0.2-0.8,0.4-1.7,0.6-2.5
	c0.2-0.8,0.5-1.6,0.9-2.4c0.3-0.8,0.7-1.6,1.1-2.3c0.4-0.8,0.8-1.5,1.3-2.2c0.5-0.7,1-1.4,1.5-2.1c0.5-0.7,1.1-1.3,1.7-1.9
	s1.2-1.2,1.9-1.7s1.4-1.1,2.1-1.5c0.7-0.5,1.5-0.9,2.2-1.3c0.8-0.4,1.5-0.8,2.3-1.1c0.8-0.3,1.6-0.6,2.4-0.9
	c0.8-0.2,1.7-0.5,2.5-0.6c0.8-0.2,1.7-0.3,2.6-0.4c0.9-0.1,1.7-0.1,2.6-0.1s1.7,0,2.6,0.1c0.9,0.1,1.7,0.2,2.6,0.4
	c0.8,0.2,1.7,0.4,2.5,0.6c0.8,0.3,1.6,0.5,2.4,0.9c0.8,0.3,1.6,0.7,2.3,1.1c0.8,0.4,1.5,0.9,2.2,1.3c0.7,0.5,1.4,1,2.1,1.5
	c0.7,0.5,1.3,1.1,1.9,1.7c0.6,0.6,1.2,1.2,1.7,1.9c0.5,0.7,1.1,1.4,1.5,2.1c0.5,0.7,0.9,1.5,1.3,2.2c0.4,0.8,0.8,1.5,1.1,2.3
	c0.3,0.8,0.6,1.6,0.9,2.4c0.2,0.8,0.5,1.7,0.6,2.5c0.2,0.8,0.3,1.7,0.4,2.6C77.6,102,77.6,102.9,77.6,103.7z"/>
<g>
	<g>
		<path class="st8" d="M54.4,132.8c-1.5,0-2.7-1.1-2.9-2.6c-0.2-1.6,1-3.1,2.6-3.2c0.9-0.1,1.7-0.2,2.6-0.4c1.6-0.4,3.1,0.6,3.5,2.2
			c0.4,1.6-0.6,3.1-2.2,3.5c-1.1,0.2-2.1,0.4-3.2,0.6C54.6,132.8,54.5,132.8,54.4,132.8z M45.6,132.3c-0.2,0-0.4,0-0.6-0.1
			c-1.1-0.2-2.1-0.5-3.2-0.9c-1.5-0.5-2.3-2.2-1.8-3.7c0.5-1.5,2.2-2.3,3.7-1.8c0.8,0.3,1.7,0.5,2.5,0.7c1.6,0.4,2.6,1.9,2.2,3.5
			C48.1,131.4,46.9,132.3,45.6,132.3z M65.4,128.9c-1,0-1.9-0.5-2.5-1.4c-0.9-1.4-0.4-3.2,0.9-4c0.7-0.5,1.4-1,2.1-1.5
			c1.3-1,3.1-0.8,4.1,0.4c1,1.3,0.8,3.1-0.4,4.1c-0.9,0.7-1.7,1.3-2.7,1.9C66.5,128.8,65.9,128.9,65.4,128.9z M35,127.3
			c-0.6,0-1.3-0.2-1.8-0.6c-0.9-0.7-1.7-1.4-2.4-2.2c-1.1-1.1-1.2-3,0-4.1c1.1-1.1,3-1.2,4.1,0c0.6,0.6,1.3,1.2,2,1.7
			c1.3,1,1.5,2.8,0.5,4.1C36.7,126.9,35.9,127.3,35,127.3z M73.6,120.6c-0.5,0-1.1-0.1-1.5-0.4c-1.4-0.9-1.8-2.7-0.9-4
			c0.5-0.7,0.9-1.5,1.3-2.3c0.7-1.5,2.4-2.1,3.9-1.4c1.5,0.7,2.1,2.4,1.4,3.9c-0.5,1-1,2-1.6,2.9C75.6,120.1,74.6,120.6,73.6,120.6z
			 M27.7,118.2c-1.1,0-2.1-0.6-2.6-1.7c-0.5-1-0.9-2-1.3-3c-0.5-1.5,0.3-3.2,1.8-3.7c1.5-0.5,3.2,0.3,3.7,1.8c0.3,0.8,0.6,1.6,1,2.4
			c0.7,1.5,0.1,3.2-1.3,3.9C28.6,118.1,28.1,118.2,27.7,118.2z M77.5,109.5c-0.1,0-0.2,0-0.3,0c-1.6-0.2-2.8-1.6-2.6-3.2
			c0.1-0.8,0.1-1.7,0.1-2.6c0-1.6,1.3-3,2.9-3c1.6,0,2.9,1.3,2.9,2.9v0.1c0,1.1-0.1,2.2-0.2,3.2C80.2,108.4,79,109.5,77.5,109.5z
			 M25.1,106.7c-1.6,0-2.9-1.3-2.9-2.9v-0.1c0-1.1,0.1-2.2,0.2-3.3c0.2-1.6,1.6-2.8,3.2-2.6c1.6,0.2,2.8,1.6,2.6,3.2
			c-0.1,0.9-0.1,1.7-0.1,2.6C28,105.3,26.7,106.7,25.1,106.7z M76.2,97.9c-1.2,0-2.3-0.7-2.8-2c-0.3-0.8-0.6-1.6-1-2.4
			c-0.7-1.5-0.1-3.2,1.4-3.9c1.5-0.7,3.2-0.1,3.9,1.4c0.5,1,0.9,2,1.3,3c0.5,1.5-0.3,3.2-1.8,3.7C76.8,97.8,76.5,97.9,76.2,97.9z
			 M27.7,95.2c-0.4,0-0.9-0.1-1.3-0.3c-1.5-0.7-2.1-2.5-1.4-3.9c0.5-1,1-1.9,1.6-2.9c0.9-1.4,2.7-1.8,4-0.9c1.4,0.9,1.8,2.7,0.9,4
			c-0.5,0.7-0.9,1.5-1.3,2.3C29.8,94.6,28.7,95.2,27.7,95.2z M69.9,88c-0.7,0-1.5-0.3-2.1-0.9c-0.6-0.6-1.3-1.2-2-1.8
			c-1.3-1-1.5-2.8-0.5-4.1c1-1.3,2.8-1.5,4.1-0.5c0.9,0.7,1.7,1.4,2.4,2.2c1.1,1.1,1.1,3,0,4.1C71.4,87.7,70.7,88,69.9,88z
			 M34.9,86.1c-0.9,0-1.7-0.4-2.3-1.1c-1-1.3-0.8-3.1,0.5-4.1c0.9-0.7,1.7-1.3,2.7-1.9c1.4-0.9,3.2-0.4,4,0.9c0.9,1.4,0.5,3.2-0.9,4
			c-0.7,0.5-1.5,1-2.1,1.5C36.2,85.8,35.6,86.1,34.9,86.1z M60,81.8c-0.3,0-0.6-0.1-1-0.2c-0.8-0.3-1.7-0.5-2.5-0.7
			c-1.6-0.4-2.6-1.9-2.2-3.5c0.4-1.6,1.9-2.6,3.5-2.2c1.1,0.2,2.1,0.5,3.2,0.9c1.5,0.5,2.3,2.2,1.8,3.7C62.3,81,61.2,81.8,60,81.8z
			 M45.5,81c-1.3,0-2.5-0.9-2.8-2.3c-0.4-1.6,0.6-3.1,2.2-3.5c1.1-0.2,2.1-0.4,3.2-0.5c1.6-0.2,3.1,1,3.2,2.6c0.2,1.6-1,3.1-2.6,3.2
			c-0.9,0.1-1.7,0.2-2.6,0.4C45.9,80.9,45.7,81,45.5,81z"/>
	</g>
</g>
<path class="st6" d="M136.1,111c0,0.6,0,1.2-0.1,1.9c-0.1,0.6-0.2,1.2-0.3,1.8c-0.1,0.6-0.3,1.2-0.5,1.8c-0.2,0.6-0.4,1.2-0.6,1.8
	c-0.2,0.6-0.5,1.1-0.8,1.7c-0.3,0.6-0.6,1.1-1,1.6c-0.3,0.5-0.7,1-1.1,1.5c-0.4,0.5-0.8,0.9-1.3,1.4c-0.4,0.4-0.9,0.9-1.4,1.3
	c-0.5,0.4-1,0.8-1.5,1.1c-0.5,0.3-1.1,0.7-1.6,1s-1.1,0.6-1.7,0.8c-0.6,0.2-1.2,0.4-1.8,0.6c-0.6,0.2-1.2,0.3-1.8,0.5
	c-0.6,0.1-1.2,0.2-1.8,0.3c-0.6,0.1-1.2,0.1-1.9,0.1c-0.6,0-1.2,0-1.9-0.1c-0.6-0.1-1.2-0.2-1.8-0.3c-0.6-0.1-1.2-0.3-1.8-0.5
	c-0.6-0.2-1.2-0.4-1.8-0.6c-0.6-0.2-1.1-0.5-1.7-0.8s-1.1-0.6-1.6-1c-0.5-0.3-1-0.7-1.5-1.1c-0.5-0.4-0.9-0.8-1.4-1.3
	c-0.4-0.4-0.9-0.9-1.2-1.4c-0.4-0.5-0.8-1-1.1-1.5c-0.3-0.5-0.7-1.1-1-1.6c-0.3-0.5-0.6-1.1-0.8-1.7c-0.2-0.6-0.4-1.2-0.6-1.8
	c-0.2-0.6-0.3-1.2-0.5-1.8c-0.1-0.6-0.2-1.2-0.3-1.8c-0.1-0.6-0.1-1.2-0.1-1.9s0-1.2,0.1-1.9c0.1-0.6,0.2-1.2,0.3-1.8
	c0.1-0.6,0.3-1.2,0.5-1.8c0.2-0.6,0.4-1.2,0.6-1.8s0.5-1.1,0.8-1.7c0.3-0.6,0.6-1.1,1-1.6c0.3-0.5,0.7-1,1.1-1.5
	c0.4-0.5,0.8-0.9,1.2-1.4c0.4-0.4,0.9-0.9,1.4-1.3c0.5-0.4,1-0.8,1.5-1.1c0.5-0.3,1.1-0.7,1.6-1c0.5-0.3,1.1-0.6,1.7-0.8
	c0.6-0.2,1.2-0.4,1.8-0.6c0.6-0.2,1.2-0.3,1.8-0.5c0.6-0.1,1.2-0.2,1.8-0.3c0.6-0.1,1.2-0.1,1.9-0.1c0.6,0,1.2,0,1.9,0.1
	c0.6,0.1,1.2,0.2,1.8,0.3c0.6,0.1,1.2,0.3,1.8,0.5c0.6,0.2,1.2,0.4,1.8,0.6c0.6,0.2,1.1,0.5,1.7,0.8c0.5,0.3,1.1,0.6,1.6,1
	c0.5,0.3,1,0.7,1.5,1.1c0.5,0.4,0.9,0.8,1.4,1.3c0.4,0.4,0.9,0.9,1.3,1.4c0.4,0.5,0.8,1,1.1,1.5c0.3,0.5,0.7,1.1,1,1.6
	c0.3,0.5,0.6,1.1,0.8,1.7c0.2,0.6,0.4,1.2,0.6,1.8c0.2,0.6,0.3,1.2,0.5,1.8c0.1,0.6,0.2,1.2,0.3,1.8
	C136,109.8,136.1,110.4,136.1,111z"/>
<g>
	<g>
		<path class="st8" d="M113.1,132.6c-0.2,0-0.4,0-0.6-0.1c-1.1-0.2-2.2-0.5-3.2-0.9c-1.5-0.6-2.3-2.3-1.7-3.8
			c0.6-1.5,2.3-2.3,3.8-1.7c0.8,0.3,1.6,0.5,2.4,0.7c1.6,0.3,2.6,1.9,2.3,3.5C115.7,131.6,114.5,132.6,113.1,132.6z M121.8,132.4
			c-1.3,0-2.5-0.9-2.8-2.2c-0.4-1.6,0.5-3.2,2.1-3.6c0.8-0.2,1.6-0.5,2.3-0.8c1.5-0.6,3.2,0,3.8,1.5c0.6,1.5,0,3.2-1.5,3.8
			c-1,0.4-2.1,0.8-3.2,1.1C122.3,132.4,122.1,132.4,121.8,132.4z M103.1,126.9c-0.8,0-1.6-0.3-2.1-0.9c-0.8-0.8-1.5-1.7-2.1-2.7
			c-0.9-1.3-0.5-3.2,0.8-4.1c1.3-0.9,3.2-0.5,4.1,0.8c0.4,0.7,1,1.3,1.5,1.9c1.1,1.2,1,3-0.2,4.1
			C104.6,126.6,103.9,126.9,103.1,126.9z M131.6,126.3c-0.7,0-1.3-0.2-1.9-0.7c-1.2-1-1.4-2.9-0.3-4.1c0.5-0.6,1-1.3,1.4-2
			c0.8-1.4,2.6-1.8,4-1c1.4,0.8,1.8,2.6,1,4c-0.6,1-1.2,1.9-2,2.7C133.2,125.9,132.4,126.3,131.6,126.3z M98.2,116.5
			c-1.4,0-2.7-1.1-2.9-2.6c-0.1-0.9-0.2-1.9-0.2-2.9c0-1.1,0.1-2.3,0.3-3.4c0.2-1.6,1.7-2.7,3.3-2.5c1.6,0.2,2.7,1.7,2.4,3.3
			c-0.1,0.8-0.2,1.7-0.2,2.5c0,0.7,0,1.4,0.1,2.1c0.2,1.6-0.9,3.1-2.5,3.3C98.5,116.5,98.4,116.5,98.2,116.5z M136,115.6
			c-0.1,0-0.2,0-0.2,0c-1.6-0.1-2.8-1.5-2.7-3.2c0-0.5,0.1-0.9,0.1-1.4c0-0.4,0-0.7,0-1.1c-0.1-1.6,1.1-3,2.7-3.1
			c1.6-0.1,3,1.1,3.1,2.7c0,0.5,0,1,0,1.4c0,0.6,0,1.3-0.1,1.9C138.8,114.5,137.5,115.6,136,115.6z M133.5,104.4c-1,0-2-0.5-2.5-1.5
			c-0.4-0.7-0.9-1.4-1.4-2c-1-1.3-0.8-3.1,0.4-4.1c1.3-1,3.1-0.8,4.1,0.4c0.7,0.9,1.4,1.8,1.9,2.8c0.8,1.4,0.3,3.2-1.1,4
			C134.5,104.3,134,104.4,133.5,104.4z M101.6,103c-0.6,0-1.2-0.2-1.7-0.5c-1.3-0.9-1.6-2.8-0.7-4.1c0.7-0.9,1.4-1.8,2.1-2.6
			c1.1-1.2,3-1.2,4.1-0.1c1.2,1.1,1.2,3,0.1,4.1c-0.6,0.6-1.1,1.2-1.6,1.9C103.4,102.6,102.5,103,101.6,103z M125,96.6
			c-0.4,0-0.8-0.1-1.2-0.3c-0.7-0.3-1.5-0.6-2.3-0.8c-1.6-0.4-2.5-2.1-2-3.6c0.4-1.6,2-2.5,3.6-2c1.1,0.3,2.1,0.7,3.2,1.2
			c1.5,0.7,2.1,2.4,1.4,3.9C127.1,96,126.1,96.6,125,96.6z M110.7,96c-1.2,0-2.3-0.7-2.7-1.9c-0.5-1.5,0.3-3.2,1.8-3.7
			c1-0.4,2.1-0.7,3.2-0.9c1.6-0.3,3.1,0.7,3.4,2.3c0.3,1.6-0.7,3.1-2.3,3.4c-0.8,0.2-1.6,0.4-2.4,0.6C111.4,96,111,96,110.7,96z"/>
	</g>
</g>
<path class="st9" d="M127.3,111c0,0.7-0.1,1.3-0.2,2c-0.1,0.7-0.3,1.3-0.6,1.9c-0.3,0.6-0.6,1.2-0.9,1.8c-0.4,0.6-0.8,1.1-1.3,1.6
	c-0.5,0.5-1,0.9-1.6,1.3c-0.6,0.4-1.1,0.7-1.8,0.9c-0.6,0.3-1.3,0.5-1.9,0.6c-0.7,0.1-1.3,0.2-2,0.2c-0.7,0-1.3-0.1-2-0.2
	c-0.7-0.1-1.3-0.3-1.9-0.6c-0.6-0.3-1.2-0.6-1.8-0.9s-1.1-0.8-1.5-1.3c-0.5-0.5-0.9-1-1.3-1.6c-0.4-0.6-0.7-1.2-0.9-1.8
	c-0.3-0.6-0.5-1.3-0.6-1.9c-0.1-0.7-0.2-1.3-0.2-2c0-0.7,0.1-1.3,0.2-2c0.1-0.7,0.3-1.3,0.6-1.9c0.3-0.6,0.6-1.2,0.9-1.8
	c0.4-0.6,0.8-1.1,1.3-1.6c0.5-0.5,1-0.9,1.5-1.3c0.6-0.4,1.1-0.7,1.8-0.9c0.6-0.3,1.3-0.5,1.9-0.6c0.7-0.1,1.3-0.2,2-0.2
	c0.7,0,1.3,0.1,2,0.2c0.7,0.1,1.3,0.3,1.9,0.6c0.6,0.3,1.2,0.6,1.8,0.9c0.6,0.4,1.1,0.8,1.6,1.3c0.5,0.5,0.9,1,1.3,1.6
	c0.4,0.6,0.7,1.2,0.9,1.8c0.3,0.6,0.4,1.3,0.6,1.9C127.2,109.7,127.3,110.3,127.3,111z"/>
<path class="st9" d="M66,103.7c0,1-0.1,1.9-0.3,2.9c-0.2,0.9-0.5,1.9-0.8,2.7c-0.4,0.9-0.8,1.7-1.3,2.5c-0.5,0.8-1.1,1.5-1.8,2.2
	c-0.7,0.7-1.4,1.3-2.2,1.8c-0.8,0.5-1.6,1-2.5,1.4c-0.9,0.4-1.8,0.6-2.7,0.8c-0.9,0.2-1.9,0.3-2.8,0.3c-1,0-1.9-0.1-2.8-0.3
	c-0.9-0.2-1.9-0.5-2.7-0.8c-0.9-0.4-1.7-0.8-2.5-1.4c-0.8-0.5-1.5-1.1-2.2-1.8c-0.7-0.7-1.3-1.4-1.8-2.2c-0.5-0.8-1-1.6-1.3-2.5
	c-0.4-0.9-0.6-1.8-0.8-2.7c-0.2-0.9-0.3-1.9-0.3-2.9s0.1-1.9,0.3-2.9s0.5-1.9,0.8-2.7c0.4-0.9,0.8-1.7,1.3-2.5
	c0.5-0.8,1.1-1.5,1.8-2.2c0.7-0.7,1.4-1.3,2.2-1.8c0.8-0.5,1.6-1,2.5-1.4c0.9-0.4,1.8-0.6,2.7-0.8c0.9-0.2,1.9-0.3,2.8-0.3
	c1,0,1.9,0.1,2.8,0.3c0.9,0.2,1.9,0.5,2.7,0.8c0.9,0.4,1.7,0.8,2.5,1.4c0.8,0.5,1.5,1.1,2.2,1.8c0.7,0.7,1.3,1.4,1.8,2.2
	c0.5,0.8,1,1.6,1.3,2.5c0.4,0.9,0.6,1.8,0.8,2.7S66,102.7,66,103.7z"/>
<path class="st10" d="M121.4,111c0,0.3,0,0.6-0.1,0.9c-0.1,0.3-0.1,0.6-0.2,0.8c-0.1,0.3-0.2,0.5-0.4,0.8c-0.2,0.2-0.3,0.5-0.5,0.7
	c-0.2,0.2-0.4,0.4-0.7,0.5c-0.2,0.2-0.5,0.3-0.8,0.4c-0.3,0.1-0.5,0.2-0.8,0.2c-0.3,0.1-0.6,0.1-0.9,0.1c-0.3,0-0.6,0-0.9-0.1
	c-0.3-0.1-0.6-0.1-0.8-0.2c-0.3-0.1-0.5-0.2-0.8-0.4c-0.2-0.2-0.5-0.3-0.7-0.5c-0.2-0.2-0.4-0.4-0.5-0.7c-0.2-0.2-0.3-0.5-0.4-0.8
	c-0.1-0.3-0.2-0.5-0.2-0.8c-0.1-0.3-0.1-0.6-0.1-0.9s0-0.6,0.1-0.9c0.1-0.3,0.1-0.6,0.2-0.8c0.1-0.3,0.2-0.5,0.4-0.8
	c0.2-0.2,0.3-0.5,0.5-0.7c0.2-0.2,0.4-0.4,0.7-0.5c0.2-0.2,0.5-0.3,0.8-0.4c0.3-0.1,0.5-0.2,0.8-0.2c0.3-0.1,0.6-0.1,0.9-0.1
	c0.3,0,0.6,0,0.9,0.1c0.3,0.1,0.6,0.1,0.8,0.2c0.3,0.1,0.5,0.2,0.8,0.4c0.2,0.2,0.5,0.3,0.7,0.5c0.2,0.2,0.4,0.4,0.5,0.7
	c0.2,0.2,0.3,0.5,0.4,0.8c0.1,0.3,0.2,0.5,0.2,0.8C121.4,110.4,121.4,110.7,121.4,111z"/>
<path class="st10" d="M57.2,103.7c0,0.4,0,0.8-0.1,1.1s-0.2,0.7-0.3,1.1c-0.1,0.4-0.3,0.7-0.5,1c-0.2,0.3-0.5,0.6-0.7,0.9
	c-0.3,0.3-0.6,0.5-0.9,0.7c-0.3,0.2-0.7,0.4-1,0.5c-0.4,0.1-0.7,0.3-1.1,0.3c-0.4,0.1-0.8,0.1-1.1,0.1c-0.4,0-0.8,0-1.1-0.1
	c-0.4-0.1-0.7-0.2-1.1-0.3c-0.4-0.1-0.7-0.3-1-0.5c-0.3-0.2-0.6-0.5-0.9-0.7c-0.3-0.3-0.5-0.6-0.7-0.9c-0.2-0.3-0.4-0.7-0.5-1
	c-0.1-0.4-0.3-0.7-0.3-1.1c-0.1-0.4-0.1-0.8-0.1-1.1s0-0.8,0.1-1.1c0.1-0.4,0.2-0.7,0.3-1.1c0.1-0.4,0.3-0.7,0.5-1
	c0.2-0.3,0.5-0.6,0.7-0.9c0.3-0.3,0.6-0.5,0.9-0.7c0.3-0.2,0.7-0.4,1-0.5c0.4-0.1,0.7-0.3,1.1-0.3c0.4-0.1,0.8-0.1,1.1-0.1
	c0.4,0,0.8,0,1.1,0.1c0.4,0.1,0.7,0.2,1.1,0.3s0.7,0.3,1,0.5c0.3,0.2,0.6,0.5,0.9,0.7c0.3,0.3,0.5,0.6,0.7,0.9
	c0.2,0.3,0.4,0.7,0.5,1c0.1,0.4,0.3,0.7,0.3,1.1C57.2,102.9,57.2,103.3,57.2,103.7z"/>
</svg>
