<?xml version="1.0" encoding="utf-8"?>
<!-- Generator: Adobe Illustrator 26.1.0, SVG Export Plug-In . SVG Version: 6.00 Build 0)  -->
<svg version="1.1" id="Layer_1" xmlns="http://www.w3.org/2000/svg" xmlns:xlink="http://www.w3.org/1999/xlink" x="0px" y="0px"
	 viewBox="0 0 167 167" style="enable-background:new 0 0 167 167;" xml:space="preserve">
<style type="text/css">
	.st0{fill:#979A99;}
	.st1{fill:#D1D2D0;}
	.st2{fill:#C0C1BF;}
	.st3{fill:#EFEFED;}
</style>
<path class="st0" d="M79.9,33.4l-0.1,36.4l-0.9-3.1L79,30.2L79.9,33.4"/>
<path class="st1" d="M156.6,75.1l-0.1,36.5l-5.9-0.9l0.1-36.5L156.6,75.1"/>
<g>
	<g>
		<path class="st2" d="M163.2,71.2l-0.1,36.5l-6.6,3.8l0.1-36.5L163.2,71.2"/>
	</g>
</g>
<path class="st0" d="M150.8,74.2l-0.1,36.5L133,120.9l0.1-36.5L150.8,74.2"/>
<path class="st1" d="M128.1,91.7l-0.1,36.5L50.3,83.3l0.1-36.5L128.1,91.7"/>
<path class="st2" d="M134.6,87.8l-0.1,36.5l-6.6,3.8l0.1-36.5L134.6,87.8"/>
<g>
	<g>
		<path class="st3" d="M163.2,71.2l-6.6,3.8l-5.9-0.9l-17.6,10.3l1.5,3.4l-6.6,3.8L50.5,46.8L57,43l5.3,0.6l17.6-10.2L79,30.2
			l6.6-3.8L163.2,71.2"/>
	</g>
</g>
<path class="st2" d="M65.5,48.9l9.3,5.3l14.7,8.5V35.1L65.5,48.9"/>
<path class="st1" d="M89.3,35.1v27.6l14.7-8.5l9.3-5.3L89.3,35.1"/>
<path class="st2" d="M96.3,66.8l9.3,5.3l14.7,8.5V53.1L96.3,66.8"/>
<path class="st1" d="M120.3,53.1v27.6l14.7-8.5l9.3-5.3L120.3,53.1"/>
<path class="st0" d="M33.4,70.6v36.5l-0.9-3.1V67.5L33.4,70.6"/>
<path class="st1" d="M110.2,112.3l-0.1,36.5l-5.9-0.9l0.1-36.5L110.2,112.3"/>
<path class="st2" d="M116.8,108.4l-0.1,36.5l-6.6,3.8l0.1-36.5L116.8,108.4"/>
<path class="st0" d="M104.2,111.5l-0.1,36.5l-17.6,10.3l0.1-36.5L104.2,111.5"/>
<g>
	<g>
		<path class="st1" d="M81.5,128.9l-0.1,36.5L3.8,120.5L3.9,84L81.5,128.9"/>
	</g>
</g>
<g>
	<g>
		<path class="st2" d="M88.1,125.1L88,161.6l-6.6,3.8l0.1-36.5L88.1,125.1"/>
	</g>
</g>
<g>
	<g>
		<path class="st3" d="M116.8,108.4l-6.6,3.8l-5.9-0.9l-17.6,10.3l1.5,3.4l-6.6,3.8L3.9,84.1l6.6-3.8l5.3,0.6l17.6-10.3l-0.9-3.1
			l6.6-3.8L116.8,108.4"/>
	</g>
</g>
<path class="st2" d="M18.9,86.2l9.3,5.3l14.7,8.5V72.4L18.9,86.2"/>
<path class="st1" d="M42.9,72.4v27.6l14.7-8.5l9.3-5.3L42.9,72.4"/>
<path class="st2" d="M49.9,104.1l9.3,5.3l14.7,8.5V90.3L49.9,104.1"/>
<path class="st1" d="M73.7,90.3v27.6l14.7-8.5l9.3-5.3L73.7,90.3"/>
<path class="st0" d="M111.6,15l0.1,36.5l0.9-3.1l-0.1-36.5L111.6,15"/>
<path class="st1" d="M34.9,56.7L35,93.2l5.9-0.9l-0.1-36.5L34.9,56.7"/>
<path class="st2" d="M28.3,52.9l0.1,36.5l6.6,3.8l-0.1-36.5L28.3,52.9"/>
<path class="st0" d="M40.7,55.9l0.1,36.5l17.7,10.2l-0.1-36.4L40.7,55.9"/>
<path class="st1" d="M63.4,73.3l0.1,36.5l77.6-44.8l-0.1-36.5L63.4,73.3"/>
<path class="st2" d="M56.9,69.5l0.1,36.4l6.6,3.8l-0.1-36.5L56.9,69.5"/>
<g>
	<g>
		<path class="st3" d="M28.3,52.9l6.6,3.8l5.9-0.9l17.7,10.3L57,69.5l6.6,3.8l77.6-44.8l-6.6-3.8l-5.3,0.6L111.6,15l0.9-3.1
			l-6.6-3.8L28.3,52.9"/>
	</g>
</g>
<path class="st2" d="M126,30.6l-9.3,5.3l-14.7,8.5V16.8L126,30.6"/>
<path class="st1" d="M102.2,16.8v27.6l-14.7-8.5l-9.3-5.3L102.2,16.8"/>
<path class="st2" d="M95.2,48.5l-9.3,5.3l-14.7,8.5V34.8L95.2,48.5"/>
<path class="st1" d="M71.2,34.8v27.6l-14.7-8.5l-9.3-5.3L71.2,34.8"/>
</svg>
