<?xml version="1.0" encoding="utf-8"?>
<!-- Generator: Adobe Illustrator 26.1.0, SVG Export Plug-In . SVG Version: 6.00 Build 0)  -->
<svg version="1.1" id="Layer_1" xmlns="http://www.w3.org/2000/svg" xmlns:xlink="http://www.w3.org/1999/xlink" x="0px" y="0px"
	 viewBox="0 0 167 167" style="enable-background:new 0 0 167 167;" xml:space="preserve">
<style type="text/css">
	.st0{fill:#9AD760;}
	.st1{fill:#86D04C;}
	.st2{fill:#98682A;}
	.st3{fill:#75B93E;}
	.st4{fill:#814722;}
	.st5{fill:#2E9141;}
	.st6{fill:#23673A;}
	.st7{fill:#41AD3D;}
</style>
<g>
	<g>
		<path class="st0" d="M84.2,120.4l-80.1-46l80.1-46l80.1,46L84.2,120.4"/>
	</g>
</g>
<g>
	<g>
		<path class="st1" d="M84.2,120.4l-80.1-46v8.7l80.1,46V120.4"/>
	</g>
</g>
<g>
	<g>
		<path class="st2" d="M84.2,132.9l-80.1-46v-3.8l80.1,46V132.9"/>
	</g>
</g>
<g>
	<g>
		<path class="st3" d="M84.2,120.4l80.1-46v8.7l-80.1,46V120.4"/>
	</g>
</g>
<g>
	<g>
		<path class="st4" d="M84.2,132.9l80.1-46v-3.8l-80.1,46V132.9"/>
	</g>
</g>
<g>
	<g>
		<path class="st5" d="M105,67.9c6.2,5.6,8.1,14.3,8.8,14.3h4.2C110.9,70.5,105,67.9,105,67.9"/>
	</g>
</g>
<g>
	<g>
		<path class="st6" d="M116.8,82.2c0,0-2.6-14.6-6.6-19.8c0,0,7,4.6,11.4,19.8H116.8"/>
	</g>
</g>
<g>
	<g>
		<path class="st5" d="M129.1,82.2c0,0,0.5-11.4-2.8-18.8c0,0,3.2,2.8,7.6,18L129.1,82.2"/>
	</g>
</g>
<g>
	<g>
		<path class="st6" d="M120.8,82.2c0,0-0.3-13.1,4.5-22.8c0,0-0.9,13.3,0.3,22.8H120.8"/>
	</g>
</g>
<g>
	<g>
		<path class="st7" d="M124.5,82.2c0,0,1.4-15,10.1-24.8c0,0-6.8,16.7-4.9,24.8H124.5"/>
	</g>
</g>
<g>
	<g>
		<path class="st6" d="M129.6,82.2c0,0,0.7-11.6,7.4-20.5c0,0-4.5,15.5-3.3,20.5H129.6"/>
	</g>
</g>
<g>
	<g>
		<path class="st5" d="M131.7,82.2H128c0,0-3.5-12.5-8.7-22.7C119.3,59.5,128.7,69.3,131.7,82.2"/>
	</g>
</g>
<g>
	<g>
		<path class="st5" d="M131.2,82.2h3.7c0,0-0.8-4.5,7.9-17.1C142.8,65.1,132.2,71.3,131.2,82.2"/>
	</g>
</g>
<g>
	<g>
		<path class="st7" d="M119.9,82.2c0,0,0.5-10.8-2.8-18.3c0,0,3.2,3,7.6,18.3H119.9"/>
	</g>
</g>
<g>
	<g>
		<path class="st5" d="M62.2,80c7.7,7.1,10.4,18,11.2,18.1h5.4C69.7,83.4,62.2,80,62.2,80"/>
	</g>
</g>
<g>
	<g>
		<path class="st6" d="M77.3,98.1c0,0-3.3-18.4-8.4-24.9c0,0,8.9,5.8,14.6,24.9H77.3"/>
	</g>
</g>
<g>
	<g>
		<path class="st5" d="M92.8,98.1c0,0,0.7-14.4-3.4-23.8c0,0,3.9,3.4,9.6,22.7L92.8,98.1"/>
	</g>
</g>
<g>
	<g>
		<path class="st6" d="M82.3,98.1c0,0-0.4-16.7,5.6-28.9c0,0-1.1,16.8,0.4,28.9H82.3"/>
	</g>
</g>
<g>
	<g>
		<path class="st7" d="M86.9,98.1c0,0,1.7-18.9,12.9-31.3c0,0-8.7,21-6.2,31.3L86.9,98.1"/>
	</g>
</g>
<g>
	<g>
		<path class="st6" d="M93.6,98.1c0,0,0.8-14.6,9.3-25.9c0,0-5.8,19.6-4.2,25.9L93.6,98.1"/>
	</g>
</g>
<g>
	<g>
		<path class="st5" d="M96.2,98.1h-4.7c0,0-4.5-15.8-11-28.8C80.5,69.3,92.4,81.9,96.2,98.1"/>
	</g>
</g>
<g>
	<g>
		<path class="st5" d="M95.6,98.1h4.7c0,0-1.1-5.5,10.1-21.5C110.4,76.5,96.9,84.4,95.6,98.1"/>
	</g>
</g>
<g>
	<g>
		<path class="st7" d="M81.1,98.1c0,0,0.7-13.7-3.4-23c0,0,3.9,3.8,9.7,23H81.1"/>
	</g>
</g>
<g>
	<g>
		<path class="st5" d="M83.1,58.7c3.5,3.3,4.7,8.3,5.1,8.3h2.5C86.5,60.3,83.1,58.7,83.1,58.7"/>
	</g>
</g>
<g>
	<g>
		<path class="st6" d="M90.1,67c0,0-1.6-8.4-3.8-11.4c0,0,4.1,2.6,6.7,11.4H90.1"/>
	</g>
</g>
<g>
	<g>
		<path class="st5" d="M97.2,67c0,0,0.3-6.6-1.6-10.9c0,0,1.8,1.6,4.5,10.4L97.2,67"/>
	</g>
</g>
<g>
	<g>
		<path class="st6" d="M92.4,67c0,0-0.1-7.6,2.6-13.3c0,0-0.5,7.7,0.1,13.3H92.4"/>
	</g>
</g>
<g>
	<g>
		<path class="st7" d="M94.5,67c0,0,0.8-8.7,5.9-14.3c0,0-3.9,9.6-2.9,14.3H94.5"/>
	</g>
</g>
<g>
	<g>
		<path class="st6" d="M97.5,67c0,0,0.4-6.7,4.3-11.8c0,0-2.6,8.9-2,11.8H97.5"/>
	</g>
</g>
<g>
	<g>
		<path class="st5" d="M98.7,67h-2.1c0,0-2.1-7.2-5-13.1C91.5,53.8,97,59.6,98.7,67"/>
	</g>
</g>
<g>
	<g>
		<path class="st5" d="M98.5,67h2.2c0,0-0.5-2.5,4.6-9.8C105.3,57.1,99.1,60.8,98.5,67"/>
	</g>
</g>
<g>
	<g>
		<path class="st7" d="M91.9,67c0,0,0.3-6.3-1.6-10.5c0,0,1.8,1.7,4.5,10.5H91.9"/>
	</g>
</g>
<g>
	<g>
		<path class="st5" d="M75.4,62.5c-6.6,5.9-8.7,15-9.3,15.1h-4.5C69.1,65.2,75.4,62.5,75.4,62.5"/>
	</g>
</g>
<g>
	<g>
		<path class="st6" d="M62.6,77.5c0,0,2.8-15.4,7.1-20.7c0,0-7.5,4.9-12.2,20.7H62.6"/>
	</g>
</g>
<g>
	<g>
		<path class="st5" d="M49.8,77.5c0,0-0.5-12.1,2.9-19.8c0,0-3.3,2.9-8.1,18.9L49.8,77.5"/>
	</g>
</g>
<g>
	<g>
		<path class="st6" d="M58.5,77.5c0,0,0.3-13.9-4.7-24.2c0,0,0.9,14-0.3,24.2H58.5"/>
	</g>
</g>
<g>
	<g>
		<path class="st7" d="M54.6,77.5c0,0-1.4-15.8-10.8-26.1c0,0,7.2,17.5,5.1,26.1H54.6"/>
	</g>
</g>
<g>
	<g>
		<path class="st6" d="M49.1,77.5c0,0-0.7-12.2-7.9-21.5c0,0,4.9,16.3,3.5,21.5H49.1"/>
	</g>
</g>
<g>
	<g>
		<path class="st5" d="M46.9,77.5h3.9c0,0,3.8-13.1,9.2-23.9C60,53.6,50,63.9,46.9,77.5"/>
	</g>
</g>
<g>
	<g>
		<path class="st5" d="M47.4,77.5h-3.9c0,0,0.9-4.6-8.4-18C34.9,59.6,46.2,66,47.4,77.5"/>
	</g>
</g>
<g>
	<g>
		<path class="st7" d="M59.5,77.5c0,0-0.5-11.4,2.9-19.2c0,0-3.3,3.2-8.1,19.2H59.5"/>
	</g>
</g>
<g>
	<g>
		<path class="st5" d="M62.2,39.9c5.3,4.7,7,11.9,7.5,12.1h3.7C67.2,42.1,62.2,39.9,62.2,39.9"/>
	</g>
</g>
<g>
	<g>
		<path class="st6" d="M72.3,52c0,0-2.2-12.2-5.6-16.7c0,0,6,3.8,9.8,16.7H72.3"/>
	</g>
</g>
<g>
	<g>
		<path class="st5" d="M82.8,52c0,0,0.4-9.6-2.4-15.9c0,0,2.6,2.4,6.6,15.1L82.8,52"/>
	</g>
</g>
<g>
	<g>
		<path class="st6" d="M75.7,52c0,0-0.3-11.2,3.8-19.3c0,0-0.8,11.2,0.3,19.3H75.7"/>
	</g>
</g>
<g>
	<g>
		<path class="st7" d="M78.9,52c0,0,1.2-12.6,8.7-20.9c0,0-5.8,14-4.2,20.9L78.9,52"/>
	</g>
</g>
<g>
	<g>
		<path class="st6" d="M83.4,52c0,0,0.5-9.7,6.3-17.2c0,0-3.9,13-2.8,17.2L83.4,52"/>
	</g>
</g>
<g>
	<g>
		<path class="st5" d="M85.2,52h-3.2c0,0-3-10.5-7.5-19.2C74.6,32.8,82.6,41.2,85.2,52"/>
	</g>
</g>
<g>
	<g>
		<path class="st5" d="M84.7,52H88c0,0-0.7-3.7,6.8-14.3C94.8,37.7,85.6,42.8,84.7,52"/>
	</g>
</g>
<g>
	<g>
		<path class="st7" d="M75,52c0,0,0.4-9.1-2.4-15.4c0,0,2.6,2.5,6.6,15.4H75"/>
	</g>
</g>
</svg>
