<?xml version="1.0" encoding="utf-8"?>
<!-- Generator: Adobe Illustrator 26.1.0, SVG Export Plug-In . SVG Version: 6.00 Build 0)  -->
<svg version="1.1" id="Layer_1" xmlns="http://www.w3.org/2000/svg" xmlns:xlink="http://www.w3.org/1999/xlink" x="0px" y="0px"
	 viewBox="0 0 167 167" style="enable-background:new 0 0 167 167;" xml:space="preserve">
<style type="text/css">
	.st0{fill:#545454;}
	.st1{fill:#E1F5FD;}
	.st2{fill:#36393B;}
	.st3{fill:#F4F8F9;}
</style>
<g>
	<g>
		<path class="st0" d="M131.6,103.2c0,28.8-20.8,52.1-46.6,52.1S38.5,132,38.5,103.2c0-18.7,10.2-36,19.7-50.4
			c8.4-12.7,19-28.9,26.8-42.1c6.4,14.9,18.6,30,27.3,43C121.7,67.8,131.6,85,131.6,103.2"/>
	</g>
</g>
<g>
	<g>
		<path class="st1" d="M85,155.3C85,155.3,85,155.3,85,155.3C85,155.3,85,155.3,85,155.3c25.7,0,46.6-23.3,46.6-52.1
			C131.6,132,110.7,155.3,85,155.3 M85,155.3C85,155.3,85,155.3,85,155.3C85,155.3,85,155.3,85,155.3 M84.9,155.3
			C84.9,155.3,84.9,155.3,84.9,155.3C84.9,155.3,84.9,155.3,84.9,155.3 M84.9,155.3C84.8,155.3,84.8,155.3,84.9,155.3
			C84.8,155.3,84.8,155.3,84.9,155.3 M84.8,155.3C84.8,155.3,84.8,155.3,84.8,155.3C84.8,155.3,84.8,155.3,84.8,155.3 M84.8,155.3
			C84.8,155.3,84.8,155.3,84.8,155.3C84.8,155.3,84.8,155.3,84.8,155.3 M84.7,155.3C84.7,155.3,84.7,155.3,84.7,155.3
			C84.7,155.3,84.7,155.3,84.7,155.3 M84.7,155.3C84.7,155.3,84.7,155.3,84.7,155.3C84.7,155.3,84.7,155.3,84.7,155.3 M84.7,155.3
			C84.7,155.3,84.7,155.3,84.7,155.3C84.7,155.3,84.7,155.3,84.7,155.3 M84.6,155.3C84.6,155.3,84.6,155.3,84.6,155.3
			C84.6,155.3,84.6,155.3,84.6,155.3 M84.6,155.3C84.6,155.3,84.6,155.3,84.6,155.3C84.6,155.3,84.6,155.3,84.6,155.3 M84.6,155.3
			C84.6,155.3,84.5,155.3,84.6,155.3C84.5,155.3,84.6,155.3,84.6,155.3 M84.5,155.3C84.5,155.3,84.5,155.3,84.5,155.3
			C84.5,155.3,84.5,155.3,84.5,155.3 M84.5,155.3C84.5,155.3,84.5,155.3,84.5,155.3C84.5,155.3,84.5,155.3,84.5,155.3 M84.4,155.3
			C84.4,155.3,84.4,155.3,84.4,155.3C84.4,155.3,84.4,155.3,84.4,155.3 M84.4,155.3C84.4,155.3,84.4,155.3,84.4,155.3
			C84.4,155.3,84.4,155.3,84.4,155.3 M84.4,155.3C84.4,155.3,84.3,155.3,84.4,155.3C84.3,155.3,84.4,155.3,84.4,155.3 M84.3,155.3
			C84.3,155.3,84.3,155.3,84.3,155.3C84.3,155.3,84.3,155.3,84.3,155.3 M84.3,155.3C84.3,155.3,84.3,155.3,84.3,155.3
			C84.3,155.3,84.3,155.3,84.3,155.3 M84.3,155.3C84.2,155.3,84.2,155.3,84.3,155.3C84.2,155.3,84.2,155.3,84.3,155.3 M84.2,155.3
			C84.2,155.3,84.2,155.3,84.2,155.3C84.2,155.3,84.2,155.3,84.2,155.3 M84.2,155.3C84.2,155.3,84.2,155.3,84.2,155.3
			C84.2,155.3,84.2,155.3,84.2,155.3 M84.1,155.3C84.1,155.3,84.1,155.3,84.1,155.3C84.1,155.3,84.1,155.3,84.1,155.3 M84.1,155.3
			C84.1,155.3,84.1,155.3,84.1,155.3C84.1,155.3,84.1,155.3,84.1,155.3 M84.1,155.3C84.1,155.3,84,155.3,84.1,155.3
			C84.1,155.3,84.1,155.3,84.1,155.3 M84,155.3C84,155.3,84,155.3,84,155.3C84,155.3,84,155.3,84,155.3 M84,155.3
			C84,155.3,84,155.3,84,155.3C84,155.3,84,155.3,84,155.3 M84,155.3C83.9,155.2,83.9,155.2,84,155.3
			C83.9,155.2,83.9,155.2,84,155.3 M83.9,155.2C83.9,155.2,83.9,155.2,83.9,155.2C83.9,155.2,83.9,155.2,83.9,155.2 M83.9,155.2
			C83.9,155.2,83.9,155.2,83.9,155.2C83.9,155.2,83.9,155.2,83.9,155.2 M83.8,155.2C83.8,155.2,83.8,155.2,83.8,155.2
			C83.8,155.2,83.8,155.2,83.8,155.2 M83.8,155.2C83.8,155.2,83.8,155.2,83.8,155.2C83.8,155.2,83.8,155.2,83.8,155.2 M83.8,155.2
			C83.8,155.2,83.8,155.2,83.8,155.2C83.8,155.2,83.8,155.2,83.8,155.2 M83.7,155.2C83.7,155.2,83.7,155.2,83.7,155.2
			C83.7,155.2,83.7,155.2,83.7,155.2 M83.7,155.2C83.7,155.2,83.7,155.2,83.7,155.2C83.7,155.2,83.7,155.2,83.7,155.2 M83.7,155.2
			C83.6,155.2,83.6,155.2,83.7,155.2C83.6,155.2,83.6,155.2,83.7,155.2 M83.6,155.2C83.6,155.2,83.6,155.2,83.6,155.2
			C83.6,155.2,83.6,155.2,83.6,155.2 M83.6,155.2C83.6,155.2,83.6,155.2,83.6,155.2C83.6,155.2,83.6,155.2,83.6,155.2 M83.5,155.2
			C83.5,155.2,83.5,155.2,83.5,155.2C83.5,155.2,83.5,155.2,83.5,155.2 M83.5,155.2C83.5,155.2,83.5,155.2,83.5,155.2
			C83.5,155.2,83.5,155.2,83.5,155.2 M83.5,155.2C83.5,155.2,83.5,155.2,83.5,155.2C83.5,155.2,83.5,155.2,83.5,155.2 M83.4,155.2
			C83.4,155.2,83.4,155.2,83.4,155.2C83.4,155.2,83.4,155.2,83.4,155.2 M83.4,155.2C83.4,155.2,83.4,155.2,83.4,155.2
			C83.4,155.2,83.4,155.2,83.4,155.2 M83.4,155.2C83.3,155.2,83.3,155.2,83.4,155.2C83.3,155.2,83.3,155.2,83.4,155.2 M83.3,155.2
			C83.3,155.2,83.3,155.2,83.3,155.2C83.3,155.2,83.3,155.2,83.3,155.2 M83.3,155.2C83.3,155.2,83.3,155.2,83.3,155.2
			C83.3,155.2,83.3,155.2,83.3,155.2 M83.2,155.2C83.2,155.2,83.2,155.2,83.2,155.2C83.2,155.2,83.2,155.2,83.2,155.2 M83.2,155.2
			C83.2,155.2,83.2,155.2,83.2,155.2C83.2,155.2,83.2,155.2,83.2,155.2 M83.2,155.2C83.2,155.2,83.2,155.2,83.2,155.2
			C83.2,155.2,83.2,155.2,83.2,155.2 M83.1,155.2C83.1,155.2,83.1,155.2,83.1,155.2C83.1,155.2,83.1,155.2,83.1,155.2 M83.1,155.2
			C83.1,155.2,83.1,155.2,83.1,155.2C83.1,155.2,83.1,155.2,83.1,155.2 M83,155.2C83,155.2,83,155.2,83,155.2
			C83,155.2,83,155.2,83,155.2 M83,155.2C83,155.2,83,155.2,83,155.2C83,155.2,83,155.2,83,155.2 M83,155.2
			C83,155.2,83,155.2,83,155.2C83,155.2,83,155.2,83,155.2 M82.9,155.2C82.9,155.2,82.9,155.2,82.9,155.2
			C82.9,155.2,82.9,155.2,82.9,155.2 M82.9,155.2C82.9,155.2,82.9,155.2,82.9,155.2C82.9,155.2,82.9,155.2,82.9,155.2 M82.9,155.2
			C82.9,155.2,82.9,155.2,82.9,155.2C82.9,155.2,82.9,155.2,82.9,155.2 M82.8,155.2C82.8,155.2,82.8,155.2,82.8,155.2
			C82.8,155.2,82.8,155.2,82.8,155.2 M82.8,155.2C82.8,155.2,82.8,155.2,82.8,155.2C82.8,155.2,82.8,155.2,82.8,155.2 M82.8,155.2
			C82.8,155.2,82.8,155.2,82.8,155.2C82.8,155.2,82.8,155.2,82.8,155.2 M82.7,155.2C82.7,155.2,82.7,155.2,82.7,155.2L82.7,155.2
			 M82.7,155.2C82.7,155.2,82.7,155.2,82.7,155.2C82.7,155.2,82.7,155.2,82.7,155.2 M82.6,155.2C82.6,155.2,82.6,155.2,82.6,155.2
			L82.6,155.2 M82.6,155.2L82.6,155.2 M82.6,155.2L82.6,155.2L82.6,155.2 M82.5,155.2C82.5,155.2,82.5,155.2,82.5,155.2
			S82.5,155.2,82.5,155.2 M82.5,155.2C82.4,155.2,82.4,155.2,82.5,155.2C82.4,155.2,82.4,155.2,82.5,155.2 M82.4,155.2L82.4,155.2
			L82.4,155.2 M82.3,155.2L82.3,155.2L82.3,155.2 M82.3,155.2C82.3,155.2,82.3,155.2,82.3,155.2C82.3,155.2,82.3,155.2,82.3,155.2
			 M82.2,155.2L82.2,155.2 M82.2,155.2L82.2,155.2C82.2,155.2,82.2,155.2,82.2,155.2 M82.1,155.2L82.1,155.2
			C82.1,155.2,82.1,155.2,82.1,155.2 M82.1,155.2L82.1,155.2 M75.8,25.7c2.5-3.9,4.8-7.7,7.1-11.4C80.6,18,78.2,21.8,75.8,25.7
			 M82.9,14.3C82.9,14.3,82.9,14.3,82.9,14.3C82.9,14.3,82.9,14.3,82.9,14.3 M82.9,14.3C82.9,14.2,82.9,14.2,82.9,14.3
			C82.9,14.2,82.9,14.2,82.9,14.3 M82.9,14.2C82.9,14.2,82.9,14.2,82.9,14.2C82.9,14.2,82.9,14.2,82.9,14.2 M82.9,14.1
			C83,14.1,83,14.1,82.9,14.1C83,14.1,83,14.1,82.9,14.1 M83,14.1c0.1-0.2,0.3-0.4,0.4-0.7C83.3,13.6,83.1,13.9,83,14.1 M83.4,13.4
			c0.1-0.2,0.2-0.3,0.3-0.4C83.6,13.1,83.5,13.3,83.4,13.4 M83.7,13c0-0.1,0.1-0.1,0.1-0.2C83.8,12.8,83.7,12.9,83.7,13 M83.8,12.7
			C83.8,12.7,83.8,12.7,83.8,12.7C83.8,12.7,83.8,12.7,83.8,12.7 M83.9,12.6C83.9,12.6,83.9,12.6,83.9,12.6
			C83.9,12.6,83.9,12.6,83.9,12.6 M83.9,12.6C83.9,12.5,83.9,12.5,83.9,12.6C83.9,12.5,83.9,12.5,83.9,12.6 M84,12.5
			C84,12.5,84,12.5,84,12.5C84,12.5,84,12.5,84,12.5 M84,12.4C84,12.4,84,12.4,84,12.4C84,12.4,84,12.4,84,12.4 M84,12.4
			C84,12.4,84,12.4,84,12.4C84,12.4,84,12.4,84,12.4 M84,12.3c0,0,0-0.1,0.1-0.1C84.1,12.3,84.1,12.3,84,12.3 M84.1,12.2
			C84.1,12.2,84.1,12.2,84.1,12.2C84.1,12.2,84.1,12.2,84.1,12.2 M84.1,12.2c0,0,0-0.1,0.1-0.1C84.2,12.1,84.2,12.1,84.1,12.2
			 M84.2,12.1c0,0,0-0.1,0.1-0.1C84.3,12,84.2,12,84.2,12.1 M84.3,11.9c0,0,0-0.1,0.1-0.1C84.3,11.9,84.3,11.9,84.3,11.9 M84.3,11.8
			C84.4,11.8,84.4,11.8,84.3,11.8C84.4,11.8,84.4,11.8,84.3,11.8 M84.4,11.8C84.4,11.8,84.4,11.7,84.4,11.8
			C84.4,11.7,84.4,11.8,84.4,11.8 M84.4,11.7C84.4,11.7,84.4,11.7,84.4,11.7C84.4,11.7,84.4,11.7,84.4,11.7 M84.4,11.7
			C84.5,11.7,84.5,11.6,84.4,11.7C84.5,11.6,84.5,11.7,84.4,11.7 M84.5,11.6C84.5,11.6,84.5,11.6,84.5,11.6
			C84.5,11.6,84.5,11.6,84.5,11.6 M84.5,11.6c0,0,0-0.1,0.1-0.1C84.6,11.5,84.5,11.5,84.5,11.6 M84.6,11.4
			C84.6,11.4,84.6,11.4,84.6,11.4C84.6,11.4,84.6,11.4,84.6,11.4 M84.6,11.4C84.6,11.4,84.7,11.3,84.6,11.4
			C84.7,11.3,84.6,11.4,84.6,11.4 M84.7,11.3C84.7,11.3,84.7,11.2,84.7,11.3C84.7,11.2,84.7,11.3,84.7,11.3 M84.7,11.2
			C84.7,11.2,84.7,11.2,84.7,11.2C84.7,11.2,84.7,11.2,84.7,11.2 M84.8,11.2C84.8,11.1,84.8,11.1,84.8,11.2
			C84.8,11.1,84.8,11.1,84.8,11.2 M84.8,11.1C84.8,11.1,84.8,11.1,84.8,11.1C84.8,11.1,84.8,11.1,84.8,11.1 M84.8,11.1
			C84.8,11,84.8,11,84.8,11.1C84.8,11,84.8,11,84.8,11.1 M84.8,11C84.9,11,84.9,11,84.8,11C84.9,11,84.9,11,84.8,11 M84.9,10.9
			C84.9,10.9,84.9,10.9,84.9,10.9C84.9,10.9,84.9,10.9,84.9,10.9 M84.9,10.9C84.9,10.9,84.9,10.9,84.9,10.9
			C84.9,10.9,84.9,10.9,84.9,10.9 M85,10.8C85,10.8,85,10.8,85,10.8C85,10.8,85,10.8,85,10.8 M85,10.8C85,10.8,85,10.7,85,10.8
			C85,10.7,85,10.8,85,10.8"/>
	</g>
</g>
<g>
	<g>
		<path class="st2" d="M85,155.3C85,155.3,85,155.3,85,155.3C85,155.3,85,155.3,85,155.3C85,155.3,85,155.3,85,155.3
			C84.9,155.3,84.9,155.3,85,155.3c-0.1,0-0.1,0-0.1,0c0,0,0,0,0,0c0,0,0,0,0,0s0,0,0,0c0,0,0,0,0,0s0,0,0,0c0,0,0,0,0,0
			c0,0,0,0,0,0c0,0,0,0,0,0c0,0,0,0,0,0c0,0,0,0,0,0c0,0,0,0,0,0c0,0,0,0,0,0c0,0,0,0,0,0c0,0,0,0,0,0c0,0,0,0,0,0c0,0,0,0,0,0
			c0,0,0,0,0,0c0,0,0,0,0,0c0,0,0,0,0,0c0,0,0,0,0,0h0c0,0,0,0,0,0c0,0,0,0,0,0c0,0,0,0,0,0s0,0,0,0c0,0,0,0,0,0c0,0,0,0,0,0
			c0,0,0,0,0,0c0,0,0,0,0,0c0,0,0,0,0,0c0,0,0,0,0,0c0,0,0,0,0,0c0,0,0,0,0,0c0,0,0,0,0,0c0,0,0,0,0,0c0,0,0,0,0,0c0,0,0,0,0,0
			c0,0,0,0,0,0h0c0,0,0,0,0,0c0,0,0,0,0,0c0,0,0,0,0,0c0,0,0,0,0,0c0,0,0,0,0,0c0,0,0,0,0,0c0,0,0,0,0,0c0,0,0,0,0,0c0,0,0,0,0,0
			c0,0,0,0,0,0c0,0,0,0,0,0s0,0,0,0c0,0,0,0,0,0c0,0,0,0,0,0c0,0,0,0,0,0s0,0,0,0s0,0,0,0c0,0,0,0,0,0c0,0,0,0,0,0c0,0,0,0,0,0
			s0,0,0,0c0,0,0,0,0,0s0,0,0,0c0,0,0,0,0,0c0,0,0,0,0,0c0,0,0,0,0,0s0,0,0,0c0,0,0,0,0,0c0,0,0,0,0,0h0c0,0,0,0,0,0c0,0,0,0,0,0
			c0,0,0,0,0,0c0,0,0,0,0,0c0,0,0,0,0,0c0,0,0,0,0,0c0,0,0,0,0,0c0,0,0,0,0,0c0,0,0,0,0,0c0,0,0,0,0,0c0,0,0,0,0,0c0,0,0,0,0,0
			s0,0,0,0c0,0,0,0,0,0c0,0,0,0,0,0c0,0,0,0,0,0s0,0,0,0s0,0,0,0c0,0,0,0,0,0c0,0,0,0,0,0c0,0,0,0,0,0s0,0,0,0c0,0,0,0,0,0s0,0,0,0
			c0,0,0,0,0,0c0,0,0,0,0,0c0,0,0,0,0,0c0,0,0,0,0,0c0,0,0,0,0,0c0,0,0,0,0,0c0,0,0,0,0,0c0,0,0,0,0,0c0,0,0,0,0,0c0,0,0,0,0,0
			c0,0,0,0,0,0c0,0,0,0,0,0c0,0,0,0,0,0c0,0,0,0,0,0c0,0,0,0,0,0c0,0,0,0,0,0c0,0,0,0,0,0c0,0,0,0,0,0c0,0,0,0,0,0c0,0,0,0,0,0h0
			c0,0,0,0,0,0s0,0,0,0c0,0,0,0,0,0h0c0,0,0,0-0.1,0c0,0,0,0,0,0h0c0,0,0,0,0,0c0,0,0,0,0,0c0,0,0,0-0.1,0c0,0,0,0,0,0s0,0,0,0h0
			c0,0-0.1,0-0.1,0h0c0,0,0,0,0,0c0,0,0,0,0,0c0,0-0.1,0-0.1,0c0,0,0,0,0,0c0,0,0,0,0,0c0,0-0.1,0-0.1,0c0,0,0,0,0,0c0,0,0,0,0,0
			C64,153.9,48.7,141.1,42,123.2c7.1,7.8,16.8,12.5,27.5,12.5c21.7,0,39.2-19.7,39.2-43.9c0-15.4-8.3-29.8-16.2-41.7
			c-5-7.6-11.5-15.9-16.8-24.5c2.5-3.9,4.8-7.7,7.1-11.4c0,0,0,0,0,0c0,0,0,0,0,0l0,0c0,0,0,0,0-0.1c0,0,0,0,0,0c0,0,0,0,0-0.1
			c0,0,0,0,0-0.1c0,0,0,0,0,0c0.1-0.2,0.3-0.4,0.4-0.7c0,0,0,0,0,0c0.1-0.2,0.2-0.3,0.3-0.4c0,0,0,0,0,0c0-0.1,0.1-0.1,0.1-0.2
			c0,0,0,0,0,0c0,0,0-0.1,0.1-0.1c0,0,0,0,0,0c0,0,0,0,0,0c0,0,0,0,0,0c0,0,0,0,0,0c0,0,0,0,0,0c0,0,0,0,0,0c0,0,0,0,0,0
			c0,0,0,0,0-0.1c0,0,0,0,0,0c0,0,0,0,0,0c0,0,0,0,0,0c0,0,0-0.1,0.1-0.1c0,0,0,0,0,0c0,0,0,0,0,0c0,0,0,0,0,0c0,0,0-0.1,0.1-0.1
			c0,0,0,0,0,0c0,0,0-0.1,0.1-0.1c0,0,0-0.1,0.1-0.1c0,0,0,0,0,0c0,0,0,0,0,0v0c0,0,0,0,0-0.1c0,0,0,0,0,0c0,0,0,0,0-0.1
			c0,0,0,0,0-0.1c0,0,0,0,0,0c0,0,0,0,0,0c0,0,0,0,0,0c0,0,0-0.1,0.1-0.1c0,0,0,0,0,0c0,0,0,0,0,0c0,0,0,0,0,0c0,0,0-0.1,0.1-0.1
			c0,0,0,0,0,0c0,0,0,0,0,0c0,0,0,0,0,0c0,0,0,0,0,0c0,0,0,0,0,0c0,0,0,0,0,0c0,0,0,0,0,0c0,0,0,0,0,0c0,0,0,0,0,0c0,0,0,0,0,0
			c0,0,0,0,0,0c0,0,0,0,0,0c0,0,0,0,0,0c0,0,0,0,0,0c0,0,0,0,0,0c0,0,0,0,0-0.1c0,0,0,0,0,0c0,0,0,0,0,0c0,0,0,0,0,0c0,0,0,0,0,0
			c6.4,14.9,18.6,30,27.3,43c9.4,14.1,19.2,31.2,19.2,49.5C131.6,132,110.7,155.3,85,155.3"/>
	</g>
</g>
<path class="st3" d="M42.4,111.8c-1.6-10.5,1.9-19.6,7.7-20.5c5.8-0.9,1.3,8.5,2.8,18.9c1.6,10.5,8.7,18.1,2.8,18.9
	C50,130.1,44,122.3,42.4,111.8"/>
<path class="st3" d="M56.5,83c0-2.8-2.3-5.1-5.1-5.1s-5.1,2.3-5.1,5.1c0,2.8,2.3,5.1,5.1,5.1S56.5,85.8,56.5,83"/>
</svg>
