<?xml version="1.0" encoding="utf-8"?>
<!-- Generator: Adobe Illustrator 26.1.0, SVG Export Plug-In . SVG Version: 6.00 Build 0)  -->
<svg version="1.1" id="Layer_1" xmlns="http://www.w3.org/2000/svg" xmlns:xlink="http://www.w3.org/1999/xlink" x="0px" y="0px"
	 viewBox="0 0 167 167" style="enable-background:new 0 0 167 167;" xml:space="preserve">
<style type="text/css">
	.st0{fill-rule:evenodd;clip-rule:evenodd;fill:#9E9E9E;}
	.st1{fill-rule:evenodd;clip-rule:evenodd;fill:#B0BEC5;}
	.st2{fill-rule:evenodd;clip-rule:evenodd;fill:#607D8B;}
	.st3{fill-rule:evenodd;clip-rule:evenodd;fill:#8D6E63;}
</style>
<path class="st0" d="M4.1,82.4L83,128.1l78.9-45.7V72.3L83,117.9L4.1,72.3V82.4z"/>
<path class="st1" d="M43.6,49.5l19.7,11.4L23.8,83.7L4.1,72.3L43.6,49.5z"/>
<path class="st1" d="M83,72.3l19.7,11.4l-39.5,22.8L43.6,95.1L83,72.3z"/>
<path class="st2" d="M43.6,72.3l19.7,11.4L43.6,95.1L23.8,83.7L43.6,72.3z"/>
<path class="st2" d="M83,95.1l19.7,11.4L83,117.9l-19.7-11.4L83,95.1z"/>
<path class="st3" d="M83,49.5l19.7,11.4L63.3,83.7L43.6,72.3L83,49.5z"/>
<path class="st2" d="M83,26.6L102.8,38L63.3,60.9L43.6,49.5L83,26.6z"/>
<path class="st2" d="M122.5,49.5l19.7,11.4l-39.5,22.8L83,72.3L122.5,49.5z"/>
<path class="st3" d="M122.5,72.3l19.7,11.4l-39.5,22.8L83,95.1L122.5,72.3z"/>
<path class="st1" d="M102.8,38l19.7,11.4l-19.7,11.4L83,49.5L102.8,38z"/>
<path class="st1" d="M142.2,60.9l19.7,11.4l-19.7,11.4l-19.7-11.4L142.2,60.9z"/>
<g>
	<g>
		<path class="st0" d="M82,24.9L3.1,70.5l0,0l0,0l0,0l0,0l0,0l-0.1,0l0,0l-0.1,0.1l0,0l0,0l0,0l0,0l0,0l0,0l0,0l0,0l-0.1,0.1l0,0
			l0,0.1l0,0l0,0l0,0.1l0,0l0,0l0,0l0,0l0,0.1l0,0l0,0l0,0l0,0.1l0,0l0,0.1l0,0l0,0.1l0,0l0,0l0,0l0,0.1l0,0l0,0l0,0v0l0,0v0.1l0,0
			v10.2c0,0.7,0.4,1.4,1,1.8L82,129.8c0.6,0.4,1.4,0.4,2,0L163,84.2c0.6-0.4,1-1,1-1.8V72.3c0-0.1,0-0.3,0-0.4l0,0l0,0l0,0l0,0
			l0-0.1l0,0l0-0.1l0,0l0,0l0,0l0,0l0,0l0,0l0-0.1l0,0l0,0l0-0.1l0,0l0-0.1l0,0l0,0l0,0l0,0l0-0.1l0,0l-0.1-0.1l0,0l-0.1,0l0,0l0,0
			l-0.1-0.1l0,0l-0.1-0.1l0,0l0,0l0,0l0,0l0,0l-19.7-11.4v0l-19.7-11.4h0L84,24.9C83.4,24.5,82.6,24.5,82,24.9z M6.1,75.8v5.5
			L83,125.8l76.9-44.5v-5.5L84,119.7c-0.3,0.2-0.7,0.3-1,0.3c-0.3,0-0.7-0.1-1-0.3L42.5,96.9L6.1,75.8z M83,97.5l-15.7,9.1l15.7,9.1
			l15.7-9.1L87,99.8L83,97.5z M122.5,74.6L87.1,95.1l15.7,9.1l35.4-20.5l-6.4-3.7L122.5,74.6z M83,74.6L47.6,95.1l15.7,9.1
			l35.4-20.5L92.3,80L83,74.6z M27.9,83.7l15.7,9.1l15.7-9.1l-11.7-6.8l-4-2.3L27.9,83.7z M122.5,51.8L87.1,72.3l15.7,9.1l35.4-20.5
			L122.5,51.8z M52.8,57.2l-9.3-5.4L8.2,72.3l15.7,9.1l35.4-20.5L52.8,57.2z M142.2,63.2l15.7,9.1l-15.7,9.1l-15.7-9.1L142.2,63.2z
			 M83,51.8L47.6,72.3l15.7,9.1l35.4-20.5L88.6,55L83,51.8z M47.6,49.5L83,29L98.7,38L63.3,58.5L47.6,49.5z M87.1,49.5l15.7,9.1
			l15.7-9.1l-15.7-9.1L87.1,49.5z"/>
	</g>
</g>
</svg>
