<?xml version="1.0" encoding="utf-8"?>
<!-- Generator: Adobe Illustrator 26.1.0, SVG Export Plug-In . SVG Version: 6.00 Build 0)  -->
<svg version="1.1" id="Layer_1" xmlns="http://www.w3.org/2000/svg" xmlns:xlink="http://www.w3.org/1999/xlink" x="0px" y="0px"
	 viewBox="0 0 167 167" style="enable-background:new 0 0 167 167;" xml:space="preserve">
<style type="text/css">
	.st0{fill:#8E8E8E;}
	.st1{fill:#E5E5E5;}
	.st2{fill:#7297F2;}
</style>
<g>
	<g>
		<path class="st0" d="M61.9,42.7l19.5,13.9c0.5,0.3,1,0.5,1.6,0.5s1.1-0.2,1.6-0.5l19.5-13.9c0.7-0.5,1.2-1.4,1.2-2.3
			s-0.4-1.7-1.2-2.3L84.6,24.3c-1-0.7-2.3-0.7-3.2,0L61.9,38.2c-0.7,0.5-1.2,1.4-1.2,2.3S61.2,42.2,61.9,42.7"/>
	</g>
</g>
<path class="st1" d="M88.6,60c0,0.9,0.4,1.7,1.2,2.3l19.5,13.9c0.5,0.3,1,0.5,1.6,0.5s1.1-0.2,1.6-0.5l19.5-14
	c0.7-0.5,1.2-1.4,1.2-2.3s-0.4-1.7-1.2-2.3l-19.5-13.9c-1-0.7-2.3-0.7-3.2,0l-19.6,14C89,58.2,88.6,59.1,88.6,60"/>
<path class="st2" d="M34,62.2l19.5,13.9c0.5,0.3,1.1,0.5,1.6,0.5c0.6,0,1.1-0.2,1.6-0.5l19.5-13.9c0.7-0.5,1.2-1.4,1.2-2.3
	s-0.4-1.7-1.2-2.3L56.8,43.8c-1-0.7-2.3-0.7-3.2,0L34,57.7c-0.7,0.5-1.2,1.4-1.2,2.3S33.3,61.7,34,62.2"/>
<path class="st0" d="M84.6,63.3c-1-0.7-2.3-0.7-3.2,0L61.9,77.2c-0.7,0.5-1.2,1.4-1.2,2.3s0.4,1.7,1.2,2.3l19.5,13.9
	c0.5,0.3,1,0.5,1.6,0.5s1.1-0.2,1.6-0.5l19.5-13.9c0.7-0.5,1.2-1.4,1.2-2.3s-0.4-1.7-1.2-2.3L84.6,63.3"/>
<g>
	<g>
		<path class="st0" d="M104.1,116.2l-19.5-13.9c-1-0.7-2.3-0.7-3.2,0l-19.5,13.9c-0.7,0.5-1.2,1.4-1.2,2.3s0.4,1.7,1.2,2.3
			l19.5,13.9c0.5,0.3,1,0.5,1.6,0.5s1.1-0.2,1.6-0.5l19.5-13.9c0.7-0.5,1.2-1.4,1.2-2.3C105.3,117.6,104.8,116.7,104.1,116.2"/>
	</g>
</g>
<g>
	<g>
		<path class="st2" d="M159.8,77.2l-19.5-13.9c-1-0.7-2.3-0.7-3.2,0l-19.5,13.9c-0.7,0.5-1.2,1.4-1.2,2.3s0.4,1.7,1.2,2.3l19.5,13.9
			c0.5,0.3,1,0.5,1.6,0.5s1.1-0.2,1.6-0.5l19.5-13.9c0.7-0.5,1.2-1.4,1.2-2.3S160.6,77.7,159.8,77.2"/>
	</g>
</g>
<path class="st1" d="M132,96.7l-19.5-13.9c-1-0.7-2.3-0.7-3.2,0L89.7,96.7c-0.7,0.5-1.2,1.4-1.2,2.3s0.4,1.7,1.2,2.3l19.5,13.9
	c0.5,0.3,1,0.5,1.6,0.5s1.1-0.2,1.6-0.5l19.5-13.9c0.7-0.5,1.2-1.4,1.2-2.3S132.7,97.2,132,96.7"/>
<g>
	<g>
		<path class="st1" d="M49.6,79.5c0-0.9-0.4-1.7-1.2-2.3L28.9,63.3c-1-0.7-2.3-0.7-3.2,0L6.2,77.2C5.4,77.7,5,78.6,5,79.5
			s0.4,1.7,1.2,2.3l19.5,13.9c0.5,0.3,1.1,0.5,1.6,0.5c0.6,0,1.1-0.2,1.6-0.5l19.5-13.9C49.1,81.2,49.6,80.4,49.6,79.5"/>
	</g>
</g>
<path class="st2" d="M77.4,99c0-0.9-0.4-1.7-1.2-2.3L56.8,82.8c-1-0.7-2.3-0.7-3.2,0L34,96.7c-0.7,0.5-1.2,1.4-1.2,2.3
	s0.4,1.7,1.2,2.3l19.5,13.9c0.5,0.3,1.1,0.5,1.6,0.5c0.6,0,1.1-0.2,1.6-0.5l19.5-13.9C77,100.7,77.4,99.9,77.4,99"/>
</svg>
