<?xml version="1.0" encoding="utf-8"?>
<!-- Generator: Adobe Illustrator 26.1.0, SVG Export Plug-In . SVG Version: 6.00 Build 0)  -->
<svg version="1.1" id="Layer_1" xmlns="http://www.w3.org/2000/svg" xmlns:xlink="http://www.w3.org/1999/xlink" x="0px" y="0px"
	 viewBox="0 0 167 167" style="enable-background:new 0 0 167 167;" xml:space="preserve">
<style type="text/css">
	.st0{fill:#BFBFBF;}
	.st1{fill:#E0E0E0;}
	.st2{fill:#AFAFAF;}
</style>
<g>
	<g>
		<path class="st0" d="M143.7,66.9l-15.4-24.4c-0.8-1.2-2.1-2-3.6-2H40.9c-1.5,0-2.8,0.8-3.6,2L21.9,66.9l1.9,3.1h118.1L143.7,66.9z
			"/>
	</g>
</g>
<g>
	<g>
		<path class="st1" d="M135.5,84.6v25.2c0,2.3,1.9,4.2,4.2,4.2h2.1c1.2,0,2.1,1,2.1,2.1v10.5c0,1.2-1,2.1-2.1,2.1H23.8
			c-1.2,0-2.1-1-2.1-2.1v-10.5c0-1.2,1-2.1,2.1-2.1h2.1c2.3,0,4.2-1.9,4.2-4.2V84.6c0-2.3-1.9-4.2-4.2-4.2h-2.1
			c-1.2,0-2.1-1-2.1-2.1V67.8c0-1.2,1-2.1,2.1-2.1h118.1c1.2,0,2.1,1,2.1,2.1v10.5c0,1.2-1,2.1-2.1,2.1h-2.1
			C137.4,80.4,135.5,82.3,135.5,84.6z"/>
	</g>
</g>
<path class="st0" d="M76.5,80.4H40.6c-1.2,0-2.1,1-2.1,2.1V112c0,0.7,0.3,1.2,0.8,1.6c0.4,0.3,0.9,0.5,1.3,0.5h35.8
	c1.2,0,2.1-1,2.1-2.1V82.5C78.6,81.4,77.6,80.4,76.5,80.4z"/>
<path class="st2" d="M49.1,80.4l-9.8,33.2c-0.5-0.4-0.8-1-0.8-1.6V82.5c0-1.2,1-2.1,2.1-2.1H49.1z"/>
<path class="st0" d="M89.1,80.4h35.8c1.2,0,2.1,1,2.1,2.1V112c0,0.7-0.3,1.2-0.8,1.6c-0.4,0.3-0.9,0.5-1.4,0.5H89.1
	c-1.2,0-2.1-1-2.1-2.1V82.5C87,81.4,88,80.4,89.1,80.4z"/>
<path class="st2" d="M116.5,80.4l9.8,33.2c0.5-0.4,0.8-1,0.8-1.6V82.5c0-1.2-1-2.1-2.1-2.1H116.5z"/>
</svg>
