<?xml version="1.0" encoding="utf-8"?>
<!-- Generator: Adobe Illustrator 26.1.0, SVG Export Plug-In . SVG Version: 6.00 Build 0)  -->
<svg version="1.1" id="Layer_1" xmlns="http://www.w3.org/2000/svg" xmlns:xlink="http://www.w3.org/1999/xlink" x="0px" y="0px"
	 viewBox="0 0 167 167" style="enable-background:new 0 0 167 167;" xml:space="preserve">
<style type="text/css">
	.st0{fill:#BFBFBF;}
	.st1{fill:#E0E0E0;}
	.st2{fill:#AFAFAF;}
	.st3{fill:#6D6D6D;}
	.st4{fill:#B2B2B2;}
	.st5{fill:#D6D6D6;}
</style>
<g>
	<g>
		<path class="st0" d="M123,88.9L112.9,73c-0.5-0.8-1.4-1.3-2.4-1.3H55.3c-1,0-1.8,0.5-2.4,1.3L42.8,88.9l1.2,2h77.7L123,88.9z"/>
	</g>
</g>
<g>
	<g>
		<path class="st1" d="M117.6,100.5V117c0,1.5,1.3,2.7,2.8,2.7h1.4c0.8,0,1.4,0.6,1.4,1.4v6.9c0,0.8-0.6,1.4-1.4,1.4H44
			c-0.8,0-1.4-0.6-1.4-1.4v-6.9c0-0.8,0.6-1.4,1.4-1.4h1.4c1.5,0,2.8-1.2,2.8-2.7v-16.5c0-1.5-1.3-2.7-2.8-2.7H44
			c-0.8,0-1.4-0.6-1.4-1.4v-6.9c0-0.8,0.6-1.4,1.4-1.4h77.7c0.8,0,1.4,0.6,1.4,1.4v6.9c0,0.8-0.6,1.4-1.4,1.4h-1.4
			C118.9,97.8,117.6,99,117.6,100.5z"/>
	</g>
</g>
<path class="st0" d="M78.8,97.8H55.2c-0.8,0-1.4,0.6-1.4,1.4v19.2c0,0.4,0.2,0.8,0.5,1.1c0.2,0.2,0.6,0.3,0.9,0.3h23.6
	c0.8,0,1.4-0.6,1.4-1.4V99.1C80.1,98.4,79.5,97.8,78.8,97.8z"/>
<path class="st2" d="M60.7,97.8l-6.4,21.6c-0.3-0.3-0.5-0.6-0.5-1.1V99.1c0-0.8,0.6-1.4,1.4-1.4H60.7z"/>
<path class="st0" d="M87.1,97.8h23.6c0.8,0,1.4,0.6,1.4,1.4v19.2c0,0.4-0.2,0.8-0.5,1.1c-0.2,0.2-0.6,0.3-0.9,0.3H87.1
	c-0.8,0-1.4-0.6-1.4-1.4V99.1C85.7,98.4,86.3,97.8,87.1,97.8z"/>
<path class="st2" d="M105.1,97.8l6.4,21.6c0.3-0.3,0.5-0.6,0.5-1.1V99.1c0-0.8-0.6-1.4-1.4-1.4H105.1z"/>
<g>
	<g>
		<path class="st3" d="M117.5,50.9l-8.8-14c-0.4-0.7-1.2-1.1-2-1.1H59c-0.8,0-1.6,0.4-2,1.1l-8.8,14l1.1,1.8h67.2L117.5,50.9z"/>
	</g>
</g>
<g>
	<g>
		<path class="st4" d="M112.8,61.1v14.5c0,1.3,1.1,2.4,2.4,2.4h1.2c0.7,0,1.2,0.5,1.2,1.2v6c0,0.7-0.5,1.2-1.2,1.2H49.3
			c-0.7,0-1.2-0.5-1.2-1.2v-6c0-0.7,0.5-1.2,1.2-1.2h1.2c1.3,0,2.4-1.1,2.4-2.4V61.1c0-1.3-1.1-2.4-2.4-2.4h-1.2
			c-0.7,0-1.2-0.5-1.2-1.2v-6c0-0.7,0.5-1.2,1.2-1.2h67.2c0.7,0,1.2,0.5,1.2,1.2v6c0,0.7-0.5,1.2-1.2,1.2h-1.2
			C113.9,58.6,112.8,59.7,112.8,61.1z"/>
	</g>
</g>
<path class="st5" d="M79.2,58.6H58.9c-0.7,0-1.2,0.5-1.2,1.2v16.9c0,0.4,0.2,0.7,0.4,0.9c0.2,0.2,0.5,0.3,0.8,0.3h20.4
	c0.7,0,1.2-0.5,1.2-1.2V59.8C80.4,59.2,79.9,58.6,79.2,58.6z"/>
<path class="st2" d="M63.7,58.6l-5.6,19c-0.3-0.2-0.4-0.5-0.4-0.9V59.8c0-0.7,0.5-1.2,1.2-1.2H63.7z"/>
<path class="st5" d="M86.4,58.6h20.4c0.7,0,1.2,0.5,1.2,1.2v16.9c0,0.4-0.2,0.7-0.4,0.9c-0.2,0.2-0.5,0.3-0.8,0.3H86.4
	c-0.7,0-1.2-0.5-1.2-1.2V59.8C85.2,59.2,85.8,58.6,86.4,58.6z"/>
<path class="st2" d="M102,58.6l5.6,19c0.3-0.2,0.4-0.5,0.4-0.9V59.8c0-0.7-0.5-1.2-1.2-1.2H102z"/>
</svg>
