<?xml version="1.0" encoding="utf-8"?>
<!-- Generator: Adobe Illustrator 26.1.0, SVG Export Plug-In . SVG Version: 6.00 Build 0)  -->
<svg version="1.1" id="Layer_1" xmlns="http://www.w3.org/2000/svg" xmlns:xlink="http://www.w3.org/1999/xlink" x="0px" y="0px"
	 viewBox="0 0 167 167" style="enable-background:new 0 0 167 167;" xml:space="preserve">
<style type="text/css">
	.st0{fill:#3E3222;}
	.st1{fill:#265B2A;}
	.st2{fill:#245226;}
	.st3{fill:#2F7633;}
</style>
<path class="st0" d="M56.2,121.1h-5.8V98.8h5.8V121.1"/>
<g>
	<g>
		<path class="st1" d="M76.2,107.2c-6.3,0.4-13.6-16.9-13.6-16.9c5.3,7.3,14,3.7,9.3,1.2c-4.1-2.1-9.9-13.5-11.4-16.6
			c2.4,4.1,10.5,5.8,5.4-0.6c-5.4-6.7-12.5-31.8-12.5-31.8s-7.2,25.1-12.5,31.8c-5.1,6.3,3,4.7,5.4,0.6c-1.5,3.1-7.3,14.4-11.4,16.6
			c-4.8,2.4,3.9,6.1,9.3-1.2c0,0-7.3,17.3-13.6,16.9c-6.3-0.4,2.2,8.8,8.2,2.4c0,0,2,5.8,5.3-0.2c0,0,1.6,7.3,4.1,0.2
			c0,0,3.3,6.1,5.3-0.4c1.9,6.5,5.3,0.4,5.3,0.4c2.4,7.1,4.1-0.2,4.1-0.2c3.3,5.9,5.3,0.2,5.3,0.2C73.9,115.9,82.4,106.8,76.2,107.2
			"/>
	</g>
</g>
<g>
	<g>
		<path class="st0" d="M89.2,132h-8.8v-19.3h8.8V132"/>
	</g>
</g>
<path class="st0" d="M118,118h-5.8V98.8h5.8V118"/>
<g>
	<g>
		<path class="st2" d="M133.4,101.3c-5,0.3-10.9-13.5-10.9-13.5c4.3,5.9,11.2,2.9,7.4,1c-3.3-1.7-7.9-10.8-9.1-13.2
			c1.9,3.3,8.4,4.6,4.3-0.4c-4.3-5.4-10-25.5-10-25.5s-5.7,20.1-10,25.5c-4.1,5.1,2.4,3.8,4.3,0.4c-1.2,2.4-5.8,11.6-9.1,13.2
			c-3.8,2,3.1,4.9,7.4-1c0,0-5.9,13.8-10.9,13.5c-5-0.3,1.8,7,6.6,2c0,0,1.6,4.6,4.3-0.1c0,0,1.3,5.8,3.2,0.1c0,0,2.7,4.9,4.2-0.3
			c1.6,5.2,4.2,0.3,4.2,0.3c1.9,5.7,3.2-0.1,3.2-0.1c2.6,4.7,4.3,0.1,4.3,0.1C131.6,108.3,138.4,100.9,133.4,101.3"/>
	</g>
</g>
<path class="st3" d="M107.7,115.5c-6.3,0.4-13.6-16.9-13.6-16.9c5.3,7.3,14,3.7,9.3,1.2c-4.1-2.1-9.9-13.5-11.4-16.5
	c2.4,4.1,10.5,5.8,5.4-0.6C92,76,84.8,50.9,84.8,50.9S77.7,76,72.3,82.7c-5.1,6.3,3,4.7,5.4,0.6c-1.5,3.1-7.3,14.4-11.4,16.5
	c-4.8,2.4,3.9,6.1,9.3-1.2c0,0-7.3,17.3-13.6,16.9c-6.3-0.4,2.2,8.8,8.2,2.4c0,0,2,5.8,5.3-0.2c0,0,1.6,7.3,4.1,0.2
	c0,0,3.3,6.1,5.3-0.4c1.9,6.5,5.3,0.4,5.3,0.4c2.4,7.1,4.1-0.2,4.1-0.2c3.3,5.9,5.3,0.2,5.3,0.2
	C105.5,124.3,113.9,115.1,107.7,115.5"/>
</svg>
