<?xml version="1.0" encoding="utf-8"?>
<!-- Generator: Adobe Illustrator 26.1.0, SVG Export Plug-In . SVG Version: 6.00 Build 0)  -->
<svg version="1.1" id="Layer_1" xmlns="http://www.w3.org/2000/svg" xmlns:xlink="http://www.w3.org/1999/xlink" x="0px" y="0px"
	 viewBox="0 0 167 167" style="enable-background:new 0 0 167 167;" xml:space="preserve">
<style type="text/css">
	.st0{fill:#3E3222;}
	.st1{fill:#265B2A;}
	.st2{fill:#245226;}
	.st3{fill:#2F7633;}
</style>
<path class="st0" d="M44.7,132.3H36V98.9h8.7V132.3"/>
<g>
	<g>
		<path class="st1" d="M74.7,111.5c-9.4,0.6-20.4-25.3-20.4-25.3c7.9,10.9,21,5.5,13.9,1.8C62.1,84.8,53.4,67.7,51.1,63
			c3.6,6.1,15.7,8.7,8.1-0.9c-8.1-10-18.7-47.7-18.7-47.7S29.7,52.1,21.7,62.1c-7.6,9.4,4.5,7,8.1,0.9c-2.2,4.6-10.9,21.6-17.1,24.9
			c-7.2,3.6,5.8,9.1,13.9-1.8c0,0-10.9,25.9-20.4,25.3c-9.4-0.6,3.3,13.2,12.3,3.6c0,0,3,8.7,7.9-0.3c0,0,2.4,10.9,6.1,0.3
			c0,0,4.9,9.1,7.9-0.6c2.8,9.7,7.9,0.6,7.9,0.6c3.6,10.6,6.1-0.3,6.1-0.3c4.9,8.8,7.9,0.3,7.9,0.3C71.2,124.5,84,110.9,74.7,111.5"
			/>
	</g>
</g>
<g>
	<g>
		<path class="st0" d="M94.2,148.7H81v-28.9h13.2V148.7"/>
	</g>
</g>
<path class="st0" d="M137.4,127.7h-8.7V98.9h8.7V127.7"/>
<g>
	<g>
		<path class="st2" d="M160.5,102.6c-7.5,0.4-16.3-20.2-16.3-20.2c6.4,8.8,16.8,4.3,11.1,1.5c-4.9-2.5-11.8-16.2-13.6-19.8
			c2.8,4.9,12.6,6.9,6.4-0.6c-6.4-8.1-15-38.2-15-38.2s-8.5,30.1-15,38.2c-6.1,7.6,3.6,5.7,6.4,0.6c-1.8,3.6-8.7,17.4-13.6,19.8
			c-5.7,3,4.6,7.3,11.1-1.5c0,0-8.8,20.7-16.3,20.2c-7.5-0.4,2.7,10.5,9.9,3c0,0,2.4,6.9,6.4-0.1c0,0,1.9,8.7,4.8,0.1
			c0,0,4,7.3,6.3-0.4c2.4,7.8,6.3,0.4,6.3,0.4c2.8,8.5,4.8-0.1,4.8-0.1c3.9,7,6.4,0.1,6.4,0.1C157.8,113.1,168,102,160.5,102.6"/>
	</g>
</g>
<path class="st3" d="M121.9,123.9c-9.4,0.6-20.4-25.3-20.4-25.3c7.9,10.9,21,5.5,13.9,1.8c-6.1-3.1-14.8-20.2-17.1-24.7
	c3.6,6.1,15.7,8.7,8.1-0.9C98.4,64.7,87.6,27,87.6,27S76.9,64.7,68.8,74.7c-7.6,9.4,4.5,7,8.1,0.9c-2.2,4.6-10.9,21.6-17.1,24.7
	c-7.2,3.6,5.8,9.1,13.9-1.8c0,0-10.9,25.9-20.4,25.3c-9.4-0.6,3.3,13.2,12.3,3.6c0,0,3,8.7,7.9-0.3c0,0,2.4,10.9,6.1,0.3
	c0,0,4.9,9.1,7.9-0.6c2.8,9.7,7.9,0.6,7.9,0.6c3.6,10.6,6.1-0.3,6.1-0.3c4.9,8.8,7.9,0.3,7.9,0.3
	C118.6,137.1,131.2,123.3,121.9,123.9"/>
</svg>
