<?xml version="1.0" encoding="utf-8"?>
<!-- Generator: Adobe Illustrator 26.1.0, SVG Export Plug-In . SVG Version: 6.00 Build 0)  -->
<svg version="1.1" id="Layer_1" xmlns="http://www.w3.org/2000/svg" xmlns:xlink="http://www.w3.org/1999/xlink" x="0px" y="0px"
	 viewBox="0 0 167 167" style="enable-background:new 0 0 167 167;" xml:space="preserve">
<style type="text/css">
	.st0{fill:#9AD760;}
	.st1{fill:#86D04C;}
	.st2{fill:#98682A;}
	.st3{fill:#75B93E;}
	.st4{fill:#814722;}
	.st5{fill:#2E9141;}
	.st6{fill:#23673A;}
	.st7{fill:#41AD3D;}
</style>
<g>
	<g>
		<path class="st0" d="M75.5,107.9l-61-35l61-35l61,35L75.5,107.9"/>
	</g>
</g>
<g>
	<g>
		<path class="st1" d="M75.5,107.9l-61-35v6.6l61,35V107.9"/>
	</g>
</g>
<g>
	<g>
		<path class="st2" d="M75.5,117.4l-61-35v-2.9l61,35V117.4"/>
	</g>
</g>
<g>
	<g>
		<path class="st3" d="M75.5,107.9l61-35v6.6l-61,35V107.9"/>
	</g>
</g>
<g>
	<g>
		<path class="st4" d="M75.5,117.4l61-35v-2.9l-61,35V117.4"/>
	</g>
</g>
<g>
	<g>
		<path class="st5" d="M91.4,67.9c4.7,4.3,6.2,10.9,6.7,10.9h3.2C95.9,69.9,91.4,67.9,91.4,67.9"/>
	</g>
</g>
<g>
	<g>
		<path class="st6" d="M100.4,78.8c0,0-2-11.1-5-15.1c0,0,5.3,3.5,8.7,15.1H100.4"/>
	</g>
</g>
<g>
	<g>
		<path class="st5" d="M109.7,78.8c0,0,0.4-8.7-2.1-14.3c0,0,2.4,2.1,5.8,13.7L109.7,78.8"/>
	</g>
</g>
<g>
	<g>
		<path class="st6" d="M103.4,78.8c0,0-0.2-10,3.4-17.4c0,0-0.7,10.1,0.2,17.4H103.4"/>
	</g>
</g>
<g>
	<g>
		<path class="st7" d="M106.2,78.8c0,0,1.1-11.4,7.7-18.9c0,0-5.2,12.7-3.7,18.9H106.2"/>
	</g>
</g>
<g>
	<g>
		<path class="st6" d="M110.1,78.8c0,0,0.5-8.8,5.6-15.6c0,0-3.4,11.8-2.5,15.6H110.1"/>
	</g>
</g>
<g>
	<g>
		<path class="st5" d="M111.7,78.8h-2.8c0,0-2.7-9.5-6.6-17.3C102.3,61.5,109.4,69,111.7,78.8"/>
	</g>
</g>
<g>
	<g>
		<path class="st5" d="M111.3,78.8h2.8c0,0-0.6-3.4,6-13C120.2,65.8,112.1,70.5,111.3,78.8"/>
	</g>
</g>
<g>
	<g>
		<path class="st7" d="M102.7,78.8c0,0,0.4-8.2-2.1-13.9c0,0,2.4,2.3,5.8,13.9H102.7"/>
	</g>
</g>
<g>
	<g>
		<path class="st5" d="M58.8,77.1c5.9,5.4,7.9,13.7,8.5,13.8h4.1C64.5,79.7,58.8,77.1,58.8,77.1"/>
	</g>
</g>
<g>
	<g>
		<path class="st6" d="M70.3,90.9c0,0-2.5-14-6.4-19c0,0,6.8,4.4,11.1,19H70.3"/>
	</g>
</g>
<g>
	<g>
		<path class="st5" d="M82.1,90.9c0,0,0.5-11-2.6-18.1c0,0,3,2.6,7.3,17.3L82.1,90.9"/>
	</g>
</g>
<g>
	<g>
		<path class="st6" d="M74.1,90.9c0,0-0.3-12.7,4.3-22c0,0-0.8,12.8,0.3,22H74.1"/>
	</g>
</g>
<g>
	<g>
		<path class="st7" d="M77.6,90.9c0,0,1.3-14.4,9.8-23.8c0,0-6.6,16-4.7,23.8H77.6"/>
	</g>
</g>
<g>
	<g>
		<path class="st6" d="M82.7,90.9c0,0,0.6-11.1,7.1-19.7c0,0-4.4,14.9-3.2,19.7H82.7"/>
	</g>
</g>
<g>
	<g>
		<path class="st5" d="M84.7,90.9h-3.6c0,0-3.4-12-8.4-21.9C72.7,69,81.8,78.6,84.7,90.9"/>
	</g>
</g>
<g>
	<g>
		<path class="st5" d="M84.2,90.9h3.6c0,0-0.8-4.2,7.7-16.4C95.5,74.5,85.2,80.5,84.2,90.9"/>
	</g>
</g>
<g>
	<g>
		<path class="st7" d="M73.2,90.9c0,0,0.5-10.4-2.6-17.5c0,0,3,2.9,7.4,17.5H73.2"/>
	</g>
</g>
<g>
	<g>
		<path class="st5" d="M74.7,60.9c2.7,2.5,3.6,6.3,3.9,6.3h1.9C77.3,62.1,74.7,60.9,74.7,60.9"/>
	</g>
</g>
<g>
	<g>
		<path class="st6" d="M80,67.2c0,0-1.2-6.4-2.9-8.7c0,0,3.1,2,5.1,8.7H80"/>
	</g>
</g>
<g>
	<g>
		<path class="st5" d="M85.4,67.2c0,0,0.2-5-1.2-8.3c0,0,1.4,1.2,3.4,7.9L85.4,67.2"/>
	</g>
</g>
<g>
	<g>
		<path class="st6" d="M81.8,67.2c0,0-0.1-5.8,2-10.1c0,0-0.4,5.9,0.1,10.1H81.8"/>
	</g>
</g>
<g>
	<g>
		<path class="st7" d="M83.4,67.2c0,0,0.6-6.6,4.5-10.9c0,0-3,7.3-2.2,10.9H83.4"/>
	</g>
</g>
<g>
	<g>
		<path class="st6" d="M85.7,67.2c0,0,0.3-5.1,3.3-9c0,0-2,6.8-1.5,9H85.7"/>
	</g>
</g>
<g>
	<g>
		<path class="st5" d="M86.6,67.2H85c0,0-1.6-5.5-3.8-10C81.1,57.2,85.3,61.6,86.6,67.2"/>
	</g>
</g>
<g>
	<g>
		<path class="st5" d="M86.4,67.2h1.7c0,0-0.4-1.9,3.5-7.5C91.6,59.7,86.9,62.5,86.4,67.2"/>
	</g>
</g>
<g>
	<g>
		<path class="st7" d="M81.4,67.2c0,0,0.2-4.8-1.2-8c0,0,1.4,1.3,3.4,8H81.4"/>
	</g>
</g>
<g>
	<g>
		<path class="st5" d="M68.8,63.8c-5,4.5-6.6,11.4-7.1,11.5h-3.4C64,65.9,68.8,63.8,68.8,63.8"/>
	</g>
</g>
<g>
	<g>
		<path class="st6" d="M59.1,75.2c0,0,2.1-11.7,5.4-15.8c0,0-5.7,3.7-9.3,15.8H59.1"/>
	</g>
</g>
<g>
	<g>
		<path class="st5" d="M49.3,75.2c0,0-0.4-9.2,2.2-15.1c0,0-2.5,2.2-6.2,14.4L49.3,75.2"/>
	</g>
</g>
<g>
	<g>
		<path class="st6" d="M56,75.2c0,0,0.2-10.6-3.6-18.4c0,0,0.7,10.7-0.2,18.4H56"/>
	</g>
</g>
<g>
	<g>
		<path class="st7" d="M53,75.2c0,0-1.1-12-8.2-19.9c0,0,5.5,13.3,3.9,19.9H53"/>
	</g>
</g>
<g>
	<g>
		<path class="st6" d="M48.8,75.2c0,0-0.5-9.3-6-16.4c0,0,3.7,12.4,2.7,16.4H48.8"/>
	</g>
</g>
<g>
	<g>
		<path class="st5" d="M47.1,75.2h3c0,0,2.9-10,7-18.2C57.1,57,49.5,64.9,47.1,75.2"/>
	</g>
</g>
<g>
	<g>
		<path class="st5" d="M47.5,75.2h-3c0,0,0.7-3.5-6.4-13.7C38,61.6,46.6,66.5,47.5,75.2"/>
	</g>
</g>
<g>
	<g>
		<path class="st7" d="M56.7,75.2c0,0-0.4-8.7,2.2-14.6c0,0-2.5,2.4-6.2,14.6H56.7"/>
	</g>
</g>
<g>
	<g>
		<path class="st5" d="M58.8,46.6c4,3.6,5.3,9.1,5.7,9.2h2.8C62.6,48.3,58.8,46.6,58.8,46.6"/>
	</g>
</g>
<g>
	<g>
		<path class="st6" d="M66.5,55.8c0,0-1.7-9.3-4.3-12.7c0,0,4.6,2.9,7.5,12.7H66.5"/>
	</g>
</g>
<g>
	<g>
		<path class="st5" d="M74.5,55.8c0,0,0.3-7.3-1.8-12.1c0,0,2,1.8,5,11.5L74.5,55.8"/>
	</g>
</g>
<g>
	<g>
		<path class="st6" d="M69.1,55.8c0,0-0.2-8.5,2.9-14.7c0,0-0.6,8.5,0.2,14.7H69.1"/>
	</g>
</g>
<g>
	<g>
		<path class="st7" d="M71.5,55.8c0,0,0.9-9.6,6.6-15.9c0,0-4.4,10.7-3.2,15.9H71.5"/>
	</g>
</g>
<g>
	<g>
		<path class="st6" d="M74.9,55.8c0,0,0.4-7.4,4.8-13.1c0,0-3,9.9-2.1,13.1H74.9"/>
	</g>
</g>
<g>
	<g>
		<path class="st5" d="M76.3,55.8h-2.4c0,0-2.3-8-5.7-14.6C68.2,41.2,74.3,47.6,76.3,55.8"/>
	</g>
</g>
<g>
	<g>
		<path class="st5" d="M75.9,55.8h2.5c0,0-0.5-2.8,5.2-10.9C83.6,44.9,76.6,48.8,75.9,55.8"/>
	</g>
</g>
<g>
	<g>
		<path class="st7" d="M68.5,55.8c0,0,0.3-6.9-1.8-11.7c0,0,2,1.9,5,11.7H68.5"/>
	</g>
</g>
</svg>
