<?xml version="1.0" encoding="utf-8"?>
<!-- Generator: Adobe Illustrator 26.1.0, SVG Export Plug-In . SVG Version: 6.00 Build 0)  -->
<svg version="1.1" id="Layer_1" xmlns="http://www.w3.org/2000/svg" xmlns:xlink="http://www.w3.org/1999/xlink" x="0px" y="0px"
	 viewBox="0 0 167 167" style="enable-background:new 0 0 167 167;" xml:space="preserve">
<style type="text/css">
	.st0{fill:#9AD760;}
	.st1{fill:#86D04C;}
	.st2{fill:#98682A;}
	.st3{fill:#75B93E;}
	.st4{fill:#814722;}
</style>
<g>
	<g>
		<path class="st0" d="M75.5,107.9l-61-35l61-35l61,35L75.5,107.9"/>
	</g>
</g>
<g>
	<g>
		<path class="st1" d="M75.5,107.9l-61-35v6.6l61,35V107.9"/>
	</g>
</g>
<g>
	<g>
		<path class="st2" d="M75.5,117.4l-61-35v-2.9l61,35V117.4"/>
	</g>
</g>
<g>
	<g>
		<path class="st3" d="M75.5,107.9l61-35v6.6l-61,35V107.9"/>
	</g>
</g>
<g>
	<g>
		<path class="st4" d="M75.5,117.4l61-35v-2.9l-61,35V117.4"/>
	</g>
</g>
<g>
	<g>
		<g>
			<g>
				<g>
					<g>
						<path class="st3" d="M98.4,50.8l-22.9,57.1l-9.9-5.5l24-56.4L98.4,50.8z"/>
					</g>
				</g>
			</g>
		</g>
	</g>
</g>
<g>
	<g>
		<g>
			<g>
				<g>
					<g>
						<path class="st3" d="M78.8,39.9l6.3,3.5L61.7,100l-11.3-6.5L78.8,39.9z"/>
					</g>
				</g>
			</g>
		</g>
	</g>
</g>
<g>
	<g>
		<g>
			<g>
				<g>
					<g>
						<path class="st3" d="M111.1,58.4l-15,37.8l-12,7.5l18.8-50.1L111.1,58.4z"/>
					</g>
				</g>
			</g>
		</g>
	</g>
</g>
<g>
	<g>
		<g>
			<g>
				<g>
					<g>
						<path class="st3" d="M121.3,64.3l-8,22.1l-12,7.5L115.7,61L121.3,64.3z"/>
					</g>
				</g>
			</g>
		</g>
	</g>
</g>
<g>
	<g>
		<g>
			<g>
				<g>
					<g>
						<path class="st3" d="M131.6,70.1l-0.7,5.9l-12,7.5l6-17.3L131.6,70.1z"/>
					</g>
				</g>
			</g>
		</g>
	</g>
</g>
<g>
	<g>
		<g>
			<g>
				<g>
					<g>
						<path class="st3" d="M73.2,39.2L44.4,89.9l-11.3-6.5l26.3-36.3L73.2,39.2z"/>
					</g>
				</g>
			</g>
		</g>
	</g>
</g>
<g>
	<g>
		<g>
			<g>
				<g>
					<g>
						<path class="st3" d="M48.9,53.1l-20.4,28l-11.3-6.5l11.8-10L48.9,53.1z"/>
					</g>
				</g>
			</g>
		</g>
	</g>
</g>
</svg>
