<?xml version="1.0" encoding="utf-8"?>
<!-- Generator: Adobe Illustrator 26.1.0, SVG Export Plug-In . SVG Version: 6.00 Build 0)  -->
<svg version="1.1" id="Layer_1" xmlns="http://www.w3.org/2000/svg" xmlns:xlink="http://www.w3.org/1999/xlink" x="0px" y="0px"
	 viewBox="0 0 167 167" style="enable-background:new 0 0 167 167;" xml:space="preserve">
<style type="text/css">
	.st0{fill:#9AD760;}
	.st1{fill:#86D04C;}
	.st2{fill:#98682A;}
	.st3{fill:#75B93E;}
	.st4{fill:#814722;}
</style>
<g>
	<g>
		<path class="st0" d="M83.5,122.7L4.4,77.3L83.5,32l79.1,45.4L83.5,122.7"/>
	</g>
</g>
<g>
	<g>
		<path class="st1" d="M83.5,122.7L4.4,77.3v8.6l79.1,45.4V122.7"/>
	</g>
</g>
<g>
	<g>
		<path class="st2" d="M83.5,135L4.4,89.7v-3.8l79.1,45.4V135"/>
	</g>
</g>
<g>
	<g>
		<path class="st3" d="M83.5,122.7l79.1-45.4v8.6l-79.1,45.4V122.7"/>
	</g>
</g>
<g>
	<g>
		<path class="st4" d="M83.5,135l79.1-45.4v-3.8l-79.1,45.4V135"/>
	</g>
</g>
<g>
	<g>
		<g>
			<g>
				<g>
					<g>
						<path class="st3" d="M113.2,48.7l-29.7,74l-12.8-7.1l31.1-73.1L113.2,48.7z"/>
					</g>
				</g>
			</g>
		</g>
	</g>
</g>
<g>
	<g>
		<g>
			<g>
				<g>
					<g>
						<path class="st3" d="M87.8,34.6l8.2,4.5l-30.3,73.4L51,104.1L87.8,34.6z"/>
					</g>
				</g>
			</g>
		</g>
	</g>
</g>
<g>
	<g>
		<g>
			<g>
				<g>
					<g>
						<path class="st3" d="M129.7,58.5l-19.5,49l-15.6,9.7l24.4-65L129.7,58.5z"/>
					</g>
				</g>
			</g>
		</g>
	</g>
</g>
<g>
	<g>
		<g>
			<g>
				<g>
					<g>
						<path class="st3" d="M142.9,66.2l-10.4,28.7l-15.6,9.7l18.7-42.7L142.9,66.2z"/>
					</g>
				</g>
			</g>
		</g>
	</g>
</g>
<g>
	<g>
		<g>
			<g>
				<g>
					<g>
						<path class="st3" d="M156.2,73.7l-0.9,7.7l-15.6,9.7l7.8-22.4L156.2,73.7z"/>
					</g>
				</g>
			</g>
		</g>
	</g>
</g>
<g>
	<g>
		<g>
			<g>
				<g>
					<g>
						<path class="st3" d="M80.5,33.6L43.2,99.4L28.5,91l34.1-47.1L80.5,33.6z"/>
					</g>
				</g>
			</g>
		</g>
	</g>
</g>
<g>
	<g>
		<g>
			<g>
				<g>
					<g>
						<path class="st3" d="M49,51.7L22.6,88L7.9,79.5l15.3-13L49,51.7z"/>
					</g>
				</g>
			</g>
		</g>
	</g>
</g>
</svg>
