<?xml version="1.0" encoding="utf-8"?>
<!-- Generator: Adobe Illustrator 26.1.0, SVG Export Plug-In . SVG Version: 6.00 Build 0)  -->
<svg version="1.1" id="Layer_1" xmlns="http://www.w3.org/2000/svg" xmlns:xlink="http://www.w3.org/1999/xlink" x="0px" y="0px"
	 viewBox="0 0 167 167" style="enable-background:new 0 0 167 167;" xml:space="preserve">
<style type="text/css">
	.st0{fill:#C4C3C3;}
	.st1{fill:#E7E6E6;}
	.st2{fill:#A7A5A6;}
	.st3{fill:#DCDBDB;}
	.st4{fill:#AAA8A8;}
</style>
<g>
	<g>
		<path class="st0" d="M106.8,64.1c0.1-1.2-1.2-1-2.8-1l-41.5,0.2c-0.2,0-0.4,0-0.7,0c-1.3,0-2.3,0-2.2,1l5.4,49.8
			c0.1,1.2,1.2,2.2,2.5,2.2l31.9-0.1c1.2,0,2.3-1,2.5-2.2l4.8-49L106.8,64.1"/>
	</g>
</g>
<path class="st1" d="M70.3,69c-0.1-1.1-1.3-2-2.8-2c-1.5,0-2.6,0.9-2.5,2.1l3.6,41.7c0.1,1.1,1.1,2,2.3,2c1.2,0,2-0.9,2-2.1L70.3,69
	"/>
<path class="st2" d="M67.3,66.9C66,67,64.9,67.9,65,69l3.6,41.7c0.1,1.1,1,2,2.1,2L67.3,66.9"/>
<path class="st1" d="M80.7,68.9c0-1.1-1.2-2-2.7-2c-1.5,0-2.6,0.9-2.6,2.1l1.6,41.7c0,1.1,1,2,2.2,2c1.2,0,2.1-0.9,2.1-2.1
	L80.7,68.9"/>
<path class="st2" d="M77.9,66.9c-1.4,0.1-2.5,1-2.5,2.1l1.6,41.7c0,1.1,1,2,2.1,2L77.9,66.9"/>
<path class="st1" d="M91.1,68.9c0-1.1-1.1-2-2.6-2c-1.5,0-2.6,0.9-2.7,2.1l-0.3,41.7c0,1.1,0.9,2,2.1,2c1.2,0,2.1-0.9,2.2-2.1
	L91.1,68.9"/>
<path class="st2" d="M88.6,66.8C88.6,66.8,88.5,66.8,88.6,66.8c-1.5,0-2.7,0.9-2.7,2.1l-0.3,41.7c0,1.1,0.9,2,2.1,2c0,0,0,0,0.1,0
	L88.6,66.8"/>
<path class="st1" d="M101.5,68.8c0.1-1.1-1-2-2.5-2c-1.5,0-2.7,0.9-2.8,2.1L94,110.6c-0.1,1.1,0.8,2,2,2c1.2,0,2.2-0.9,2.3-2.1
	L101.5,68.8"/>
<path class="st2" d="M99.1,66.8L99.1,66.8c-1.5,0-2.7,0.9-2.8,2.1L94,110.6c-0.1,1.1,0.8,2,2,2h0L99.1,66.8"/>
<g>
	<g>
		<path class="st3" d="M106.8,64.9L106.8,64.9L106.8,64.9 M59.7,64.1C59.7,64.1,59.7,64.1,59.7,64.1l-1.2,0l0-2.8
			c0-0.2,0-0.4,0.1-0.6l49.6-0.2c0,0.2,0.1,0.4,0.1,0.6l0,2.8l-1.2,0l0,0c0-0.7-0.7-0.8-1.5-0.8c-0.4,0-0.8,0-1.3,0l-41.5,0.2
			c0,0-0.1,0-0.1,0c-0.2,0-0.4,0-0.6,0c-0.2,0-0.4,0-0.5,0C60.4,63.3,59.7,63.4,59.7,64.1"/>
	</g>
</g>
<path class="st4" d="M59.8,65.1c0-0.1-0.1-0.9-0.1-1c0-0.7,0.7-0.8,1.6-0.8c0.2,0,0.3,0,0.5,0c0.2,0,0.4,0,0.6,0c0,0,0.1,0,0.1,0
	l41.5-0.2c0.5,0,0.9,0,1.3,0c0.9,0,1.5,0.1,1.5,0.8l-0.1,1v0L59.8,65.1"/>
<g>
	<g>
		<path class="st0" d="M75.7,59.5l0-5.2c0-0.8,0.6-1.4,1.4-1.4l12.3-0.1c0.8,0,1.4,0.6,1.4,1.4l0,5.2l2.8,0l0-6.4
			c0-1.7-1.4-3.2-3.2-3.1l-14.3,0.1c-1.8,0-3.2,1.4-3.2,3.2l0,6.4L75.7,59.5"/>
		<path class="st3" d="M90.3,49.8l-14.3,0.1c-1.8,0-3.2,1.4-3.2,3.2l0,6.4l2.8,0v-0.2l-1,0l0-5.3c0-1.4,1.2-2.6,2.6-2.6l11.8-0.1
			c1.4,0,2.6,1.2,2.6,2.6l0,5.3l-1,0v0.2l2.8,0l0-6.4C93.5,51.2,92.1,49.8,90.3,49.8"/>
	</g>
</g>
<g>
	<g>
		<path class="st0" d="M108.1,63.9c0-0.1,0-0.1,0-0.2l0-3.7c0-1.6-1.3-2.9-2.9-2.9l-43.9,0.2c-1.6,0-2.9,1.3-2.9,2.9l0,3.7
			c0,0.1,0,0.1,0,0.2L108.1,63.9"/>
	</g>
</g>
<g>
	<g>
		<path class="st3" d="M105.2,57.2l-43.9,0.2c-1.6,0-2.9,1.3-2.9,2.9l0,2.1c0-1.6,1.3-2.9,2.9-2.9l43.9-0.2c1.6,0,2.9,1.3,2.9,2.9
			l0-2.1C108.1,58.5,106.8,57.2,105.2,57.2"/>
	</g>
</g>
</svg>
