<?xml version="1.0" encoding="utf-8"?>
<!-- Generator: Adobe Illustrator 26.1.0, SVG Export Plug-In . SVG Version: 6.00 Build 0)  -->
<svg version="1.1" id="Layer_1" xmlns="http://www.w3.org/2000/svg" xmlns:xlink="http://www.w3.org/1999/xlink" x="0px" y="0px"
	 viewBox="0 0 167 167" style="enable-background:new 0 0 167 167;" xml:space="preserve">
<style type="text/css">
	.st0{fill:#C4C3C3;}
	.st1{fill:#E7E6E6;}
	.st2{fill:#A7A5A6;}
	.st3{fill:#DCDBDB;}
	.st4{fill:#AAA8A8;}
</style>
<g>
	<g>
		<path class="st0" d="M127.8,49.6c0.2-2.1-2.1-1.8-5-1.8l-74.2,0.3c-0.3,0-0.7,0-1.3,0c-2.3,0-4.1,0-4,1.8l9.6,89
			c0.2,2.1,2.1,4,4.5,4l57-0.2c2.1,0,4.1-1.8,4.5-4l8.6-87.6L127.8,49.6"/>
	</g>
</g>
<path class="st1" d="M62.6,58.4c-0.2-2-2.3-3.6-5-3.6c-2.7,0-4.6,1.6-4.5,3.8l6.4,74.5c0.2,2,2,3.6,4.1,3.6c2.1,0,3.6-1.6,3.6-3.8
	L62.6,58.4"/>
<path class="st2" d="M57.3,54.7c-2.3,0.2-4.3,1.8-4.1,3.8l6.4,74.5c0.2,2,1.8,3.6,3.8,3.6L57.3,54.7"/>
<path class="st1" d="M81.1,58.2c0-2-2.1-3.6-4.8-3.6c-2.7,0-4.6,1.6-4.6,3.8l2.8,74.5c0,2,1.8,3.6,4,3.6c2.1,0,3.8-1.6,3.8-3.8
	L81.1,58.2"/>
<path class="st2" d="M76.2,54.7c-2.5,0.2-4.5,1.8-4.5,3.8l2.8,74.5c0,2,1.8,3.6,3.8,3.6L76.2,54.7"/>
<path class="st1" d="M99.8,58.2c0-2-2-3.6-4.6-3.6s-4.6,1.6-4.8,3.8l-0.5,74.5c0,2,1.6,3.6,3.8,3.6c2.1,0,3.8-1.6,4-3.8L99.8,58.2"
	/>
<path class="st2" d="M95.3,54.5C95.3,54.5,95.2,54.5,95.3,54.5c-2.7,0-4.8,1.6-4.8,3.8L90,132.8c0,2,1.6,3.6,3.8,3.6c0,0,0,0,0.2,0
	L95.3,54.5"/>
<path class="st1" d="M118.4,58c0.2-2-1.8-3.6-4.5-3.6s-4.8,1.6-5,3.8l-4,74.5c-0.2,2,1.5,3.6,3.6,3.6c2.1,0,4-1.6,4.1-3.8L118.4,58"
	/>
<path class="st2" d="M114.1,54.5L114.1,54.5c-2.7,0-4.8,1.6-5,3.8l-4.1,74.5c-0.2,2,1.5,3.6,3.6,3.6l0,0L114.1,54.5"/>
<g>
	<g>
		<path class="st3" d="M127.8,51.1L127.8,51.1L127.8,51.1 M43.7,49.6L43.7,49.6h-2.1v-5c0-0.3,0-0.7,0.2-1l88.7-0.3
			c0,0.3,0.2,0.7,0.2,1v5h-2.1l0,0c0-1.3-1.3-1.5-2.7-1.5c-0.7,0-1.5,0-2.3,0l-74.2,0.3h-0.2c-0.3,0-0.7,0-1,0s-0.7,0-0.9,0
			C44.9,48.2,43.7,48.4,43.7,49.6"/>
	</g>
</g>
<path class="st4" d="M43.9,51.4c0-0.2-0.2-1.6-0.2-1.8c0-1.3,1.3-1.5,2.8-1.5c0.3,0,0.5,0,0.9,0s0.7,0,1,0h0.2l74.2-0.3
	c0.9,0,1.6,0,2.3,0c1.6,0,2.7,0.2,2.7,1.5l-0.2,1.8l0,0L43.9,51.4"/>
<g>
	<g>
		<path class="st0" d="M72.2,41.4v-9.3c0-1.5,1-2.5,2.5-2.5l22-0.2c1.5,0,2.5,1,2.5,2.5v9.3h5V29.8c0-3-2.5-5.8-5.8-5.5l-25.5,0.2
			c-3.2,0-5.8,2.5-5.8,5.8v11.4L72.2,41.4"/>
		<path class="st3" d="M98.3,24.1l-25.5,0.2c-3.2,0-5.8,2.5-5.8,5.8v11.4h5v-0.3h-1.8v-9.5c0-2.5,2.1-4.6,4.6-4.6l21.1-0.2
			c2.5,0,4.6,2.1,4.6,4.6v9.5h-1.8v0.3h5V29.8C104.1,26.6,101.6,24.1,98.3,24.1"/>
	</g>
</g>
<g>
	<g>
		<path class="st0" d="M130.1,49.3c0-0.2,0-0.2,0-0.3v-6.6c0-2.8-2.3-5.2-5.2-5.2l-78.5,0.3c-2.8,0-5.2,2.3-5.2,5.2v6.6
			c0,0.2,0,0.2,0,0.3L130.1,49.3"/>
	</g>
</g>
<g>
	<g>
		<path class="st3" d="M125,37.3l-78.5,0.3c-2.8,0-5.2,2.3-5.2,5.2v3.8c0-2.8,2.3-5.2,5.2-5.2l78.5-0.3c2.8,0,5.2,2.3,5.2,5.2v-3.8
			C130.1,39.6,127.8,37.3,125,37.3"/>
	</g>
</g>
</svg>
