<?xml version="1.0" encoding="utf-8"?>
<!-- Generator: Adobe Illustrator 26.1.0, SVG Export Plug-In . SVG Version: 6.00 Build 0)  -->
<svg version="1.1" id="Layer_1" xmlns="http://www.w3.org/2000/svg" xmlns:xlink="http://www.w3.org/1999/xlink" x="0px" y="0px"
	 viewBox="0 0 167 167" style="enable-background:new 0 0 167 167;" xml:space="preserve">
<style type="text/css">
	.st0{fill:#151312;}
	.st1{fill:#545454;}
	.st2{fill:#FFFFFF;}
</style>
<g>
	<g>
		<path class="st0" d="M100.7,54.7c-1.2-2-8.7-3.5-17.7-3.5s-16.5,1.5-17.7,3.5h-0.2v56.2c0,2.2,8,4.1,17.9,4.1
			c9.9,0,17.9-1.8,17.9-4.1V54.7H100.7"/>
	</g>
</g>
<g>
	<g>
		<path class="st1" d="M101.6,92.8c0,1.8-8.3,3.2-18.6,3.2s-18.6-1.4-18.6-3.2c0-0.3,0.3-0.6,0.8-0.9c2.3,1.3,9.4,2.2,17.8,2.2
			s15.5-0.9,17.8-2.2C101.3,92.2,101.6,92.5,101.6,92.8"/>
	</g>
</g>
<g>
	<g>
		<path class="st1" d="M101.6,112c0,2.3-8.3,4.2-18.6,4.2s-18.6-1.9-18.6-4.2c0-0.4,0.3-0.8,0.8-1.2c2.3,1.7,9.4,2.9,17.8,2.9
			s15.5-1.2,17.8-2.9C101.3,111.2,101.6,111.6,101.6,112"/>
	</g>
</g>
<g>
	<g>
		<path class="st1" d="M101.6,54c0-2.3-8.3-4.2-18.6-4.2S64.4,51.7,64.4,54c0,0.4,0.3,0.8,0.8,1.2c2.3-1.7,9.4-2.9,17.8-2.9
			s15.5,1.2,17.8,2.9C101.3,54.8,101.6,54.4,101.6,54"/>
	</g>
</g>
<g>
	<g>
		<path class="st1" d="M101.6,74.2c0-1.8-8.3-3.2-18.6-3.2s-18.6,1.4-18.6,3.2c0,0.3,0.3,0.6,0.8,0.9c2.3-1.3,9.4-2.3,17.8-2.3
			s15.5,0.9,17.8,2.3C101.3,74.8,101.6,74.5,101.6,74.2"/>
	</g>
</g>
<path class="st2" d="M73.6,83c0-5.2,4.2-9.4,9.4-9.4c5.2,0,9.4,4.2,9.4,9.4c0,5.2-4.2,9.4-9.4,9.4C77.8,92.4,73.6,88.2,73.6,83"/>
<path class="st0" d="M83,74.5c-4.7,0-8.5,3.8-8.5,8.5c0,4.7,3.8,8.5,8.5,8.5c4.7,0,8.5-3.8,8.5-8.5C91.5,78.3,87.7,74.5,83,74.5z
	 M83,92.1c-5,0-9.1-4.1-9.1-9.1c0-5,4.1-9.1,9.1-9.1c5,0,9.1,4.1,9.1,9.1C92.1,88,88,92.1,83,92.1"/>
<path class="st0" d="M79.7,84.1c0-2.5,3.3-6.2,3.3-6.2s3.3,3.7,3.3,6.2c0,2.5-1.5,4-3.3,4C81.2,88.1,79.7,86.7,79.7,84.1"/>
</svg>
