<?xml version="1.0" encoding="utf-8"?>
<!-- Generator: Adobe Illustrator 26.1.0, SVG Export Plug-In . SVG Version: 6.00 Build 0)  -->
<svg version="1.1" id="Layer_1" xmlns="http://www.w3.org/2000/svg" xmlns:xlink="http://www.w3.org/1999/xlink" x="0px" y="0px"
	 viewBox="0 0 167 167" style="enable-background:new 0 0 167 167;" xml:space="preserve">
<style type="text/css">
	.st0{fill:#545454;}
	.st1{fill:#737373;}
	.st2{fill:none;}
	.st3{fill:#DDDDDD;}
</style>
<g>
	<g>
		<path class="st0" d="M83.2,125.2l-80-45.8l79.7-46.3l80,45.9L83.2,125.2"/>
	</g>
</g>
<g>
	<g>
		<path class="st1" d="M83.1,125.2l-79.9-46v6.2l79.9,46.2V125.2"/>
	</g>
</g>
<g>
	<g>
		<path class="st1" d="M163,79.1l-79.9,46v6.3L163,85.3V79.1"/>
	</g>
</g>
<path class="st2" d="M119.9,52.4"/>
<polygon class="st3" points="58.4,88.7 39.1,99.8 43.1,102.2 60.6,92.6 "/>
<rect x="62.1" y="80.4" transform="matrix(0.866 -0.5 0.5 0.866 -31.4664 47.7623)" class="st3" width="22.7" height="4.4"/>
<rect x="85.7" y="66.7" transform="matrix(0.866 -0.5 0.5 0.866 -21.4592 57.7694)" class="st3" width="22.7" height="4.4"/>
<polygon class="st3" points="119.1,53.8 109.7,59 112,62.9 123.6,56.4 "/>
</svg>
