<?xml version="1.0" encoding="utf-8"?>
<!-- Generator: Adobe Illustrator 26.1.0, SVG Export Plug-In . SVG Version: 6.00 Build 0)  -->
<svg version="1.1" id="Layer_1" xmlns="http://www.w3.org/2000/svg" xmlns:xlink="http://www.w3.org/1999/xlink" x="0px" y="0px"
	 viewBox="0 0 167 167" style="enable-background:new 0 0 167 167;" xml:space="preserve">
<style type="text/css">
	.st0{fill:#A8A8A8;}
	.st1{fill:#454A51;}
	.st2{fill:#FFFFFF;}
	.st3{fill:#272C35;}
</style>
<g>
	<g>
		<path class="st0" d="M32.3,89.3L12.6,77.8l52.2-30.3l19.7,11.5l19.7-11.5l52.2,30.3l-19.7,11.5l19.7,11.5l-52,30.3l-19.7-11.5
			l-19.7,11.5l-52.5-30.3L32.3,89.3z"/>
	</g>
</g>
<path class="st1" d="M60.5,49.8l23.8,13.9l23.8-13.9L152,75.4l-23.8,13.9l23.8,13.9l-43.8,25.6l-23.8-13.9l-23.8,13.9l-43.8-25.6
	l23.8-13.9L16.7,75.4L60.5,49.8z"/>
<path class="st2" d="M71.2,95.8l2.2,1.3l-7.4,4.3c-0.7-0.4-1.5-0.9-2.2-1.3L71.2,95.8z M50.6,107.7c0.7,0.4,1.5,0.9,2.2,1.3l7.4-4.3
	l-2.2-1.3L50.6,107.7z M44.9,111l-7.4,4.3l2.2,1.3l7.4-4.3L44.9,111z M116,69.6c0.7,0.4,1.5,0.9,2.2,1.3l7.4-4.3l-2.2-1.3L116,69.6z
	 M89.8,84.9c0.7,0.4,1.5,0.9,2.2,1.3l7.4-4.3l-2.2-1.3L89.8,84.9z M102.8,77.1c0.7,0.4,1.5,0.9,2.2,1.3l7.4-4.3l-2.2-1.3L102.8,77.1
	z M97.6,95.8l-2.2,1.3l7.4,4.3c0.7-0.4,1.5-0.9,2.2-1.3L97.6,95.8z M110.8,103.4l-2.2,1.3l7.4,4.3c0.7-0.4,1.5-0.9,2.2-1.3
	L110.8,103.4z M121.7,112.3l7.4,4.3l2.2-1.3l-7.4-4.3L121.7,112.3z M45.4,65.2l-2.2,1.3l7.4,4.3c0.7-0.4,1.5-0.9,2.2-1.3L45.4,65.2z
	 M71.6,80.6l-2.2,1.3l7.4,4.3c0.7-0.4,1.5-0.9,2.2-1.3L71.6,80.6z M58.6,72.8l-2.2,1.3l7.4,4.3c0.7-0.4,1.5-0.9,2.2-1.3L58.6,72.8z
	 M50.6,107.7c0.7,0.4,1.5,0.9,2.2,1.3l7.4-4.3l-2.2-1.3L50.6,107.7z M44.9,111l-7.4,4.3l2.2,1.3l7.4-4.3L44.9,111z M116,69.6
	c0.7,0.4,1.5,0.9,2.2,1.3l7.4-4.3l-2.2-1.3L116,69.6z M89.8,84.9c0.7,0.4,1.5,0.9,2.2,1.3l7.4-4.3l-2.2-1.3L89.8,84.9z M102.8,77.1
	c0.7,0.4,1.5,0.9,2.2,1.3l7.4-4.3l-2.2-1.3L102.8,77.1z M97.6,95.8l-2.2,1.3l7.4,4.3c0.7-0.4,1.5-0.9,2.2-1.3L97.6,95.8z
	 M110.8,103.4l-2.2,1.3l7.4,4.3c0.7-0.4,1.5-0.9,2.2-1.3L110.8,103.4z M121.7,112.3l7.4,4.3l2.2-1.3l-7.4-4.3L121.7,112.3z
	 M45.4,65.2l-2.2,1.3l7.4,4.3c0.7-0.4,1.5-0.9,2.2-1.3L45.4,65.2z M71.6,80.6l-2.2,1.3l7.4,4.3c0.7-0.4,1.5-0.9,2.2-1.3L71.6,80.6z
	 M58.6,72.8l-2.2,1.3l7.4,4.3c0.7-0.4,1.5-0.9,2.2-1.3L58.6,72.8z"/>
<g>
	<g>
		<path class="st3" d="M136.8,89.3l19.7-11.5l-52.5-30.6l0,0L84.4,58.7L64.6,47.2L12.2,77.8l19.7,11.5l-19.7,11.5l24.9,14.5l0,0
			l2.4,1.3l0,0l24.9,14.5l0,0l19.7-11.5l19.7,11.5l0,0l24.9-14.5l0,0l2.4-1.3l0,0l24.9-14.5L136.8,89.3z M136.2,89.3l19.7,11.5
			l-3.9,2.4l-23.6-13.9L152,75.4l3.9,2.2L136.2,89.3z M84.4,58.9l19.7-11.5l3.9,2.4L84.4,63.7L60.7,49.8l3.9-2.4L84.4,58.9z
			 M32.6,89.3L12.8,77.8l3.9-2.4l23.6,13.9l-23.6,13.9l-3.9-2.4L32.6,89.3z M37.8,115.3l7.2-4.1l2,1.1l-7.2,4.1L37.8,115.3z
			 M84.4,119.6L84.4,119.6l-19.7,11.5l-3.9-2.2l23.6-13.9l23.6,13.9l-3.9,2.2L84.4,119.6z M129,116.4l-7.2-4.1l2-1.1l7.2,4.1
			L129,116.4z M123.8,111l-2.4,1.5l7.4,4.3l-20.6,11.9l-23.8-13.9l0,0l-23.8,13.9l-20.6-11.9l7.4-4.3l-2.4-1.5l-7.4,4.3L17,103.2
			l23.8-13.9L17,75.4L60.5,50l23.8,13.9L108.2,50l43.6,25.4l-23.8,13.9l23.8,13.9l-20.6,11.9L123.8,111z M63.3,100.1l2.4,1.5
			l7.6-4.6l-2.2-1.5L63.3,100.1z M65.7,101.2l-2-1.1l7.2-4.1l2,1.1L65.7,101.2z M50.3,107.7l2.4,1.5l7.6-4.6l-2.4-1.5L50.3,107.7z
			 M52.7,108.8l-2-1.1l7.2-4.1l2,1.1L52.7,108.8z M115.8,69.6l2.4,1.5l7.6-4.6l-2.4-1.5L115.8,69.6z M118.2,70.6l-2-1.1l7.2-4.1
			l2,1.1L118.2,70.6z M97.2,80.4l-7.6,4.6l2.4,1.5l7.6-4.6L97.2,80.4z M90,84.9l7.2-4.1l2,1.1L92,86L90,84.9z M112.8,74.1l-2.4-1.5
			l-7.6,4.6l2.4,1.5L112.8,74.1z M110.4,73l2,1.1l-7.2,4.1l-2-1.1L110.4,73z M95.2,97.1l7.6,4.6l2.4-1.5l-7.6-4.6L95.2,97.1z
			 M103,101.2l-7.2-4.1l2-1.1l7.2,4.1L103,101.2z M108.4,104.7l7.6,4.6l2.4-1.5l-7.6-4.6L108.4,104.7z M116,108.8l-7.2-4.1l2-1.1
			l7.2,4.1L116,108.8z M53.2,69.6L45.6,65L43,66.5l7.6,4.6L53.2,69.6z M45.4,65.4l7.2,4.1l-2,1.1l-7.2-4.1L45.4,65.4z M69.2,81.7
			l7.6,4.6l2.4-1.5l-7.6-4.3L69.2,81.7z M76.8,86l-7.2-4.1l2-1.1l7.2,4.1L76.8,86z M66.2,77.1l-7.6-4.6L56,74.1l7.6,4.6L66.2,77.1z
			 M58.6,73l7.2,4.1l-2,1.1l-7.2-4.1L58.6,73z"/>
	</g>
</g>
</svg>
