<?xml version="1.0" encoding="utf-8"?>
<!-- Generator: Adobe Illustrator 26.1.0, SVG Export Plug-In . SVG Version: 6.00 Build 0)  -->
<svg version="1.1" id="Layer_1" xmlns="http://www.w3.org/2000/svg" xmlns:xlink="http://www.w3.org/1999/xlink" x="0px" y="0px"
	 viewBox="0 0 167 167" style="enable-background:new 0 0 167 167;" xml:space="preserve">
<style type="text/css">
	.st0{fill:#EDB856;}
	.st1{fill:#D6AD61;}
	.st2{fill:#AD915E;}
	.st3{fill:#DCAD52;}
	.st4{fill:#F3C56C;}
	.st5{fill:#F4C56D;}
</style>
<g>
	<g>
		<path class="st0" d="M83,131.5L1.9,84.7L83,37.9l81.1,46.8L83,131.5"/>
	</g>
</g>
<g>
	<g>
		<path class="st1" d="M83,131.4L1.9,84.6V91L83,137.8V131.4"/>
	</g>
</g>
<g>
	<g>
		<path class="st2" d="M164.1,84.6L83,131.4v6.3L164.1,91V84.6"/>
	</g>
</g>
<g>
	<g>
		<path class="st3" d="M82.2,105.9l-0.4,0c-0.6,0-1.2,0.2-1.9,0.4c-0.5,0.1-1.5,0.6-2.9,1.4c-1.6,0.9-4.5,2.9-8.6,6l9.7,0.1h18.4
			c-2.2-1.3-3.9-2.3-5.1-3.1c-0.8-0.5-2.5-1.6-5.2-3.5c-0.3-0.2-0.6-0.4-0.9-0.5c-0.5-0.3-1.1-0.5-1.8-0.7
			C83.2,105.9,82.8,105.9,82.2,105.9z"/>
	</g>
</g>
<g>
	<g>
		<path class="st3" d="M97.8,108.7L97.8,108.7c-0.7,0-1.6,0.2-2.7,0.6c-0.5,0.2-1.1,0.5-1.8,0.8c-2,1-3.2,1.6-3.6,1.8
			c-0.6,0.3-1.1,0.4-1.4,0.5c-1,0.3-2.1,0.4-3.3,0.3l9.4,1.1h12.7l-4-2.5c-0.6-0.6-1.4-1.2-2.4-1.8c-0.6-0.3-1.1-0.5-1.3-0.6
			C98.9,108.8,98.3,108.7,97.8,108.7z"/>
	</g>
</g>
<g>
	<g>
		<path class="st4" d="M97.7,108.7l-0.2,0c-0.7,0.1-1.6,0.3-2.5,0.6c-0.4,0.2-0.9,0.4-1.7,0.7c-1.9,1-3.1,1.6-3.6,1.8
			c-0.6,0.3-1.1,0.4-1.3,0.5c-1.1,0.4-2.2,0.5-3.5,0.4l9,1h4.7c-0.2-0.2-0.2-0.6-0.2-1.2c0-0.4,0.2-0.8,0.4-1.3
			c0.1-0.4,0.1-0.6,0.1-0.8c0-0.1-0.1-0.2-0.1-0.2c-0.4-0.3-0.7-0.7-0.9-1C97.8,109.1,97.8,108.9,97.7,108.7L97.7,108.7z"/>
	</g>
</g>
<g>
	<g>
		<path class="st5" d="M91.1,111.7c-0.1,0-0.2,0-0.4,0c0,0-0.1,0-0.1,0.1c-0.1,0-0.3,0.1-0.8,0.2c0,0-0.1,0-0.1,0
			c-0.3,0.1-0.7,0.3-1.1,0.5c-0.3,0.1-0.5,0.2-0.6,0.2c0,0,0,0,0,0c-0.2,0-0.4,0.1-0.8,0.1c-0.3,0-0.5,0.2-0.5,0.5
			c0,0.3,0.2,0.5,0.5,0.5c0.4,0,0.8,0,1-0.1c0,0,0,0,0,0c0.1,0,0.3-0.1,0.7-0.3c0,0,0,0,0,0c0.4-0.2,0.7-0.3,1-0.5
			c0.5-0.1,0.8-0.2,0.9-0.2c0,0,0.1,0,0.1,0c0.3,0,0.5-0.2,0.5-0.5C91.6,111.9,91.4,111.7,91.1,111.7z"/>
	</g>
</g>
<path class="st5" d="M92.3,112.9C92.2,112.9,92.2,112.9,92.3,112.9C92.2,112.9,92.2,112.9,92.3,112.9z"/>
<g>
	<g>
		<path class="st5" d="M87.4,113.7L87.4,113.7L87.4,113.7L87.4,113.7l0,0.1h0v0L87.4,113.7L87.4,113.7L87.4,113.7z"/>
	</g>
</g>
<g>
	<g>
		<path class="st5" d="M87.9,113.1L87.9,113.1l-0.1,0l-0.1,0l0,0l0,0l-0.1,0.1l-0.1,0.1l0,0l0,0.1l0,0.1l0-0.1l0-0.1l0-0.1l0-0.1
			l0.1,0l0.1,0l0.1,0L87.9,113.1L87.9,113.1 M93.9,112.5L93.9,112.5c-0.1,0-0.2,0-0.2,0l-0.4,0.1l-0.3,0.1c-0.1,0-0.2,0-0.3,0.1
			c-0.1,0-0.1,0-0.2,0c-0.1,0-0.4,0.1-0.9,0.1c-0.1,0-0.3,0-0.3,0l-0.4,0c0,0-0.2,0-0.4,0l-1.7,0l-0.8,0h-1.2
			c-0.2,0-0.3,0.1-0.4,0.2c-0.1,0.1-0.1,0.2-0.1,0.2c0,0.1,0,0.2,0.1,0.2h6.7l0.1,0c0.1,0,0.1,0,0.1,0l0.5-0.1l0.3-0.1h0.5
			c0,0,0.1,0,0.1,0c0.1,0,0.2-0.1,0.3-0.2c0.2-0.2,0.1-0.4,0-0.6c-0.1-0.1-0.2-0.1-0.3-0.1l-0.1,0H93.9z"/>
	</g>
</g>
<g>
	<g>
		<path class="st5" d="M88.2,113L88.2,113l0.1,0l0.1,0l0.1,0c0.1,0,0.1,0.1,0.2,0.2l0,0l0,0l0,0l0,0l-0.1-0.1l0,0l0,0L88.2,113
			L88.2,113C88.2,113,88.2,113,88.2,113L88.2,113 M90.8,112.8L90.8,112.8C90.8,112.8,90.8,112.8,90.8,112.8c-0.2,0-0.3,0-0.3,0h-0.7
			c0,0-0.1,0-0.2,0c-0.1,0-0.6,0.1-1.4,0.1c-0.2,0-0.3,0-0.3,0c-0.4,0-0.6,0-0.7,0c-0.2,0-0.5,0-0.8,0c0,0,0,0-0.1,0
			c-0.1,0-0.2,0.1-0.3,0.2c-0.1,0-0.1,0.1-0.1,0.2c0,0.2,0,0.3,0.1,0.4h2.6c0.1-0.2,0.2-0.3,0.1-0.5c0,0.1,0.1,0.2,0,0.3
			c0,0.1-0.1,0.2-0.1,0.2h2.1c0.1,0,0.2,0,0.3-0.1c0.1,0,0.1,0,0.2-0.1c0.1-0.1,0.2-0.2,0.2-0.3c0-0.1,0-0.2-0.1-0.4
			C91.1,112.8,91,112.8,90.8,112.8z"/>
	</g>
</g>
<path class="st5" d="M91.5,112.8c-0.2,0-0.4,0.1-0.5,0.3c0,0,0,0.1,0,0.1C91,112.9,91.2,112.8,91.5,112.8z"/>
<path class="st5" d="M90.2,112.9c-0.2,0-0.4,0.2-0.4,0.4c0,0,0,0.1,0,0.1C89.8,113.1,90,112.9,90.2,112.9z"/>
<g>
	<g>
		<path class="st5" d="M91,113.3L91,113.3l0,0.1c0,0,0,0.1,0.1,0.1l0,0l0,0l0,0l0,0l0,0l0,0l-0.1,0l-0.1,0l0,0l0-0.1l0-0.1l0-0.1
			L91,113.3L91,113.3"/>
	</g>
</g>
<g>
	<g>
		<path class="st5" d="M86.3,112.6L86.3,112.6c-0.2,0-0.4,0.1-0.4,0.2c-0.1,0.2-0.1,0.3,0,0.4c0.1,0.1,0.1,0.2,0.1,0.2
			c0,0,0.1,0.1,0.1,0.1c0.2,0.1,0.4,0.2,0.6,0.2h4l0.2,0l0.1,0l0.1,0l0.3,0c0.1,0,0.1,0,0.2,0c0.1,0,0.2-0.1,0.3-0.1
			c0.1-0.2,0.1-0.3,0.1-0.5c0-0.1-0.2-0.2-0.3-0.3c0,0-0.1,0-0.1,0c-0.3,0-0.5,0-0.5,0c-0.1,0-0.2,0-0.2,0l-0.5,0.1l-0.1,0
			c-0.3,0-0.4,0-0.5,0l-0.7,0.1c-0.1,0-0.1,0-0.2,0c-0.4,0-0.8,0-1.1,0l-0.5-0.1c-0.1,0-0.2,0-0.3-0.1c-0.1,0-0.3-0.1-0.5-0.2
			C86.4,112.6,86.4,112.6,86.3,112.6z M89.8,113.4L89.8,113.4l0,0.1l0,0l0.1,0.1l0,0c0,0,0,0,0.1,0l0,0l0,0l0,0l0,0l0,0l0,0l0,0
			L89.8,113.4"/>
	</g>
</g>
<g>
	<g>
		<path class="st5" d="M94.2,113.1L94.2,113.1C94.2,113.1,94.1,113.1,94.2,113.1c-0.5,0.1-0.8,0.2-1.2,0.2c-0.1,0-0.2,0-0.4,0
			l-0.3,0l-0.1,0h-1.7c-0.1,0-0.2,0-0.4,0c-0.2,0-0.5,0-1-0.1c0,0-0.1,0-0.1,0c-0.1,0-0.2,0.1-0.3,0.2c-0.1,0.1-0.1,0.2-0.1,0.3h6
			c0.1-0.2,0.1-0.3,0-0.5C94.5,113.2,94.4,113.1,94.2,113.1z"/>
	</g>
</g>
<g>
	<g>
		<path class="st4" d="M82.2,105.9l-0.4,0c-0.6,0-1.4,0.2-2.3,0.6c-0.6,0.2-1.6,0.8-3.1,1.6c-1.7,1-4.3,2.9-8,5.6l9.7,0.1h8.3
			l0.3-0.5c0-0.4,0-0.6-0.1-0.8c0,0-0.1-0.1-0.2-0.1c-1.1-0.4-1.8-0.7-2.1-0.9c-0.3-0.1-0.4-0.4-0.6-0.7c-0.1-0.2,0-0.5,0.2-0.7
			l1.6-1.6l0.1-0.2l-0.1-0.1l-1.6-0.7c0,0-0.1-0.1-0.2-0.2c-0.4-0.3-0.6-0.8-0.7-1.4C82.7,105.9,82.4,105.9,82.2,105.9"/>
	</g>
</g>
<g>
	<g>
		<path class="st3" d="M125.8,77l0.7,0c0.9,0.1,1.9,0.3,3,0.7c0.8,0.2,2.3,1,4.7,2.3c2.6,1.5,7.1,4.7,13.6,9.7l-15.5,0.2H103
			c3.5-2.1,6.3-3.8,8.2-5c1.3-0.8,4-2.6,8.3-5.6c0.5-0.3,0.9-0.6,1.4-0.9c0.8-0.4,1.7-0.8,2.8-1.2C124.2,77.1,124.9,77,125.8,77z"/>
	</g>
</g>
<g>
	<g>
		<path class="st3" d="M100.9,81.6h0.1c1,0,2.4,0.3,4.2,1c0.8,0.3,1.8,0.8,2.9,1.3c3.1,1.6,5,2.6,5.7,2.9c0.9,0.4,1.7,0.7,2.2,0.9
			c1.6,0.5,3.4,0.7,5.3,0.5l-15,1.8H86.2l6.3-4c1-0.9,2.3-1.9,3.9-2.9c1-0.5,1.7-0.9,2-0.9C99.3,81.7,100.1,81.6,100.9,81.6z"/>
	</g>
</g>
<g>
	<g>
		<path class="st5" d="M125.7,77L125.7,77c1.9,0.2,3.3,0.5,4.3,0.9c0.8,0.3,2.5,1.2,5.1,2.7c3.7,2.4,7.9,5.4,12.7,9.1l-15.5,0.2H103
			c3.2-1.9,5.7-3.4,7.7-4.7l1.3,1.1l1.4,0.7c0.2,0.1,0.3,0.1,0.5,0.2c0.5,0.1,0.9,0.1,1.3,0l0.6-0.2l0.9-0.4
			c0.4-0.3,0.7-0.6,0.9-1.1c0.4-0.3,0.8-0.6,0.9-0.8c0.5-0.1,1.2-0.5,2-1.2c0.4-0.5,1-1.4,1.9-2.7l2.3-2.3c0.1-0.1,0.2-0.6,0.1-1.4
			L125.7,77z"/>
	</g>
</g>
<path class="st5" d="M95.7,85.9L95.6,86l-0.1,0.1l-0.1,0.1l-0.1,0.1l-0.1,0.1l-0.1,0l-0.1,0l-0.1,0l-0.2,0l0,0l0.1,0
	c0.1,0,0.1,0,0.2,0c0.1,0,0.2-0.1,0.3-0.1c0.1,0,0.1,0,0.2-0.1l0.1,0C95.5,86,95.6,86,95.7,85.9"/>
<g>
	<g>
		<path class="st5" d="M101.1,81.6l0.3,0c0.5,0.1,1.3,0.2,2.2,0.4c0.7,0.2,1.7,0.6,2.9,1.1c0.3,0.1,1.7,0.8,4.2,2.1
			c0.2,0.1,0.6,0.4,1.3,1c0.9,0.4,1.4,0.7,1.4,0.7c0.2,0.1,0.3,0.1,0.4,0.2c0.3,0.1,0.6,0.1,1.1,0.1c1.3,0.5,2.3,0.8,2.9,0.9
			c1.3,0.2,2.5,0.2,3.5,0.1l-14.9,1.7H91.4l0.4-0.3c1.3-0.5,2-0.8,2.1-0.9c0.6-0.8,1.3-1.7,1.9-2.9C97,85.2,98.8,83.8,101.1,81.6z"
			/>
	</g>
</g>
<path class="st5" d="M121.3,88.1L121.3,88.1C121.3,88.1,121.3,88.1,121.3,88.1L121.3,88.1"/>
<path class="st5" d="M90.6,87L90.6,87c0,0.3,0,0.5,0.1,0.7c0.1,0.2,0.1,0.3,0.2,0.4c0.1,0.1,0.1,0.2,0.2,0.3
	c0.3,0.3,0.7,0.6,1.1,0.7L91.8,89l-0.3-0.1l-0.3-0.2L91,88.5l-0.2-0.2L90.7,88l-0.1-0.3l0-0.3L90.6,87"/>
<g>
	<g>
		<path class="st3" d="M50.2,83l-0.6,0c-0.8,0.1-1.6,0.3-2.5,0.6c-0.6,0.2-1.9,0.8-3.8,1.9c-2.1,1.2-5.8,4-11.2,8.2l12.7,0.2h24.1
			c-2.9-1.8-5.2-3.2-6.7-4.2c-1-0.6-3.3-2.2-6.8-4.8c-0.4-0.3-0.8-0.5-1.2-0.7c-0.6-0.4-1.4-0.7-2.3-1C51.5,83.1,50.9,83,50.2,83z"
			/>
	</g>
</g>
<g>
	<g>
		<path class="st3" d="M70.6,86.9L70.6,86.9c-0.9,0-2,0.2-3.5,0.8c-0.7,0.3-1.4,0.6-2.4,1.1c-2.6,1.4-4.1,2.2-4.7,2.5
			c-0.8,0.4-1.4,0.6-1.8,0.7c-1.3,0.4-2.8,0.6-4.4,0.4l12.3,1.5h16.6l-5.2-3.4c-0.8-0.8-1.9-1.6-3.2-2.5c-0.8-0.5-1.4-0.7-1.7-0.8
			C72,87,71.3,86.9,70.6,86.9z"/>
	</g>
</g>
<g>
	<g>
		<path class="st5" d="M50.1,83l-0.3,0c-1.7,0.3-2.8,0.6-3.3,0.8c-0.1,0-1.4,0.7-4,2.2c-3,2-6.5,4.6-10.4,7.7l12.7,0.2h24.1
			l-6.1-3.8l-0.5,0.2c-0.3,0.5-0.8,0.9-1.4,1.4c-0.2,0.2-0.5,0.3-0.9,0.5c-0.5,0.1-1,0.1-1.4-0.1c-0.6,0.1-0.9,0.1-0.9,0.1
			c-0.3,0-0.7-0.1-1-0.4c-0.9-0.6-1.7-1.4-2.5-2.3c-0.1-0.1-0.6-1.1-1.5-3.1l-0.6-0.8l-1.1-1.9c-0.2-0.2-0.4-0.3-0.5-0.5L50.2,83
			H50.1z"/>
	</g>
</g>
<g>
	<g>
		<path class="st5" d="M70.5,86.9l-0.4,0c-1.3,0.2-2.7,0.6-4.4,1.4l-1.1,0.5c-0.4,0.4-0.9,0.8-1.4,1.1c-0.4,0.2-0.7,0.3-0.9,0.3
			c-0.3,0.4-0.6,0.7-0.9,1l-0.9,0.6c-0.2,0.1-0.3,0.2-0.5,0.2c-0.5,0.1-1,0.1-1.5-0.1c-0.3,0.1-0.6,0.1-1,0.1l-1.2,0.3l-0.4,0
			c-0.6,0.1-1.2,0.1-1.9,0l12,1.4H77l-0.8-2l-0.7-1.1l-0.5-0.4c-0.4-0.1-0.9-0.4-1.4-0.8c-0.5-0.5-0.9-1-1.2-1.5l-1.6-1.3L70.5,86.9
			z"/>
	</g>
</g>
<g>
	<g>
		<path class="st3" d="M87.2,70.1l-0.3,0c-0.5,0-1,0.2-1.6,0.4c-0.4,0.1-1.2,0.5-2.4,1.2c-1.3,0.8-3.7,2.5-7,5.2l8,0.1h15.1
			c-1.8-1.1-3.2-2-4.2-2.7c-0.7-0.4-2.1-1.4-4.3-3c-0.2-0.2-0.5-0.3-0.7-0.5c-0.4-0.2-0.9-0.5-1.4-0.6C88,70.2,87.6,70.2,87.2,70.1z
			"/>
	</g>
</g>
<g>
	<g>
		<path class="st3" d="M100,72.6L100,72.6c-0.6,0-1.3,0.2-2.2,0.5c-0.4,0.2-0.9,0.4-1.5,0.7c-1.6,0.9-2.6,1.4-3,1.6
			c-0.5,0.2-0.9,0.4-1.2,0.5c-0.8,0.3-1.7,0.4-2.7,0.3l7.7,0.9h10.4l-3.3-2.2c-0.5-0.5-1.2-1-2-1.6c-0.5-0.3-0.9-0.5-1.1-0.5
			C100.8,72.7,100.4,72.6,100,72.6z"/>
	</g>
</g>
<g>
	<g>
		<path class="st4" d="M99.9,72.6l-0.2,0c-0.6,0.1-1.3,0.2-2,0.6c-0.3,0.1-0.8,0.3-1.4,0.6c-1.6,0.9-2.6,1.4-3,1.6
			c-0.5,0.2-0.9,0.4-1.1,0.4c-0.9,0.3-1.8,0.4-2.8,0.3l7.4,0.9h3.9c-0.2-0.2-0.2-0.5-0.2-1.1c0-0.3,0.1-0.7,0.3-1.2
			c0.1-0.3,0.1-0.5,0.1-0.7c0-0.1,0-0.1-0.1-0.2c-0.3-0.3-0.5-0.6-0.8-0.9C100,72.9,99.9,72.8,99.9,72.6L99.9,72.6z"/>
	</g>
</g>
<g>
	<g>
		<path class="st5" d="M94.5,75.2c-0.1,0-0.2,0-0.3,0c0,0-0.1,0-0.1,0c-0.1,0-0.3,0.1-0.6,0.2c0,0,0,0-0.1,0
			c-0.3,0.1-0.6,0.3-0.9,0.4C92.2,76,92,76.1,92,76.1c0,0,0,0,0,0c-0.2,0-0.4,0.1-0.6,0.1c-0.2,0-0.4,0.2-0.4,0.4s0.2,0.4,0.4,0.4
			c0.3,0,0.6,0,0.8-0.1c0,0,0,0,0,0c0.1,0,0.3-0.1,0.6-0.3c0,0,0,0,0,0c0.3-0.2,0.6-0.3,0.8-0.4c0.4-0.1,0.6-0.2,0.7-0.2
			c0,0,0,0,0.1,0c0.2,0,0.4-0.2,0.4-0.4S94.7,75.2,94.5,75.2z"/>
	</g>
</g>
<g>
	<g>
		<path class="st5" d="M95.4,76.3C95.4,76.3,95.4,76.3,95.4,76.3C95.4,76.3,95.4,76.3,95.4,76.3z"/>
	</g>
</g>
<g>
	<g>
		<path class="st5" d="M91.4,76.9L91.4,76.9L91.4,76.9L91.4,76.9l0,0.1h0L91.4,76.9L91.4,76.9L91.4,76.9z"/>
	</g>
</g>
<g>
	<g>
		<path class="st5" d="M91.8,76.5L91.8,76.5L91.8,76.5l-0.1,0l0,0l0,0l0,0l0,0l0,0l0,0l0,0l0,0l0,0l0-0.1l0-0.1l0-0.1l0,0l0,0l0.1,0
			l0.1,0L91.8,76.5L91.8,76.5 M96.7,76c-0.1,0-0.1,0-0.2,0l-0.3,0.1L96,76.2c-0.1,0-0.2,0-0.3,0c-0.1,0-0.1,0-0.2,0
			c-0.1,0-0.3,0.1-0.7,0.1c-0.1,0-0.2,0-0.3,0l-0.3,0c0,0-0.1,0-0.4,0h-1.4l-0.6,0h-1c-0.1,0-0.2,0.1-0.3,0.2c0,0.1-0.1,0.1-0.1,0.2
			c0,0.1,0,0.2,0,0.2h5.5l0.1,0c0.1,0,0.1,0,0.1,0l0.4-0.1l0.2-0.1h0.4c0,0,0.1,0,0.1,0c0.1,0,0.2-0.1,0.2-0.2
			c0.1-0.2,0.1-0.3,0-0.6C97.4,76,97.3,76,97.2,76l-0.1,0L96.7,76z"/>
	</g>
</g>
<g>
	<g>
		<path class="st5" d="M92.1,76.3L92.1,76.3L92.1,76.3l0.1,0l0,0l0,0c0.1,0,0.1,0.1,0.2,0.2l0,0l0,0l0,0l0,0l0,0l-0.1,0l0,0
			L92.1,76.3L92.1,76.3C92.1,76.3,92.1,76.3,92.1,76.3L92.1,76.3 M94.2,76.2L94.2,76.2C94.2,76.2,94.2,76.2,94.2,76.2
			c-0.2,0-0.2,0-0.2,0h-0.6c0,0-0.1,0-0.2,0c-0.1,0-0.5,0-1.2,0.1c-0.2,0-0.3,0-0.3,0c-0.3,0-0.5,0-0.5,0c-0.2,0-0.4,0-0.7,0
			c0,0,0,0-0.1,0c-0.1,0-0.2,0.1-0.3,0.1c0,0-0.1,0.1-0.1,0.2c0,0.1,0,0.3,0.1,0.3h2.1c0.1-0.1,0.1-0.3,0.1-0.4c0,0.1,0.1,0.2,0,0.3
			c0,0.1-0.1,0.2-0.1,0.2h1.7c0.1,0,0.2,0,0.2,0c0.1,0,0.1,0,0.1-0.1c0.1-0.1,0.2-0.2,0.2-0.3c0-0.1,0-0.2-0.1-0.3
			C94.5,76.2,94.3,76.2,94.2,76.2z"/>
	</g>
</g>
<g>
	<g>
		<path class="st5" d="M94.8,76.2c-0.2,0-0.3,0.1-0.4,0.3c0,0,0,0.1,0,0.1C94.4,76.3,94.5,76.2,94.8,76.2z"/>
	</g>
</g>
<g>
	<g>
		<path class="st5" d="M93.8,76.3c-0.2,0-0.3,0.2-0.3,0.3c0,0,0,0.1,0,0.1C93.4,76.4,93.5,76.3,93.8,76.3z"/>
		<path class="st5" d="M94.4,76.6L94.4,76.6L94.4,76.6l0,0.1c0,0,0,0.1,0.1,0.1l0.1,0.1l0,0l0,0l0,0l-0.1,0l0,0l0,0l0,0l0,0l0-0.1
			L94.4,76.6L94.4,76.6"/>
	</g>
</g>
<g>
	<g>
		<path class="st5" d="M90.5,76L90.5,76c-0.2,0-0.3,0.1-0.4,0.2c-0.1,0.1-0.1,0.3,0,0.4c0,0.1,0.1,0.1,0.1,0.1c0,0,0.1,0.1,0.1,0.1
			c0.2,0.1,0.3,0.2,0.5,0.2h3.3l0.2,0l0,0l0.1,0l0.3,0c0.1,0,0.1,0,0.1,0c0.1,0,0.2-0.1,0.2-0.1c0.1-0.1,0.1-0.3,0.1-0.5
			c0-0.1-0.1-0.2-0.3-0.2c0,0-0.1,0-0.1,0c-0.2,0-0.4,0-0.4,0c-0.1,0-0.1,0-0.2,0l-0.4,0.1l-0.1,0c-0.2,0-0.4,0-0.4,0l-0.6,0.1
			c0,0-0.1,0-0.2,0c-0.4,0-0.7,0-0.9,0l-0.4,0c-0.1,0-0.2,0-0.3-0.1c-0.1,0-0.2-0.1-0.4-0.2C90.6,76.1,90.6,76,90.5,76z M93.4,76.7
			L93.4,76.7l0,0.1l0,0l0,0.1l0,0.1c0,0,0,0,0,0l0,0L93.5,77l0,0l0,0l0,0L93.4,76.7L93.4,76.7L93.4,76.7"/>
	</g>
</g>
<g>
	<g>
		<path class="st5" d="M97,76.4L97,76.4C97,76.4,96.9,76.4,97,76.4c-0.4,0.1-0.7,0.1-1,0.2c-0.1,0-0.2,0-0.3,0l-0.3,0l-0.1,0H94
			c-0.1,0-0.2,0-0.3,0c-0.2,0-0.4,0-0.8-0.1c0,0-0.1,0-0.1,0c-0.1,0-0.2,0.1-0.3,0.2c-0.1,0.1-0.1,0.2-0.1,0.3h4.9
			c0.1-0.1,0.1-0.3,0-0.4C97.3,76.5,97.2,76.4,97,76.4z"/>
	</g>
</g>
<g>
	<g>
		<path class="st4" d="M87.2,70.1l-0.3,0c-0.5,0-1.1,0.2-1.9,0.5c-0.5,0.2-1.3,0.7-2.6,1.4C81,73,78.8,74.6,75.8,77l8,0.1h6.8
			l0.2-0.4c0-0.3,0-0.6-0.1-0.7c0,0-0.1-0.1-0.1-0.1c-0.9-0.4-1.5-0.6-1.8-0.8c-0.2-0.1-0.4-0.3-0.5-0.6c0-0.2,0-0.4,0.2-0.6
			l1.3-1.4l0.1-0.2l-0.1-0.1l-1.3-0.6c0,0-0.1-0.1-0.2-0.2c-0.3-0.3-0.5-0.7-0.6-1.3C87.6,70.2,87.4,70.1,87.2,70.1"/>
	</g>
</g>
<g>
	<g>
		<path class="st3" d="M90.6,53.2l0.6,0c0.8,0.1,1.7,0.3,2.6,0.6c0.7,0.2,2,0.8,4,1.9c2.2,1.2,6.1,4,11.7,8.2l-13.2,0.2H71.1
			c3-1.8,5.4-3.2,7-4.2c1.1-0.6,3.5-2.2,7.1-4.7c0.4-0.3,0.8-0.5,1.2-0.7c0.6-0.4,1.4-0.7,2.4-1C89.2,53.3,89.8,53.2,90.6,53.2z"/>
	</g>
</g>
<g>
	<g>
		<path class="st3" d="M69.3,57.1L69.3,57.1c0.9,0,2.1,0.2,3.7,0.8c0.7,0.3,1.5,0.6,2.4,1.1c2.7,1.4,4.3,2.2,4.9,2.5
			c0.8,0.4,1.5,0.6,1.9,0.7c1.4,0.4,2.9,0.6,4.5,0.4l-12.8,1.5H56.7l5.4-3.4c0.8-0.8,1.9-1.6,3.3-2.5c0.9-0.5,1.5-0.7,1.7-0.8
			C67.9,57.2,68.6,57.1,69.3,57.1z"/>
	</g>
</g>
<g>
	<g>
		<path class="st4" d="M69.5,57.1l0.3,0c1,0.1,2.1,0.4,3.4,0.9c0.5,0.2,1.3,0.5,2.3,1c2.6,1.4,4.3,2.2,4.9,2.5
			c0.8,0.4,1.4,0.6,1.8,0.7c1.5,0.5,3,0.7,4.7,0.5l-12.2,1.4h-6.4c0.3-0.3,0.3-0.8,0.2-1.7c-0.1-0.5-0.2-1.1-0.5-1.8
			c-0.1-0.5-0.1-0.9-0.1-1.1c0-0.1,0.1-0.2,0.1-0.3c0.5-0.5,0.9-0.9,1.3-1.4C69.3,57.6,69.4,57.3,69.5,57.1L69.5,57.1z"/>
	</g>
</g>
<g>
	<g>
		<path class="st5" d="M78.4,61.2c0.2,0,0.3,0,0.5,0.1c0.1,0,0.1,0,0.2,0.1c0.1,0.1,0.5,0.1,1.1,0.3c0,0,0.1,0,0.1,0
			c0.4,0.2,0.9,0.4,1.5,0.7c0.4,0.2,0.7,0.3,0.8,0.3c0,0,0,0,0,0c0.2,0.1,0.6,0.1,1,0.1c0.4,0,0.7,0.3,0.7,0.7
			c0,0.4-0.3,0.7-0.7,0.7c-0.6,0-1-0.1-1.4-0.1c0,0,0,0-0.1,0c-0.1,0-0.5-0.2-1-0.4c0,0,0,0,0,0c-0.5-0.3-1-0.5-1.4-0.6
			c-0.6-0.1-1-0.3-1.2-0.3c0,0-0.1,0-0.1,0c-0.4,0-0.7-0.3-0.7-0.7C77.8,61.5,78.1,61.2,78.4,61.2z"/>
	</g>
</g>
<path class="st5" d="M76.9,62.9C76.9,62.9,76.9,62.9,76.9,62.9C76.9,62.9,76.9,62.9,76.9,62.9z"/>
<g>
	<g>
		<path class="st5" d="M83.5,63.9L83.5,63.9L83.5,63.9l0,0.1l0,0h0L83.5,63.9L83.5,63.9L83.5,63.9z"/>
	</g>
</g>
<g>
	<g>
		<path class="st5" d="M82.9,63.2L82.9,63.2l0.2,0l0.1,0l0.1,0l0.1,0l0.1,0l0.1,0.1l0,0.1l0,0.1l0,0.1l0,0.1l0,0.1l0-0.1l0-0.1
			l0-0.1l-0.1-0.1l-0.1-0.1l-0.1-0.1l-0.1,0l-0.1,0L82.9,63.2 M74.7,62.4L74.7,62.4c0.1,0,0.2,0,0.3,0l0.5,0.2l0.5,0.1
			c0.1,0,0.3,0,0.5,0.1c0.1,0,0.2,0,0.3,0c0.1,0,0.5,0.1,1.2,0.2c0.2,0,0.4,0,0.5,0l0.5,0.1c0,0,0.2,0,0.6,0l2.3,0l1,0h1.7
			c0.2,0,0.4,0.1,0.5,0.3c0.1,0.1,0.1,0.2,0.1,0.3c0,0.2,0,0.3-0.1,0.3H76l-0.2,0c-0.1,0-0.2,0-0.2,0L75,63.9l-0.4-0.2H74
			c-0.1,0-0.1,0-0.2,0c-0.2,0-0.3-0.1-0.4-0.2c-0.2-0.2-0.2-0.5,0-0.9c0.1-0.1,0.3-0.2,0.4-0.2l0.1,0H74.7z"/>
	</g>
</g>
<g>
	<g>
		<path class="st5" d="M82.4,63L82.4,63l-0.2,0l-0.1,0l-0.1,0c-0.1,0.1-0.2,0.2-0.3,0.3l0,0l0-0.1l0.1-0.1l0,0l0.1,0l0.1,0l0.1,0
			l0.1,0l0.1,0L82.4,63C82.4,63,82.5,63,82.4,63L82.4,63 M78.9,62.7L78.9,62.7C78.9,62.7,78.9,62.7,78.9,62.7c0.3,0,0.4,0.1,0.4,0.1
			l0.1,0h0.8c0.1,0,0.1,0,0.3,0c0.2,0,0.8,0.1,1.9,0.2c0.3,0,0.4,0,0.5,0c0.5,0,0.8,0,0.9,0c0.3,0,0.7,0,1.1,0c0,0,0.1,0,0.1,0
			c0.2,0,0.3,0.1,0.4,0.2c0.1,0.1,0.1,0.2,0.2,0.3c0,0.2,0,0.4-0.2,0.6h-3.5c-0.2-0.2-0.2-0.4-0.1-0.7c-0.1,0.1-0.1,0.3-0.1,0.4
			c0.1,0.2,0.1,0.2,0.2,0.3h-2.8c-0.1,0-0.3,0-0.4-0.1c-0.1,0-0.2-0.1-0.2-0.1c-0.2-0.1-0.3-0.3-0.3-0.5c0-0.1,0-0.3,0.2-0.5
			C78.5,62.8,78.7,62.7,78.9,62.7z"/>
	</g>
</g>
<path class="st5" d="M77.9,62.7c0.3,0,0.6,0.2,0.6,0.5c0,0,0,0.1,0,0.1C78.6,62.9,78.3,62.7,77.9,62.7z"/>
<path class="st5" d="M79.6,62.8c0.3,0,0.5,0.2,0.6,0.5c0,0,0,0.1,0,0.1C80.2,63.1,80,62.9,79.6,62.8z"/>
<path class="st5" d="M78.6,63.4L78.6,63.4l0,0.1l0,0.1c0,0.1-0.1,0.1-0.1,0.2l0,0l-0.1,0l-0.1,0l-0.1,0l-0.1,0l0,0l0.1,0l0.1-0.1
	l0.1-0.1l0.1-0.1l0-0.1l0-0.1L78.6,63.4L78.6,63.4"/>
<g>
	<g>
		<path class="st5" d="M85,62.5L85,62.5c0.3,0.1,0.5,0.2,0.6,0.3c0.1,0.2,0.1,0.4,0,0.6c-0.1,0.1-0.1,0.2-0.2,0.2
			c-0.1,0-0.1,0.1-0.2,0.1c-0.3,0.1-0.6,0.2-0.8,0.3h-5.5L78.6,64l-0.1,0l-0.1,0l-0.5,0c-0.1,0-0.2,0-0.2,0c-0.2,0-0.3-0.1-0.3-0.2
			c-0.2-0.2-0.2-0.5-0.1-0.8c0.1-0.2,0.2-0.3,0.5-0.4c0.1,0,0.1,0,0.1,0c0.4,0,0.6,0,0.7,0c0.1,0,0.2,0,0.3,0l0.6,0.1l0.2,0
			c0.4,0,0.6,0,0.6,0l1,0.1c0.1,0,0.2,0,0.3,0c0.6,0,1.1,0,1.5,0l0.6-0.1c0.2,0,0.3-0.1,0.4-0.1c0.1,0,0.4-0.1,0.7-0.3
			C84.8,62.5,84.9,62.5,85,62.5z M80.2,63.6L80.2,63.6L80.2,63.6l0,0.2l0,0l0,0l-0.1,0.1l0,0C80,64,80,64,80,64l0,0l0.1,0l0-0.1
			l0-0.1l0-0.1l0-0.1l0-0.1L80.2,63.6L80.2,63.6"/>
	</g>
</g>
<g>
	<g>
		<path class="st5" d="M74.3,63.1L74.3,63.1c0,0,0.1,0,0.1,0c0.5,0.1,1,0.2,1.5,0.3c0.1,0,0.3,0,0.5,0.1l0.5,0.1l0.2,0h2.2
			c0.1,0,0.3,0,0.5,0c0.3,0,0.7-0.1,1.3-0.1c0.1,0,0.1,0,0.2,0c0.2,0,0.3,0.1,0.4,0.2c0.1,0.2,0.2,0.3,0.2,0.5h-8.2
			c-0.1-0.2-0.1-0.4,0-0.7C73.8,63.2,74,63.1,74.3,63.1z"/>
	</g>
</g>
<g>
	<g>
		<path class="st4" d="M90.6,53.2l0.6,0c0.8,0.1,1.8,0.3,3.1,0.8c0.8,0.3,2.2,1,4.2,2.2c2.3,1.4,5.9,4,10.9,7.7l-13.2,0.2H84.8
			l-0.4-0.6c0-0.5,0-0.9,0.1-1.1c0.1-0.1,0.1-0.1,0.2-0.2c1.5-0.6,2.5-1,2.9-1.2c0.4-0.2,0.6-0.5,0.8-1c0.1-0.3,0-0.7-0.2-1
			l-2.1-2.2l-0.2-0.3l0.1-0.1l2.1-0.9c0,0,0.2-0.1,0.3-0.2c0.5-0.5,0.8-1.1,1-2C89.9,53.2,90.2,53.2,90.6,53.2"/>
	</g>
</g>
</svg>
