<?xml version="1.0" encoding="utf-8"?>
<!-- Generator: Adobe Illustrator 26.1.0, SVG Export Plug-In . SVG Version: 6.00 Build 0)  -->
<svg version="1.1" id="Layer_1" xmlns="http://www.w3.org/2000/svg" xmlns:xlink="http://www.w3.org/1999/xlink" x="0px" y="0px"
	 viewBox="0 0 167 167" style="enable-background:new 0 0 167 167;" xml:space="preserve">
<style type="text/css">
	.st0{fill:#EDB856;}
	.st1{fill:#D6AD61;}
	.st2{fill:#AD915E;}
	.st3{fill:#A57E39;}
	.st4{fill:#C1984C;}
	.st5{fill:#DCAD52;}
	.st6{fill:#F3C56C;}
	.st7{fill:#F4C56D;}
</style>
<g>
	<g>
		<path class="st0" d="M83,131.5L1.9,84.7L83,37.9l81.1,46.8L83,131.5"/>
	</g>
</g>
<g>
	<g>
		<path class="st1" d="M83,131.4L1.9,84.6V91L83,137.8V131.4"/>
	</g>
</g>
<g>
	<g>
		<path class="st2" d="M164.1,84.6L83,131.4v6.3L164.1,91V84.6"/>
	</g>
</g>
<g>
	<g>
		<path class="st3" d="M101.5,57.8l-0.3,0c-0.4,0.1-1,0.3-1.6,0.6c-0.4,0.2-1.4,0.8-2.8,1.9c-1.5,1.1-5.1,4.3-10.9,9.4h37.8
			c-6.6-3.4-11.2-5.9-13.7-7.3c-1.7-0.9-4-2.4-7.1-4.3C102.5,57.9,102,57.8,101.5,57.8z"/>
	</g>
</g>
<g>
	<g>
		<path class="st4" d="M101,57.8l-0.2,0c-0.7,0.2-1.3,0.5-1.9,0.9c-1.1,0.7-2.1,1.5-3.1,2.3c-1.4,1.1-4.7,4-9.9,8.6h18.9l0-1.4
			c0-0.2-0.1-0.5-0.3-0.9c0-0.1-0.1-0.2-0.2-0.3l-0.9-0.8c-0.2-0.2-0.3-0.4-0.3-0.7l-0.2-1.3l0-2.8c0-0.2,0-0.4-0.1-0.5
			c-0.1-0.2-0.2-0.5-0.4-0.9C101.7,59.2,101.2,58.4,101,57.8z"/>
	</g>
</g>
<g>
	<g>
		<path class="st5" d="M89.9,60.3l-0.7,0c-1,0.1-2.1,0.3-3.3,0.8c-0.8,0.2-2.5,1-5,2.4c-2.8,1.6-7.7,5-14.7,10.4l16.7,0.2h31.7
			c-3.8-2.3-6.8-4.1-8.8-5.4c-1.4-0.8-4.4-2.8-8.9-6c-0.5-0.3-1-0.6-1.5-0.9c-0.8-0.5-1.8-0.9-3-1.3C91.6,60.4,90.9,60.3,89.9,60.3z
			"/>
	</g>
</g>
<g>
	<g>
		<path class="st5" d="M116.8,65.3h-0.1c-1.1,0-2.6,0.3-4.5,1c-0.9,0.4-1.9,0.8-3.1,1.4c-3.4,1.7-5.4,2.8-6.2,3.1
			c-1,0.5-1.8,0.8-2.4,0.9c-1.8,0.6-3.7,0.8-5.7,0.6l16.2,1.9h21.8l-6.8-4.3c-1-1-2.4-2-4.2-3.2c-1.1-0.6-1.8-0.9-2.2-1
			C118.5,65.4,117.6,65.3,116.8,65.3z"/>
	</g>
</g>
<g>
	<g>
		<path class="st6" d="M116.6,65.3l-0.4,0c-1.2,0.1-2.7,0.5-4.3,1.1c-0.6,0.3-1.6,0.7-2.9,1.3c-3.3,1.7-5.4,2.8-6.2,3.1
			c-1.1,0.5-1.8,0.8-2.2,0.9c-1.9,0.6-3.8,0.8-5.9,0.6l15.5,1.8h8.1c-0.3-0.4-0.4-1.1-0.3-2.1c0.1-0.7,0.3-1.4,0.6-2.3
			c0.1-0.6,0.1-1.1,0.1-1.4c0-0.1-0.1-0.3-0.1-0.3c-0.6-0.6-1.1-1.2-1.6-1.8C116.7,65.9,116.6,65.6,116.6,65.3L116.6,65.3z"/>
	</g>
</g>
<g>
	<g>
		<path class="st7" d="M105.2,70.4c-0.2,0-0.4,0-0.6,0.1c-0.1,0-0.2,0-0.2,0.1c-0.2,0.1-0.6,0.2-1.3,0.3c0,0-0.1,0-0.1,0
			c-0.5,0.2-1.2,0.5-1.9,0.9c-0.6,0.2-0.9,0.4-1,0.4c0,0,0,0,0,0c-0.3,0.1-0.7,0.1-1.3,0.1c-0.5,0-0.9,0.4-0.9,0.8s0.4,0.8,0.9,0.8
			c0.7,0,1.3-0.1,1.8-0.2c0,0,0.1,0,0.1,0c0.2-0.1,0.6-0.2,1.3-0.5c0,0,0,0,0.1,0c0.7-0.3,1.2-0.6,1.7-0.8c0.8-0.2,1.3-0.3,1.6-0.4
			c0,0,0.1,0,0.1,0c0.5,0,0.9-0.4,0.9-0.8S105.7,70.4,105.2,70.4z"/>
	</g>
</g>
<path class="st7" d="M107.2,72.6c0,0-0.1,0-0.1,0.1C107.1,72.6,107.2,72.6,107.2,72.6L107.2,72.6z"/>
<g>
	<g>
		<path class="st7" d="M98.9,73.9L98.9,73.9L98.9,73.9l0,0.2l0,0h0l0-0.1l0-0.1L98.9,73.9L98.9,73.9z"/>
	</g>
</g>
<g>
	<g>
		<path class="st7" d="M99.6,72.9L99.6,72.9l-0.2,0l-0.1,0l-0.1,0l-0.1,0.1l-0.1,0.1l-0.1,0.1L99,73.3l-0.1,0.1l0,0.1l0,0.1l0,0.1
			l0-0.1l0-0.1l0.1-0.1l0.1-0.1l0.1-0.1l0.1-0.1l0.1,0l0.1,0L99.6,72.9 M109.9,71.9L109.9,71.9c-0.2,0-0.3,0-0.3,0l-0.6,0.2
			l-0.6,0.2c-0.1,0-0.3,0-0.6,0.1c-0.1,0-0.2,0-0.4,0c-0.2,0.1-0.7,0.1-1.5,0.2c-0.2,0-0.4,0-0.6,0l-0.6,0.1c0,0-0.3,0-0.8,0l-2.9,0
			l-1.3,0h-2.1c-0.3,0-0.5,0.1-0.7,0.4c-0.1,0.1-0.1,0.3-0.1,0.4c0,0.2,0.1,0.3,0.1,0.4h11.4l0.2,0c0.1,0,0.2,0,0.2,0l0.9-0.2
			l0.5-0.2h0.8c0.1,0,0.2,0,0.2,0c0.2-0.1,0.4-0.2,0.5-0.3c0.3-0.3,0.3-0.7-0.1-1.1c-0.2-0.1-0.3-0.2-0.5-0.2l-0.1,0L109.9,71.9z"/>
	</g>
</g>
<g>
	<g>
		<path class="st7" d="M100.2,72.7L100.2,72.7l0.1,0l0.1,0l0.1,0l0.1,0c0.1,0.1,0.3,0.2,0.3,0.4l0-0.1l-0.1-0.1l-0.1-0.1l-0.1,0
			l-0.1,0l-0.1,0l-0.1-0.1l-0.1,0L100.2,72.7C100.2,72.7,100.1,72.7,100.2,72.7L100.2,72.7 M104.7,72.4L104.7,72.4c0,0-0.1,0-0.1,0
			c-0.2,0-0.3,0.1-0.4,0.1l-0.2,0h-1c-0.1,0-0.2,0-0.4,0c-0.2,0-1,0.1-2.4,0.2c-0.4,0-0.6,0-0.6,0c-0.6,0-1,0-1.1,0
			c-0.4,0-0.8,0-1.4,0c0,0-0.1,0-0.1,0c-0.2,0-0.4,0.1-0.6,0.3c-0.1,0.1-0.2,0.2-0.2,0.4c0,0.3,0,0.5,0.2,0.7h4.4
			c0.2-0.3,0.3-0.6,0.2-0.9c0.1,0.2,0.1,0.3,0.1,0.5c-0.1,0.2-0.2,0.3-0.2,0.3h3.6c0.2,0,0.3-0.1,0.5-0.1c0.1,0,0.2-0.1,0.3-0.1
			c0.2-0.2,0.3-0.3,0.3-0.6c0-0.1,0-0.3-0.2-0.6C105.2,72.5,105,72.4,104.7,72.4z"/>
	</g>
</g>
<path class="st7" d="M105.9,72.3c-0.4,0-0.7,0.3-0.8,0.6c0,0.1,0,0.1,0,0.2C105.1,72.6,105.4,72.4,105.9,72.3z"/>
<g>
	<g>
		<path class="st7" d="M103.7,72.5c-0.3,0.1-0.6,0.3-0.7,0.6c0,0,0,0.1,0,0.2C103,72.9,103.2,72.6,103.7,72.5z"/>
	</g>
</g>
<g>
	<g>
		<path class="st7" d="M105.1,73.2L105.1,73.2l0,0.2l0,0.1c0,0.1,0.1,0.2,0.1,0.2l0.1,0.1l0.1,0.1l0.1,0.1l0.1,0l0.1,0l0,0l-0.1-0.1
			l-0.1-0.1l-0.1-0.1l-0.1-0.1l-0.1-0.1l0-0.1l0-0.1L105.1,73.2"/>
	</g>
</g>
<g>
	<g>
		<path class="st7" d="M97,72.1L97,72.1c-0.4,0.1-0.6,0.2-0.8,0.4c-0.1,0.3-0.1,0.5,0,0.7c0.1,0.2,0.2,0.3,0.2,0.3
			c0.1,0.1,0.2,0.1,0.2,0.2c0.4,0.2,0.7,0.3,1,0.4h6.9l0.4-0.1l0.1,0l0.2,0l0.6,0c0.2,0,0.2,0,0.3,0c0.2,0,0.3-0.1,0.4-0.2
			c0.2-0.3,0.2-0.6,0.1-1c-0.1-0.2-0.3-0.4-0.6-0.5c-0.1,0-0.1,0-0.2,0c-0.5,0-0.8,0-0.8,0c-0.2,0-0.3,0-0.4,0l-0.8,0.1l-0.2,0
			c-0.5,0-0.7,0-0.8,0l-1.3,0.1c-0.1,0-0.2,0-0.3,0c-0.7,0-1.4,0-1.9,0l-0.8-0.1c-0.2,0-0.4-0.1-0.5-0.1c-0.2-0.1-0.5-0.2-0.9-0.4
			C97.2,72.1,97.1,72.1,97,72.1z M103,73.5l0,0.1l0,0.1l0,0.1l0,0.1l0,0.1l0,0.1l0,0c0,0,0.1,0.1,0.1,0.1l0,0l-0.1-0.1l-0.1-0.1
			l-0.1-0.1l0-0.1l0-0.1l0-0.1L103,73.5L103,73.5"/>
	</g>
</g>
<g>
	<g>
		<path class="st7" d="M110.5,72.9L110.5,72.9c0,0-0.1,0-0.1,0c-0.7,0.1-1.3,0.2-1.9,0.3c-0.2,0-0.4,0-0.6,0.1l-0.6,0.1l-0.2,0h-2.8
			c-0.1,0-0.4,0-0.7,0c-0.4,0-0.9-0.1-1.7-0.2c-0.1,0-0.1,0-0.2,0c-0.2,0-0.4,0.1-0.5,0.3c-0.2,0.2-0.2,0.4-0.2,0.6h10.3
			c0.2-0.3,0.2-0.5,0-0.8C111.1,73,110.9,72.9,110.5,72.9z"/>
	</g>
</g>
<g>
	<g>
		<path class="st6" d="M89.9,60.3l-0.7,0c-1,0.1-2.3,0.4-4,1c-1,0.4-2.8,1.3-5.3,2.8c-2.9,1.8-7.5,5-13.7,9.8l16.7,0.2h14.3l0.5-0.8
			c0.1-0.7,0-1.1-0.1-1.3c-0.1-0.1-0.2-0.2-0.3-0.2c-1.9-0.8-3.1-1.3-3.7-1.6c-0.5-0.2-0.8-0.7-0.9-1.3c-0.1-0.4,0-0.8,0.3-1.3
			l2.7-2.8l0.2-0.4l-0.2-0.1l-2.7-1.2c-0.1,0-0.2-0.1-0.4-0.3c-0.7-0.6-1.1-1.4-1.2-2.5C90.8,60.3,90.3,60.3,89.9,60.3"/>
	</g>
</g>
<g>
	<g>
		<path class="st3" d="M59.9,85.6l34.7,5.2l40.9,0.7l-16.9-15.2c-2.9-2.1-4.6-3.3-5.2-3.7c-2.3-1.6-4.7-3-7.2-4.1s-5-1.9-7.7-2.2
			c-2.7-0.3-5.3,0-7.9,0.7l-2.6,0.8c-1.7,0.6-3.5,1.4-5.3,2.3C79.2,71.7,71.6,76.8,59.9,85.6"/>
	</g>
</g>
<g>
	<g>
		<path class="st4" d="M96.3,66.3l-0.6,0c-1.4,0-3.4,0.3-5.9,1c-2,0.6-4.7,1.7-8.3,3.6c-2.4,1-9.6,5.9-21.5,14.8l34.7,5.2l30.3,0.5
			l-0.7-1.8c-1.4-1.6-2.9-3.3-4.3-5.1c-2.5-2.3-4.4-4.2-5.7-5.7c-1.9-2.9-3.3-5-4.3-6.5c-1.6-1.3-2.7-2.5-3-3.5
			c-1.6-0.8-3.1-1.3-4.7-1.8c-0.4-0.2-1.6-0.4-3.5-0.7C97.9,66.3,97.1,66.3,96.3,66.3z"/>
	</g>
</g>
<path class="st4" d="M128.6,86.6L128.6,86.6l0.1,0.1c0.3,0.3,0.5,0.5,0.7,0.7C129.1,87.1,128.9,86.8,128.6,86.6z"/>
<g>
	<g>
		<path class="st3" d="M64.2,57.8l-0.8,0.1c-1.2,0.2-2.7,0.8-4.4,1.8c-1.2,0.6-3.8,2.4-7.6,5.3c-4.2,3.2-14.2,12-30.1,26.6h104.4
			c-18.2-9.7-30.8-16.6-37.8-20.6c-4.6-2.6-11.2-6.7-19.7-12.1C67.1,58.2,65.8,57.8,64.2,57.8z"/>
	</g>
</g>
<g>
	<g>
		<path class="st4" d="M64.2,57.8l-0.8,0.1c-3.5,1.1-7.1,3-10.7,5.9c-10.4,8.7-20.9,17.9-31.5,27.7H104c-1.7-0.6-3.1-1.8-4.1-3.5
			c-2.7-1.4-4.2-2.3-4.7-2.8c-2.3-3-3.7-4.6-4.2-4.9l-1.5-2.6l-2.1-2.2l-2.4-1.3c-0.5-0.3-1.4-1-2.9-2.3c-1.6-1.5-2.6-2.8-3-4
			c-2.4-1.5-4.7-3-6.8-4.5c-3-2.4-5-4.2-6.1-5.4C65.3,57.9,64.7,57.8,64.2,57.8z"/>
	</g>
</g>
<g>
	<g>
		<path class="st5" d="M50.5,80.7l-0.7,0c-1,0.1-2.1,0.3-3.3,0.8c-0.8,0.2-2.5,1-5,2.4c-2.8,1.6-7.7,5-14.7,10.4l16.7,0.2h31.7
			c-3.8-2.3-6.8-4.1-8.8-5.4c-1.4-0.8-4.4-2.8-8.9-6c-0.5-0.3-1-0.6-1.5-0.9c-0.8-0.5-1.8-0.9-3-1.3C52.3,80.8,51.5,80.7,50.5,80.7z
			"/>
	</g>
</g>
<g>
	<g>
		<path class="st5" d="M77.4,85.7h-0.1c-1.1,0-2.6,0.3-4.5,1c-0.9,0.4-1.9,0.8-3.1,1.4c-3.4,1.7-5.4,2.8-6.2,3.1
			c-1,0.5-1.8,0.8-2.4,0.9c-1.8,0.6-3.7,0.8-5.7,0.6l16.2,1.9h21.8l-6.8-4.3c-1-1-2.4-2-4.2-3.2c-1.1-0.6-1.8-0.9-2.2-1
			C79.2,85.8,78.3,85.7,77.4,85.7z"/>
	</g>
</g>
<g>
	<g>
		<path class="st6" d="M77.2,85.7l-0.4,0c-1.2,0.1-2.7,0.5-4.3,1.1c-0.6,0.3-1.6,0.7-2.9,1.3c-3.3,1.7-5.4,2.8-6.2,3.1
			c-1.1,0.5-1.8,0.8-2.2,0.9c-1.9,0.6-3.8,0.8-5.9,0.6l15.5,1.8h8.1c-0.3-0.4-0.4-1.1-0.3-2.1c0.1-0.7,0.3-1.4,0.6-2.3
			c0.1-0.6,0.1-1.1,0.1-1.4c0-0.1-0.1-0.3-0.1-0.3c-0.6-0.6-1.2-1.2-1.6-1.8C77.4,86.3,77.3,85.9,77.2,85.7L77.2,85.7z"/>
	</g>
</g>
<g>
	<g>
		<path class="st7" d="M65.9,90.8c-0.2,0-0.4,0-0.6,0.1c-0.1,0-0.2,0-0.2,0.1c-0.2,0.1-0.6,0.2-1.3,0.3c-0.1,0-0.1,0-0.1,0
			c-0.5,0.2-1.2,0.5-1.9,0.9c-0.6,0.2-0.9,0.4-1,0.4c0,0,0,0,0,0c-0.3,0.1-0.7,0.1-1.3,0.1c0,0,0,0,0,0c-0.5,0-0.9,0.4-0.9,0.8
			s0.4,0.8,0.9,0.8c0,0,0,0,0,0c0.7,0,1.3-0.1,1.8-0.2c0,0,0.1,0,0.1,0c0.2-0.1,0.6-0.2,1.3-0.5c0,0,0,0,0,0
			c0.7-0.3,1.2-0.6,1.7-0.8c0.8-0.2,1.3-0.3,1.6-0.4c0,0,0.1,0,0.1,0c0.5,0,0.9-0.4,0.9-0.8S66.4,90.8,65.9,90.8z"/>
	</g>
</g>
<path class="st7" d="M67.8,92.9c0,0-0.1,0-0.1,0.1C67.8,93,67.8,93,67.8,92.9z"/>
<g>
	<g>
		<path class="st7" d="M59.5,94.3L59.5,94.3L59.5,94.3l0,0.2l0,0.1h0v0l0-0.1l0-0.1L59.5,94.3L59.5,94.3z"/>
	</g>
</g>
<g>
	<g>
		<path class="st7" d="M70.5,94L70.5,94L70.5,94L70.5,94L70.5,94C70.6,94,70.6,94,70.5,94L70.5,94C70.6,94,70.6,94,70.5,94L70.5,94
			L70.5,94C70.5,94,70.5,94,70.5,94"/>
	</g>
</g>
<g>
	<g>
		<path class="st7" d="M60.3,93.3L60.3,93.3l-0.2,0l-0.1,0l-0.1,0l-0.1,0.1l-0.1,0.1l-0.1,0.1l-0.1,0.1l0,0.1l0,0.1l0,0.1l0,0.1
			l0-0.2l0-0.1l0.1-0.1l0.1-0.1l0.1-0.1l0.1-0.1l0.1-0.1l0.1,0L60.3,93.3 M70.6,92.3L70.6,92.3c-0.2,0-0.3,0-0.3,0l-0.6,0.2L69,92.8
			c-0.1,0-0.3,0-0.6,0.1c-0.1,0-0.2,0-0.4,0c-0.2,0-0.7,0.1-1.5,0.2c-0.2,0-0.4,0-0.6,0l-0.6,0.1c0,0-0.3,0-0.8,0.1h-2.9l-1.3,0
			l-2.1,0c-0.3,0-0.5,0.1-0.7,0.4c-0.1,0.1-0.2,0.3-0.1,0.4c0,0.2,0.1,0.3,0.1,0.4h11.4l0.2,0c0.1,0,0.2,0,0.2,0l0.9-0.2l0.5-0.2
			h0.9c0.1,0,0.2,0,0.2,0c0.2-0.1,0.4-0.2,0.5-0.3c0.3-0.3,0.3-0.7-0.1-1.1c-0.2-0.2-0.3-0.2-0.5-0.2l-0.1,0H70.6z"/>
	</g>
</g>
<g>
	<g>
		<path class="st7" d="M60.8,93.1L60.8,93.1l0.1,0l0.1,0l0.1,0l0.1,0c0.1,0.1,0.3,0.2,0.3,0.4l0-0.1l0-0.1l-0.1-0.1l-0.1-0.1
			l-0.1-0.1l-0.1,0l-0.1,0l-0.1,0l-0.1,0L60.8,93.1C60.8,93.1,60.8,93.1,60.8,93.1L60.8,93.1 M65.3,92.8L65.3,92.8c0,0-0.1,0-0.1,0
			c-0.2,0-0.3,0.1-0.4,0.1h-1.2c-0.1,0-0.2,0-0.4,0c-0.2,0-1,0.1-2.4,0.2c-0.4,0-0.6,0-0.6,0c-0.7,0-1,0-1.1,0c-0.4,0-0.8,0-1.4,0
			c0,0-0.1,0-0.1,0c-0.2,0-0.4,0.1-0.6,0.3c-0.1,0.1-0.2,0.2-0.2,0.4c0,0.3,0,0.5,0.2,0.7h4.4c0.2-0.3,0.3-0.6,0.2-0.9
			c0.1,0.2,0.1,0.3,0.1,0.5c-0.1,0.2-0.2,0.3-0.2,0.3h3.6c0.2,0,0.3-0.1,0.5-0.1c0.1,0,0.2-0.1,0.3-0.1c0.2-0.2,0.3-0.4,0.3-0.6
			c0-0.1,0-0.3-0.2-0.6C65.8,92.9,65.6,92.8,65.3,92.8z"/>
	</g>
</g>
<g>
	<g>
		<path class="st7" d="M66.5,92.7c-0.4,0-0.7,0.3-0.8,0.6c0,0.1,0,0.1,0,0.2C65.7,93,66,92.8,66.5,92.7z"/>
	</g>
</g>
<g>
	<g>
		<path class="st7" d="M64.4,92.9c-0.3,0.1-0.6,0.3-0.7,0.6c0,0.1,0,0.1,0,0.2C63.6,93.2,63.9,93,64.4,92.9z"/>
	</g>
</g>
<g>
	<g>
		<path class="st7" d="M65.7,93.6L65.7,93.6l0,0.2l0,0.1c0,0.1,0.1,0.2,0.1,0.2l0.1,0.1l0.1,0.1l0.1,0.1l0.1,0l0.1,0l0,0l-0.1-0.1
			L66,94.2l-0.1-0.1l-0.1-0.1L65.8,94l0-0.1l0-0.1L65.7,93.6"/>
	</g>
</g>
<g>
	<g>
		<path class="st7" d="M57.6,92.5L57.6,92.5c-0.4,0.1-0.6,0.2-0.8,0.4c-0.1,0.3-0.1,0.5,0,0.7c0.1,0.2,0.2,0.3,0.2,0.3
			c0.1,0.1,0.2,0.1,0.2,0.2c0.4,0.2,0.7,0.3,1,0.4h6.9l0.4-0.1l0.1,0l0.2,0l0.6,0c0.2,0,0.2,0,0.3,0c0.2,0,0.3-0.1,0.4-0.2
			c0.2-0.3,0.2-0.6,0.1-0.9c-0.1-0.2-0.3-0.4-0.6-0.5c-0.1,0-0.1,0-0.2,0c-0.5,0-0.8,0-0.8,0c-0.2,0-0.3,0-0.4,0l-0.8,0.1l-0.2,0
			c-0.5,0-0.7,0-0.8,0l-1.3,0.1c-0.1,0-0.2,0-0.4,0c-0.7,0-1.4,0-1.9,0L59.4,93c-0.2,0-0.4-0.1-0.6-0.1c-0.2-0.1-0.5-0.2-0.9-0.4
			C57.8,92.5,57.7,92.5,57.6,92.5z M63.6,93.8L63.6,93.8l0,0.1l0,0.1l0,0.1l0,0.1l0,0.1l0,0.1l0,0l0,0.1c0,0,0.1,0.1,0.1,0.1l0,0
			l-0.1-0.1l-0.1-0.1l-0.1-0.1l0-0.1l0-0.1l0-0.1L63.6,93.8L63.6,93.8"/>
	</g>
</g>
<g>
	<g>
		<path class="st7" d="M71.1,93.3L71.1,93.3c0,0-0.1,0-0.1,0c-0.7,0.1-1.3,0.3-1.9,0.3c-0.2,0-0.4,0-0.6,0.1l-0.6,0.1l-0.2,0h-2.8
			c-0.1,0-0.3,0-0.7,0c-0.4,0-0.9-0.1-1.7-0.2c-0.1,0-0.1,0-0.2,0c-0.2,0-0.4,0.1-0.5,0.3c-0.2,0.2-0.2,0.4-0.2,0.6h10.3
			c0.2-0.3,0.2-0.5,0-0.8C71.8,93.4,71.5,93.3,71.1,93.3z"/>
	</g>
</g>
<g>
	<g>
		<path class="st6" d="M50.5,80.7l-0.7,0c-1,0.1-2.3,0.4-4,1c-1,0.4-2.8,1.3-5.3,2.8c-2.9,1.8-7.5,5-13.7,9.8l16.7,0.2h14.3l0.5-0.8
			c0.1-0.7,0-1.1-0.1-1.4c-0.1-0.1-0.2-0.1-0.3-0.2c-1.9-0.8-3.1-1.3-3.7-1.6c-0.5-0.2-0.8-0.7-0.9-1.3c-0.1-0.4,0-0.8,0.3-1.3
			l2.7-2.8l0.2-0.4l-0.2-0.1l-2.7-1.2c-0.1,0-0.2-0.1-0.4-0.3c-0.7-0.6-1.1-1.4-1.2-2.5C51.4,80.7,51,80.7,50.5,80.7"/>
	</g>
</g>
</svg>
