<?xml version="1.0" encoding="utf-8"?>
<!-- Generator: Adobe Illustrator 26.1.0, SVG Export Plug-In . SVG Version: 6.00 Build 0)  -->
<svg version="1.1" id="Layer_1" xmlns="http://www.w3.org/2000/svg" xmlns:xlink="http://www.w3.org/1999/xlink" x="0px" y="0px"
	 viewBox="0 0 167 167" style="enable-background:new 0 0 167 167;" xml:space="preserve">
<style type="text/css">
	.st0{fill:#D8B060;}
	.st1{fill:#FED17B;}
</style>
<g>
	<g>
		<path class="st0" d="M75.2,62.1l-0.1,0c-2.1,0-3.8,0.3-5.1,0.9c-0.6,0.2-2.1,1.2-4.5,3c-1.7,1.7-5.3,6.2-10.9,13.6
			c-0.7,0.8-3,3.2-6.9,7.2c-4,3.8-10.7,9.5-20.1,16.9h128.3l-33.4-17.8c-13.7-8.8-23-14.5-27.8-16.9c-5.2-2.6-9-4.4-11.5-5.3
			C79.7,62.6,77,62,75.2,62.1z"/>
	</g>
</g>
<g>
	<g>
		<path class="st0" d="M74.3,62.3l-1,0.1c-2.2,0.1-4.5,0.6-6.9,1.4c-7,2.5-11.2,4.2-12.4,5.1c-2.9,2.3-7.2,6.4-12.8,12.2
			c-1.5,0.9-4.2,2.1-8.1,3.5c-1.8,1-2.9,1.7-3.4,2.1c-1,0.8-1.8,1.7-2.6,2.5c-2.6,4-4.1,6.2-4.6,6.6c-1.7,1.7-4.7,4-9,7
			c-0.3,0.3-0.5,0.6-0.5,0.9h32l23.4-1.6L74.3,62.3z"/>
	</g>
</g>
<g>
	<g>
		<path class="st0" d="M15.9,101.5l-1.2,0.1c-0.8,0.1-1.5,0.3-2.2,0.6c-0.6,0.2-1.4,0.6-2.6,1.4h30L15.9,101.5z"/>
	</g>
</g>
<g>
	<g>
		<path class="st1" d="M75.5,62.1h-0.1c-1.9,0-3.7,0.3-5.3,0.9c-0.9,0.5-2.4,1.5-4.5,3c-0.8,0.6-4.5,5.2-11.2,14
			c-0.9,1-3.1,3.3-6.6,6.9c-1.8,1.7-4.1,3.8-6.9,6.2c-1.8,1.6-6.2,5.2-13.2,10.7h45.6c0.2-1.1,0.7-2.5,1.5-4.2
			c4.1-6.3,6.2-10.2,6.4-11.5l0.1-5.5l-2.1-6.3c-0.2-1.1-0.2-2-0.2-2.7c0.1-1.4,0.2-2.4,0.5-3.1c0.6-1.4,1.4-3.7,2.4-7.1
			C78.6,62.4,76.5,62,75.5,62.1"/>
	</g>
</g>
<g>
	<g>
		<path class="st1" d="M74.3,62.3l-1,0.1c-2.4,0.2-4.5,0.6-6.2,1.1l-2.2,2.2l-6.1,7.9c-1.1,1-4,2.8-8.7,5.3l-6.2,6L36.4,90
			l-10.6,13.7h19.1l23.4-1.6L74.3,62.3z"/>
	</g>
</g>
<g>
	<g>
		<path class="st1" d="M26.7,102.5l-0.5,0.6l-0.5,0.6H40L26.7,102.5z"/>
	</g>
</g>
</svg>
