<?xml version="1.0" encoding="utf-8"?>
<!-- Generator: Adobe Illustrator 26.1.0, SVG Export Plug-In . SVG Version: 6.00 Build 0)  -->
<svg version="1.1" id="Layer_1" xmlns="http://www.w3.org/2000/svg" xmlns:xlink="http://www.w3.org/1999/xlink" x="0px" y="0px"
	 viewBox="0 0 167 167" style="enable-background:new 0 0 167 167;" xml:space="preserve">
<style type="text/css">
	.st0{fill:#DCAD52;}
	.st1{fill:#F4C56D;}
</style>
<g>
	<g>
		<path class="st0" d="M60.9,70.4l-1.7,0.1c-2.3,0.2-4.8,0.8-7.6,1.8c-1.9,0.5-5.8,2.4-11.5,5.8c-6.4,3.7-17.7,11.9-33.8,24.5
			l38.4,0.6h72.8c-8.8-5.4-15.6-9.6-20.3-12.6c-3.2-1.9-10-6.7-20.5-14.2c-1.2-0.8-2.4-1.5-3.5-2.2c-1.9-1.1-4.2-2.1-6.9-3
			C64.9,70.7,63.1,70.4,60.9,70.4z"/>
	</g>
</g>
<g>
	<g>
		<path class="st0" d="M122.7,82.1l-0.3,0c-2.5-0.1-5.9,0.7-10.4,2.4c-2,0.8-4.4,1.9-7.1,3.3c-7.7,4.1-12.5,6.6-14.2,7.4
			c-2.4,1.1-4.2,1.8-5.6,2.2c-4,1.4-8.4,1.8-13.2,1.3l37.2,4.4h50.2l-15.7-10.2c-2.4-2.3-5.6-4.7-9.7-7.4c-2.6-1.4-4.2-2.2-5.1-2.4
			C126.7,82.4,124.6,82.1,122.7,82.1z"/>
	</g>
</g>
<g>
	<g>
		<path class="st1" d="M60.6,70.4l-0.8,0c-5.1,0.9-8.4,1.7-9.9,2.4c-0.2,0-4.2,2.2-12.1,6.6c-9,6.1-19.5,13.8-31.5,23.2l38.4,0.6
			h72.8L99.1,91.8l-1.4,0.5c-0.9,1.5-2.3,2.8-4.3,4.1c-0.7,0.5-1.6,1-2.6,1.4c-1.6,0.4-3,0.3-4.3-0.2c-1.7,0.3-2.6,0.4-2.7,0.3
			c-1-0.1-2.1-0.4-3.1-1.1c-2.8-1.9-5.2-4.2-7.4-7c-0.4-0.3-1.8-3.4-4.4-9.3l-2-2.3l-3.2-5.8c-0.7-0.5-1.1-1-1.4-1.4l-1.1-0.6
			L60.6,70.4z"/>
	</g>
</g>
<g>
	<g>
		<path class="st1" d="M122.2,82.1l-1.1,0.1c-3.8,0.5-8.3,1.9-13.4,4.2l-3.2,1.6c-1.3,1.3-2.7,2.4-4.1,3.3c-1.3,0.5-2.2,0.9-2.7,1
			c-0.8,1.1-1.7,2.1-2.6,3L92.5,97c-0.5,0.3-1,0.5-1.6,0.8c-1.7,0.4-3.1,0.4-4.5-0.2c-1,0.3-2,0.4-3,0.3l-3.5,0.8l-1.2,0.1
			c-1.8,0.1-3.8,0.2-5.8,0l36.4,4.3H142l-2.3-6l-2.1-3.2l-1.4-1.2c-1.3-0.4-2.6-1.3-4.1-2.5c-1.6-1.5-2.8-3-3.6-4.4l-4.9-3.8
			L122.2,82.1z"/>
	</g>
</g>
</svg>
