<?xml version="1.0" encoding="utf-8"?>
<!-- Generator: Adobe Illustrator 26.1.0, SVG Export Plug-In . SVG Version: 6.00 Build 0)  -->
<svg version="1.1" id="Layer_1" xmlns="http://www.w3.org/2000/svg" xmlns:xlink="http://www.w3.org/1999/xlink" x="0px" y="0px"
	 viewBox="0 0 167 167" style="enable-background:new 0 0 167 167;" xml:space="preserve">
<style type="text/css">
	.st0{fill:#D9D9D9;}
	.st1{fill:#A6A6A6;}
	.st2{fill:#737373;}
	.st3{fill:#545454;}
	.st4{fill:#3B3A3A;}
</style>
<g>
	<g>
		<path class="st0" d="M134.9,134.9H31.1V31.1h103.8V134.9"/>
	</g>
</g>
<g>
	<g>
		<path class="st1" d="M41.6,41.6H31.1V31.1h10.5V41.6"/>
	</g>
</g>
<g>
	<g>
		<path class="st2" d="M54.9,41.6H44.4V31.1h10.5V41.6"/>
	</g>
</g>
<g>
	<g>
		<path class="st3" d="M68.2,41.6H57.8V31.1h10.5V41.6"/>
	</g>
</g>
<g>
	<g>
		<path class="st4" d="M81.6,41.6H71.1V31.1h10.5V41.6"/>
	</g>
</g>
<g>
	<g>
		<path class="st4" d="M94.9,41.6H84.4V31.1h10.5V41.6"/>
	</g>
</g>
<g>
	<g>
		<path class="st3" d="M108.2,41.6H97.8V31.1h10.5V41.6"/>
	</g>
</g>
<g>
	<g>
		<path class="st2" d="M121.6,41.6h-10.5V31.1h10.5V41.6"/>
	</g>
</g>
<g>
	<g>
		<path class="st1" d="M134.9,41.6h-10.5V31.1h10.5V41.6"/>
	</g>
</g>
<g>
	<g>
		<path class="st2" d="M41.6,54.9H31.1V44.4h10.5V54.9"/>
	</g>
</g>
<path class="st2" d="M54.9,54.9H44.4V44.4h10.5V54.9"/>
<path class="st2" d="M68.2,54.9H57.8V44.4h10.5V54.9"/>
<path class="st2" d="M81.6,54.9H71.1V44.4h10.5V54.9"/>
<path class="st2" d="M94.9,54.9H84.4V44.4h10.5V54.9"/>
<path class="st2" d="M108.2,54.9H97.8V44.4h10.5V54.9"/>
<path class="st2" d="M121.6,54.9h-10.5V44.4h10.5V54.9"/>
<g>
	<g>
		<path class="st2" d="M134.9,54.9h-10.5V44.4h10.5V54.9"/>
	</g>
</g>
<g>
	<g>
		<path class="st3" d="M41.6,68.2H31.1V57.8h10.5V68.2"/>
	</g>
</g>
<path class="st3" d="M54.9,68.2H44.4V57.8h10.5V68.2"/>
<path class="st3" d="M68.2,68.2H57.8V57.8h10.5V68.2"/>
<path class="st3" d="M81.6,68.2H71.1V57.8h10.5V68.2"/>
<path class="st3" d="M94.9,68.2H84.4V57.8h10.5V68.2"/>
<path class="st3" d="M108.2,68.2H97.8V57.8h10.5V68.2"/>
<path class="st3" d="M121.6,68.2h-10.5V57.8h10.5V68.2"/>
<g>
	<g>
		<path class="st3" d="M134.9,68.2h-10.5V57.8h10.5V68.2"/>
	</g>
</g>
<g>
	<g>
		<path class="st4" d="M41.6,81.6H31.1V71.1h10.5V81.6"/>
	</g>
</g>
<path class="st2" d="M54.9,81.6H44.4V71.1h10.5V81.6"/>
<path class="st3" d="M68.2,81.6H57.8V71.1h10.5V81.6"/>
<path class="st4" d="M81.6,81.6H71.1V71.1h10.5V81.6"/>
<path class="st4" d="M94.9,81.6H84.4V71.1h10.5V81.6"/>
<path class="st3" d="M108.2,81.6H97.8V71.1h10.5V81.6"/>
<path class="st2" d="M121.6,81.6h-10.5V71.1h10.5V81.6"/>
<g>
	<g>
		<path class="st4" d="M134.9,81.6h-10.5V71.1h10.5V81.6"/>
	</g>
</g>
<g>
	<g>
		<path class="st4" d="M41.6,94.9H31.1V84.4h10.5V94.9"/>
	</g>
</g>
<path class="st2" d="M54.9,94.9H44.4V84.4h10.5V94.9"/>
<path class="st3" d="M68.2,94.9H57.8V84.4h10.5V94.9"/>
<path class="st4" d="M81.6,94.9H71.1V84.4h10.5V94.9"/>
<path class="st4" d="M94.9,94.9H84.4V84.4h10.5V94.9"/>
<path class="st3" d="M108.2,94.9H97.8V84.4h10.5V94.9"/>
<path class="st2" d="M121.6,94.9h-10.5V84.4h10.5V94.9"/>
<g>
	<g>
		<path class="st4" d="M134.9,94.9h-10.5V84.4h10.5V94.9"/>
	</g>
</g>
<g>
	<g>
		<path class="st3" d="M41.6,108.2H31.1V97.8h10.5V108.2"/>
	</g>
</g>
<path class="st3" d="M54.9,108.2H44.4V97.8h10.5V108.2"/>
<path class="st3" d="M68.2,108.2H57.8V97.8h10.5V108.2"/>
<path class="st3" d="M81.6,108.2H71.1V97.8h10.5V108.2"/>
<path class="st3" d="M94.9,108.2H84.4V97.8h10.5V108.2"/>
<path class="st3" d="M108.2,108.2H97.8V97.8h10.5V108.2"/>
<path class="st3" d="M121.6,108.2h-10.5V97.8h10.5V108.2"/>
<g>
	<g>
		<path class="st3" d="M134.9,108.2h-10.5V97.8h10.5V108.2"/>
	</g>
</g>
<g>
	<g>
		<path class="st2" d="M41.6,121.6H31.1v-10.5h10.5V121.6"/>
	</g>
</g>
<path class="st2" d="M54.9,121.6H44.4v-10.5h10.5V121.6"/>
<path class="st2" d="M68.2,121.6H57.8v-10.5h10.5V121.6"/>
<path class="st2" d="M81.6,121.6H71.1v-10.5h10.5V121.6"/>
<path class="st2" d="M94.9,121.6H84.4v-10.5h10.5V121.6"/>
<path class="st2" d="M108.2,121.6H97.8v-10.5h10.5V121.6"/>
<path class="st2" d="M121.6,121.6h-10.5v-10.5h10.5V121.6"/>
<g>
	<g>
		<path class="st2" d="M134.9,121.6h-10.5v-10.5h10.5V121.6"/>
	</g>
</g>
<g>
	<g>
		<path class="st1" d="M41.6,134.9H31.1v-10.5h10.5V134.9"/>
	</g>
</g>
<g>
	<g>
		<path class="st2" d="M54.9,134.9H44.4v-10.5h10.5V134.9"/>
	</g>
</g>
<g>
	<g>
		<path class="st3" d="M68.2,134.9H57.8v-10.5h10.5V134.9"/>
	</g>
</g>
<g>
	<g>
		<path class="st4" d="M81.6,134.9H71.1v-10.5h10.5V134.9"/>
	</g>
</g>
<g>
	<g>
		<path class="st4" d="M94.9,134.9H84.4v-10.5h10.5V134.9"/>
	</g>
</g>
<g>
	<g>
		<path class="st3" d="M108.2,134.9H97.8v-10.5h10.5V134.9"/>
	</g>
</g>
<g>
	<g>
		<path class="st2" d="M121.6,134.9h-10.5v-10.5h10.5V134.9"/>
	</g>
</g>
<g>
	<g>
		<path class="st1" d="M134.9,134.9h-10.5v-10.5h10.5V134.9"/>
	</g>
</g>
</svg>
