<?xml version="1.0" encoding="utf-8"?>
<!-- Generator: Adobe Illustrator 26.1.0, SVG Export Plug-In . SVG Version: 6.00 Build 0)  -->
<svg version="1.1" id="Layer_1" xmlns="http://www.w3.org/2000/svg" xmlns:xlink="http://www.w3.org/1999/xlink" x="0px" y="0px"
	 viewBox="0 0 167 167" style="enable-background:new 0 0 167 167;" xml:space="preserve">
<style type="text/css">
	.st0{fill:#D4C898;}
	.st1{fill:#331C0B;}
</style>
<g>
	<g>
		<path class="st0" d="M137.7,133.8H21.6v-94h116.2V133.8"/>
		<path class="st1" d="M134.1,115.7l-15.7,15.7L115,128l19.1-19.1l3.3,3.3L134.1,115.7z M95.7,108.7l3.3-3.3l19.1,19.1l-3.3,3.3
			L95.7,108.7z M79.7,131.4l-3.3-3.3L95.4,109l3.3,3.3L79.7,131.4z M56.9,108.7l3.3-3.3l19.1,19.1l-3.3,3.3L56.9,108.7z M56.6,115.7
			l-15.7,15.7l-3.3-3.3L56.7,109l3.3,3.3L56.6,115.7z M37.6,120.8l19.1-19.1l3.3,3.3l-19.1,19.1L37.6,120.8z M37.6,113.6l19.1-19.1
			l3.3,3.3l-19.1,19.1L37.6,113.6z M37.6,106.4l19.1-19.1l3.3,3.3l-19.1,19.1L37.6,106.4z M37.6,99.1L56.7,80l3.3,3.3l-19.1,19.1
			L37.6,99.1z M37.6,91.9l19.1-19.1l3.3,3.3L40.9,95.2L37.6,91.9z M37.6,84.7l19.1-19.1l3.3,3.3L40.9,88L37.6,84.7z M37.6,77.4
			l19.1-19.1l3.3,3.3L40.9,80.8L37.6,77.4z M37.6,70.2l19.1-19.1l3.3,3.3L40.9,73.6L37.6,70.2z M37.6,63l19.1-19.1l3.3,3.3
			L40.9,66.3L37.6,63z M60.3,40.3l19.1,19.1L76,62.7L56.9,43.6L60.3,40.3z M95.4,43.9l3.3,3.3L79.7,66.3L76.3,63L95.4,43.9z
			 M99,40.3l19.1,19.1l-3.3,3.3L95.7,43.6L99,40.3z M134.1,43.9l3.3,3.3l-19.1,19.1L115,63L134.1,43.9z M137.5,54.5l-19.1,19.1
			l-3.3-3.3l19.1-19.1L137.5,54.5z M137.5,61.7l-19.1,19.1l-3.3-3.3l19.1-19.1L137.5,61.7z M137.5,68.9L118.4,88l-3.3-3.3l19.1-19.1
			L137.5,68.9z M137.5,76.2l-19.1,19.1l-3.3-3.3l19.1-19.1L137.5,76.2z M137.5,83.4l-19.1,19.1l-3.3-3.3L134.1,80L137.5,83.4z
			 M137.5,90.6l-19.1,19.1l-3.3-3.3l19.1-19.1L137.5,90.6z M137.5,97.9l-19.1,19.1l-3.3-3.3l19.1-19.1L137.5,97.9z M95.7,101.5
			l3.3-3.3l0,0l19.1,19.1l-3.3,3.3L95.7,101.5z M79.7,117.4l15.7-15.7l3.3,3.3l-19.1,19.1l-3.3-3.3L79.7,117.4z M79.4,117.2
			l-3.3,3.3l-19.1-19.1l3.3-3.3L79.4,117.2z M79.4,110l-3.3,3.3L56.9,94.2l3.3-3.3L79.4,110z M79.4,102.7l-3.3,3.3L56.9,87l3.3-3.3
			L79.4,102.7z M79.4,95.5L76,98.9L56.9,79.8l3.3-3.3L79.4,95.5z M79.4,88.3L76,91.6L56.9,72.6l3.3-3.3L79.4,88.3z M79.4,81.1
			L76,84.4L56.9,65.3l3.3-3.3L79.4,81.1z M79.4,73.8L76,77.2L56.9,58.1l3.3-3.3L79.4,73.8z M76,69.9L56.9,50.9l3.3-3.3l19.1,19.1
			L76,69.9z M98.7,54.5L79.7,73.6l-3.3-3.3l19.1-19.1L98.7,54.5z M107,62.2L95.7,50.9l3.3-3.3l19.1,19.1l-3.3,3.3L107,62.2z
			 M95.7,58.1l3.3-3.3l19.1,19.1l-3.3,3.3L95.7,58.1z M95.7,65.3L99,62l19.1,19.1l-3.3,3.3L95.7,65.3z M95.7,72.6l3.3-3.3l19.1,19.1
			l-3.3,3.3L95.7,72.6z M95.7,79.8l3.3-3.3l19.1,19.1l-3.3,3.3L95.7,79.8z M95.7,87l3.3-3.3l19.1,19.1l-3.3,3.3L95.7,87z M95.7,94.2
			l3.3-3.3l19.1,19.1l-3.3,3.3L95.7,94.2z M95.4,94.5l3.3,3.3l-19.1,19.1l-3.3-3.3L95.4,94.5z M95.4,87.3l3.3,3.3l-19.1,19.1
			l-3.3-3.3L95.4,87.3z M95.4,80l3.3,3.3l-19.1,19.1l-3.3-3.3L95.4,80z M95.4,72.8l3.3,3.3L79.7,95.2l-3.3-3.3L95.4,72.8z
			 M79.7,80.8l-3.3-3.3l19.1-19.1l3.3,3.3L79.7,80.8z M79.7,81.3l15.7-15.7l3.3,3.3L79.7,88l-3.3-3.3L79.7,81.3z M137.5,105.1
			l-19.1,19.1l-3.3-3.3l19.1-19.1L137.5,105.1z M137.3,133.8h0.4v-0.1l-3.4-3.4l3.3-3.3l0,0v-0.5l-3.4-3.4l3.3-3.3l0,0v-0.5
			l-3.4-3.4l3.3-3.3l0,0v-0.5l-3.4-3.4l3.3-3.3l0,0v-0.5l-3.4-3.4l3.3-3.3l0,0v-0.5l-3.4-3.4l3.3-3.3l0,0v-0.5l-3.4-3.4l3.3-3.3l0,0
			v-0.5l-3.4-3.4l3.3-3.3l0,0v-0.5l-3.4-3.4l3.3-3.3l0,0v-0.5l-3.4-3.4l3.3-3.3l0,0v-0.5l-3.4-3.4l3.3-3.3l0,0v-0.5l-3.4-3.4
			l3.3-3.3l0,0V47l-3.4-3.4l3.3-3.3l0,0v-0.5h-0.5l0.2,0.2l-19.1,19.1l-3.3-3.3l15.9-15.9h-0.5l-12,12l-3.3-3.3l8.7-8.7h-0.5
			l-4.8,4.8l-3.3-3.3l1.4-1.4h-0.6l-1.2,1.2l-1.2-1.2H113l5.1,5.1l-3.3,3.3l-8.4-8.4h-0.5l12.3,12.3l-3.3,3.3L99.1,39.9h-0.5
			l0.2,0.2L79.7,59.1l-3.3-3.3l15.9-15.9h-0.5l-12,12l-3.3-3.3l8.7-8.7h-0.5l-4.8,4.8l-3.3-3.3l1.4-1.4h-0.6L76,41l-1.2-1.2h-0.5
			l5.1,5.1L76,48.3l-8.4-8.4h-0.5l12.3,12.3L76,55.5L60.4,39.9h-0.5L60,40L40.9,59.1l-3.3-3.3l15.9-15.9h-0.5l-12,12l-3.3-3.3
			l8.7-8.7h-0.5l-4.8,4.8l-3.3-3.3l1.4-1.4h-0.6L37.3,41l-1.2-1.2h-0.5l5.1,5.1l-3.3,3.3l-8.4-8.4h-0.5l12.3,12.3l-3.3,3.3
			L21.6,39.9h-0.1v0.5l19.1,19.1l-3.3,3.3L21.6,47v0.5l19.1,19.1l-3.3,3.3L21.6,54.2v0.5l19.1,19.1l-3.3,3.3L21.8,61.7l-0.2-0.2V62
			l19.1,19.1l-3.3,3.3L21.6,68.7v0.5l19.1,19.1l-3.3,3.3L21.6,75.9v0.5l19.1,19.1l-3.3,3.3L21.6,83.2v0.5l19.1,19.1l-3.3,3.3
			L21.6,90.4v0.5L40.6,110l-3.3,3.3L21.8,97.8l-0.2-0.2v0.5l19.1,19.1l-3.3,3.3l-15.7-15.7v0.5l19.1,19.1l-3.3,3.3l-15.7-15.7v0.5
			l19.1,19.1l-2.2,2.2H39l17.6-17.6l3.3,3.3l-14.3,14.3h0.5l10.4-10.4l3.3,3.3l-7.1,7.1h0.5l3.2-3.2l3.2,3.2h0.5l-3.4-3.4l3.3-3.3
			l6.8,6.8h0.5l-10.7-10.7l3.3-3.3l14,14h0.5l-17.9-17.9l3.3-3.3l19.1,19.1l-2.2,2.2h0.6l17.6-17.6l3.3,3.3l-14.3,14.3H85l10.4-10.4
			l3.3,3.3l-7.1,7.1h0.5l3.2-3.2l3.2,3.2h0.5l-3.5-3.4L99,127l6.8,6.8h0.5l-10.7-10.7l3.3-3.3l14,14h0.5l-17.9-17.9l3.3-3.3
			l19.1,19.1l-2.2,2.2h0.6l17.6-17.6l3.3,3.3l-14.3,14.3h0.5l10.4-10.4l3.3,3.3l-7.1,7.1h0.5l3.2-3.2L137.3,133.8"/>
	</g>
</g>
<g>
	<g>
		<path class="st1" d="M28.3,133.8h0.5l-7.3-7.3v0.5L28.3,133.8"/>
	</g>
</g>
<g>
	<g>
		<path class="st1" d="M35.6,133.8h0.5l-14.5-14.5v0.5L35.6,133.8"/>
	</g>
</g>
</svg>
