<?xml version="1.0" encoding="utf-8"?>
<!-- Generator: Adobe Illustrator 26.1.0, SVG Export Plug-In . SVG Version: 6.00 Build 0)  -->
<svg version="1.1" id="Layer_1" xmlns="http://www.w3.org/2000/svg" xmlns:xlink="http://www.w3.org/1999/xlink" x="0px" y="0px"
	 viewBox="0 0 167 167" style="enable-background:new 0 0 167 167;" xml:space="preserve">
<style type="text/css">
	.st0{fill:#DADADA;}
	.st1{fill:#B4BBC2;}
	.st2{fill:#828B92;}
	.st3{fill:#878787;}
	.st4{fill:#646E89;}
</style>
<g>
	<g>
		<path class="st0" d="M47.7,42.8h66.4v66.4H47.7V42.8z"/>
	</g>
</g>
<g>
	<g>
		<path class="st1" d="M49.5,53.5c0.7-0.2,1.6-0.2,2.4-0.3c1.4,0,2.8,0,3.9-1c1.1-0.9,1.4-2.4,1.5-3.8c0.1-0.9,0.1-1.8-0.1-2.8
			c-0.2-0.8-0.6-1.4-1-2c-0.2-0.3-0.4-0.6-0.6-0.9h-7.9v11.4c0.3-0.1,0.6-0.2,0.9-0.4C48.9,53.8,49.2,53.6,49.5,53.5"/>
	</g>
</g>
<g>
	<g>
		<path class="st2" d="M58.5,50.2c0.5,0.7,1.5,0.2,2.3,0.2c0.6,0,1.1,0.4,1.6,0.8c2.2,1.3,5,1.3,7.5,1.2c0.5,0,0.9,0,1.3-0.3
			c0.3-0.2,0.5-0.7,0.6-1c0.7-1.8,0.9-2.4,1.2-3.3c0.5-1.3,0.9-2.6,1-3.9c0-0.3,0-0.6-0.1-0.9H58.6c-0.1,2.1-0.2,4.3-0.2,6.4
			C58.3,49.6,58.3,49.9,58.5,50.2"/>
	</g>
</g>
<g>
	<g>
		<path class="st2" d="M77.8,50.3c0.4,0.3,0.9,0.4,1.3,0.4c0.7,0.1,1.5,0.1,2.2,0.1l0.4,0c0.4,0,0.9-0.1,1.3,0
			c0.2,0,0.4,0.1,0.7,0.2c0.2,0.1,0.3,0.1,0.5,0.2c0.4,0.1,0.8,0.2,1.3,0.2c1.9,0,3.8-1.3,4.4-3c0.3-0.9,0.3-1.8,0.4-2.7l0.1-2.7
			c0-0.1,0-0.2,0-0.3H77L76.7,47C76.7,47.8,76.6,49.5,77.8,50.3"/>
	</g>
</g>
<g>
	<g>
		<path class="st3" d="M92.2,44.6c0.1,0.8,0.2,1.5,0.2,2.2c0,0.2,0,0.4-0.1,0.6c0,0.5-0.1,0.9,0,1.4c0.1,1,0.7,1.7,1.4,2
			c0.2,0.1,0.4,0.1,0.6,0.1c0.2,0,0.5,0,0.7-0.1c0.2,0,0.4,0,0.5,0c0.2,0,0.3,0.1,0.4,0.1c0.1,0.1,0.2,0.2,0.2,0.3
			c0,0.1,0.1,0.2,0.2,0.2c0.6,0.8,1.5,1.2,2.6,1.2c0.6,0,1.2-0.1,1.7-0.4c0.2-0.1,0.4-0.2,0.5-0.3c1-0.5,1.9-0.9,2.9-0.5
			c0.5,0.2,1,0.2,1.4-0.1c0.3-0.3,0.4-0.6,0.4-0.8c0.4-2.5,0.5-5,0.3-7.5c0-0.1,0-0.2,0-0.2H92.1c0,0.2,0,0.4,0,0.6
			C92.1,43.8,92.2,44.2,92.2,44.6"/>
	</g>
</g>
<path class="st4" d="M73.2,56.4c-0.2-0.6-0.6-2.2-2-2.4c-0.2,0-0.4,0-0.7,0c-0.1,0-0.3,0-0.4,0c-0.1,0-0.3-0.1-0.5-0.2
	c-0.1,0-0.2-0.1-0.3-0.1c-0.9-0.3-2-0.1-3,0.1c-0.9,0.2-1.8,0.4-2.5,0.1c-0.1-0.1-0.2-0.1-0.4-0.2c-0.4-0.2-0.8-0.5-1.4-0.4
	c-0.6,0.1-1.1,0.5-1.4,1.3c-0.8,1.8-1,3.8-1.2,5.6l-0.2,1.9c-0.1,0.6-0.1,1.3,0.3,1.9c0.5,0.6,1.4,0.8,2.3,0.6
	c0.2,0,0.4-0.1,0.6-0.2c0.4-0.1,0.7-0.2,1.1-0.2h0c0.4,0,0.8,0.2,1.3,0.4c0.2,0.1,0.4,0.2,0.6,0.3c0.7,0.2,1.4,0.4,2.2,0.4
	c1,0,2-0.2,3.1-0.4c0.1,0,0.3-0.1,0.5-0.2c0.3-0.2,0.5-0.5,0.6-0.8c0.2-0.4,0.3-0.8,0.5-1.2c0.5-1,1-2,1.1-3.2
	C73.8,58.6,73.4,57.4,73.2,56.4"/>
<path class="st1" d="M88.3,54.1c-0.1-0.5-0.4-1.5-1.2-1.9c-0.2-0.1-0.5-0.2-0.8-0.2c-0.5,0-0.9,0.2-1.4,0.3
	c-0.2,0.1-0.4,0.2-0.6,0.2c-0.5,0.1-1.1,0.1-1.8,0.1l-3.1-0.2c-0.3,0-0.7,0-1,0c-0.9,0-2.3,0.1-3.2,1.1L75,53.7l0.6,5.3
	c0.1,1.1,0.2,2.1,0.5,3.2c0.1,0.3,0.2,0.7,0.4,1c0.5,0.7,1.5,0.8,2.5,0.5c0.2-0.1,0.3-0.1,0.5-0.2c0.5-0.2,0.9-0.3,1.3-0.3
	c0.3,0,0.5,0.2,0.8,0.3c0.1,0.1,0.2,0.1,0.3,0.2c1.1,0.5,2.4,0.6,3.5,0.8c0.2,0,0.4,0,0.6,0c0.7,0,1.3-0.2,1.6-0.6
	c0.4-0.5,0.4-1.2,0.4-1.8c0-0.2,0-0.5,0-0.6c0-0.3,0.2-0.7,0.3-1.1c0.1-0.2,0.2-0.4,0.2-0.6C89.3,57.9,88.7,55.8,88.3,54.1"/>
<path class="st1" d="M105.5,54c-0.6-0.5-1.4-0.6-2-0.6c-0.2,0-0.4,0-0.6,0c-0.4,0-0.7,0-1.1,0c-0.3,0-0.6-0.1-0.9-0.2
	c-0.2,0-0.4-0.1-0.6-0.1c-1.2-0.2-2.5-0.1-4.1,0.3c-1.1,0.3-2.2,0.7-3.2,1.2l-0.1,0l-0.1,0.1c-0.6,0.7-0.8,1.7-0.7,3
	c0,0.4,0.1,0.8,0.2,1.2c0.1,0.5,0.2,1,0.2,1.4c0,0.6,0,1.1-0.1,1.7c-0.1,0.8-0.2,1.6,0,2.4l0,0.3l0.3,0.1c1.4,0.5,2.9,0.6,4.4,0.3
	l0.3-0.1c0.3-0.1,0.6-0.1,0.9-0.1h0c0.3,0,0.6,0.1,0.9,0.2l0.2,0.1c0.8,0.3,1.7,0.4,2.5,0.4c1.1,0,2.1-0.2,3-0.6
	c0.3-0.1,0.7-0.3,0.9-0.6c0.4-0.4,0.4-1,0.4-1.4l0.2-5.9C106.4,56.4,106.5,54.9,105.5,54"/>
<g>
	<g>
		<path class="st1" d="M108.9,42.8L108.9,42.8c0,0.2,0.1,0.4,0.1,0.5c0,0.3-0.2,0.6-0.4,0.9c-0.1,0.1-0.2,0.3-0.2,0.4
			c-0.8,1.5-0.6,3.4-0.4,4.8l0,0.2c0.1,0.4,0.1,1,0.4,1.4c0.8,1.5,2.1,2.4,2.5,2.6c0.1,0.1,0.2,0.1,0.4,0.2c0.3,0.2,0.8,0.5,1.2,0.6
			c0.2,0,0.3,0,0.5,0c0.4,0,0.8-0.1,1.2-0.2V42.8H108.9"/>
	</g>
</g>
<g>
	<g>
		<path class="st1" d="M53.8,107.6c-0.1,0-0.2-0.1-0.3-0.1c-0.2-0.1-0.3-0.1-0.4-0.2c-0.1-0.1-0.2-0.2-0.3-0.3
			c-0.2-0.2-0.4-0.4-0.8-0.5c-0.5-0.2-1.1,0-1.6,0.2c-0.1,0-0.2,0.1-0.2,0.1c-0.7,0.3-1.6,0.3-2.5,0.2v2.2h7.9
			C55.2,108.5,54.6,107.9,53.8,107.6"/>
	</g>
</g>
<path class="st2" d="M70.5,106.9c-1.7-0.1-3.3-0.3-4.5,0.1c-0.8,0.2-1.5,0.3-2.3,0.2c-0.9-0.1-1.7-0.5-2.6-0.7
	c-0.9-0.2-1.9,0.1-2.3,0.9c-0.2,0.3-0.2,0.7-0.2,1.1c0,0.2,0,0.5,0,0.8H74c-0.1-0.5-0.2-0.9-0.5-1.3C72.8,107.1,71.6,107,70.5,106.9
	"/>
<path class="st2" d="M89.9,107.5c-0.6-1.1-2-1.3-3.2-1.4l-1.3-0.1c-1-0.1-2-0.1-3.1-0.1h-0.2c-0.9,0-1.8,0.1-2.8,0.2
	c-0.6,0.1-1.3,0.2-1.7,0.7c-0.5,0.5-0.5,1.2-0.6,1.7l-0.1,0.7h13.2C90.2,108.7,90.2,108,89.9,107.5"/>
<path class="st3" d="M102.7,106.1l-2.2-0.3c-1.2-0.2-2.5-0.4-3.8-0.3c-1.2,0-2.4,0.3-3.6,0.6l-0.2,0l-0.1,0.2
	c-0.6,0.8-0.8,1.8-0.8,3h14.1c-0.1-0.6-0.2-1.3-0.6-1.9C104.9,106.5,103.8,106.2,102.7,106.1"/>
<g>
	<g>
		<path class="st1" d="M114.1,107c-0.4,0-0.7-0.1-1.1-0.2c-0.3-0.1-0.6-0.1-0.9-0.1c-0.2,0-0.5-0.1-0.9-0.1c-0.4,0-0.7,0-1,0.1
			c-0.8,0.2-1.3,0.9-1.4,1.5c0,0.3,0,0.6,0.1,0.9h5.2V107"/>
	</g>
</g>
<g>
	<g>
		<path class="st2" d="M48.8,67.3c0.8,0,1.5-0.4,2.2-0.8c0.6-0.3,1.1-0.6,1.6-0.6c0.3,0,0.7,0,1.1,0.1c0.2,0,0.5,0.1,0.7,0.1
			c0.9,0.1,1.7-0.2,2.2-0.8c0.3-0.4,0.4-0.8,0.5-1.3c0.2-1.4,0.4-2.9,0.4-4.4c0-0.8,0-1.7-0.4-2.6c-0.5-1-1.5-1.6-2.4-1.4
			c-0.2,0-0.3,0.1-0.5,0.1s-0.3,0.1-0.4,0.1c-0.2,0-0.4-0.2-0.7-0.4c-0.2-0.2-0.5-0.3-0.8-0.5c-0.4-0.2-0.9-0.2-1.4-0.1l-3.1,0.2
			v12.1C48,67.2,48.3,67.3,48.8,67.3L48.8,67.3"/>
	</g>
</g>
<g>
	<g>
		<path class="st2" d="M113.8,55.1c-2,0.1-4.2,0.5-5.1,2.3c-0.4,0.8-0.4,1.8-0.4,2.6l0,3c0,0.8,0,1.6,0.3,2.4
			c0.3,0.8,1.1,1.5,2.1,1.5l0.1,0c0.2,0,0.5-0.1,0.7-0.1c0.1,0,0.2-0.1,0.3-0.1c0.5-0.1,1,0.1,1.6,0.3c0.2,0.1,0.4,0.1,0.7,0.2V55.1
			L113.8,55.1"/>
	</g>
</g>
<g>
	<g>
		<path class="st3" d="M50.3,79.9c0.4,0.2,0.9,0.3,1.4,0.4c0.1,0,0.2,0,0.3,0c0.4,0,0.8-0.1,1.2-0.2l2.3-0.5c0.2,0,0.4-0.1,0.7-0.3
			c0.3-0.2,0.4-0.6,0.4-0.8c0.1-0.5,0.1-1,0.1-1.4c0-0.6,0-1.1,0.1-1.6c0.1-0.3,0.2-0.5,0.3-0.8c0.1-0.4,0.3-0.8,0.4-1.3
			c0.3-1.8-1-3.4-2.3-4.2c-1.4-0.8-3.1-1-4.6-1.1c-0.3,0-0.7,0-1,0c-0.6,0-1.2,0-1.7-0.1v11.3c0.9,0,1.6,0.1,2.2,0.4
			C50,79.8,50.2,79.8,50.3,79.9"/>
	</g>
</g>
<g>
	<g>
		<path class="st3" d="M112.5,67.8l-0.2,0c-0.4-0.1-0.8-0.2-1.2-0.2c-0.4,0-0.8,0.1-1.1,0.3c-0.8,0.5-0.9,1.4-1,2.1
			c-0.4,3.1-0.4,5.9,0.1,8.3l0,0.1c0,0.2,0.1,0.6,0.4,0.8c0.3,0.3,0.6,0.3,1,0.3c0.5,0,1,0,1.5-0.1c0.6,0,1.1-0.1,1.6-0.1
			c0.1,0,0.3,0,0.4,0V68.1C113.6,68,113,68,112.5,67.8"/>
	</g>
</g>
<path class="st3" d="M72.6,69.1c0-0.5-0.1-1-0.5-1.5c-0.6-0.8-1.5-0.9-2.3-0.9c-0.4,0-0.8-0.1-1.1-0.2c-0.2-0.1-0.3-0.1-0.5-0.2
	c-0.2-0.1-0.5-0.2-0.8-0.3c-0.5-0.1-1.1-0.1-1.6,0l-6,0.7l0,0.4c-0.2,3.5-0.2,7,0,10.4c0,0.2,0,0.6,0.3,0.8c0.3,0.3,0.6,0.3,0.8,0.3
	c0.1,0,0.1,0,0.2,0c0.5,0,1-0.1,1.5-0.2c0.8-0.1,1.6-0.2,2.4-0.1c0.4,0,0.8,0.1,1.3,0.2c0.5,0.1,1,0.2,1.5,0.3c0.1,0,0.3,0,0.4,0
	c1.1,0,2.2-0.3,3.2-0.6c0.2-0.1,0.5-0.2,0.8-0.4c0.2-0.3,0.3-0.6,0.3-0.8C72.8,74.5,72.9,71.8,72.6,69.1"/>
<path class="st2" d="M88.7,72.2l-0.4-4.5c0-0.2,0-0.6-0.2-0.9c-0.3-0.4-0.7-0.5-1-0.6l-2.7-0.9c-0.3-0.1-0.7-0.2-1.1-0.2
	c-0.4,0.1-0.7,0.2-1,0.4c-0.1,0-0.2,0.1-0.2,0.1c-0.4,0.2-0.9,0.3-1.6,0.3c-0.4,0-0.8,0-1.3-0.1c-0.6-0.1-1.2-0.1-1.7-0.1
	c-0.2,0-0.8,0-1.1,0.5c-0.2,0.3-0.2,0.6-0.2,0.9c0,1-0.1,2-0.3,3c-0.1,0.5-0.1,1-0.2,1.5c-0.2,2,0,3.6,0.7,4.8
	c0.1,0.2,0.3,0.4,0.5,0.6c0.2,0.2,0.5,0.3,0.8,0.3c2.1,0.5,4.4,0.8,6.6,0.8c0.4,0,0.7,0,1.1,0c0.5,0,1-0.1,1.4-0.3
	c0.9-0.5,1-1.5,1.1-2.4c0.1-0.5,0.1-1,0.3-1.3c0-0.1,0.1-0.2,0.1-0.2c0.1-0.2,0.2-0.3,0.3-0.6C88.7,73,88.7,72.6,88.7,72.2"/>
<path class="st4" d="M105.9,69.3c0-0.7-0.1-1.4-0.7-1.8c-0.4-0.3-0.8-0.5-1.2-0.5c-1.1-0.2-2.2-0.2-3.2,0c-0.1,0-0.2,0.1-0.3,0.1
	c-0.3,0.1-0.6,0.1-0.9,0.1c-0.6,0-1.1-0.2-1.7-0.5c-0.6-0.3-1.3-0.6-2-0.6c-0.2,0-0.4,0-0.6,0.1c-1.2,0.3-1.9,1.4-2.2,2.3
	c-0.3,1-0.2,2-0.1,3l0.4,4.9c0,0.4,0.1,0.9,0.4,1.3c0.5,0.7,1.4,0.8,1.9,0.8l4.8,0.5c0.3,0,0.8,0.1,1.2,0.1c0.5,0,0.9-0.1,1.3-0.2
	c2-0.7,3-2.8,2.9-4.5c0-0.7,0.1-1.4,0.2-2.2C105.9,71.2,106,70.3,105.9,69.3"/>
<g>
	<g>
		<path class="st4" d="M113.1,95c-0.3,0-0.7,0-1.1-0.1c-0.2,0-0.5-0.1-0.7-0.1c-0.1,0-0.2,0-0.3,0c-0.8,0-1.5,0.3-1.9,0.8
			c-0.3,0.4-0.4,0.8-0.5,1.3c-0.3,1.4-0.4,2.9-0.4,4.4c0,0.8,0,1.7,0.4,2.6c0.5,1,1.5,1.6,2.4,1.4c0.2,0,0.3-0.1,0.5-0.1
			c0.2,0,0.3-0.1,0.4-0.1c0.2,0,0.4,0.2,0.7,0.4c0.2,0.2,0.5,0.3,0.8,0.5c0.2,0.1,0.4,0.1,0.6,0.1V94.7
			C113.8,94.9,113.4,95,113.1,95"/>
	</g>
</g>
<path class="st1" d="M106,94.2c-0.3-0.5-0.9-0.7-1.6-0.7c-0.3,0-0.5,0-0.8,0.1l-0.5,0.2c-0.4,0.2-0.8,0.3-1,0.3
	c-0.5-0.3-1-0.5-1.5-0.6c-0.2-0.1-0.5-0.1-0.7-0.2c-0.7-0.2-1.4-0.4-2.2-0.4c-1,0-2,0.2-3.1,0.4c-0.1,0-0.3,0.1-0.5,0.2
	c-0.3,0.2-0.5,0.5-0.5,0.8c-0.2,0.4-0.3,0.8-0.5,1.2c-0.5,1-0.9,2-1.1,3.2c-0.1,1.2,0.2,2.3,0.5,3.3c0.2,0.5,0.6,2.2,2,2.4
	c0.2,0,0.4,0,0.7,0c0.1,0,0.3,0,0.4,0c0.1,0,0.3,0.1,0.5,0.1c0.1,0,0.2,0.1,0.3,0.1c0.9,0.3,2,0.1,3-0.1c0.9-0.2,1.8-0.4,2.5-0.1
	c0.1,0.1,0.2,0.1,0.4,0.2c0.3,0.2,0.7,0.4,1.2,0.4c0.1,0,0.1,0,0.2,0c0.6-0.1,1.1-0.5,1.4-1.3c0.8-1.8,1-3.8,1.2-5.6l0.2-1.9
	C106.4,95.5,106.5,94.8,106,94.2"/>
<path class="st3" d="M90.1,98.4c-0.1-1.1-0.2-2.2-0.5-3.2c-0.1-0.4-0.2-0.7-0.4-1c-0.5-0.6-1.5-0.8-2.6-0.5
	c-0.2,0.1-0.3,0.1-0.5,0.2c-0.5,0.2-0.9,0.3-1.3,0.3c-0.3,0-0.5-0.2-0.8-0.3c-0.1-0.1-0.2-0.1-0.3-0.2c-1.1-0.5-2.4-0.6-3.5-0.8
	c-0.2,0-0.4,0-0.6,0c-0.7,0-1.3,0.2-1.6,0.6c-0.4,0.5-0.4,1.2-0.4,1.8c0,0.2,0,0.4,0,0.6c0,0.3-0.2,0.7-0.3,1.1
	c-0.1,0.2-0.2,0.4-0.2,0.6c-0.7,1.9-0.1,4,0.3,5.7c0.1,0.5,0.4,1.5,1.2,1.9c0.2,0.1,0.5,0.2,0.8,0.2c0.5,0,0.9-0.2,1.4-0.3
	c0.2-0.1,0.4-0.2,0.6-0.2c0.5-0.1,1.1-0.1,1.8-0.1l3.1,0.2c0.3,0,0.7,0,1,0c0.9,0,2.3-0.1,3.2-1.1l0.2-0.2L90.1,98.4"/>
<path class="st1" d="M73.7,100.8c0-0.4-0.1-0.8-0.2-1.2c-0.1-0.5-0.2-1-0.2-1.4c0-0.6,0-1.1,0.1-1.7c0.1-0.8,0.2-1.6,0-2.4l0-0.3
	L73,93.5c-1.4-0.5-2.9-0.6-4.4-0.3l-0.3,0.1c-0.3,0.1-0.6,0.1-0.9,0.1c-0.3,0-0.6-0.1-0.9-0.2l-0.2-0.1c-1.8-0.6-3.8-0.5-5.6,0.2
	c-0.3,0.1-0.7,0.3-0.9,0.6c-0.4,0.4-0.4,1-0.4,1.4l-0.2,5.9c0,0.8-0.1,2.3,0.9,3.2c0.7,0.6,1.7,0.7,2.3,0.7c0.4,0,0.9,0,1.3-0.1
	l0.2,0c0.2,0,0.5,0.1,0.9,0.2c0.2,0,0.3,0.1,0.5,0.1c0.4,0.1,0.8,0.2,1.3,0.2c1,0,1.9-0.2,2.8-0.5c1.1-0.3,2.2-0.7,3.2-1.2l0.1,0
	l0.1-0.1C73.5,103,73.8,102,73.7,100.8"/>
<g>
	<g>
		<path class="st1" d="M114.1,80.6c-0.5,0-1,0.1-1.4,0.1l-2.3,0.5c-0.2,0-0.4,0.1-0.6,0.3c-0.3,0.2-0.4,0.6-0.4,0.8
			c-0.1,0.5-0.1,1-0.1,1.4c0,0.6,0,1.1-0.1,1.6c-0.1,0.3-0.2,0.5-0.3,0.8c-0.1,0.4-0.3,0.8-0.4,1.3c-0.3,1.8,1,3.4,2.3,4.2
			c1.1,0.6,2.3,0.9,3.4,1L114.1,80.6C114.1,80.6,114.1,80.6,114.1,80.6"/>
	</g>
</g>
<g>
	<g>
		<path class="st4" d="M48.5,106l3.4-0.2c2-0.1,4.2-0.5,5.1-2.3c0.4-0.8,0.4-1.8,0.4-2.6l0-3c0-0.8,0-1.6-0.3-2.4
			C56.7,94.8,56,94,55,94l-0.1,0c-0.2,0-0.5,0.1-0.7,0.1c-0.1,0-0.2,0.1-0.3,0.1c-0.5,0.1-1-0.1-1.6-0.3c-0.5-0.2-1.1-0.3-1.7-0.3
			c-0.8,0-1.5,0.4-2.2,0.8c-0.2,0.1-0.4,0.2-0.6,0.3V106c0.1,0,0.2,0,0.3,0C48.2,106.1,48.3,106.1,48.5,106"/>
	</g>
</g>
<g>
	<g>
		<path class="st1" d="M49.9,92.8c1.2,0,2.3,0,3.3,0.3l0.2,0c0.4,0.1,0.8,0.2,1.2,0.2s0.8-0.1,1.1-0.3c0.7-0.5,0.9-1.3,1-2.1
			c0.3-2.7,0.3-5.5-0.1-8.2c0-0.2-0.1-0.6-0.4-0.9c-0.3-0.3-0.6-0.3-1-0.3c-0.5,0-1,0-1.5,0.1c-0.6,0-1.1,0.1-1.6,0.1
			c-1.1,0-1.9-0.1-2.6-0.4c-0.1-0.1-0.3-0.1-0.4-0.2c-0.4-0.2-0.8-0.3-1.3-0.4v12c0.4,0,0.8,0.1,1.2,0.1
			C49.2,92.8,49.6,92.8,49.9,92.8"/>
	</g>
</g>
<path class="st2" d="M105.9,80.8c0-0.2,0-0.6-0.3-0.8c-0.3-0.3-0.6-0.3-0.8-0.3c0,0-0.1,0-0.2,0c-0.5,0-1,0.1-1.5,0.2
	c-0.8,0.1-1.6,0.2-2.4,0.1c-0.4,0-0.9-0.1-1.3-0.2c-0.5-0.1-1-0.2-1.5-0.3c-1.3-0.1-2.5,0.2-3.7,0.6c-0.2,0.1-0.5,0.2-0.7,0.4
	c-0.2,0.2-0.3,0.6-0.3,0.8c-0.4,2.6-0.5,5.3-0.2,8c0,0.5,0.1,1,0.5,1.5c0.6,0.8,1.5,0.9,2.3,0.9c0.4,0,0.8,0.1,1.1,0.2
	c0.2,0.1,0.3,0.1,0.5,0.2c0.2,0.1,0.5,0.2,0.8,0.3c0.2,0.1,0.5,0.1,0.8,0.1c0.3,0,0.6,0,0.9-0.1l6-0.7l0-0.4
	C106.1,87.7,106.1,84.2,105.9,80.8"/>
<path class="st1" d="M89.3,80.7c-0.1-0.2-0.2-0.4-0.5-0.6c-0.3-0.2-0.6-0.3-0.8-0.3c-2.5-0.6-5.1-0.9-7.6-0.8c-0.5,0-1,0.1-1.4,0.3
	c-0.9,0.5-1,1.5-1.1,2.4c-0.1,0.5-0.1,1-0.3,1.3c0,0.1-0.1,0.2-0.1,0.2c-0.1,0.2-0.2,0.3-0.3,0.6c-0.2,0.5-0.1,0.9-0.1,1.3l0.4,4.5
	c0,0.2,0,0.6,0.2,0.9c0.3,0.4,0.7,0.6,1,0.6l2.7,0.9c0.3,0.1,0.6,0.2,0.9,0.2c0.1,0,0.1,0,0.2,0c0.4-0.1,0.7-0.2,1-0.4
	c0.1,0,0.2-0.1,0.2-0.1c0.4-0.2,0.9-0.3,1.6-0.3c0.4,0,0.8,0,1.3,0.1c0.6,0,1.2,0.1,1.7,0.1c0.2,0,0.8,0,1.1-0.5
	c0.2-0.3,0.2-0.6,0.2-0.9c-0.1-1.7,0.1-3.2,0.4-4.4C90.3,84.5,90.3,82.5,89.3,80.7"/>
<path class="st2" d="M72.9,87L72.5,82c0-0.4-0.1-0.9-0.4-1.3c-0.5-0.7-1.4-0.8-1.9-0.8l-4.8-0.5c-0.3,0-0.8-0.1-1.2-0.1
	c-0.5,0-0.9,0.1-1.3,0.2c-1.5,0.5-2.5,2-2.9,4.4c-0.3,1.7-0.4,3.4-0.3,5c0,0.7,0.1,1.4,0.7,1.8c0.4,0.3,0.8,0.5,1.2,0.5
	c0.5,0.1,1.1,0.2,1.7,0.2c0.5,0,1.1-0.1,1.6-0.2c0.1,0,0.2,0,0.3-0.1c0.3-0.1,0.6-0.1,0.9-0.1c0.6,0,1.1,0.2,1.7,0.5
	c0.7,0.3,1.3,0.6,2.1,0.6c0.2,0,0.4,0,0.6-0.1c1-0.2,1.9-1.1,2.2-2.3C73,88.9,73,87.9,72.9,87"/>
</svg>
