<?xml version="1.0" encoding="UTF-8"?><svg id="a" xmlns="http://www.w3.org/2000/svg" viewBox="0 0 47 47"><defs><style>.c{fill:#d1f8fd;fill-rule:evenodd;}.d{fill:#b97a48;}.e{fill:#7a523f;}</style></defs><path class="d" d="M43.45,43.26l-40.07-.15L3.05,3.09l40.07,.15,.32,40.03"/><path class="d" d="M3.17,20.52l9.54,22.74-7.48-.06-1.95-9.62-.12-13.07h0Z"/><rect class="e" x="7.3" y="2.52" width="2.96" height="41.63"/><rect class="e" x="13.07" y="2.3" width="2.96" height="41.63"/><rect class="e" x="19.07" y="3.3" width="2.96" height="41.63"/><rect class="e" x="25.07" y="2.3" width="2.96" height="41.63"/><rect class="e" x="31.07" y="3.3" width="2.96" height="41.63"/><rect class="e" x="37.07" y="3.3" width="2.96" height="41.63"/><g id="b"><path class="c" d="M1.5,5.99C.6,5.41,0,4.4,0,3.25,0,1.46,1.46,0,3.25,0c1.15,0,2.16,.6,2.74,1.5H41.01c.58-.9,1.59-1.5,2.74-1.5,1.79,0,3.25,1.46,3.25,3.25,0,1.15-.6,2.16-1.5,2.74V41.01c.9,.58,1.5,1.59,1.5,2.74,0,1.79-1.46,3.25-3.25,3.25-1.15,0-2.16-.6-2.74-1.5H5.99c-.58,.9-1.59,1.5-2.74,1.5-1.79,0-3.25-1.46-3.25-3.25,0-1.15,.6-2.16,1.5-2.74V5.99Zm39.09-1.99H6.41c-.28,1.19-1.22,2.13-2.41,2.41V40.59c1.19,.28,2.13,1.22,2.41,2.41H40.59c.28-1.19,1.22-2.13,2.41-2.41V6.41c-1.19-.28-2.13-1.22-2.41-2.41Z"/></g></svg>