<?xml version="1.0" encoding="utf-8"?>
<!-- Generator: Adobe Illustrator 26.1.0, SVG Export Plug-In . SVG Version: 6.00 Build 0)  -->
<svg version="1.1" id="a" xmlns="http://www.w3.org/2000/svg" xmlns:xlink="http://www.w3.org/1999/xlink" x="0px" y="0px"
	 viewBox="0 0 47 47" style="enable-background:new 0 0 47 47;" xml:space="preserve">
<style type="text/css">
	.st0{fill:#C2D5F3;}
	.st1{fill:#4B5561;}
	.st2{fill:#545F6C;}
	.st3{fill:#55606D;}
	.st4{fill:#555F6D;}
	.st5{fill:#56616E;}
	.st6{fill:#525D69;}
	.st7{fill:#55606E;}
	.st8{fill:#57626F;}
	.st9{fill:#56616F;}
	.st10{fill:#5C6676;}
	.st11{fill:#535E6B;}
	.st12{fill:#636E7E;}
	.st13{fill-rule:evenodd;clip-rule:evenodd;fill:#D1F8FD;}
</style>
<rect x="2.8" y="2.8" class="st0" width="41.5" height="41.9"/>
<g>
	<g>
		<path class="st1" d="M23.5,44.4c-6.7,0-13.4,0-20.1,0c-0.1,0-0.1,0-0.1-0.3c0-13.7,0-27.3,0-41c0-0.2,0-0.3,0.1-0.3
			c13.4,0,26.8,0,40.2,0c0.1,0,0.1,0,0.1,0.3c0,13.7,0,27.3,0,41c0,0.2,0,0.3-0.1,0.3C36.9,44.4,30.2,44.4,23.5,44.4z M28.8,41.4
			c-0.1,0.1-0.1,0.2-0.1,0.3c0,0,0,0,0,0.1c0,0-0.1,0.1-0.1,0.2l0,0c-0.1,0.2-0.2,0.4-0.2,0.7c0,0.1,0,0.2,0,0.2c0,0.1,0.1,0,0.1,0
			c0.1-0.2,0.2-0.4,0.2-0.6c0,0,0,0,0,0c0.1-0.1,0.2-0.2,0.2-0.4c0-0.2,0.1-0.5,0.1-0.7c0-0.2,0.1-0.4,0-0.6c0-0.1-0.1-0.1-0.1,0
			c0,0.3-0.1,0.4-0.2,0.7C28.8,41.3,28.8,41.4,28.8,41.4z M25.9,23.8c0-0.1,0-0.2,0-0.3c-0.1-0.3-0.1-0.3-0.2,0c0,0.1,0,0.1-0.1,0.2
			c-0.4,0.6-0.7,1.3-1,2c-0.2,0.4-0.3,1-0.6,1.2c0,0-0.1,0.1,0,0.2c0,0.1,0.1,0.1,0.1,0c0.1-0.1,0.2-0.2,0.2-0.4
			c0-0.2,0.1-0.3,0.2-0.4c0.1,0,0.1-0.1,0.2-0.2c0.2-0.4,0.5-0.6,0.7-0.8c0.1,0,0.2-0.1,0.2-0.4c0-0.1,0-0.2,0.1-0.3
			c0.1-0.2,0.1-0.5,0.3-0.7C25.9,24,25.9,23.9,25.9,23.8z M8.6,33c0.1,0,0.2-0.2,0.3-0.2c0.2-0.1,0.3-0.3,0.4-0.5
			c0-0.1,0.1-0.2,0.1-0.3c0-0.1,0-0.1,0-0.2c0,0,0,0-0.1,0C9.2,32,9.1,32,9,32.2C8.8,32.5,8.8,32.7,8.6,33z M10.9,9.8
			c0.1,0,0.3,0.1,0.4-0.2c0,0,0,0,0.1,0c0.2,0,0.3-0.2,0.5-0.4c0-0.1,0.1-0.1,0.1-0.3c0-0.1-0.1-0.1-0.1-0.1
			c-0.2,0.2-0.3,0.3-0.5,0.5c-0.1,0.1-0.2,0.2-0.2,0.2C11,9.6,10.9,9.6,10.9,9.8z M5.8,14.4c0.1,0,0.2-0.1,0.3-0.2
			c0.1-0.1,0.2-0.3,0.1-0.5c0-0.2-0.1,0-0.2,0c0,0,0,0.1-0.1,0.1c-0.1,0.1-0.1,0.2-0.2,0.2c-0.1,0-0.1,0-0.1,0.2
			C5.6,14.5,5.7,14.4,5.8,14.4z M23.9,41.3c0.3-0.3,0.5-0.6,0.6-1.2c0-0.1,0-0.1,0-0.1c0,0,0,0-0.1,0.1c-0.1,0.3-0.3,0.6-0.4,0.8
			C23.9,40.9,23.9,41,23.9,41.3z M7.4,14.2c0.2-0.1,0.4-0.2,0.5-0.4c0.1-0.1,0.2-0.2,0.3-0.4c0,0,0.1-0.1,0-0.2c0-0.1,0,0-0.1,0
			c-0.2,0.2-0.4,0.3-0.7,0.6C7.5,13.9,7.4,13.9,7.4,14.2z M36.9,13.8c0-0.1,0-0.2,0-0.2c0-0.1-0.1,0-0.1,0c-0.1,0.2-0.2,0.5-0.2,0.8
			c0,0,0,0.1,0,0.1c0,0,0,0,0.1,0c0-0.1,0.1-0.2,0.1-0.2C36.9,14.2,36.9,13.9,36.9,13.8z M42.5,33.5c0-0.1,0-0.2,0-0.3
			c0-0.1-0.1-0.2-0.1,0c-0.1,0.3-0.1,0.7-0.1,1c0,0,0,0.1,0,0.1c0,0,0,0,0.1,0C42.4,34,42.5,33.8,42.5,33.5z M15,37.5
			c-0.2,0.1-0.3,0.4-0.5,0.8c0,0,0,0.1,0,0.2c0,0.1,0,0.1,0.1,0C14.7,38.1,14.9,37.9,15,37.5z M26.9,43.1c0.1,0,0.1-0.1,0.1-0.2
			c0-0.1,0.1-0.3,0.1-0.3c0.1-0.1,0.2-0.4,0.2-0.6c0,0,0-0.1,0-0.2c0,0,0,0-0.1,0.1c-0.1,0.2-0.2,0.5-0.3,0.8
			C27,42.8,27,42.9,26.9,43.1z M29,38.3c0-0.1,0-0.1,0-0.1c0,0-0.1,0-0.1,0.1c-0.1,0.3-0.2,0.5-0.2,0.8c0,0,0,0.1,0,0.1c0,0,0,0,0,0
			C28.8,39.1,29,38.6,29,38.3z M12.1,20.6c-0.2,0.1-0.4,0.3-0.5,0.6C11.8,21,12,21.1,12.1,20.6z M13.2,43.2c0.2-0.2,0.4-0.4,0.5-0.9
			C13.5,42.6,13.3,42.9,13.2,43.2z M4.8,21.3C4.7,21.2,4.7,21.2,4.8,21.3c-0.2,0-0.3,0.1-0.4,0.1c0,0-0.1,0-0.1,0.1c0,0,0,0.1,0,0.1
			c0,0.1,0.1,0,0.1,0c0.1-0.1,0.1-0.1,0.2-0.1C4.7,21.7,4.7,21.4,4.8,21.3z M7.7,17c-0.2,0.1-0.3,0.2-0.5,0.5
			C7.4,17.5,7.6,17.4,7.7,17z M12.5,16.8c0.2,0.1,0.3-0.2,0.4,0c0-0.2,0-0.3-0.1-0.3C12.7,16.4,12.7,16.6,12.5,16.8z M22.2,30.6
			C22.2,30.6,22.2,30.6,22.2,30.6c-0.1,0.2-0.1,0.4-0.1,0.5c0,0.1,0,0.1,0.1,0.1c0,0,0.1,0,0.1-0.1c0-0.1,0.1-0.2,0.1-0.3
			c0-0.1,0-0.1,0-0.2C22.3,30.7,22.2,30.7,22.2,30.6z M8.9,28.3c0.2-0.1,0.3-0.2,0.5-0.5c0,0,0-0.1,0-0.1c0,0,0,0,0,0
			C9.2,27.9,9.1,28,8.9,28.3z M37,20C37,20,37,20,37,20C37,19.9,37,19.9,37,20c-0.2,0.1-0.2,0.3-0.3,0.5c0,0.1,0,0.1,0,0.1
			C36.9,20.6,37,20.2,37,20z M29.1,18c0.2,0,0.3-0.2,0.3-0.5c0,0,0-0.1,0-0.1c0,0,0,0,0,0C29.3,17.6,29.2,17.7,29.1,18z M32.1,23.4
			c0,0-0.3,0.5-0.3,0.6c0,0.1,0,0.1,0,0c0.1-0.1,0.2-0.2,0.2-0.5C32.1,23.5,32.2,23.4,32.1,23.4z M11.1,23c0.2,0,0.3-0.1,0.5-0.5
			C11.3,22.6,11.2,22.9,11.1,23z M34.2,27.3c0.1-0.1,0.1-0.2,0.2-0.4c0-0.1,0-0.2,0-0.2c0-0.1-0.1,0-0.1,0
			C34.2,26.9,34.3,27.1,34.2,27.3z M21.8,12.6c-0.1,0-0.2,0.2-0.3,0.3c0,0,0,0.1,0,0.1c0,0.1,0,0.1,0,0.1
			C21.6,13,21.7,12.9,21.8,12.6z M11.8,27.1c0.1-0.1,0.3-0.1,0.4-0.5C12,26.6,11.9,26.9,11.8,27.1z M4.2,42.3
			c0.2-0.1,0.3-0.3,0.5-0.6C4.5,41.8,4.4,42,4.2,42.3z M24.4,27.5C24.4,27.4,24.4,27.4,24.4,27.5c-0.1,0.1-0.2,0.2-0.3,0.3
			c0,0.1,0,0.1,0,0.1C24.2,28,24.4,27.7,24.4,27.5z M27.6,41.7c0,0.3-0.1,0.5-0.1,0.7C27.6,42.3,27.7,42,27.6,41.7z M13.3,29.7
			c0.1,0,0.2-0.1,0.3-0.5C13.5,29.3,13.4,29.5,13.3,29.7z M8.9,35.3c0.2,0,0.2-0.2,0.3-0.4C9.1,35,9,35.1,8.9,35.3z M41,37.4
			c-0.1,0.2-0.1,0.4-0.1,0.6c0,0,0,0.1,0,0.1c0,0,0,0,0,0C41,37.8,41,37.7,41,37.4z M29.8,21.5c-0.1,0-0.1,0.1-0.2,0.2
			c0,0,0,0.1,0,0.2c0,0,0.1,0,0.1,0C29.8,21.8,29.8,21.7,29.8,21.5z M36.1,17.2C36.1,17.1,36.1,17.1,36.1,17.2
			c-0.1-0.1-0.2,0.2-0.2,0.3c0,0,0,0.1,0,0.1C36,17.5,36.1,17.3,36.1,17.2z M11,19.2C11,19.2,11,19.2,11,19.2c0.1,0,0.2-0.1,0.3-0.3
			C11.2,19,11.1,19.1,11,19.2z M28.9,31.7C29,31.8,29,31.7,28.9,31.7c0.1-0.2,0.2-0.3,0.1-0.3c0-0.1-0.1,0.1-0.1,0.1
			C29,31.6,28.9,31.6,28.9,31.7z M40.6,38.8c0.1-0.2,0.1-0.3,0.1-0.6C40.6,38.5,40.6,38.6,40.6,38.8z M40.9,22.1
			c0.1-0.2,0.1-0.2,0.1-0.5C41,21.7,40.9,21.9,40.9,22.1z M5.4,6.8c0,0,0.1,0,0.1-0.2c0-0.1,0-0.1,0-0.1C5.5,6.6,5.4,6.6,5.4,6.8
			C5.4,6.8,5.4,6.8,5.4,6.8z M27.8,10.6c-0.1,0.1-0.1,0.1-0.2,0.3C27.7,10.8,27.7,10.7,27.8,10.6z M26.2,33.1
			c-0.1,0.1-0.1,0.2-0.2,0.4C26.1,33.4,26.2,33.3,26.2,33.1z M41.6,34.1c-0.1,0.1-0.1,0.2-0.1,0.4C41.6,34.5,41.6,34.4,41.6,34.1z
			 M12.9,43.7C12.9,43.6,12.9,43.6,12.9,43.7C12.9,43.6,12.8,43.6,12.9,43.7C12.8,43.8,12.9,43.8,12.9,43.7
			C12.9,43.8,12.9,43.7,12.9,43.7z M13.1,43.4C13.1,43.4,13,43.4,13.1,43.4c0,0.1,0,0.1,0,0.1C13.1,43.5,13.1,43.5,13.1,43.4
			C13.1,43.4,13.1,43.4,13.1,43.4z M31.1,37.8C31.1,37.8,31.1,37.8,31.1,37.8C31.1,37.8,31.1,37.8,31.1,37.8
			C31.1,37.8,31.1,37.8,31.1,37.8C31.1,37.8,31.1,37.8,31.1,37.8z M26.9,43.3C26.9,43.3,26.9,43.3,26.9,43.3
			C26.9,43.3,26.9,43.3,26.9,43.3C26.9,43.3,26.9,43.3,26.9,43.3C26.9,43.3,26.9,43.3,26.9,43.3z"/>
		<path class="st2" d="M25.9,23.8c0,0.1,0,0.2,0,0.3c-0.1,0.2-0.2,0.5-0.3,0.7c0,0.1-0.1,0.2-0.1,0.3c0,0.2-0.1,0.3-0.2,0.4
			c-0.3,0.1-0.5,0.4-0.7,0.8c0,0.1-0.1,0.1-0.2,0.2c-0.1,0.1-0.2,0.2-0.2,0.4c0,0.2-0.1,0.3-0.2,0.4c0,0.1-0.1,0.1-0.1,0
			c0-0.1,0-0.2,0-0.2c0.3-0.2,0.4-0.8,0.6-1.2c0.3-0.7,0.6-1.4,1-2c0,0,0-0.1,0.1-0.2c0.1-0.3,0.1-0.3,0.2,0
			C25.9,23.6,25.9,23.7,25.9,23.8z M25.6,24.2C25.6,24.1,25.6,24.1,25.6,24.2c-0.1,0-0.2,0.1-0.3,0.3c0,0.1,0,0.2,0,0.3
			c0,0.1,0.1,0.1,0.1,0C25.5,24.6,25.5,24.4,25.6,24.2C25.6,24.2,25.6,24.2,25.6,24.2z"/>
		<path class="st3" d="M8.6,33c0.1-0.2,0.2-0.5,0.3-0.7C9.1,32,9.2,32,9.3,31.8c0,0,0,0,0.1,0c0,0,0,0.1,0,0.2c0,0.1,0,0.2-0.1,0.3
			c-0.1,0.2-0.3,0.4-0.4,0.5C8.8,32.8,8.8,32.9,8.6,33z"/>
		<path class="st4" d="M10.9,9.8c0-0.2,0.1-0.2,0.1-0.2c0.1-0.1,0.2-0.2,0.2-0.2c0.2-0.1,0.4-0.3,0.5-0.5c0-0.1,0.1-0.1,0.1,0.1
			c0,0.1,0,0.2-0.1,0.3c-0.2,0.2-0.3,0.4-0.5,0.4c0,0,0,0-0.1,0C11.2,9.9,11,9.8,10.9,9.8z"/>
		<path class="st5" d="M5.8,14.4c-0.1,0-0.1,0-0.1-0.1c0-0.2,0.1-0.2,0.1-0.2c0.1,0,0.1-0.1,0.2-0.2c0,0,0-0.1,0.1-0.1
			c0.1-0.1,0.2-0.2,0.2,0c0,0.2-0.1,0.4-0.1,0.5C6,14.4,5.9,14.4,5.8,14.4z"/>
		<path class="st2" d="M23.9,41.3c0-0.2,0.1-0.4,0.1-0.5c0.1-0.3,0.2-0.6,0.4-0.8c0,0,0-0.1,0.1-0.1c0,0,0,0.1,0,0.1
			C24.3,40.7,24.1,41,23.9,41.3z"/>
		<path class="st2" d="M7.4,14.2c0-0.2,0.1-0.2,0.1-0.3c0.2-0.2,0.4-0.4,0.7-0.6c0,0,0.1-0.1,0.1,0c0,0.1,0,0.1,0,0.2
			c-0.1,0.1-0.2,0.3-0.3,0.4C7.8,13.9,7.6,14,7.4,14.2z"/>
		<path class="st6" d="M28.9,41.2c0-0.3,0.2-0.4,0.2-0.7c0-0.1,0.1,0,0.1,0c0.1,0.2,0,0.4,0,0.6C29,41.4,29,41.6,29,41.8
			c0,0.2-0.1,0.3-0.2,0.4c0-0.2,0.1-0.3,0.1-0.5c0-0.1,0.1-0.1,0.1-0.2c0-0.1,0.1-0.2,0-0.3C29,41.1,28.9,41.2,28.9,41.2z"/>
		<path class="st3" d="M36.9,13.8c0,0.2,0,0.4-0.2,0.5c-0.1,0-0.1,0.1-0.1,0.2c0,0,0,0-0.1,0c0,0,0-0.1,0-0.1
			c0.1-0.3,0.1-0.6,0.2-0.8c0-0.1,0.1-0.1,0.1,0C36.9,13.6,36.9,13.7,36.9,13.8z"/>
		<path class="st3" d="M42.5,33.5c0,0.3-0.1,0.5-0.1,0.8c0,0,0,0.1-0.1,0c0,0,0-0.1,0-0.1c0-0.4,0.1-0.7,0.1-1c0-0.1,0.1-0.1,0.1,0
			C42.5,33.3,42.5,33.4,42.5,33.5z"/>
		<path class="st3" d="M15,37.5c-0.1,0.5-0.3,0.7-0.4,0.9c0,0,0,0-0.1,0c0-0.1,0-0.1,0-0.2C14.7,37.9,14.8,37.6,15,37.5z"/>
		<path class="st3" d="M26.9,43.1c0-0.2,0.1-0.3,0.1-0.4c0.1-0.3,0.2-0.5,0.3-0.8c0,0,0-0.1,0.1-0.1c0,0,0,0.1,0,0.2
			c0,0.2-0.1,0.5-0.2,0.6c-0.1,0.1-0.1,0.2-0.1,0.3C27,43,27,43.1,26.9,43.1z"/>
		<path class="st2" d="M29,38.3c0,0.2-0.2,0.8-0.3,0.9c0,0,0,0,0,0c0,0,0-0.1,0-0.1c0.1-0.3,0.2-0.5,0.2-0.8c0-0.1,0-0.1,0.1-0.1
			C29,38.2,29,38.3,29,38.3z"/>
		<path class="st6" d="M28.7,42.2c-0.1,0.2-0.1,0.4-0.2,0.6c0,0.1-0.1,0.1-0.1,0c0-0.1,0-0.2,0-0.2c0.1-0.2,0.1-0.5,0.2-0.7
			C28.6,42.1,28.6,42.3,28.7,42.2z"/>
		<path class="st3" d="M12.1,20.6c-0.1,0.5-0.3,0.4-0.5,0.6C11.7,20.9,11.9,20.7,12.1,20.6z"/>
		<path class="st2" d="M13.2,43.2c0.2-0.3,0.3-0.7,0.5-0.9C13.6,42.9,13.4,43.1,13.2,43.2z"/>
		<path class="st7" d="M4.8,21.3c0,0.1-0.1,0.3-0.1,0.3c-0.1,0-0.1,0-0.2,0.1c0,0.1-0.1,0.1-0.1,0c0,0,0-0.1,0-0.1
			c0-0.1,0.1-0.1,0.1-0.1C4.5,21.5,4.6,21.3,4.8,21.3C4.7,21.2,4.7,21.2,4.8,21.3z"/>
		<path class="st4" d="M7.7,17c-0.1,0.4-0.3,0.5-0.5,0.5C7.3,17.2,7.5,17.1,7.7,17z"/>
		<path class="st8" d="M12.5,16.8c0.1-0.1,0.2-0.4,0.3-0.4c0.1,0,0.1,0.1,0.1,0.3C12.8,16.6,12.7,16.9,12.5,16.8z"/>
		<path class="st3" d="M22.2,30.6c0,0,0.1,0,0.1,0.1c0,0.1,0,0.1,0,0.2c0,0.1-0.1,0.2-0.1,0.3c0,0.1,0,0.1-0.1,0.1
			c0,0-0.1-0.1-0.1-0.1C22.1,31,22.1,30.8,22.2,30.6C22.2,30.6,22.2,30.6,22.2,30.6z"/>
		<path class="st3" d="M8.9,28.3c0.1-0.3,0.3-0.4,0.4-0.6c0,0,0,0,0,0c0,0.1,0,0.1,0,0.1C9.3,28.1,9.1,28.2,8.9,28.3z"/>
		<path class="st4" d="M37,20c0,0.2-0.2,0.6-0.2,0.6c0,0-0.1,0,0-0.1C36.8,20.3,36.9,20.1,37,20C37,19.9,37,19.9,37,20
			C37,20,37,20,37,20z"/>
		<path class="st4" d="M29.1,18c0.1-0.3,0.2-0.4,0.3-0.6c0,0,0,0,0,0c0,0,0,0.1,0,0.1C29.4,17.8,29.3,18,29.1,18z"/>
		<path class="st7" d="M32.1,23.4c0,0,0,0.1,0,0.1c0,0.3-0.1,0.4-0.2,0.5c0,0,0,0,0,0C31.8,23.9,32.1,23.4,32.1,23.4z"/>
		<path class="st7" d="M11.1,23c0.1-0.2,0.3-0.5,0.5-0.5C11.4,22.9,11.3,23,11.1,23z"/>
		<path class="st3" d="M34.2,27.3c0-0.2,0-0.4,0.1-0.6c0,0,0.1-0.1,0.1,0c0,0.1,0,0.1,0,0.2C34.4,27.1,34.3,27.3,34.2,27.3z"/>
		<path class="st4" d="M21.8,12.6c-0.1,0.3-0.2,0.4-0.3,0.4c0,0,0,0,0-0.1c0,0,0-0.1,0-0.1C21.6,12.8,21.6,12.6,21.8,12.6z"/>
		<path class="st9" d="M11.8,27.1c0.1-0.3,0.2-0.5,0.4-0.5C12.1,27,12,27,11.8,27.1z"/>
		<path class="st3" d="M4.2,42.3c0.1-0.3,0.3-0.5,0.5-0.6C4.6,42,4.4,42.3,4.2,42.3z"/>
		<path class="st3" d="M24.4,27.5c0,0.2-0.2,0.5-0.2,0.4c0,0-0.1-0.1,0-0.1C24.2,27.7,24.3,27.6,24.4,27.5
			C24.4,27.4,24.4,27.4,24.4,27.5z"/>
		<path class="st7" d="M27.6,41.7c0.1,0.3,0.1,0.6-0.1,0.7C27.4,42.2,27.6,42,27.6,41.7z"/>
		<path class="st5" d="M28.7,42.2c-0.1,0.1-0.1-0.1-0.1-0.3c0,0,0,0,0,0c0,0,0.1-0.1,0.1-0.2c0,0,0,0,0-0.1c0,0,0.1-0.1,0.1-0.1
			c0,0,0,0.1,0.1,0.1C28.8,41.9,28.7,42,28.7,42.2C28.7,42.2,28.7,42.2,28.7,42.2z"/>
		<path class="st10" d="M28.9,41.7c0,0,0-0.1-0.1-0.1c0-0.1,0-0.1,0-0.2c0-0.1,0.1-0.1,0.1-0.2c0,0,0.1-0.1,0.1,0c0,0.1,0,0.2,0,0.3
			C28.9,41.6,28.9,41.6,28.9,41.7z"/>
		<path class="st5" d="M13.3,29.7c0.1-0.2,0.2-0.4,0.3-0.5C13.5,29.6,13.4,29.7,13.3,29.7z"/>
		<path class="st7" d="M8.9,35.3C9,35.1,9.1,35,9.2,35C9.2,35.2,9.1,35.3,8.9,35.3z"/>
		<path class="st2" d="M41,37.4c0,0.3,0,0.4,0,0.6c0,0,0,0.1,0,0c0,0,0-0.1,0-0.1C40.9,37.7,40.9,37.6,41,37.4z"/>
		<path class="st4" d="M29.8,21.5c0,0.2,0,0.3-0.1,0.4c0,0-0.1,0.1-0.1,0c0-0.1,0-0.1,0-0.2C29.7,21.6,29.7,21.5,29.8,21.5z"/>
		<path class="st11" d="M36.1,17.2c0,0.1-0.1,0.4-0.1,0.3c0,0,0,0,0-0.1C35.9,17.4,36,17.1,36.1,17.2C36.1,17.1,36.1,17.1,36.1,17.2
			z"/>
		<path class="st2" d="M11,19.2c0.1-0.1,0.2-0.2,0.3-0.3C11.2,19.1,11.1,19.2,11,19.2C11,19.2,11,19.2,11,19.2z"/>
		<path class="st2" d="M28.9,31.7c0-0.1,0-0.2,0-0.2c0-0.1,0.1-0.2,0.1-0.1C29.1,31.5,29.1,31.6,28.9,31.7
			C29,31.7,29,31.8,28.9,31.7z"/>
		<path class="st7" d="M40.6,38.8c0-0.2,0-0.4,0.1-0.6C40.7,38.5,40.7,38.7,40.6,38.8z"/>
		<path class="st3" d="M40.9,22.1c0-0.2,0-0.3,0.1-0.5C41,21.8,41,21.9,40.9,22.1z"/>
		<path class="st9" d="M5.4,6.8C5.4,6.8,5.4,6.8,5.4,6.8c0-0.2,0-0.2,0.1-0.2c0,0,0.1,0,0,0.1C5.5,6.8,5.5,6.8,5.4,6.8z"/>
		<path class="st5" d="M27.8,10.6c0,0.2-0.1,0.2-0.2,0.3C27.6,10.7,27.6,10.6,27.8,10.6z"/>
		<path class="st8" d="M26.2,33.1c0,0.2-0.1,0.3-0.2,0.4C26.1,33.3,26.1,33.2,26.2,33.1z"/>
		<path class="st8" d="M41.6,34.1c0,0.2,0,0.3-0.1,0.4C41.5,34.4,41.5,34.3,41.6,34.1z"/>
		<path class="st2" d="M12.9,43.7C12.9,43.7,12.9,43.8,12.9,43.7C12.9,43.8,12.8,43.8,12.9,43.7C12.8,43.6,12.9,43.6,12.9,43.7
			C12.9,43.6,12.9,43.6,12.9,43.7z"/>
		<path class="st6" d="M28.8,41.4c0,0.1,0,0.1,0,0.2c0,0.1-0.1,0.1-0.1,0.1C28.7,41.6,28.7,41.5,28.8,41.4z"/>
		<path class="st2" d="M13.1,43.4C13.1,43.4,13.1,43.4,13.1,43.4c0,0.1,0,0.1,0,0.1C13,43.5,13,43.5,13.1,43.4
			C13,43.4,13.1,43.4,13.1,43.4z"/>
		<path class="st6" d="M28.7,41.8c0,0.1,0,0.1-0.1,0.2C28.6,41.8,28.7,41.8,28.7,41.8z"/>
		<path class="st9" d="M31.1,37.8C31.1,37.8,31.1,37.8,31.1,37.8C31.1,37.8,31.1,37.8,31.1,37.8C31.1,37.8,31.1,37.8,31.1,37.8
			C31.1,37.8,31.1,37.8,31.1,37.8z"/>
		<path class="st3" d="M26.9,43.3C26.9,43.3,26.9,43.3,26.9,43.3C26.9,43.3,26.9,43.3,26.9,43.3C26.9,43.3,26.9,43.3,26.9,43.3
			C26.9,43.3,26.9,43.3,26.9,43.3z"/>
		<path class="st12" d="M25.6,24.2C25.6,24.2,25.6,24.2,25.6,24.2c-0.1,0.2-0.1,0.4-0.2,0.6c0,0.1-0.1,0.1-0.1,0
			c0-0.1-0.1-0.2,0-0.3C25.4,24.3,25.5,24.2,25.6,24.2C25.6,24.1,25.6,24.1,25.6,24.2z"/>
	</g>
</g>
<g id="b">
	<path class="st13" d="M1.5,6C0.6,5.4,0,4.4,0,3.2C0,1.5,1.5,0,3.2,0C4.4,0,5.4,0.6,6,1.5h35C41.6,0.6,42.6,0,43.8,0
		C45.5,0,47,1.5,47,3.2c0,1.2-0.6,2.2-1.5,2.7v35c0.9,0.6,1.5,1.6,1.5,2.7c0,1.8-1.5,3.2-3.2,3.2c-1.2,0-2.2-0.6-2.7-1.5H6
		C5.4,46.4,4.4,47,3.2,47C1.5,47,0,45.5,0,43.8c0-1.2,0.6-2.2,1.5-2.7C1.5,41,1.5,6,1.5,6z M40.6,4H6.4C6.1,5.2,5.2,6.1,4,6.4v34.2
		c1.2,0.3,2.1,1.2,2.4,2.4h34.2c0.3-1.2,1.2-2.1,2.4-2.4V6.4C41.8,6.1,40.9,5.2,40.6,4z"/>
</g>
</svg>
