<?xml version="1.0" encoding="UTF-8"?><svg id="a" xmlns="http://www.w3.org/2000/svg" viewBox="0 0 47 47"><defs><style>.c{fill:#d1f8fd;fill-rule:evenodd;}.d{fill:#7a7e82;}.e{fill:#c2d5f3;}.f{fill:#65686d;}</style></defs><rect class="e" x="2.76" y="2.76" width="41.48" height="41.93"/><g><path class="d" d="M21.61,7.63l-.41,.51,.2,1.28-.2,1.95,.77,2.21,2.67,.62,2.31,1.85,3.65,.87,3.03-.72,.56-1.08,.92,.15v-.82l.62-.21,.93,.93,2.41-2.05,3.54-2.31,1.39,.21-1.39,.15-2.98,2.16-2,2.46-1.54,2.21,.05,2.11h1.44l.87,1.33-2.77,1.18,.82,2.31-3.54,.31-1.8,.67-2.05-.51,1.85,1.59,2.52,.46h1.23l.48,.65,.75,.38,1.54,.17,.72,.92-2.88,.68-.65,.62-1.23,.45-.51,1.06,.34,.82h1.4l.1,.99,1.78,.86,1.3,.72,1.37,.77-.48,.77,.82,.96-.14,1.64,.07,1.23-.55-1.16v-1.1l-1.3-1.64,.41-.41-.96-.75-.93-.27-2.63-.82-4.01,.75-1.57,.89-1.33-.27-.31-.92-1.33,.99-1.1,.14-1.3-.34-.41-1.2-3.29,1.98,2.46-2.36-3.73,.75-.96,1.33-1.47-.07v-1.44l-1.64-.17-5.07,1.47-.34,1.68-.72,.65-1.3,1.1,.58,2.05-1.1-2.16,1.51-1.3,.34-2.02,.75-1.81,2.53-1.71,.38-1.64,1.58-.41,.34-1.54,.82-2.33-1.54-.85,1.27-1.4-1.81-2.4,1.4-3.7-.75-.27-.41-.48-1.4-.51-.62-.86,.38-1.37-.62-2.23-.17-1.33-2.09-1.44-.48-1.16-1.2-.38-.82-.93-.27-.99-.86-.34,.99,.2,.43,1.13,.75,.51,1.39,.45,.65,1.18,2.52,.2,.39,.33,1.13,.07,.96-.34,.79,1.06,.51,1.35,.48,1.08,1.06-.17-.55,1.2,2.05-.38,1.92,.41,1.47-.31-.1-2.98,.27-2.02-.2-1.37,.84-.41"/><path class="f" d="M21.61,7.66s-.02,0-.03-.02c0-.01,0-.03,.02-.03l2.31-.54,.55-1.01h.01l2.89-1.32s.03,0,.04,.01c0,.01,0,.03-.01,.04l-2.88,1.31-.55,1.01h-.02l-2.32,.56h0"/><path class="f" d="M24.93,5.89s-.03-.01-.03-.03v-.85l-.42-.23v-.04l.2-.34-.21-.71v-.02l.58-1.39s.02-.02,.03-.02c.01,0,.02,.02,.01,.04l-.58,1.38,.22,.71v.02l-.21,.32,.41,.23s.01,.01,.01,.02v.87s-.01,.03-.03,.03"/><path class="f" d="M13.07,10.19h-.02s-.01-.03,0-.04l.55-.7-.99-.73v-.05l1.01-.66v-.71s.01-.03,.03-.03c.01,0,.03,.01,.03,.03v.75l-1,.65,.99,.73v.04l-.57,.72h-.02"/><path class="f" d="M3.86,6.46s-.02,0-.03-.02l-.23-1.29-.54-.13s-.02-.01-.02-.03v-.51h0l.23-.55-.83-.31s-.02-.01-.02-.03v-.59s.01-.03,.03-.03c.02,0,.03,.01,.03,.03v.57l.84,.31v.04l-.22,.56v.48l.54,.13s.02,.01,.02,.02l.23,1.3s0,.03-.02,.03h0"/><path class="f" d="M3.63,5.15h-.02s0-.04,0-.05l.62-.51-.29-.19s-.01-.01-.01-.02l.02-.02,.7-.3s.03,0,.03,.01c0,.01,0,.03-.01,.03l-.65,.28,.28,.19v.04l-.64,.54h-.02"/><path class="f" d="M18.53,41.39h-.02s-.01-.04,0-.05l.65-.6v-1.05l-.3-.75v-.03l.6-.66-.6-1.24s0-.03,.01-.03c.01,0,.03,0,.04,.01l.6,1.26s0,.02,0,.03l-.59,.67,.3,.73h0v1.1l-.67,.61h-.02"/><path class="f" d="M18.53,39.21h-.79s-.03-.01-.03-.03c0-.02,.01-.03,.03-.03h.78l.35-.24s.03,0,.04,0c0,.01,0,.03,0,.04l-.36,.24h-.02"/><path class="f" d="M8.86,44.6s-.03-.01-.03-.03v-.59l-.69-.21h-.02l-.32-.47v-.02l.13-.68h-.54s-.03-.01-.03-.03v-.55h-.67s-.03-.01-.03-.03c0-.01,.01-.03,.03-.03h.69s.03,.01,.03,.03v.55h.56v.03l-.14,.7,.31,.45,.71,.21s.02,.01,.02,.02v.61s-.01,.03-.03,.03"/><path class="f" d="M40.94,44.1h0s-.02-.02-.02-.04l.27-.75h-1.35s-.02,0-.02-.02l-.35-.96s0-.02,0-.03l.68-.66-.67-.49s-.01-.03,0-.04,.03-.01,.04,0l.7,.51v.04l-.68,.67,.34,.93h1.39v.04l-.28,.79s-.01,.02-.02,.02"/><path class="f" d="M44,11.04h-.02s0-.04,.01-.05l.67-.37-.33-.45v-.02l.34-1.05-.69-.81v-.03l.55-1.25s.02-.02,.03-.01c.01,0,.02,.02,.01,.03l-.55,1.23,.68,.81v.03l-.34,1.05,.34,.46v.04l-.71,.38h-.01"/><path class="f" d="M44.22,7.79h-.02l-.46-.47v-.87l-.93-.75s-.01-.03,0-.04c.01-.01,.03-.01,.04,0l.93,.76v.88l.46,.46s.01,.03,0,.04h-.02"/><path class="f" d="M21.61,7.63l-.04-.03-.41,.51s-.01,.03-.01,.04l.2,1.28-.2,1.94v.02l.77,2.21s.02,.03,.04,.03l2.66,.61,2.3,1.84h.02l3.64,.88h.03l3.03-.72s.03-.01,.03-.03l.55-1.05,.89,.15s.03,0,.04-.01c.01-.01,.02-.03,.02-.04v-.78l.55-.18,.9,.9s.05,.02,.07,0l2.41-2.05,3.52-2.3,.96,.14-.98,.11h-.02l-2.98,2.17h-.01l-2,2.47h0l-1.54,2.21s-.01,.02-.01,.03l.05,2.11s.02,.05,.05,.05h1.41l.82,1.26-2.71,1.16s-.04,.04-.03,.07l.8,2.24-3.47,.3h-.01l-1.78,.66-2.04-.51s-.05,0-.06,.03c-.01,.02,0,.05,.01,.07l1.85,1.59h.03l2.51,.47h1.21l.46,.63,.02,.02,.75,.38h.02l1.52,.17,.66,.84-2.8,.67h-.02l-.64,.62-1.22,.44s-.02,.01-.03,.03l-.51,1.06s0,.03,0,.04l.34,.82s.03,.03,.05,.03h1.36l.1,.94s.01,.03,.03,.04l1.78,.85,1.3,.72,1.32,.75-.45,.72s0,.05,0,.06l.81,.94-.14,1.62h0l.05,.97-.43-.9v-1.09s0-.02-.01-.03l-1.27-1.6,.38-.38s.02-.03,.01-.04c0-.02,0-.03-.02-.04l-.96-.75h-.02l-.92-.28-2.63-.82h-.03l-4.01,.75h-.02l-1.56,.89-1.29-.27-.3-.89s-.02-.03-.03-.03c-.02,0-.03,0-.05,0l-1.32,.98-1.07,.13-1.26-.33-.4-1.17s-.02-.03-.03-.03c-.01,0-.03,0-.05,0l-2.87,1.74,2.12-2.03s.02-.04,.01-.06-.03-.03-.06-.03l-3.73,.75s-.03,.01-.03,.02l-.94,1.31-1.39-.07v-1.39s-.02-.05-.05-.05l-1.64-.17h-.02l-5.07,1.47s-.03,.02-.04,.04l-.34,1.66-.71,.64-1.3,1.09s-.02,.04-.02,.06l.43,1.53-.83-1.63,1.47-1.27s.02-.02,.02-.03l.34-2.01,.75-1.79,2.52-1.7s.02-.02,.02-.03l.37-1.61,1.54-.4s.03-.02,.04-.04l.34-1.54,.82-2.32s0-.05-.02-.07l-1.48-.82,1.22-1.35s.02-.05,0-.07l-1.8-2.37,1.39-3.67s0-.03,0-.04c0-.01-.02-.02-.03-.03l-.74-.27-.4-.47-.02-.02-1.39-.51-.59-.82,.37-1.34v-.03l-.62-2.22-.17-1.33s-.01-.03-.02-.04l-2.08-1.43-.47-1.15s-.02-.03-.03-.03l-1.18-.37-.8-.9-.27-.98s-.02-.03-.03-.03l-.29-.12,.37,.08,.42,1.1s.01,.02,.02,.03l.75,.51h.01l1.37,.45,.64,1.16s.02,.03,.04,.03l2.5,.2,.38,.32s.02,.01,.03,.01l1.13,.07h.02l.92-.33,.76,1.02,.51,1.34h0l.48,1.08s.03,.03,.06,.03l.96-.15-.51,1.11s0,.04,0,.06,.03,.02,.05,.02l2.04-.38,1.91,.41h.02l1.47-.31s.04-.03,.04-.05l-.1-2.97,.27-2.02h0l-.2-1.34,.8-.39-.02-.05-.04-.03,.04,.03-.02-.05-.84,.41s-.03,.03-.03,.06l.2,1.36-.27,2.01h0l.1,2.94-1.42,.3-1.9-.41h-.02l-1.95,.36,.51-1.1s0-.04,0-.06-.03-.02-.05-.02l-1.02,.17-.46-1.04-.51-1.35h0l-.79-1.07s-.04-.03-.06-.02l-.95,.34-1.1-.07-.38-.31s-.02-.01-.03-.01l-2.49-.2-.64-1.15s-.02-.02-.03-.03l-1.38-.44-.73-.5-.42-1.11s-.02-.03-.04-.03l-.99-.2s-.05,.01-.06,.04c0,.03,0,.06,.03,.07l.83,.33,.27,.97v.02l.83,.92,.02,.02,1.17,.37,.47,1.14s.01,.02,.02,.02l2.07,1.42,.17,1.31h0l.61,2.22-.37,1.36s0,.03,0,.05l.62,.86s.01,.02,.02,.02l1.39,.51,.4,.47,.02,.02,.7,.25-1.38,3.65s0,.04,0,.05l1.79,2.36-1.24,1.37s-.01,.03-.01,.05c0,.02,.01,.03,.03,.04l1.5,.83-.81,2.28h0l-.33,1.51-1.54,.4s-.03,.02-.04,.04l-.37,1.62-2.51,1.7s-.02,.02-.02,.02l-.75,1.81h0l-.34,2.01-1.49,1.29s-.02,.04-.01,.07l1.1,2.16s.04,.04,.07,.03,.04-.04,.03-.06l-.57-2.02,1.27-1.07h0l.72-.65s.01-.02,.02-.03l.34-1.65,5.02-1.46,1.59,.16v1.39s.02,.05,.05,.05l1.47,.07s.04,0,.05-.02l.95-1.32,3.53-.71-2.33,2.23s-.02,.05,0,.07c.02,.02,.05,.03,.07,.01l3.23-1.95,.39,1.14s.02,.03,.04,.03l1.3,.34h.02l1.1-.14h.03l1.28-.96,.28,.85s.02,.03,.04,.03l1.34,.28s.03,0,.04,0l1.57-.89,3.98-.75,2.62,.82h0l.91,.27,.9,.71-.37,.37s-.02,.05,0,.07l1.29,1.63v1.1l.55,1.16s.04,.03,.06,.03c.02,0,.04-.03,.04-.05l-.07-1.23,.14-1.64s0-.03-.01-.04l-.8-.93,.46-.74s0-.03,0-.04-.01-.03-.03-.03l-1.37-.77-1.3-.72h0l-1.75-.84-.1-.96s-.03-.05-.05-.05h-1.37l-.32-.77,.49-1.02,1.21-.44h.02l.64-.62,2.86-.68s.03-.02,.04-.03c0-.02,0-.04,0-.05l-.72-.92s-.02-.02-.04-.02l-1.53-.17-.73-.37-.47-.64s-.03-.02-.04-.02h-1.23l-2.5-.46-1.67-1.43,1.83,.46s.02,0,.03,0l1.79-.67,3.54-.31s.03-.01,.04-.02c0-.02,.01-.03,0-.05l-.8-2.26,2.73-1.16s.03-.02,.03-.03c0-.02,0-.03,0-.05l-.87-1.33s-.03-.02-.05-.02h-1.38l-.05-2.03,1.53-2.19,2-2.46,2.96-2.14,1.37-.15s.05-.02,.05-.05c0-.03-.02-.05-.05-.05l-1.39-.2s-.03,0-.04,0l-3.54,2.31h0l-2.37,2.03-.89-.89s-.03-.02-.05-.01l-.62,.2s-.04,.03-.04,.05v.76l-.86-.14s-.05,0-.06,.03l-.55,1.06-2.99,.71-3.62-.87-2.3-1.84h-.02l-2.64-.62-.76-2.17,.2-1.94v-.02l-.2-1.26,.4-.49s.02-.05,0-.07-.04-.03-.07-.01l.02,.05"/><path class="f" d="M15.36,14.68l.55,.92,1.65-.29,1.82,.29,1.39-.27v-.92l-1.44,.3-1.92-.41-2.05,.38"/><path class="f" d="M21.97,13.58l.19,1.81,2.51,.45,1.77,2.12,4.07,1.29,3.4-1.45,.59-1.26,.6,.23,.02-1.49-.92-.15-.56,1.08-3.03,.72-3.65-.87-2.31-1.85-2.67-.62"/><path class="f" d="M14.85,13.65l-1.27-1.76-.59-.73-.76,.47h-1.23l-.61-.43-2.31-.75-1.07-1.4-1.2-.38-.82-.93-.27-.99-.86-.34,.99,.2,.43,1.13,.75,.51,1.39,.45,.65,1.18,2.52,.2,.39,.33,1.13,.07,.96-.34,.79,1.06,.99,2.43"/><path class="f" d="M29.11,25.4v1.62l1.29,1.55,2.76,.59h1.45l.75,.59,2.84-.17-.72-.92-1.54-.17-.75-.38-.48-.65h-1.23l-2.52-.46-1.85-1.59"/><path class="f" d="M10.74,32.99l.93-.69h1.75l1.14-2.56,1.46-2.35-1.53-1.49,1.11-1.23-2.21-2.5,1.03-2.46-1.25-1-1.4,3.7,1.81,2.4-1.27,1.4,1.54,.85-.82,2.33-.34,1.54-1.58,.41-.38,1.64"/></g><g id="b"><path class="c" d="M1.5,5.99c-.9-.58-1.5-1.59-1.5-2.74C0,1.46,1.46,0,3.25,0c1.15,0,2.16,.6,2.74,1.5H41.01c.58-.9,1.59-1.5,2.74-1.5,1.79,0,3.25,1.46,3.25,3.25,0,1.15-.6,2.16-1.5,2.74V41.01c.9,.58,1.5,1.59,1.5,2.74,0,1.79-1.46,3.25-3.25,3.25-1.15,0-2.16-.6-2.74-1.5H5.99c-.58,.9-1.59,1.5-2.74,1.5-1.79,0-3.25-1.46-3.25-3.25,0-1.15,.6-2.16,1.5-2.74V5.99Zm39.09-1.99H6.41c-.28,1.19-1.22,2.13-2.41,2.41V40.59c1.19,.28,2.13,1.22,2.41,2.41H40.59c.28-1.19,1.22-2.13,2.41-2.41V6.41c-1.19-.28-2.13-1.22-2.41-2.41Z"/></g></svg>