<?xml version="1.0" encoding="UTF-8"?><svg id="a" xmlns="http://www.w3.org/2000/svg" viewBox="0 0 47 47"><defs><style>.c{fill:#778496;}.d{fill:#d1f8fd;fill-rule:evenodd;}.e{fill:#8391a5;}</style></defs><rect class="e" x="2.76" y="2.76" width="41.48" height="41.93"/><g><path class="c" d="M9.02,3.32H1.48v2.65h7.54V3.32"/><path class="c" d="M16.88,3.32h-7.54v2.65h7.54V3.32"/><path class="c" d="M24.75,3.32h-7.54v2.65h7.54V3.32"/><path class="c" d="M6.2,6.33H2.41l.04,2.65h3.75v-2.65"/><path class="c" d="M6.52,8.97h7.54v-2.65H6.52v2.65"/><path class="c" d="M21.92,6.33h-7.54v2.65h7.54v-2.65"/><path class="c" d="M1.87,11.97h6.83v-2.65H2.22l.06,2.65"/><path class="c" d="M9.02,11.97h7.54v-2.65h-7.54v2.65"/><path class="c" d="M24.42,9.33h-7.54v2.65h7.54v-2.65"/><path class="c" d="M10.64,12.33H3.1v2.65h7.54v-2.65"/><path class="c" d="M18.5,12.33h-7.54v2.65h7.54v-2.65"/><path class="c" d="M18.82,14.97h7.54v-2.65h-7.54v2.65"/></g><g><path class="c" d="M32.82,3.33h-7.54v2.65h7.54V3.33"/><path class="c" d="M40.68,3.33h-7.54v2.65h7.54V3.33"/><path class="c" d="M44.61,3.67l-3.61-.33v2.65l3.59-.02V3.48"/><path class="c" d="M30,6.33h-7.54v2.65h7.54v-2.65"/><path class="c" d="M30.32,8.98h7.54v-2.65h-7.54v2.65"/><path class="c" d="M43.59,6.41l-5.41-.07v2.65h5.56l-.04-2.43"/><path class="c" d="M24.96,11.98h7.54v-2.65h-7.54v2.65"/><path class="c" d="M32.82,11.98h7.54v-2.65h-7.54v2.65"/><path class="c" d="M44.44,9.34h-3.76v2.65h3.71l-.07-2.65"/><path class="c" d="M34.44,12.33h-7.54v2.65h7.54v-2.65"/><path class="c" d="M42.3,12.33h-7.54v2.65h7.54v-2.65"/><path class="c" d="M42.62,14.98h1.89l-.04-2.65h-1.86v2.65"/></g><g><path class="c" d="M6.9,15.25H2.31l.02,2.65H6.9v-2.65"/><path class="c" d="M14.76,15.25H7.22v2.65h7.54v-2.65"/><path class="c" d="M22.63,15.25h-7.54v2.65h7.54v-2.65"/><path class="c" d="M4.08,18.26h-1.73l-.06,2.65h1.78v-2.65"/><path class="c" d="M4.4,20.9h7.54v-2.65H4.4v2.65"/><path class="c" d="M19.81,18.26h-7.54v2.65h7.54v-2.65"/><path class="c" d="M2.61,23.9h3.97v-2.65H2.46l.02,2.65"/><path class="c" d="M6.9,23.9h7.54v-2.65H6.9v2.65"/><path class="c" d="M22.3,21.26h-7.54v2.65h7.54v-2.65"/><path class="c" d="M8.52,24.26H2.26l.37,2.65h5.89v-2.65"/><path class="c" d="M16.38,24.26h-7.54v2.65h7.54v-2.65"/><path class="c" d="M16.7,26.91h7.54v-2.65h-7.54v2.65"/></g><g><path class="c" d="M30.7,15.26h-7.54v2.65h7.54v-2.65"/><path class="c" d="M38.57,15.26h-7.54v2.65h7.54v-2.65"/><path class="c" d="M44.44,15.26h-5.56v2.65h5.7l-.25-2.65"/><path class="c" d="M27.88,18.26h-7.54v2.65h7.54v-2.65"/><path class="c" d="M28.2,20.91h7.54v-2.65h-7.54v2.65"/><path class="c" d="M43.61,18.26h-7.54v2.65h7.54v-2.65"/><path class="c" d="M22.84,23.91h7.54v-2.65h-7.54v2.65"/><path class="c" d="M30.7,23.91h7.54v-2.65h-7.54v2.65"/><path class="c" d="M44.44,21.27h-5.88v2.65h5.63l.14-2.65"/><path class="c" d="M32.32,24.26h-7.54v2.65h7.54v-2.65"/><path class="c" d="M40.19,24.26h-7.54v2.65h7.54v-2.65"/><path class="c" d="M40.51,26.91h3.8l.19-2.65h-3.99v2.65"/></g><g><g><path class="c" d="M9.49,27.41H1.95v2.65h7.54v-2.65"/><path class="c" d="M17.35,27.41h-7.54v2.65h7.54v-2.65"/><path class="c" d="M25.21,27.41h-7.54v2.65h7.54v-2.65"/><path class="c" d="M6.66,30.41H2.17l-.04,2.65H6.66v-2.65"/><path class="c" d="M6.99,33.05h7.54v-2.65H6.99v2.65"/><path class="c" d="M22.39,30.41h-7.54v2.65h7.54v-2.65"/><path class="c" d="M1.62,36.05h7.54v-2.65H1.62v2.65"/><path class="c" d="M9.48,36.05h7.54v-2.65h-7.54v2.65"/><path class="c" d="M24.89,33.41h-7.54v2.65h7.54v-2.65"/><path class="c" d="M11.11,36.41H3.56v2.65h7.54v-2.65"/><path class="c" d="M18.97,36.41h-7.54v2.65h7.54v-2.65"/><path class="c" d="M19.29,39.06h7.54v-2.65h-7.54v2.65"/></g><g><path class="c" d="M33.29,27.41h-7.54v2.65h7.54v-2.65"/><path class="c" d="M41.15,27.41h-7.54v2.65h7.54v-2.65"/><path class="c" d="M44,27.41h-2.53v2.65h2.92l-.06-2.65"/><path class="c" d="M30.47,30.42h-7.54v2.65h7.54v-2.65"/><path class="c" d="M30.79,33.06h7.54v-2.65h-7.54v2.65"/><path class="c" d="M44.31,30.42h-5.66v2.65h5.52l-.11-2.65"/><path class="c" d="M25.42,36.06h7.54v-2.65h-7.54v2.65"/><path class="c" d="M33.29,36.06h7.54v-2.65h-7.54v2.65"/><path class="c" d="M44.61,33.42h-3.46v2.65h3.54l-.03-2.65"/><path class="c" d="M34.91,36.42h-7.54v2.65h7.54v-2.65"/><path class="c" d="M42.77,36.42h-7.54v2.65h7.54v-2.65"/></g><g><path class="c" d="M7.37,39.34H2.3l.26,2.65H7.37v-2.65"/><path class="c" d="M15.23,39.34H7.69v2.65h7.54v-2.65"/><path class="c" d="M23.1,39.34h-7.54v2.65h7.54v-2.65"/><path class="c" d="M4.87,44.98h7.54v-2.65H4.87v2.65"/><path class="c" d="M20.27,42.34h-7.54v2.65h7.54v-2.65"/></g><g><path class="c" d="M31.17,39.34h-7.54v2.65h7.54v-2.65"/><path class="c" d="M39.03,39.34h-7.54v2.65h7.54v-2.65"/><path class="c" d="M44.64,39.34h-5.28v2.65h5.26l.28-2.65"/><path class="c" d="M28.35,42.35h-7.54v2.65h7.54v-2.65"/><path class="c" d="M28.67,44.99h7.54v-2.65h-7.54v2.65"/><path class="c" d="M44.08,42.35h-7.54v2.65h7.54v-2.65"/></g></g><g id="b"><path class="d" d="M1.5,5.99c-.9-.58-1.5-1.59-1.5-2.74C0,1.46,1.46,0,3.25,0c1.15,0,2.16,.6,2.74,1.5H41.01c.58-.9,1.59-1.5,2.74-1.5,1.79,0,3.25,1.46,3.25,3.25,0,1.15-.6,2.16-1.5,2.74V41.01c.9,.58,1.5,1.59,1.5,2.74,0,1.79-1.46,3.25-3.25,3.25-1.15,0-2.16-.6-2.74-1.5H5.99c-.58,.9-1.59,1.5-2.74,1.5-1.79,0-3.25-1.46-3.25-3.25,0-1.15,.6-2.16,1.5-2.74V5.99Zm39.09-1.99H6.41c-.28,1.19-1.22,2.13-2.41,2.41V40.59c1.19,.28,2.13,1.22,2.41,2.41H40.59c.28-1.19,1.22-2.13,2.41-2.41V6.41c-1.19-.28-2.13-1.22-2.41-2.41Z"/></g></svg>