<?xml version="1.0" encoding="UTF-8"?><svg id="a" xmlns="http://www.w3.org/2000/svg" viewBox="0 0 47 47"><defs><style>.c{fill:#2f7633;}.d{fill:#d1f8fd;fill-rule:evenodd;}.e{fill:#408c24;}.f{fill:#265b2a;}.g{fill:#245226;}.h{fill:#3e3222;}</style></defs><rect class="e" x="2.76" y="2.76" width="41.48" height="41.93"/><g id="b"><path class="d" d="M1.5,5.99c-.9-.58-1.5-1.59-1.5-2.74C0,1.46,1.46,0,3.25,0c1.15,0,2.16,.6,2.74,1.5H41.01c.58-.9,1.59-1.5,2.74-1.5,1.79,0,3.25,1.46,3.25,3.25,0,1.15-.6,2.16-1.5,2.74V41.01c.9,.58,1.5,1.59,1.5,2.74,0,1.79-1.46,3.25-3.25,3.25-1.15,0-2.16-.6-2.74-1.5H5.99c-.58,.9-1.59,1.5-2.74,1.5-1.79,0-3.25-1.46-3.25-3.25,0-1.15,.6-2.16,1.5-2.74V5.99Zm39.09-1.99H6.41c-.28,1.19-1.22,2.13-2.41,2.41V40.59c1.19,.28,2.13,1.22,2.41,2.41H40.59c.28-1.19,1.22-2.13,2.41-2.41V6.41c-1.19-.28-2.13-1.22-2.41-2.41Z"/></g><g><path class="h" d="M15.11,33.79h-1.92v-7.38h1.92v7.38"/><path class="f" d="M21.74,29.19c-2.08,.13-4.51-5.59-4.51-5.59,1.75,2.41,4.64,1.22,3.07,.4-1.35-.71-3.27-4.49-3.78-5.52,.8,1.35,3.47,1.92,1.79-.2-1.79-2.21-4.13-10.54-4.13-10.54,0,0-2.39,8.33-4.15,10.54-1.68,2.08,.99,1.55,1.79,.2-.49,1.02-2.41,4.77-3.78,5.5-1.59,.8,1.28,2.01,3.07-.4,0,0-2.41,5.72-4.51,5.59-2.08-.13,.73,2.92,2.72,.8,0,0,.66,1.92,1.75-.07,0,0,.53,2.41,1.35,.07,0,0,1.08,2.01,1.75-.13,.62,2.14,1.75,.13,1.75,.13,.8,2.34,1.35-.07,1.35-.07,1.08,1.94,1.75,.07,1.75,.07,1.97,2.1,4.8-.91,2.74-.77"/><path class="h" d="M26.05,37.41h-2.92v-6.39h2.92v6.39"/><path class="h" d="M35.59,32.77h-1.92v-6.36h1.92v6.36"/><path class="g" d="M40.7,27.22c-1.66,.09-3.6-4.46-3.6-4.46,1.41,1.94,3.71,.95,2.45,.33-1.08-.55-2.61-3.58-3.01-4.38,.62,1.08,2.78,1.52,1.41-.13-1.41-1.79-3.31-8.44-3.31-8.44,0,0-1.88,6.65-3.31,8.44-1.35,1.68,.8,1.26,1.41,.13-.4,.8-1.92,3.85-3.01,4.38-1.26,.66,1.02,1.61,2.45-.33,0,0-1.94,4.57-3.6,4.46-1.66-.09,.6,2.32,2.19,.66,0,0,.53,1.52,1.41-.02,0,0,.42,1.92,1.06,.02,0,0,.88,1.61,1.39-.09,.53,1.72,1.39,.09,1.39,.09,.62,1.88,1.06-.02,1.06-.02,.86,1.55,1.41,.02,1.41,.02,1.59,1.66,3.85-.8,2.19-.66"/><path class="c" d="M32.17,31.93c-2.08,.13-4.51-5.59-4.51-5.59,1.75,2.41,4.64,1.22,3.07,.4-1.35-.69-3.27-4.46-3.78-5.46,.8,1.35,3.47,1.92,1.79-.2-1.77-2.23-4.15-10.56-4.15-10.56,0,0-2.36,8.33-4.15,10.54-1.68,2.08,.99,1.55,1.79,.2-.49,1.02-2.41,4.77-3.78,5.46-1.59,.8,1.28,2.01,3.07-.4,0,0-2.41,5.72-4.51,5.59-2.08-.13,.73,2.92,2.72,.8,0,0,.66,1.92,1.75-.07,0,0,.53,2.41,1.35,.07,0,0,1.08,2.01,1.75-.13,.62,2.14,1.75,.13,1.75,.13,.8,2.34,1.35-.07,1.35-.07,1.08,1.94,1.75,.07,1.75,.07,2.03,2.14,4.82-.91,2.76-.77"/></g></svg>