<?xml version="1.0" encoding="UTF-8"?><svg id="a" xmlns="http://www.w3.org/2000/svg" viewBox="0 0 47 47"><defs><style>.c{fill:#9ad760;}.d{fill:#75b93e;}.e{fill:#d1f8fd;fill-rule:evenodd;}</style></defs><g><path class="c" d="M43.45,43.26l-40.07-.15L3.05,3.09l40.07,.15,.32,40.03"/><path class="d" d="M17.95,2.99l25.5,40.27-6.37,.09L12.32,3.12l5.62-.13Z"/><path class="d" d="M5.29,3.15l4.06-.08,25.09,40.16h-7.43L5.29,3.15Z"/><path class="d" d="M26.45,3.17l16.93,26.62,.4,8.23L20.96,3.08l5.49,.09Z"/><path class="d" d="M33.19,3.25l10.17,15.34,.4,8.23L29.45,3.18l3.75,.06Z"/><path class="d" d="M39.87,3.21l3.2,3.64,.4,8.23L35.46,3.19l4.41,.02Z"/><path class="d" d="M3.01,4.55L22.96,43.11h-7.43L3.11,13.63l-.09-9.08Z"/><path class="d" d="M3.17,20.52l9.54,22.74-7.48-.06-1.95-9.62-.12-13.07Z"/></g><g id="b"><path class="e" d="M1.5,5.99c-.9-.58-1.5-1.59-1.5-2.74C0,1.46,1.46,0,3.25,0c1.15,0,2.16,.6,2.74,1.5H41.01c.58-.9,1.59-1.5,2.74-1.5,1.79,0,3.25,1.46,3.25,3.25,0,1.15-.6,2.16-1.5,2.74V41.01c.9,.58,1.5,1.59,1.5,2.74,0,1.79-1.46,3.25-3.25,3.25-1.15,0-2.16-.6-2.74-1.5H5.99c-.58,.9-1.59,1.5-2.74,1.5-1.79,0-3.25-1.46-3.25-3.25,0-1.15,.6-2.16,1.5-2.74V5.99Zm39.09-1.99H6.41c-.28,1.19-1.22,2.13-2.41,2.41V40.59c1.19,.28,2.13,1.22,2.41,2.41H40.59c.28-1.19,1.22-2.13,2.41-2.41V6.41c-1.19-.28-2.13-1.22-2.41-2.41Z"/></g></svg>