<?xml version="1.0" encoding="UTF-8"?><svg id="a" xmlns="http://www.w3.org/2000/svg" viewBox="0 0 47 47"><defs><style>.c{fill:#2e9141;}.d{fill:#d1f8fd;fill-rule:evenodd;}.e{fill:#41ad3d;}.f{fill:#408c24;}.g{fill:#23673a;}</style></defs><rect class="f" x="2.76" y="2.76" width="41.48" height="41.93"/><g><path class="c" d="M29.48,23.94c2.37,2.14,3.1,5.47,3.37,5.47h1.61c-2.72-4.48-4.98-5.47-4.98-5.47"/><path class="g" d="M33.99,29.41s-1-5.59-2.53-7.58c0,0,2.68,1.76,4.36,7.58h-1.84"/><path class="c" d="M38.7,29.41s.19-4.36-1.07-7.19c0,0,1.22,1.07,2.91,6.89l-1.84,.31"/><path class="g" d="M35.52,29.41s-.11-5.01,1.72-8.73c0,0-.34,5.09,.11,8.73h-1.84"/><path class="e" d="M36.94,29.41s.54-5.74,3.87-9.49c0,0-2.6,6.39-1.88,9.49h-1.99"/><path class="g" d="M38.89,29.41s.27-4.44,2.83-7.85c0,0-1.72,5.93-1.26,7.85h-1.57"/><path class="c" d="M39.7,29.41h-1.42s-1.34-4.78-3.33-8.69c0,0,3.6,3.75,4.75,8.69"/><path class="c" d="M39.51,29.41h1.42s-.31-1.72,3.02-6.54c0,0-4.06,2.37-4.44,6.54"/><path class="e" d="M35.18,29.41s.19-4.13-1.07-7c0,0,1.22,1.15,2.91,7h-1.84"/><path class="c" d="M13.1,28.57c2.95,2.72,3.98,6.89,4.29,6.93h2.07c-3.48-5.63-6.35-6.93-6.35-6.93"/><path class="g" d="M18.88,35.49s-1.26-7.04-3.21-9.53c0,0,3.41,2.22,5.59,9.53h-2.37"/><path class="c" d="M24.81,35.49s.27-5.51-1.3-9.11c0,0,1.49,1.3,3.67,8.69l-2.37,.42"/><path class="g" d="M20.79,35.49s-.15-6.39,2.14-11.06c0,0-.42,6.43,.15,11.06h-2.3"/><path class="e" d="M22.55,35.49s.65-7.23,4.94-11.98c0,0-3.33,8.04-2.37,11.98h-2.56"/><path class="g" d="M25.12,35.49s.31-5.59,3.56-9.91c0,0-2.22,7.5-1.61,9.91h-1.95"/><path class="c" d="M26.11,35.49h-1.8s-1.72-6.05-4.21-11.02c0,0,4.55,4.82,6.01,11.02"/><path class="c" d="M25.88,35.49h1.8s-.42-2.1,3.87-8.23c0-.04-5.17,2.99-5.66,8.23"/><path class="e" d="M20.33,35.49s.27-5.24-1.3-8.8c0,0,1.49,1.45,3.71,8.8h-2.41"/><path class="c" d="M21.1,20.41c1.34,1.26,1.8,3.18,1.95,3.18h.96c-1.61-2.56-2.91-3.18-2.91-3.18"/><path class="g" d="M23.78,23.59s-.61-3.21-1.45-4.36c0,0,1.57,1,2.56,4.36h-1.11"/><path class="c" d="M26.49,23.59s.11-2.53-.61-4.17c0,0,.69,.61,1.72,3.98l-1.11,.19"/><path class="g" d="M24.66,23.59s-.04-2.91,1-5.09c0,0-.19,2.95,.04,5.09h-1.03"/><path class="e" d="M25.46,23.59s.31-3.33,2.26-5.47c0,0-1.49,3.67-1.11,5.47h-1.15"/><path class="g" d="M26.61,23.59s.15-2.56,1.65-4.52c0,0-1,3.41-.77,4.52h-.88"/><path class="c" d="M27.07,23.59h-.8s-.8-2.76-1.91-5.01c-.04-.04,2.07,2.18,2.72,5.01"/><path class="c" d="M26.99,23.59h.84s-.19-.96,1.76-3.75c0-.04-2.37,1.38-2.6,3.75"/><path class="e" d="M24.46,23.59s.11-2.41-.61-4.02c0,0,.69,.65,1.72,4.02h-1.11"/><path class="c" d="M18.15,21.87c-2.53,2.26-3.33,5.74-3.56,5.78h-1.72c2.87-4.75,5.28-5.78,5.28-5.78"/><path class="g" d="M13.25,27.61s1.07-5.89,2.72-7.92c0,0-2.87,1.88-4.67,7.92h1.95"/><path class="c" d="M8.35,27.61s-.19-4.63,1.11-7.58c0,0-1.26,1.11-3.1,7.23l1.99,.34"/><path class="g" d="M11.68,27.61s.11-5.32-1.8-9.26c0,0,.34,5.36-.11,9.26h1.91"/><path class="e" d="M10.19,27.61s-.54-6.05-4.13-9.99c0,0,2.76,6.7,1.95,9.99h2.18"/><path class="g" d="M8.09,27.61s-.27-4.67-3.02-8.23c0,0,1.88,6.24,1.34,8.23h1.68"/><path class="c" d="M7.24,27.61h1.49s1.45-5.01,3.52-9.15c0,0-3.83,3.94-5.01,9.15"/><path class="c" d="M7.43,27.61h-1.49s.34-1.76-3.21-6.89c-.08,.04,4.25,2.49,4.71,6.89"/><path class="e" d="M12.07,27.61s-.19-4.36,1.11-7.35c0,0-1.26,1.22-3.1,7.35h1.99"/><path class="c" d="M13.1,13.22c2.03,1.8,2.68,4.55,2.87,4.63h1.42c-2.37-3.79-4.29-4.63-4.29-4.63"/><path class="g" d="M16.96,17.85s-.84-4.67-2.14-6.39c0,0,2.3,1.45,3.75,6.39h-1.61"/><path class="c" d="M20.98,17.85s.15-3.67-.92-6.09c0,0,1,.92,2.53,5.78l-1.61,.31"/><path class="g" d="M18.26,17.85s-.11-4.29,1.45-7.39c0,0-.31,4.29,.11,7.39h-1.57"/><path class="e" d="M19.49,17.85s.46-4.82,3.33-8c0,0-2.22,5.36-1.61,8h-1.72"/><path class="g" d="M21.21,17.85s.19-3.71,2.41-6.58c0,0-1.49,4.98-1.07,6.58h-1.34"/><path class="c" d="M21.9,17.85h-1.22s-1.15-4.02-2.87-7.35c.04,0,3.1,3.21,4.09,7.35"/><path class="c" d="M21.71,17.85h1.26s-.27-1.42,2.6-5.47c0,0-3.52,1.95-3.87,5.47"/><path class="e" d="M18,17.85s.15-3.48-.92-5.89c0,0,1,.96,2.53,5.89h-1.61"/></g><g id="b"><path class="d" d="M1.5,5.99c-.9-.58-1.5-1.59-1.5-2.74C0,1.46,1.46,0,3.25,0c1.15,0,2.16,.6,2.74,1.5H41.01c.58-.9,1.59-1.5,2.74-1.5,1.79,0,3.25,1.46,3.25,3.25,0,1.15-.6,2.16-1.5,2.74V41.01c.9,.58,1.5,1.59,1.5,2.74,0,1.79-1.46,3.25-3.25,3.25-1.15,0-2.16-.6-2.74-1.5H5.99c-.58,.9-1.59,1.5-2.74,1.5-1.79,0-3.25-1.46-3.25-3.25,0-1.15,.6-2.16,1.5-2.74V5.99Zm39.09-1.99H6.41c-.28,1.19-1.22,2.13-2.41,2.41V40.59c1.19,.28,2.13,1.22,2.41,2.41H40.59c.28-1.19,1.22-2.13,2.41-2.41V6.41c-1.19-.28-2.13-1.22-2.41-2.41Z"/></g></svg>