<?xml version="1.0" encoding="UTF-8"?><svg id="a" xmlns="http://www.w3.org/2000/svg" viewBox="0 0 47 47"><defs><style>.c{fill:#dcdbdb;}.d{fill:#d1f8fd;fill-rule:evenodd;}.e{fill:#c4c3c3;}.f{fill:#758193;}.g{fill:#e7e6e6;}.h{fill:#aaa8a8;}.i{fill:#a7a5a6;}</style></defs><rect class="f" x="2.39" y="3.72" width="41.78" height="41.56"/><g id="b"><path class="d" d="M1.5,5.99c-.9-.58-1.5-1.59-1.5-2.74C0,1.46,1.46,0,3.25,0c1.15,0,2.16,.6,2.74,1.5H41.01c.58-.9,1.59-1.5,2.74-1.5,1.79,0,3.25,1.46,3.25,3.25,0,1.15-.6,2.16-1.5,2.74V41.01c.9,.58,1.5,1.59,1.5,2.74,0,1.79-1.46,3.25-3.25,3.25-1.15,0-2.16-.6-2.74-1.5H5.99c-.58,.9-1.59,1.5-2.74,1.5-1.79,0-3.25-1.46-3.25-3.25,0-1.15,.6-2.16,1.5-2.74V5.99Zm39.09-1.99H6.41c-.28,1.19-1.22,2.13-2.41,2.41V40.59c1.19,.28,2.13,1.22,2.41,2.41H40.59c.28-1.19,1.22-2.13,2.41-2.41V6.41c-1.19-.28-2.13-1.22-2.41-2.41Z"/></g><g><path class="e" d="M35.4,13.36c.06-.61-.61-.52-1.46-.52l-21.62,.09h-.38c-.67,0-1.19,0-1.17,.52l2.8,25.94c.06,.61,.61,1.17,1.31,1.17l16.61-.06c.61,0,1.19-.52,1.31-1.17l2.51-25.53,.09-.44"/><path class="g" d="M16.39,15.92c-.06-.58-.67-1.05-1.46-1.05s-1.34,.47-1.31,1.11l1.87,21.71c.06,.58,.58,1.05,1.19,1.05s1.05-.47,1.05-1.11l-1.34-21.71"/><path class="i" d="M14.85,14.85c-.67,.06-1.25,.52-1.19,1.11l1.87,21.71c.06,.58,.52,1.05,1.11,1.05l-1.78-23.87"/><path class="g" d="M21.79,15.87c0-.58-.61-1.05-1.4-1.05s-1.34,.47-1.34,1.11l.82,21.71c0,.58,.52,1.05,1.17,1.05s1.11-.47,1.11-1.11l-.35-21.71"/><path class="i" d="M20.36,14.85c-.73,.06-1.31,.52-1.31,1.11l.82,21.71c0,.58,.52,1.05,1.11,1.05l-.61-23.87"/><path class="g" d="M27.24,15.87c0-.58-.58-1.05-1.34-1.05s-1.34,.47-1.4,1.11l-.15,21.71c0,.58,.47,1.05,1.11,1.05s1.11-.47,1.17-1.11l.61-21.71"/><path class="i" d="M25.92,14.79s-.03,0,0,0c-.79,0-1.4,.47-1.4,1.11l-.15,21.71c0,.58,.47,1.05,1.11,1.05h.06l.38-23.87"/><path class="g" d="M32.66,15.81c.06-.58-.52-1.05-1.31-1.05s-1.4,.47-1.46,1.11l-1.17,21.71c-.06,.58,.44,1.05,1.05,1.05s1.17-.47,1.19-1.11l1.69-21.71"/><path class="i" d="M31.4,14.79h0c-.79,0-1.4,.47-1.46,1.11l-1.19,21.71c-.06,.58,.44,1.05,1.05,1.05h0l1.6-23.87"/><path class="c" d="M35.4,13.8h0m-24.51-.44h-.61v-1.46c0-.09,0-.2,.06-.29l25.85-.09c0,.09,.06,.2,.06,.29v1.46h-.61c0-.38-.38-.44-.79-.44h-.67l-21.62,.09h-.61c-.7,.03-1.05,.09-1.05,.44"/><path class="h" d="M10.94,13.88c0-.06-.06-.47-.06-.52,0-.38,.38-.44,.82-.44h.61l21.62-.09h.67c.47,0,.79,.06,.79,.44l-.06,.52h0l-24.39,.09"/><g><path class="e" d="M19.19,10.97v-2.71c0-.44,.29-.73,.73-.73l6.41-.06c.44,0,.73,.29,.73,.73v2.71h1.46v-3.32c0-.87-.73-1.69-1.69-1.6l-7.43,.06c-.93,0-1.69,.73-1.69,1.69v3.32l1.49-.09"/><path class="c" d="M26.8,5.93l-7.43,.06c-.93,0-1.69,.73-1.69,1.69v3.32h1.46v-.09h-.52v-2.77c0-.73,.61-1.34,1.34-1.34l6.15-.06c.73,0,1.34,.61,1.34,1.34v2.77h-.52v.09h1.46v-3.35c.12-.93-.61-1.66-1.57-1.66"/></g><path class="e" d="M36.07,13.27v-2.01c0-.82-.67-1.52-1.52-1.52l-22.88,.09c-.82,0-1.52,.67-1.52,1.52v2.01l25.91-.09"/><path class="c" d="M34.58,9.77l-22.88,.09c-.82,0-1.52,.67-1.52,1.52v1.11c0-.82,.67-1.52,1.52-1.52l22.88-.09c.82,0,1.52,.67,1.52,1.52v-1.11c-.03-.85-.7-1.52-1.52-1.52"/></g></svg>