<?xml version="1.0" encoding="UTF-8"?><svg id="a" xmlns="http://www.w3.org/2000/svg" viewBox="0 0 47 47"><defs><style>.c{fill:#d1f8fd;}.c,.d{fill-rule:evenodd;}.e{fill:#f1cd8b;}.d{fill:#101317;}</style></defs><rect class="e" x="2.39" y="2.83" width="41.78" height="41.56"/><g id="b"><path class="c" d="M1.5,5.99c-.9-.58-1.5-1.59-1.5-2.74C0,1.46,1.46,0,3.25,0c1.15,0,2.16,.6,2.74,1.5H41.01c.58-.9,1.59-1.5,2.74-1.5,1.79,0,3.25,1.46,3.25,3.25,0,1.15-.6,2.16-1.5,2.74V41.01c.9,.58,1.5,1.59,1.5,2.74,0,1.79-1.46,3.25-3.25,3.25-1.15,0-2.16-.6-2.74-1.5H5.99c-.58,.9-1.59,1.5-2.74,1.5-1.79,0-3.25-1.46-3.25-3.25,0-1.15,.6-2.16,1.5-2.74V5.99Zm39.09-1.99H6.41c-.28,1.19-1.22,2.13-2.41,2.41V40.59c1.19,.28,2.13,1.22,2.41,2.41H40.59c.28-1.19,1.22-2.13,2.41-2.41V6.41c-1.19-.28-2.13-1.22-2.41-2.41Z"/></g><path class="d" d="M35.05,29.2c.1,5.41-4.41,10.34-10.26,11.21-5.93,.88-11.58-2.04-13.69-7.06-1.18-2.81-1.01-5.62-.08-8.44,1.23-3.72,3.17-7.13,5.35-10.44,1.83-2.77,3.86-5.42,5.98-8.01,.24-.3,.37-.23,.57,0,1.15,1.36,2.25,2.77,3.3,4.19,2.63,3.56,5.06,7.23,6.87,11.21,.89,1.96,1.6,3.97,1.86,6.1,.05,.41,.06,.82,.09,1.22Zm-18.06-9.18c-.13,.15-.17,.19-.2,.24-1.1,2.04-2.11,4.11-2.7,6.34-.68,2.59-.64,4.93,.9,7.17,.58,.85,1.5,1.56,2.79,1.74,.88,.16,1.77-.26,2.21-.88,.48-.69,.26-1.32-.19-1.93-.32-.43-.65-.86-.97-1.29-1.51-2.1-2.35-4.4-2.4-6.93-.03-1.46,.23-2.9,.56-4.45Z"/></svg>