<?xml version="1.0" encoding="UTF-8"?><svg id="a" xmlns="http://www.w3.org/2000/svg" viewBox="0 0 47 47"><defs><style>.c{fill:#242629;}.d{fill:#cbcbcb;}.e{fill:#8e8f90;}.f{fill:#d1f8fd;fill-rule:evenodd;}.g{fill:#727474;}.h{fill:#758193;}.i{fill:#3b3e43;}.j{fill:#27292d;}.k{fill:#1d2022;}.l{fill:#7c7d7d;}.m{fill:#646666;}.n{fill:#292c2f;}.o{fill:#101213;}.p{fill:#2d3034;}.q{fill:#1a1d1f;}.r{fill:#474b51;}</style></defs><rect class="h" x="2.39" y="2.83" width="41.78" height="41.56"/><g id="b"><path class="f" d="M1.5,5.99c-.9-.58-1.5-1.59-1.5-2.74C0,1.46,1.46,0,3.25,0c1.15,0,2.16,.6,2.74,1.5H41.01c.58-.9,1.59-1.5,2.74-1.5,1.79,0,3.25,1.46,3.25,3.25,0,1.15-.6,2.16-1.5,2.74V41.01c.9,.58,1.5,1.59,1.5,2.74,0,1.79-1.46,3.25-3.25,3.25-1.15,0-2.16-.6-2.74-1.5H5.99c-.58,.9-1.59,1.5-2.74,1.5-1.79,0-3.25-1.46-3.25-3.25,0-1.15,.6-2.16,1.5-2.74V5.99Zm39.09-1.99H6.41c-.28,1.19-1.22,2.13-2.41,2.41V40.59c1.19,.28,2.13,1.22,2.41,2.41H40.59c.28-1.19,1.22-2.13,2.41-2.41V6.41c-1.19-.28-2.13-1.22-2.41-2.41Z"/></g><path class="r" d="M19.06,8.09c-1.16,.25-9.27,2.45-9.77,3s-2.65,4.77-2.78,4.97c-.1,.2,.35,4.67,.4,4.87,.05,.2,4.34,11.89,4.54,12.14,.2,.25,1.72,1.62,1.74,1.87,.05,.25,8.33,2.5,8.33,2.5,0,0,6.54,.05,6.69,0s6.74-1.67,6.74-1.67c0,0,5.05-10.81,4.92-11.06-.1-.25-5.05-9.39-5.35-9.52-.3-.15-7.93-5.78-8.13-5.91-.18-.15-7.35-1.21-7.35-1.21"/><path class="l" d="M35,35.79h0m0,0h0m0,0c.15-.35,4.92-10.53,4.92-11.03-.03,.5-4.77,10.71-4.92,11.03"/><path class="n" d="M28.36,37.12c-.56,0-7.5-3.38-7.73-3.38-.03,0-.18-.03-.43-.05,.96-2.05,1.77-3.76,1.79-3.79l-1.29-3.38h.03c.13,0,.81-.71,1.49-1.41,.05-.05,.1-.13,.15-.15l1.34-1.26h.15c.2,0,.56,0,.91-.03,.38,0,.81-.03,1.16-.03,.48,0,.83,.03,.88,.08,.13,.15,5.83,5.05,5.83,5.05l-.63,5.07s-3.26,3.23-3.66,3.28h0"/><path class="o" d="M32.04,33.87s-3.26,3.21-3.66,3.28c-.4,.08-7.52-3.38-7.75-3.38-.2,0-7.37-.88-9.34-1.14,.13,.28,.18,.45,.2,.48,.2,.25,1.72,1.62,1.74,1.87,.05,.25,8.33,2.5,8.33,2.5,0,0,6.54,.05,6.69,0s6.74-1.67,6.74-1.67c0,0,5.05-10.81,4.92-11.06l-7.25,4.04-.63,5.07"/><path class="e" d="M14.49,35.43h0m0,0c-.76-.23-1.26-.4-1.26-.48h0c.18,.1,.63,.28,1.26,.48"/><path class="p" d="M15.66,35.79c-.43-.13-.81-.25-1.16-.35h0c-.61-.2-1.06-.35-1.24-.43,.13,.08,.53,.23,1.09,.38,.4,.1,.86,.25,1.31,.4m-2.37-.78h0m0,0h0m-.03-.03h0m0,0h0m0,0h0m0,0h0m0,0h0m0,0h0m0,0h0m0,0h0m0,0h0m0,0h0m0,0h0m0,0h0m0,0h0m0,0h0m0,0h0m0,0h0m0,0h0m0,0h0m0,0h0m0,0h0m0,0h0m0,0h0m0,0h0m0,0h0m0,0h0m0,0h0m0,0h0m0,0h0m0,0h0m0,0h0m0,0h0m0,0h0m0,0h0m0,0h0m0,0h0m-.03,0h0m0,0h0m0,0h0m0,0h0m0,0h0m0,0h0m0,0h0m0,0h0m0,0h0m0,0h0m0,0h0m0,0h0m0,0h0m0,0h0m0,0h0m0,0h0m0,0h0m0,0h0m0,0h0m0,0h0m0,0h0m0-.03h0m0,0h0m0,0h0m0,0h0m0,0h0m0,0h0m0,0h0m0,0h0m0,0h0"/><path class="k" d="M20.18,33.69h0l1.79-3.79s-.83,1.74-1.79,3.79"/><path class="p" d="M11.49,33.08s-.03,0,0,0t0,0m-.03,0h0m0,0h0m0,0h0m0,0h0m0,0h0m0,0s-.03-.03-.03-.08h0q.03,.05,.03,.08"/><path class="o" d="M18.79,36.67c-1.01-.28-2.15-.61-3.11-.88-.48-.13-.93-.28-1.29-.4,1.09,.35,2.85,.86,4.39,1.29l1.39-2.98h0c-.45,.98-.96,2.02-1.39,2.98m-5.55-1.72h0m0,0h0m0,0h0m0,0h0m0,0h0m0,0h0m0,0h0m0,0h0m0,0h0m0,0h0m0,0h0m0,0h0m0,0h0m0,0h0m0,0h0m0,0h0m0,0s-.03,0,0,0c-.03,0,0,0,0,0m-.03,0h0m0,0h0m0,0h0m0,0h0m0,0h0m0,0h0m0,0h0m0,0h0m0,0h0m-1.77-1.92h0m0,0s0-.03,0,0c-.03-.08-.08-.18-.13-.33,.05,.15,.1,.25,.13,.33m-.13-.3h0m0-.03h0m0,0h0m0,0h0"/><path class="d" d="M9.27,11.09c.38-.43,5.3-1.82,8.05-2.58-2.75,.76-7.65,2.17-8.05,2.58m9.82-3s-.03,0,0,0h0"/><path class="i" d="M20.68,26.52c-.1-.18-9.39-3.36-9.39-3.36,0,0-1.72-5.81-1.72-5.91s-.3-6.16-.3-6.16c.38-.43,5.3-1.82,8.05-2.58,.81-.23,1.46-.38,1.72-.43h.03s.08,0,.13,.03c-.1,2.45-.3,8.91-.28,9.01,.05,.13,4.72,6.59,4.72,6.59h0c-.1,0-.71,.61-1.31,1.26l-1.64,1.54"/><path class="m" d="M9.14,27c-1.11-2.98-2.17-5.96-2.22-6.06-.03-.1-.13-1.06-.23-2.12,.1,1.04,.2,2.02,.23,2.12,.05,.1,1.14,3.08,2.22,6.06m.08-15.81s.05-.05,.05-.08c-.03,.03-.03,.05-.05,.08"/><path class="c" d="M11.49,33.08h0m0,0h0m0,0h0m0,0h0m0,0h0m-.03,0h0m-.2-.48c-.38-.98-1.26-3.31-2.12-5.61-1.11-2.98-2.17-5.96-2.22-6.06-.03-.1-.13-1.06-.23-2.12-.1-1.04-.18-2.15-.18-2.58,0-.1,0-.15,.03-.18,.1-.18,2.07-4.09,2.68-4.9,.03-.03,.05-.05,.05-.08l.03-.03s.3,6.06,.3,6.16,1.69,5.93,1.69,5.93c0,0,9.29,3.21,9.42,3.33l-9.44-3.33-2.78,2.05c1.04,2.83,2.3,6.16,2.78,7.4m11.08-7.65c.63-.66,1.24-1.26,1.31-1.26h0l-1.31,1.26"/><path class="o" d="M11.49,33.08h0m0,0h0m0,0h0m0,0h0m-.18-.35h0m0-.03h0m0,0h0m0,0h0m0,0s-.03-.05-.05-.1c.03,.03,.03,.08,.05,.1"/><path class="g" d="M13.26,34.98h0m0,0h0m0,0h0m0,0h0m0,0h0m0,0h0m0,0h0m0,0h0m0,0h0m0,0h0m0,0h0m0,0h0m0,0h0m0,0h0m0,0h0m0,0h0m0,0h0m0,0h0m0,0h0m0,0h0m0,0h0m0,0h0m0,0h0m0,0h0m0,0h0m0,0h0m0,0h0m0,0h0m0,0h0m0,0h0m0,0h0m0,0h0m-.03,0h0m0,0h0m0,0h0m0,0h0m0,0h0m0,0h0m0,0h0m0,0h0m0,0h0m0,0h0m0,0h0m0,0h0m0,0h0m0,0h0m0,0h0m0,0h0m0,0h0m0,0h0m0,0h0m0,0h0m0,0h0m0,0h0m0,0h0m0,0h0m0,0h0m0,0h0m0,0h0m0,0h0m0-.03h0m0,0h0m0,0h0m0,0h0m0,0h0m0,0h0m0,0h0m0,0h0m0,0h0m0,0h0m0,0h0m0,0h0m0,0h0m0,0h0m0,0h0m0,0h0m0,0h0m-.03,0h0"/><path class="j" d="M14.34,35.38c-.56-.18-.96-.33-1.09-.38h0c.05,.03,.48,.18,1.09,.38m-1.11-.43h0m0,0h0m0,0h0m0,0h0"/><path class="q" d="M20.18,33.69c-1.62-.18-7.2-.88-8.89-1.09-.5-1.24-1.74-4.6-2.78-7.4l2.78-2.05,9.42,3.33,1.26,3.38-1.79,3.81"/><path class="q" d="M11.49,33.08s-.03,0,0,0t0,0s-.03,0,0,0t0,0s-.03-.03-.03-.05c0,.03,0,.05,.03,.05m-.05-.05h0"/><path class="o" d="M18.76,36.67c-1.49-.43-3.28-.93-4.42-1.29-.63-.2-1.04-.35-1.14-.43h0c-.05-.25-1.54-1.62-1.74-1.87h0s-.03-.03-.03-.05c-.03-.08-.08-.15-.13-.33h0s-.03-.05-.05-.1c1.72,.2,7.27,.91,8.89,1.09l-1.39,2.98"/></svg>