<?xml version="1.0" encoding="utf-8"?>
<!-- Generator: Adobe Illustrator 26.1.0, SVG Export Plug-In . SVG Version: 6.00 Build 0)  -->
<svg version="1.1" id="Layer_1" xmlns="http://www.w3.org/2000/svg" xmlns:xlink="http://www.w3.org/1999/xlink" x="0px" y="0px"
	 viewBox="0 0 167 167" style="enable-background:new 0 0 167 167;" xml:space="preserve">
<style type="text/css">
	.st0{fill:#8E8E8E;}
	.st1{fill:#737373;}
	.st2{fill:none;}
	.st3{fill:#DDDDDD;}
</style>
<g>
	<g>
		<path class="st0" d="M83.1,120.9L4.4,75.8l78.4-45.5l78.7,45.2L83.1,120.9"/>
	</g>
</g>
<g>
	<g>
		<path class="st1" d="M83,120.9L4.4,75.6v6.1L83,127.1V120.9"/>
	</g>
</g>
<g>
	<g>
		<path class="st1" d="M161.6,75.6L83,120.9v6.2l78.6-45.4V75.6"/>
	</g>
</g>
<path class="st2" d="M119.2,49.3"/>
<polygon class="st3" points="56,84.2 37.6,94.8 42.4,97.5 58.2,88 "/>
<rect x="59.7" y="75.8" transform="matrix(0.866 -0.5 0.5 0.866 -29.5214 45.9544)" class="st3" width="22.7" height="4.4"/>
<rect x="83.3" y="62.2" transform="matrix(0.866 -0.5 0.5 0.866 -19.5142 55.9616)" class="st3" width="22.7" height="4.4"/>
<polygon class="st3" points="116.3,49.5 107.3,54.5 109.6,58.4 120.8,52.1 "/>
</svg>
