<?xml version="1.0" encoding="UTF-8"?><svg id="a" xmlns="http://www.w3.org/2000/svg" viewBox="0 0 47 47"><defs><style>.c{fill:#fff;}.d{fill:#d1f8fd;fill-rule:evenodd;}.e{fill:#8e8e8e;}</style></defs><rect class="e" x="2.39" y="2.83" width="41.78" height="41.56"/><rect class="c" x="21.57" y="3.8" width="3.33" height="8.89"/><rect class="c" x="21.54" y="14.87" width="3.33" height="8.89"/><rect class="c" x="21.56" y="25.85" width="3.33" height="8.25"/><rect class="c" x="21.52" y="36.13" width="3.33" height="8.25"/><g id="b"><path class="d" d="M1.5,5.99c-.9-.58-1.5-1.59-1.5-2.74C0,1.46,1.46,0,3.25,0c1.15,0,2.16,.6,2.74,1.5H41.01c.58-.9,1.59-1.5,2.74-1.5,1.79,0,3.25,1.46,3.25,3.25,0,1.15-.6,2.16-1.5,2.74V41.01c.9,.58,1.5,1.59,1.5,2.74,0,1.79-1.46,3.25-3.25,3.25-1.15,0-2.16-.6-2.74-1.5H5.99c-.58,.9-1.59,1.5-2.74,1.5-1.79,0-3.25-1.46-3.25-3.25,0-1.15,.6-2.16,1.5-2.74V5.99Zm39.09-1.99H6.41c-.28,1.19-1.22,2.13-2.41,2.41V40.59c1.19,.28,2.13,1.22,2.41,2.41H40.59c.28-1.19,1.22-2.13,2.41-2.41V6.41c-1.19-.28-2.13-1.22-2.41-2.41Z"/></g></svg>