<?xml version="1.0" encoding="UTF-8"?><svg id="a" xmlns="http://www.w3.org/2000/svg" viewBox="0 0 47 47"><defs><style>.c{fill:#a57e39;}.d{fill:#d1f8fd;fill-rule:evenodd;}.e{fill:#dcad52;}.f{fill:#f3c56c;}.g{fill:#f4c56d;}.h{fill:#c1984c;}.i{fill:#edb856;}</style></defs><path class="i" d="M2.67,44.87L2.49,3.87l40.99-.64,.18,41-40.99,.64"/><path class="g" d="M36.89,23.15c-.05-.05-.1-.1-.2-.1-.03-.02-.05-.05-.09,0-.09,0-.24-.06-.46-.19l-.03-.02c-.21-.04-.52-.08-.87-.07-.24-.06-.4-.05-.43-.07h0c-.12-.03-.22-.13-.37-.28-.13-.12-.4-.05-.58,.13s-.25,.46-.12,.58c.18,.17,.37,.28,.54,.36l.03,.02c.09,0,.24,.06,.55,.1l.03,.02c.31,.04,.57,.03,.78,.07,.29,.11,.46,.19,.58,.22l.03,.02c.13,.12,.4,.05,.58-.13s.17-.53,.04-.65Z"/><path class="g" d="M36.44,24.63s-.03-.02-.07,.02c.04-.04,.07-.02,.07-.02h0Z"/><path class="g" d="M33.77,23.14h0l-.09,.09h0l.04-.04,.04-.04h0Z"/><path class="g" d="M34.38,22.87h0l-.05-.05-.03-.02-.03-.02-.07,.02-.07,.02-.07,.02-.02,.07-.07,.02-.04,.04-.04,.04-.04,.04,.04-.04,.04-.04,.07-.02,.07-.02,.07-.02,.07-.02,.03,.02,.03,.02,.11-.06m3.05,2.12h0l-.08-.07-.24-.06-.24-.06s-.08-.07-.2-.1l-.1-.1c-.09,0-.22-.13-.47-.28l-.15-.15-.2-.1-.2-.2-.74-.72-.33-.32-.53-.52c-.08-.07-.17-.08-.35,0-.07,.02-.16,.11-.2,.15-.09,.09-.11,.16-.15,.2l2.89,2.84,.05,.05,.05,.05,.32,.13,.21,.04,.2,.2,.05,.05c.09,0,.19,.01,.26,0,.21-.06,.38-.24,.45-.51,0-.09,.01-.16-.04-.21l-.03-.02-.25-.25Z"/><path class="g" d="M34.62,22.93h0l.03,.02,.03,.02,.03,.02,.03,.02c-.02,.07-.01,.16-.1,.25l.04-.04,.02-.07,.02-.07-.03-.02-.03-.02-.03-.02,.02-.07-.03-.02h0s-.03-.02,0,0h0m1.27,.99h0l-.03-.02c-.05-.05-.12-.03-.15-.06l-.05-.05-.25-.25-.1-.1c-.05-.05-.3-.2-.7-.51l-.15-.15-.28-.27-.36-.35-.03-.02c-.05-.05-.15-.06-.28-.02-.07,.02-.14,.04-.23,.13-.13,.13-.22,.22-.25,.36l1.12,1.09c.18-.08,.34-.19,.44-.35-.06,.11-.11,.16-.19,.25-.11,.06-.18,.08-.18,.08l.91,.9c.05,.05,.12,.03,.17,.08,.03,.02,.09,0,.12,.03,.14-.04,.21-.06,.34-.19,.04-.04,.13-.13,.21-.32,0-.09-.01-.19-.09-.26Z"/><path class="g" d="M36.24,24.17c-.1-.1-.31-.04-.46,.07l-.09,.09c.22-.22,.38-.24,.55-.16Z"/><path class="g" d="M35.59,23.71c-.12-.03-.28-.02-.44,.09l-.09,.09c.17-.18,.36-.26,.53-.18Z"/><path class="g" d="M35.64,24.37h0l-.09,.09-.04,.04s-.06,.11-.06,.11l-.02,.07-.02,.07-.02,.07,.03,.02,.03,.02h0l.02-.07,.02-.07,.02-.07,.02-.07,.02-.07,.04-.04,.04-.04,.02-.07"/><path class="g" d="M34.07,21.87h0c-.15-.06-.24-.06-.38-.02-.16,.11-.24,.2-.31,.31s-.08,.18-.08,.18c-.02,.07,0,.09-.04,.14,.01,.19,.05,.31,.08,.43l1.75,1.72,.15,.06,.03,.02,.05,.05,.15,.15,.08,.07c.05,.05,.12,.03,.19,.01,.18-.08,.31-.22,.46-.42,.06-.11,.1-.25,.07-.37l-.05-.05-.2-.2-.1-.1-.25-.15-.05-.05-.2-.2-.37-.28-.08-.07-.48-.47-.16-.24c-.05-.05-.06-.14-.08-.17,0-.09-.04-.21-.05-.4-.06,.11-.09,.09-.11,.06Zm.91,2.12l-.04,.04-.04,.04-.04,.04-.04,.04-.04,.04-.04,.04h0l-.02,.07h0l.02-.07,.02-.07,.02-.07,.04-.04,.04-.04,.04-.04h.09"/><path class="g" d="M37.15,25.58h0l-.03-.02c-.22-.13-.42-.23-.61-.34-.05-.05-.1-.1-.2-.1l-.2-.1-.05-.05-.71-.7-.18-.17c-.1-.1-.18-.27-.34-.51l-.05-.05c-.05-.05-.15-.06-.26,0-.14,.04-.23,.13-.31,.22l2.61,2.56c.18-.08,.27-.17,.35-.36,.08-.18,.07-.28-.03-.38Z"/><path class="h" d="M35.77,36.18h0l-.02,.07-.13,.49c.05-.21,.13-.39,.15-.55Z"/><path class="g" d="M18.02,22.45c-.05-.05-.1-.1-.2-.1-.03-.02-.05-.05-.09,0-.09,0-.24-.06-.46-.19l-.03-.02c-.21-.04-.52-.08-.87-.07-.24-.06-.4-.05-.43-.07h0c-.12-.03-.22-.13-.37-.28h0c-.13-.12-.4-.05-.58,.13s-.25,.46-.12,.58h0c.18,.17,.37,.28,.54,.36l.03,.02c.09,0,.24,.06,.55,.1h0c.31,.04,.57,.03,.78,.07,.29,.11,.46,.19,.58,.22l.03,.02c.13,.12,.4,.05,.58-.13s.2-.51,.07-.63Z"/><path class="g" d="M17.59,23.86s-.03-.02-.07,.02t.07-.02Z"/><path class="g" d="M14.87,22.41h0l-.09,.09-.04,.04h0l.04-.04,.04-.04,.04-.04h0Z"/><path class="g" d="M17.79,25.02h0s.03,.02,0,0h0s.03,.02,0,0h0"/><path class="g" d="M15.51,22.17h0l-.05-.05-.03-.02-.03-.02-.07,.02-.07,.02-.07,.02-.07,.02-.04,.04-.04,.04-.04,.04-.04,.04,.09-.09,.04-.04,.07-.02,.07-.02,.07-.02,.07-.02,.07-.02,.03,.02,.05,.05m3.05,2.12h0l-.08-.07-.24-.06-.31-.04s-.08-.07-.2-.1l-.1-.1c-.05-.05-.22-.13-.47-.28l-.15-.15-.2-.1s-.08-.07-.25-.15l-.74-.72-.33-.32-.53-.52c-.08-.07-.17-.08-.35,0-.07,.02-.18,.08-.2,.15-.09,.09-.11,.16-.15,.2l2.89,2.84,.05,.05,.05,.05,.32,.13,.21,.04,.23,.22,.05,.05c.09,0,.19,.01,.26,0,.21-.06,.38-.24,.45-.51,.04-.14,.01-.16-.04-.21l-.03-.02-.25-.25,.09-.09Z"/><path class="g" d="M15.72,22.2h0l.03,.02,.03,.02,.03,.02,.03,.02c-.02,.07-.01,.16-.1,.25l.04-.04,.04-.04,.02-.07,.02-.07,.02-.07-.03-.02-.03-.02-.03-.02-.03-.02-.04,.04h0m1.27,.99h0l-.03-.02c-.05-.05-.12-.03-.15-.06l-.3-.3-.1-.1c-.05-.05-.3-.2-.7-.51l-.15-.15-.28-.27-.36-.35-.03-.02c-.05-.05-.15-.06-.28-.02-.07,.02-.14,.04-.23,.13-.13,.13-.22,.22-.25,.36l1.12,1.09c.18-.08,.34-.19,.44-.35-.06,.11-.11,.16-.19,.25-.11,.06-.18,.08-.18,.08l.91,.9c.05,.05,.12,.03,.17,.08,.03,.02,.09,0,.12,.03,.14-.04,.25-.1,.34-.19,.04-.04,.13-.13,.21-.32,0-.09-.01-.19-.09-.26Z"/><path class="g" d="M17.34,23.44c-.1-.1-.31-.04-.46,.07l-.09,.09c.22-.22,.38-.24,.55-.16Z"/><path class="g" d="M16.72,23.01c-.12-.03-.28-.02-.44,.09l-.09,.09c.19-.25,.36-.26,.53-.18Z"/><path class="g" d="M16.75,23.64h0l-.09,.09-.04,.04s-.06,.11-.06,.11l-.02,.07-.02,.07-.02,.07,.03,.02,.03,.02h0l.02-.07v-.16l.03-.07h0l.04-.04,.04-.04,.06-.11"/><path class="g" d="M15.17,21.14h0c-.15-.06-.24-.06-.38-.02-.16,.11-.24,.2-.31,.31s-.08,.18-.08,.18c-.02,.07,0,.09-.04,.14,.01,.19,.05,.31,.08,.43l1.75,1.72,.15,.06,.03,.02,.05,.05,.15,.15,.08,.07c.05,.05,.12,.03,.19,.01,.18-.08,.31-.22,.42-.38,.06-.11,.1-.25,.07-.37l-.05-.05-.2-.2-.1-.1-.25-.15-.05-.05-.2-.2-.37-.28-.1-.1-.48-.47-.1-.1c-.05-.05-.06-.14-.11-.19,0-.09-.04-.21-.05-.4l-.08-.07Zm.96,2.07h0l-.04,.04-.04,.04-.04,.04-.04,.04-.04,.04-.04,.04h0l-.04,.04-.02,.07h0l.02-.07,.02-.07,.02-.07,.04-.04,.04-.04,.04-.04,.14-.04h0"/><path class="g" d="M18.25,24.85h0l-.03-.02c-.22-.13-.46-.19-.61-.34-.05-.05-.1-.1-.2-.1l-.2-.1-.05-.05-.71-.7-.18-.17c-.1-.1-.18-.27-.34-.51l-.05-.05c-.05-.05-.15-.06-.26,0-.14,.04-.23,.13-.31,.22l2.61,2.56c.18-.08,.27-.17,.35-.36,.11-.16,.07-.28-.03-.38Z"/><g><path class="c" d="M30.82,10.99h-.09c-.12,.06-.31,.16-.5,.33-.12,.11-.44,.44-.87,1.04-.47,.6-1.58,2.35-3.38,5.14l11.78-.03c-2.06-1.85-3.5-3.21-4.28-3.98-.53-.49-1.25-1.31-2.22-2.34-.12-.11-.28-.16-.44-.16Z"/><path class="h" d="M30.67,10.99h-.06c-.22,.11-.4,.27-.59,.49-.34,.38-.65,.82-.96,1.26-.43,.6-1.46,2.19-3.07,4.7h5.89v-.78c0-.11-.03-.27-.1-.49,0-.05-.03-.11-.06-.16l-.28-.44c-.06-.11-.09-.22-.09-.38l-.06-.71v-1.53c0-.11,0-.22-.04-.27-.03-.11-.06-.27-.13-.49-.22-.44-.38-.87-.44-1.2Z"/><path class="e" d="M27.21,12.36h-.22c-.31,.06-.65,.17-1.03,.44-.25,.11-.78,.55-1.55,1.31-.87,.88-2.39,2.74-4.57,5.69l5.2,.1,9.88-.02c-1.19-1.25-2.12-2.23-2.75-2.94-.44-.44-1.37-1.53-2.78-3.27l-.47-.49c-.25-.27-.56-.49-.94-.71-.25-.05-.47-.11-.78-.11Z"/><path class="e" d="M35.6,15.07h-.03c-.34,0-.81,.17-1.4,.55-.28,.22-.59,.44-.96,.77-1.06,.93-1.68,1.53-1.93,1.7-.31,.27-.56,.44-.75,.49-.56,.33-1.15,.44-1.78,.33l5.05,1.03,6.79-.02-2.12-2.34c-.31-.55-.75-1.09-1.31-1.74-.34-.33-.56-.49-.69-.54-.34-.16-.62-.22-.87-.22Z"/><path class="f" d="M35.54,15.07h-.12c-.37,.06-.84,.28-1.34,.6-.19,.16-.5,.38-.9,.71-1.03,.93-1.68,1.53-1.93,1.7-.34,.27-.56,.44-.68,.49-.59,.33-1.18,.44-1.84,.33l4.83,.97h2.52c-.09-.22-.13-.61-.1-1.15,.03-.38,.09-.76,.18-1.26,.03-.33,.03-.6,.03-.76,0-.05-.03-.16-.03-.16-.19-.33-.34-.65-.5-.98-.09-.16-.13-.33-.13-.49h0Z"/><path class="f" d="M27.21,12.36h-.22c-.31,.06-.72,.22-1.25,.55-.31,.22-.87,.71-1.65,1.53-.9,.99-2.33,2.74-4.26,5.36l5.2,.1h4.46l.15-.45c.03-.38,0-.6-.03-.71-.03-.05-.06-.11-.09-.11-.59-.44-.97-.71-1.16-.87-.16-.11-.25-.38-.28-.71-.03-.22,0-.44,.09-.71l.84-1.53,.06-.22-.06-.05-.84-.65s-.06-.05-.13-.16c-.22-.33-.34-.76-.38-1.36h-.47"/><path class="c" d="M17.89,26.2l10.82,2.81,12.75,.35-5.29-8.29c-.91-1.14-1.44-1.8-1.63-2.02-.72-.87-1.47-1.63-2.25-2.23s-1.56-1.03-2.4-1.2c-.84-.16-1.65,0-2.46,.39l-.81,.44c-.53,.33-1.09,.77-1.65,1.26-1.09,.88-3.45,3.67-7.08,8.48"/><path class="h" d="M29.21,15.63h-.19c-.44,0-1.06,.17-1.84,.55-.62,.33-1.46,.93-2.58,1.97-.75,.55-2.98,3.23-6.68,8.1l10.82,2.81,9.44,.25-.22-.98c-.44-.87-.91-1.8-1.35-2.78-.78-1.25-1.38-2.29-1.78-3.11-.6-1.58-1.04-2.73-1.35-3.55-.5-.71-.84-1.36-.94-1.91-.5-.44-.97-.71-1.47-.98-.12-.11-.5-.22-1.09-.38h-.78Z"/><path class="c" d="M19.2,11.01l-.25,.06c-.37,.11-.84,.44-1.37,.99-.37,.33-1.18,1.31-2.36,2.9-1.3,1.75-4.41,6.56-9.34,14.55l32.53-.08c-5.68-5.28-9.62-9.04-11.81-11.22-1.44-1.42-3.5-3.65-6.16-6.59-.34-.38-.75-.6-1.25-.6Z"/><path class="h" d="M19.2,11.01l-.25,.06c-1.09,.6-2.21,1.64-3.33,3.23-3.23,4.76-6.49,9.79-9.78,15.15l25.8-.06c-.53-.33-.97-.98-1.28-1.91-.84-.76-1.31-1.25-1.47-1.53-.72-1.64-1.16-2.51-1.32-2.67l-.47-1.42-.66-1.2-.75-.71c-.16-.16-.44-.55-.91-1.25-.5-.82-.81-1.53-.94-2.18-.75-.82-1.47-1.63-2.13-2.45-.94-1.31-1.56-2.29-1.91-2.94-.28-.05-.47-.11-.62-.11Z"/><path class="e" d="M14.96,23.53h-.22c-.31,.06-.65,.17-1.03,.44-.25,.11-.78,.55-1.55,1.31-.87,.88-2.39,2.74-4.57,5.69l5.2,.1,9.88-.02c-1.19-1.25-2.12-2.23-2.75-2.94-.44-.44-1.37-1.53-2.78-3.27l-.47-.49c-.25-.27-.56-.49-.94-.71-.22-.05-.47-.11-.78-.11Z"/><path class="e" d="M23.35,26.24h-.03c-.34,0-.81,.17-1.4,.55-.28,.22-.59,.44-.96,.77-1.06,.93-1.68,1.53-1.93,1.7-.31,.27-.56,.44-.75,.49-.56,.33-1.15,.44-1.78,.33l5.05,1.03,6.79-.02-2.12-2.34c-.31-.55-.75-1.09-1.31-1.74-.34-.33-.56-.49-.69-.54-.31-.16-.59-.22-.87-.22Z"/><path class="f" d="M23.29,26.24h-.12c-.37,.06-.84,.28-1.34,.6-.19,.16-.5,.38-.9,.71-1.03,.93-1.68,1.53-1.93,1.7-.34,.27-.56,.44-.68,.49-.59,.33-1.18,.44-1.84,.33l4.83,.97h2.52c-.09-.22-.13-.61-.1-1.15,.03-.38,.09-.76,.18-1.26,.03-.33,.03-.6,.03-.76,0-.05-.03-.16-.03-.16-.19-.33-.38-.65-.5-.98-.06-.16-.09-.38-.13-.49h0Z"/><path class="f" d="M14.96,23.53h-.22c-.31,.06-.72,.22-1.25,.55-.31,.22-.87,.71-1.65,1.53-.9,.99-2.33,2.74-4.26,5.36l5.2,.1h4.46l.15-.45c.03-.38,0-.6-.03-.76-.03-.05-.06-.05-.09-.11-.59-.44-.97-.71-1.16-.87-.16-.11-.25-.38-.28-.71-.03-.22,0-.44,.09-.71l.84-1.53,.06-.22-.06-.05-.84-.65s-.06-.05-.13-.16c-.22-.33-.34-.76-.38-1.36-.19,.06-.31,.06-.47,.06"/></g><g id="b"><path class="d" d="M1.5,5.99c-.9-.58-1.5-1.59-1.5-2.74C0,1.46,1.46,0,3.25,0c1.15,0,2.16,.6,2.74,1.5H41.01c.58-.9,1.59-1.5,2.74-1.5,1.79,0,3.25,1.46,3.25,3.25,0,1.15-.6,2.16-1.5,2.74V41.01c.9,.58,1.5,1.59,1.5,2.74,0,1.79-1.46,3.25-3.25,3.25-1.15,0-2.16-.6-2.74-1.5H5.99c-.58,.9-1.59,1.5-2.74,1.5-1.79,0-3.25-1.46-3.25-3.25,0-1.15,.6-2.16,1.5-2.74V5.99Zm39.09-1.99H6.41c-.28,1.19-1.22,2.13-2.41,2.41V40.59c1.19,.28,2.13,1.22,2.41,2.41H40.59c.28-1.19,1.22-2.13,2.41-2.41V6.41c-1.19-.28-2.13-1.22-2.41-2.41Z"/></g></svg>