<?xml version="1.0" encoding="UTF-8"?><svg id="a" xmlns="http://www.w3.org/2000/svg" viewBox="0 0 47 47"><defs><style>.c{fill:#d1f8fd;fill-rule:evenodd;}.d{fill:#dcad52;}.e{fill:#f3c56c;}.f{fill:#f4c56d;}.g{fill:#edb856;}</style></defs><path class="g" d="M2.75,43.77l.06-40.68,40.68-.34-.06,40.68-40.68,.34"/><g><path class="d" d="M20.17,36.31h-.13c-.2,0-.4,.12-.63,.23-.16,.06-.49,.35-.95,.81-.53,.52-1.48,1.68-2.83,3.47l3.2,.05h6.07c-.73-.76-1.29-1.34-1.69-1.8-.26-.29-.83-.92-1.72-2.02-.1-.12-.2-.23-.3-.29-.17-.17-.36-.29-.59-.4-.1-.06-.23-.06-.43-.06Z"/><path class="d" d="M25.32,37.91h0c-.23,0-.53,.12-.89,.35-.16,.12-.36,.29-.59,.46l-1.18,1.04c-.2,.17-.36,.23-.46,.29-.33,.17-.69,.23-1.09,.18l3.1,.63h4.19l-1.32-1.45c-.2-.35-.46-.69-.79-1.04-.2-.17-.36-.29-.43-.35-.16-.06-.36-.11-.53-.11Z"/><path class="e" d="M25.29,37.91h-.07c-.23,.06-.53,.17-.82,.35-.13,.12-.3,.23-.56,.41-.63,.58-1.02,.93-1.18,1.04-.2,.17-.36,.23-.43,.29-.36,.23-.72,.29-1.15,.23l2.97,.57h1.55c-.07-.12-.07-.35-.07-.7,0-.23,.06-.46,.13-.75,.03-.23,.03-.35,.03-.46,0-.06-.03-.12-.03-.12-.13-.17-.23-.4-.3-.58-.03-.06-.03-.17-.07-.29h0Z"/><path class="f" d="M23.12,39.65h-.13s-.03,0-.03,.06c-.03,0-.1,.06-.26,.12h-.03c-.1,.06-.23,.17-.36,.29-.1,.06-.16,.12-.2,.12h0c-.07,0-.13,.06-.26,.06-.1,0-.16,.12-.16,.29s.07,.29,.17,.29c.13,0,.26,0,.33-.06h0s.1-.06,.23-.17h0c.13-.12,.23-.17,.33-.29,.16-.06,.26-.12,.3-.12h.03c.1,0,.16-.12,.16-.29,.07-.17,0-.29-.1-.29Z"/><path class="f" d="M23.51,40.34s-.03,0,0,0t0,0Z"/><path class="f" d="M21.9,40.81h0v.06h0v-.06h0Z"/><path class="f" d="M22.06,40.46h-.07l-.03,.06-.03,.06h0v-.12h.13m1.98-.35h-.07l-.13,.06-.1,.06s-.07,0-.1,.06h-.07s-.13,.06-.3,.06h-1.58c-.07,0-.1,.06-.13,.12s-.03,.12-.03,.12c0,.06,0,.12,.03,.12h2.28l.16-.06,.1-.06h.2s.07-.06,.1-.12c.07-.12,.03-.23,0-.35-.03-.06-.07-.06-.1-.06h-.26v.06Z"/><path class="f" d="M22.16,40.4h.1s.03,.06,.07,.12h0l-.03-.06h0l-.13-.06h0m.86-.12h-.4s-.2,.06-.46,.06h-.63s-.07,.06-.1,.12c-.03,0-.03,.06-.03,.12,0,.12,0,.17,.03,.23h.86c.03-.12,.07-.18,.03-.29,0,.06,.03,.12,0,.17,0,.06-.03,.12-.03,.12h.69s.07,0,.1-.06t.07-.06c.03-.06,.07-.12,.07-.17s0-.12-.03-.23h-.16Z"/><path class="f" d="M23.25,40.28c-.07,0-.13,.06-.16,.17v.06c0-.17,.07-.23,.16-.23Z"/><path class="f" d="M22.82,40.34c-.07,0-.13,.12-.13,.23v.06c0-.17,.07-.29,.13-.29Z"/><path class="f" d="M23.09,40.57h0v.06s0,.06,.03,.06h-.07v-.17l.03,.06h0"/><path class="f" d="M21.53,40.17h0c-.07,0-.13,.06-.13,.12-.03,.12-.03,.17,0,.23s.03,.12,.03,.12l.03,.06c.07,.06,.13,.12,.2,.11h1.62s.07-.06,.1-.06c.03-.12,.03-.17,.03-.29,0-.06-.07-.12-.1-.17h-.26l-.16,.06h-.2l-.23,.06h-.43l-.16-.06s-.07,0-.1-.06c-.03,0-.1-.06-.17-.12h-.07Zm1.15,.46h0v.06h0l.03,.06h.03l-.07-.12"/><path class="f" d="M24.14,40.45h0s-.03,0,0,0c-.16,.06-.26,.12-.4,.12h-.96c-.07,0-.16,0-.33-.05h-.03s-.07,.06-.1,.12c-.03,.06-.03,.12-.03,.17h1.98c.03-.12,.03-.18,0-.29-.03,0-.07-.06-.13-.06Z"/><path class="e" d="M20.17,36.31h-.13c-.2,0-.46,.12-.76,.35-.2,.12-.53,.46-1.02,.93-.56,.58-1.41,1.68-2.63,3.24l3.2,.05h2.74l.1-.29c0-.23,0-.35-.03-.46,0,0-.03-.06-.07-.06-.36-.23-.59-.4-.69-.52-.1-.06-.13-.23-.2-.4-.03-.12,0-.29,.07-.4l.53-.92,.03-.12-.03-.06-.53-.4-.07-.12c-.13-.17-.2-.46-.23-.81h-.26"/><path class="d" d="M34.51,19.6h.23c.3,.06,.63,.17,.99,.4,.26,.11,.76,.58,1.55,1.32,.86,.86,2.35,2.71,4.5,5.59l-5.11,.13-9.66,.02c1.15-1.21,2.07-2.2,2.7-2.89,.43-.46,1.32-1.5,2.73-3.24,.16-.17,.3-.35,.46-.52,.26-.23,.56-.46,.92-.69,.16-.06,.4-.12,.69-.12Z"/><path class="d" d="M26.31,22.27h.03c.33,0,.79,.17,1.39,.57,.26,.17,.59,.46,.96,.75,1.02,.92,1.65,1.5,1.88,1.67,.3,.23,.56,.4,.73,.52,.53,.29,1.12,.4,1.75,.28l-4.94,1.05h-6.63l2.07-2.3c.33-.52,.76-1.1,1.28-1.68,.33-.29,.56-.52,.66-.52,.3-.29,.56-.35,.82-.35Z"/><path class="f" d="M34.48,19.6h0c.63,.11,1.09,.29,1.42,.52,.26,.17,.83,.69,1.68,1.55,1.22,1.38,2.61,3.11,4.2,5.24l-5.11,.13-9.66,.02c1.05-1.1,1.88-1.97,2.53-2.72l.43,.63,.46,.4c.07,.06,.1,.06,.17,.12,.16,.06,.3,.06,.43,0l.2-.12,.3-.23c.13-.17,.23-.35,.3-.64,.13-.17,.26-.35,.3-.46,.16-.06,.4-.29,.66-.69,.13-.29,.33-.81,.62-1.56l.76-1.33c.03-.06,.07-.35,.03-.81l.3-.06Z"/><path class="f" d="M24.6,24.76l-.03,.06-.03,.06-.03,.06-.03,.06-.03,.06h-.07s.07-.06,.1-.06,.03,0,.07-.06h.03c-.03-.12,0-.12,.03-.17"/><path class="f" d="M26.38,22.27h.1c.16,.06,.43,.11,.73,.23,.23,.11,.56,.35,.96,.63,.1,.06,.56,.46,1.39,1.21,.07,.06,.2,.23,.43,.58,.3,.23,.46,.4,.46,.4,.07,.06,.1,.06,.13,.12,.1,.06,.2,.06,.36,.06,.43,.29,.76,.46,.96,.52,.43,.11,.82,.11,1.15,.06l-4.91,.99h-4.95l.13-.16c.43-.29,.66-.46,.69-.52,.2-.46,.43-.98,.62-1.67,.39-.35,.99-1.16,1.74-2.43Z"/><path class="f" d="M22.92,25.4h0c0,.17,0,.29,.03,.4s.03,.17,.07,.23,.03,.12,.07,.17c.1,.17,.23,.35,.36,.4l-.13-.06-.1-.06-.1-.12-.07-.12-.07-.12-.03-.17-.03-.17v-.4"/><path class="d" d="M9.6,23.12h-.2c-.26,.06-.53,.17-.82,.35-.2,.12-.63,.46-1.25,1.1-.69,.69-1.91,2.31-3.68,4.74l4.19,.11,7.95-.02c-.96-1.04-1.72-1.84-2.21-2.42-.33-.35-1.09-1.27-2.25-2.76-.13-.17-.26-.29-.4-.4-.2-.23-.46-.4-.76-.58-.13-.06-.33-.11-.56-.11Z"/><path class="d" d="M16.33,25.35h0c-.3,0-.66,.12-1.15,.46-.23,.17-.46,.35-.79,.64-.86,.81-1.35,1.27-1.55,1.45-.26,.23-.46,.35-.59,.41-.43,.23-.92,.35-1.45,.23l4.06,.86h5.47l-1.72-1.97c-.26-.46-.63-.92-1.06-1.44-.26-.29-.46-.4-.56-.46-.2-.11-.43-.17-.66-.17Z"/><path class="f" d="M9.56,23.12h-.1c-.56,.17-.92,.35-1.09,.46-.03,0-.46,.4-1.32,1.27-.99,1.16-2.14,2.66-3.42,4.45l4.19,.11,7.95-.02-2.02-2.19-.16,.12c-.1,.29-.26,.52-.46,.81-.07,.12-.16,.17-.3,.29-.16,.06-.33,.06-.46-.06-.2,.06-.3,.06-.3,.06-.1,0-.23-.06-.33-.23-.3-.35-.56-.81-.83-1.33-.03-.06-.2-.63-.5-1.79l-.2-.46-.37-1.1c-.07-.12-.13-.17-.17-.29l-.1-.12h-.03Z"/><path class="f" d="M16.29,25.35h-.13c-.43,.12-.89,.35-1.45,.81l-.36,.29c-.13,.23-.3,.46-.46,.64-.13,.12-.23,.17-.3,.17-.1,.23-.2,.4-.3,.58l-.3,.35c-.07,.06-.1,.12-.16,.12-.16,.06-.33,.06-.49-.06-.1,.06-.2,.06-.33,.06l-.4,.17h-.13c-.2,.06-.4,.06-.63,0l3.96,.8h3.63l-.27-1.16-.23-.63-.17-.23c-.13-.06-.3-.23-.46-.46-.17-.29-.3-.58-.4-.86l-.53-.75-.1,.17Z"/><path class="d" d="M21.78,15.65h-.1c-.16,0-.33,.12-.53,.23-.13,.06-.4,.29-.79,.69-.43,.46-1.22,1.45-2.3,3.01l2.64,.05h4.98c-.59-.64-1.06-1.16-1.39-1.57-.23-.23-.69-.81-1.42-1.73-.07-.12-.17-.17-.23-.29-.13-.12-.3-.29-.46-.35-.13,0-.26,0-.4-.06Z"/><path class="d" d="M26,17.08h0c-.2,0-.43,.12-.72,.29-.13,.12-.3,.23-.49,.4-.53,.52-.86,.81-.99,.93-.16,.12-.3,.23-.4,.29-.26,.17-.56,.23-.89,.18l2.54,.51h3.43l-1.09-1.27c-.17-.29-.4-.58-.66-.92-.17-.17-.3-.29-.36-.29-.1-.06-.23-.11-.36-.11Z"/><path class="e" d="M25.97,17.08h-.07c-.2,.06-.43,.12-.66,.35-.1,.06-.26,.17-.46,.35-.53,.52-.86,.81-.99,.93-.16,.12-.3,.23-.36,.23-.3,.17-.59,.23-.92,.18l2.44,.51h1.29c-.07-.12-.07-.29-.07-.64,0-.17,.03-.4,.1-.69,.03-.17,.03-.29,.03-.4q0-.06-.03-.12c-.1-.17-.17-.35-.26-.52,0,0-.03-.06-.03-.17h0Z"/><path class="f" d="M24.19,18.58h-.13s-.1,.06-.2,.12h-.03c-.1,.06-.2,.17-.3,.23-.1,.12-.16,.17-.16,.17h0c-.07,0-.13,.06-.2,.06s-.13,.12-.13,.23,.07,.23,.13,.23c.1,0,.2,0,.26-.06h0s.1-.06,.2-.17h0c.1-.12,.2-.17,.26-.23,.13-.06,.2-.12,.23-.12h.03c.07,0,.13-.12,.13-.23s-.03-.23-.1-.23Z"/><path class="f" d="M23.17,19.57h0v.06h0v-.06h0Z"/><path class="f" d="M23.3,19.34h-.03v-.17h.07l-.03,.17h0m1.61-.29h-.07l-.1,.06-.07,.06h-.16s-.1,.06-.23,.06h-1.32s-.07,.06-.1,.12c0,.06-.03,.06-.03,.12v.12h1.88l.13-.06,.07-.06h.16s.07-.06,.07-.12c.03-.12,.03-.17,0-.35,0,.06-.03,.06-.07,.06h-.16Z"/><path class="f" d="M23.4,19.22h.03s.03,.06,.07,.12h-.03l-.07-.12h0m.69-.06h-.33s-.16,0-.4,.06h-.53s-.07,.06-.1,.06c0,0-.03,.06-.03,.12s0,.17,.03,.17h.69c.03-.06,.03-.17,.03-.23,0,.06,.03,.12,0,.17,0,.06-.03,.12-.03,.12h.63s.03,0,.03-.06c.03-.06,.07-.12,.07-.17s0-.12-.03-.17c.07-.06,0-.06-.03-.06Z"/><path class="f" d="M24.29,19.16c-.07,0-.1,.06-.13,.17v.06c0-.17,.03-.23,.13-.23Z"/><g><path class="f" d="M23.96,19.22c-.07,0-.1,.12-.1,.17v.06c-.03-.17,0-.23,.1-.23Z"/><path class="f" d="M24.16,19.39h0v.06s0,.06,.03,.06l.03,.06h-.03v-.06l-.03-.12h0"/></g><path class="f" d="M22.87,19.05h0c-.07,0-.1,.06-.13,.12s-.03,.17,0,.23c0,.06,.03,.06,.03,.06l.03,.06c.07,.06,.1,.12,.17,.12h1.32s.07-.06,.07-.06c.03-.06,.03-.17,.03-.29,0-.06-.03-.12-.1-.12h-.23l-.13,.06h-.16l-.2,.06h-.49s-.07,0-.1-.06c-.03,0-.07-.06-.13-.12,.07,0,.07-.06,.03-.06Zm.96,.4h0v.06h0v.12h.03l-.03-.17h0"/><path class="f" d="M25.02,19.28h0s-.03,0,0,0c-.13,.06-.23,.06-.33,.12h-.76c-.07,0-.13,0-.26-.06h-.03s-.07,.06-.1,.12c-.03,.06-.03,.12-.03,.17h1.62c.03-.06,.03-.18,0-.23,0-.06-.03-.12-.1-.12Z"/><path class="e" d="M21.78,15.65h-.1c-.16,0-.36,.12-.63,.29-.16,.12-.43,.4-.86,.81-.46,.58-1.18,1.5-2.17,2.89l2.64,.05h2.24l.07-.24c0-.17,0-.35-.03-.4l-.03-.06c-.3-.23-.5-.35-.59-.46-.07-.06-.13-.17-.17-.35,0-.12,0-.23,.07-.35l.43-.81,.03-.12-.03-.06-.43-.35-.07-.12c-.1-.17-.17-.4-.2-.75-.03,.06-.1,0-.16,0"/><path class="d" d="M22.88,5.89h.2c.26,.06,.56,.17,.86,.34,.23,.11,.66,.46,1.32,1.09,.73,.69,2.02,2.3,3.87,4.72l-4.35,.12-8.31,.02c.99-1.04,1.78-1.85,2.3-2.43,.36-.35,1.15-1.27,2.34-2.72,.13-.17,.26-.29,.39-.4,.2-.23,.46-.4,.79-.58,.13-.12,.33-.17,.59-.17Z"/><path class="d" d="M15.86,8.16h0c.3,0,.69,.11,1.22,.46,.23,.17,.5,.35,.79,.63,.89,.81,1.42,1.27,1.62,1.44,.26,.23,.5,.35,.63,.4,.46,.23,.96,.34,1.48,.23l-4.22,.87h-5.67l1.78-1.95c.26-.46,.62-.92,1.08-1.44,.3-.29,.49-.4,.56-.46,.26-.12,.49-.17,.72-.17Z"/><path class="e" d="M15.93,8.16h.1c.33,.06,.69,.23,1.12,.52,.17,.12,.43,.29,.76,.58,.86,.81,1.42,1.27,1.62,1.44,.26,.23,.46,.35,.59,.4,.5,.29,.99,.4,1.55,.29l-4.02,.82h-2.11c.1-.17,.1-.46,.06-.98-.03-.29-.07-.63-.17-1.04-.03-.29-.03-.52-.03-.63,0-.06,.03-.12,.03-.17,.16-.29,.3-.52,.43-.81,0-.12,.03-.29,.07-.4h0Z"/><path class="f" d="M18.87,10.52c.07,0,.1,0,.16,.06t.07,.06c.03,.06,.16,.06,.36,.17h.03c.13,.12,.3,.23,.5,.4,.13,.12,.23,.17,.26,.17h0c.07,.06,.2,.06,.33,.06s.23,.17,.23,.4-.1,.4-.23,.4c-.2,0-.33-.06-.46-.06h-.03s-.17-.11-.33-.23h0c-.17-.17-.33-.29-.46-.35-.2-.06-.33-.17-.4-.17h-.03c-.13,0-.23-.17-.23-.4,.03-.35,.13-.52,.23-.52Z"/><path class="f" d="M20.55,12.07h0v.06h0v-.06h0Z"/><path class="f" d="M20.35,11.67h.2l.03,.06v.12l-.03-.06-.03-.06-.03-.06h-.13m-2.7-.46h.1l.17,.11,.16,.06s.1,0,.16,.06h.1s.16,.06,.4,.11h.16l.16,.06h1.85c.07,0,.13,.05,.17,.17,.03,.06,.03,.12,.03,.17,0,.12,0,.17-.03,.17h-3.13l-.2-.05-.13-.12h-.26c-.07,0-.1-.06-.13-.11-.07-.12-.07-.29,0-.52,.03-.06,.1-.12,.13-.12h.3Z"/><path class="f" d="M20.19,11.55h-.13l-.1,.17h0v-.06l.03-.06h.16l.03-.06s.03,0,0,0h0m-1.15-.17h0c.1,0,.13,.06,.13,.06h.4c.07,0,.26,.06,.63,.11h.86c.07,0,.1,.06,.13,.11,.03,.06,.03,.12,.07,.17,0,.12,0,.23-.07,.35h-1.15c-.07-.11-.07-.23-.03-.4-.03,.06-.03,.17-.03,.23q.03,.12,.07,.17h-.92s-.1,0-.13-.06c-.03,0-.07-.06-.07-.06-.07-.06-.1-.17-.1-.29,0-.06,0-.17,.07-.29,.03-.06,.1-.12,.16-.12Z"/><path class="f" d="M18.7,11.38c.1,0,.2,.11,.2,.29v.06c.03-.23-.07-.35-.2-.35Z"/><path class="f" d="M19.26,11.44c.1,0,.17,.12,.2,.29v.06c0-.17-.07-.29-.2-.35Z"/><path class="f" d="M18.93,11.79h0v.12c0,.06-.03,.06-.03,.12h-.1l.03-.06,.03-.06,.03-.06v-.12l.03,.06h0"/><path class="f" d="M21.04,11.26h0c.1,.06,.17,.12,.2,.17,.03,.12,.03,.23,0,.35-.03,.06-.03,.12-.07,.12s-.03,.06-.07,.06c-.1,.06-.2,.12-.26,.17h-2.21c-.07,0-.1-.05-.1-.11-.07-.12-.07-.29-.03-.46,.03-.12,.07-.17,.16-.23h.36l.2,.06h.26l.33,.06h.59l.2-.06c.07,0,.1-.06,.13-.06s.13-.06,.23-.17c0,.12,.03,.12,.07,.12Zm-1.58,.64h0v.12h0l-.03,.06h0l-.03,.06h.03v-.29l.03,.06h0"/><path class="f" d="M17.52,11.62h.03l.49,.17s.1,0,.16,.06l.16,.06h.96c.1,0,.23-.06,.43-.06h.07c.07,0,.1,.06,.13,.11,.03,.12,.07,.17,.07,.29h-2.7c-.03-.11-.03-.22,0-.4,.03-.17,.1-.23,.2-.23Z"/><path class="e" d="M22.88,5.89h.2c.26,.06,.59,.17,1.02,.46,.26,.17,.73,.58,1.39,1.27,.76,.81,1.95,2.3,3.6,4.44l-4.35,.12h-3.76l-.13-.34c0-.29,0-.52,.03-.63l.07-.12c.49-.35,.82-.58,.95-.69s.2-.29,.26-.58c.03-.17,0-.4-.07-.58l-.7-1.27-.07-.17,.03-.06,.69-.52s.07-.06,.1-.12c.16-.29,.26-.64,.33-1.15,.16-.06,.26-.06,.4-.06"/></g><g id="b"><path class="c" d="M1.5,5.99c-.9-.58-1.5-1.59-1.5-2.74C0,1.46,1.46,0,3.25,0c1.15,0,2.16,.6,2.74,1.5H41.01c.58-.9,1.59-1.5,2.74-1.5,1.79,0,3.25,1.46,3.25,3.25,0,1.15-.6,2.16-1.5,2.74V41.01c.9,.58,1.5,1.59,1.5,2.74,0,1.79-1.46,3.25-3.25,3.25-1.15,0-2.16-.6-2.74-1.5H5.99c-.58,.9-1.59,1.5-2.74,1.5-1.79,0-3.25-1.46-3.25-3.25,0-1.15,.6-2.16,1.5-2.74V5.99Zm39.09-1.99H6.41c-.28,1.19-1.22,2.13-2.41,2.41V40.59c1.19,.28,2.13,1.22,2.41,2.41H40.59c.28-1.19,1.22-2.13,2.41-2.41V6.41c-1.19-.28-2.13-1.22-2.41-2.41Z"/></g></svg>