<svg xmlns="http://www.w3.org/2000/svg" xmlns:xlink="http://www.w3.org/1999/xlink" width="167" zoomAndPan="magnify" viewBox="0 0 125.25 125.249998" height="167" preserveAspectRatio="xMidYMid meet" version="1.0"><defs><clipPath id="df083b1932"><path d="M 1.078125 22.363281 L 123.347656 22.363281 L 123.347656 102.132812 L 1.078125 102.132812 Z M 1.078125 22.363281 " clip-rule="nonzero"/></clipPath></defs><path fill="#616161" d="M 2.71875 66.074219 L 62.265625 100.527344 L 121.8125 66.074219 L 121.8125 58.421875 L 62.265625 92.871094 L 2.71875 58.421875 Z M 2.71875 66.074219 " fill-opacity="1" fill-rule="evenodd"/><path fill="#eceff1" d="M 32.492188 41.195312 L 47.378906 49.808594 L 17.605469 67.03125 L 2.71875 58.421875 Z M 32.492188 41.195312 " fill-opacity="1" fill-rule="evenodd"/><path fill="#a1887f" d="M 47.378906 67.035156 L 62.265625 75.648438 L 47.378906 84.261719 L 32.492188 75.648438 Z M 47.378906 67.035156 " fill-opacity="1" fill-rule="evenodd"/><path fill="#78909c" d="M 32.492188 58.421875 L 47.378906 67.035156 L 32.492188 75.648438 L 17.605469 67.035156 Z M 32.492188 58.421875 " fill-opacity="1" fill-rule="evenodd"/><path fill="#78909c" d="M 62.265625 75.648438 L 77.152344 84.261719 L 62.265625 92.871094 L 47.378906 84.261719 Z M 62.265625 75.648438 " fill-opacity="1" fill-rule="evenodd"/><path fill="#eceff1" d="M 62.265625 58.421875 L 77.152344 67.035156 L 62.265625 75.648438 L 47.378906 67.035156 Z M 62.265625 58.421875 " fill-opacity="1" fill-rule="evenodd"/><path fill="#a1887f" d="M 62.265625 41.195312 L 77.152344 49.808594 L 47.378906 67.03125 L 32.492188 58.421875 Z M 62.265625 41.195312 " fill-opacity="1" fill-rule="evenodd"/><path fill="#78909c" d="M 47.378906 32.582031 L 62.265625 41.195312 L 47.378906 49.808594 L 32.492188 41.195312 Z M 47.378906 32.582031 " fill-opacity="1" fill-rule="evenodd"/><path fill="#78909c" d="M 92.039062 41.195312 L 106.925781 49.808594 L 77.152344 67.035156 L 62.265625 58.421875 Z M 92.039062 41.195312 " fill-opacity="1" fill-rule="evenodd"/><path fill="#a1887f" d="M 92.039062 58.421875 L 106.925781 67.03125 L 77.152344 84.257812 L 62.265625 75.644531 Z M 92.039062 58.421875 " fill-opacity="1" fill-rule="evenodd"/><path fill="#a1887f" d="M 62.265625 23.96875 L 77.152344 32.582031 L 62.265625 41.195312 L 47.378906 32.582031 Z M 62.265625 23.96875 " fill-opacity="1" fill-rule="evenodd"/><path fill="#eceff1" d="M 77.152344 32.582031 L 92.039062 41.195312 L 77.152344 49.808594 L 62.265625 41.195312 Z M 77.152344 32.582031 " fill-opacity="1" fill-rule="evenodd"/><path fill="#eceff1" d="M 106.925781 49.808594 L 121.8125 58.421875 L 106.925781 67.035156 L 92.039062 58.421875 Z M 106.925781 49.808594 " fill-opacity="1" fill-rule="evenodd"/><g clip-path="url(#df083b1932)"><path fill="#616161" d="M 61.5 22.644531 L 1.953125 57.09375 L 1.933594 57.105469 L 1.910156 57.121094 L 1.890625 57.132812 L 1.867188 57.148438 L 1.847656 57.164062 L 1.828125 57.175781 L 1.804688 57.191406 L 1.707031 57.269531 L 1.671875 57.304688 L 1.652344 57.320312 L 1.636719 57.339844 L 1.617188 57.355469 L 1.601562 57.375 L 1.582031 57.394531 L 1.472656 57.53125 L 1.460938 57.550781 L 1.445312 57.570312 L 1.433594 57.59375 L 1.417969 57.613281 L 1.40625 57.632812 L 1.394531 57.65625 L 1.382812 57.675781 L 1.371094 57.699219 L 1.359375 57.71875 L 1.324219 57.789062 L 1.316406 57.808594 L 1.304688 57.832031 L 1.289062 57.878906 L 1.277344 57.902344 L 1.246094 57.996094 L 1.242188 58.019531 L 1.234375 58.046875 L 1.230469 58.070312 L 1.222656 58.09375 L 1.21875 58.117188 L 1.214844 58.144531 L 1.207031 58.191406 L 1.203125 58.21875 L 1.199219 58.242188 L 1.195312 58.269531 L 1.195312 58.292969 L 1.191406 58.320312 L 1.191406 58.34375 L 1.1875 58.367188 L 1.1875 58.394531 C 1.1875 58.402344 1.1875 58.410156 1.1875 58.421875 L 1.1875 66.074219 C 1.1875 66.621094 1.480469 67.128906 1.953125 67.402344 L 61.5 101.851562 C 61.972656 102.125 62.558594 102.125 63.035156 101.851562 L 122.582031 67.402344 C 123.054688 67.128906 123.34375 66.621094 123.34375 66.074219 L 123.34375 58.421875 C 123.34375 58.316406 123.335938 58.21875 123.316406 58.117188 L 123.308594 58.09375 L 123.304688 58.070312 L 123.296875 58.042969 L 123.292969 58.019531 L 123.238281 57.855469 L 123.226562 57.832031 L 123.21875 57.808594 L 123.207031 57.785156 L 123.199219 57.765625 L 123.175781 57.71875 L 123.164062 57.699219 L 123.152344 57.675781 L 123.140625 57.65625 L 123.128906 57.632812 L 123.113281 57.613281 L 123.101562 57.589844 L 123.085938 57.570312 L 123.074219 57.550781 L 123.058594 57.53125 L 123.046875 57.507812 L 123 57.449219 L 122.984375 57.433594 L 122.96875 57.414062 L 122.949219 57.394531 L 122.917969 57.355469 L 122.898438 57.339844 L 122.882812 57.320312 L 122.84375 57.289062 L 122.808594 57.253906 L 122.75 57.207031 L 122.726562 57.191406 L 122.707031 57.175781 L 122.6875 57.164062 L 122.667969 57.148438 L 122.644531 57.136719 L 122.625 57.121094 L 122.601562 57.109375 L 122.582031 57.09375 L 107.695312 48.484375 L 107.695312 48.480469 L 92.808594 39.871094 L 63.035156 22.644531 C 62.558594 22.371094 61.972656 22.371094 61.5 22.644531 Z M 4.25 61.074219 L 4.25 65.191406 L 62.265625 98.757812 C 62.265625 98.757812 120.28125 65.191406 120.28125 65.191406 C 120.28125 65.191406 120.28125 61.074219 120.28125 61.074219 L 63.035156 94.195312 C 62.796875 94.332031 62.53125 94.402344 62.265625 94.402344 C 62.003906 94.402344 61.738281 94.332031 61.5 94.195312 L 31.726562 76.972656 Z M 62.265625 77.414062 L 50.4375 84.257812 L 62.265625 91.101562 L 74.097656 84.257812 L 65.269531 79.152344 C 65.269531 79.152344 62.265625 77.414062 62.265625 77.414062 Z M 92.039062 60.1875 L 65.324219 75.644531 L 77.152344 82.488281 L 103.871094 67.03125 L 99.027344 64.230469 Z M 35.550781 75.644531 L 47.378906 82.488281 L 59.210938 75.644531 L 50.382812 70.539062 L 47.378906 68.800781 Z M 50.4375 67.03125 L 62.265625 73.875 L 74.097656 67.03125 L 65.277344 61.933594 L 62.265625 60.1875 Z M 20.664062 67.03125 L 32.492188 73.875 L 44.324219 67.03125 L 35.507812 61.933594 L 32.492188 60.1875 Z M 92.039062 42.964844 L 65.324219 58.421875 L 77.152344 65.265625 L 103.871094 49.808594 Z M 39.480469 47.007812 L 32.492188 42.964844 L 5.777344 58.421875 L 17.605469 65.265625 L 44.324219 49.808594 Z M 106.925781 51.578125 C 106.925781 51.578125 118.757812 58.421875 118.757812 58.421875 L 106.925781 65.265625 L 95.097656 58.421875 Z M 62.265625 42.964844 L 35.550781 58.421875 L 47.378906 65.265625 L 74.097656 49.808594 L 66.453125 45.386719 Z M 35.550781 41.195312 L 47.378906 48.039062 L 59.210938 41.195312 L 50.386719 36.089844 L 47.378906 34.351562 Z M 65.324219 41.195312 L 77.152344 48.039062 L 88.984375 41.195312 L 77.152344 34.351562 Z M 50.4375 32.582031 L 62.265625 25.738281 L 74.097656 32.582031 L 62.265625 39.425781 Z M 50.4375 32.582031 " fill-opacity="1" fill-rule="evenodd"/></g></svg>