<?xml version="1.0" encoding="UTF-8"?><svg id="a" xmlns="http://www.w3.org/2000/svg" viewBox="0 0 47 47"><defs><style>.c{fill:#b0bec5;}.c,.d,.e,.f{fill-rule:evenodd;}.d{fill:#8d6e63;}.e{fill:#d1f8fd;}.f{fill:#607d8b;}</style></defs><g><path class="c" d="M23.82,3.21l-.11,10.04-20.11,.05,.11-10.04,20.11-.05Z"/><path class="c" d="M23.6,23.3l-.11,10.04-20.11,.05,.14-10.02,20.09-.07Z"/><path class="f" d="M13.67,13.29l-.11,10.04-10.04,.04,.09-10.07H13.67Z"/><path class="f" d="M13.45,33.38l-.11,10.04-10.04,.04,.11-10.04,10.04-.04Z"/><path class="d" d="M33.75,13.22l-.11,10.04-20.09,.07,.11-10.04,20.09-.07Z"/><path class="f" d="M43.95,3.1l-.09,10.07-20.16,.09,.11-10.04,20.13-.12Z"/><path class="f" d="M43.71,23.25l-.11,10.04-20.11,.05,.11-10.04,20.11-.05Z"/><path class="d" d="M33.56,33.33l-.11,10.04-20.11,.05,.11-10.04,20.11-.05Z"/><path class="c" d="M43.87,13.17l-.11,10.04-10.04,.04,.04-10.02,10.11-.05Z"/><path class="c" d="M43.6,33.3l-.11,10.04-10.04,.04,.11-10.04,10.04-.04Z"/></g><g id="b"><path class="e" d="M1.5,5.99c-.9-.58-1.5-1.59-1.5-2.74C0,1.46,1.46,0,3.25,0c1.15,0,2.16,.6,2.74,1.5H41.01c.58-.9,1.59-1.5,2.74-1.5,1.79,0,3.25,1.46,3.25,3.25,0,1.15-.6,2.16-1.5,2.74V41.01c.9,.58,1.5,1.59,1.5,2.74,0,1.79-1.46,3.25-3.25,3.25-1.15,0-2.16-.6-2.74-1.5H5.99c-.58,.9-1.59,1.5-2.74,1.5-1.79,0-3.25-1.46-3.25-3.25,0-1.15,.6-2.16,1.5-2.74V5.99Zm39.09-1.99H6.41c-.28,1.19-1.22,2.13-2.41,2.41V40.59c1.19,.28,2.13,1.22,2.41,2.41H40.59c.28-1.19,1.22-2.13,2.41-2.41V6.41c-1.19-.28-2.13-1.22-2.41-2.41Z"/></g></svg>