<?xml version="1.0" encoding="UTF-8"?><svg id="a" xmlns="http://www.w3.org/2000/svg" viewBox="0 0 47 47"><defs><style>.c{fill:#d1f8fd;}.c,.d,.e,.f{fill-rule:evenodd;}.d{fill:#eceff1;}.e{fill:#a1887f;}.f{fill:#78909c;}</style></defs><g><path class="d" d="M23.53,3.67l-.02,10-19.99,.05V3.72l20.01-.05Z"/><path class="e" d="M13.5,23.69l-.02,10-10,.03,.02-10,10-.03Z"/><path class="f" d="M13.51,13.69l-.02,10-10,.03,.02-10,10-.03Z"/><path class="f" d="M13.48,33.69l-.02,10-10,.02v-10l10.01-.03Z"/><path class="d" d="M23.5,23.67l-.02,10-10,.03,.02-10,10-.03Z"/><path class="e" d="M33.51,13.64l-.02,10-19.99,.05V13.69l20.01-.05Z"/><path class="f" d="M33.53,3.65l-.02,10-10,.03,.02-10,10-.03Z"/><path class="f" d="M43.49,23.62l-.02,10-20,.05,.02-10,20-.05Z"/><path class="e" d="M33.48,33.64v10l-20.01,.05,.02-10,19.99-.05Z"/><path class="e" d="M43.53,3.62l-.02,10-10,.03,.02-10,10-.03Z"/><path class="d" d="M43.51,13.62l-.02,10-10,.03,.02-10,10-.03Z"/><path class="d" d="M43.48,33.61l-.02,10-10,.03,.02-10,10-.03Z"/></g><g id="b"><path class="c" d="M1.5,5.99c-.9-.58-1.5-1.59-1.5-2.74C0,1.46,1.46,0,3.25,0c1.15,0,2.16,.6,2.74,1.5H41.01c.58-.9,1.59-1.5,2.74-1.5,1.79,0,3.25,1.46,3.25,3.25,0,1.15-.6,2.16-1.5,2.74V41.01c.9,.58,1.5,1.59,1.5,2.74,0,1.79-1.46,3.25-3.25,3.25-1.15,0-2.16-.6-2.74-1.5H5.99c-.58,.9-1.59,1.5-2.74,1.5-1.79,0-3.25-1.46-3.25-3.25,0-1.15,.6-2.16,1.5-2.74V5.99Zm39.09-1.99H6.41c-.28,1.19-1.22,2.13-2.41,2.41V40.59c1.19,.28,2.13,1.22,2.41,2.41H40.59c.28-1.19,1.22-2.13,2.41-2.41V6.41c-1.19-.28-2.13-1.22-2.41-2.41Z"/></g></svg>