<?xml version="1.0" encoding="utf-8"?>
<!-- Generator: Adobe Illustrator 26.1.0, SVG Export Plug-In . SVG Version: 6.00 Build 0)  -->
<svg version="1.1" id="a" xmlns="http://www.w3.org/2000/svg" xmlns:xlink="http://www.w3.org/1999/xlink" x="0px" y="0px"
	 viewBox="0 0 47 47" style="enable-background:new 0 0 47 47;" xml:space="preserve">
<style type="text/css">
	.st0{fill-rule:evenodd;clip-rule:evenodd;fill:#E0E0E0;}
	.st1{fill-rule:evenodd;clip-rule:evenodd;fill:#9E9E9E;}
	.st2{fill-rule:evenodd;clip-rule:evenodd;fill:#D1F8FD;}
</style>
<path id="b" class="st0" d="M2.6,3.6l13.4,0l0.1,8L2.7,11.6L2.6,3.6L2.6,3.6z"/>
<path id="c" class="st0" d="M42.7,3.7L2.6,3.6l0.3,40.1L43,43.8C43,43.8,42.7,3.7,42.7,3.7z"/>
<path id="d" class="st1" d="M2.7,11.6l13.4,0l0.1,8l-13.4,0L2.7,11.6L2.7,11.6z"/>
<path id="e" class="st0" d="M2.8,19.6l13.4,0l0.1,8l-13.4,0C2.8,27.7,2.8,19.6,2.8,19.6z"/>
<path id="f" class="st1" d="M2.8,27.7l13.4,0l0.1,8L2.9,35.7C2.9,35.7,2.8,27.7,2.8,27.7z"/>
<path id="g" class="st0" d="M2.9,35.7l13.4,0l0.1,8L3,43.7C3,43.7,2.9,35.7,2.9,35.7z"/>
<path id="h" class="st1" d="M16,3.7l13.4,0l0.1,8l-13.3-0.1L16,3.7L16,3.7z"/>
<path id="i" class="st0" d="M16.1,11.7l13.4,0l0.1,8l-13.4,0L16.1,11.7L16.1,11.7z"/>
<path id="j" class="st1" d="M16.1,19.7l13.4,0l0.1,8l-13.4,0L16.1,19.7z"/>
<path id="k" class="st0" d="M16.2,27.7l13.4,0l0.1,8l-13.4,0L16.2,27.7L16.2,27.7z"/>
<path id="l" class="st1" d="M16.2,35.7l13.4,0l0.1,8l-13.4,0L16.2,35.7z"/>
<path id="m" class="st0" d="M29.3,3.7l13.9,0l0.1,8l-13.9-0.1C29.4,11.7,29.3,3.7,29.3,3.7z"/>
<path id="n" class="st1" d="M29.4,11.7l13.9,0l0.1,8l-13.8-0.1L29.4,11.7L29.4,11.7z"/>
<path id="o" class="st0" d="M29.5,19.7l13.6,0l0.1,8l-13.6,0L29.5,19.7L29.5,19.7z"/>
<path id="p" class="st1" d="M29.5,27.7l13.6,0l0.1,8l-13.6,0C29.6,35.8,29.6,27.7,29.5,27.7z"/>
<path id="q" class="st0" d="M29.6,35.8l13.4,0l0.1,8l-13.4,0L29.6,35.8z"/>
<g id="r">
	<path class="st2" d="M1.5,6C0.6,5.4,0,4.4,0,3.2C0,1.5,1.5,0,3.2,0C4.4,0,5.4,0.6,6,1.5h35C41.6,0.6,42.6,0,43.8,0
		C45.5,0,47,1.5,47,3.2c0,1.2-0.6,2.2-1.5,2.7v35c0.9,0.6,1.5,1.6,1.5,2.7c0,1.8-1.5,3.2-3.2,3.2c-1.2,0-2.2-0.6-2.7-1.5H6
		C5.4,46.4,4.4,47,3.2,47C1.5,47,0,45.5,0,43.8c0-1.2,0.6-2.2,1.5-2.7C1.5,41,1.5,6,1.5,6z M40.6,4H6.4C6.1,5.2,5.2,6.1,4,6.4v34.2
		c1.2,0.3,2.1,1.2,2.4,2.4h34.2c0.3-1.2,1.2-2.1,2.4-2.4V6.4C41.8,6.1,40.9,5.2,40.6,4z"/>
</g>
</svg>
