<?xml version="1.0" encoding="utf-8"?>
<!-- Generator: Adobe Illustrator 26.1.0, SVG Export Plug-In . SVG Version: 6.00 Build 0)  -->
<svg version="1.1" id="Layer_1" xmlns="http://www.w3.org/2000/svg" xmlns:xlink="http://www.w3.org/1999/xlink" x="0px" y="0px"
	 viewBox="0 0 167 167" style="enable-background:new 0 0 167 167;" xml:space="preserve">
<style type="text/css">
	.st0{fill:#01579B;}
	.st1{fill:#FFFFFF;}
</style>
<g>
	<g>
		<path class="st0" d="M11.9,58.6h142.3v42.7H11.9V58.6z M160.8,107.7h-14.1c-5.2,12-13.7,22.2-24.5,29.6
			c-11.6,7.9-25.1,12.1-39.2,12.1c-14.1,0-27.6-4.2-39.2-12.1c-10.8-7.4-19.3-17.6-24.5-29.6H5.2V52.1h14.1
			c5.2-12,13.7-22.2,24.5-29.6C55.4,14.6,68.9,10.4,83,10.4c14.1,0,27.6,4.2,39.2,12.1c10.8,7.4,19.3,17.6,24.5,29.6h14.1V107.7z
			 M24.5,52.1h2.2c3-6.1,7-11.7,11.9-16.5C50.5,23.7,66.2,17.1,83,17.1s32.5,6.5,44.4,18.4c4.9,4.9,8.9,10.4,11.9,16.5h2.2
			C130.8,29.5,108.2,15.2,83,15.2S35.2,29.5,24.5,52.1z M136.8,52.1c-2.9-5.5-6.5-10.5-11-15C114.4,25.6,99.2,19.3,83,19.3
			c-16.2,0-31.4,6.3-42.8,17.7c-4.4,4.4-8.1,9.5-11,15H136.8z M141.5,107.7h-2.2c-3,6.1-7,11.7-11.9,16.5
			c-11.9,11.9-27.6,18.4-44.4,18.4s-32.5-6.5-44.4-18.4c-4.9-4.9-8.9-10.4-11.9-16.5h-2.2c10.7,22.5,33.3,36.9,58.5,36.9
			S130.8,130.3,141.5,107.7z M29.2,107.7c2.9,5.5,6.5,10.5,11,15c11.4,11.4,26.6,17.7,42.8,17.7s31.4-6.3,42.8-17.7
			c4.4-4.5,8.1-9.5,11-15H29.2z M156.1,56.8H9.9V103h146.1V56.8z"/>
	</g>
</g>
<g>
	<g transform="translate(43.611226, 54.976488)">
		<g>
			<path class="st1" d="M14.9,18.3v-0.9h0.7c0.2,0,0.3,0,0.4-0.1c0.1-0.1,0.2-0.2,0.2-0.3c0.1-0.1,0.1-0.3,0.1-0.5V8.8
				c0-0.2,0-0.4-0.1-0.5C16.2,8.2,16.1,8.1,16,8c-0.1-0.1-0.3-0.1-0.4-0.1h-0.6V7h5.4c1.2,0,2.2,0.2,3.1,0.6c0.9,0.4,1.5,1,2,1.8
				c0.5,0.8,0.7,1.8,0.7,3c0,1.2-0.2,2.2-0.7,3.1c-0.4,0.9-1.1,1.6-1.9,2.1c-0.8,0.5-1.9,0.8-3.2,0.8H14.9z M19.9,17.3
				c0.7,0,1.3-0.2,1.7-0.6c0.5-0.4,0.8-1,1-1.7c0.2-0.7,0.4-1.6,0.4-2.6c0-1-0.1-1.8-0.4-2.4c-0.2-0.6-0.6-1.1-1-1.4
				c-0.5-0.3-1-0.5-1.7-0.5h-0.7v9.2H19.9z"/>
		</g>
	</g>
</g>
<g>
	<g transform="translate(52.903805, 54.976488)">
		<g>
			<path class="st1" d="M18,18.3v-0.9h0.7c0.2,0,0.3,0,0.4-0.1c0.1-0.1,0.2-0.2,0.2-0.3c0.1-0.1,0.1-0.3,0.1-0.5V8.8
				c0-0.3,0-0.5-0.1-0.6C19.3,8.1,19.2,8,19.1,8c-0.1,0-0.2-0.1-0.4-0.1H18V7h9.1l0.1,3H26l-0.1-0.8c0-0.3-0.1-0.5-0.2-0.7
				c-0.1-0.2-0.2-0.3-0.3-0.4c-0.2-0.1-0.4-0.1-0.6-0.1h-2.4v3.9h3.8v1h-3.8v4.4h2.9c0.2,0,0.4,0,0.6-0.1c0.2-0.1,0.3-0.2,0.4-0.4
				c0.1-0.2,0.2-0.4,0.2-0.6l0.1-0.8h1.2l-0.1,3H18z"/>
		</g>
	</g>
</g>
<g>
	<g transform="translate(60.795969, 54.976488)">
		<g>
			<path class="st1" d="M26.7,18.5c-1.2,0-2.3-0.2-3.1-0.7c-0.8-0.5-1.4-1.2-1.9-2c-0.4-0.9-0.6-1.9-0.6-3.1c0-1.1,0.2-2.1,0.6-3
				c0.4-0.9,1.1-1.6,1.9-2c0.8-0.5,1.9-0.7,3.1-0.7c0.8,0,1.5,0.1,2.1,0.2c0.6,0.2,1,0.4,1.2,0.7c0.3,0.3,0.4,0.6,0.4,0.9
				c0,0.4-0.2,0.8-0.6,1.1c-0.4,0.3-0.9,0.4-1.6,0.4c0-0.3-0.1-0.7-0.2-1c-0.1-0.3-0.3-0.6-0.5-0.9c-0.2-0.2-0.6-0.4-1-0.4
				c-0.6,0-1.1,0.2-1.5,0.6c-0.3,0.4-0.6,0.9-0.8,1.6c-0.2,0.7-0.2,1.5-0.2,2.5c0,1,0.1,1.9,0.3,2.6c0.2,0.7,0.5,1.1,1,1.5
				c0.5,0.3,1.1,0.5,1.8,0.5c0.6,0,1-0.1,1.4-0.2c0.4-0.2,0.7-0.4,1-0.6c0.3-0.2,0.5-0.5,0.7-0.7c0.1,0.1,0.1,0.2,0.2,0.3
				c0,0.1,0.1,0.3,0.1,0.4c0,0.2-0.1,0.5-0.2,0.8c-0.1,0.2-0.3,0.5-0.6,0.7c-0.3,0.2-0.7,0.4-1.2,0.6C28.1,18.4,27.5,18.5,26.7,18.5
				z"/>
		</g>
	</g>
</g>
<g>
	<g transform="translate(68.984822, 54.976488)">
		<g>
			<path class="st1" d="M23.1,18.3v-0.9h0.1c0.2,0,0.4,0,0.5-0.1c0.2-0.1,0.3-0.2,0.4-0.3c0.1-0.2,0.3-0.4,0.4-0.7L27.9,7h2.6
				l3.3,9.4c0.1,0.2,0.2,0.5,0.3,0.6c0.1,0.2,0.3,0.3,0.4,0.3c0.2,0.1,0.3,0.1,0.5,0.1h0.2v0.9h-5.6v-0.9h0.6c0.2,0,0.4,0,0.5-0.1
				c0.1-0.1,0.2-0.2,0.2-0.5c0-0.1,0-0.2,0-0.3c0-0.1,0-0.2-0.1-0.3c0-0.1-0.1-0.1-0.1-0.2l-0.5-1.5h-3.7l-0.4,1.2
				c0,0.1,0,0.2-0.1,0.3c0,0.1-0.1,0.2-0.1,0.4c0,0.1,0,0.2,0,0.3c0,0.2,0,0.3,0.1,0.4c0.1,0.1,0.3,0.1,0.5,0.1h0.7v0.9H23.1z
				 M26.9,13.6h3l-0.9-3c-0.1-0.2-0.1-0.4-0.2-0.6c-0.1-0.2-0.1-0.4-0.2-0.7c-0.1-0.2-0.1-0.4-0.2-0.7c-0.1,0.2-0.1,0.4-0.2,0.7
				c-0.1,0.2-0.1,0.4-0.2,0.6c-0.1,0.2-0.1,0.4-0.2,0.6L26.9,13.6z"/>
		</g>
	</g>
</g>
<g>
	<g transform="translate(78.146843, 54.976488)">
		<g>
			<path class="st1" d="M26.4,18.3v-0.9h0.7c0.1,0,0.2,0,0.4-0.1c0.1-0.1,0.2-0.2,0.3-0.3c0.1-0.1,0.1-0.3,0.1-0.5V8.8
				c0-0.2,0-0.4-0.1-0.5c-0.1-0.1-0.2-0.2-0.3-0.3C27.3,8,27.2,7.9,27,7.9h-0.6V7h5.8v0.9h-0.7c-0.2,0-0.3,0-0.5,0.1
				c-0.1,0.1-0.2,0.1-0.2,0.3c-0.1,0.1-0.1,0.3-0.1,0.5v8.5h2.9c0.2,0,0.4,0,0.6-0.1c0.2-0.1,0.3-0.2,0.4-0.4
				c0.1-0.2,0.2-0.5,0.3-0.8l0.3-1.2h0.9L36,18.3H26.4z"/>
		</g>
	</g>
</g>
<g>
	<g transform="translate(17.775151, 71.470341)">
		<g>
			<path class="st1" d="M6.3,23.8v-0.9h0.6c0.2,0,0.3,0,0.5-0.1c0.1-0.1,0.2-0.2,0.3-0.3c0.1-0.2,0.1-0.4,0.1-0.6v-7.6
				c0-0.3,0-0.5-0.1-0.6c-0.1-0.1-0.2-0.2-0.3-0.2c-0.1-0.1-0.3-0.1-0.4-0.1H6.3v-0.9h5.2c1.6,0,2.8,0.3,3.5,0.9
				c0.8,0.6,1.1,1.4,1.1,2.5c0,0.5-0.1,1-0.3,1.4c-0.2,0.4-0.5,0.8-0.9,1.2c-0.4,0.3-0.9,0.6-1.5,0.8c-0.6,0.2-1.4,0.3-2.3,0.3h-0.5
				V22c0,0.3,0,0.5,0.1,0.6c0.1,0.1,0.2,0.2,0.3,0.2c0.1,0,0.3,0.1,0.4,0.1h0.9v0.9H6.3z M11,18.6c0.4,0,0.7,0,1-0.1
				c0.3-0.1,0.5-0.2,0.6-0.5c0.2-0.2,0.3-0.5,0.4-0.8c0.1-0.3,0.1-0.7,0.1-1.2c0-0.8-0.2-1.4-0.5-1.8c-0.3-0.4-0.8-0.6-1.4-0.6h-0.6
				v5H11z"/>
		</g>
	</g>
</g>
<g>
	<g transform="translate(25.513025, 71.470341)">
		<g>
			<path class="st1" d="M8.9,23.8v-0.9h0.7c0.1,0,0.2,0,0.4-0.1c0.1-0.1,0.2-0.2,0.3-0.3c0.1-0.1,0.1-0.3,0.1-0.5v-7.8
				c0-0.2,0-0.4-0.1-0.5c-0.1-0.1-0.2-0.2-0.3-0.3c-0.1-0.1-0.3-0.1-0.4-0.1H8.9v-0.9h5.8v0.9H14c-0.2,0-0.3,0-0.5,0.1
				c-0.1,0.1-0.2,0.1-0.2,0.3c-0.1,0.1-0.1,0.3-0.1,0.5v8.5h2.9c0.2,0,0.4,0,0.6-0.1c0.2-0.1,0.3-0.2,0.4-0.4
				c0.1-0.2,0.2-0.5,0.3-0.8l0.3-1.2h0.9l-0.1,3.6H8.9z"/>
		</g>
	</g>
</g>
<g>
	<g transform="translate(33.428922, 71.470341)">
		<g>
			<path class="st1" d="M11.2,23.8v-0.9h0.1c0.2,0,0.4,0,0.5-0.1c0.2-0.1,0.3-0.2,0.4-0.3c0.1-0.2,0.3-0.4,0.4-0.7l3.4-9.3h2.6
				l3.3,9.4c0.1,0.2,0.2,0.5,0.3,0.6c0.1,0.2,0.3,0.3,0.4,0.3c0.2,0.1,0.3,0.1,0.5,0.1h0.2v0.9h-5.6v-0.9h0.6c0.2,0,0.4,0,0.5-0.1
				c0.1-0.1,0.2-0.2,0.2-0.5c0-0.1,0-0.2,0-0.3c0-0.1,0-0.2-0.1-0.3c0-0.1-0.1-0.1-0.1-0.2l-0.5-1.5h-3.7l-0.4,1.2
				c0,0.1,0,0.2-0.1,0.3c0,0.1-0.1,0.2-0.1,0.4c0,0.1,0,0.2,0,0.3c0,0.2,0,0.3,0.1,0.4c0.1,0.1,0.3,0.1,0.5,0.1h0.7v0.9H11.2z
				 M15,19.1h3l-0.9-3c-0.1-0.2-0.1-0.4-0.2-0.6c-0.1-0.2-0.1-0.4-0.2-0.7c-0.1-0.2-0.1-0.4-0.2-0.7c-0.1,0.2-0.1,0.4-0.2,0.7
				c-0.1,0.2-0.1,0.4-0.2,0.6c-0.1,0.2-0.1,0.4-0.2,0.6L15,19.1z"/>
		</g>
	</g>
</g>
<g>
	<g transform="translate(42.590943, 71.470341)">
		<g>
			<path class="st1" d="M20.6,24c-1.2,0-2.3-0.2-3.1-0.7c-0.8-0.5-1.4-1.2-1.9-2c-0.4-0.9-0.6-1.9-0.6-3.1c0-1.1,0.2-2.1,0.6-3
				c0.4-0.9,1.1-1.6,1.9-2c0.8-0.5,1.9-0.7,3.1-0.7c0.8,0,1.5,0.1,2.1,0.2c0.6,0.2,1,0.4,1.2,0.7c0.3,0.3,0.4,0.6,0.4,0.9
				c0,0.4-0.2,0.8-0.6,1.1c-0.4,0.3-0.9,0.4-1.6,0.4c0-0.3-0.1-0.7-0.2-1c-0.1-0.3-0.3-0.6-0.5-0.9c-0.2-0.2-0.6-0.4-1-0.4
				c-0.6,0-1.1,0.2-1.5,0.6c-0.3,0.4-0.6,0.9-0.8,1.6c-0.2,0.7-0.2,1.5-0.2,2.5c0,1,0.1,1.9,0.3,2.6c0.2,0.7,0.5,1.1,1,1.5
				c0.5,0.3,1.1,0.5,1.8,0.5c0.6,0,1-0.1,1.4-0.2c0.4-0.2,0.7-0.4,1-0.6c0.3-0.2,0.5-0.5,0.7-0.7c0.1,0.1,0.1,0.2,0.2,0.3
				c0,0.1,0.1,0.3,0.1,0.4c0,0.2-0.1,0.5-0.2,0.8c-0.1,0.2-0.3,0.5-0.6,0.7c-0.3,0.2-0.7,0.4-1.2,0.6C22,23.9,21.4,24,20.6,24z"/>
		</g>
	</g>
</g>
<g>
	<g transform="translate(50.779796, 71.470341)">
		<g>
			<path class="st1" d="M17.3,23.8v-0.9H18c0.2,0,0.3,0,0.4-0.1c0.1-0.1,0.2-0.2,0.2-0.3c0.1-0.1,0.1-0.3,0.1-0.5v-7.7
				c0-0.3,0-0.5-0.1-0.6c-0.1-0.1-0.2-0.2-0.3-0.2c-0.1,0-0.2-0.1-0.4-0.1h-0.7v-0.9h9.1l0.1,3h-1.2l-0.1-0.8c0-0.3-0.1-0.5-0.2-0.7
				c-0.1-0.2-0.2-0.3-0.3-0.4c-0.2-0.1-0.4-0.1-0.6-0.1h-2.4v3.9h3.8v1h-3.8v4.4h2.9c0.2,0,0.4,0,0.6-0.1c0.2-0.1,0.3-0.2,0.4-0.4
				c0.1-0.2,0.2-0.4,0.2-0.6l0.1-0.8H27l-0.1,3H17.3z"/>
		</g>
	</g>
</g>
<g>
	<g transform="translate(58.67196, 71.470341)">
		<g>
			<path class="st1" d="M19.9,23.8v-0.9h0.7c0.2,0,0.3,0,0.4-0.1c0.1-0.1,0.2-0.2,0.2-0.3c0.1-0.1,0.1-0.3,0.1-0.5v-7.8
				c0-0.2,0-0.4-0.1-0.5c-0.1-0.1-0.2-0.2-0.3-0.3c-0.1-0.1-0.3-0.1-0.4-0.1h-0.6v-0.9h5.6v0.9H25c-0.2,0-0.3,0-0.4,0.1
				c-0.1,0.1-0.2,0.1-0.2,0.3c-0.1,0.1-0.1,0.3-0.1,0.5v3.1H28v-3.1c0-0.2,0-0.4-0.1-0.5c-0.1-0.1-0.1-0.2-0.3-0.3
				c-0.1-0.1-0.2-0.1-0.4-0.1h-0.4v-0.9h5.6v0.9h-0.7c-0.1,0-0.3,0-0.4,0.1c-0.1,0.1-0.2,0.2-0.3,0.3c-0.1,0.1-0.1,0.3-0.1,0.5v7.8
				c0,0.2,0,0.3,0.1,0.5c0.1,0.1,0.2,0.2,0.3,0.3c0.1,0.1,0.2,0.1,0.4,0.1h0.7v0.9h-5.6v-0.9h0.4c0.2,0,0.3,0,0.4-0.1
				c0.1-0.1,0.2-0.2,0.3-0.3c0.1-0.1,0.1-0.3,0.1-0.5v-3.5h-3.7v3.6c0,0.2,0,0.3,0.1,0.5c0.1,0.1,0.2,0.2,0.2,0.3
				c0.1,0.1,0.2,0.1,0.4,0.1h0.5v0.9H19.9z"/>
		</g>
	</g>
</g>
<g>
	<g transform="translate(68.510462, 71.470341)">
		<g>
			<path class="st1" d="M29.2,24c-1.2,0-2.3-0.2-3.1-0.7c-0.8-0.5-1.4-1.2-1.8-2c-0.4-0.9-0.6-1.9-0.6-3.1c0-1.2,0.2-2.2,0.6-3
				c0.4-0.9,1-1.5,1.9-2c0.8-0.5,1.8-0.7,3.1-0.7c1.2,0,2.2,0.2,3,0.7c0.8,0.5,1.4,1.1,1.9,2c0.4,0.9,0.6,1.9,0.6,3.1
				c0,1.2-0.2,2.2-0.6,3.1c-0.4,0.9-1.1,1.6-1.9,2C31.4,23.8,30.4,24,29.2,24z M29.2,22.9c0.6,0,1.1-0.2,1.5-0.6
				c0.4-0.4,0.6-0.9,0.8-1.6c0.2-0.7,0.2-1.6,0.2-2.5c0-1-0.1-1.8-0.2-2.5c-0.2-0.7-0.4-1.2-0.8-1.6c-0.4-0.4-0.8-0.6-1.4-0.6
				c-0.9,0-1.6,0.4-1.9,1.2c-0.4,0.8-0.6,2-0.6,3.5c0,1,0.1,1.8,0.2,2.5c0.2,0.7,0.4,1.2,0.8,1.6C28.1,22.7,28.6,22.9,29.2,22.9z"/>
		</g>
	</g>
</g>
<g>
	<g transform="translate(78.06413, 71.470341)">
		<g>
			<path class="st1" d="M26.4,23.8v-0.9h0.7c0.1,0,0.2,0,0.4-0.1c0.1-0.1,0.2-0.2,0.3-0.3c0.1-0.1,0.1-0.3,0.1-0.5v-7.8
				c0-0.2,0-0.4-0.1-0.5c-0.1-0.1-0.2-0.2-0.3-0.3c-0.1-0.1-0.3-0.1-0.4-0.1h-0.6v-0.9h5.8v0.9h-0.7c-0.2,0-0.3,0-0.5,0.1
				c-0.1,0.1-0.2,0.1-0.2,0.3c-0.1,0.1-0.1,0.3-0.1,0.5v8.5h2.9c0.2,0,0.4,0,0.6-0.1c0.2-0.1,0.3-0.2,0.4-0.4
				c0.1-0.2,0.2-0.5,0.3-0.8l0.3-1.2h0.9L36,23.8H26.4z"/>
		</g>
	</g>
</g>
<g>
	<g transform="translate(85.980027, 71.470341)">
		<g>
			<path class="st1" d="M29,23.8v-0.9h0.7c0.2,0,0.3,0,0.4-0.1c0.1-0.1,0.2-0.2,0.2-0.3c0.1-0.1,0.1-0.3,0.1-0.5v-7.7
				c0-0.2,0-0.4-0.1-0.5c-0.1-0.1-0.2-0.2-0.3-0.3c-0.1-0.1-0.3-0.1-0.4-0.1H29v-0.9h5.4c1.2,0,2.2,0.2,3.1,0.6c0.9,0.4,1.5,1,2,1.8
				c0.5,0.8,0.7,1.8,0.7,3c0,1.2-0.2,2.2-0.7,3.1c-0.4,0.9-1.1,1.6-1.9,2.1c-0.8,0.5-1.9,0.8-3.2,0.8H29z M34,22.8
				c0.7,0,1.3-0.2,1.7-0.6c0.5-0.4,0.8-1,1-1.7c0.2-0.7,0.4-1.6,0.4-2.6c0-1-0.1-1.8-0.4-2.4c-0.2-0.6-0.6-1.1-1-1.4
				c-0.5-0.3-1-0.5-1.7-0.5h-0.7v9.2H34z"/>
		</g>
	</g>
</g>
<g>
	<g transform="translate(95.272606, 71.470341)">
		<g>
			<path class="st1" d="M32.1,23.8v-0.9h0.7c0.2,0,0.3,0,0.4-0.1c0.1-0.1,0.2-0.2,0.2-0.3c0.1-0.1,0.1-0.3,0.1-0.5v-7.7
				c0-0.3,0-0.5-0.1-0.6c-0.1-0.1-0.2-0.2-0.3-0.2c-0.1,0-0.2-0.1-0.4-0.1h-0.7v-0.9h9.1l0.1,3h-1.2L40,14.7c0-0.3-0.1-0.5-0.2-0.7
				c-0.1-0.2-0.2-0.3-0.3-0.4c-0.2-0.1-0.4-0.1-0.6-0.1h-2.4v3.9h3.8v1h-3.8v4.4h2.9c0.2,0,0.4,0,0.6-0.1c0.2-0.1,0.3-0.2,0.4-0.4
				c0.1-0.2,0.2-0.4,0.2-0.6l0.1-0.8h1.2l-0.1,3H32.1z"/>
		</g>
	</g>
</g>
<g>
	<g transform="translate(103.16477, 71.470341)">
		<g>
			<path class="st1" d="M34.8,23.8v-0.9h0.5c0.2,0,0.3,0,0.5-0.1c0.1,0,0.3-0.1,0.4-0.2c0.1-0.1,0.1-0.3,0.1-0.6v-7.6
				c0-0.3-0.1-0.5-0.2-0.6c-0.1-0.1-0.2-0.2-0.4-0.2c-0.1-0.1-0.3-0.1-0.4-0.1h-0.5v-0.9h5.5c1.1,0,2,0.1,2.7,0.4
				c0.7,0.2,1.2,0.6,1.5,1c0.3,0.4,0.5,1,0.5,1.6c0,0.6-0.1,1.1-0.3,1.5c-0.2,0.4-0.5,0.7-0.8,0.9c-0.3,0.2-0.7,0.4-1.1,0.5l1.9,3.1
				c0.3,0.5,0.5,0.8,0.8,1.1c0.2,0.2,0.4,0.3,0.7,0.3H46v0.9h-0.6c-0.6,0-1.2,0-1.6-0.1c-0.5-0.1-0.9-0.2-1.2-0.4
				c-0.3-0.2-0.6-0.5-0.8-0.9L40,18.9h-0.9V22c0,0.3,0,0.5,0.1,0.6c0.1,0.1,0.2,0.2,0.3,0.2c0.1,0,0.3,0.1,0.4,0.1h0.4v0.9H34.8z
				 M39.9,18c0.7,0,1.2-0.2,1.5-0.6c0.3-0.4,0.5-1,0.5-1.7c0-0.5-0.1-0.9-0.2-1.2c-0.1-0.3-0.4-0.6-0.6-0.7
				c-0.3-0.2-0.6-0.2-1.1-0.2h-0.8V18H39.9z"/>
		</g>
	</g>
</g>
</svg>
