<?xml version="1.0" encoding="utf-8"?>
<!-- Generator: Adobe Illustrator 26.1.0, SVG Export Plug-In . SVG Version: 6.00 Build 0)  -->
<svg version="1.1" id="Layer_1" xmlns="http://www.w3.org/2000/svg" xmlns:xlink="http://www.w3.org/1999/xlink" x="0px" y="0px"
	 viewBox="0 0 167 167" style="enable-background:new 0 0 167 167;" xml:space="preserve">
<style type="text/css">
	.st0{fill:#BFBFBF;}
	.st1{fill:#E0E0E0;}
	.st2{fill:#AFAFAF;}
</style>
<g>
	<g>
		<path class="st0" d="M162.4,60l-20-31.9c-1-1.6-2.8-2.6-4.6-2.6H28.7c-1.9,0-3.6,1-4.6,2.6L4,60l2.4,4h153.5L162.4,60z"/>
	</g>
</g>
<g>
	<g>
		<path class="st1" d="M151.7,83.2v32.9c0,3,2.5,5.5,5.5,5.5h2.7c1.5,0,2.7,1.2,2.7,2.7v13.7c0,1.5-1.2,2.7-2.7,2.7H6.4
			c-1.5,0-2.7-1.2-2.7-2.7v-13.7c0-1.5,1.2-2.7,2.7-2.7h2.7c3,0,5.5-2.5,5.5-5.5V83.2c0-3-2.5-5.5-5.5-5.5H6.4
			c-1.5,0-2.7-1.2-2.7-2.7V61.3c0-1.5,1.2-2.7,2.7-2.7h153.5c1.5,0,2.7,1.2,2.7,2.7V75c0,1.5-1.2,2.7-2.7,2.7h-2.7
			C154.2,77.7,151.7,80.2,151.7,83.2z"/>
	</g>
</g>
<path class="st0" d="M75,77.7H28.4c-1.5,0-2.7,1.2-2.7,2.7v38.4c0,0.8,0.4,1.6,1,2.1c0.5,0.4,1.1,0.6,1.8,0.6H75
	c1.5,0,2.7-1.2,2.7-2.7V80.5C77.7,79,76.5,77.7,75,77.7z"/>
<path class="st2" d="M39.3,77.7L26.6,121c-0.6-0.5-1-1.3-1-2.1V80.5c0-1.5,1.2-2.7,2.7-2.7H39.3z"/>
<path class="st0" d="M91.4,77.7H138c1.5,0,2.7,1.2,2.7,2.7v38.4c0,0.8-0.4,1.6-1,2.1c-0.5,0.4-1.1,0.6-1.8,0.6H91.4
	c-1.5,0-2.7-1.2-2.7-2.7V80.5C88.7,79,89.9,77.7,91.4,77.7z"/>
<path class="st2" d="M127,77.7l12.7,43.3c0.6-0.5,1-1.3,1-2.1V80.5c0-1.5-1.2-2.7-2.7-2.7H127z"/>
</svg>
