<?xml version="1.0" encoding="utf-8"?>
<!-- Generator: Adobe Illustrator 26.1.0, SVG Export Plug-In . SVG Version: 6.00 Build 0)  -->
<svg version="1.1" id="Layer_1" xmlns="http://www.w3.org/2000/svg" xmlns:xlink="http://www.w3.org/1999/xlink" x="0px" y="0px"
	 viewBox="0 0 167 167" style="enable-background:new 0 0 167 167;" xml:space="preserve">
<style type="text/css">
	.st0{fill:#474B51;}
	.st1{fill:#7C7D7D;}
	.st2{fill:#292C2F;}
	.st3{fill:#101213;}
	.st4{fill:#8E8F90;}
	.st5{fill:#2D3034;}
	.st6{fill:#1D2022;}
	.st7{fill:#CBCBCB;}
	.st8{fill:#3B3E43;}
	.st9{fill:#646666;}
	.st10{fill:#242629;}
	.st11{fill:#727474;}
	.st12{fill:#27292D;}
	.st13{fill:#1A1D1F;}
</style>
<g>
	<g>
		<path class="st0" d="M69.4,25.3c-4.6,1-36.7,9.7-38.7,11.9S20.2,56.1,19.7,56.9c-0.4,0.8,1.4,18.5,1.6,19.3
			c0.2,0.8,17.2,47.1,18,48.1c0.8,1,6.8,6.4,6.9,7.4c0.2,1,33,9.9,33,9.9s25.9,0.2,26.5,0c0.6-0.2,26.7-6.6,26.7-6.6
			s20-42.8,19.5-43.8c-0.4-1-20-37.2-21.2-37.7c-1.2-0.6-31.4-22.9-32.2-23.4C97.8,29.5,69.4,25.3,69.4,25.3"/>
	</g>
</g>
<g>
	<g>
		<path class="st1" d="M132.5,135L132.5,135L132.5,135 M132.5,135L132.5,135L132.5,135 M132.5,135c0.6-1.4,19.5-41.7,19.5-43.7
			C151.9,93.3,133.1,133.7,132.5,135"/>
	</g>
</g>
<path class="st2" d="M106.2,140.3c-2.2,0-29.7-13.4-30.6-13.4c-0.1,0-0.7-0.1-1.7-0.2c3.8-8.1,7-14.9,7.1-15l-5.1-13.4
	c0,0,0,0,0.1,0c0.5,0,3.2-2.8,5.9-5.6c0.2-0.2,0.4-0.5,0.6-0.6l5.3-5c0.1,0,0.4,0,0.6,0c0.8,0,2.2,0,3.6-0.1c1.5,0,3.2-0.1,4.6-0.1
	c1.9,0,3.3,0.1,3.5,0.3c0.5,0.6,23.1,20,23.1,20l-2.5,20.1C120.8,127.4,107.8,140.1,106.2,140.3L106.2,140.3"/>
<g>
	<g>
		<path class="st3" d="M120.8,127.4c0,0-12.9,12.7-14.5,13c-1.6,0.3-29.8-13.4-30.7-13.4c-0.8,0-29.2-3.5-37-4.5
			c0.5,1.1,0.7,1.8,0.8,1.9c0.8,1,6.8,6.4,6.9,7.4c0.2,1,33,9.9,33,9.9s25.9,0.2,26.5,0c0.6-0.2,26.7-6.6,26.7-6.6
			s20-42.8,19.5-43.8l-28.7,16L120.8,127.4"/>
	</g>
</g>
<path class="st4" d="M51.3,133.6L51.3,133.6L51.3,133.6 M51.3,133.6c-3-0.9-5-1.6-5-1.9l0,0l0,0l0,0l0,0l0,0l0,0l0,0l0,0l0,0l0,0
	l0,0l0,0l0,0l0,0l0,0l0,0l0,0l0,0l0,0l0,0l0,0l0,0l0,0l0,0l0,0l0,0l0,0l0,0l0,0l0,0l0,0l0,0l0,0l0,0l0,0l0,0l0,0l0,0l0,0l0,0l0,0
	l0,0l0,0l0,0l0,0l0,0l0,0l0,0l0,0l0,0l0,0l0,0l0,0l0,0l0,0l0,0l0,0l0,0l0,0l0,0l0,0C47,132.1,48.8,132.8,51.3,133.6"/>
<path class="st5" d="M55.9,135c-1.7-0.5-3.2-1-4.6-1.4l0,0l0,0c-2.4-0.8-4.2-1.4-4.9-1.7c0.5,0.3,2.1,0.9,4.3,1.5
	C52.3,133.8,54.1,134.4,55.9,135 M46.5,131.9L46.5,131.9L46.5,131.9 M46.5,131.9L46.5,131.9L46.5,131.9 M46.4,131.8L46.4,131.8
	 M46.4,131.8L46.4,131.8L46.4,131.8 M46.4,131.8L46.4,131.8L46.4,131.8 M46.4,131.8L46.4,131.8L46.4,131.8 M46.4,131.8L46.4,131.8
	L46.4,131.8 M46.4,131.8L46.4,131.8L46.4,131.8 M46.4,131.8L46.4,131.8L46.4,131.8 M46.4,131.8L46.4,131.8 M46.4,131.8L46.4,131.8
	L46.4,131.8 M46.4,131.8L46.4,131.8 M46.4,131.8L46.4,131.8L46.4,131.8 M46.4,131.8L46.4,131.8 M46.4,131.8L46.4,131.8L46.4,131.8
	 M46.4,131.8L46.4,131.8L46.4,131.8 M46.4,131.8L46.4,131.8L46.4,131.8 M46.4,131.8L46.4,131.8 M46.4,131.8L46.4,131.8L46.4,131.8
	 M46.4,131.8L46.4,131.8 M46.4,131.8L46.4,131.8L46.4,131.8 M46.4,131.8L46.4,131.8 M46.4,131.8L46.4,131.8L46.4,131.8 M46.4,131.8
	L46.4,131.8 M46.4,131.8L46.4,131.8L46.4,131.8 M46.4,131.8L46.4,131.8 M46.4,131.8L46.4,131.8L46.4,131.8 M46.4,131.8L46.4,131.8
	 M46.4,131.8L46.4,131.8L46.4,131.8 M46.4,131.8L46.4,131.8 M46.4,131.8L46.4,131.8 M46.4,131.8L46.4,131.8 M46.4,131.8L46.4,131.8
	 M46.4,131.8L46.4,131.8L46.4,131.8 M46.4,131.8L46.4,131.8 M46.4,131.8L46.4,131.8 M46.4,131.8L46.4,131.8 M46.3,131.8L46.3,131.8
	L46.3,131.8 M46.3,131.8L46.3,131.8 M46.3,131.8L46.3,131.8 M46.3,131.8L46.3,131.8 M46.3,131.8L46.3,131.8 M46.3,131.8L46.3,131.8
	 M46.3,131.8L46.3,131.8L46.3,131.8 M46.3,131.8L46.3,131.8L46.3,131.8 M46.3,131.8L46.3,131.8 M46.3,131.8L46.3,131.8 M46.3,131.8
	L46.3,131.8 M46.3,131.8L46.3,131.8 M46.3,131.8L46.3,131.8L46.3,131.8 M46.3,131.8L46.3,131.8 M46.3,131.8L46.3,131.8L46.3,131.8
	 M46.3,131.8L46.3,131.8 M46.3,131.8L46.3,131.8L46.3,131.8 M46.3,131.8L46.3,131.8L46.3,131.8 M46.3,131.8L46.3,131.8 M46.3,131.8
	L46.3,131.8 M46.3,131.8L46.3,131.8 M46.3,131.7L46.3,131.7 M46.3,131.7L46.3,131.7 M46.3,131.7L46.3,131.7 M46.3,131.7L46.3,131.7
	 M46.3,131.7L46.3,131.7 M46.3,131.7L46.3,131.7 M46.3,131.7L46.3,131.7 M46.3,131.7L46.3,131.7 M46.3,131.7L46.3,131.7L46.3,131.7"
	/>
<path class="st6" d="M73.8,126.7L73.8,126.7l7.1-15C80.8,111.8,77.6,118.6,73.8,126.7"/>
<path class="st5" d="M39.4,124.3C39.3,124.3,39.3,124.3,39.4,124.3C39.3,124.3,39.3,124.3,39.4,124.3 M39.3,124.3L39.3,124.3
	 M39.3,124.3L39.3,124.3L39.3,124.3 M39.3,124.3L39.3,124.3 M39.3,124.3L39.3,124.3L39.3,124.3 M39.3,124.3L39.3,124.3L39.3,124.3
	 M39.3,124.3c0,0-0.1-0.1-0.1-0.3l0,0C39.3,124.2,39.3,124.2,39.3,124.3"/>
<path class="st3" d="M68.3,138.5c-4-1.1-8.5-2.4-12.3-3.5c-1.9-0.5-3.7-1.1-5.1-1.6C55.2,134.8,62.2,136.8,68.3,138.5l5.5-11.8l0,0
	C72,130.6,70,134.7,68.3,138.5 M46.3,131.7L46.3,131.7 M46.3,131.7L46.3,131.7L46.3,131.7 M46.3,131.7L46.3,131.7 M46.3,131.7
	L46.3,131.7L46.3,131.7 M46.3,131.7L46.3,131.7 M46.3,131.7L46.3,131.7 M46.3,131.7L46.3,131.7L46.3,131.7 M46.3,131.7L46.3,131.7
	L46.3,131.7 M46.3,131.7L46.3,131.7 M46.3,131.7L46.3,131.7 M46.3,131.7L46.3,131.7L46.3,131.7 M46.3,131.7L46.3,131.7L46.3,131.7
	 M46.3,131.7L46.3,131.7 M46.3,131.7L46.3,131.7L46.3,131.7 M46.3,131.7L46.3,131.7L46.3,131.7 M46.3,131.7L46.3,131.7 M46.3,131.7
	C46.3,131.7,46.2,131.7,46.3,131.7C46.2,131.7,46.3,131.7,46.3,131.7 M46.2,131.7L46.2,131.7 M46.2,131.7L46.2,131.7 M46.2,131.7
	L46.2,131.7L46.2,131.7 M46.2,131.7L46.2,131.7L46.2,131.7 M46.2,131.7L46.2,131.7 M46.2,131.7L46.2,131.7L46.2,131.7 M46.2,131.7
	L46.2,131.7 M46.2,131.7L46.2,131.7 M46.2,131.7L46.2,131.7 M39.2,124.1L39.2,124.1 M39.2,124.1C39.2,124,39.2,124,39.2,124.1
	c-0.1-0.3-0.3-0.7-0.5-1.3C38.9,123.4,39.1,123.8,39.2,124.1 M38.7,122.9L38.7,122.9L38.7,122.9 M38.7,122.8L38.7,122.8L38.7,122.8
	 M38.7,122.8L38.7,122.8 M38.7,122.8L38.7,122.8L38.7,122.8"/>
<g>
	<g>
		<path class="st7" d="M30.6,37.2c1.5-1.7,21-7.2,31.9-10.2C51.6,30,32.2,35.6,30.6,37.2 M69.5,25.3C69.4,25.3,69.4,25.3,69.5,25.3
			L69.5,25.3"/>
	</g>
</g>
<g>
	<g>
		<path class="st8" d="M75.8,98.3C75.4,97.6,38.6,85,38.6,85s-6.8-23-6.8-23.4s-1.2-24.4-1.2-24.4c1.5-1.7,21-7.2,31.9-10.2
			c3.2-0.9,5.8-1.5,6.8-1.7c0,0,0,0,0.1,0c0.1,0,0.3,0,0.5,0.1c-0.4,9.7-1.2,35.3-1.1,35.7c0.2,0.5,18.7,26.1,18.7,26.1l0,0
			c-0.4,0-2.8,2.4-5.2,5L75.8,98.3"/>
	</g>
</g>
<path class="st9" d="M30.1,100.2c-4.4-11.8-8.6-23.6-8.8-24c-0.1-0.4-0.5-4.2-0.9-8.4c0.4,4.1,0.8,8,0.9,8.4
	C21.5,76.6,25.8,88.4,30.1,100.2 M30.4,37.6c0.1-0.1,0.2-0.2,0.2-0.3C30.5,37.4,30.5,37.5,30.4,37.6"/>
<path class="st10" d="M39.4,124.3L39.4,124.3 M39.4,124.3L39.4,124.3 M39.4,124.3L39.4,124.3 M39.4,124.3L39.4,124.3L39.4,124.3
	 M39.4,124.3L39.4,124.3 M39.3,124.3L39.3,124.3 M38.5,122.4c-1.5-3.9-5-13.1-8.4-22.2c-4.4-11.8-8.6-23.6-8.8-24
	c-0.1-0.4-0.5-4.2-0.9-8.4c-0.4-4.1-0.7-8.5-0.7-10.2c0-0.4,0-0.6,0.1-0.7c0.4-0.7,8.2-16.2,10.6-19.4c0.1-0.1,0.2-0.2,0.2-0.3
	c0,0,0,0,0.1-0.1c0,0,1.2,24,1.2,24.4S38.6,85,38.6,85s36.8,12.7,37.3,13.2L38.5,85l-11,8.1C31.6,104.3,36.6,117.5,38.5,122.4
	 M82.4,92.1c2.5-2.6,4.9-5,5.2-5l0,0L82.4,92.1"/>
<path class="st3" d="M39.4,124.3L39.4,124.3L39.4,124.3 M39.4,124.3L39.4,124.3L39.4,124.3 M39.4,124.3L39.4,124.3 M39.4,124.3
	L39.4,124.3 M38.7,122.9L38.7,122.9L38.7,122.9 M38.7,122.8L38.7,122.8L38.7,122.8 M38.7,122.8L38.7,122.8L38.7,122.8 M38.7,122.8
	L38.7,122.8L38.7,122.8 M38.7,122.8c-0.1-0.1-0.1-0.2-0.2-0.4C38.6,122.5,38.6,122.7,38.7,122.8"/>
<path class="st11" d="M46.4,131.8L46.4,131.8 M46.4,131.8L46.4,131.8 M46.4,131.8L46.4,131.8 M46.4,131.8L46.4,131.8L46.4,131.8
	 M46.4,131.8L46.4,131.8 M46.4,131.8L46.4,131.8 M46.4,131.8L46.4,131.8 M46.4,131.8L46.4,131.8 M46.4,131.8L46.4,131.8 M46.4,131.8
	L46.4,131.8 M46.4,131.8L46.4,131.8 M46.4,131.8L46.4,131.8 M46.4,131.8L46.4,131.8 M46.4,131.8L46.4,131.8 M46.4,131.8L46.4,131.8
	 M46.4,131.8L46.4,131.8 M46.4,131.8L46.4,131.8 M46.4,131.8L46.4,131.8 M46.4,131.8L46.4,131.8L46.4,131.8 M46.4,131.8L46.4,131.8
	 M46.4,131.8L46.4,131.8 M46.4,131.8L46.4,131.8 M46.4,131.8L46.4,131.8L46.4,131.8 M46.4,131.8L46.4,131.8 M46.4,131.8L46.4,131.8
	 M46.4,131.8L46.4,131.8L46.4,131.8 M46.4,131.8L46.4,131.8L46.4,131.8 M46.4,131.8L46.4,131.8 M46.4,131.8L46.4,131.8 M46.4,131.8
	L46.4,131.8L46.4,131.8 M46.4,131.8L46.4,131.8L46.4,131.8 M46.4,131.8L46.4,131.8L46.4,131.8 M46.3,131.8L46.3,131.8 M46.3,131.8
	L46.3,131.8 M46.3,131.8L46.3,131.8L46.3,131.8 M46.3,131.8L46.3,131.8L46.3,131.8 M46.3,131.8L46.3,131.8 M46.3,131.8L46.3,131.8
	L46.3,131.8 M46.3,131.8L46.3,131.8 M46.3,131.8L46.3,131.8 M46.3,131.8L46.3,131.8 M46.3,131.8L46.3,131.8 M46.3,131.8L46.3,131.8
	L46.3,131.8 M46.3,131.8L46.3,131.8 M46.3,131.8L46.3,131.8L46.3,131.8 M46.3,131.8L46.3,131.8 M46.3,131.8L46.3,131.8L46.3,131.8
	 M46.3,131.8L46.3,131.8 M46.3,131.8L46.3,131.8L46.3,131.8 M46.3,131.8L46.3,131.8 M46.3,131.8L46.3,131.8 M46.3,131.8L46.3,131.8
	L46.3,131.8 M46.3,131.8L46.3,131.8 M46.3,131.8L46.3,131.8 M46.3,131.8L46.3,131.8 M46.3,131.8L46.3,131.8 M46.3,131.8L46.3,131.8
	 M46.3,131.8L46.3,131.8 M46.3,131.8L46.3,131.8L46.3,131.8 M46.3,131.8L46.3,131.8L46.3,131.8 M46.3,131.7L46.3,131.7 M46.3,131.7
	L46.3,131.7 M46.3,131.7L46.3,131.7L46.3,131.7 M46.3,131.7L46.3,131.7 M46.3,131.7L46.3,131.7L46.3,131.7 M46.3,131.7L46.3,131.7
	L46.3,131.7 M46.3,131.7L46.3,131.7 M46.3,131.7L46.3,131.7 M46.3,131.7L46.3,131.7L46.3,131.7 M46.3,131.7L46.3,131.7L46.3,131.7
	 M46.3,131.7L46.3,131.7 M46.3,131.7L46.3,131.7 M46.3,131.7L46.3,131.7 M46.3,131.7L46.3,131.7 M46.3,131.7L46.3,131.7 M46.3,131.7
	L46.3,131.7 M46.3,131.7L46.3,131.7 M46.2,131.7L46.2,131.7"/>
<path class="st12" d="M50.7,133.4c-2.2-0.7-3.8-1.3-4.3-1.5l0,0l0,0l0,0l0,0l0,0l0,0l0,0l0,0l0,0l0,0l0,0l0,0l0,0l0,0l0,0l0,0l0,0
	l0,0l0,0l0,0l0,0l0,0l0,0l0,0l0,0l0,0l0,0l0,0l0,0l0,0l0,0l0,0l0,0l0,0l0,0l0,0l0,0l0,0l0,0l0,0l0,0l0,0l0,0l0,0l0,0l0,0l0,0l0,0
	C46.6,132,48.3,132.6,50.7,133.4 M46.3,131.7L46.3,131.7 M46.3,131.7L46.3,131.7L46.3,131.7L46.3,131.7 M46.3,131.7L46.3,131.7
	 M46.3,131.7L46.3,131.7"/>
<path class="st13" d="M73.8,126.7c-6.4-0.7-28.5-3.5-35.2-4.3c-2-4.9-6.9-18.2-11-29.3l11-8.1l37.3,13.2l5,13.4L73.8,126.7"/>
<path class="st13" d="M39.4,124.3C39.3,124.3,39.3,124.3,39.4,124.3C39.3,124.3,39.3,124.3,39.4,124.3
	C39.3,124.3,39.3,124.3,39.4,124.3C39.3,124.3,39.3,124.3,39.4,124.3c0-0.1-0.1-0.1-0.1-0.2C39.3,124.2,39.3,124.3,39.4,124.3
	 M39.2,124.1L39.2,124.1"/>
<path class="st3" d="M68.2,138.5c-5.9-1.7-13-3.7-17.5-5.1c-2.5-0.8-4.1-1.4-4.5-1.7l0,0l0,0l0,0l0,0l0,0l0,0l0,0l0,0l0,0l0,0l0,0
	l0,0l0,0c-0.2-1-6.1-6.4-6.9-7.4l0,0l0,0l0,0c0,0-0.1-0.1-0.1-0.2c-0.1-0.3-0.3-0.6-0.5-1.3l0,0l0,0l0,0l0,0l0,0l0,0l0,0
	c-0.1-0.1-0.1-0.2-0.2-0.4c6.8,0.8,28.8,3.6,35.2,4.3L68.2,138.5"/>
</svg>
