<?xml version="1.0" encoding="utf-8"?>
<!-- Generator: Adobe Illustrator 26.1.0, SVG Export Plug-In . SVG Version: 6.00 Build 0)  -->
<svg version="1.1" id="Layer_1" xmlns="http://www.w3.org/2000/svg" xmlns:xlink="http://www.w3.org/1999/xlink" x="0px" y="0px"
	 viewBox="0 0 167 167" style="enable-background:new 0 0 167 167;" xml:space="preserve">
<style type="text/css">
	.st0{fill-rule:evenodd;clip-rule:evenodd;fill:#E0E0E0;}
	.st1{fill-rule:evenodd;clip-rule:evenodd;fill:#9E9E9E;}
	.st2{fill-rule:evenodd;clip-rule:evenodd;fill:#616161;}
</style>
<path class="st0" d="M3.6,77.9L30,62.6l15.9,9.2L19.5,87L3.6,77.9z"/>
<path class="st0" d="M82.9,32L3.6,77.9l79.3,45.9l79.3-45.9L82.9,32z"/>
<path class="st1" d="M19.5,87l26.4-15.3l15.9,9.2L35.3,96.2L19.5,87z"/>
<path class="st0" d="M35.3,96.2l26.4-15.3l15.9,9.2l-26.4,15.3L35.3,96.2z"/>
<path class="st1" d="M51.2,105.4l26.4-15.3l15.9,9.2L67,114.5L51.2,105.4z"/>
<path class="st0" d="M67,114.5l26.4-15.3l15.9,9.2l-26.4,15.3L67,114.5z"/>
<path class="st2" d="M3.9,88l79.3,45.9L162.4,88V77.9l-79.3,45.9L3.9,77.9V88z"/>
<path class="st1" d="M30,62.6l26.4-15.3l15.9,9.2L45.9,71.7L30,62.6z"/>
<path class="st0" d="M45.9,71.7l26.4-15.3l15.9,9.2L61.7,80.9L45.9,71.7z"/>
<path class="st1" d="M61.7,80.9l26.4-15.3l15.9,9.2L77.6,90.1L61.7,80.9z"/>
<path class="st0" d="M77.6,90.1L104,74.8l15.9,9.2L93.4,99.3L77.6,90.1z"/>
<path class="st1" d="M93.4,99.3L119.9,84l15.9,9.2l-26.4,15.3L93.4,99.3z"/>
<path class="st0" d="M56.4,47.3L82.9,32l15.9,9.2L72.3,56.5L56.4,47.3z"/>
<path class="st1" d="M72.3,56.5l26.4-15.3l15.9,9.2L88.2,65.6L72.3,56.5z"/>
<path class="st0" d="M88.2,65.6l26.4-15.3l15.9,9.2L104,74.8L88.2,65.6z"/>
<path class="st1" d="M104,74.8l26.4-15.3l15.9,9.2L119.9,84L104,74.8z"/>
<path class="st0" d="M119.9,84l26.4-15.3l15.9,9.2l-26.4,15.3L119.9,84z"/>
<g>
	<g>
		<path class="st2" d="M82.9,30L82.9,30L82.9,30l-0.2,0l-0.1,0h0l0,0l0,0l0,0l0,0l-0.1,0l0,0l0,0l-0.1,0l0,0l0,0l-0.1,0l0,0l0,0
			l-0.1,0l0,0l0,0l-0.1,0l0,0l0,0L2.6,76.1l0,0l0,0l0,0l0,0l0,0l0,0l-0.1,0.1l0,0l-0.1,0l0,0l0,0l0,0l0,0l0,0l0,0L2,76.6l0,0l0,0
			l0,0l0,0l0,0l0,0l0,0l0,0l0,0l0,0c0,0,0,0,0,0l0,0.1l0,0l0,0l0,0l0,0l0,0.1l0,0l0,0l0,0l0,0l0,0l0,0l0,0l0,0.1l0,0l0,0v0l0,0l0,0
			V78l0,0l0,0v0l0,0.1l0,0.1l0,0l0,0.1l0,0.1l0,0l0,0l0,0.1l0,0l0,0l0,0l0,0l0,0l0,0l0,0.1l0,0.1l0,0.1l0,0V88c0,0.7,0.4,1.4,1,1.8
			l79.3,45.9c0.6,0.4,1.4,0.4,2,0l79.3-45.9c0.6-0.4,1-1,1-1.8V77.9c0-0.7-0.4-1.4-1-1.8c-0.2-0.1-0.5-0.2-0.7-0.3L83.9,30.2l0,0
			l0,0l-0.1,0l0,0l-0.1,0l0,0l0,0l-0.1,0l0,0l0,0l0,0l0,0l0,0l0,0l0,0l0,0l-0.1,0h0l0,0l0,0L82.9,30L82.9,30L82.9,30z M5.9,81.6v5.3
			l77.2,44.7l77.2-44.7v-5.5l-76.2,44.1c-0.4,0.2-0.8,0.3-1.2,0.3h0l0,0h-0.2l0,0h0l-0.1,0h0l0,0l0,0l0,0l0,0l-0.1,0l0,0l0,0l-0.1,0
			l0,0l0,0l-0.1,0l0,0l0,0l-0.1,0l0,0l0,0l-0.1,0l0,0L5.9,81.6z M86.4,105.7l-15.2,8.8l11.8,6.8l22.2-12.9l-11.8-6.8L86.4,105.7z
			 M70.6,96.5l-15.2,8.8l11.8,6.8l22.2-12.8l-11.8-6.8L70.6,96.5z M112.8,90.4l-15.3,8.9l11.8,6.8l0.4-0.3l21.9-12.7l-11.8-6.8
			L112.8,90.4z M54.7,87.3l-15.2,8.8l11.8,6.8l22.2-12.8l-11.8-6.8L54.7,87.3z M97,81.2l-15.3,8.9l11.8,6.8L115.8,84L104,77.2
			L97,81.2z M38.9,78.2l-15.2,8.8l11.8,6.8l22.2-12.9l-11.8-6.8L38.9,78.2z M139.3,75.1L123.9,84l11.8,6.8l0.9-0.5l21.5-12.4
			L146.3,71L139.3,75.1z M81.1,72l-15.3,8.9l11.8,6.8l22.4-12.9L88.2,68L81.1,72z M15.2,73.5l-7.4,4.3l11.8,6.8l22.2-12.9L30,64.9
			L15.2,73.5z M123.4,65.9l-15.3,8.9l11.8,6.8l22.4-12.9l-11.8-6.8L123.4,65.9z M65.3,62.9l-15.3,8.9l11.8,6.8l22.4-12.9l-11.8-6.8
			L65.3,62.9z M107.6,56.8l-15.3,8.9l11.8,6.8l22.4-12.9l-11.8-6.8L107.6,56.8z M47.5,54.8l-13.4,7.8l11.8,6.8l22.4-12.9l-11.8-6.8
			L47.5,54.8z M91.7,47.6l-15.3,8.9l11.8,6.8l22.4-12.9l-11.8-6.8L91.7,47.6z M79.8,36.1L60.5,47.3l11.8,6.8l22.4-12.9l-11.8-6.8
			L79.8,36.1z"/>
	</g>
</g>
</svg>
