<?xml version="1.0" encoding="utf-8"?>
<!-- Generator: Adobe Illustrator 26.1.0, SVG Export Plug-In . SVG Version: 6.00 Build 0)  -->
<svg version="1.1" id="a" xmlns="http://www.w3.org/2000/svg" xmlns:xlink="http://www.w3.org/1999/xlink" x="0px" y="0px"
	 viewBox="0 0 31.7 30.3" style="enable-background:new 0 0 31.7 30.3;" xml:space="preserve">
<style type="text/css">
	.st0{fill:#D8A155;}
	.st1{fill:#CCCCCC;}
	.st2{fill-rule:evenodd;clip-rule:evenodd;fill:#CCCCCC;}
	.st3{fill-rule:evenodd;clip-rule:evenodd;fill:#D8A155;}
	.st4{fill-rule:evenodd;clip-rule:evenodd;fill:#B3B3B3;}
</style>
<path class="st0" d="M21.7,8.7c0,0.1,0,0.3,0,0.4v5.5c0,0.2,0,0.3,0,0.5V17c0,0.4,0,0.8,0,1.2c0,0.4,0,0.8,0,1.2v1.3
	c0,0.1,0,0.3,0,0.4c0,0.1,0,0.2,0,0.3c0,0.2,0,0.4-0.1,0.6c-0.1,0.2-0.3,0.2-0.4,0.1c0,0-0.1-0.1-0.1-0.1c0-0.1,0-0.1,0-0.2v-6.8
	c0-0.6,0-1.2,0-1.8c0-0.3,0-0.6,0-0.9c0-0.3,0-0.6,0-0.9v-0.9c0-0.3,0-0.6,0-0.9V8.2c0,0,0-0.1,0.1-0.1c0-0.1,0.1-0.2,0.2-0.3
	c0,0,0.1-0.1,0.2-0.1c0.1,0,0.1,0.2,0.2,0.2c0.1,0.2,0.1,0.3,0,0.5C21.7,8.5,21.7,8.6,21.7,8.7L21.7,8.7L21.7,8.7z"/>
<path class="st1" d="M22.7,5.4c0-0.1,0-0.2-0.1-0.2c-0.2-0.3-0.6-0.4-0.9-0.4c-0.2,0-0.4,0-0.6,0c-0.1,0-0.3,0-0.4,0.1
	S20.4,5,20.3,5.1c-0.1,0.1-0.1,0.3-0.1,0.5c0,0.4,0,0.8,0.1,1.3c0.1,0.7,0.2,1.5,0.8,1.9c0.3,0.2,0.6,0.1,0.8-0.1
	c0.2-0.2,0.3-0.5,0.4-0.8c0.1-0.4,0.2-0.8,0.3-1.2c0-0.2,0.1-0.4,0.1-0.6C22.7,5.8,22.7,5.6,22.7,5.4L22.7,5.4L22.7,5.4z M22.2,6.3
	c-0.1,0.1-0.2,0.3-0.3,0.4c-0.1,0.1-0.3,0.1-0.5,0.1c-0.3,0-0.6-0.3-0.7-0.6c0-0.2-0.1-0.3-0.1-0.5c0-0.1,0-0.2,0-0.2
	c0-0.1,0.1-0.1,0.2-0.1c0.2-0.1,0.3,0,0.5,0c0.2,0,0.4,0,0.6,0c0.1,0,0.2,0,0.2,0c0.1,0,0.1,0.2,0.1,0.2C22.3,5.9,22.2,6.1,22.2,6.3
	L22.2,6.3L22.2,6.3L22.2,6.3z"/>
<path class="st1" d="M24,23.2c0,0.2,0,0.5,0,0.7v0.2c0,0.1,0,0.2,0,0.3c0,0,0,0.1,0,0.1v0.1c0,0,0,0.1-0.1,0.1c-0.1,0-0.1,0-0.2-0.1
	c0-0.1,0-0.2,0-0.3v-2.2c0,0,0-0.1,0-0.1c0-0.1-0.1-0.2-0.2-0.2c-0.1,0-0.3,0-0.5,0c0,0-0.1,0-0.1,0.1c0,0.2,0,0.4,0,0.6V24l0,0v0.3
	c0,0.3,0,0.4,0,0.6v0c0,0.1,0,0.1-0.1,0.2c0,0-0.1,0-0.1,0c-0.1-0.1-0.1-0.6-0.2-0.8c0-0.1,0-0.3,0-0.4c0-0.3,0-0.7,0-1l0-0.3V22
	c0-0.1-0.1-0.2-0.2-0.2h-0.3c0,0,0,0,0,0l0,0c0,0,0,0,0,0c0,0,0,0,0,0.1c0,0.1,0,0.1,0,0.2c0,0.2,0,0.4,0,0.7V23c0,0.3,0,0.7,0,1
	c0,0.3,0,0.5,0,0.8V25c0,0.1,0,0.1-0.1,0.1c-0.1,0-0.1,0-0.1-0.1c0,0,0-0.1,0-0.1v-0.1c0-0.2,0-0.4,0-0.5v-0.5c0-0.4,0-0.8,0-1.3
	v-0.2c0-0.1,0-0.1-0.1-0.2c-0.1,0-0.3-0.1-0.4,0c-0.1,0-0.1,0.1-0.1,0.1c0,0.1,0,0.2,0,0.3c0,0.1,0,0.1,0,0.2c0,0.2,0,0.4,0,0.7v0.1
	c0,0.1,0,0.1,0,0.2l0,0.4l0,0.6c0,0.1,0,0.3,0,0.4c0,0,0,0.1,0,0.2c0,0,0,0.1-0.1,0.1l0,0c0,0-0.1,0-0.1-0.1c0,0,0-0.1,0-0.1V24
	c0-0.1,0-0.2,0-0.4c0-0.2,0-0.4,0-0.6v-0.8c0-0.1,0-0.2-0.1-0.3c0,0,0-0.1-0.1-0.1c-0.1,0-0.3,0-0.4,0c0,0,0,0,0,0.1v0
	c0,0.1,0,0.2,0,0.3c0,0.3-0.1,0.7-0.1,1c0,0.1,0,0.3,0,0.5V24c0,0.1,0,0.3,0,0.4c0,0.1,0,0.2,0,0.3l0,0c0,0,0,0.2-0.1,0.2
	c0,0-0.1,0-0.1-0.1c0,0,0-0.1,0-0.1v-0.2c0-0.2,0-0.4,0-0.7v-0.6c0-0.4,0-0.7,0-1.1c0-0.1,0-0.2,0-0.3c0.1-0.2,0.2-0.3,0.4-0.3
	c0.3-0.1,0.7-0.2,0.9-0.2c0.4,0,0.9,0,1.3,0h1c0.3,0,0.7,0,1,0.1c0.1,0,0.1,0,0.2,0.1c0,0,0,0,0.1,0c0.1,0,0.1,0.1,0.1,0.2
	c0,0,0,0.1,0,0.1c0,0.1,0,0.2,0,0.3C24.1,22.4,24.1,22.7,24,23.2L24,23.2L24,23.2L24,23.2z"/>
<path class="st2" d="M14.1,18.9L14.1,18.9c0-0.2-0.1-0.4-0.3-0.5L12.4,18c-0.2,0-0.4,0-0.4,0.3l-0.8,3c0,0.2,0,0.4,0.2,0.4
	c0.8,0.4,1.5,1.1,1.6,2.1c0,0.1,0.1,0.2,0.2,0.3c0.1,0,0.3,0,0.4-0.1c0.3-0.3,0.6-0.4,1-0.4c0.2,0,0.5,0,0.7,0.2
	c0.2,0.1,0.4,0,0.5-0.1c0.1-0.2,0.2-0.4,0.3-0.6c0.4-1.5,0.9-3.2,0.9-3.2c0-0.2,0-0.4-0.2-0.5l-1.4-0.4l-0.4,0.3c0,0,0,0,0,0.1
	c0,0.2-0.2,0.3-0.4,0.2C14.2,19.4,14.1,19.1,14.1,18.9L14.1,18.9L14.1,18.9L14.1,18.9z"/>
<path class="st3" d="M15.2,18.3l2.5-8.7c0-0.2-0.2-0.4-0.4-0.5c-0.2-0.1-0.5,0-0.6,0.2L14.2,18c0,0.2,0.2,0.4,0.4,0.5
	S15.1,18.5,15.2,18.3z"/>
<path class="st4" d="M16.7,9.7c0,0.1,0.3,0.2,0.4,0.3c0.1,0,0.4,0,0.4,0l1.9-1.4c0.1-0.1,0-0.3,0-0.4c0-0.1-0.1-0.4-0.2-0.4
	l-2.7-0.8c-0.1,0-0.3,0.1-0.4,0.2c-0.1,0.1-0.3,0.2-0.2,0.3L16.7,9.7L16.7,9.7L16.7,9.7z M17.3,9.1L16.9,8l1.3,0.4L17.3,9.1
	L17.3,9.1z"/>
<path class="st4" d="M15.7,18.5c0-0.2,0-0.4-0.2-0.5l-1.3-0.4c-0.2,0-0.4,0-0.4,0.3c0,0-0.1,0.5-0.3,0.9c-0.2,0.6,0.1,1.2,0.7,1.4
	c0.6,0.2,1.1-0.2,1.3-0.7C15.6,19,15.7,18.5,15.7,18.5L15.7,18.5L15.7,18.5z"/>
<path class="st3" d="M5,26.2h22.4v-0.5c0-1.1-0.9-2-2-2c-0.5,0-1,0.2-1.3,0.5c-0.2-0.1-0.5-0.2-0.7-0.2c-0.2,0-0.3,0-0.5,0.1
	c-0.3-1.1-1.3-1.8-2.4-1.8c-1.1,0-2.1,0.8-2.4,2c-0.2-0.1-0.5-0.2-0.7-0.2s-0.5,0.1-0.7,0.2c-0.3-0.9-1.2-1.5-2.1-1.5
	c-0.4,0-0.7,0.1-1.1,0.3c-0.5-1.4-1.7-2.3-3.2-2.3c-1.7,0-3.1,1.3-3.4,3H6.9c-1.1,0-2,0.9-2,2L5,26.2L5,26.2L5,26.2z"/>
</svg>
