<?xml version="1.0" encoding="UTF-8" standalone="no"?><!DOCTYPE svg PUBLIC "-//W3C//DTD SVG 1.1//EN" "http://www.w3.org/Graphics/SVG/1.1/DTD/svg11.dtd"><svg width="100%" height="100%" viewBox="0 0 64 64" version="1.1" xmlns="http://www.w3.org/2000/svg" xmlns:xlink="http://www.w3.org/1999/xlink" xml:space="preserve" xmlns:serif="http://www.serif.com/" style="fill-rule:evenodd;clip-rule:evenodd;stroke-linejoin:round;stroke-miterlimit:2;"><g id="orange"><path d="M38.055,48.4C38.071,48.479 38.08,48.559 38.08,48.64C38.08,50.08 35.36,51.2 32,51.2C28.64,51.2 25.92,50.08 25.92,48.64C25.92,48.559 25.929,48.479 25.945,48.4C26.228,49.723 28.829,50.72 32,50.72C35.171,50.72 37.772,49.723 38.055,48.4Z" style="fill:#fca303;"/><path d="M33.349,45.67C36.059,45.953 38.08,47.057 38.08,48.16C38.08,49.6 35.36,50.72 32,50.72C28.64,50.72 25.92,49.6 25.92,48.16C25.92,46.923 27.926,45.923 30.621,45.665L32,48.16L33.349,45.67Z" style="fill:#ffc60e;"/></g><g id="red"><path d="M32.32,6.08C39.84,6.08 45.92,12.16 45.76,19.68C45.76,20.96 45.28,23.84 44.48,25.12L32,48.16L19.36,25.28C18.56,24.16 18.08,21.12 18.08,19.84C18.08,12.16 24.16,6.08 31.68,6.08L32.32,6.08ZM39.52,18.24C39.52,14.24 36.16,11.04 32,11.04C27.84,11.04 24.48,14.24 24.48,18.24C24.48,22.24 27.84,25.44 32,25.44C36.16,25.44 39.52,22.24 39.52,18.24Z" style="fill:#e0504f;"/></g><g id="white"><path d="M39.52,18.24C39.52,22.24 36.16,25.44 32,25.44C27.84,25.44 24.48,22.24 24.48,18.24C24.48,14.24 27.84,11.04 32,11.04C36.16,11.04 39.52,14.24 39.52,18.24" style="fill:#f4f4f4;fill-rule:nonzero;"/></g></svg>