<?xml version="1.0" encoding="utf-8"?>
<!-- Generator: Adobe Illustrator 26.1.0, SVG Export Plug-In . SVG Version: 6.00 Build 0)  -->
<svg version="1.1" id="Layer_1" xmlns="http://www.w3.org/2000/svg" xmlns:xlink="http://www.w3.org/1999/xlink" x="0px" y="0px"
	 viewBox="0 0 40 40" style="enable-background:new 0 0 40 40;" xml:space="preserve">
<style type="text/css">
	.st0{fill:#434343;}
	.st1{fill:#4E342E;}
	.st2{fill:#CCEAF4;}
	.st3{fill:#9F9F9F;}
	.st4{fill:#E1C569;}
	.st5{fill:#908C8C;}
</style>
<path class="st0" d="M2.6,21.1l17.8,15.8L37,25.6V24L2.6,19.4L2.6,21.1z"/>
<path class="st1" d="M20.5,33.4L4.3,19.5L19,10.1l16.3,13.7L20.5,33.4z"/>
<path class="st2" d="M18.9,11.3L6,19.6l14.6,12.5l13-8.4L18.9,11.3 M19.1,8.8l18,15.1L20.4,34.6L2.6,19.4L19.1,8.8z"/>
<path class="st2" d="M8.2,19.1c0,0.3-0.1,0.5-0.2,0.8c-0.2,0.3-0.4,0.5-0.7,0.7c-0.3,0.2-0.6,0.3-1,0.4s-0.8,0.2-1.2,0.2
	c-0.4,0-0.8-0.1-1.2-0.2c-0.4-0.1-0.7-0.3-1-0.4c-0.3-0.2-0.5-0.4-0.7-0.7c-0.2-0.3-0.2-0.5-0.2-0.8s0.1-0.5,0.2-0.8
	c0.2-0.2,0.4-0.5,0.7-0.7c0.3-0.2,0.6-0.3,1-0.4c0.4-0.1,0.8-0.2,1.2-0.2c0.4,0,0.8,0.1,1.2,0.2s0.7,0.3,1,0.4
	c0.3,0.2,0.5,0.4,0.7,0.7C8.1,18.6,8.2,18.9,8.2,19.1z"/>
<path class="st2" d="M21.5,10.9c0,0.3-0.1,0.5-0.2,0.8c-0.2,0.3-0.4,0.5-0.7,0.7c-0.3,0.2-0.6,0.3-1,0.4S18.9,13,18.5,13
	s-0.8-0.1-1.2-0.2s-0.7-0.3-1-0.4c-0.3-0.2-0.5-0.4-0.7-0.7c-0.2-0.3-0.2-0.5-0.2-0.8c0-0.3,0.1-0.5,0.2-0.8
	c0.2-0.3,0.4-0.5,0.7-0.7c0.3-0.2,0.6-0.3,1-0.4c0.4-0.1,0.8-0.2,1.2-0.2s0.8,0.1,1.2,0.2c0.4,0.1,0.7,0.3,1,0.4
	c0.3,0.2,0.5,0.4,0.7,0.7C21.5,10.4,21.5,10.7,21.5,10.9z"/>
<path class="st2" d="M37.9,24.3c0,0.3-0.1,0.5-0.2,0.8c-0.2,0.3-0.4,0.5-0.7,0.7c-0.3,0.2-0.6,0.3-1,0.4c-0.4,0.1-0.8,0.2-1.2,0.2
	c-0.4,0-0.8-0.1-1.2-0.2s-0.7-0.3-1-0.4c-0.3-0.2-0.5-0.4-0.7-0.7c-0.2-0.3-0.2-0.5-0.2-0.8c0-0.3,0.1-0.5,0.2-0.8
	c0.2-0.3,0.4-0.5,0.7-0.7c0.3-0.2,0.6-0.3,1-0.4s0.8-0.2,1.2-0.2c0.4,0,0.8,0.1,1.2,0.2c0.4,0.1,0.7,0.3,1,0.4
	c0.3,0.2,0.5,0.4,0.7,0.7C37.9,23.7,37.9,24,37.9,24.3z"/>
<path class="st2" d="M23.6,33.5c0,0.3-0.1,0.5-0.2,0.8c-0.2,0.3-0.4,0.5-0.7,0.7c-0.3,0.2-0.6,0.3-1,0.4c-0.4,0.1-0.8,0.2-1.2,0.2
	c-0.4,0-0.8-0.1-1.2-0.2s-0.7-0.3-1-0.4c-0.3-0.2-0.5-0.4-0.7-0.7c-0.2-0.3-0.2-0.5-0.2-0.8c0-0.3,0.1-0.5,0.2-0.8
	c0.2-0.3,0.4-0.5,0.7-0.7c0.3-0.2,0.6-0.3,1-0.4s0.8-0.2,1.2-0.2c0.4,0,0.8,0.1,1.2,0.2c0.4,0.1,0.7,0.3,1,0.4
	c0.3,0.2,0.5,0.4,0.7,0.7C23.5,32.9,23.6,33.2,23.6,33.5z"/>
<path class="st3" d="M13,19l4.4-3.9c1.4-1.2,1.4-1.1,2.3,0.1l2.9,3.2c0.6,0.7,2.2,5.4,0.3,7c-1.9,1.7-6.7-0.2-7.2-0.9l-2.9-3.2
	C11.9,20.2,11.7,20.2,13,19z"/>
<path class="st4" d="M18.3,20.3c-0.4,0.3-3.7-2.6-3.7-2.6l-5-5.6c0,0-1.9,0.5-3.1-0.4c-1.2-0.9,0.8-1.2,0.8-1.2s1.8,1,2.5,0.4
	c0.7-0.7-0.1-2.5-0.1-2.5s0.5-2,1.2-0.6c0.4,1,0.4,2,0.1,3l5,5.6C16,16.4,18.6,20,18.3,20.3z"/>
<path class="st5" d="M5.5,10l4-3.5c0.7-0.6,0.8-0.2,1.1,0.1c0.3,0.3,0.6,0.6,0,1.1l-4,3.5c-0.6,0.5-0.8,0.2-1.1-0.1
	C5.2,10.7,4.9,10.5,5.5,10z"/>
</svg>
