<?xml version="1.0" encoding="UTF-8"?><svg id="a" xmlns="http://www.w3.org/2000/svg" viewBox="0 0 28.66 27.39"><defs><style>.b,.c{fill:#d8a155;}.d{fill:#b3b3b3;}.d,.c,.e{fill-rule:evenodd;}.f,.e{fill:#ccc;}</style></defs><path class="b" d="M21.41,4.95c-.03,.16-.02,.32-.02,.48,0,.23,0,.45,0,.68,0,1.05,0,2.1,0,3.15,0,.55,.01,1.09,.01,1.64s.01,1.06,0,1.6c0,.22-.03,.44-.04,.65,0,.3,0,.59,0,.89,.01,.51,.01,1.01,0,1.52s0,1.01,.02,1.52c.03,.52,0,1.04-.01,1.56-.01,.53,0,1.06,0,1.59,0,.16,0,.32,.02,.48,.01,.11,.04,.22,.06,.33,.04,.25,0,.49-.08,.73-.08,.22-.32,.31-.52,.17-.05-.04-.11-.1-.13-.16-.02-.08,0-.19,0-.27,0-.19,0-.37,0-.56,0-.38,0-.77,0-1.15,0-.78,0-1.56,0-2.35,0-1.55,.01-3.1,0-4.66,0-.77-.02-1.56,0-2.33,.01-.39,.03-.77,.01-1.16-.01-.4-.03-.79-.03-1.18,0-.39,0-.78,0-1.16,0-.39,.02-.78,.03-1.17,0-.39,0-.77-.01-1.16,0-.1,0-.2,0-.3,0-.07,.05-.13,.08-.19,.06-.12,.13-.24,.21-.35,.06-.07,.15-.13,.24-.09,.11,.05,.16,.2,.21,.3,.08,.21,.09,.41,.03,.62-.03,.11-.06,.22-.08,.33Z"/><path class="f" d="M22.64,.82c-.02-.1-.06-.21-.12-.29-.25-.36-.72-.45-1.12-.5-.26-.03-.52-.03-.78-.02-.18,0-.36,.02-.53,.08-.17,.05-.33,.13-.45,.27-.14,.17-.17,.4-.19,.62-.05,.53,.01,1.07,.09,1.59,.11,.86,.22,1.97,1.04,2.45,.36,.2,.78,.15,1.08-.14,.27-.26,.41-.64,.52-1,.16-.52,.26-1.05,.36-1.58,.05-.27,.09-.53,.12-.81,.02-.22,.04-.45-.01-.67Zm-.68,1.12c-.09,.19-.22,.37-.39,.49-.17,.11-.38,.15-.58,.13-.42-.04-.76-.35-.9-.75-.07-.21-.1-.43-.09-.64,0-.1,.02-.2,.07-.29,.05-.09,.14-.1,.22-.14,.21-.08,.44-.06,.65-.05,.25,0,.51,.03,.76,.03,.1,0,.22,0,.31,.06,.09,.07,.1,.21,.1,.31,0,.29-.04,.57-.16,.84Z"/><path class="f" d="M24.37,23.47c0,.31-.03,.63-.05,.94,0,.07,0,.15-.01,.22-.01,.15-.03,.3-.04,.44,0,.06-.01,.12-.02,.19,0,.02,0,.04,0,.06,0,0,0,.01,0,.02,0,.04-.03,.14-.14,.15-.09,.02-.18-.06-.2-.17-.02-.12-.03-.23-.04-.34,0-.31,0-.62,0-.92v-.76c0-.16,0-.31,0-.47v-.06c0-.19,0-.37,0-.56,0-.05-.01-.1-.02-.14-.04-.18-.13-.25-.3-.27-.19-.02-.38-.02-.6,0q-.08,0-.09,.09c-.01,.25-.02,.51-.03,.77,0,.25,0,.5,0,.75v.58c0,.19,0,.38,0,.57h0c0,.06,0,.19,0,.44,0,.33-.02,.57-.04,.73,0,0,0,.02,0,.02-.02,.09-.05,.19-.14,.21-.04,0-.08,0-.11-.03-.15-.12-.19-.76-.21-1.03-.02-.19-.03-.36-.04-.52-.02-.42-.04-.85-.06-1.27l-.02-.42c0-.09,0-.19-.01-.28,0-.13,0-.27-.01-.4,0-.15-.1-.23-.24-.23-.14,0-.27,0-.41,.01h-.03s-.04,0-.07,.02h-.01s-.04,.03-.04,.04c0,.04-.01,.07-.02,.11-.01,.1-.03,.19-.03,.29-.01,.28-.03,.56-.03,.83v.16c-.01,.44-.02,.88-.02,1.32,0,.34,0,.68-.03,1.02v.1s-.01,.06-.01,.08c0,.09-.06,.16-.15,.17-.09,.02-.16-.04-.19-.13-.02-.06-.03-.12-.04-.18v-.18c-.04-.22-.05-.45-.07-.67,0-.12,0-.25,0-.37,0-.08,0-.17,0-.25-.01-.51-.03-1.06-.04-1.69,0-.05,0-.1-.01-.15,0-.04,0-.08-.01-.12,0-.1-.06-.18-.17-.23-.16-.07-.33-.09-.51-.04-.14,.04-.17,.13-.17,.19-.01,.13-.02,.24-.03,.35,0,.08,0,.16-.02,.26-.02,.28-.04,.57-.06,.85v.09c-.01,.09-.01,.18-.02,.27l-.02,.46c-.01,.25-.02,.5-.03,.75,0,.16-.02,.32-.03,.52,0,.05-.04,.15-.07,.21-.01,.04-.07,.09-.13,.09h-.01c-.06,0-.1-.06-.12-.1-.02-.05-.03-.1-.03-.14v-.11c0-.19-.01-.39-.01-.58,0-.1,0-.19,.01-.28v-.19c.01-.16,.02-.31,.02-.47,0-.26,.01-.52,.02-.78,.01-.33,0-.66-.01-.97,0-.11-.05-.23-.11-.35-.04-.07-.06-.08-.15-.1-.18-.03-.36-.02-.54,0-.01,0-.06,0-.07,.1v.03c-.03,.14-.05,.28-.07,.42-.04,.43-.09,.87-.13,1.32-.01,.19-.03,.4-.04,.59,0,.1,0,.19-.01,.28,0,.19-.03,.33-.05,.49-.01,.1-.03,.21-.04,.35h0c0,.06-.02,.22-.14,.22-.04,0-.13,0-.15-.14,0-.05-.01-.1-.02-.14v-.21c-.02-.28-.04-.56-.04-.85,0-.26-.01-.52-.01-.8,0-.46,.02-.94,.04-1.43,0-.11,.03-.23,.07-.35,.08-.24,.27-.34,.47-.41,.41-.15,.84-.2,1.16-.23,.53-.04,1.1-.06,1.67-.06,.34,0,.68,0,.98,0,.07,0,.15,0,.22,0,.04,0,.09,0,.13,0,.36,0,.83,0,1.3,.11,.1,.02,.19,.07,.27,.11,.03,.01,.05,.02,.08,.03,.09,.04,.15,.12,.17,.22,0,.04,.01,.08,.02,.11,.02,.1,.04,.21,.05,.32,.01,.54,.02,1,.01,1.46Z"/><path class="e" d="M11.7,18.03s.01-.05,.01-.07c.03-.23-.1-.45-.32-.52l-1.84-.57c-.24-.07-.49,.07-.56,.32l-1.08,3.79c-.07,.23,.05,.48,.26,.57,1.07,.45,1.87,1.44,2.1,2.64,.03,.16,.15,.3,.3,.35s.32,.02,.45-.09c.35-.32,.81-.52,1.31-.52,.31,0,.61,.07,.87,.21,.22,.11,.48,.02,.59-.19,.13-.24,.24-.5,.32-.77,.54-1.92,1.15-4.06,1.15-4.06,.07-.25-.07-.52-.3-.59l-1.84-.57-.56,.32s0,.04-.02,.08c-.07,.24-.31,.38-.55,.31-.24-.07-.37-.33-.3-.57l.02-.08Z"/><path class="c" d="M13.04,17.26l3.14-11.06c.07-.25-.24-.57-.48-.64s-.67,.02-.74,.27l-3.14,11.06c-.07,.25,.24,.56,.48,.64s.67-.02,.74-.27Z"/><path class="d" d="M14.93,6.32c.05,.14,.33,.29,.47,.34,.14,.04,.46,.07,.57-.02l2.41-1.82c.14-.1,.04-.34,0-.52-.03-.18-.1-.5-.27-.56l-3.48-1.07c-.17-.05-.4,.18-.51,.31-.12,.13-.33,.27-.27,.44l1.07,2.89Zm.81-.86l-.53-1.42,1.71,.53-1.19,.89Z"/><path class="d" d="M13.73,17.48c.07-.25-.07-.51-.3-.59l-1.72-.53c-.24-.07-.49,.07-.56,.32,0,0-.17,.61-.33,1.16-.21,.74,.19,1.52,.91,1.75,.71,.22,1.46-.21,1.68-.95,.16-.56,.33-1.16,.33-1.16Z"/><path class="c" d="M0,27.39H28.66v-.58c0-1.43-1.12-2.58-2.49-2.58-.65,0-1.24,.26-1.69,.68-.27-.14-.58-.21-.9-.21-.2,0-.4,.03-.59,.09-.39-1.36-1.61-2.35-3.04-2.35s-2.72,1.06-3.07,2.49c-.28-.14-.59-.22-.91-.22s-.65,.08-.92,.22c-.42-1.12-1.48-1.92-2.71-1.92-.48,0-.94,.12-1.35,.35-.61-1.74-2.21-2.99-4.09-2.99-2.19,0-4,1.69-4.31,3.87h-.09c-1.37,0-2.49,1.15-2.49,2.58v.58Z"/></svg>