<?xml version="1.0" encoding="utf-8"?>
<!-- Generator: Adobe Illustrator 26.1.0, SVG Export Plug-In . SVG Version: 6.00 Build 0)  -->
<svg version="1.1" id="a" xmlns="http://www.w3.org/2000/svg" xmlns:xlink="http://www.w3.org/1999/xlink" x="0px" y="0px"
	 viewBox="0 0 50.6 38.1" style="enable-background:new 0 0 50.6 38.1;" xml:space="preserve">
<style type="text/css">
	.st0{fill:#FF5757;}
	.st1{fill:#FFFFFF;}
</style>
<path class="st0" d="M48.3,0h-46C1,0,0,1.1,0,2.5v33.2c0,1.3,1,2.5,2.3,2.5h46c1.3,0,2.3-1.1,2.3-2.5V2.5C50.6,1.1,49.6,0,48.3,0z"
	/>
<path d="M8.7,9.6c0,0.2-0.2,0.4-0.4,0.4S7.8,9.9,7.8,9.6S8,9.2,8.3,9.2S8.7,9.4,8.7,9.6z"/>
<path d="M7.9,8.4v-3C7.9,5.2,8.1,5,8.3,5s0.4,0.2,0.4,0.4v3c0,0.2-0.2,0.4-0.4,0.4S7.9,8.7,7.9,8.4z"/>
<path d="M8.7,5.4v3c0,0.2-0.2,0.4-0.4,0.4S7.9,8.7,7.9,8.4v-3C7.9,5.2,8.1,5,8.3,5S8.7,5.2,8.7,5.4z"/>
<path d="M8.7,9.6c0,0.2-0.2,0.4-0.4,0.4S7.8,9.9,7.8,9.6S8,9.2,8.3,9.2S8.7,9.4,8.7,9.6z"/>
<path class="st1" d="M46.6,1.2H4.1c-1.3,0-2.4,1.1-2.4,2.6v30.7c0,1.4,1.1,2.5,2.4,2.5h42.5c1.3,0,2.4-1.2,2.4-2.5V3.7
	C49,2.3,47.9,1.2,46.6,1.2L46.6,1.2z M48.4,34.4c0,1.1-0.8,2-1.8,2H4.1c-1,0-1.8-0.9-1.8-2V3.7c0-1.1,0.8-2,1.8-2h42.5
	c1,0,1.8,0.9,1.8,2V34.4z"/>
<path class="st1" d="M22.6,6.2c-0.1-0.4-0.2-0.7-0.3-1h0c-0.1,0.3-0.2,0.7-0.3,1l-0.5,1.6h1.7L22.6,6.2z M27,5.1
	c-0.4,0-0.6,0-0.7,0.1v2H27c0.8,0,1.3-0.4,1.3-1.1C28.3,5.4,27.8,5.1,27,5.1z M27,5.1c-0.4,0-0.6,0-0.7,0.1v2H27
	c0.8,0,1.3-0.4,1.3-1.1C28.3,5.4,27.8,5.1,27,5.1z M22.6,6.2c-0.1-0.4-0.2-0.7-0.3-1h0c-0.1,0.3-0.2,0.7-0.3,1l-0.5,1.6h1.7
	L22.6,6.2z M22.6,6.2c-0.1-0.4-0.2-0.7-0.3-1h0c-0.1,0.3-0.2,0.7-0.3,1l-0.5,1.6h1.7L22.6,6.2z M27,5.1c-0.4,0-0.6,0-0.7,0.1v2H27
	c0.8,0,1.3-0.4,1.3-1.1C28.3,5.4,27.8,5.1,27,5.1z M27,5.1c-0.4,0-0.6,0-0.7,0.1v2H27c0.8,0,1.3-0.4,1.3-1.1
	C28.3,5.4,27.8,5.1,27,5.1z M22.6,6.2c-0.1-0.4-0.2-0.7-0.3-1h0c-0.1,0.3-0.2,0.7-0.3,1l-0.5,1.6h1.7L22.6,6.2z M22.6,6.2
	c-0.1-0.4-0.2-0.7-0.3-1h0c-0.1,0.3-0.2,0.7-0.3,1l-0.5,1.6h1.7L22.6,6.2z M27,5.1c-0.4,0-0.6,0-0.7,0.1v2H27c0.8,0,1.3-0.4,1.3-1.1
	C28.3,5.4,27.8,5.1,27,5.1z M27,5.1c-0.4,0-0.6,0-0.7,0.1v2H27c0.8,0,1.3-0.4,1.3-1.1C28.3,5.4,27.8,5.1,27,5.1z M22.6,6.2
	c-0.1-0.4-0.2-0.7-0.3-1h0c-0.1,0.3-0.2,0.7-0.3,1l-0.5,1.6h1.7L22.6,6.2z M45.9,1.2H4.7C3.2,1.2,2,2.4,2,3.9v9.6h46.6V3.9
	C48.6,2.4,47.4,1.2,45.9,1.2z M11.5,10.9H5.1c-0.8,0-1.2-0.8-0.8-1.5l1.6-2.7l1.6-2.7c0.4-0.6,1.3-0.6,1.7,0l1.6,2.7l1.6,2.7
	C12.7,10.1,12.2,10.9,11.5,10.9L11.5,10.9z M17.9,10.2l-0.7-2.9C17,6.5,16.9,6,16.8,5.4h0c-0.1,0.6-0.2,1.1-0.4,1.8l-0.8,2.9h-0.8
	l-1.4-5.6h0.8l0.7,2.8c0.2,0.7,0.3,1.4,0.4,1.9h0c0.1-0.6,0.3-1.2,0.5-1.9l0.7-2.8h0.8l0.7,2.8c0.2,0.7,0.3,1.3,0.4,1.9h0
	c0.1-0.6,0.3-1.2,0.5-1.9l0.7-2.8h0.7l-1.6,5.6H17.9L17.9,10.2z M23.9,10.2l-0.6-1.8h-2l-0.6,1.8H20l1.9-5.6h0.9l1.9,5.6H23.9
	L23.9,10.2z M28.4,10.2c-0.1-0.2-0.2-0.6-0.4-1.3c-0.2-0.8-0.5-1.1-1.1-1.1h-0.7v2.4h-0.7V4.7c0.4-0.1,0.9-0.1,1.4-0.1
	c0.8,0,1.3,0.1,1.6,0.5C28.8,5.2,29,5.6,29,6.1c0,0.7-0.5,1.2-1,1.4v0c0.4,0.2,0.7,0.5,0.8,1.1c0.2,0.8,0.3,1.3,0.4,1.5L28.4,10.2
	L28.4,10.2z M34.2,10.2h-0.7l-1.8-2.8c-0.4-0.6-0.8-1.3-1-1.9h0c0,0.7,0.1,1.4,0.1,2.3v2.4H30V4.6h0.8l1.8,2.8
	c0.4,0.7,0.7,1.2,1,1.8h0c-0.1-0.8-0.1-1.4-0.1-2.3V4.6h0.7L34.2,10.2L34.2,10.2z M36.2,10.2h-0.7V4.6h0.7V10.2L36.2,10.2z
	 M41.7,10.2h-0.7l-1.8-2.8c-0.4-0.6-0.8-1.3-1-1.9h0c0,0.7,0.1,1.4,0.1,2.3v2.4h-0.7V4.6h0.8L40,7.4c0.4,0.7,0.7,1.2,1,1.8h0
	C41,8.5,41,7.8,41,6.9V4.6h0.7L41.7,10.2L41.7,10.2z M47.2,9.9c-0.3,0.1-1,0.3-1.7,0.3c-0.8,0-1.5-0.2-2.1-0.7
	c-0.5-0.5-0.8-1.2-0.8-2.1c0-1.7,1.2-2.9,3-2.9c0.7,0,1.2,0.1,1.4,0.3l-0.2,0.6c-0.3-0.1-0.7-0.2-1.2-0.2c-1.4,0-2.2,0.8-2.2,2.3
	s0.8,2.3,2.2,2.3c0.5,0,0.8-0.1,1-0.1V7.8h-1.1V7.3h1.8V9.9L47.2,9.9z M28.3,6.1c0-0.7-0.5-1-1.3-1.1c-0.4,0-0.6,0-0.7,0.1v2H27
	C27.8,7.2,28.3,6.8,28.3,6.1z M22.3,5.2L22.3,5.2c-0.1,0.3-0.2,0.7-0.3,1l-0.5,1.6h1.7l-0.5-1.6C22.5,5.9,22.4,5.5,22.3,5.2z
	 M8.3,8.8c0.2,0,0.4-0.2,0.4-0.4v-3C8.7,5.2,8.5,5,8.3,5S7.9,5.2,7.9,5.4v3C7.9,8.7,8.1,8.8,8.3,8.8z M8.3,9.2
	C8,9.2,7.8,9.4,7.8,9.6s0.2,0.4,0.4,0.4s0.4-0.2,0.4-0.4S8.5,9.2,8.3,9.2z M22.6,6.2c-0.1-0.4-0.2-0.7-0.3-1h0
	c-0.1,0.3-0.2,0.7-0.3,1l-0.5,1.6h1.7C23.2,7.8,22.6,6.2,22.6,6.2z M27,5.1c-0.4,0-0.6,0-0.7,0.1v2H27c0.8,0,1.3-0.4,1.3-1.1
	C28.3,5.4,27.7,5.1,27,5.1z M27,5.1c-0.4,0-0.6,0-0.7,0.1v2H27c0.8,0,1.3-0.4,1.3-1.1C28.3,5.4,27.7,5.1,27,5.1z M22.6,6.2
	c-0.1-0.4-0.2-0.7-0.3-1h0c-0.1,0.3-0.2,0.7-0.3,1l-0.5,1.6h1.7C23.2,7.8,22.6,6.2,22.6,6.2z M22.6,6.2c-0.1-0.4-0.2-0.7-0.3-1h0
	c-0.1,0.3-0.2,0.7-0.3,1l-0.5,1.6h1.7C23.2,7.8,22.6,6.2,22.6,6.2z M27,5.1c-0.4,0-0.6,0-0.7,0.1v2H27c0.8,0,1.3-0.4,1.3-1.1
	C28.3,5.4,27.7,5.1,27,5.1z M27,5.1c-0.4,0-0.6,0-0.7,0.1v2H27c0.8,0,1.3-0.4,1.3-1.1C28.3,5.4,27.7,5.1,27,5.1z M22.6,6.2
	c-0.1-0.4-0.2-0.7-0.3-1h0c-0.1,0.3-0.2,0.7-0.3,1l-0.5,1.6h1.7C23.2,7.8,22.6,6.2,22.6,6.2z M22.6,6.2c-0.1-0.4-0.2-0.7-0.3-1h0
	c-0.1,0.3-0.2,0.7-0.3,1l-0.5,1.6h1.7C23.2,7.8,22.6,6.2,22.6,6.2z M22.6,6.2c-0.1-0.4-0.2-0.7-0.3-1h0c-0.1,0.3-0.2,0.7-0.3,1
	l-0.5,1.6h1.7C23.2,7.8,22.6,6.2,22.6,6.2z"/>
<g>
	<g transform="translate(13.853453, 26.306616)">
		<path class="st1" d="M1.2-11.8c0.9,0,1.5,0.2,2,0.6c0.4,0.4,0.6,1,0.6,2v1H1.6v-1.4c0-0.2,0-0.3-0.1-0.4c-0.1-0.1-0.1-0.1-0.3-0.1
			c-0.3,0-0.4,0.2-0.4,0.6v5c0,0.2,0,0.4,0.1,0.5C1-4,1.1-3.9,1.2-3.9c0.2,0,0.3,0,0.3-0.1c0.1-0.1,0.1-0.3,0.1-0.5v-1.6H1.2v-1.3
			h2.7v4.9H2.4L2.3-3.2C2.1-2.9,1.8-2.7,1.5-2.6c-0.3,0.1-0.6,0.2-1,0.2c-0.7,0-1.2-0.3-1.6-0.7c-0.3-0.5-0.5-1.1-0.5-1.8v-4.1
			c0-1,0.2-1.7,0.7-2.1C-0.4-11.6,0.3-11.8,1.2-11.8L1.2-11.8z"/>
	</g>
	<g transform="translate(18.606204, 26.306616)">
		<path class="st1" d="M6.4-2.5H4.1L4-4.1H3.2L3-2.5H0.8l1.1-9.1h3.3L6.4-2.5L6.4-2.5z M3.2-5.7h0.8L3.5-10h0L3.2-5.7L3.2-5.7z"/>
	</g>
	<g transform="translate(23.17161, 26.306616)">
		<path class="st1" d="M7-6.1L7-6.1l0.5-5.3h3.1v9.1H8.7v-6.7h0l-1,6.7H6.3L5.3-9.1h0v6.7H3.4v-9.1h3L7-6.1L7-6.1z"/>
	</g>
	<g transform="translate(29.383714, 26.306616)">
		<path class="st1" d="M9.7-9.6H8.2v1.7h1.5v1.7H8.2v2h1.7v1.8h-4v-9.1h3.8L9.7-9.6L9.7-9.6z"/>
	</g>
</g>
<g>
	<g transform="translate(12.398358, 33.860433)">
		<path class="st1" d="M-1.8-8.4c0.9,0,1.6,0.2,2,0.7c0.5,0.5,0.7,1.1,0.7,1.9v1.4h-2.4v-1.9c0-0.2,0-0.3-0.1-0.4
			c-0.1-0.1-0.2-0.1-0.3-0.1c-0.1,0-0.2,0.1-0.3,0.2c-0.1,0.1-0.1,0.2-0.1,0.4v5.5c0,0.1,0,0.3,0.1,0.4s0.1,0.2,0.3,0.2
			c0.2,0,0.3,0,0.3-0.2c0.1-0.1,0.1-0.3,0.1-0.5v-2h2.4v1.6c0,0.5-0.1,0.9-0.3,1.3C0.4,0.4,0.1,0.8-0.3,1c-0.4,0.2-0.9,0.3-1.5,0.3
			c-0.9,0-1.6-0.2-2.1-0.7c-0.5-0.4-0.7-1.2-0.7-2.2v-4.1c0-0.9,0.2-1.6,0.7-2.1C-3.5-8.2-2.7-8.4-1.8-8.4z"/>
	</g>
	<g transform="translate(16.963764, 33.860433)">
		<path class="st1" d="M3.8-6.5v1c0,0.5-0.1,0.9-0.4,1.2C3.2-4.2,2.9-4,2.4-4v0c0.5,0,0.9,0.2,1.1,0.5c0.2,0.2,0.4,0.6,0.4,1.2V1
			H1.7v-3.6c0-0.5-0.2-0.8-0.6-0.8c-0.1,0-0.2,0-0.3,0V1h-2.3v-9.4h2.8c0.5,0,1,0,1.4,0.1C3-8.2,3.3-8,3.5-7.7
			C3.7-7.4,3.8-7.1,3.8-6.5L3.8-6.5z M0.9-4.8c0.3,0,0.5-0.1,0.6-0.2c0.1-0.1,0.2-0.3,0.2-0.5v-0.8c0-0.2-0.1-0.3-0.2-0.4
			C1.4-6.8,1.2-6.9,0.9-6.9H0.7v2.1L0.9-4.8L0.9-4.8z"/>
	</g>
	<g transform="translate(21.529169, 33.860433)">
		<path class="st1" d="M6.8,1.2H4.4L4.3-0.5H3.4L3.3,1.2H0.8L2-8.2h3.5L6.8,1.2L6.8,1.2z M3.4-2.1h0.8L3.8-6.6h0L3.4-2.1L3.4-2.1z"
			/>
	</g>
	<g transform="translate(26.094575, 33.860433)">
		<path class="st1" d="M6.5-8.3c1.8,0,2.7,0.7,2.7,2v0.9H7v-0.8c0-0.4-0.2-0.6-0.5-0.6c-0.3,0-0.4,0.2-0.4,0.6v0.5
			c0,0.2,0.1,0.4,0.2,0.5C6.4-5.1,6.5-5,6.6-4.9C6.8-4.8,7-4.6,7.3-4.4C7.7-4.2,8-4,8.3-3.7C8.6-3.5,8.8-3.3,9-2.9
			c0.2,0.4,0.3,0.8,0.3,1.2v0.8C9.3,0,9,0.7,8.5,1C8,1.3,7.3,1.5,6.5,1.5c-1,0-1.7-0.2-2.1-0.6C4,0.5,3.8,0,3.8-0.9v-1.2h2.3v1.5
			C6.1-0.2,6.2,0,6.5,0C6.7,0,6.8,0,6.8-0.2C6.9-0.3,7-0.5,7-0.8v-0.5c0-0.2-0.1-0.4-0.2-0.6C6.6-2.1,6.5-2.2,6.3-2.3
			C6.2-2.5,6-2.6,5.7-2.8C5.3-3,5-3.2,4.7-3.4C4.5-3.6,4.3-3.9,4.1-4.2C3.9-4.5,3.8-4.9,3.8-5.4V-6C3.8-7.5,4.7-8.3,6.5-8.3L6.5-8.3
			z"/>
	</g>
	<g transform="translate(30.472623, 33.860433)">
		<path class="st1" d="M8.9-4.7h0.9v-3.4h2.4v9.4H9.8v-3.9H8.9v3.9H6.5v-9.4h2.4C8.9-8.1,8.9-4.7,8.9-4.7z"/>
	</g>
</g>
</svg>
