<?xml version="1.0" encoding="utf-8"?>
<!-- Generator: Adobe Illustrator 26.1.0, SVG Export Plug-In . SVG Version: 6.00 Build 0)  -->
<svg version="1.1" id="Layer_1" xmlns="http://www.w3.org/2000/svg" xmlns:xlink="http://www.w3.org/1999/xlink" x="0px" y="0px"
	 viewBox="0 0 167 167" style="enable-background:new 0 0 167 167;" xml:space="preserve">
<style type="text/css">
	.st0{fill:#BFBFBF;}
</style>
<g>
	<g>
		<path class="st0" d="M152.2,22.4H14.8c-0.5,0-1,0.1-1.5,0.1c-0.5,0.1-1,0.2-1.4,0.4c-0.5,0.2-0.9,0.4-1.3,0.7
			c-0.4,0.3-0.8,0.6-1.2,1c-0.4,0.4-0.7,0.7-1,1.2c-0.3,0.4-0.5,0.9-0.7,1.3c-0.2,0.5-0.3,0.9-0.4,1.4c-0.1,0.5-0.1,1-0.1,1.5V137
			c0,0.5,0.1,1,0.1,1.5c0.1,0.5,0.2,1,0.4,1.4c0.2,0.5,0.4,0.9,0.7,1.3c0.3,0.4,0.6,0.8,1,1.2c0.4,0.4,0.7,0.7,1.2,1
			c0.4,0.3,0.9,0.5,1.3,0.7c0.5,0.2,0.9,0.3,1.4,0.4c0.5,0.1,1,0.1,1.5,0.1h137.5c0.5,0,1-0.1,1.5-0.1c0.5-0.1,1-0.2,1.4-0.4
			c0.5-0.2,0.9-0.4,1.3-0.7c0.4-0.3,0.8-0.6,1.2-1c0.4-0.4,0.7-0.7,0.9-1.2c0.3-0.4,0.5-0.9,0.7-1.3c0.2-0.5,0.3-0.9,0.4-1.4
			c0.1-0.5,0.2-1,0.2-1.5V30c0-0.5-0.1-1-0.2-1.5c-0.1-0.5-0.2-1-0.4-1.4c-0.2-0.5-0.4-0.9-0.7-1.3c-0.3-0.4-0.6-0.8-0.9-1.2
			c-0.4-0.4-0.7-0.7-1.2-1c-0.4-0.3-0.9-0.5-1.3-0.7c-0.5-0.2-0.9-0.3-1.4-0.4C153.2,22.4,152.7,22.4,152.2,22.4z M45.3,45.3
			c1,0,2,0.1,3,0.3c1,0.2,1.9,0.5,2.9,0.9c0.9,0.4,1.8,0.9,2.6,1.4c0.8,0.6,1.6,1.2,2.3,1.9c0.7,0.7,1.3,1.5,1.9,2.3
			c0.6,0.8,1,1.7,1.4,2.6c0.4,0.9,0.7,1.9,0.9,2.9c0.2,1,0.3,2,0.3,3c0,1-0.1,2-0.3,3c-0.2,1-0.5,1.9-0.9,2.9
			c-0.4,0.9-0.9,1.8-1.4,2.6c-0.6,0.8-1.2,1.6-1.9,2.3c-0.7,0.7-1.5,1.3-2.3,1.9c-0.8,0.6-1.7,1-2.6,1.4c-0.9,0.4-1.9,0.7-2.9,0.9
			c-1,0.2-2,0.3-3,0.3c-1,0-2-0.1-3-0.3c-1-0.2-1.9-0.5-2.9-0.9c-0.9-0.4-1.8-0.9-2.6-1.4c-0.8-0.6-1.6-1.2-2.3-1.9
			c-0.7-0.7-1.3-1.5-1.9-2.3c-0.6-0.8-1-1.7-1.4-2.6c-0.4-0.9-0.7-1.9-0.9-2.9c-0.2-1-0.3-2-0.3-3c0-1,0.1-2,0.3-3
			c0.2-1,0.5-1.9,0.9-2.9c0.4-0.9,0.9-1.8,1.4-2.6c0.6-0.8,1.2-1.6,1.9-2.3c0.7-0.7,1.5-1.3,2.3-1.9c0.8-0.6,1.7-1,2.6-1.4
			c0.9-0.4,1.9-0.7,2.9-0.9C43.3,45.4,44.3,45.3,45.3,45.3z M144.6,129.3H22.4v-12.7l30.6-25.5l21.8,16.4l39.3-39.3l30.6,40.7V129.3
			z"/>
	</g>
</g>
</svg>
