<?xml version="1.0" encoding="UTF-8"?><svg id="a" xmlns="http://www.w3.org/2000/svg" viewBox="0 0 56.44 55.07"><defs><style>.b{stroke-width:.06px;}.b,.c,.d,.e,.f,.g,.h,.i{fill:none;stroke-miterlimit:10;}.b,.c,.d,.e,.f,.g,.i{stroke:#966418;}.j{fill:#fff;}.k{fill:#966418;}.c{stroke-width:.07px;}.d,.h{stroke-width:.06px;}.l{fill:#9ac2e3;}.m{fill:#814616;}.n{fill:#d5aa7f;}.e{stroke-width:.09px;}.f{stroke-width:.05px;}.o{fill:#834516;}.p{fill:#4cc679;}.q{fill:#f4b947;}.r{fill:#bfdde7;}.g{stroke-width:.06px;}.h{stroke:#834516;}.i{stroke-width:.05px;}.s{fill:#179d78;}.t{fill:#9fc9eb;}.u{fill:#f14624;}.v{fill:#0bb683;}.w{fill:#93bcdb;}.x{fill:#f68b1d;}</style></defs><path class="m" d="M39.06,23.97c-.27,.29-.38,.65-.38,1.08,0,.45,.1,.99,.15,1.6,0,0,.05,.5,0,1.42,0,0-.02,.52-.1,1.27,0,0-.14,1.4-.44,2.73-.68,3.04-3.4,6.8-3.03,7.06,.02,.01,.02,0,.32,.02,.22,.02,.37,.05,.57,.06,.07,0,.34,.03,.88,.12,1.12,.19,1.56,.76,1.88,.55,.11-.06,.21-.22,.08-2.98,0-.11,0-.09,0-.12,0-.25,.04-.8,.46-4.44,.09-.78,.08-.92,.21-1.93,.09-.68,.17-1.19,.3-1.78,.08-.36,.16-.67,.24-.96,.71-2.55,1.44-3.45,1.04-3.95-.38-.48-1.61-.37-2.17,.22Z"/><path class="k" d="M28.66,12.18c-.64,.92-.2,2.12,.08,3.12,.53,1.87,.39,3.86,.61,5.79,.13,1.16,.01,3.72-.23,8.83,0,0,.05,4.91-.77,7.1-.11,.3-.2,.61-.32,.91-.17,.45-.24,.68-.21,.73,.12,.24,.82,.14,1.44,.06,.15-.02,.26-.04,.46-.05s.33,0,.79,.05c.65,.06,.66,.07,.83,.08,.28,.02,.49,.02,.67,.02,.46-.01,.56-.06,.85-.03,.21,.03,.26,.06,.54,.14,.54,.14,.94,.24,1.09,.12,.32-.26-.43-1.58-.94-2.78-.36-.86-.64-2.04-1.15-4.41-.26-1.22-.6-2.96-.92-5.21-.18-1.32-.48-3.4-.61-5.86-.33-6.01,.57-9.09-.54-9.48-.54-.19-1.32,.36-1.68,.87Z"/><path class="o" d="M22.24,22.6c-.14,.1-.2,.3-.11,1.42,.04,.47,.08,.85,.11,1.11,0,0,.17,1,.23,4.85,.03,1.92,.07,4.44-.99,7.09-.28,.7-.68,1.6-.3,1.95,.3,.28,.82-.06,2.14-.15,1.46-.09,1.95,.27,2.22-.05,.39-.46-.49-1.43-1.15-3.35-.47-1.36-.56-2.42-.69-3.84-.1-1.16-.07-2.35,0-4.7,.07-2.45,.39-3.67-.38-4.2-.32-.22-.83-.33-1.07-.15Z"/><path class="v" d="M22.5,22.08c-.2-.13,.16-.94,.46-1.59,.56-1.23,.84-1.85,1.38-2.42,.31-.34,1.08-1.16,2.41-1.59,.44-.15,2.02-.64,3.71,.07,1.84,.77,2.7,2.51,2.56,2.64-.08,.07-.46-.35-1.42-.69-.74-.26-1.49-.36-1.53-.25-.02,.06,.23,.15,.54,.44,.37,.34,.67,.84,.57,.94-.12,.12-.68-.49-1.72-.79,0,0-1.47-.43-2.98,.25-.46,.21-.81,.47-.77,.58,.04,.11,.45-.03,.96,.18,.25,.1,.56,.31,.54,.44-.05,.18-.72-.05-1.57,.14-.63,.15-1.24,.55-2.44,1.34-.37,.25-.58,.4-.69,.32Z"/><path class="p" d="M22.44,22.02c.09-.24,.41-.32,.95-.44,1.42-.3,2.13-.44,2.64-.4,1.06,.1,1.81,.53,2.33,.83,2.35,1.37,3.18,3.58,3.17,3.58,0,0-.52-1.13-1.64-1.48-.34-.11-.79-.16-.84-.04-.05,.11,.25,.27,.54,.65,.37,.49,.51,1.07,.42,1.12-.12,.06-.6-.94-1.8-1.85-.78-.58-1.53-.89-1.61-.8-.05,.07,.37,.35,.65,.98,.11,.26,.26,.7,.15,.76-.13,.07-.51-.53-1.22-1.09-1-.78-2.23-1.14-2.37-.94-.07,.11,.21,.28,.46,.83,.27,.58,.37,1.28,.23,1.34-.16,.06-.43-.72-1.49-2.02-.39-.48-.68-.78-.57-1.05Z"/><path class="p" d="M11,14.91c-.11-.14,.54-.81,1.11-1.26,.55-.44,1.46-1.17,2.91-1.41,.26-.05,1.55-.24,3.02,.32,1.37,.53,2.15,1.41,2.63,1.99,.97,1.14,1.32,2.25,1.57,3.04,.67,2.15,.57,4.27,.34,4.31-.14,.02-.18-.72-.77-1.81-.31-.57-1.07-1.98-2.6-2.78-1.01-.53-1.97-.6-1.95-.83,.02-.26,1.27-.26,1.3-.54,.02-.18-.46-.41-.92-.51-1.47-.32-2.72,.65-2.87,.44-.1-.14,.36-.7,.96-.98,.32-.14,.53-.14,.54-.22,0-.15-.95-.43-1.95-.43-1.15,0-2.27,.37-2.44,.43-.52,.18-.81,.34-.88,.25Z"/><path class="s" d="M22.75,22.52c-.09-.65-1.45-.97-2.1-1.12-.59-.14-2.11-.47-3.86,.14-1.42,.5-2.22,1.34-2.56,1.7-.39,.42-.68,.84-.61,.91,.07,.06,.45-.3,1.19-.58,.21-.08,.85-.33,.95-.18,.03,.04,.04,.14-.8,1.12-.4,.47-.59,.66-.57,.68,.04,.05,.67-.54,1.53-1.08,1.33-.84,2.56-1.13,2.6-1.05,.03,.06-.58,.3-1.07,.97-.05,.08-.37,.53-.27,.62,.1,.09,.49-.27,1.23-.62,.18-.08,.26-.11,1.87-.61,.76-.24,1.15-.35,1.18-.29,.04,.08-.34,.24-.69,.65-.48,.58-.65,1.36-.49,1.45,.08,.04,.21-.09,1.18-1.09,1.21-1.25,1.33-1.41,1.3-1.63Z"/><path class="v" d="M22.73,22.42c-.1,.07-.46-.31-1.61-1.05-.63-.4-.95-.61-1.23-.65-1.03-.17-1.81,.69-2.03,.47-.14-.14,.05-.64,.39-.9,.21-.17,.43-.19,.42-.25,0-.09-.43-.14-.84-.11-.16,.01-.7,.07-1.49,.51-.63,.35-.87,.64-.95,.58-.11-.09,.18-.7,.57-1.2,.42-.53,.79-.73,.73-.83-.07-.12-.78,.05-1.37,.32-.34,.16-1.24,.58-1.95,1.52-.37,.49-.46,.83-.57,.8-.17-.04-.25-.86,.07-1.56,.17-.37,.37-.53,.31-.61-.11-.15-.84,.1-1.42,.44-.2,.12-1,.61-1.68,1.7-.48,.77-.61,1.36-.73,1.34-.14-.03-.11-.8,0-1.45,.13-.8,.31-1.92,1.23-3,.28-.33,1.05-1.22,2.37-1.62,1.47-.46,2.75-.04,4.09,.4,2.44,.8,3.81,2.2,4.09,2.5,1.12,1.19,1.77,2.55,1.61,2.68Z"/><path class="s" d="M39.49,23.73c-.14-.18,.47-.84,.97-1.37,.94-1,1.41-1.49,2.11-1.89,.41-.23,1.42-.77,2.82-.79,.46,0,2.13,0,3.49,1.17,1.49,1.28,1.73,3.19,1.55,3.27-.1,.05-.33-.47-1.11-1.07-.61-.47-1.3-.78-1.37-.7-.04,.05,.17,.21,.36,.57,.24,.44,.36,1,.23,1.06-.15,.08-.48-.67-1.37-1.27,0,0-1.25-.84-2.91-.65-.5,.06-.92,.21-.92,.32,0,.12,.43,.11,.84,.45,.2,.17,.44,.46,.36,.57-.1,.15-.67-.27-1.53-.33-.65-.05-1.36,.15-2.77,.54-.43,.12-.68,.2-.76,.1Z"/><path class="v" d="M40.08,23.2c-.23-.1,0-.96,.18-1.65,.34-1.3,.51-1.95,.94-2.6,.25-.38,.87-1.31,2.1-1.94,.41-.21,1.89-.94,3.67-.5,1.95,.48,3.1,2.06,2.99,2.21-.07,.08-.52-.27-1.52-.46-.77-.15-1.53-.12-1.55-.02-.01,.07,.25,.11,.61,.35,.42,.28,.81,.73,.73,.84-.1,.14-.76-.38-1.83-.52,0,0-1.53-.19-2.9,.71-.41,.27-.71,.58-.65,.68,.06,.11,.45-.09,.98,.04,.26,.06,.61,.21,.6,.34-.01,.18-.72,.06-1.52,.38-.6,.25-1.13,.73-2.19,1.7-.32,.3-.51,.48-.62,.43Z"/><path class="p" d="M40.04,23.54c.17-.19,.5-.18,1.05-.12,1.45,.14,2.16,.21,2.63,.41,.98,.42,1.54,1.04,1.94,1.49,1.77,2.01,1.82,4.34,1.81,4.34,0,0-.11-1.22-1.06-1.89-.29-.21-.69-.38-.79-.29-.08,.09,.15,.34,.29,.78,.18,.58,.12,1.17,.02,1.19-.14,.02-.26-1.07-1.09-2.29-.55-.79-1.17-1.3-1.26-1.23-.07,.05,.24,.44,.29,1.12,.02,.28,.02,.74-.11,.77-.15,.03-.3-.65-.8-1.39-.69-1.04-1.74-1.75-1.94-1.6-.1,.08,.1,.33,.16,.93,.06,.62-.07,1.32-.23,1.33-.17,.02-.17-.81-.74-2.37-.21-.58-.39-.94-.2-1.17Z"/><path class="p" d="M31.16,13.3c-.05-.16,.79-.6,1.47-.87,.67-.26,1.78-.68,3.23-.47,.27,.04,1.55,.24,2.76,1.21,1.13,.91,1.56,1.98,1.84,2.67,.54,1.37,.51,2.53,.48,3.35-.08,2.24-.88,4.23-1.11,4.19-.14-.02,.07-.73-.12-1.95-.1-.63-.36-2.19-1.54-3.42-.78-.8-1.67-1.16-1.57-1.37,.11-.24,1.29,.14,1.41-.13,.08-.17-.3-.53-.7-.76-1.28-.75-2.8-.2-2.86-.44-.05-.16,.57-.56,1.23-.64,.34-.04,.55,.02,.58-.05,.07-.15-.75-.7-1.7-.99-1.1-.34-2.28-.32-2.47-.32-.55,.01-.89,.08-.92-.02Z"/><path class="v" d="M39.98,23.81c.13-.65-1.05-1.35-1.62-1.69-.52-.31-1.84-1.07-3.72-1.01-1.5,.05-2.55,.61-2.99,.85-.52,.28-.93,.6-.89,.68s.53-.15,1.32-.2c.23-.01,.92-.05,.96,.12,.02,.05,0,.15-1.14,.82-.54,.32-.79,.45-.77,.48,.03,.05,.82-.32,1.81-.57,1.55-.4,2.81-.31,2.82-.22,0,.06-.65,.11-1.34,.6-.08,.06-.52,.39-.46,.51s.55-.11,1.37-.22c.2-.03,.29-.03,1.98-.02,.81,0,1.21,0,1.22,.08,.02,.08-.4,.13-.87,.41-.65,.4-1.08,1.1-.95,1.23,.06,.06,.23-.02,1.49-.68,1.56-.83,1.73-.94,1.77-1.16Z"/><path class="p" d="M39.88,23.38c-.12,.04-.33-.44-1.18-1.48-.46-.57-.7-.86-.94-.99-.93-.47-1.95,.12-2.08-.15-.09-.18,.26-.6,.67-.75,.26-.09,.47-.05,.48-.11,.02-.09-.37-.27-.76-.35-.16-.04-.7-.14-1.58,.04-.72,.15-1.04,.35-1.1,.27-.08-.11,.4-.61,.94-.96,.58-.38,.99-.47,.96-.57-.02-.15-.76-.18-1.41-.1-.37,.04-1.37,.18-2.36,.86-.51,.36-.71,.65-.81,.58-.15-.09,.05-.89,.59-1.45,.28-.3,.53-.39,.49-.49-.06-.18-.83-.16-1.49-.01-.23,.05-1.15,.28-2.16,1.11-.72,.6-1.03,1.12-1.14,1.06-.12-.06,.17-.78,.49-1.37,.39-.71,.93-1.73,2.16-2.48,.37-.23,1.4-.84,2.79-.84,1.55,0,2.62,.78,3.75,1.6,2.05,1.49,2.88,3.23,3.05,3.59,.67,1.46,.83,2.96,.63,3.02Z"/><path class="p" d="M30.01,12.36c-.23-.18,.34-1.03,.81-1.72,.87-1.3,1.31-1.94,2.06-2.51,.44-.34,1.51-1.14,3.2-1.42,.56-.1,2.58-.41,4.54,.64,2.14,1.14,2.93,3.23,2.74,3.35-.11,.07-.52-.46-1.63-.99-.86-.41-1.77-.63-1.84-.51-.04,.06,.25,.19,.59,.57,.4,.44,.7,1.04,.56,1.14-.17,.12-.76-.66-1.99-1.16,0,0-1.74-.7-3.69-.17-.59,.17-1.06,.41-1.03,.54s.56,.04,1.14,.35c.29,.15,.65,.43,.59,.57-.09,.19-.87-.17-1.94-.08-.8,.07-1.61,.42-3.21,1.14-.49,.22-.77,.35-.89,.26Z"/><path class="v" d="M29.3,12.36c.14-.25,.55-.3,1.24-.34,1.78-.12,2.68-.18,3.29-.05,1.29,.27,2.14,.86,2.74,1.29,2.67,1.89,3.35,4.49,3.34,4.5,0,0-.46-1.35-1.79-1.91-.41-.18-.93-.29-1.02-.17-.08,.12,.26,.34,.55,.81,.37,.6,.46,1.28,.34,1.32-.17,.05-.59-1.15-1.92-2.34-.87-.77-1.75-1.22-1.85-1.13-.08,.07,.4,.44,.65,1.19,.1,.31,.21,.83,.07,.88-.18,.06-.54-.67-1.33-1.4-1.11-1.03-2.56-1.61-2.77-1.41-.11,.1,.21,.35,.43,1,.24,.68,.26,1.49,.08,1.53-.21,.05-.42-.87-1.52-2.5-.41-.61-.71-.97-.54-1.27Z"/><path class="s" d="M16.53,3c-.11-.17,.79-.83,1.56-1.25,.74-.42,1.97-1.1,3.78-1.15,.33,0,1.93-.02,3.65,.82,1.61,.8,2.42,1.91,2.93,2.63,1.01,1.43,1.27,2.72,1.46,3.65,.49,2.51,.04,4.89-.24,4.89-.17,0-.1-.83-.66-2.15-.29-.69-1.01-2.38-2.76-3.52-1.15-.75-2.33-.97-2.27-1.23,.08-.29,1.61-.09,1.68-.41,.05-.2-.51-.53-1.05-.71-1.75-.59-3.44,.32-3.58,.06-.1-.17,.55-.74,1.32-.96,.41-.11,.68-.08,.69-.16,.04-.18-1.09-.64-2.33-.78-1.42-.17-2.84,.08-3.07,.12-.66,.12-1.05,.25-1.12,.15Z"/><path class="v" d="M29.81,12.91c-.02-.75-1.63-1.3-2.41-1.58-.71-.25-2.51-.84-4.76-.42-1.81,.34-2.93,1.17-3.41,1.52-.55,.41-.96,.84-.89,.92,.07,.08,.59-.27,1.54-.47,.27-.06,1.09-.24,1.2-.06,.03,.05,.03,.17-1.16,1.14-.56,.47-.83,.65-.81,.68,.05,.06,.9-.51,2.05-.99,1.76-.74,3.31-.89,3.35-.78,.03,.07-.76,.24-1.46,.93-.08,.08-.53,.53-.42,.65s.64-.22,1.59-.5c.23-.07,.34-.09,2.4-.41,.98-.15,1.46-.22,1.5-.14,.04,.09-.46,.22-.95,.63-.68,.58-1.01,1.43-.83,1.55,.09,.05,.28-.06,1.62-1.04,1.68-1.22,1.86-1.38,1.85-1.63Z"/><path class="p" d="M29.77,12.89c-.14,.07-.51-.42-1.81-1.42-.71-.55-1.08-.83-1.4-.91-1.24-.35-2.33,.5-2.56,.22-.15-.18,.16-.71,.61-.96,.29-.15,.56-.15,.56-.22,0-.1-.52-.22-1.02-.25-.2-.01-.87-.03-1.91,.34-.83,.3-1.17,.59-1.26,.51-.12-.11,.33-.76,.89-1.26,.59-.54,1.08-.7,1.02-.83-.07-.15-.97-.05-1.74,.16-.44,.12-1.61,.47-2.62,1.42-.53,.49-.69,.85-.83,.8-.21-.07-.17-1,.33-1.73,.27-.38,.54-.53,.47-.64-.12-.18-1.05-.02-1.8,.28-.27,.1-1.32,.53-2.33,1.65-.72,.8-.95,1.44-1.1,1.39-.16-.05,0-.9,.23-1.62,.28-.87,.67-2.11,1.96-3.19,.39-.33,1.47-1.21,3.16-1.47,1.88-.29,3.38,.37,4.95,1.06,2.87,1.26,4.34,3.04,4.64,3.42,1.2,1.5,1.78,3.13,1.56,3.25Z"/><path class="v" d="M30.02,12.2c.15,0,.23-.6,.86-2.07,.34-.8,.52-1.21,.76-1.44,.91-.87,2.29-.63,2.35-.98,.04-.23-.51-.55-1.02-.56-.33,0-.56,.12-.59,.06-.05-.09,.33-.44,.76-.68,.17-.1,.75-.42,1.84-.57,.88-.12,1.32-.02,1.36-.14,.05-.16-.68-.51-1.42-.69-.8-.2-1.3-.13-1.31-.25-.02-.17,.81-.5,1.6-.66,.45-.09,1.65-.34,3.02,.03,.71,.19,1.04,.44,1.14,.33,.14-.16-.36-.96-1.18-1.37-.43-.21-.75-.22-.74-.35,0-.21,.91-.5,1.72-.58,.29-.03,1.43-.14,2.88,.38,1.03,.37,1.57,.82,1.67,.71,.12-.12-.45-.8-1.02-1.32-.69-.64-1.67-1.53-3.35-1.89-.51-.11-1.91-.38-3.51,.16-1.8,.61-2.77,1.87-3.79,3.2-1.87,2.42-2.24,4.66-2.31,5.12-.27,1.86,.05,3.56,.3,3.55Z"/><path class="q" d="M.15,49.95c-.41-.67,.12-1.63,.46-2.24,.5-.91,1.25-1.6,3.06-2.68,2.18-1.3,3.82-1.95,3.82-1.95,3.99-1.58,6.24-2.47,9.71-3.25,4.19-.94,7.74-1.19,10.09-1.23,1.94-.04,7.2-.04,13.68,1.59,2.1,.53,4.87,1.24,8.18,2.89,4.59,2.3,7.62,5.1,7.26,5.72-.08,.13-.26,.11-.92,.51-.68,.41-.64,.53-.92,.65-.93,.4-1.73-.81-3.36-.65-.24,.02-.81,.08-.99,.44-.18,.32,.13,.6,.07,.87-.19,.84-4.1,.76-6.04,.72-3.94-.07-6.67-.08-6.73,.29-.03,.2,.73,.34,1.83,1.23,.63,.51,1.07,.86,.99,1.09-.18,.57-3.65-.11-8.41-.65-5.44-.62-9.24-.68-9.33-.21-.07,.32,1.59,.72,1.53,1.23-.07,.51-1.81,.69-2.14,.73-2.47,.25-3.43-.38-6.88-.87-2.67-.38-4.01-.57-5.04-.44-1.02,.13-2.04,.41-2.45-.07-.32-.39-.14-1.13,.15-1.59,.49-.77,1.34-.87,1.3-1.09-.06-.31-1.9-.27-3.98-.29-4-.04-4.68-.25-4.97-.73Z"/><path class="b" d="M22.43,24.9c.18,.02,.49,.04,.86-.04,.21-.04,.38-.11,.5-.17"/><path class="e" d="M38.85,25.91c.2,.08,.55,.19,1.01,.17,.26-.01,.48-.06,.64-.12"/><path class="g" d="M22.55,28.78c.14,.02,.39,.04,.68-.04,.17-.05,.3-.11,.39-.17"/><path class="i" d="M39.76,29.03c-.12,.02-.33,.05-.57-.04-.14-.05-.26-.12-.33-.18"/><path class="h" d="M29.43,27c.23,.05,.63,.09,1.09-.07,.27-.1,.48-.24,.64-.36"/><path class="h" d="M29.64,31.39c.3,.05,.83,.09,1.44-.06,.35-.09,.63-.22,.83-.33"/><path class="h" d="M29,36.28c.57,.05,1.56,.11,2.71-.08,.67-.11,1.2-.26,1.57-.4"/><path class="c" d="M22.3,33.92c.19,.03,.52,.05,.9-.04,.22-.05,.4-.12,.52-.19"/><path class="f" d="M39.48,31.87c-.14,.02-.37,.04-.64-.03-.16-.04-.29-.1-.37-.15"/><path class="d" d="M38.98,36.32c-.27,.08-.74,.14-1.29-.11-.32-.15-.56-.36-.75-.54"/><path class="l" d="M23.31,41.83c-.2,0-.31-.09-.34-.28l-2.78-15.84c-.04-.22,.05-.34,.27-.38,.23-.04,.36,.05,.39,.27l2.78,15.84c.04,.22-.06,.35-.28,.38-.02,0-.03,0-.05,0Z"/><path class="w" d="M13.14,30.53s-.02,0-.04,0c0,.01,0,.02,.01,.04,.08,.15,.08,.3,.02,.45-.1,.16-.23,.29-.39,.39-.21,.14-.44,.26-.68,.35-.24,.1-.49,.19-.73,.31-.14,.06-.3,.14-.44,.21,0,.88,.95,1.58,2.12,1.52,1.19-.05,2.18-.83,2.22-1.73,.04-.9-.9-1.59-2.09-1.54Z"/><path class="r" d="M19.45,31.6c.03,.9-.9,1.71-2.08,1.81-1.17,.11-2.15-.54-2.18-1.43-.02-.9,.9-1.71,2.08-1.81,1.17-.11,2.15,.54,2.17,1.43Z"/><path class="w" d="M23.7,30.79c.05,.21,.04,.42-.04,.64-.07,.22-.18,.42-.35,.61s-.37,.35-.62,.48c-.24,.14-.51,.22-.79,.28-.29,.05-.56,.07-.84,.04-.28-.03-.54-.1-.76-.21-.23-.11-.42-.25-.57-.42s-.24-.36-.29-.57-.03-.42,.04-.64c.07-.22,.18-.42,.35-.61,.17-.19,.37-.35,.62-.48,.24-.14,.51-.22,.79-.28,.28-.05,.56-.07,.84-.04,.27,.03,.53,.1,.76,.21,.23,.11,.42,.25,.56,.42s.24,.37,.29,.57Z"/><path class="w" d="M31.75,28.01c-.27,.06-.55,.09-.83,.08-.34-.02-.67-.1-.98-.23-.3-.12-.58-.26-.84-.43-.03-.01-.05-.03-.08-.05-1.03,.38-1.62,1.27-1.33,2.07,.3,.84,1.47,1.26,2.62,.92,1.14-.34,1.83-1.29,1.52-2.14-.02-.08-.05-.16-.09-.23Z"/><path class="r" d="M27.85,29.85c.05,.21,.04,.42-.03,.64s-.18,.42-.34,.61c-.17,.19-.37,.35-.61,.48s-.5,.23-.78,.29c-.27,.06-.55,.07-.83,.05-.27-.03-.52-.09-.76-.2-.23-.11-.42-.25-.56-.42s-.24-.37-.29-.57c-.05-.21-.04-.42,.03-.64,.06-.22,.17-.42,.34-.61s.37-.35,.61-.48c.24-.14,.5-.23,.77-.29,.28-.06,.56-.07,.83-.05,.27,.03,.52,.09,.76,.2,.23,.11,.42,.25,.56,.42s.24,.36,.29,.57Z"/><path class="t" d="M15.18,32.09c-1.43,.12-2.85,.18-4.28,.18,3.05-2.71,6.09-5.42,9.14-8.13-1.62,2.65-3.24,5.3-4.86,7.95Z"/><path class="j" d="M19.44,31.57c-1.42,.23-2.84,.41-4.26,.53,1.62-2.65,3.24-5.3,4.86-7.95-.2,2.47-.4,4.95-.6,7.42Z"/><path class="t" d="M23.64,30.71c-1.39,.34-2.79,.63-4.2,.86,.2-2.47,.4-4.95,.6-7.42,1.2,2.19,2.4,4.37,3.6,6.56Z"/><path class="j" d="M27.76,29.52c-1.36,.45-2.73,.84-4.12,1.19-1.2-2.19-2.4-4.37-3.6-6.56l7.72,5.38Z"/><path class="t" d="M31.76,28.01c-1.31,.55-2.64,1.06-4,1.51l-7.72-5.38c3.9,1.29,7.81,2.58,11.72,3.86Z"/><path class="n" d="M27.43,41.72l.29,.5-5.57,3.04-.29-.5,5.56-3.04"/><path class="n" d="M22.5,36.03l.74,.08-.36,8.88-.74-.08,.36-8.88"/><path class="n" d="M37.91,44.72l.29,.5-5.36,2.93-.29-.5,5.36-2.93"/><path class="n" d="M35.55,43.76l.1,.74-13.74,.91-.1-.75,13.74-.9"/><path class="n" d="M38.51,45.35l-.44,.34-10.83-12.13,.44-.34,10.83,12.13"/><path class="u" d="M39.31,41.96l-3.73,2.76s.27-.56-.42-.68c-.07-.01-.14-.02-.23-.02-.31-.01-.68,0-1.09,.02-.39,.01-.81,.04-1.24,.05-.54,.02-1.09,.03-1.58,0-.7-.04-1.3-.14-1.63-.4l-.24-.29-.6-.73-1.25-1.52-.62-.76-1.03-1.24-.66-.8-.83-1-.66-.8-1.01-1.22,5.25-1.37s.3-.15,.49,.16c.13,.22,.31,.49,.52,.8,.15,.24,.33,.5,.52,.77,.24,.35,.51,.73,.77,1.11,.18,.25,.36,.51,.54,.76,.21,.3,.42,.59,.62,.87,.19,.27,.37,.51,.54,.74,.27,.37,.5,.67,.66,.87,.05,.07,.11,.14,.17,.21,.25,.28,.48,.48,.68,.63,.56,.39,.93,.35,.93,.35h1.59c.46,0,.98,0,1.46,0,.75,0,1.42,0,1.69,0h.1c.51-.01,.31,.76,.31,.76"/><path class="x" d="M29.25,35.68c-1.58,.71-3.29,1.28-5.1,1.66l-.66-.8c1.86-.36,3.62-.91,5.24-1.63,.15,.24,.33,.5,.52,.77"/><path class="x" d="M30.56,37.55c-1.53,.68-3.18,1.22-4.92,1.6l-.66-.8c1.79-.35,3.48-.87,5.04-1.56,.18,.25,.36,.51,.54,.76"/><path class="x" d="M31.72,39.16c-1.37,.78-2.85,1.46-4.43,1.99l-.62-.76c1.61-.52,3.12-1.19,4.51-1.97,.19,.27,.37,.51,.54,.74"/><path class="x" d="M33.23,40.86c-1.24,.94-2.6,1.8-4.09,2.53l-.6-.73c1.45-.7,2.79-1.52,4-2.43,.25,.28,.48,.48,.68,.63"/><path class="x" d="M35.76,41.21c-.94,1.02-1.99,1.99-3.15,2.87-.54,.02-1.09,.03-1.58,0,1.28-.87,2.43-1.83,3.46-2.87h1.27"/><path class="x" d="M38.91,41.21c-1.37,.84-2.62,1.79-3.74,2.83-.07-.01-.14-.02-.23-.02-.31-.01-.68,0-1.09,.02,1.01-1.01,2.14-1.96,3.37-2.81,.75,0,1.42,0,1.69,0"/><path class="n" d="M33.3,48.2l-.7,.55-10.99-13.29,.7-.55,10.99,13.29"/></svg>