<?xml version="1.0" encoding="UTF-8" standalone="no"?><!DOCTYPE svg PUBLIC "-//W3C//DTD SVG 1.1//EN" "http://www.w3.org/Graphics/SVG/1.1/DTD/svg11.dtd"><svg width="100%" height="100%" viewBox="0 0 64 64" version="1.1" xmlns="http://www.w3.org/2000/svg" xmlns:xlink="http://www.w3.org/1999/xlink" xml:space="preserve" xmlns:serif="http://www.serif.com/" style="fill-rule:evenodd;clip-rule:evenodd;stroke-linejoin:round;stroke-miterlimit:2;"><g id="blue"><path d="M10,14.488C9.098,13.911 8.5,12.9 8.5,11.75C8.5,9.956 9.956,8.5 11.75,8.5C12.9,8.5 13.911,9.098 14.488,10L49.512,10C50.089,9.098 51.1,8.5 52.25,8.5C54.044,8.5 55.5,9.956 55.5,11.75C55.5,12.9 54.902,13.911 54,14.488L54,49.512C54.902,50.089 55.5,51.1 55.5,52.25C55.5,54.044 54.044,55.5 52.25,55.5C51.1,55.5 50.089,54.902 49.512,54L14.488,54C13.911,54.902 12.9,55.5 11.75,55.5C9.956,55.5 8.5,54.044 8.5,52.25C8.5,51.1 9.098,50.089 10,49.512L10,14.488ZM49.087,12.5L14.913,12.5C14.631,13.692 13.692,14.631 12.5,14.913L12.5,49.087C13.692,49.369 14.631,50.308 14.913,51.5L49.087,51.5C49.369,50.308 50.308,49.369 51.5,49.087L51.5,14.913C50.308,14.631 49.369,13.692 49.087,12.5Z" style="fill:#d1f8fd;"/></g><g id="orange"><path d="M49.087,12.5C49.369,13.692 50.308,14.631 51.5,14.913L51.5,49.087C50.308,49.369 49.369,50.308 49.087,51.5L14.913,51.5C14.631,50.308 13.692,49.369 12.5,49.087L12.5,14.913C13.692,14.631 14.631,13.692 14.913,12.5L49.087,12.5Z" style="fill:#edb666;"/><path d="M14.805,12.861L14.926,12.86L14.978,15.735L12.5,15.742L12.5,14.913C13.569,14.66 14.434,13.879 14.805,12.861ZM12.5,19.136L15.087,19.129L15.139,22.003L12.5,22.011L12.5,19.136ZM12.5,29.264L12.548,31.893L12.5,31.893L12.5,29.264ZM12.5,32.192L15.467,32.184L15.519,35.059L12.5,35.067L12.5,32.192ZM12.5,35.406L12.801,35.406L12.853,38.28L12.5,38.281L12.5,35.406ZM12.5,38.72L15.656,38.712L15.709,41.586L12.5,41.595L12.5,38.72ZM12.5,41.935L12.991,41.933L13.043,44.808L12.5,44.809L12.5,41.935ZM12.5,48.463L13.181,48.461L13.197,49.339C12.977,49.23 12.744,49.145 12.5,49.087L12.5,48.463ZM13.316,49.402L13.296,48.321L18.413,48.306L18.609,51.3L14.835,51.225C14.575,50.444 14.027,49.794 13.316,49.402ZM51.5,41.526L48.756,41.534L48.704,38.659L51.5,38.651L51.5,41.526ZM51.5,38.311L51.421,38.312L51.369,35.437L51.5,35.437L51.5,38.311ZM51.5,35.118L48.71,35.125L48.658,32.251L51.5,32.243L51.5,35.118ZM51.5,31.903L51.376,31.904L51.324,29.029L51.5,29.029L51.5,31.903ZM51.5,25.434L50.945,25.435L50.893,22.561L51.5,22.559L51.5,25.434ZM51.5,22.201L48.215,22.21L48.163,19.336L51.5,19.326L51.5,22.201ZM51.5,18.847L50.996,18.848L50.944,15.974L51.5,15.972L51.5,18.847ZM51.5,15.673L48.025,15.683L47.973,12.808L49.175,12.805C49.534,13.85 50.412,14.655 51.5,14.913L51.5,15.673ZM31.367,15.609L25.991,15.644L25.938,12.769L31.054,12.755L31.367,15.609ZM23.065,18.886L17.949,18.901L17.897,16.026L23.013,16.012L23.065,18.886ZM36.933,22.101L31.817,22.116L31.765,19.241L36.881,19.227L36.933,22.101ZM23.255,25.414L18.139,25.429L18.086,22.554L23.203,22.539L23.255,25.414ZM17.879,25.449L12.763,25.464L12.71,22.589L17.826,22.575L17.879,25.449ZM18.04,31.717L12.924,31.732L12.872,28.857L17.988,28.843L18.04,31.717ZM23.75,38.329L18.634,38.344L18.582,35.469L23.698,35.455L23.75,38.329ZM20.66,22.087L15.544,22.102L15.492,19.227L20.608,19.213L20.66,22.087ZM25.846,15.525L20.73,15.539L20.678,12.664L25.794,12.65L25.846,15.525ZM39.644,25.288L34.528,25.302L34.475,22.428L39.591,22.413L39.644,25.288ZM31.602,28.545L26.486,28.559L26.434,25.685L31.55,25.67L31.602,28.545ZM36.743,15.574L31.627,15.588L31.575,12.713L36.691,12.699L36.743,15.574ZM31.792,35.072L26.676,35.087L26.623,32.212L31.74,32.198L31.792,35.072ZM26.226,28.58L21.11,28.594L21.058,25.72L26.174,25.705L26.226,28.58ZM34.267,25.323L29.151,25.337L29.099,22.463L34.215,22.448L34.267,25.323ZM26.036,22.052L20.92,22.067L20.868,19.192L25.984,19.178L26.036,22.052ZM21.201,41.411L16.085,41.425L16.032,38.551L21.148,38.536L21.201,41.411ZM34.503,38.259L29.387,38.273L29.334,35.399L34.45,35.384L34.503,38.259ZM39.833,31.815L34.717,31.83L34.665,28.955L39.781,28.941L39.833,31.815ZM34.457,31.851L29.341,31.865L29.289,28.99L34.405,28.976L34.457,31.851ZM26.416,35.108L21.3,35.122L21.247,32.247L26.363,32.233L26.416,35.108ZM33.962,18.935L28.846,18.95L28.794,16.075L33.91,16.061L33.962,18.935ZM37.428,35.016L32.312,35.031L32.26,32.156L37.376,32.142L37.428,35.016ZM37.474,41.425L32.358,41.439L32.305,38.565L37.421,38.55L37.474,41.425ZM40.374,51.139L35.258,51.153L35.206,48.279L40.322,48.264L40.374,51.139ZM18.419,44.773L13.303,44.787L13.251,41.913L18.367,41.898L18.419,44.773ZM42.245,15.619L37.129,15.634L37.076,12.759L42.192,12.745L42.245,15.619ZM45.595,31.84L40.479,31.855L40.427,28.98L45.543,28.966L45.595,31.84ZM42.93,35.062L37.814,35.076L37.761,32.202L42.877,32.187L42.93,35.062ZM45.785,38.368L40.669,38.382L40.617,35.508L45.733,35.493L45.785,38.368ZM42.624,28.674L37.508,28.689L37.456,25.814L42.572,25.8L42.624,28.674ZM34.998,51.174L29.882,51.189L29.83,48.314L34.946,48.299L34.998,51.174ZM23.796,44.738L18.68,44.752L18.627,41.877L23.743,41.863L23.796,44.738ZM40.329,44.731L35.213,44.745L35.16,41.87L40.277,41.856L40.329,44.731ZM34.808,44.646L29.692,44.661L29.64,41.786L34.756,41.772L34.808,44.646ZM50.736,18.869L45.62,18.884L45.568,16.009L50.684,15.995L50.736,18.869ZM42.434,22.147L37.318,22.161L37.266,19.287L42.382,19.272L42.434,22.147ZM51.277,38.193L46.161,38.207L46.109,35.332L51.225,35.318L51.277,38.193ZM32.287,47.988L27.171,48.002L27.119,45.127L32.235,45.113L32.287,47.988ZM48.496,41.554L43.38,41.569L43.327,38.694L48.443,38.68L48.496,41.554ZM43.119,41.59L38.003,41.604L37.951,38.729L43.067,38.715L43.119,41.59ZM43.184,47.942L38.068,47.956L38.016,45.082L43.132,45.067L43.184,47.942ZM26.721,41.495L21.345,41.53L21.293,38.656L26.409,38.641L26.721,41.495ZM48.116,28.499L43,28.514L42.948,25.639L48.064,25.625L48.116,28.499ZM48.974,48.082L43.714,47.978L43.661,45.103L48.777,45.088L48.974,48.082ZM45.993,51.192L40.877,51.207L40.824,48.332L45.941,48.317L45.993,51.192ZM45.216,18.785L40.1,18.799L40.047,15.925L45.163,15.91L45.216,18.785ZM26.911,48.023L21.795,48.037L21.743,45.163L26.859,45.148L26.911,48.023ZM47.83,22.112L42.714,22.127L42.661,19.252L47.777,19.238L47.83,22.112Z" style="fill:#f46f2a;"/><path d="M49.186,51.163L46.253,51.171L46.201,48.297L51.317,48.282L51.332,49.131C50.333,49.426 49.533,50.187 49.186,51.163ZM20.895,35.023L15.779,35.038L15.727,32.163L20.843,32.149L20.895,35.023ZM50.971,31.805L45.855,31.82L45.803,28.945L50.919,28.93L50.971,31.805ZM32.097,41.46L26.981,41.474L26.929,38.6L32.045,38.585L32.097,41.46ZM31.557,22.136L26.441,22.151L26.388,19.276L31.504,19.262L31.557,22.136ZM20.354,15.7L15.238,15.714L15.186,12.84L20.302,12.825L20.354,15.7Z" style="fill:#c64d23;"/><path d="M18.23,38.245L13.114,38.26L13.061,35.385L18.177,35.37L18.23,38.245ZM47.765,15.703L42.649,15.718L42.597,12.843L47.713,12.829L47.765,15.703ZM21.39,47.939L16.274,47.953L16.222,45.078L21.338,45.064L21.39,47.939ZM40.023,38.343L34.907,38.358L34.855,35.483L39.971,35.468L40.023,38.343ZM51.467,44.72L46.351,44.735L46.298,41.86L51.414,41.846L51.467,44.72ZM28.747,25.239L23.515,25.393L23.463,22.519L28.579,22.504L28.747,25.239ZM20.85,28.615L15.734,28.63L15.681,25.755L20.797,25.74L20.85,28.615ZM29.316,44.822L24.056,44.717L24.004,41.842L29.12,41.828L29.316,44.822ZM48.306,35.027L43.19,35.041L43.138,32.167L48.254,32.152L48.306,35.027ZM50.685,25.456L45.569,25.471L45.516,22.596L50.633,22.581L50.685,25.456ZM39.454,18.76L34.338,18.775L34.286,15.9L39.402,15.885L39.454,18.76ZM17.689,18.922L12.573,18.936L12.521,16.061L17.637,16.047L17.689,18.922Z" style="fill:#dd5825;"/><path d="M51.5,47.916L49.35,47.922L49.298,45.047L51.5,45.041L51.5,47.916ZM51.5,28.589L48.521,28.598L48.468,25.723L51.5,25.715L51.5,28.589ZM12.5,25.664L15.277,25.656L15.329,28.531L12.5,28.539L12.5,25.664ZM12.5,45.109L15.962,45.099L16.014,47.974L12.5,47.984L12.5,45.109ZM28.586,18.971L23.47,18.985L23.417,16.11L28.533,16.096L28.586,18.971ZM37.123,28.629L32.007,28.643L31.954,25.769L37.07,25.754L37.123,28.629ZM24.101,51.125L18.985,51.14L18.933,48.265L24.049,48.25L24.101,51.125ZM29.622,51.209L24.506,51.224L24.453,48.349L29.569,48.335L29.622,51.209ZM23.56,31.802L18.444,31.816L18.392,28.941L23.508,28.927L23.56,31.802ZM45.164,25.372L40.048,25.386L39.996,22.512L45.112,22.497L45.164,25.372ZM46.09,44.755L40.974,44.77L40.922,41.895L46.038,41.881L46.09,44.755ZM28.937,31.766L23.821,31.781L23.768,28.906L28.884,28.892L28.937,31.766ZM37.663,47.952L32.547,47.967L32.495,45.092L37.611,45.078L37.663,47.952ZM29.126,38.294L24.01,38.309L23.958,35.434L29.074,35.419L29.126,38.294Z" style="fill:#ec5c24;"/></g></svg>