<?xml version="1.0" encoding="utf-8"?>
<!-- Generator: Adobe Illustrator 26.1.0, SVG Export Plug-In . SVG Version: 6.00 Build 0)  -->
<svg version="1.1" id="Layer_1" xmlns="http://www.w3.org/2000/svg" xmlns:xlink="http://www.w3.org/1999/xlink" x="0px" y="0px"
	 viewBox="0 0 40 40" style="enable-background:new 0 0 40 40;" xml:space="preserve">
<style type="text/css">
	.st0{fill:#434343;}
	.st1{fill:#EDB666;}
	.st2{fill:#F46F2A;}
	.st3{fill:#EC5C24;}
	.st4{fill:#DD5825;}
	.st5{fill:#C64D23;}
	.st6{fill:#CCEAF4;}
</style>
<path class="st0" d="M0.8,18l19.7,17.4l18.3-12.4v-1.8l-37.9-5L0.8,18z"/>
<path class="st1" d="M20.5,31.6L2.7,16.3L18.9,5.9l18,15.1L20.5,31.6z"/>
<g>
	<g>
		<path class="st2" d="M7,15.1l-2.1,1.8l-1-1.2L6,13.9L7,15.1"/>
	</g>
</g>
<g>
	<g>
		<path class="st3" d="M9.3,13.2L7.1,15l-1-1.2L8.2,12L9.3,13.2"/>
	</g>
</g>
<g>
	<g>
		<path class="st4" d="M11.5,11.3l-2.1,1.8l-1-1.2l2.1-1.8L11.5,11.3"/>
	</g>
</g>
<g>
	<g>
		<path class="st3" d="M7,17.4l-2.1,1.8l-1-1.2L6,16.2L7,17.4"/>
	</g>
</g>
<path class="st2" d="M9.3,15.5l-2.1,1.8l-1-1.2l2.1-1.8L9.3,15.5"/>
<path class="st2" d="M11.5,13.6l-2.1,1.8l-1-1.2l2.1-1.8L11.5,13.6"/>
<path class="st3" d="M13.7,11.7l-2.1,1.8l-1-1.2l2.1-1.8L13.7,11.7"/>
<path class="st2" d="M9.3,17.8l-2.1,1.8l-1-1.2l2.1-1.8L9.3,17.8"/>
<path class="st2" d="M11.6,15.9l-2.1,1.8l-1-1.2l2.1-1.8L11.6,15.9"/>
<path class="st5" d="M13.8,14l-2.1,1.8l-1-1.2l2.1-1.8L13.8,14"/>
<path class="st2" d="M11.5,18.2L9.4,20l-1-1.2l2.1-1.8L11.5,18.2"/>
<path class="st4" d="M13.8,16.3l-2.1,1.8l-1-1.2l2.1-1.8L13.8,16.3"/>
<path class="st2" d="M16,14.4l-2.1,1.8l-1-1.2l2.1-1.8L16,14.4"/>
<path class="st5" d="M11.6,20.5l-2.1,1.8l-1-1.2l2.1-1.8L11.6,20.5"/>
<path class="st2" d="M13.8,18.5l-2.1,1.8l-1-1.2l2.1-1.8L13.8,18.5"/>
<path class="st2" d="M16.1,16.6l-2.1,1.8l-1-1.2l2.1-1.8L16.1,16.6"/>
<path class="st3" d="M16,9.8l-2.1,1.8l-1-1.2l2.1-1.8L16,9.8"/>
<path class="st2" d="M18.2,7.9l-2.1,1.8l-1-1.2l2.1-1.8L18.2,7.9"/>
<path class="st2" d="M20.4,6l-2.1,1.8l-1-1.2l2.1-1.8L20.4,6"/>
<path class="st2" d="M16,12l-2.1,1.8l-1-1.2l2.1-1.8L16,12"/>
<path class="st2" d="M18.3,10.1L16.1,12l-1-1.2l2.1-1.8L18.3,10.1"/>
<path class="st2" d="M20.5,8.2l-2.1,1.8l-1-1.2L19.5,7L20.5,8.2"/>
<path class="st3" d="M18.3,12.5l-2.1,1.8l-1-1.2l2.1-1.8L18.3,12.5"/>
<path class="st2" d="M20.5,10.6l-2.1,1.8l-1-1.2l2.1-1.8L20.5,10.6"/>
<path class="st4" d="M22.7,8.6l-2.1,1.8l-1-1.2l2.1-1.8L22.7,8.6"/>
<path class="st2" d="M18.3,14.7l-2.1,1.8l-1-1.2l2.1-1.8L18.3,14.7"/>
<path class="st5" d="M20.6,12.8l-2.1,1.8l-1-1.2l2.1-1.8L20.6,12.8"/>
<path class="st2" d="M22.8,10.9l-2.1,1.8l-1-1.2l2.1-1.8L22.8,10.9"/>
<path class="st2" d="M13.8,20.9l-2.1,1.8l-1-1.2l2.1-1.8L13.8,20.9"/>
<path class="st2" d="M16.1,19l-2.1,1.8l-1-1.2l2.1-1.8L16.1,19"/>
<path class="st2" d="M18.3,17.1l-2.1,1.8l-1-1.2l2.1-1.8L18.3,17.1"/>
<path class="st2" d="M13.9,23.1L11.7,25l-1-1.2l2.1-1.8L13.9,23.1"/>
<path class="st3" d="M16.1,21.2L14,23l-1-1.2l2.1-1.8L16.1,21.2"/>
<path class="st4" d="M18.4,19.3l-2.1,1.8l-1-1.2l2.1-1.8L18.4,19.3"/>
<path class="st2" d="M16.1,23.6L14,25.4l-1-1.2l2.1-1.8L16.1,23.6"/>
<path class="st2" d="M18.3,21.6l-2.1,1.8l-1-1.2l2.1-1.8L18.3,21.6"/>
<path class="st3" d="M20.6,19.7l-2.1,1.8l-1-1.2l2.1-1.8L20.6,19.7"/>
<path class="st2" d="M18.4,23.9l-2.1,1.8l-1-1.2l2.1-1.8L18.4,23.9"/>
<path class="st5" d="M20.6,22l-2.1,1.8l-1-1.2l2.1-1.8L20.6,22"/>
<path class="st2" d="M18.4,26.2l-2.1,1.8l-1-1.2l2.1-1.8L18.4,26.2"/>
<path class="st4" d="M20.6,24.3l-2.1,1.8l-1-1.2l2.1-1.8L20.6,24.3"/>
<path class="st2" d="M22.9,22.4l-2.1,1.8l-1-1.2l2.1-1.8L22.9,22.4"/>
<path class="st2" d="M20.7,26.6l-2.1,1.8l-1-1.2l2.1-1.8L20.7,26.6"/>
<path class="st2" d="M22.9,24.6l-2.1,1.8l-1-1.2l2.1-1.8L22.9,24.6"/>
<path class="st4" d="M20.5,15.1L18.4,17l-1-1.2l2.1-1.8L20.5,15.1"/>
<path class="st2" d="M22.8,13.2l-2.1,1.8l-1-1.2l2.1-1.8L22.8,13.2"/>
<path class="st2" d="M25,11.3l-2.1,1.8l-1-1.2l2.1-1.8L25,11.3"/>
<path class="st2" d="M20.6,17.4l-2.1,1.8l-1-1.2l2.1-1.8L20.6,17.4"/>
<path class="st2" d="M22.8,15.5l-2.1,1.8l-1-1.2l2.1-1.8L22.8,15.5"/>
<path class="st3" d="M25.1,13.6l-2.1,1.8l-1-1.2l2.1-1.8L25.1,13.6"/>
<path class="st3" d="M22.8,17.8l-2.1,1.8l-1-1.2l2.1-1.8L22.8,17.8"/>
<path class="st2" d="M25.1,15.9l-2.1,1.8l-1-1.2l2.1-1.8L25.1,15.9"/>
<path class="st2" d="M27.3,14l-2.1,1.8l-1-1.2l2.1-1.8L27.3,14"/>
<path class="st2" d="M22.9,20.1l-2.1,1.8l-1-1.2l2.1-1.8L22.9,20.1"/>
<path class="st2" d="M25.1,18.2L23,20l-1-1.2l2.1-1.8L25.1,18.2"/>
<path class="st2" d="M27.4,16.2l-2.1,1.8l-1-1.2l2.1-1.8L27.4,16.2"/>
<path class="st5" d="M29.6,14.3l-2.1,1.8l-1-1.2l2.1-1.8L29.6,14.3"/>
<path class="st3" d="M25.1,20.5L23,22.3l-1-1.2l2.1-1.8L25.1,20.5"/>
<path class="st2" d="M27.3,18.6l-2.1,1.8l-1-1.2l2.1-1.8L27.3,18.6"/>
<path class="st4" d="M29.6,16.7l-2.1,1.8l-1-1.2l2.1-1.8L29.6,16.7"/>
<path class="st2" d="M25.2,22.7L23,24.6l-1-1.2l2.1-1.8L25.2,22.7"/>
<path class="st5" d="M27.4,20.8l-2.1,1.8l-1-1.2l2.1-1.8L27.4,20.8"/>
<path class="st2" d="M29.6,18.9l-2.1,1.8l-1-1.2l2.1-1.8L29.6,18.9"/>
<path class="st2" d="M31.9,17l-2.1,1.8l-1-1.2l2.1-1.8L31.9,17"/>
<path class="st2" d="M20.7,28.9l-2.1,1.8l-1-1.2l2.1-1.8L20.7,28.9"/>
<path class="st2" d="M22.9,27l-2.1,1.8l-1-1.2l2.1-1.8L22.9,27"/>
<path class="st2" d="M25.1,25.1L23,26.9l-1-1.2l2.1-1.8L25.1,25.1"/>
<path class="st2" d="M20.7,31.1L18.6,33l-1-1.2l2.1-1.8L20.7,31.1"/>
<path class="st3" d="M23,29.2l-2.1,1.8l-1-1.2l2.1-1.8L23,29.2"/>
<path class="st4" d="M25.2,27.3l-2.1,1.8l-1-1.2l2.1-1.8L25.2,27.3"/>
<g>
	<g>
		<path class="st2" d="M23,31.6l-2.1,1.8l-1-1.2l2.1-1.8L23,31.6"/>
	</g>
</g>
<g>
	<g>
		<path class="st2" d="M25.2,29.7L23,31.5l-1-1.2l2.1-1.8L25.2,29.7"/>
	</g>
</g>
<g>
	<g>
		<path class="st3" d="M27.4,27.7l-2.1,1.8l-1-1.2l2.1-1.8L27.4,27.7"/>
	</g>
</g>
<path class="st4" d="M27.4,23.2L25.2,25l-1-1.2l2.1-1.8L27.4,23.2"/>
<path class="st2" d="M29.6,21.2l-2.1,1.8l-1-1.2l2.1-1.8L29.6,21.2"/>
<path class="st2" d="M31.9,19.3l-2.1,1.8l-1-1.2l2.1-1.8L31.9,19.3"/>
<path class="st2" d="M27.5,25.4l-2.1,1.8l-1-1.2l2.1-1.8L27.5,25.4"/>
<path class="st2" d="M29.7,23.5l-2.1,1.8l-1-1.2l2.1-1.8L29.7,23.5"/>
<path class="st5" d="M16.1,25.8l-2.1,1.6l-1.1-1l2.1-1.8L16.1,25.8"/>
<path class="st5" d="M9.3,20.1l-1.8,1.4l-1.1-0.9l1.9-1.7L9.3,20.1"/>
<path class="st5" d="M27.4,11.7l-2.1,1.8l-1-1.2l1.7-1.3L27.4,11.7"/>
<path class="st3" d="M31.9,21.6l-2.1,1.8l-1-1.2l2.1-1.8L31.9,21.6"/>
<path class="st2" d="M34.1,17.5l-2.1,1.8l-1-1.2l2-1.7L34.1,17.5"/>
<path class="st4" d="M34.2,19.7L32,21.5l-1-1.2l2.1-1.8L34.2,19.7"/>
<g>
	<g>
		<path class="st3" d="M29.7,25.8l-2.1,1.8l-1-1.2l2.1-1.8L29.7,25.8"/>
	</g>
</g>
<g>
	<g>
		<path class="st2" d="M31.9,23.9l-2.1,1.8l-1-1.2l2.1-1.8L31.9,23.9"/>
	</g>
</g>
<g>
	<g>
		<path class="st2" d="M34.1,22L32,23.8l-1-1.2l2.1-1.8L34.1,22"/>
	</g>
</g>
<g>
	<g>
		<path class="st3" d="M36.4,20.1l-2.1,1.8l-1-1.2l2.1-1.8L36.4,20.1"/>
	</g>
</g>
<path class="st6" d="M18.8,7.3L4.6,16.4l16,13.7L35,20.9L18.8,7.3 M19,4.5l19.8,16.6L20.4,33L0.8,16.2L19,4.5z"/>
<path class="st6" d="M7,15.9c0,0.1,0,0.3-0.1,0.4c0,0.1-0.1,0.3-0.2,0.4c-0.1,0.1-0.2,0.3-0.3,0.4c-0.1,0.1-0.3,0.2-0.4,0.3
	c-0.2,0.1-0.3,0.2-0.5,0.3S5.1,17.9,4.9,18c-0.2,0.1-0.4,0.1-0.6,0.1c-0.2,0-0.4,0-0.7,0c-0.2,0-0.4,0-0.7,0c-0.2,0-0.4-0.1-0.6-0.1
	c-0.2-0.1-0.4-0.1-0.6-0.2s-0.4-0.2-0.5-0.3c-0.2-0.1-0.3-0.2-0.4-0.3c-0.1-0.1-0.2-0.3-0.3-0.4c-0.1-0.1-0.1-0.3-0.2-0.4
	c0-0.1-0.1-0.3-0.1-0.4c0-0.1,0-0.3,0.1-0.4c0-0.1,0.1-0.3,0.2-0.4c0.1-0.1,0.2-0.3,0.3-0.4c0.1-0.1,0.3-0.2,0.4-0.3
	c0.2-0.1,0.3-0.2,0.5-0.3s0.4-0.2,0.6-0.2c0.2-0.1,0.4-0.1,0.6-0.1c0.2,0,0.4,0,0.7,0c0.2,0,0.4,0,0.7,0c0.2,0,0.4,0.1,0.6,0.1
	C5.1,13.9,5.3,14,5.5,14s0.4,0.2,0.5,0.3c0.2,0.1,0.3,0.2,0.4,0.3c0.1,0.1,0.2,0.3,0.3,0.4c0.1,0.1,0.2,0.3,0.2,0.4
	C7,15.6,7,15.8,7,15.9z"/>
<path class="st6" d="M21.7,6.9c0,0.1,0,0.3-0.1,0.4c0,0.1-0.1,0.3-0.2,0.4c-0.1,0.1-0.2,0.3-0.3,0.4c-0.1,0.1-0.3,0.2-0.4,0.3
	c-0.2,0.1-0.3,0.2-0.5,0.3S19.8,8.9,19.6,9C19.4,9,19.2,9.1,19,9.1c-0.2,0-0.4,0-0.7,0c-0.2,0-0.4,0-0.7,0C17.4,9.1,17.2,9,17,9
	c-0.2-0.1-0.4-0.1-0.6-0.2c-0.2-0.1-0.4-0.2-0.5-0.3c-0.2-0.1-0.3-0.2-0.4-0.3c-0.1-0.1-0.2-0.3-0.3-0.4C15.1,7.6,15,7.5,15,7.3
	c0-0.1-0.1-0.3-0.1-0.4s0-0.3,0.1-0.4c0-0.1,0.1-0.3,0.2-0.4c0.1-0.1,0.2-0.3,0.3-0.4c0.1-0.1,0.3-0.2,0.4-0.3
	c0.2-0.1,0.3-0.2,0.5-0.3c0.2-0.1,0.4-0.2,0.6-0.2c0.2-0.1,0.4-0.1,0.6-0.1c0.2,0,0.4,0,0.7,0c0.2,0,0.4,0,0.7,0
	c0.2,0,0.4,0.1,0.6,0.1C19.8,4.9,20,4.9,20.2,5s0.4,0.2,0.5,0.3c0.2,0.1,0.3,0.2,0.4,0.3c0.1,0.1,0.2,0.3,0.3,0.4
	c0.1,0.1,0.2,0.3,0.2,0.4C21.7,6.6,21.7,6.7,21.7,6.9z"/>
<path class="st6" d="M39.8,21.6c0,0.1,0,0.3-0.1,0.4c0,0.1-0.1,0.3-0.2,0.4c-0.1,0.1-0.2,0.3-0.3,0.4c-0.1,0.1-0.3,0.2-0.4,0.3
	c-0.2,0.1-0.3,0.2-0.5,0.3c-0.2,0.1-0.4,0.2-0.6,0.2s-0.4,0.1-0.6,0.1c-0.2,0-0.4,0-0.7,0c-0.2,0-0.4,0-0.7,0
	c-0.2,0-0.4-0.1-0.6-0.1s-0.4-0.1-0.6-0.2c-0.2-0.1-0.4-0.2-0.5-0.3c-0.2-0.1-0.3-0.2-0.4-0.3c-0.1-0.1-0.2-0.3-0.3-0.4
	c-0.1-0.1-0.2-0.3-0.2-0.4c0-0.1-0.1-0.3-0.1-0.4s0-0.3,0.1-0.4c0-0.1,0.1-0.3,0.2-0.4c0.1-0.1,0.2-0.3,0.3-0.4
	c0.1-0.1,0.3-0.2,0.4-0.3c0.2-0.1,0.3-0.2,0.5-0.3c0.2-0.1,0.4-0.2,0.6-0.2s0.4-0.1,0.6-0.1c0.2,0,0.4,0,0.7,0c0.2,0,0.4,0,0.7,0
	c0.2,0,0.4,0.1,0.6,0.1s0.4,0.1,0.6,0.2c0.2,0.1,0.4,0.2,0.5,0.3c0.2,0.1,0.3,0.2,0.4,0.3c0.1,0.1,0.2,0.3,0.3,0.4
	c0.1,0.1,0.1,0.3,0.2,0.4C39.7,21.3,39.8,21.4,39.8,21.6z"/>
<path class="st6" d="M24,31.7c0,0.1,0,0.3-0.1,0.4c0,0.1-0.1,0.3-0.2,0.4c-0.1,0.1-0.2,0.3-0.3,0.4c-0.1,0.1-0.3,0.2-0.4,0.3
	c-0.2,0.1-0.3,0.2-0.5,0.3c-0.2,0.1-0.4,0.2-0.6,0.2c-0.2,0.1-0.4,0.1-0.6,0.1c-0.2,0-0.4,0-0.7,0c-0.2,0-0.4,0-0.7,0
	c-0.2,0-0.4-0.1-0.6-0.1c-0.2-0.1-0.4-0.1-0.6-0.2c-0.2-0.1-0.4-0.2-0.5-0.3c-0.2-0.1-0.3-0.2-0.4-0.3c-0.1-0.1-0.2-0.3-0.3-0.4
	c-0.1-0.1-0.2-0.3-0.2-0.4c0-0.1-0.1-0.3-0.1-0.4c0-0.1,0-0.3,0.1-0.4c0-0.1,0.1-0.3,0.2-0.4c0.1-0.1,0.2-0.3,0.3-0.4
	c0.1-0.1,0.3-0.2,0.4-0.3c0.2-0.1,0.3-0.2,0.5-0.3c0.2-0.1,0.4-0.2,0.6-0.2c0.2-0.1,0.4-0.1,0.6-0.1c0.2,0,0.4,0,0.7,0
	c0.2,0,0.4,0,0.7,0c0.2,0,0.4,0.1,0.6,0.1c0.2,0.1,0.4,0.1,0.6,0.2c0.2,0.1,0.4,0.2,0.5,0.3c0.2,0.1,0.3,0.2,0.4,0.3
	s0.2,0.3,0.3,0.4c0.1,0.1,0.2,0.3,0.2,0.4C23.9,31.4,24,31.6,24,31.7z"/>
</svg>
