<?xml version="1.0" encoding="utf-8"?>
<!-- Generator: Adobe Illustrator 26.1.0, SVG Export Plug-In . SVG Version: 6.00 Build 0)  -->
<svg version="1.1" id="Layer_1" xmlns="http://www.w3.org/2000/svg" xmlns:xlink="http://www.w3.org/1999/xlink" x="0px" y="0px"
	 viewBox="0 0 40 40" style="enable-background:new 0 0 40 40;" xml:space="preserve">
<style type="text/css">
	.st0{fill:#434343;}
	.st1{fill:#B0BEC5;}
	.st2{fill:#CCEAF4;}
	.st3{fill:#1E1E1E;}
	.st4{fill:#4D5055;}
	.st5{fill:#5C6063;}
	.st6{fill:#393939;}
</style>
<path class="st0" d="M1.8,18.2l18.6,16.5l17.3-11.7v-1.7L1.8,16.4L1.8,18.2z"/>
<path class="st1" d="M20.5,31L3.6,16.5l15.3-9.8L36,21L20.5,31z"/>
<path class="st2" d="M18.9,8L5.4,16.6l15.2,13l13.6-8.8L18.9,8 M19,5.3l18.7,15.7L20.4,32.3L1.8,16.4L19,5.3z"/>
<path class="st2" d="M7.7,16.1c0,0.1,0,0.3-0.1,0.4c0,0.1-0.1,0.3-0.2,0.4c-0.1,0.1-0.2,0.3-0.3,0.4c-0.1,0.1-0.3,0.2-0.4,0.3
	c-0.1,0.1-0.3,0.2-0.5,0.3c-0.2,0.1-0.4,0.1-0.6,0.2c-0.2,0.1-0.4,0.1-0.6,0.1c-0.2,0-0.4,0-0.6,0c-0.2,0-0.4,0-0.6,0
	c-0.2,0-0.4-0.1-0.6-0.1c-0.2-0.1-0.4-0.1-0.6-0.2c-0.2-0.1-0.3-0.2-0.5-0.3c-0.1-0.1-0.3-0.2-0.4-0.3c-0.1-0.1-0.2-0.2-0.3-0.4
	c-0.1-0.1-0.1-0.3-0.2-0.4c0-0.1-0.1-0.3-0.1-0.4c0-0.1,0-0.3,0.1-0.4c0-0.1,0.1-0.3,0.2-0.4c0.1-0.1,0.2-0.3,0.3-0.4
	c0.1-0.1,0.2-0.2,0.4-0.3c0.1-0.1,0.3-0.2,0.5-0.3c0.2-0.1,0.4-0.1,0.6-0.2c0.2-0.1,0.4-0.1,0.6-0.1c0.2,0,0.4,0,0.6,0
	c0.2,0,0.4,0,0.6,0c0.2,0,0.4,0.1,0.6,0.1c0.2,0.1,0.4,0.1,0.6,0.2c0.2,0.1,0.3,0.2,0.5,0.3c0.1,0.1,0.3,0.2,0.4,0.3
	c0.1,0.1,0.2,0.2,0.3,0.4c0.1,0.1,0.1,0.3,0.2,0.4C7.7,15.9,7.7,16,7.7,16.1z"/>
<path class="st2" d="M21.6,7.6c0,0.1,0,0.3-0.1,0.4c0,0.1-0.1,0.3-0.2,0.4c-0.1,0.1-0.2,0.3-0.3,0.4c-0.1,0.1-0.2,0.2-0.4,0.3
	c-0.1,0.1-0.3,0.2-0.5,0.3c-0.2,0.1-0.4,0.1-0.6,0.2c-0.2,0.1-0.4,0.1-0.6,0.1c-0.2,0-0.4,0-0.6,0c-0.2,0-0.4,0-0.6,0
	c-0.2,0-0.4-0.1-0.6-0.1c-0.2-0.1-0.4-0.1-0.6-0.2s-0.3-0.2-0.5-0.3C16,9,15.8,8.9,15.7,8.8c-0.1-0.1-0.2-0.2-0.3-0.4
	c-0.1-0.1-0.1-0.3-0.2-0.4c0-0.1-0.1-0.3-0.1-0.4s0-0.3,0.1-0.4c0-0.1,0.1-0.3,0.2-0.4c0.1-0.1,0.2-0.3,0.3-0.4
	c0.1-0.1,0.2-0.2,0.4-0.3c0.1-0.1,0.3-0.2,0.5-0.3s0.4-0.1,0.6-0.2c0.2-0.1,0.4-0.1,0.6-0.1c0.2,0,0.4,0,0.6,0c0.2,0,0.4,0,0.6,0
	c0.2,0,0.4,0.1,0.6,0.1c0.2,0.1,0.4,0.1,0.6,0.2c0.2,0.1,0.3,0.2,0.5,0.3c0.1,0.1,0.3,0.2,0.4,0.3c0.1,0.1,0.2,0.2,0.3,0.4
	c0.1,0.1,0.1,0.3,0.2,0.4C21.6,7.3,21.6,7.4,21.6,7.6z"/>
<path class="st2" d="M38.7,21.5c0,0.1,0,0.3-0.1,0.4c0,0.1-0.1,0.3-0.2,0.4c-0.1,0.1-0.2,0.3-0.3,0.4c-0.1,0.1-0.2,0.2-0.4,0.3
	c-0.1,0.1-0.3,0.2-0.5,0.3c-0.2,0.1-0.4,0.1-0.6,0.2c-0.2,0.1-0.4,0.1-0.6,0.1c-0.2,0-0.4,0-0.6,0c-0.2,0-0.4,0-0.6,0
	c-0.2,0-0.4-0.1-0.6-0.1c-0.2-0.1-0.4-0.1-0.6-0.2c-0.2-0.1-0.3-0.2-0.5-0.3c-0.1-0.1-0.3-0.2-0.4-0.3c-0.1-0.1-0.2-0.2-0.3-0.4
	c-0.1-0.1-0.1-0.3-0.2-0.4c0-0.1-0.1-0.3-0.1-0.4c0-0.1,0-0.3,0.1-0.4c0-0.1,0.1-0.3,0.2-0.4c0.1-0.1,0.2-0.3,0.3-0.4
	c0.1-0.1,0.3-0.2,0.4-0.3c0.1-0.1,0.3-0.2,0.5-0.3c0.2-0.1,0.4-0.1,0.6-0.2c0.2-0.1,0.4-0.1,0.6-0.1c0.2,0,0.4,0,0.6,0
	c0.2,0,0.4,0,0.6,0c0.2,0,0.4,0.1,0.6,0.1c0.2,0.1,0.4,0.1,0.6,0.2c0.2,0.1,0.3,0.2,0.5,0.3c0.1,0.1,0.3,0.2,0.4,0.3
	c0.1,0.1,0.2,0.2,0.3,0.4c0.1,0.1,0.1,0.3,0.2,0.4C38.7,21.2,38.7,21.3,38.7,21.5z"/>
<path class="st2" d="M23.7,31.1c0,0.1,0,0.3-0.1,0.4s-0.1,0.3-0.2,0.4c-0.1,0.1-0.2,0.3-0.3,0.4c-0.1,0.1-0.2,0.2-0.4,0.3
	c-0.1,0.1-0.3,0.2-0.5,0.3C22.1,33,22,33,21.8,33.1c-0.2,0.1-0.4,0.1-0.6,0.1c-0.2,0-0.4,0-0.6,0c-0.2,0-0.4,0-0.6,0
	c-0.2,0-0.4-0.1-0.6-0.1c-0.2-0.1-0.4-0.1-0.6-0.2c-0.2-0.1-0.3-0.2-0.5-0.3c-0.1-0.1-0.3-0.2-0.4-0.3c-0.1-0.1-0.2-0.2-0.3-0.4
	c-0.1-0.1-0.1-0.3-0.2-0.4c0-0.1-0.1-0.3-0.1-0.4s0-0.3,0.1-0.4c0-0.1,0.1-0.3,0.2-0.4c0.1-0.1,0.2-0.3,0.3-0.4
	c0.1-0.1,0.2-0.2,0.4-0.3c0.1-0.1,0.3-0.2,0.5-0.3c0.2-0.1,0.4-0.1,0.6-0.2c0.2-0.1,0.4-0.1,0.6-0.1c0.2,0,0.4,0,0.6,0
	c0.2,0,0.4,0,0.6,0c0.2,0,0.4,0.1,0.6,0.1c0.2,0.1,0.4,0.1,0.6,0.2c0.2,0.1,0.3,0.2,0.5,0.3c0.1,0.1,0.3,0.2,0.4,0.3
	s0.2,0.2,0.3,0.4c0.1,0.1,0.1,0.3,0.2,0.4C23.7,30.8,23.7,31,23.7,31.1z"/>
<g>
	<g>
		<g>
			<g>
				<g>
					<g>
						<g>
							<g>
								<g>
									<g>
										<g>
											<g>
												<path class="st3" d="M19,20.3l-1.6-1.9c0.8,1.1,1.1,1.6,1.1,1.6c0,0,0,0,0.1,0.1c0,0,0,0,0,0.1c0,0,0,0-0.1,0
													c0,0,0,0-0.1,0c0,0,0,0,0,0c-0.1,0-0.1,0-0.2,0c-0.1,0-0.1,0-0.1,0c0,0-0.1,0-0.1-0.1c0,0-0.1,0-0.1,0
													c-0.1,0-0.3-0.1-1-0.4c-0.5-0.1-1-0.2-1.5-0.3c0,0-0.2,0.6-0.3,0.6c0,0-0.2,0-0.3,0c0,0-0.1,0-0.1,0c-0.1,0-0.1,0-0.1,0
													c0,0-0.1,0-0.2-0.1c0,0,0,0,0,0C13.4,19.2,13,19,13,19c-0.1,0-0.1-0.1-0.2-0.1c0,0-0.2-0.1-0.3-0.2c0,0,0-0.1,0-0.1
													c0,0,0,0,0,0c0,0,0,0,0,0c-0.4-0.4-0.7-0.8-1.1-1.2l-0.2-0.5l0.2-0.3l-0.5-0.6l0-0.4l-0.3-0.3l-0.3-1l-0.3,0.7l0.6,0.8
													L10.3,16l0.4,0.6l0.1,0.5l0.6,0.7c0.3,0.5,0.4,0.7,0.4,0.7c0,0,0,0,0,0.1c0,0.1,0,0.1,0,0.1c0,0,0,0-0.1,0c0,0,0,0,0,0
													c0,0,0,0-0.1,0c-0.4-0.1-0.7-0.1-1.1-0.2c0.1,0.2,0.1,0.3,0.2,0.4c0,0,0,0,0.1,0.1c0,0.1,0,0.1,0,0.1c0,0,0,0-0.1,0.1
													c0,0-0.1,0.1-0.1,0.1c-0.1,0.1-0.1,0.1-0.2,0.1c-0.1,0-0.1,0.1-0.1,0.1c0,0-0.1,0-0.1,0c-0.1,0-0.1,0-0.2-0.1
													c-0.2-0.1-0.3-0.1-0.3-0.1c-0.1,0-0.1,0-0.2-0.1c-0.1-0.1-0.4-0.2-1-0.4c0.6,0.4,1.2,0.8,1.8,1.2l0.9,1.2
													c-0.1-0.4-0.1-0.5-0.1-0.6c0,0,0-0.1,0-0.2c0-0.1,0-0.1,0-0.1c0,0,0.1-0.1,0.2-0.1c0.1,0,0.1-0.1,0.2-0.1
													c0.1,0,0.2-0.1,0.5-0.2c-0.1-0.3-0.2-0.4-0.2-0.4c0,0,0,0,0-0.1c0-0.1,0-0.1,0-0.1c0,0,0,0,0.1,0c0.1,0,0.1,0,0.1,0
													c0.1,0,0.2,0,0.6-0.1c0.7,0.4,1.4,0.8,2.1,1.2c0.1,0,0.3,0,0.4,0c0.2-0.1,0.4-0.1,0.6-0.2c0.1-0.2,0.1-0.3,0.2-0.5
													c0.4,0.1,0.8,0.2,1.3,0.2l1,0.5l0.9,0.1L19,20.3"/>
											</g>
										</g>
									</g>
								</g>
							</g>
						</g>
					</g>
				</g>
			</g>
		</g>
	</g>
</g>
<g>
	<g>
		<g>
			<g>
				<g>
					<g>
						<g>
							<g>
								<path class="st4" d="M18.5,20.1c0,0,0,0-0.1,0c0,0,0,0,0,0c-0.1,0-0.1,0-0.1,0l0.4,0.5l0.2,0l0.2-0.3l-1.6-1.9
									c0.8,1.1,1.1,1.6,1.1,1.6C18.5,20,18.5,20,18.5,20.1c0.1,0,0.1,0,0.1,0C18.6,20.1,18.5,20.1,18.5,20.1"/>
							</g>
						</g>
					</g>
				</g>
			</g>
		</g>
	</g>
</g>
<g>
	<g>
		<g>
			<g>
				<g>
					<g>
						<g>
							<g>
								<path class="st5" d="M10.1,19.8c0,0,0,0,0.2-0.1c0,0,0.1,0,0.1,0c0,0,0.1-0.1,0.3-0.2c0.1-0.1,0.2-0.2,0.2-0.3
									c0,0,0,0-0.1,0c0,0-0.1,0.1-0.1,0.1c-0.1,0.1-0.1,0.1-0.2,0.1c-0.1,0-0.1,0.1-0.1,0.1c0,0-0.1,0-0.1,0c-0.1,0-0.1,0-0.2-0.1
									c-0.2-0.1-0.3-0.1-0.3-0.1c-0.1,0-0.1,0-0.2-0.1c-0.1-0.1-0.4-0.2-1-0.4c0.5,0.3,0.9,0.6,1.4,0.9C10,19.7,10,19.8,10.1,19.8
									C10.1,19.8,10.1,19.8,10.1,19.8"/>
							</g>
						</g>
					</g>
				</g>
			</g>
		</g>
	</g>
</g>
<g>
	<g>
		<g>
			<g>
				<g>
					<g>
						<g>
							<g>
								<path class="st4" d="M10.3,19.5c-0.1,0-0.1,0-0.2-0.1c-0.2-0.1-0.3-0.1-0.3-0.1c-0.1,0-0.1,0-0.2-0.1
									c-0.1-0.1-0.4-0.2-1-0.4c0.5,0.3,0.9,0.6,1.4,0.9c0,0,0,0,0.1,0c0,0,0.1,0,0.1,0L10.3,19.5"/>
							</g>
						</g>
					</g>
				</g>
			</g>
		</g>
	</g>
</g>
<g>
	<g>
		<g>
			<g>
				<g>
					<g>
						<g>
							<g>
								<path class="st4" d="M11.8,18.7L11.8,18.7C11.8,18.7,11.7,18.7,11.8,18.7c-0.4-0.1-0.7-0.2-1.1-0.2c0.1,0.2,0.1,0.3,0.2,0.4
									c0,0,0,0,0,0.1l0.6,0.1L11.8,18.7"/>
							</g>
						</g>
					</g>
				</g>
			</g>
		</g>
	</g>
</g>
<g>
	<g>
		<g>
			<g>
				<g>
					<g>
						<g>
							<g>
								<path class="st5" d="M11.9,18.6C11.9,18.6,11.9,18.7,11.9,18.6c-0.1,0-0.1,0-0.1,0.1c0,0,0,0-0.1,0L11.5,19l0.1,0L11.9,18.6
									"/>
							</g>
						</g>
					</g>
				</g>
			</g>
		</g>
	</g>
</g>
<g>
	<g>
		<g>
			<g>
				<g>
					<g>
						<g>
							<g>
								<path class="st4" d="M18.6,20.1c0,0-0.1,0-0.1,0c0,0,0,0-0.1,0c0,0,0,0,0,0c-0.1,0-0.1,0-0.2,0c-0.1,0-0.1,0-0.1,0
									c0,0-0.1,0-0.1-0.1c0,0-0.1,0-0.1,0c-0.1,0-0.3-0.1-1-0.4c-0.5-0.1-1-0.2-1.5-0.3c0,0-0.1,0.3-0.2,0.5l0.6,0.2
									c0-0.1,0-0.1,0.1-0.2c0.4,0.1,0.8,0.2,1.3,0.2l0.8,0.4l0.5,0L18.6,20.1"/>
							</g>
						</g>
					</g>
				</g>
			</g>
		</g>
	</g>
</g>
<g>
	<g>
		<g>
			<g>
				<g>
					<g>
						<g>
							<g>
								<path class="st5" d="M15.1,19.8l0.6,0.2c0-0.1,0-0.1,0.1-0.2c0.3,0,0.5,0.1,0.8,0.1l0.2-0.3c-0.5-0.1-1-0.2-1.5-0.3
									C15.3,19.3,15.2,19.6,15.1,19.8"/>
							</g>
						</g>
					</g>
				</g>
			</g>
		</g>
	</g>
</g>
<g>
	<g>
		<g>
			<g>
				<g>
					<g>
						<g>
							<g>
								<path class="st5" d="M18,20.1l-0.2,0.2l0.1,0.1c0.2,0,0.3,0,0.3,0c0,0,0,0,0,0c0.1,0,0.1,0,0.1,0c0,0,0,0,0,0c0,0,0,0,0,0
									c0,0,0.1-0.1,0.2-0.2c-0.1,0-0.1,0-0.1,0c0,0,0,0-0.1,0c0,0,0,0,0,0c-0.1,0-0.1,0-0.2,0C18,20.2,18,20.2,18,20.1
									C18,20.1,18,20.1,18,20.1"/>
							</g>
						</g>
					</g>
				</g>
			</g>
		</g>
	</g>
</g>
<g>
	<g>
		<g>
			<g>
				<g>
					<g>
						<g>
							<g>
								<g>
									<g>
										<g>
											<g>
												<path class="st6" d="M19,20.7l0-0.3l-0.2,0.3L19,20.7z"/>
											</g>
										</g>
									</g>
								</g>
							</g>
						</g>
					</g>
				</g>
			</g>
		</g>
	</g>
</g>
<g>
	<g>
		<g>
			<g>
				<g>
					<g>
						<g>
							<g>
								<path class="st6" d="M15.6,20.2c0.1-0.2,0.1-0.3,0.2-0.5l-0.4,0.5C15.5,20.3,15.6,20.3,15.6,20.2"/>
							</g>
						</g>
					</g>
				</g>
			</g>
		</g>
	</g>
</g>
<g>
	<g>
		<g>
			<g>
				<g>
					<g>
						<g>
							<g>
								<path class="st4" d="M14.8,20.3l0.3-0.4c0,0-0.2,0-0.3,0c0,0-0.1,0-0.1,0c-0.1,0-0.1,0-0.1,0c0,0-0.1,0-0.2-0.1c0,0,0,0,0,0
									C13.4,19.2,13,19,13,19c-0.1,0-0.1-0.1-0.2-0.1c0,0-0.2-0.1-0.3-0.2c0,0,0-0.1,0-0.1c0,0,0,0,0,0c0,0,0,0,0,0
									c-0.4-0.4-0.7-0.8-1.1-1.2l-0.2-0.5l-0.2,0.3l0.5,0.6c0.3,0.5,0.4,0.7,0.4,0.7c0,0,0,0,0,0.1c0,0.1,0,0.1,0,0.1c0,0,0,0,0,0
									c0,0,0,0,0,0c0,0,0,0,0,0s0,0,0,0c0.1,0.1,0.2,0.2,0.3,0.3c0,0,0,0,0,0.1c0,0.1,0.1,0.1,0.1,0.1c0.1,0.1,0.1,0,0.1,0
									c0,0,0.1,0,0.1,0c0,0,0.1,0,0.1,0c0.7,0.4,1.3,0.8,2,1.2L14.8,20.3"/>
							</g>
						</g>
					</g>
				</g>
			</g>
		</g>
	</g>
</g>
<g>
	<g>
		<g>
			<g>
				<g>
					<g>
						<g>
							<g>
								<path class="st5" d="M14.5,19.9l-0.2,0.3c0.1,0,0.1,0.1,0.2,0.1l0.2,0c0.1-0.1,0.2-0.3,0.3-0.4c-0.1,0-0.2,0-0.3,0
									c0,0-0.1,0-0.1,0C14.6,19.9,14.6,19.9,14.5,19.9C14.6,19.9,14.6,19.9,14.5,19.9C14.5,19.9,14.5,19.9,14.5,19.9"/>
							</g>
						</g>
					</g>
				</g>
			</g>
		</g>
	</g>
</g>
<g>
	<g>
		<g>
			<g>
				<g>
					<g>
						<g>
							<g>
								<path class="st6" d="M12.5,18.7C12.5,18.7,12.5,18.6,12.5,18.7c0-0.1,0-0.1,0-0.1c0,0,0,0,0,0L12.1,19c0,0,0,0,0,0.1
									c0,0.1,0.1,0.1,0.1,0.1L12.5,18.7C12.5,18.7,12.5,18.7,12.5,18.7"/>
							</g>
						</g>
					</g>
				</g>
			</g>
		</g>
	</g>
</g>
<g>
	<g>
		<g>
			<g>
				<g>
					<g>
						<g>
							<g>
								<path class="st6" d="M10.9,17.2l0.2-0.3l0.2-0.3L10.9,17.2L10.9,17.2"/>
							</g>
						</g>
					</g>
				</g>
			</g>
		</g>
	</g>
</g>
<g>
	<g>
		<g>
			<g>
				<g>
					<g>
						<g>
							<g>
								<path class="st4" d="M10.7,16.6l0.1,0.5l0.1,0.1l0.4-0.6l-0.5-0.6l-0.3,0.4L10.7,16.6"/>
							</g>
						</g>
					</g>
				</g>
			</g>
		</g>
	</g>
</g>
<g>
	<g>
		<g>
			<g>
				<g>
					<g>
						<g>
							<g>
								<path class="st6" d="M10.5,16.3l0.3-0.4l0-0.4l-0.5,0.6L10.5,16.3"/>
							</g>
						</g>
					</g>
				</g>
			</g>
		</g>
	</g>
</g>
<g>
	<g>
		<g>
			<g>
				<g>
					<g>
						<g>
							<g>
								<path class="st4" d="M10.4,15.7L10.3,16l0,0.1l0.5-0.6l-0.3-0.3l-0.2,0.3L10.4,15.7"/>
							</g>
						</g>
					</g>
				</g>
			</g>
		</g>
	</g>
</g>
<g>
	<g>
		<g>
			<g>
				<g>
					<g>
						<g>
							<g>
								<path class="st6" d="M9.8,14.8l0.4,0.6l0.2-0.3l-0.3-1L9.8,14.8"/>
							</g>
						</g>
					</g>
				</g>
			</g>
		</g>
	</g>
</g>
<g>
	<g>
		<g>
			<g>
				<g>
					<g>
						<g>
							<g>
								<path class="st6" d="M11.7,19.4c0-0.1,0-0.1,0-0.1c-0.1,0.1-0.1,0.2-0.2,0.2c0,0,0,0,0,0.1c0,0.1-0.1,0.1-0.1,0.1
									c0,0,0,0.1,0,0.1c0,0,0,0,0,0c0,0,0.1,0.1,0.1,0.3c0,0,0.1,0,0.1-0.1c0.1,0,0.1-0.1,0.2-0.1c-0.1-0.3-0.2-0.4-0.2-0.4
									C11.7,19.5,11.7,19.5,11.7,19.4"/>
							</g>
						</g>
					</g>
				</g>
			</g>
		</g>
	</g>
</g>
<g>
	<g>
		<g>
			<g>
				<g>
					<g>
						<g>
							<g>
								<g>
									<g>
										<g>
											<g>
												<path class="st6" d="M11.1,20.6c0,0,0-0.1,0-0.2c0-0.1,0-0.1,0-0.1c0,0,0,0,0,0l-0.3,0.4l0.4,0.5
													C11.2,20.8,11.2,20.7,11.1,20.6"/>
											</g>
										</g>
									</g>
								</g>
							</g>
						</g>
					</g>
				</g>
			</g>
		</g>
	</g>
</g>
<g>
	<g>
		<g>
			<g>
				<g>
					<g>
						<g>
							<g>
								<g>
									<g>
										<g>
											<g>
												<path class="st3" d="M30.8,22.2l-0.2-0.5l-0.3,0.1l-0.1-0.1l-0.8-0.3l-0.3,0l-1.4-0.5l-0.8,0l0.1-0.9l1.1-0.5l0.6-0.5
													l0.9,0l0.9-1l-1,0.8l-0.9,0.1c0,0-0.5,0.5-0.6,0.5c0,0-0.7,0.3-1.1,0.5l-0.8-0.2l-0.5-0.5l-0.8-0.5l0-0.4l0.4-0.5
													l0.8-0.2l0.4-0.4l0.3-0.3l0.1-0.3l0.5-0.4l-0.8,0.3l-0.1,0.3L25.9,17l-0.2,0.4l-1,0.2l-0.4,0.6L23.5,18l-1.2-0.2
													l-0.9-0.4l0-0.5l0.3-0.6L20.9,16c0,0,0.6,0.3,0.6,0.4c0,0.1-0.4,0.5-0.4,0.5s0,0.5,0,0.5l-0.5,0.1l0-0.2L20,17.5
													l-0.2-0.4L19.3,17l0-0.3l-0.7-0.2l0.5,0.3l0,0.3l0.6,0.1l0.1,0.5l0.8-0.2l0,0.1l0.7,0l0.8,0.5l1.2,0.1
													c0.2,0,0.3,0.1,0.4,0.1c0,0,0.1,0,0.1,0c0.1,0,0.2,0,0.2,0.1c0,0,0,0,0,0.1c0,0.1,0,0.1,0,0.1c0,0,0,0.1,0,0.2
													c0.2,0.1,0.2,0.2,0.3,0.3c0,0,0.1,0,0.1,0.1c0.1,0.1,0.1,0.1,0.1,0.1c0,0,0,0-0.1,0.2c0,0.1-0.1,0.1-0.1,0.2
													c0,0,0,0-0.1,0.2c0,0-0.3,0.5-0.4,0.5l0,0l-0.6,0.3l-0.4,0.3L22,21l-0.6-0.5l-1.3,0c0,0,1.1,0.2,1.2,0.2
													c0.1,0,0.4,0.4,0.4,0.4l1.2,0c0.1,0,0.2,0,0.3,0c0,0,0.1,0,0.1,0c0.2,0,0.3,0,0.3,0c0,0,0.1,0,0.1,0.1
													c0,0,0.1,0.1,0.1,0.1c0,0,0.1,0.1,0.1,0.2c0.1,0.1,0.3,0.4,0.4,0.4c0.1,0,0.1,0.1,0.1,0.1c0.1,0.1,0.1,0.1,0.1,0.1
													c0,0,0,0.1-0.1,0.2c-0.1,0.1-0.1,0.1-0.1,0.1c-0.1,0.1-0.3,0.3-0.7,0.8c-0.4,0.2-0.8,0.3-1.3,0.5l0,0.3L21.6,25l0.1,0.4
													l-0.5,0.4c0.1,0.2,0.2,0.3,0.3,0.5c-0.1-0.2-0.1-0.3-0.2-0.5c0.2-0.1,0.3-0.2,0.5-0.3c0-0.1,0-0.3,0-0.4
													c0.3-0.3,0.5-0.6,0.8-0.8c0-0.1,0-0.2,0-0.3l1.2-0.4c0.2,0.3,0.4,0.6,0.6,0.9l0.9,0.1c0.1,0.2,0.3,0.3,0.4,0.5
													c0,0.3-0.1,0.6-0.1,0.9l0.3-0.9l-0.4-0.6l-0.7-0.1c-0.1-0.2-0.2-0.5-0.4-0.7c-0.1,0-0.2,0-0.3-0.1c0,0-0.1,0-0.1-0.1
													c0,0,0-0.1,0.1-0.1c0.1-0.1,0.1-0.1,0.1-0.1c0.1-0.1,0.3-0.3,1-0.9C25.2,22.1,25.1,22,25,22l1-0.6l0.5-0.1l1.2,0
													l1.5,0.4l0.2,0l0.7,0.3l0.1,0.1l0.3,0l0.2,0.3l0.9,0.2L30.8,22.2"/>
											</g>
										</g>
									</g>
								</g>
							</g>
						</g>
					</g>
				</g>
			</g>
		</g>
	</g>
</g>
<g>
	<g>
		<g>
			<g>
				<g>
					<g>
						<g>
							<g>
								<path class="st5" d="M21.6,21.1l1.2,0c0.1,0,0.2,0,0.3,0c0,0,0.1,0,0.1,0c0.2,0,0.3,0,0.3,0c0,0,0.1,0,0.1,0.1
									c0,0,0.1,0.1,0.1,0.1c0,0,0.1,0.1,0.1,0.1c0.1,0,0.1-0.1,0.2-0.1c0.3-0.4,0.5-0.6,0.6-0.7c0,0,0,0,0.1-0.1
									c0-0.1,0-0.1,0.1-0.1c0,0,0-0.1,0-0.2c0,0,0-0.1,0-0.1c0-0.1-0.1-0.3-0.2-0.9c0,0.1,0,0.1-0.1,0.2c0,0.1-0.1,0.1-0.1,0.2
									c0,0,0,0-0.1,0.2c0,0-0.3,0.5-0.4,0.5l0,0l-0.6,0.3l-0.4,0.3L22,21l-0.6-0.5l-1.3,0c0.4,0.1,0.8,0.1,1.2,0.2
									C21.3,20.9,21.5,21,21.6,21.1"/>
							</g>
						</g>
					</g>
				</g>
			</g>
		</g>
	</g>
</g>
<g>
	<g>
		<g>
			<g>
				<g>
					<g>
						<g>
							<g>
								<path class="st4" d="M23.3,20.6l-0.4,0.3l0,0.2c0.1,0,0.2,0,0.3,0c0,0,0.1,0,0.1,0c0.2,0,0.3,0,0.3,0c0,0,0.1,0,0.1,0.1
									c0,0,0.1,0.1,0.1,0.1c0,0,0.1,0.1,0.1,0.1c0.1,0,0.1-0.1,0.2-0.1l-0.2-1.1L23.3,20.6"/>
							</g>
						</g>
					</g>
				</g>
			</g>
		</g>
	</g>
</g>
<g>
	<g>
		<g>
			<g>
				<g>
					<g>
						<g>
							<g>
								<path class="st6" d="M22.8,21.2C22.8,21.2,22.8,21.2,22.8,21.2l0-0.2L22,21l0,0.2L22.8,21.2"/>
							</g>
						</g>
					</g>
				</g>
			</g>
		</g>
	</g>
</g>
<g>
	<g>
		<g>
			<g>
				<g>
					<g>
						<g>
							<g>
								<path class="st4" d="M21.6,21.1l0.4,0l0-0.2l-0.6-0.5l0.1,0.5C21.5,21,21.6,21.1,21.6,21.1"/>
							</g>
						</g>
					</g>
				</g>
			</g>
		</g>
	</g>
</g>
<g>
	<g>
		<g>
			<g>
				<g>
					<g>
						<g>
							<g>
								<g>
									<g>
										<g>
											<g>
												<path class="st5" d="M24.7,24.2c-0.1-0.2-0.2-0.5-0.4-0.7c-0.1,0-0.2,0-0.3-0.1c0,0-0.1,0-0.1-0.1c0,0,0-0.1,0.1-0.1
													c0.1-0.1,0.1-0.1,0.1-0.1c0,0,0.1-0.1,0.3-0.3l-0.1-0.6c0,0,0,0.1-0.1,0.2c-0.1,0.1-0.1,0.1-0.1,0.1
													c-0.1,0.1-0.3,0.3-0.7,0.8c-0.4,0.2-0.8,0.3-1.3,0.5l0,0.3L21.6,25l0.1,0.4l-0.5,0.4c0.1,0.2,0.2,0.3,0.3,0.5
													c-0.1-0.2-0.1-0.3-0.2-0.5c0.2-0.1,0.3-0.2,0.5-0.3c0-0.1,0-0.3,0-0.4c0.3-0.3,0.5-0.6,0.8-0.8c0-0.1,0-0.2,0-0.3
													l1.2-0.4c0.2,0.3,0.4,0.6,0.6,0.9l0.9,0.1c0.1,0.2,0.3,0.3,0.4,0.5c0,0.3-0.1,0.6-0.1,0.9l0.3-0.9l-0.4-0.6L24.7,24.2"
													/>
											</g>
										</g>
									</g>
								</g>
							</g>
						</g>
					</g>
				</g>
			</g>
		</g>
	</g>
</g>
<g>
	<g>
		<g>
			<g>
				<g>
					<g>
						<g>
							<g>
								<path class="st4" d="M24.4,24.3l0.1,0l-0.2-0.9c-0.1,0-0.2,0-0.3-0.1c0,0-0.1,0-0.1-0.1l0.1,0.7
									C24.2,24.1,24.3,24.2,24.4,24.3"/>
							</g>
						</g>
					</g>
				</g>
			</g>
		</g>
	</g>
</g>
<g>
	<g>
		<g>
			<g>
				<g>
					<g>
						<g>
							<g>
								<path class="st4" d="M22.4,24.4c0.1-0.1,0.2-0.2,0.3-0.3c0-0.1,0-0.2,0-0.3l0.9-0.3l0-0.3c-0.4,0.2-0.8,0.3-1.3,0.5
									L22.4,24.4"/>
							</g>
						</g>
					</g>
				</g>
			</g>
		</g>
	</g>
</g>
<g>
	<g>
		<g>
			<g>
				<g>
					<g>
						<g>
							<g>
								<path class="st4" d="M22.3,24.1L21.6,25l0.1,0.4l0,0l0,0.2c0.1,0,0.1-0.1,0.2-0.1c0-0.1,0-0.3,0-0.4
									c0.2-0.2,0.3-0.3,0.5-0.5L22.3,24.1"/>
							</g>
						</g>
					</g>
				</g>
			</g>
		</g>
	</g>
</g>
<g>
	<g>
		<g>
			<g>
				<g>
					<g>
						<g>
							<g>
								<path class="st6" d="M21.6,26.2c-0.1-0.2-0.1-0.3-0.2-0.5l0,0.3C21.5,26.1,21.5,26.1,21.6,26.2"/>
							</g>
						</g>
					</g>
				</g>
			</g>
		</g>
	</g>
</g>
<g>
	<g>
		<g>
			<g>
				<g>
					<g>
						<g>
							<g>
								<path class="st6" d="M24.5,24.3l0.2,0l0-0.2c-0.1-0.2-0.2-0.5-0.4-0.7L24.5,24.3"/>
							</g>
						</g>
					</g>
				</g>
			</g>
		</g>
	</g>
</g>
<g>
	<g>
		<g>
			<g>
				<g>
					<g>
						<g>
							<g>
								<path class="st6" d="M25.7,24.9l0.1,0.3l0.1-0.3l-0.4-0.6l0.1,0.4C25.6,24.7,25.7,24.8,25.7,24.9"/>
							</g>
						</g>
					</g>
				</g>
			</g>
		</g>
	</g>
</g>
<g>
	<g>
		<g>
			<g>
				<g>
					<g>
						<g>
							<g>
								<path class="st4" d="M24.8,24.4l0.5,0c0.1,0.1,0.2,0.2,0.2,0.3l-0.1-0.4l-0.7-0.1L24.8,24.4"/>
							</g>
						</g>
					</g>
				</g>
			</g>
		</g>
	</g>
</g>
<g>
	<g>
		<g>
			<g>
				<g>
					<g>
						<g>
							<g>
								<path class="st4" d="M24.4,19.2c0.1,0.1,0.1,0.1,0.1,0.1c0,0,0,0,0,0h0l-0.2-1.1L23.5,18l-1.2-0.2l-0.9-0.4l0-0.5l0.3-0.6
									L20.9,16c0,0,0.6,0.3,0.6,0.4c0,0.1-0.4,0.5-0.4,0.5s0,0.5,0,0.5l-0.5,0.1l0-0.2L20,17.5l-0.2-0.4L19.3,17l0-0.3l-0.7-0.2
									l0.5,0.3l0,0.3l0.6,0.1l0.1,0.5l0.8-0.2l0,0.1l0.7,0l0.8,0.5l1.2,0.1c0.2,0,0.3,0.1,0.4,0.1c0,0,0.1,0,0.1,0
									c0.1,0,0.2,0,0.2,0.1c0,0,0,0,0,0.1c0,0.1,0,0.1,0,0.1c0,0,0,0.1,0,0.2c0.2,0.1,0.2,0.2,0.3,0.3
									C24.4,19.1,24.4,19.1,24.4,19.2"/>
							</g>
						</g>
					</g>
				</g>
			</g>
		</g>
	</g>
</g>
<g>
	<g>
		<g>
			<g>
				<g>
					<g>
						<g>
							<g>
								<path class="st6" d="M22,18.1l0.3,0l-0.1-0.3l-0.9-0.4l0.1,0.4L22,18.1"/>
							</g>
						</g>
					</g>
				</g>
			</g>
		</g>
	</g>
</g>
<g>
	<g>
		<g>
			<g>
				<g>
					<g>
						<g>
							<g>
								<path class="st5" d="M25,18.9l-0.4-0.3l0-0.4l0.4-0.5l0.8-0.2l0.4-0.4l0.3-0.3l0.1-0.3l0.5-0.4l-0.8,0.3l-0.1,0.3L25.9,17
									l-0.2,0.4l-1,0.2l-0.4,0.6c0.1,0.4,0.1,0.8,0.2,1.2C24.7,19.2,24.9,19,25,18.9"/>
							</g>
						</g>
					</g>
				</g>
			</g>
		</g>
	</g>
</g>
<g>
	<g>
		<g>
			<g>
				<g>
					<g>
						<g>
							<g>
								<path class="st4" d="M26.8,20.9l0.1-0.9l1.1-0.5l0.6-0.5l0.9,0l0.9-1l-1,0.8l-0.9,0.1c0,0-0.5,0.5-0.6,0.5
									c0,0-0.7,0.3-1.1,0.5l-0.8-0.2l-0.5-0.5l-0.8-0.5c0,0.2,0.1,0.4,0.1,0.5c0,0.1,0,0.2,0,0.3c0,0.1,0,0.1,0,0.2
									c0,0.1,0.1,0.2,0.1,0.2c0,0,0.1,0.1,0.1,0.1c0,0,0.1,0,0.1,0c0.1,0,0.2,0.1,0.6,0.3c0.1,0.1,0.3,0.3,0.4,0.4
									c0,0,0.1,0.1,0.1,0.1L26.8,20.9"/>
							</g>
						</g>
					</g>
				</g>
			</g>
		</g>
	</g>
</g>
<g>
	<g>
		<g>
			<g>
				<g>
					<g>
						<g>
							<g>
								<path class="st4" d="M26.5,16.8l0.1-0.3l0.5-0.4l-0.8,0.3L26.5,16.8L26.5,16.8"/>
							</g>
						</g>
					</g>
				</g>
			</g>
		</g>
	</g>
</g>
<g>
	<g>
		<g>
			<g>
				<g>
					<g>
						<g>
							<g>
								<path class="st4" d="M26.2,17.1l0.1-0.1l0-0.2L25.9,17l0.1,0.3L26.2,17.1"/>
							</g>
						</g>
					</g>
				</g>
			</g>
		</g>
	</g>
</g>
<g>
	<g>
		<g>
			<g>
				<g>
					<g>
						<g>
							<g>
								<path class="st4" d="M25.1,17.7l0.7-0.2l0-0.2l-1,0.2l0.1,0.4L25.1,17.7"/>
							</g>
						</g>
					</g>
				</g>
			</g>
		</g>
	</g>
</g>
<g>
	<g>
		<g>
			<g>
				<g>
					<g>
						<g>
							<g>
								<path class="st6" d="M26,20.7C26.1,20.7,26.1,20.7,26,20.7l-0.1-1.1l-0.5-0.5l0.2,1.2C25.8,20.4,25.9,20.5,26,20.7"/>
							</g>
						</g>
					</g>
				</g>
			</g>
		</g>
	</g>
</g>
<g>
	<g>
		<g>
			<g>
				<g>
					<g>
						<g>
							<g>
								<path class="st5" d="M26.9,20l1.1-0.5l0.4-0.4l-0.1-0.3c0,0-0.5,0.5-0.6,0.5c0,0-0.7,0.3-1.1,0.5l0.1,0.8L26.9,20"/>
							</g>
						</g>
					</g>
				</g>
			</g>
		</g>
	</g>
</g>
<g>
	<g>
		<g>
			<g>
				<g>
					<g>
						<g>
							<g>
								<path class="st5" d="M29.4,19l0.9-1l-1,0.8L29.4,19L29.4,19"/>
							</g>
						</g>
					</g>
				</g>
			</g>
		</g>
	</g>
</g>
<g>
	<g>
		<g>
			<g>
				<g>
					<g>
						<g>
							<g>
								<g>
									<g>
										<g>
											<g>
												<path class="st4" d="M30.8,22.2l-0.2-0.5l-0.3,0.1l-0.1-0.1l-0.8-0.3l-0.3,0l-1.4-0.5l-0.8,0l0.1,0.3l0.8,0l1.5,0.4
													l0.2,0l0.7,0.3l0.1,0.1l0.3,0l0.2,0.3l0.9,0.2L30.8,22.2"/>
											</g>
										</g>
									</g>
								</g>
							</g>
						</g>
					</g>
				</g>
			</g>
		</g>
	</g>
</g>
<g>
	<g>
		<g>
			<g>
				<g>
					<g>
						<g>
							<g>
								<path class="st6" d="M27.7,21.2l1.4,0.3h0l0-0.2l-1.4-0.5L27.7,21.2"/>
							</g>
						</g>
					</g>
				</g>
			</g>
		</g>
	</g>
</g>
<g>
	<g>
		<g>
			<g>
				<g>
					<g>
						<g>
							<g>
								<path class="st6" d="M30.2,22L30.2,22l0-0.2l-0.1-0.1L30.2,22"/>
							</g>
						</g>
					</g>
				</g>
			</g>
		</g>
	</g>
</g>
<g>
	<g>
		<g>
			<g>
				<g>
					<g>
						<g>
							<g>
								<path class="st6" d="M30.8,22.4l0-0.2l-0.2-0.5l0.1,0.6L30.8,22.4"/>
							</g>
						</g>
					</g>
				</g>
			</g>
		</g>
	</g>
</g>
</svg>
