<?xml version="1.0" encoding="UTF-8" standalone="no"?><!DOCTYPE svg PUBLIC "-//W3C//DTD SVG 1.1//EN" "http://www.w3.org/Graphics/SVG/1.1/DTD/svg11.dtd"><svg width="100%" height="100%" viewBox="0 0 64 64" version="1.1" xmlns="http://www.w3.org/2000/svg" xmlns:xlink="http://www.w3.org/1999/xlink" xml:space="preserve" xmlns:serif="http://www.serif.com/" style="fill-rule:evenodd;clip-rule:evenodd;stroke-linejoin:round;stroke-miterlimit:2;"><g id="blue"><path d="M49.087,12.5C49.369,13.692 50.308,14.631 51.5,14.913L51.5,49.087C50.308,49.369 49.369,50.308 49.087,51.5L14.913,51.5C14.631,50.308 13.692,49.369 12.5,49.087L12.5,14.913C13.692,14.631 14.631,13.692 14.913,12.5L49.087,12.5Z" style="fill:#a3b7c8;"/><path d="M10,14.488C9.098,13.911 8.5,12.9 8.5,11.75C8.5,9.956 9.956,8.5 11.75,8.5C12.9,8.5 13.911,9.098 14.488,10L49.512,10C50.089,9.098 51.1,8.5 52.25,8.5C54.044,8.5 55.5,9.956 55.5,11.75C55.5,12.9 54.902,13.911 54,14.488L54,49.512C54.902,50.089 55.5,51.1 55.5,52.25C55.5,54.044 54.044,55.5 52.25,55.5C51.1,55.5 50.089,54.902 49.512,54L14.488,54C13.911,54.902 12.9,55.5 11.75,55.5C9.956,55.5 8.5,54.044 8.5,52.25C8.5,51.1 9.098,50.089 10,49.512L10,14.488ZM49.087,12.5L14.913,12.5C14.631,13.692 13.692,14.631 12.5,14.913L12.5,49.087C13.692,49.369 14.631,50.308 14.913,51.5L49.087,51.5C49.369,50.308 50.308,49.369 51.5,49.087L51.5,14.913C50.308,14.631 49.369,13.692 49.087,12.5Z" style="fill:#d1f8fd;"/></g><g id="black"><path d="M43.352,46.636L43.706,47.103L43.981,47.905L43.095,46.739L43.231,45.993L42.849,45.731L42.852,45.454L42.352,44.271L42.097,44.096L40.707,42.025L39.178,40.977L38.41,40.732L36.352,41.002C36.479,41.089 36.477,41.367 36.086,41.938C34.411,42.47 33.895,42.676 33.636,42.78L33.434,42.861C33.401,42.798 33.381,42.717 33.381,42.605C33.381,42.605 33.303,42.552 33.332,42.436C33.382,42.397 33.448,42.37 33.512,42.414L34.544,42.001L35.013,41.123L35.196,41.049C35.454,40.947 35.585,40.756 35.585,40.756L35.587,40.478C35.587,40.478 35.718,40.287 35.591,40.2C35.463,40.112 35.6,39.367 35.604,39.089C35.658,39.01 35.689,38.915 35.709,38.833C35.717,38.831 35.726,38.828 35.734,38.827L35.734,38.899C35.861,38.986 35.992,38.794 36.12,38.882L36.232,38.664C36.989,38.258 37.436,38.079 37.67,37.985C37.67,37.985 38.059,37.692 38.186,37.779L38.577,37.208C38.701,37.026 38.828,36.593 39.404,35.493L39.845,35.317C39.814,35.388 39.782,35.448 39.752,35.492L39.099,36.445C38.969,36.635 38.966,36.914 38.966,36.914L38.963,37.191L39.09,37.278C39.205,37.357 39.213,37.591 39.397,38.171L39.335,38.287C39.46,38.652 39.456,38.93 39.324,39.397L39.454,39.18L39.448,39.763L40.082,40.476L41.384,38.85L43.438,38.858L44.855,38.43L44.982,38.517L43.566,38.945L41.511,38.937L40.21,40.564L39.945,41.223L40.837,41.835L41.344,42.486L42.354,43.993L42.609,44.168L43.082,45.284L42.979,45.541L43.11,45.35L43.107,45.629L43.489,45.89L43.443,46.138L43.225,46.549L43.222,46.826L43.352,46.636ZM40.601,35.912L40.369,34.866L40.279,34.176L40.801,33.413L41.631,32.982L41.576,33.103L42.091,32.896L43.245,33.127L45.05,32.404L45.569,31.921L45.773,31.863L46.853,31.96L45.693,32.285L45.174,32.77L43.369,33.492L42.088,33.175L40.926,33.778L40.404,34.54L40.771,36.191L40.755,37.58L41.233,38.259L41.204,38.311L40.628,37.493L40.647,35.826L40.601,35.912ZM33.123,44.898C33.118,44.911 33.113,44.926 33.109,44.941L33.1,44.931L33.123,44.898ZM19.99,26.109L20.229,24.359L19.5,20.502C19.567,20.62 19.629,20.732 19.686,20.836C19.894,21.749 20.013,22.6 20.238,23.526C20.238,23.526 20.108,23.716 20.235,23.803L20.62,23.788L20.747,23.875C20.747,23.875 21.006,23.772 21.391,23.756C21.649,23.652 21.907,23.55 22.038,23.359L21.91,23.271L21.652,23.375C21.394,23.477 21.394,23.477 21.267,23.39C21.139,23.303 21.008,23.494 21.008,23.494L20.881,23.407C20.881,23.407 21.012,23.216 21.139,23.303C21.267,23.39 21.267,23.39 21.524,23.288L22.04,23.081L22.17,22.891L22.174,22.613C22.176,22.335 22.307,22.144 22.441,21.676C22.515,21.781 22.589,21.875 22.663,21.964C22.541,22.352 22.431,22.533 22.429,22.788L22.298,22.979L22.933,23.693L23.158,23.568L23.19,23.59L24.094,23.089L23.964,23.279L23.957,23.974L23.827,24.026L23.697,24.216C23.567,24.406 23.695,24.493 23.695,24.493L23.767,24.445C23.759,24.537 23.822,24.58 23.822,24.58C23.819,24.859 23.949,24.668 23.949,24.668L24.204,24.843C23.564,24.685 23.436,24.597 23.309,24.51L23.054,24.335L22.793,24.716C22.793,24.716 22.79,24.993 22.526,25.653C22.014,25.581 21.755,25.685 21.628,25.598C21.628,25.598 21.755,25.685 21.886,25.494C22.014,25.581 22.144,25.391 22.271,25.479C22.536,24.819 22.538,24.542 22.538,24.542C22.666,24.629 22.666,24.629 22.797,24.438L22.927,24.248C22.669,24.351 22.538,24.542 22.411,24.455L22.281,24.645C22.15,24.836 22.022,24.748 22.022,24.748L21.892,24.938C21.892,24.938 21.889,25.217 21.628,25.598C21.5,25.51 21.37,25.7 21.243,25.613C21.115,25.526 20.857,25.63 20.857,25.63L19.99,26.109ZM24.094,23.089C23.967,23.002 23.967,23.002 23.837,23.192L24.098,22.811C24.098,22.811 24.232,22.343 24.501,21.129L24.65,19.271L24.647,19.549L25.94,18.755L26.086,17.175L25.287,17.617L25.312,17.485L26.216,16.985L26.738,16.223L26.735,16.502L26.214,17.262L26.067,18.842L24.774,19.636L24.629,21.216C24.359,22.43 24.225,22.898 24.225,22.898L24.094,23.089ZM26.515,29.424C26.29,29.379 26.088,29.3 25.824,29.312L25.315,28.962L25.29,28.871L25.572,28.859L26.251,28.484L26.346,28.549C26.389,28.579 26.535,28.488 26.711,28.355L27.018,28.906L26.467,29.192C26.466,29.3 26.484,29.379 26.515,29.424ZM27.098,29.05L27.11,29.073C27.126,29.049 27.141,29.028 27.154,29.01L27.225,29.137C27.119,29.235 27.005,29.336 26.849,29.454C26.779,29.458 26.712,29.454 26.648,29.447C26.673,29.429 26.697,29.404 26.722,29.367C26.878,29.249 26.992,29.148 27.098,29.05ZM30.729,32.811L30.867,32.726L30.79,32.994L30.679,32.885L30.729,32.811ZM27.312,13.795L27.667,13.5L26.744,15.667L26.747,15.39L26.215,15.716L26.256,15.416L26.75,15.111L27.312,13.795ZM37.233,36.807C37.58,36.632 38.073,36.303 38.073,36.303L38.462,36.009C38.593,35.818 38.72,35.905 38.85,35.715L39.177,35.468C39.154,35.516 39.131,35.563 39.109,35.612C38.978,35.803 38.85,35.715 38.72,35.905L38.332,36.199C38.332,36.199 37.493,36.759 37.233,36.807ZM39.958,34.039L40.419,33.152C40.278,33.455 40.12,33.749 39.958,34.039ZM33.318,42.448L33.196,42.669C33.197,42.63 33.213,42.579 33.254,42.518C33.254,42.518 33.28,42.481 33.318,42.448ZM30.663,41.927L30.693,41.883L30.669,41.927L30.663,41.927ZM33.334,35.295C33.263,35.246 32.875,34.806 32.547,34.427C32.818,34.704 33.1,34.964 33.334,35.295ZM29.775,32.017L30.157,32.279L30.218,32.223L30.197,32.422L29.775,32.017ZM47.753,38.415L48.581,38.183L46.129,39.303L46.002,39.215L47.753,38.415ZM39.242,35.143C39.372,34.953 39.245,34.866 39.245,34.866C39.372,34.953 39.372,34.953 39.242,35.143ZM30.678,31.553L30.679,31.517C30.679,31.517 30.949,30.303 31.364,27.509L31.187,29.54C30.949,30.963 30.806,31.604 30.806,31.604C30.743,31.561 30.711,31.539 30.678,31.553ZM27.419,28.958C27.381,28.992 27.345,29.026 27.308,29.06C27.345,29.012 27.373,28.985 27.419,28.958Z" style="fill:#1e1e1e;"/></g></svg>