<?xml version="1.0" encoding="utf-8"?>
<!-- Generator: Adobe Illustrator 26.1.0, SVG Export Plug-In . SVG Version: 6.00 Build 0)  -->
<svg version="1.1" id="Layer_1" xmlns="http://www.w3.org/2000/svg" xmlns:xlink="http://www.w3.org/1999/xlink" x="0px" y="0px"
	 viewBox="0 0 40 40" style="enable-background:new 0 0 40 40;" xml:space="preserve">
<style type="text/css">
	.st0{fill:#6D4C41;}
	.st1{fill:#D32F2F;}
	.st2{fill:#5D4037;}
	.st3{fill:#4E342E;}
</style>
<g>
	<g>
		<path class="st0" d="M28.4,33.1L7,23.5l1.2-2.7l21.5,9.5L28.4,33.1"/>
	</g>
</g>
<path class="st1" d="M26.8,32.9L8.2,24.6l0.2-0.5L27,32.4L26.8,32.9"/>
<g>
	<g>
		<path class="st2" d="M21.4,23.5l1.7-3.8l2.3-1.7c2-0.2,3.9-1.5,4.8-3.5c1.3-3,0-6.5-3-7.9c-3-1.3-6.5,0-7.9,3
			c-0.9,2.1-0.6,4.4,0.8,6.1l0.3,2.7l-1.7,3.8c0,0-1.7,2.5-3.7,1.6l3.3,1.4l1.2,0.5l3.3,1.4C20.7,26.4,21.4,23.5,21.4,23.5"/>
	</g>
</g>
<g>
	<g>
		<path class="st3" d="M19.5,25.9l3.3,1.4c-2-0.9-1.3-3.8-1.3-3.8l1.7-3.8l2.3-1.7c2-0.2,3.9-1.5,4.8-3.5c1.3-3,0-6.5-3-7.9
			l-8.4,18.9L19.5,25.9"/>
	</g>
</g>
</svg>
