<?xml version="1.0" encoding="UTF-8"?><svg id="a" xmlns="http://www.w3.org/2000/svg" viewBox="0 0 55.33 55.11"><defs><style>.b{fill:#e5097f;}.b,.c,.d,.e,.f{fill-rule:evenodd;}.c{fill:#8aff4f;}.d{fill:#003c8a;}.e{fill:#fefefe;}.f{fill:#59c8ff;}</style></defs><path class="b" d="M53.43,32.28c-1.32,.03-3.11,.73-1.5,3.07,2.16,3.14,3.88-3.13,1.5-3.07Zm-27.03,9.06l1.48-.89,.1-2.11c-2.06,.78-4.29,.08-6-2.06l.16,3.77,2.97-1.04,1.28,2.32Zm1.95-27.14s-.03,0-.05,.02c.02,.02,.04,.03,.05,.05v-.06Zm-.11,24.03l7.4,1.29-4.87-2.17-.43-.7c-.65,.73-1.36,1.25-2.1,1.58Zm14.28,10.32c-2.07-.19-1.9-3.52-.03-3.71,1.79-.11,2.38,3.94,.03,3.71Zm7.96-24.84c.2,1,.69,1.1,1.37,.41,3.14-3.14,4.88,4.76,2.07,6.5-2.06,1.27-5.18-.15-2.4,5.75,.85,1.8,.62,4.75-.76,5.79-1.02,.77-2.18-.11-2.67,.37-1.01,1-.79,2.42-1.73,3-.57,.35-1.23,.3-2.01-.62-.35-.41-.74-.75-1.17-1.02-.1-.05-.2-.12-.32-.17l-1.24-3.15-4.59-.8,.52-4.08,5.88,2.51,.45-2.09c.52,.86,1.23,1.47,2.09,1.62,.47,.08,.94,.02,1.39-.19,1.42-.68,2.37-2.61,2.55-4.73,.13-1.53-.16-3.08-.78-4.25l1.37-4.83ZM13.91,44.33c-.84-.72-1.38-2.33-2.02-2.82l2.8-1.51,.65,2.41-.92,.31-.51,1.6Zm-4.44-2.53c-1.35-.12-1.88-1.6-2.16-2.27-.24-.57-.97-.93-2.76-.51-1.43,.33-2.99-.14-3.12-2.75-.2-3.93,4.81-5.5,2.14-8.25-1.02-1.06-1.36-3.08-1.04-4.89l5.9,17.39,1.04,1.28Zm.64-24.62c.2-.93,.33-2.2,.35-3.91,.09-7.17,3.96-2.95,5.42-3.53,.68-.26,1.19-1.84,2.08-3,.82,2.44,2.67,4.63,4.72,6.03-.59,.23-1.14,.56-1.66,1l-.05-1.34-1.62-1.99-6.68,4.48,.48,3.85-.29-.36-2.38,.7-.36-1.93v-.02Zm6.7-10.48c.05,1.13-.37,2.01-.89,2.37-.93,.64-1.88-.69-1.23-2.09,.57-1.25,2.04-2.08,2.12-.27ZM4.83,39.71c-.68,.31-1.77,1.87-.65,3.15,2.6,3,4.31-4.83,.65-3.15ZM38.01,6.07c1.3-1.97,3.12,.05,2.21,1.89-.85,1.74-3.57,.17-2.21-1.89Zm4.16,6.93c.18-1.46-.31-2.79-1.57-3.36-1.17-.52-2.84,.86-3.45-1.81-.94-5.18-5.46-3.61-6.43,.03,.13,.38,.23,.78,.29,1.17,0,.02,0,.04,.01,.05l4.56-2.52,1.63,1.98-.3,7.36,2.04-.11,.26-1.69-.18-.3,.4-3.29,2.75,2.49Z"/><path class="d" d="M26.4,41.34l1.48-.89,.1-2.11c-2.06,.78-4.29,.08-6-2.06l.16,3.77,2.97-1.04,1.28,2.32Zm-3.72-28.57c-2.22-1.51-4.18-3.94-4.89-6.59-1.08-4.06,1.97-8.06,7.23-5.22,2.06,1.11,5.39,4.5,5.97,8.06,0,.02,0,.04,.01,.05l4.56-2.52,1.63,1.98-.3,7.36,2.04-.11,.26-1.69-.18-.3,.4-3.29,4.33,3.92,.23-3.6,8.62-2.28,1.63,1.98-5.12,18.02c.62,1.17,.91,2.72,.78,4.25-.18,2.13-1.13,4.06-2.55,4.73-.45,.21-.92,.27-1.39,.19-.86-.15-1.57-.76-2.09-1.62l-.45,2.09-5.88-2.51-.52,4.08,4.59,.8,1.26,3.22-14.36,9.75-.92-2.55-8.36,2.71-1.35-2.44,.96-2.72-4.45,.91-1.35-2.44,1.37-4.29,.92-.31-.65-2.41-4.64,2.51-1.62-1.99L0,15.7l8.5-.49,1.62,1.99,.36,1.93,2.38-.7,.29,.36-.48-3.85,6.68-4.48,1.62,1.99,.05,1.34c.51-.44,1.07-.77,1.66-1Zm5.56,25.46l7.4,1.29-4.87-2.17-.43-.7c-.65,.73-1.36,1.25-2.1,1.58Z"/><path class="f" d="M14.95,43.66l-.64,2.01,6.9-1.42-1.92,5.46,8.84-2.86-.12,2.55,12.7-8.07-12.01-1.92-.09,1.8-5.68,3.4,1.02-4.05-9,3.11ZM51.64,21.97c.04-.15,.16-.23,.27-.16,.1,.06,.15,.23,.11,.38l-1.25,4.42c-.04,.15-.16,.22-.27,.16-.1-.06-.15-.23-.11-.39l1.25-4.41Zm-1.64,6.62c-.11-.05-.17-.23-.13-.38,.04-.16,.16-.24,.27-.19s.17,.23,.13,.38c-.04,.16-.16,.24-.27,.19Zm.26-.93c-.11-.05-.17-.23-.13-.39,.04-.16,.16-.24,.27-.18,.11,.05,.16,.23,.13,.39-.04,.16-.16,.24-.27,.18ZM31,3.97c.08,.11,.09,.3,.01,.41-.08,.12-.21,.13-.29,.02-.29-.37-.59-.74-.9-1.1-.32-.37-.66-.72-1.01-1.07-.09-.09-.12-.27-.05-.4,.06-.13,.19-.17,.28-.08,.37,.36,.72,.72,1.04,1.09,.32,.37,.63,.74,.93,1.12Zm-1.4-.24c.08,.11,.09,.3,.01,.41-.08,.12-.2,.13-.29,.02-.4-.52-.83-1.04-1.3-1.54-.47-.5-.98-.99-1.55-1.46-.1-.08-.13-.26-.07-.4,.05-.14,.18-.19,.28-.11,.58,.48,1.1,.98,1.58,1.49,.48,.51,.92,1.04,1.34,1.57ZM6.17,38.16c.05,.14,0,.32-.09,.39-.1,.07-.23,0-.28-.13l-1.25-3.68c-.05-.15,0-.32,.1-.4,.1-.07,.22,0,.27,.14l1.25,3.68Zm.21-1.9c.05,.15,.01,.32-.09,.39-.1,.07-.23,.02-.27-.13l-1.46-4.29c-.05-.15-.01-.33,.09-.4,.1-.07,.23,0,.27,.14l1.46,4.29Zm-2.03-5.29c.1-.09,.23-.02,.29,.12,.05,.16,.02,.33-.09,.42-.1,.08-.23,.02-.29-.13-.05-.14-.02-.33,.08-.4Zm19.7,21.81c.12,0,.21,.12,.22,.3,0,.17-.09,.3-.2,.31-.12,0-.22-.12-.23-.3,0-.17,.09-.3,.21-.31Zm.61-.22c.12,0,.22,.12,.22,.3,0,.16-.09,.3-.21,.31-.12,0-.21-.13-.21-.3,0-.17,.09-.31,.2-.31Zm.64,.37c-.11,.04-.23-.05-.25-.21s.04-.31,.15-.36l1.94-.72c.09-.03,.19,.03,.24,.16l.96,2.62,2.52-1.78c.1-.07,.23,0,.28,.14,.05,.14,0,.32-.09,.39l-2.7,1.9h0c-.1,.08-.23,.02-.28-.12l-.97-2.67-1.78,.65ZM7.81,16.58l-6.38,.37,7.44,21.92,4.26-2.3-.77-8.74,3.77,13.93,3.5-3.13-.37-8.66c2.03,6.52,7.56,7.17,10.23,1.62,.66-1.53,1.38-3.67,1.72-5.92-.12,3.55-.6,5.82-1.22,7.79l.03,.91,4.61,2.06,1.69-13.23,.19,9.37,4.67,1.99,1.02-4.83s0,.02,0,.03c-.19,2.33,.81,4.42,2.23,4.66,1.42,.25,2.73-1.44,2.93-3.77s-.8-4.41-2.23-4.66c-1.06-.19-2.07,.72-2.58,2.16l1.73-8.11-.35,5.22,2.79,.55,4.41-15.53-6.31,1.67-.34,5.36-4.43-2.8-1.42,9.68-.21-7.06-3.01,.17-1.45,6.2,.62-14.99-5.41,2.99,.21,5.93c-1.44-2.62-3.62-4.09-5.87-3.57-2.11,.48-3.81,2.58-4.69,5.43l-.29-6.85-4.82,3.24,1.27,10.28-2.55-6.07-2.93,.86,.61,8.13-2.29-12.32Zm16.4,5.81c1.23-.35,2.41,.91,2.64,2.81,.24,1.91-.57,3.74-1.8,4.09-1.23,.35-2.41-.9-2.64-2.81-.23-1.91,.57-3.74,1.8-4.09Zm.57-20.47c6.71,3.64,5.58,11.29-1.29,8.77-8.23-3-5.83-12.62,1.29-8.77Zm-2.51,3.54c.16-.69,1.34-.61,2.62,.16,1.28,.77,2.18,1.95,2.01,2.64-.16,.69-1.34,.61-2.62-.16-1.28-.77-2.18-1.95-2.01-2.64Z"/><path class="e" d="M44.68,28.26c.3,.69,.79,1.14,1.07,1.82,.59,1.39,1.13,.36,1.01-.76-.15-1.33-.97-2.45-1.61-2.5-.63-.04-.79,.71-.47,1.43Zm-18.72,15.44c.48,.3,.96-.35,.8-.76-.19-.47-1.3,.3-.8,.76Zm1.85-1.79c1.29-.51,1.01,1.52-.25,1.53-.95,.02-.46-1.26,.25-1.53Zm-1.02-37.29c-.17-.7-1.17-.8-.81,.4,.26,.86,1.14,.45,.81-.4Zm.45,2.06c.26,1.3,1.5,2.17,1.41,.3-.09-1.88-1.97-3.04-1.41-.3Zm-9.8,8.24c.31,.05,.59-.03,.76-.27,.25-.37,.21-1.25-.29-1.21-.24,0-.53,.22-.7,.43-.34,.41-.15,1,.24,1.06Zm-5.84,6.81c.42,0,.86-.32,.78-.75-.14-.65-.88-.62-1.2-.31-.37,.36-.27,1.05,.42,1.06Zm.83,.61c.71,.26,.65-1.26,.02-.68-.19,.18-.23,.54-.02,.68Zm-5.51-1.33c.37-.03,.6-1.22-.1-1.86-.57-.5-1.06-.31-1.17,.15-.16,.65,.3,1.8,1.27,1.71Zm-3.61-3.61l3.54-.13c.49-.02,.63,.17,.79,.82,.19,.76,.4,2.02,.59,2.9,.14,.66-.02,.9-.27,.05-.15-.51-.29-.92-.43-1.25-.82-1.91-1.32-1.46-2.06-1.21-.66,.23-1.05-.67-1.7-.74-.43-.04-1.28-.42-.46-.44Zm23.31-1.79c1.61,.66,2.52,3.13,3.08,5.9,.03,.14,.26,1.32,.23,1.34-.02,0-.09-.19-.21-.54-.16-.46-.38-1.02-.62-1.53-.25-.51-.71-.63-.9-1.04-.4-.87-.74-1.3-1.59-1.37-1.2-.09-2.24-3.7,0-2.77Zm.33,3.36c-1.16-.17-.1,2.9,.96,2.5,.39-.15,.25-2.32-.96-2.5Zm-4.61,9.01c.82,2.06,2.09,2.26,2.94,1.92,.29-.12,.4,.05-.01,.46-1.48,1.47-3.12-.02-3.2-2.19-.02-.56,.1-.62,.27-.19Zm26.73-13c.03-.16,.33-1.36-.35-1.46-.25-.03-.52,0-.63-.38-.24-.84-1.58-.56-2.03-.56-.57,0-.71-.23-.17-.37l4.07-1.01c.41-.1,.38,.08,.23,.61l-.89,3.29c-.3,1.11-.38,.87-.23-.12Zm-15.52-2.62c-.22-1.83-2.46-.47-3.51-.16-.35,.1-.36-.15-.07-.31l3.59-1.98c.38-.17,.43-.09,.42,.38l-.09,2.19c-.04,.9-.25,.61-.34-.12Zm9.57,5.53c-.1,.55,.82,1.79,1.2,.7,.2-.98-.97-1.52-1.2-.7ZM7.16,21.42c-.25,.38,.24,1.55,.65,1.03,.13-.16,.13-.55,0-.81-.16-.33-.47-.48-.65-.22Zm24.97-9.31c.02,.52,.94,.84,.97,.05,.02-.51-.99-.71-.97-.05Zm5.6,5.58c.25-.02,.39,.33,.4,.79l.19,4.55c.02,.65-.15,.9-.26-.09-.22-2.09-.34-3.99-2.23-4.87-.36-.16-.19-.28,.07-.3,.62-.05,1.22-.03,1.84-.09Zm10.02-4.17c.29-.73-.86-.87-1.09-.49-.26,.44,.82,1.13,1.09,.49Zm-10.69,6.16c-.63-1.32-1.84,.04-.89,1.05,.71,.76,1.48,.19,.89-1.05Zm7.2,8.24c-.19-.33-.43-.18-.53-.05-.29,.37-.06,1.11,.29,1.07,.24-.02,.51-.52,.24-1.01Zm-.07,2.24c.24,1.74,1.57,.85,.97-.51-.57-1.3-1.08-.3-.97,.51Z"/><path class="c" d="M33.56,17.4l.15-2.97-3.83,1.7,.14,2.58,3.54-1.32ZM11.25,35.35c.71-.66,1.02-1.97,.7-3.15-.37-1.38-1.46-2.08-2.42-1.56s-1.46,2.06-1.08,3.43c.09,.33,.23,.63,.38,.88-.32,.07-.63,.19-.95,.36-.07,.03-.13,.07-.19,.11l1.18,3.46,3.87-2.09c-.43-.61-.94-1.11-1.49-1.43Zm-4.11-10.98c.59,.03,1.06,.75,1.03,1.59-.03,.85-.53,1.51-1.12,1.47-.59-.03-1.05-.74-1.03-1.59,.02-.84,.52-1.5,1.11-1.47Zm-1.9-1.41c.25,.02,.44,.32,.43,.67,0,.35-.21,.63-.46,.61-.25-.02-.44-.32-.43-.67,.01-.35,.21-.63,.46-.61Zm2.97,5.13c.34-.18,.71,.06,.84,.54,.13,.47-.04,1-.37,1.18s-.71-.06-.84-.54c-.13-.48,.04-1,.37-1.18Zm2.53-5.45l1.22-.24,4.88,11.83-1.66-15.96,1.85-.87,1.19,19.59-1.21,1.12-5.47-14.31-.36,6.15-.45-7.32Zm4.29-6.09l.04,.36,1.94-1.14-.02-.68-1.95,1.46Zm.44,.56v.38l1.95-.91-.05-.6-1.89,1.13Zm7.13,15.52c-1.62-3.5-3.23-9.43-.04-14.64-2.98,.89-4.73,9.96,.04,14.64Zm11.71-2.13c.36-.02,.72,.03,1.06,.15l-.73,5.77-1.08-.47-2.93-1.31c.45-2.31,1.91-4.05,3.68-4.14Zm-1.62-4.14c.73-.02,1.34,.79,1.37,1.84,.03,1.04-.54,1.9-1.27,1.93-.73,.02-1.34-.8-1.37-1.84-.03-1.04,.54-1.92,1.27-1.94Zm5.57,5.31l-.96-8.38,1.52,6.94,2.62-12.8,1.31,1.3-3.4,13.46-1.09-.53Zm7.37-7.5l.9-8.97,1.47-.78-2.37,9.75Zm-23.6,19.25l-4.46,.68,5.16-1.92-.95,4.25,7.64-3.13,.08-2.27,7.65,.69-8.03,5.5,.11-1.37-8.53,2.27,1.33-4.68ZM44.01,15.63l-.11,.69-4.25-2.98,.18-1.49,4.18,3.78Zm-14.29,11.42c-.48,.37-1.09,.13-1.36-.55-.27-.68-.1-1.54,.38-1.92,.48-.38,1.09-.14,1.36,.54s.1,1.54-.38,1.92Zm1.8-3.19c-.24,.19-.55,.07-.69-.28-.14-.34-.05-.78,.2-.97,.24-.19,.56-.07,.69,.28,.14,.34,.05,.79-.2,.97Zm1.99-4.66l.08-1.21-3.52,1.35,.07,.95,3.37-1.1Z"/></svg>