<?xml version="1.0" encoding="UTF-8" standalone="no"?><!DOCTYPE svg PUBLIC "-//W3C//DTD SVG 1.1//EN" "http://www.w3.org/Graphics/SVG/1.1/DTD/svg11.dtd"><svg width="100%" height="100%" viewBox="0 0 64 64" version="1.1" xmlns="http://www.w3.org/2000/svg" xmlns:xlink="http://www.w3.org/1999/xlink" xml:space="preserve" xmlns:serif="http://www.serif.com/" style="fill-rule:evenodd;clip-rule:evenodd;stroke-linejoin:round;stroke-miterlimit:2;"><g id="brown"><path d="M49.087,12.5C49.369,13.692 50.308,14.631 51.5,14.913L51.5,49.087C50.308,49.369 49.369,50.308 49.087,51.5L14.913,51.5C14.631,50.308 13.692,49.369 12.5,49.087L12.5,14.913C13.692,14.631 14.631,13.692 14.913,12.5L49.087,12.5Z" style="fill:#66503a;"/></g><g id="blue"><path d="M10,14.488C9.098,13.911 8.5,12.9 8.5,11.75C8.5,9.956 9.956,8.5 11.75,8.5C12.9,8.5 13.911,9.098 14.488,10L49.512,10C50.089,9.098 51.1,8.5 52.25,8.5C54.044,8.5 55.5,9.956 55.5,11.75C55.5,12.9 54.902,13.911 54,14.488L54,49.512C54.902,50.089 55.5,51.1 55.5,52.25C55.5,54.044 54.044,55.5 52.25,55.5C51.1,55.5 50.089,54.902 49.512,54L14.488,54C13.911,54.902 12.9,55.5 11.75,55.5C9.956,55.5 8.5,54.044 8.5,52.25C8.5,51.1 9.098,50.089 10,49.512L10,14.488ZM49.087,12.5L14.913,12.5C14.631,13.692 13.692,14.631 12.5,14.913L12.5,49.087C13.692,49.369 14.631,50.308 14.913,51.5L49.087,51.5C49.369,50.308 50.308,49.369 51.5,49.087L51.5,14.913C50.308,14.631 49.369,13.692 49.087,12.5Z" style="fill:#d1f8fd;"/></g></svg>