<?xml version="1.0" encoding="utf-8"?>
<!-- Generator: Adobe Illustrator 26.1.0, SVG Export Plug-In . SVG Version: 6.00 Build 0)  -->
<svg version="1.1" id="Layer_1" xmlns="http://www.w3.org/2000/svg" xmlns:xlink="http://www.w3.org/1999/xlink" x="0px" y="0px"
	 viewBox="0 0 64 64" style="enable-background:new 0 0 64 64;" xml:space="preserve">
<style type="text/css">
	.st0{fill:#55B948;}
	.st1{fill:#41A03A;}
	.st2{fill:#7E5236;}
	.st3{fill:#66C64D;}
	.st4{fill-rule:evenodd;clip-rule:evenodd;fill:#CCCCCC;}
	.st5{fill-rule:evenodd;clip-rule:evenodd;fill:#D8A155;}
	.st6{fill-rule:evenodd;clip-rule:evenodd;fill:#B3B3B3;}
</style>
<g>
	<g>
		<path class="st0" d="M53.8,23.9c0-3.1-2.5-5.6-5.7-5.6l-0.1,0c-1-1.7-2.8-2.9-5-2.9c-1.4,0-2.6,0.5-3.6,1.3
			c-0.7-2.3-2.9-3.9-5.4-3.9c-2,0-3.7,1-4.7,2.5c-1-1.2-2.6-2-4.3-2c-3.1,0-5.7,2.5-5.7,5.6v0c-0.9-0.7-2-1.1-3.2-1.1
			c-2.9,0-5.3,2.3-5.3,5.2c0,2.6,2,4.8,4.5,5.1c-0.7,0.9-1.1,2.1-1.1,3.4c0,3.1,2.5,5.6,5.7,5.6c1.2,0,2.2-0.3,3.1-0.9
			c0.7,2.2,2.9,3.8,5.4,3.8c1.7,0,3.2-0.7,4.3-1.9c1,0.8,2.2,1.3,3.6,1.3c2.4,0,4.5-1.5,5.3-3.7c1,0.9,2.3,1.4,3.8,1.4
			c3.1,0,5.7-2.5,5.7-5.6c0-0.9-0.2-1.8-0.6-2.5C52.4,28.1,53.8,26.1,53.8,23.9"/>
	</g>
</g>
<g>
	<g>
		<path class="st1" d="M10.7,20.2c0,3.2,2.4,5.8,5.4,5.8l0.1,0c0.9,1.8,2.7,3.1,4.7,3.1c1.3,0,2.5-0.5,3.4-1.3
			c0.7,2.4,2.7,4.1,5.1,4.1c1.9,0,3.5-1.1,4.5-2.7c1,1.3,2.5,2.1,4.1,2.1c3,0,5.4-2.6,5.4-5.8v0c0.8,0.7,1.9,1.1,3,1.1
			c2.8,0,5-2.4,5-5.4c0-2.7-1.9-5-4.3-5.4c0.7-1,1.1-2.2,1.1-3.5c0-3.2-2.4-5.8-5.4-5.8c-1.1,0-2.1,0.4-3,1c-0.7-2.3-2.7-4-5.1-4
			c-1.6,0-3.1,0.8-4.1,2C29.8,4.5,28.6,4,27.3,4C25,4,23,5.6,22.3,7.8c-0.9-0.9-2.2-1.5-3.6-1.5c-3,0-5.4,2.6-5.4,5.8
			c0,1,0.2,1.9,0.6,2.6C12,15.7,10.7,17.8,10.7,20.2"/>
	</g>
</g>
<g>
	<g>
		<path class="st2" d="M34.6,41.7c0.2-2.6,0.9-5.1,1.7-7.6c0.7-2.2,1.5-4.3,2.4-6.4c0.2-0.4,0.4-0.9,0.6-1.3
			c0.1-0.3,0.3-0.6,0.2-0.9c-0.1-0.3-0.3-0.6-0.6-0.7c-0.1,0-0.1,0-0.2,0c0,0-0.1,0.1-0.1,0.1c-0.1,0.4-0.3,0.7-0.4,1.1
			c-0.2,0.4-0.3,0.8-0.5,1.2c-0.3,0.8-0.7,1.6-1.1,2.4c-0.8,1.7-1.8,3.6-3.2,4.8c-0.5,0.4-1,0.7-1.7,0.7c-0.7,0-1.2-0.8-1.5-1.3
			c-0.5-0.8-0.9-1.8-1.2-2.7c-0.2-0.5-0.3-0.9-0.4-1.4c-0.1-0.4-0.2-0.9-0.3-1.3c-0.1-0.2-0.2-0.5-0.4-0.6c-0.1-0.1-0.2-0.1-0.4-0.1
			c-0.1,0.1-0.2,0.2-0.2,0.3c0,0.5,0.3,1.1,0.4,1.5c0.3,0.8,0.7,1.6,1,2.4c0.8,2.1,1.6,4.3,2.1,6.5c0.2,0.7,0.3,1.4,0.3,2
			c0.3,3.1,0.2,6.2,0,9.3c-0.2,2.2-0.5,4.4-1,6.5c-0.1,0.4-0.2,0.9-0.3,1.3c-0.1,0.3-0.3,0.6-0.2,0.9c0.1,0.3,0.6,0.3,0.8,0.4
			c1.8,0.2,3.6,0.2,5.4,0c0.2,0,0.5-0.1,0.6-0.2c0.2-0.2-0.1-0.4-0.1-0.6c-0.1-0.3-0.2-0.6-0.3-0.9c-0.2-0.6-0.4-1.2-0.5-1.8
			c-0.5-2.2-0.9-4.6-1-6.9C34.4,46.2,34.4,44,34.6,41.7"/>
	</g>
</g>
<path class="st3" d="M46.7,22.5c0-0.1,0-0.2,0-0.3c0-2.5-2-4.5-4.6-4.5c-1,0-1.9,0.3-2.7,0.9C38.8,18.2,38,18,37.2,18
	c-2.5,0-4.6,2-4.6,4.5c0,0,0,0.1,0,0.1c-1.6,0.7-2.6,2.3-2.6,4.1c0,2.5,2.1,4.5,4.6,4.5c0.6,0,1.2-0.1,1.8-0.3
	c0.8,1,2.1,1.7,3.6,1.7c1.5,0,2.8-0.7,3.7-1.8c0.7,0.5,1.6,0.8,2.5,0.8c2.5,0,4.6-2,4.6-4.5C50.7,24.7,48.9,22.8,46.7,22.5"/>
<path class="st3" d="M29.6,27.8c0-0.1,0-0.2,0-0.2c0-1.8-1.5-3.3-3.3-3.3c-0.7,0-1.4,0.2-2,0.6c-0.5-0.3-1-0.4-1.6-0.4
	c-1.8,0-3.3,1.5-3.3,3.3v0.1c-1.1,0.5-1.9,1.7-1.9,3c0,1.8,1.5,3.3,3.3,3.3c0.5,0,0.9-0.1,1.3-0.3c0.6,0.8,1.5,1.2,2.6,1.2
	c1.1,0,2-0.5,2.6-1.3c0.5,0.3,1.2,0.5,1.8,0.5c1.8,0,3.3-1.5,3.3-3.3C32.5,29.3,31.2,28,29.6,27.8"/>
<path class="st4" d="M25.7,53C25.7,53,25.7,52.9,25.7,53c0-0.2-0.1-0.4-0.2-0.4l-1.3-0.4c-0.2-0.1-0.4,0-0.4,0.2L23,55.1
	c-0.1,0.2,0,0.3,0.2,0.4c0.8,0.3,1.3,1,1.5,1.9c0,0.1,0.1,0.2,0.2,0.3c0.1,0,0.2,0,0.3-0.1c0.2-0.2,0.6-0.4,0.9-0.4
	c0.2,0,0.4,0.1,0.6,0.1c0.2,0.1,0.3,0,0.4-0.1c0.1-0.2,0.2-0.3,0.2-0.5c0.4-1.4,0.8-2.9,0.8-2.9c0.1-0.2,0-0.4-0.2-0.4l-1.3-0.4
	l-0.4,0.2c0,0,0,0,0,0.1c0,0.2-0.2,0.3-0.4,0.2C25.7,53.4,25.6,53.2,25.7,53L25.7,53z"/>
<path class="st5" d="M26.6,52.4l2.3-7.8c0.1-0.2-0.2-0.4-0.3-0.5s-0.5,0-0.5,0.2l-2.3,7.8c-0.1,0.2,0.2,0.4,0.3,0.5
	C26.3,52.7,26.6,52.6,26.6,52.4z"/>
<g>
	<g>
		<path class="st6" d="M28,44.7c0,0.1,0.2,0.2,0.3,0.2c0.1,0,0.3,0.1,0.4,0l1.7-1.3c0.1-0.1,0-0.2,0-0.4c0-0.1-0.1-0.4-0.2-0.4
			l-2.5-0.8c-0.1,0-0.3,0.1-0.4,0.2c-0.1,0.1-0.2,0.2-0.2,0.3L28,44.7z M28.6,44.1l-0.4-1l1.2,0.4L28.6,44.1z"/>
	</g>
</g>
<path class="st6" d="M27.1,52.6c0.1-0.2,0-0.4-0.2-0.4l-1.2-0.4c-0.2-0.1-0.4,0-0.4,0.2c0,0-0.1,0.4-0.2,0.8
	c-0.2,0.5,0.1,1.1,0.7,1.2c0.5,0.2,1.1-0.1,1.2-0.7C27,53,27.1,52.6,27.1,52.6z"/>
<g>
	<g>
		<path class="st5" d="M17.3,59.6h20.6v-0.4c0-1-0.8-1.8-1.8-1.8c-0.5,0-0.9,0.2-1.2,0.5c-0.2-0.1-0.4-0.1-0.6-0.1
			c-0.1,0-0.3,0-0.4,0.1c-0.3-1-1.2-1.7-2.2-1.7c-1.1,0-2,0.7-2.2,1.8c-0.2-0.1-0.4-0.2-0.7-0.2c-0.2,0-0.5,0.1-0.7,0.2
			c-0.3-0.8-1.1-1.4-1.9-1.4c-0.3,0-0.7,0.1-1,0.2c-0.4-1.2-1.6-2.1-2.9-2.1c-1.6,0-2.9,1.2-3.1,2.7c0,0,0,0-0.1,0
			c-1,0-1.8,0.8-1.8,1.8V59.6z"/>
	</g>
</g>
</svg>
