<?xml version="1.0" encoding="UTF-8"?><svg id="a" xmlns="http://www.w3.org/2000/svg" viewBox="0 0 53.06 55.09"><defs><style>.b{fill:#e66634;}.c{fill:#68a68e;}.d{fill:#a7afaf;}.e{fill:#476464;}.f{fill:#c6e792;}</style></defs><path class="e" d="M48.71,1.03c-1.28-.57-2.92-.65-3.89,.42-.28,.31-.48,.69-.79,.95-.56,.48-1.33,.44-2.02,.16-.24-.1-.48-.23-.69-.38-.81-.56-1.48-1.37-2.36-1.8-1.36-.67-2.95-.33-4.4,.11-1.76,.54-3.63,1.33-4.53,3.05-.85,1.62-.9,4.05-2.52,4.68-.94,.36-1.96-.12-2.92-.42-2.05-.64-4.35-.37-6.2,.78-1.85,1.16-3.23,3.19-3.65,5.46-.18,.97-.17,2.03,.25,2.91,.3,.63,.79,1.14,1.07,1.78,.63,1.46-.02,3.18-.75,4.58-1.3,2.51-1.51,4.45-1.08,7.26,.1,.64,.21,1.3,.36,1.93,.12,.5,.35,1.1,.7,1.47h-1.38l.29,1.21h.08l-.29,5.68h-.99l-4.48-4.35v-2.72h.73l-2.31-2.29-2.25,2.34h.73v2.21L0,41.4l.39,.45,.37-.36h1.35v12.11H.52v1.49H33.65v-1.49h-.79v-8.13h.41l-.87-1.44h-1.19v-2.1h.3l-.8-1.08h-.28l-.44-12.97h.04l.35-1.21h-1.33c.08-1.3-.07-2.72,.8-3.53,1.54-1.43,4.29,.78,5.83-.65,.42-.39,.64-.96,1.01-1.39,.79-.91,2.13-1,3.26-.7,1.13,.3,2.17,.91,3.3,1.18,1.14,.27,2.47,.12,3.21-.85,.78-1.02,.65-2.62,1.45-3.62,.69-.86,1.86-1.03,2.71-1.71,.82-.66,1.24-1.8,1.18-2.9,.34-.53,.6-1.09,.81-1.68,1.27-3.69-.21-8.15-3.91-9.8ZM19.01,35.17h.02l-.3,5.68h-2.4l-.35-5.68h.03l.29-1.21h-.9c.43-.62,.46-1.8,.45-2.55-.02-.72-.1-1.53,.32-2.08,.26-.33,.65-.5,.92-.82,.31-.35,.42-.84,.52-1.31s.2-.96,.48-1.33c.29-.37,.82-.57,1.19-.29,.83,.62-.04,3.09-.04,4.01,0,1.5,.3,3,.87,4.38h-1.39l.29,1.21Zm5.41-8.94c-.02,.4-.16,.79-.27,1.17-.41,1.5-.27,3.1-.13,4.65,.06,.63,.11,1.27,.18,1.91h-.67l.27,1.12-.31,5.76h-2.34l-.36-5.68h.03l.29-1.21h-.98c-.18-.66,.19-2.15,.27-2.75,.14-1,.34-1.99,.72-2.92,.3-.74,1.87-3.77,2.88-3.12,.32,.2,.45,.65,.43,1.05Zm3.43,1.65h.07l-.86,12.97h-1.12l-.36-5.68h.05l.29-1.21h-.94c.17-.83,.22-1.68,.17-2.51-.04-.57-.02-1.13,.05-1.68,.15-1.27,.51-2.52,.89-3.73,.25-.79,.57-1.64,1.24-2.07,.02-.02,.04-.03,.06-.05,.03-.02,.06-.03,.09-.05,.25,.93,.57,1.86,.77,2.8h-.73l.35,1.21Z"/><path class="d" d="M15.4,33.96h-.1c-.34-.36-.58-.97-.7-1.47-.16-.63-.27-1.29-.36-1.93-.43-2.81-.22-4.75,1.08-7.26,.73-1.4,1.38-3.12,.75-4.58-.28-.65-.78-1.15-1.07-1.78-.42-.88-.43-1.94-.25-2.91,.41-2.27,1.79-4.3,3.65-5.46,1.85-1.15,4.15-1.42,6.2-.78,.96,.3,1.98,.79,2.92,.42,1.62-.62,1.67-3.06,2.52-4.68,.9-1.72,2.77-2.51,4.53-3.05,1.44-.44,3.04-.78,4.4-.11,.88,.43,1.55,1.24,2.36,1.8,.21,.15,.45,.28,.69,.38,.69,.28,1.45,.31,2.02-.16,.31-.26,.51-.65,.79-.95,.97-1.07,2.61-.99,3.89-.42,3.7,1.65,5.17,6.1,3.91,9.8-.15-.75-.48-1.46-.96-2.02-1.24-1.45-3.35-1.87-5.1-1.69-1.36,.14-3.79,.63-3.97,2.47-.07,.78,.31,1.63-.05,2.3-.4,.72-1.39,.7-2.12,.41-.94-.37-2.18-1.05-3.18-.51-.93,.5-1.27,1.88-2.13,2.54-.9,.7-2.11,.61-3.22,.55-2.04-.11-3.46,.71-4.68,2.49-.31,.45-.55,.93-.75,1.44-.46,1.17-.66,2.46-.79,3.73-.14,1.38-.2,2.77-.44,4.13-.16,.88-.44,2.16-.05,3.03,0,.02,.02,.04,.03,.06-.06,.55-.08,1.12-.05,1.68,.05,.84,0,1.69-.17,2.51h-.76c-.06-.64-.12-1.28-.18-1.91-.15-1.55-.28-3.15,.13-4.65,.1-.39,.24-.77,.27-1.17s-.11-.85-.43-1.05c-1.01-.65-2.58,2.38-2.88,3.12-.38,.93-.58,1.92-.72,2.92-.08,.61-.45,2.1-.27,2.75h0c-.57-1.38-.86-2.88-.87-4.38,0-.92,.86-3.39,.04-4.01-.36-.27-.9-.08-1.19,.29-.29,.37-.39,.86-.48,1.33s-.21,.96-.52,1.31c-.27,.32-.67,.49-.92,.82-.43,.55-.34,1.36-.32,2.08,.01,.76-.02,1.94-.45,2.55ZM48.81,9.17c-1.27-.2-2.6,.33-3.51,1.31-1,1.09-1.74,2.8-3.16,2.85-.77,.03-1.32-.52-2.08-.46-.26,.02-.51,.04-.75,.11-.53,.15-.99,.53-1.35,.98-.64,.82-.95,2.06-1.81,2.64-.94,.65-2.12-.06-3.08-.35-2.85-.84-5.63,1.38-5.97,4.48-.12,1.05,.08,2.08,.35,3.1-.03,.02-.05,.05-.08,.07,.03-.02,.06-.03,.09-.05,.25,.93,.57,1.86,.77,2.8h.82c.08-1.3-.07-2.72,.8-3.53,1.54-1.43,4.29,.78,5.83-.65,.42-.39,.64-.96,1.01-1.39,.79-.91,2.13-1,3.26-.7,1.13,.3,2.17,.91,3.3,1.18,1.14,.27,2.47,.12,3.21-.85,.78-1.02,.65-2.62,1.45-3.62,.69-.86,1.86-1.03,2.71-1.71,.82-.66,1.24-1.8,1.18-2.9-.02-.28-.07-.57-.15-.84-.42-1.32-1.58-2.29-2.85-2.5Z"/><path class="b" d="M11.81,45.46v8.14h21.05v-8.13H11.81Zm3.3,6.63h-.48v-1.55h.48v1.55Zm0-3.48h-.48v-1.55h.48v1.55Zm2.96,3.48h-.48v-1.55h.48v1.55Zm0-3.48h-.48v-1.55h.48v1.55Zm2.97,3.48h-.48v-1.55h.48v1.55Zm0-3.48h-.48v-1.55h.48v1.55Zm2.96,3.48h-.48v-1.55h.48v1.55Zm0-3.48h-.48v-1.55h.48v1.55Zm2.97,3.48h-.48v-1.55h.48v1.55Zm0-3.48h-.48v-1.55h.48v1.55Zm2.96,3.48h-.48v-1.55h.48v1.55Zm0-3.48h-.48v-1.55h.48v1.55Zm-18.13-6.69v2.1H31.21v-2.09H11.81Zm5.43,1.66h-3.73v-1.15h3.73v1.15Zm6.25,0h-3.73v-1.15h3.73v1.15Zm6.25,0h-3.73v-1.15h3.73v1.15Zm-13.41-2.75h-2.33l.29-5.68h1.69l.35,5.68Zm4.46-5.68l.36,5.68h-2.43l.3-5.68h1.76Zm4.79,0l.36,5.68h-2.45l.31-5.76,.02,.08h1.76Zm4.36-7.29h.07l.44,12.97h-3.39l.86-12.97h2.02Zm-23.2,6.87l-1.3,1.29v-2.22l3.09-.05v2.72l-1.79-1.74Z"/><path class="c" d="M14.29,35.17h-.08l-.29-1.21h2.38l-.29,1.21h-1.72Zm4.72,0h1.81l.29-1.21h-2.38l.29,1.21Zm4.79-.08l.02,.08h1.8l.29-1.21h-2.38l.27,1.12Zm3.7-8.41l.35,1.21h2.19l.35-1.21h-2.89ZM5.88,53.6H2.11v-12.11H.76l5.98-5.91,6.07,5.91H2.13v.4H11.81v11.71H7.47v-2.37c0-.5-1.59-.58-1.59,0v2.37Zm3.38-4.1h.97v-5.1c0-.97-.97-1.13-.97,0v5.1Zm-2.84,0h.97v-5.1c0-.97-.97-1.13-.97,0v5.1Zm-1.61-9.14h3.73v-1.15h-3.73v1.15Zm-.26,4.04c0-.97-.97-1.13-.97,0v5.1h.97v-5.1Z"/><path class="f" d="M12.81,41.49l.41,.39,.38-.46-.59-.57-4.48-4.35-1.79-1.74-1.3,1.29L0,41.4l.39,.45,.37-.36,5.98-5.91,6.07,5.91Z"/><path class="e" d="M52.61,10.82c-.2,.59-.47,1.15-.81,1.68-.02-.28-.07-.57-.15-.84-.42-1.32-1.58-2.29-2.85-2.5s-2.6,.33-3.51,1.31c-1,1.09-1.74,2.8-3.16,2.85-.77,.03-1.32-.52-2.08-.46-.26,.02-.51,.04-.75,.11-.53,.15-.99,.53-1.35,.98-.64,.82-.95,2.06-1.81,2.64-.94,.65-2.12-.06-3.08-.35-2.85-.84-5.63,1.38-5.97,4.48-.12,1.05,.08,2.08,.35,3.1-.03,.02-.05,.05-.08,.07-.02,.02-.04,.03-.06,.05-.67,.44-.99,1.28-1.24,2.07-.38,1.21-.74,2.46-.89,3.73-.01-.02-.02-.04-.03-.06-.39-.87-.11-2.15,.05-3.03,.24-1.36,.31-2.76,.44-4.13,.13-1.27,.33-2.57,.79-3.73,.2-.51,.44-.99,.75-1.44,1.22-1.78,2.64-2.6,4.68-2.49,1.11,.06,2.32,.14,3.22-.55,.86-.66,1.2-2.04,2.13-2.54,1.01-.54,2.24,.14,3.18,.51,.73,.29,1.72,.32,2.12-.41,.36-.67-.02-1.52,.05-2.3,.18-1.83,2.61-2.33,3.97-2.47,1.75-.19,3.86,.24,5.1,1.69,.48,.56,.81,1.27,.96,2.02ZM11.81,45.46h21.46l-.87-1.43H11.81v1.43Zm14.13-4.62H13.01l.59,.57-.38,.46-.41-.39H2.13v.4H11.81v.04H31.52l-.8-1.08h-4.78Zm-11.3,7.76h.48v-1.55h-.48v1.55Zm2.96,0h.48v-1.55h-.48v1.55Zm2.96,0h.48v-1.55h-.48v1.55Zm2.97,0h.48v-1.55h-.48v1.55Zm2.96,0h.48v-1.55h-.48v1.55Zm2.97,0h.48v-1.55h-.48v1.55Zm-14.83,3.48h.48v-1.55h-.48v1.55Zm2.96,0h.48v-1.55h-.48v1.55Zm2.96,0h.48v-1.55h-.48v1.55Zm2.97,0h.48v-1.55h-.48v1.55Zm2.96,0h.48v-1.55h-.48v1.55Zm2.97,0h.48v-1.55h-.48v1.55Zm-9.71-8.51h3.73v-1.15h-3.73v1.15Zm-6.25,0h3.73v-1.15h-3.73v1.15Zm12.5,0h3.73v-1.15h-3.73v1.15Zm-16.75-9.82l-2.31-2.28-2.25,2.34h.73l3.09-.06h.73Zm-5.68,10.63v5.1h.97v-5.1c0-.97-.97-1.13-.97,0Zm6.65,0c0-.97-.97-1.13-.97,0v5.1h.97v-5.1Zm-2.83,0c0-.97-.97-1.13-.97,0v5.1h.97v-5.1Zm1.15-5.19h-3.73v1.15h3.73v-1.15Zm-1.07,14.39v-2.37c0-.5-1.59-.58-1.59,0v2.37H.52v1.49H33.65v-1.49H7.47Z"/></svg>