<?xml version="1.0" encoding="UTF-8"?><svg id="a" xmlns="http://www.w3.org/2000/svg" viewBox="0 0 45.34 54.75"><defs><style>.b{fill:#78a831;}.c{fill:#92c730;}</style></defs><path class="c" d="M42.02,45.73c-5.59,9.26-12.44,10.49-18.93,7.71,.04-1.33,.14-2.78,.33-4.3,1.27-9.94,13.74-26.45,13.89-26.64-.15,.13-12.79,10.82-17.05,24.18-.54,1.7-.9,3.21-1.12,4.57-6.77-4.62-9.97-11.83-3.75-22.13,6.48-10.73,28.09-16.16,28.09-16.16,0,0,5.02,22.04-1.46,32.77Z"/><path class="b" d="M28.31,16.63c-4.76,2.29-9.64,5.34-12.7,9.13-4.56-7.24-8.43-15.01-8.52-15.23,.04,.23,2.03,8.87,6.85,17.71-2.49,4.35-3.29,8.14-2.84,11.4-3.19-1.12-6.19-3.81-8.73-8.62C-3.17,20.54,2.74,0,2.74,0c0,0,19.88,6.25,25.56,16.63Z"/></svg>