<?xml version="1.0" encoding="UTF-8"?><svg id="a" xmlns="http://www.w3.org/2000/svg" viewBox="0 0 56 55.56"><defs><style>.b{fill:#fff;}.c{fill:#ff5757;}</style></defs><path class="c" d="M56,27.77c0,.91-.04,1.82-.14,2.72-.09,.9-.22,1.8-.4,2.69-.18,.89-.41,1.78-.67,2.64-.27,.87-.57,1.73-.93,2.57-.35,.84-.74,1.66-1.17,2.46-.43,.8-.9,1.58-1.41,2.33s-1.05,1.49-1.64,2.19c-.58,.7-1.2,1.37-1.85,2.02s-1.32,1.25-2.04,1.83c-.71,.58-1.44,1.12-2.2,1.63-.77,.5-1.55,.97-2.36,1.4s-1.64,.82-2.48,1.16-1.71,.66-2.58,.92c-.88,.27-1.77,.49-2.67,.66-.9,.18-1.81,.32-2.72,.4s-1.83,.14-2.74,.14-1.84-.05-2.75-.14-1.82-.22-2.72-.4c-.91-.17-1.79-.4-2.67-.66-.88-.26-1.74-.57-2.59-.92s-1.67-.74-2.48-1.16c-.81-.43-1.59-.9-2.35-1.4-.76-.51-1.5-1.05-2.21-1.63-.71-.58-1.39-1.18-2.04-1.83s-1.26-1.32-1.85-2.02c-.58-.71-1.12-1.44-1.64-2.19-.51-.76-.98-1.54-1.41-2.33-.43-.81-.82-1.63-1.17-2.46-.36-.84-.66-1.7-.93-2.57-.26-.87-.49-1.75-.67-2.64-.17-.89-.31-1.79-.4-2.69-.09-.9-.14-1.81-.14-2.72s.04-1.81,.14-2.72c.09-.91,.22-1.81,.4-2.7,.18-.89,.41-1.77,.67-2.64,.27-.87,.57-1.73,.93-2.56,.35-.84,.74-1.67,1.17-2.46,.43-.81,.91-1.59,1.41-2.34,.51-.76,1.05-1.49,1.64-2.19,.59-.71,1.2-1.38,1.85-2.02,.65-.64,1.33-1.26,2.04-1.83,.71-.58,1.45-1.12,2.21-1.62,.76-.51,1.55-.97,2.35-1.41,.81-.43,1.64-.81,2.48-1.16,.85-.35,1.71-.65,2.59-.92,.87-.27,1.76-.48,2.67-.66,.9-.18,1.8-.31,2.72-.4,.91-.09,1.83-.13,2.75-.13s1.83,.04,2.74,.13c.91,.09,1.82,.22,2.72,.4,.9,.18,1.79,.4,2.67,.66,.87,.27,1.74,.57,2.58,.92,.85,.35,1.67,.74,2.48,1.16,.81,.43,1.59,.9,2.36,1.41,.76,.5,1.49,1.05,2.2,1.62,.71,.58,1.39,1.19,2.04,1.83,.65,.64,1.27,1.31,1.85,2.02,.58,.7,1.12,1.43,1.64,2.19,.51,.76,.98,1.54,1.41,2.34,.44,.8,.82,1.62,1.17,2.46,.36,.84,.66,1.7,.93,2.56,.26,.87,.49,1.75,.67,2.64,.17,.89,.31,1.79,.4,2.7,.09,.9,.14,1.81,.14,2.72Z"/><path class="b" d="M25.19,11.7c-.63,.76-.95,1.82-.95,3.19,0,1,.06,2.66,.2,4.96l.71,11.83c.13,1.53,.35,2.68,.66,3.43,.84,1.54,3.5,1.47,4.19-.05,.34-.77,.56-1.88,.66-3.33l.95-12.18c.1-1.11,.15-2.22,.15-3.31,0-1.85-.21-3.25-.64-4.22-1.17-1.94-4.55-1.93-5.94-.32Zm0,27.22c-.81,.75-.95,1.67-.95,2.59s.19,2.18,.99,2.74c1.51,1.05,4.03,1.03,5.54-.02,.79-.55,1-1.75,.99-2.71,0-.93-.22-2.07-.99-2.59-1.53-1.05-4.26-1.31-5.58,0Z"/></svg>