<?xml version="1.0" encoding="UTF-8"?><svg id="a" xmlns="http://www.w3.org/2000/svg" viewBox="0 0 51.33 55.07"><defs><style>.b{fill:#7294a2;}.b,.c,.d,.e{fill-rule:evenodd;}.c{fill:#7ca1b1;}.f{fill:#f6f6f6;}.g{fill:#5271ff;}.d{fill:#537983;}.e{fill:#4d7079;}</style></defs><g><path class="c" d="M32.84,9.29h-14.11c-.7,0-1.21-.63-1.21-1.41v-3.23c0-2.56,1.83-4.65,4.1-4.65h8.34c2.27,0,4.12,2.08,4.12,4.65v3.23c0,.79-.56,1.41-1.25,1.41Zm-.04-1.46v-3.18c0-1.75-1.28-3.19-2.83-3.19h-8.34c-1.56,0-2.82,1.44-2.82,3.19v3.18h13.99Z"/><path class="d" d="M38,55.01H13.61c-.46,0-.82-.37-.82-.81v-4.61c0-.46,.36-.83,.82-.83h24.44c.46,0,.81,.37,.81,.83v4.61c-.04,.44-.41,.81-.85,.81Z"/><path class="c" d="M40.77,50.41H10.79c-.41,0-.77-.32-.77-.78L8.02,14.38c0-.23,.04-.46,.23-.59,.18-.14,.36-.23,.59-.23H42.81c.23,0,.41,.09,.58,.23,.14,.13,.23,.35,.23,.59l-2,35.25c-.09,.46-.41,.78-.85,.78Z"/><path class="d" d="M45.08,15.15H6.51c-.44,0-.82-.36-.82-.82v-3.48c0-2.4,1.92-4.29,4.33-4.29h31.52c2.41,0,4.32,1.94,4.32,4.29v3.53c0,.41-.37,.77-.78,.77Z"/><path class="d" d="M16.83,45.35c-.41,0-.78-.32-.78-.78l-1.45-25.13c-.04-.46,.32-.81,.72-.81,.46-.05,.82,.31,.82,.72l1.45,25.13c.05,.46-.32,.81-.72,.81l-.04,.05Z"/><path class="d" d="M34.78,45.35h-.05c-.46-.05-.77-.41-.73-.82l1.46-25.14c.05-.45,.41-.76,.81-.72,.46,.05,.78,.41,.73,.81l-1.45,25.14c0,.41-.36,.72-.77,.72Z"/><path class="d" d="M25.77,44.57c-.45,0-.82-.35-.82-.81V19.8c0-.44,.37-.81,.82-.81s.83,.37,.83,.81v23.96c0,.46-.37,.81-.83,.81Z"/><path class="e" d="M15.29,6.56h-5.27c-1.42,0-2.67,.66-3.45,1.69,.23-.04,.47-.07,.72-.07h31.52c2.41,0,4.32,1.95,4.32,4.3v2.66h1.95c.41,0,.78-.36,.78-.77v-3.53c0-2.35-1.91-4.29-4.32-4.29H15.29Z"/><path class="b" d="M43.13,15.15H8.06l.13,2.17h31.45c.23,0,.41,.09,.58,.22,.14,.14,.23,.37,.23,.6l-1.76,30.97-.07,1.31h2.15c.44,0,.77-.32,.85-.78l1.96-34.48h-.46Z"/></g><path class="g" d="M50.7,5.32c-.41-1.04-1-1.97-1.75-2.77-.74-.8-1.61-1.43-2.58-1.87-1-.46-2.06-.68-3.16-.68H8.13c-1.09,0-2.16,.23-3.16,.68-.97,.44-1.84,1.07-2.58,1.87-.74,.8-1.33,1.73-1.74,2.77-.43,1.08-.64,2.22-.64,3.4V46.34c0,1.18,.22,2.32,.64,3.4,.41,1.04,1,1.97,1.74,2.77,.74,.8,1.61,1.43,2.58,1.87,1,.46,2.07,.69,3.16,.69H43.21c1.1,0,2.16-.23,3.16-.69,.97-.44,1.84-1.07,2.58-1.87,.75-.8,1.34-1.73,1.75-2.77,.42-1.08,.64-2.22,.64-3.4V8.72c0-1.18-.22-2.32-.64-3.4Z"/><path class="f" d="M49.05,6.59c-.09-.28-.19-.56-.31-.82-.03-.07-.06-.13-.1-.19,0-.02-.01-.03-.02-.04-.02-.04-.05-.08-.06-.12-.05-.09-.1-.18-.16-.27-.04-.07-.08-.13-.12-.2-.07-.11-.15-.22-.22-.32-.03-.04-.06-.08-.09-.12-.13-.16-.26-.32-.4-.47-1.12-1.2-2.66-1.94-4.36-1.94H8.13c-.27,0-.54,.02-.81,.06-.59,.08-1.16,.26-1.68,.51-.03,.01-.05,.02-.08,.04h0s-.05,.02-.07,.04h0s-.03,.02-.04,.02c-.02,.01-.03,.02-.05,.02-.07,.04-.13,.07-.2,.11-.03,.02-.06,.04-.08,.05,0,0-.01,0-.02,.01-.03,.01-.05,.03-.07,.04,0,0,0,0-.01,0l-.09,.05s-.05,.04-.08,.05c0,0-.01,0-.02,.01-.02,.01-.05,.03-.07,.05,0,0-.01,0-.01,0-.03,.02-.05,.04-.08,.05-.03,.02-.06,.04-.09,.07-.05,.04-.11,.08-.16,.13l-.07,.05s-.02,.01-.02,.02l-.07,.05s-.05,.04-.06,.05c-.01,0-.02,.01-.02,.02-.02,.02-.05,.04-.07,.06-.03,.02-.05,.04-.08,.07h0s-.04,.04-.06,.06c-.01,0-.02,.02-.03,.03-.02,.02-.04,.04-.06,.06-.02,.02-.05,.04-.06,.07-.01,0-.02,.01-.02,.02-.02,.02-.03,.04-.05,.06,0,0,0,0-.01,0-.02,.02-.04,.05-.06,.07,0,0,0,0,0,0-.02,.02-.05,.05-.07,.08-.02,.02-.04,.04-.06,.07l-.02,.02s-.04,.05-.06,.07l-.02,.02s-.03,.04-.04,.05c0,.01-.02,.02-.02,.03-.04,.05-.07,.1-.11,.15-.01,.01-.02,.02-.02,.03-.02,.02-.03,.04-.05,.07-.02,.03-.04,.06-.06,.09-.02,.02-.04,.05-.06,.08,0,0,0,.01-.01,.02-.03,.05-.07,.11-.11,.17,0,0,0,0,0,0-.01,.02-.03,.05-.04,.07,0,0-.01,.01-.01,.02-.02,.03-.03,.05-.05,.09,0,0,0,.01-.01,.02,0,.02-.02,.03-.02,.05-.03,.05-.06,.1-.08,.15-.01,.02-.02,.04-.03,.07h0s-.02,.05-.03,.07l-.02,.04s-.02,.03-.02,.05c-.07,.14-.13,.29-.19,.43-.01,.02-.02,.03-.02,.05,0,.01,0,.02-.01,.03l-.02,.05s-.01,.02-.02,.04c0,.01-.01,.03-.02,.05-.01,.02-.02,.05-.02,.07-.01,.02-.02,.05-.03,.07-.01,.04-.03,.09-.04,.13,0,.01-.01,.02-.01,.04,0,.02-.01,.04-.02,.06-.01,.02-.02,.05-.02,.08,0,.02-.02,.05-.02,.08l-.02,.07s-.02,.06-.02,.09l-.02,.07c-.01,.06-.03,.12-.04,.18,0,.02,0,.04-.01,.07,0,.02-.01,.05-.01,.07-.01,.05-.02,.12-.03,.18,0,.02,0,.04,0,.06,0,.01,0,.02,0,.04l-.02,.15s-.01,.05-.01,.08c0,.02,0,.04,0,.06,0,.01,0,.03,0,.04,0,.02,0,.04,0,.06,0,.02,0,.05,0,.07v.03s0,.05,0,.07v.06s0,.02,0,.04v.07s0,.04,0,.07V46.34c0,.74,.11,1.46,.32,2.12,.09,.28,.19,.56,.32,.82,.03,.07,.06,.13,.09,.19,0,.02,.02,.03,.02,.04,.02,.04,.04,.08,.06,.12,.05,.09,.1,.18,.15,.27h0c.04,.07,.08,.13,.13,.2,.07,.11,.14,.21,.22,.32,.03,.04,.06,.08,.1,.12,.13,.16,.26,.32,.4,.47,1.11,1.2,2.66,1.94,4.36,1.94H43.21c.27,0,.55-.02,.81-.06,.59-.08,1.16-.26,1.69-.51,.02-.01,.05-.02,.07-.04t.01,0s.05-.02,.07-.03h0s.03-.02,.05-.02c.01-.01,.03-.02,.04-.02,.07-.04,.14-.07,.2-.11,.03-.02,.06-.04,.09-.05,0,0,.01-.01,.02-.01,.02-.01,.05-.03,.07-.04,0,0,.01,0,.01,0l.09-.05s.05-.04,.08-.05c0,0,.01,0,.02-.01,.02-.02,.05-.03,.07-.05,0,0,0,0,.01,0,.02-.02,.05-.04,.07-.05,.03-.02,.06-.04,.09-.07,.06-.04,.11-.08,.16-.13l.07-.05s.02-.01,.03-.02c.02-.02,.04-.04,.06-.05l.07-.05,.02-.02s.05-.04,.07-.06,.05-.05,.07-.07h0l.06-.06s.02-.02,.03-.03c.02-.02,.04-.04,.06-.06,.02-.02,.05-.04,.07-.07l.02-.02,.06-.06h0s.05-.05,.06-.08c0,0,0,0,.01,0,.02-.02,.05-.05,.07-.08,.02-.02,.03-.04,.06-.07l.02-.02s.03-.05,.06-.07c0,0,0-.01,.01-.02,.02-.02,.03-.04,.04-.05s.02-.02,.03-.03c.03-.05,.07-.1,.11-.15,0-.01,.01-.02,.02-.03,.02-.02,.03-.05,.05-.07,.02-.03,.04-.06,.06-.09,.02-.02,.03-.05,.05-.08,0,0,.01-.01,.01-.02,.04-.05,.07-.11,.11-.17h0s.03-.05,.05-.08c0,0,0-.01,.01-.02,.02-.03,.03-.06,.05-.09,0,0,.01-.01,.01-.02,.01-.02,.02-.03,.03-.05,.03-.05,.05-.1,.08-.15,.01-.02,.02-.04,.03-.07,0,0,0,0,0,0,.01-.02,.02-.04,.03-.06l.02-.04s.02-.03,.02-.05c.07-.14,.13-.29,.19-.43,0-.02,.01-.03,.02-.05,0-.01,.01-.02,.01-.03,.01-.02,.02-.04,.02-.05,0-.01,.01-.03,.01-.04,.01-.01,.02-.03,.02-.05,0-.02,.02-.05,.02-.07,0-.02,.02-.04,.02-.07,.02-.04,.03-.09,.05-.13,0-.01,0-.02,.01-.04l.02-.05s.01-.05,.02-.08c0-.02,.01-.05,.02-.08,0-.02,.02-.05,.02-.07,0-.03,.01-.06,.02-.09l.02-.07c.01-.06,.02-.12,.03-.18,0-.02,.01-.04,.01-.07l.02-.07c.01-.05,.02-.12,.03-.18,0-.02,0-.04,.01-.06v-.04s.02-.1,.02-.15c0-.02,0-.05,.01-.08,0-.02,0-.04,0-.06v-.04s0-.04,0-.06c0-.02,0-.05,0-.07v-.02s0-.05,0-.07c0-.02,0-.04,0-.07v-.04s0-.04,0-.07V8.72c0-.74-.11-1.46-.32-2.12Zm-.65,39.75c0,3.07-2.33,5.57-5.19,5.57H8.13c-2.86,0-5.19-2.5-5.19-5.57V8.72c0-3.07,2.33-5.56,5.19-5.56H43.21c2.86,0,5.19,2.49,5.19,5.56V46.34Z"/><path class="f" d="M20.1,32.52v11.9h-6.49V10.64h12.28c2.37,0,4.45,.46,6.24,1.39,1.8,.93,3.18,2.25,4.14,3.96,.97,1.71,1.45,3.65,1.45,5.83,0,3.31-1.05,5.92-3.17,7.83-2.11,1.91-5.03,2.86-8.77,2.86h-5.69Zm0-5.64h5.79c1.72,0,3.02-.43,3.92-1.3,.9-.87,1.35-2.1,1.35-3.71s-.45-2.99-1.36-4.01c-.9-1.02-2.16-1.55-3.76-1.58h-5.95v10.6Z"/></svg>