<?xml version="1.0" encoding="UTF-8"?><svg id="a" xmlns="http://www.w3.org/2000/svg" viewBox="0 0 57.33 54.83"><defs><style>.b{fill:#fff;}.c{fill:#64d4f2;}.d{fill:#52c9dd;}.e{fill:#5dcee8;}</style></defs><path class="d" d="M6.06,29.78c-1.44-1.31-3.02-2.52-4.24-4.11-.72-.93-1.29-2.06-1.58-3.37-.22-.84-.43-1.96,0-2.8,.5-1.02,1.58-1.02,2.37-.74,.86,.28,1.65,1.03,2.37,1.77,.86,.93,1.72,2.06,2.8,2.52,1.08,.56,2.44,.47,3.23-.65,.72-1.03,.72-2.52,.5-3.83-.22-1.31-.58-2.71-.43-4.02,.07-1.31,.86-2.8,1.86-2.8,1.08,0,1.79,1.31,2.3,2.52,1.15,2.43,2.22,4.86,3.37,7.29,.72,1.5,1.72,3.27,3.08,2.89,1.22-.28,1.72-2.05,2.09-3.64,.36-1.5,.93-3.27,2.15-3.55,1.08-.19,1.94,.93,2.59,2.15s1.07,2.52,2.08,3.18c.86,.56,1.94,.37,2.8-.29,.86-.56,1.58-1.5,2.3-2.34,2.51-2.98,5.45-5.32,8.54-7.09,1.22-.75,2.58-1.31,3.94-1.22,1.36,.09,2.73,1.22,3.09,2.89,.57,2.52-1.29,4.95-3.09,6.17s-4.02,2.15-4.95,4.49c-.29,.65-.43,1.68,0,2.24,.43,.65,1.29,.38,1.86,0,.58-.38,1.15-1.03,1.87-.93,.93,.09,1.58,1.59,1.43,2.8-.15,1.21-.86,2.24-1.51,3.17-3.44,4.3-7.96,6.82-11.77,10.56-2.58,2.52-4.81,5.6-7.54,7.75-2.15,1.68-5.45,3.46-7.96,2.34-1.86-.84-2.3-5.6-3.16-7.84-2.51-6.17-6.03-11.59-10.41-15.51Zm26.99-12.52c.72-.84,1.43-1.5,2.3-2.06,1-.65,2.08-1.21,2.8-2.24,.72-1.12,1.01-2.89,.22-3.92-.64-.84-1.72-.93-2.51-.38-.79,.56-1.36,1.59-1.79,2.61-.5,1.22-1.79,4.67-1,5.98ZM17.12,.54c-.86-.65-1.79-.75-2.66-.1-.93,.75-1.29,2.43-1,3.83,.29,1.4,1.07,2.52,1.86,3.55,1.43,1.59,3.52,3.18,4.09,5.7,.5,2.15,1.36-.1,1.43-1.13,.15-2.14,.15-4.39-.36-6.44-.5-1.78-1.79-4.3-3.37-5.42ZM51.35,23.24c-.36,.47-2.01,2.24-1,2.7,.29,.19,.65,0,.93,0,.79-.09,1.58,.1,2.37,.28,1.22,.29,3.09,.29,3.59-1.68,.51-2.06-1.07-3.74-2.51-3.46-.22,0-.5,.09-.79,.19-.93,.37-1.79,1.02-2.59,1.96Z"/><path class="e" d="M3.26,35.47c-.43-.37-.93-.93-1-1.68-.08-.94,.79-1.68,1.5-1.68s1.44,.47,2.16,.74c.72,.28,1.58,.28,2.08-.56,.43-.65,.36-1.78,.72-2.52,.64-1.4,2.37-.93,3.37,0,1,.93,1.93,2.43,3.16,2.52,2.44,.28,4.23-4.21,6.6-3.55,1,.28,1.72,1.4,2.73,1.87,1.58,.65,3.09-.84,4.45-1.96,1.58-1.31,3.3-2.15,5.1-2.61,1-.29,2-.38,2.87,.28s1.29,2.34,.65,3.27c1.44,0,3.02,0,4.24,.93,1.29,.94,2.08,3.18,1.29,4.86,2.15-.84,4.24-1.77,6.39-2.61,.79-.29,1.65-.65,2.44-.47,.79,.18,1.58,1.21,1.43,2.24-.14,1.03-.93,1.59-1.65,1.96-4.52,2.52-8.97,5.14-13.49,7.66-2.23,1.31-4.52,2.61-6.89,3.27-4.59,1.4-9.33,.47-13.85-1.03-1.79-.56-3.66-1.12-5.24-2.34-1.07-.84-1.93-2.05-2.87-3.08-1.94-1.77-4.09-3.64-6.18-5.51Z"/><path class="c" d="M8.36,44.16c-.58-.38-1.22-.75-1.65-1.31-.43-.56-.72-1.59-.43-2.33,.36-1.13,1.58-1.22,2.44-.75,.86,.47,1.58,1.31,2.51,1.5,.93,.28,2.08-.38,2.08-1.59,0-.47-.22-1.03-.15-1.5,.15-1.03,1.22-1.22,1.87-.65,.64,.56,1.07,1.4,1.65,2.05,1,1.13,2.44,1.22,3.73,1.31,.86,.1,1.86,.1,2.44-.84,.51-.74,.51-1.86,.58-2.79,.07-1.03,.36-2.15,1.15-2.34,.72-.19,1.36,.56,1.72,1.4,.36,.84,.65,1.77,1.15,2.34,.79,.84,1.93,.65,2.8,.09,.86-.56,1.58-1.49,2.44-2.24,1.65-1.5,3.73-2.15,5.74-1.96,.5,.09,1.07,.28,1.22,.84,.36,1.12-.93,2.05-.93,3.18,0,.74,.58,1.4,1.22,1.49,.58,.1,1.22-.18,1.79-.37,2.16-.84,4.45-1.31,6.75-1.22,.43,0,1.01,.1,1.22,.56s.07,1.21-.29,1.59c-.36,.38-.79,.56-1.22,.75-3.52,1.68-6.53,5.04-8.33,9.34-.79,1.96-1.15,2.15-2.8,2.61-1.44,.38-2.87,.74-4.31,.93-2.87,.47-5.81,.65-8.68,.56-2.44-.1-4.95-.28-7.32-.93-1.93-.56-2.23-2.99-3.44-4.77-1.36-1.86-3.09-3.64-4.95-4.94Z"/><path class="b" d="M19.05,5.58c0,.65-.72,.93-1,.38-.07-.19-.15-.47-.22-.65,0,0,0-.1-.07-.1,0-.09-.08-.19-.08-.28-.07-.19-.14-.28-.22-.47l-.07-.1c-.07-.09-.07-.19-.14-.19-.08-.09-.22-.28-.29-.37l-.07-.1c-.07-.09-.15-.09-.15-.19-.07,0-.07-.09-.14-.09-.08-.09-.15-.19-.22-.28-.15-.19-.22-.38-.29-.56-.07-.19,0-.38,.15-.47,.36-.28,.79-.1,1.15,.19,.29,.19,.58,.47,.79,.84,.22,.28,.43,.65,.65,1.12,.07,.38,.21,.84,.21,1.31Zm.36,2.15c0-.1-.07-.19-.07-.19l-.08-.09c-.07,0-.14-.1-.22-.1h-.14c-.07,0-.07,.1-.15,.1-.07,0-.07,.09-.07,.18v.29c0,.09,.07,.19,.07,.19l.08,.09c.07,0,.14,.09,.21,.09h.15c.07,0,.07-.09,.15-.09,.07,0,.07-.09,.07-.19v-.28Zm18.52,2.99c0,.19,0,.37-.07,.47-.07,.09-.07,.28-.14,.38-.08,.09-.15,.09-.15,.18-.07,.1-.15,.1-.22,0h-.07c-.22,0-.29-.28-.22-.47,0-.09,.07-.19,.07-.19-.07,.1,0,0,0,0v-.65s0-.09-.07-.09c-.15-.09-.15-.38,0-.56,.07-.19,.29-.19,.36-.09,.29,.28,.5,.65,.5,1.03Zm12.13,4.2c0-.19-.22-.28-.36-.28s-.29,.19-.29,.38v.28q0,.09-.08,.19v.09c-.07,.1-.07,.19-.14,.38,0,.09-.08,.09-.08,.19,0,0,0,.09-.07,.09-.07,.1-.15,.19-.22,.28,0,0-.07,.1-.15,.1h-.07c-.22,.19-.43,.28-.58,.47l-.07,.1c-.22,.18-.07,.65,.15,.74h.07c.07,0,.15,.09,.22,.09s.15,0,.29-.09c.15-.09,.22-.19,.36-.28,.22-.19,.43-.47,.58-.75,.43-.56,.5-1.31,.43-1.96Zm-2.58,3.37v-.1c0-.09-.07-.09-.15-.19h-.29c-.07,0-.15,.1-.22,.1,0,0-.07,0-.07,.09l-.08,.1q-.07,.09-.07,.19v.18c0,.1,.07,.1,.07,.19q.08,.1,.15,.1h.36c.07,0,.14,0,.22-.1q.07,0,.14-.09c.08,0,.08-.1,.08-.1,0-.09,.07-.09,.07-.18-.22-.1-.22-.19-.22-.19Zm8.76,6.07c-.07-.1-.22-.1-.29,0h.07q-.07,0-.15,.09h-.5c-.07,0-.15-.09-.15,0-.07,0-.14,0-.14,.1-.08,.09-.08,.28-.08,.37,.08,.19,.15,.29,.29,.38,.14,.1,.29,.1,.43,.1s.29-.1,.43-.1c.07,0,.14-.09,.14-.19,.08-.09,.08-.28,.15-.37,0-.19-.07-.29-.22-.38ZM1.9,22.11c0-.18-.07-.37-.07-.47v-.47c.07-.28,.22-.47,.15-.74v.09c0-.09-.08-.19-.15-.19s-.15-.09-.22,0c-.07,0-.15,0-.15,.1-.07,.09-.14,.19-.22,.28-.07,.19-.14,.28-.14,.47-.08,.28-.08,.75,0,1.03,0,.09,.07,.19,.07,.28,.07,.1,.15,.19,.22,.28,.15,.1,.29,.1,.36,0,.07-.09,.14-.18,.14-.28v-.38Zm0-1.02s-.07,.09,0,0Zm-.07-.94s.07,0,0,0q.07,0,0,0Zm.57,3.37c-.29,0-.29,.56,0,.56s.29-.56,0-.56Z"/><path class="e" d="M29.39,52.38c-.43,.56-1.29,.65-1.86,.65-.65,.09-1.36,.09-2.01,.09-1.36,0-2.8-.09-4.16-.19-1.22-.09-2.44-.28-3.59-.65-1.01-.38-1.87-1.21-2.37-2.43-.43-1.03-.72-2.43-1.36-3.27-.14-.19,0-.56,.22-.47,.58,.09,.86,.28,1.22,.83,.36,.47,.57,1.03,.93,1.59,.79,1.4,2.01,1.59,3.23,1.68,2.73,.18,5.45,.09,8.26,.18,.57,0,1.36,0,1.72,.75,.15,.28,.08,.84-.22,1.22Zm3.66-2.06c-.15-.28-.36-.47-.58-.47h-1c-.15,.09-.22,.09-.36,.09-.07,0-.14,.1-.22,.19-.14,.1-.22,.28-.29,.47v.47c0,.09,.07,.18,.15,.28,.07,.09,.14,.19,.22,.28,.14,.1,.29,.19,.43,.19h.15c.07,0,.22,0,.29,.09,.08,0,.22,0,.29-.09h.14c.15-.09,.36-.19,.5-.38,.08-.09,.22-.28,.29-.47,.07,0,.07-.38,0-.65Z"/></svg>