<?xml version="1.0" encoding="UTF-8"?><svg id="a" xmlns="http://www.w3.org/2000/svg" viewBox="0 0 38.67 54.67"><defs><style>.b{fill:#fff;}.c,.d{fill:#36393b;}.d{fill-rule:evenodd;}.e{fill:#50505b;}</style></defs><path class="e" d="M38.65,54.67H.2V0H38.65V54.67"/><path class="b" d="M36.05,54.67H2.81V0H36.05V54.67"/><path class="e" d="M34.94,54.67H3.92V0h31.01V54.67"/><path class="b" d="M19.96,0h-1.06V3.28h1.06V0Zm0,7.95h-1.06v6.22h1.06V7.95Zm0,10.88h-1.06v6.22h1.06v-6.22Zm0,10.88h-1.06v6.22h1.06v-6.22Zm0,10.88h-1.06v6.22h1.06v-6.22Zm0,10.88h-1.06v3.2h1.06v-3.2"/><path class="c" d="M8.96,10.49l6.44,1.65,10.86-1.85-10.51,2.64-.48,.11-6.66-1.49-2.99,1.74-.65,.38L.11,12.89l-.11-1.28,4.06,.73,3.5-1.87,.42-.22,.98,.25"/><path class="d" d="M38.59,45.14l-5.12-.76,1.49-1.89-6.48-2.5,.61-3.29-5.8,.48-3.75-.32,3.75,.74,.25,.52,.34-.59,4.61-.49-1.11,3.39,6.56,2.19-3.9-.26-2.24,1.93-10.37-4.37-1.61,2.05,1.83-1.54,10.37,4.46,2.19-2.13,3.18,.24-2.53,1.04v2.82l-9.14-.26,2.56,4.7-1.34-4.24,8.69,.12-.28-2.75,1.82-.75-.73,1.27,3.63,.72,2.59,1.5-.07-2.02Z"/><path class="d" d="M17.91,25.46l-7.86,3.53,8.57-3.41,.97-.2-3.53,3.32,4.18-3.46,1.14-.24,7.12,5.99-6.59-6.34-.54-.23,2.6-.2s6.24,.46,6.39,.47c.15,0-5.92-.68-5.92-.68l4.29-.99-4.85,.92-2.79,.1,.99-.61,7.86-6.38-8.44,6.06-1.88,.96,.45-2.09-.98,1.96-1.15-1.59-1.46-4.52,1.07,4.8,.41,1.72-2.23-.25-7.66-1.94,7.92,2.35,.68,.77,1.49-.44-.23,.64Z"/></svg>