<?xml version="1.0" encoding="utf-8"?>
<!-- Generator: Adobe Illustrator 26.1.0, SVG Export Plug-In . SVG Version: 6.00 Build 0)  -->
<svg version="1.1" id="Layer_1" xmlns="http://www.w3.org/2000/svg" xmlns:xlink="http://www.w3.org/1999/xlink" x="0px" y="0px"
	 viewBox="0 0 40 40" style="enable-background:new 0 0 40 40;" xml:space="preserve">
<style type="text/css">
	.st0{fill:#434343;}
	.st1{fill:#545454;}
	.st2{fill:#CCEAF4;}
	.st3{fill:#474B51;}
	.st4{fill:#7C7D7D;}
	.st5{fill:#292C2F;}
	.st6{fill:#101213;}
	.st7{fill:#8E8F90;}
	.st8{fill:#2D3034;}
	.st9{fill:#1D2022;}
	.st10{fill:#CBCBCB;}
	.st11{fill:#3B3E43;}
	.st12{fill:#646666;}
	.st13{fill:#242629;}
	.st14{fill:#727474;}
	.st15{fill:#27292D;}
	.st16{fill:#1A1D1F;}
</style>
<path class="st0" d="M1.4,18.1l19,16.9l17.7-12v-1.8L1.4,16.4L1.4,18.1z"/>
<path class="st1" d="M20.5,31.2L3.3,16.4L18.9,6.4L36.3,21L20.5,31.2z"/>
<path class="st2" d="M18.8,7.7L5.1,16.6l15.5,13.3l13.9-9L18.8,7.7 M19,5l19.1,16.1L20.4,32.6l-19-16.3L19,5z"/>
<path class="st2" d="M7.4,16.1c0,0.1,0,0.3-0.1,0.4c0,0.1-0.1,0.3-0.2,0.4C7.1,17,7,17.1,6.9,17.3c-0.1,0.1-0.3,0.2-0.4,0.3
	c-0.2,0.1-0.3,0.2-0.5,0.3C5.8,18,5.6,18,5.4,18.1S5,18.2,4.8,18.2c-0.2,0-0.4,0-0.6,0c-0.2,0-0.4,0-0.6,0c-0.2,0-0.4-0.1-0.6-0.1
	S2.5,18,2.3,17.9c-0.2-0.1-0.3-0.2-0.5-0.3c-0.2-0.1-0.3-0.2-0.4-0.3c-0.1-0.1-0.2-0.2-0.3-0.4C1.1,16.8,1,16.6,1,16.5
	c0-0.1-0.1-0.3-0.1-0.4c0-0.1,0-0.3,0.1-0.4c0-0.1,0.1-0.3,0.2-0.4c0.1-0.1,0.2-0.3,0.3-0.4c0.1-0.1,0.3-0.2,0.4-0.3
	c0.2-0.1,0.3-0.2,0.5-0.3c0.2-0.1,0.4-0.1,0.6-0.2s0.4-0.1,0.6-0.1c0.2,0,0.4,0,0.6,0c0.2,0,0.4,0,0.6,0C5,13.9,5.2,14,5.4,14
	s0.4,0.1,0.6,0.2c0.2,0.1,0.3,0.2,0.5,0.3c0.2,0.1,0.3,0.2,0.4,0.3C7,15,7.1,15.1,7.2,15.2c0.1,0.1,0.1,0.3,0.2,0.4
	C7.4,15.8,7.4,15.9,7.4,16.1z"/>
<path class="st2" d="M21.6,7.3c0,0.1,0,0.3-0.1,0.4c0,0.1-0.1,0.3-0.2,0.4c-0.1,0.1-0.2,0.3-0.3,0.4c-0.1,0.1-0.3,0.2-0.4,0.3
	c-0.2,0.1-0.3,0.2-0.5,0.3c-0.2,0.1-0.4,0.1-0.6,0.2c-0.2,0.1-0.4,0.1-0.6,0.1c-0.2,0-0.4,0-0.6,0c-0.2,0-0.4,0-0.6,0
	c-0.2,0-0.4-0.1-0.6-0.1c-0.2-0.1-0.4-0.1-0.6-0.2C16.4,9.1,16.2,9,16,8.9c-0.2-0.1-0.3-0.2-0.4-0.3c-0.1-0.1-0.2-0.2-0.3-0.4
	c-0.1-0.1-0.1-0.3-0.2-0.4c0-0.1-0.1-0.3-0.1-0.4c0-0.1,0-0.3,0.1-0.4c0-0.1,0.1-0.3,0.2-0.4c0.1-0.1,0.2-0.3,0.3-0.4
	C15.8,6,15.9,5.9,16,5.8c0.2-0.1,0.3-0.2,0.5-0.3c0.2-0.1,0.4-0.1,0.6-0.2c0.2-0.1,0.4-0.1,0.6-0.1c0.2,0,0.4,0,0.6,0
	c0.2,0,0.4,0,0.6,0c0.2,0,0.4,0.1,0.6,0.1c0.2,0.1,0.4,0.1,0.6,0.2c0.2,0.1,0.3,0.2,0.5,0.3C20.8,5.9,21,6,21.1,6.1
	c0.1,0.1,0.2,0.2,0.3,0.4c0.1,0.1,0.1,0.3,0.2,0.4C21.6,7,21.6,7.2,21.6,7.3z"/>
<path class="st2" d="M39.1,21.5c0,0.1,0,0.3-0.1,0.4c0,0.1-0.1,0.3-0.2,0.4c-0.1,0.1-0.2,0.3-0.3,0.4c-0.1,0.1-0.3,0.2-0.4,0.3
	c-0.2,0.1-0.3,0.2-0.5,0.3c-0.2,0.1-0.4,0.1-0.6,0.2c-0.2,0.1-0.4,0.1-0.6,0.1c-0.2,0-0.4,0-0.6,0c-0.2,0-0.4,0-0.6,0
	c-0.2,0-0.4-0.1-0.6-0.1c-0.2-0.1-0.4-0.1-0.6-0.2c-0.2-0.1-0.3-0.2-0.5-0.3c-0.2-0.1-0.3-0.2-0.4-0.3c-0.1-0.1-0.2-0.2-0.3-0.4
	c-0.1-0.1-0.1-0.3-0.2-0.4c0-0.1-0.1-0.3-0.1-0.4c0-0.1,0-0.3,0.1-0.4c0-0.1,0.1-0.3,0.2-0.4c0.1-0.1,0.2-0.3,0.3-0.4
	c0.1-0.1,0.3-0.2,0.4-0.3c0.2-0.1,0.3-0.2,0.5-0.3c0.2-0.1,0.4-0.1,0.6-0.2c0.2-0.1,0.4-0.1,0.6-0.1c0.2,0,0.4,0,0.6,0
	c0.2,0,0.4,0,0.6,0c0.2,0,0.4,0.1,0.6,0.1c0.2,0.1,0.4,0.1,0.6,0.2c0.2,0.1,0.3,0.2,0.5,0.3c0.2,0.1,0.3,0.2,0.4,0.3
	c0.1,0.1,0.2,0.2,0.3,0.4c0.1,0.1,0.1,0.3,0.2,0.4C39.1,21.2,39.1,21.4,39.1,21.5z"/>
<path class="st2" d="M23.8,31.3c0,0.1,0,0.3-0.1,0.4c0,0.1-0.1,0.3-0.2,0.4c-0.1,0.1-0.2,0.3-0.3,0.4s-0.3,0.2-0.4,0.3
	c-0.2,0.1-0.3,0.2-0.5,0.3c-0.2,0.1-0.4,0.1-0.6,0.2c-0.2,0.1-0.4,0.1-0.6,0.1c-0.2,0-0.4,0-0.6,0c-0.2,0-0.4,0-0.6,0
	c-0.2,0-0.4-0.1-0.6-0.1s-0.4-0.1-0.6-0.2c-0.2-0.1-0.3-0.2-0.5-0.3c-0.2-0.1-0.3-0.2-0.4-0.3c-0.1-0.1-0.2-0.2-0.3-0.4
	c-0.1-0.1-0.1-0.3-0.2-0.4c0-0.1-0.1-0.3-0.1-0.4s0-0.3,0.1-0.4c0-0.1,0.1-0.3,0.2-0.4c0.1-0.1,0.2-0.3,0.3-0.4
	c0.1-0.1,0.3-0.2,0.4-0.3c0.2-0.1,0.3-0.2,0.5-0.3c0.2-0.1,0.4-0.1,0.6-0.2c0.2-0.1,0.4-0.1,0.6-0.1c0.2,0,0.4,0,0.6,0
	c0.2,0,0.4,0,0.6,0c0.2,0,0.4,0.1,0.6,0.1c0.2,0.1,0.4,0.1,0.6,0.2c0.2,0.1,0.3,0.2,0.5,0.3c0.2,0.1,0.3,0.2,0.4,0.3
	s0.2,0.2,0.3,0.4c0.1,0.1,0.1,0.3,0.2,0.4C23.8,31.1,23.8,31.2,23.8,31.3z"/>
<g>
	<g>
		<path class="st3" d="M17.7,8.6c-0.6,0.1-4.8,1.3-5.1,1.6c-0.3,0.3-1.4,2.5-1.4,2.6c-0.1,0.1,0.2,2.4,0.2,2.5
			c0,0.1,2.3,6.2,2.4,6.3c0.1,0.1,0.9,0.8,0.9,1c0,0.1,4.4,1.3,4.4,1.3s3.4,0,3.5,0c0.1,0,3.5-0.9,3.5-0.9s2.6-5.6,2.6-5.7
			c-0.1-0.1-2.6-4.9-2.8-4.9c-0.2-0.1-4.1-3-4.2-3.1C21.5,9.2,17.7,8.6,17.7,8.6"/>
	</g>
</g>
<g>
	<g>
		<path class="st4" d="M26.1,23C26.1,23,26.1,23,26.1,23C26.1,23,26.1,23,26.1,23 M26.1,23C26.1,23,26.1,23,26.1,23S26.1,23,26.1,23
			 M26.1,23c0.1-0.2,2.6-5.5,2.6-5.7C28.6,17.5,26.1,22.8,26.1,23"/>
	</g>
</g>
<g>
	<g>
		<path class="st5" d="M22.6,23.7c-0.3,0-3.9-1.8-4-1.8c0,0-0.1,0-0.2,0c0.5-1.1,0.9-2,0.9-2l-0.7-1.8c0,0,0,0,0,0
			c0.1,0,0.4-0.4,0.8-0.7c0,0,0.1-0.1,0.1-0.1l0.7-0.7c0,0,0,0,0.1,0c0.1,0,0.3,0,0.5,0c0.2,0,0.4,0,0.6,0c0.2,0,0.4,0,0.5,0
			c0.1,0.1,3.1,2.6,3.1,2.6L24.5,22C24.5,22,22.8,23.6,22.6,23.7C22.6,23.7,22.6,23.7,22.6,23.7"/>
	</g>
</g>
<g>
	<g>
		<path class="st6" d="M24.5,22c0,0-1.7,1.7-1.9,1.7c-0.2,0-3.9-1.8-4-1.8c-0.1,0-3.8-0.5-4.9-0.6c0.1,0.1,0.1,0.2,0.1,0.2
			c0.1,0.1,0.9,0.8,0.9,1c0,0.1,4.4,1.3,4.4,1.3s3.4,0,3.5,0c0.1,0,3.5-0.9,3.5-0.9s2.6-5.6,2.6-5.7l-3.8,2.1L24.5,22"/>
	</g>
</g>
<path class="st7" d="M15.3,22.8L15.3,22.8 M15.3,22.8c-0.4-0.1-0.7-0.2-0.7-0.2v0h0c0,0,0,0,0,0v0h0v0c0,0,0,0,0,0c0,0,0,0,0,0h0
	c0,0,0,0,0,0h0v0h0c0,0,0,0,0,0h0v0c0,0,0,0,0,0v0c0,0,0,0,0,0h0c0,0,0,0,0,0c0,0,0,0,0,0v0c0,0,0,0,0,0h0v0c0,0,0,0,0,0
	c0,0,0,0,0,0s0,0,0,0s0,0,0,0c0,0,0,0,0,0c0,0,0,0,0,0C14.8,22.6,15,22.7,15.3,22.8"/>
<path class="st8" d="M16,23c-0.2-0.1-0.4-0.1-0.6-0.2c-0.3-0.1-0.6-0.2-0.6-0.2c0.1,0,0.3,0.1,0.6,0.2C15.5,22.8,15.7,22.9,16,23
	 M14.7,22.6L14.7,22.6 M14.7,22.6C14.7,22.6,14.7,22.6,14.7,22.6C14.7,22.6,14.7,22.6,14.7,22.6 M14.7,22.6L14.7,22.6 M14.7,22.6
	L14.7,22.6 M14.7,22.6C14.7,22.6,14.7,22.6,14.7,22.6C14.7,22.6,14.7,22.6,14.7,22.6 M14.7,22.6L14.7,22.6 M14.7,22.6
	C14.7,22.6,14.7,22.6,14.7,22.6S14.7,22.6,14.7,22.6 M14.7,22.6L14.7,22.6 M14.7,22.6L14.7,22.6 M14.7,22.6L14.7,22.6 M14.7,22.6
	C14.7,22.6,14.7,22.6,14.7,22.6S14.7,22.6,14.7,22.6 M14.7,22.6L14.7,22.6 M14.7,22.6L14.7,22.6 M14.7,22.6L14.7,22.6 M14.7,22.6
	C14.7,22.6,14.7,22.6,14.7,22.6L14.7,22.6 M14.7,22.6L14.7,22.6 M14.7,22.6L14.7,22.6 M14.7,22.6L14.7,22.6L14.7,22.6 M14.7,22.6
	L14.7,22.6C14.7,22.6,14.7,22.6,14.7,22.6 M14.7,22.6L14.7,22.6 M14.7,22.6L14.7,22.6 M14.7,22.6L14.7,22.6 M14.7,22.6L14.7,22.6
	 M14.7,22.6C14.7,22.6,14.7,22.6,14.7,22.6L14.7,22.6 M14.7,22.6L14.7,22.6L14.7,22.6 M14.7,22.6L14.7,22.6 M14.7,22.6L14.7,22.6
	 M14.7,22.6L14.7,22.6 M14.7,22.6L14.7,22.6 M14.7,22.6L14.7,22.6 M14.7,22.6L14.7,22.6 M14.7,22.6C14.7,22.6,14.7,22.6,14.7,22.6
	L14.7,22.6 M14.7,22.6L14.7,22.6L14.7,22.6 M14.7,22.6L14.7,22.6 M14.7,22.6L14.7,22.6 M14.7,22.6L14.7,22.6 M14.7,22.6L14.7,22.6
	 M14.7,22.6L14.7,22.6 M14.7,22.6L14.7,22.6 M14.7,22.6L14.7,22.6 M14.7,22.6L14.7,22.6 M14.7,22.6L14.7,22.6 M14.7,22.6L14.7,22.6
	L14.7,22.6 M14.7,22.6L14.7,22.6 M14.7,22.6L14.7,22.6 M14.7,22.6L14.7,22.6 M14.7,22.6L14.7,22.6 M14.7,22.6L14.7,22.6 M14.7,22.6
	L14.7,22.6 M14.7,22.6L14.7,22.6 M14.7,22.6L14.7,22.6 M14.7,22.6L14.7,22.6 M14.7,22.6L14.7,22.6 M14.7,22.5L14.7,22.5 M14.7,22.5
	L14.7,22.5 M14.7,22.5L14.7,22.5 M14.7,22.5L14.7,22.5 M14.7,22.5L14.7,22.5L14.7,22.5 M14.7,22.5L14.7,22.5 M14.7,22.5L14.7,22.5
	 M14.7,22.5L14.7,22.5 M14.7,22.5L14.7,22.5 M14.7,22.5L14.7,22.5 M14.7,22.5L14.7,22.5 M14.7,22.5L14.7,22.5 M14.7,22.5L14.7,22.5
	 M14.7,22.5L14.7,22.5"/>
<path class="st9" d="M18.3,21.9C18.3,21.9,18.3,21.9,18.3,21.9l0.9-2C19.2,19.9,18.8,20.8,18.3,21.9"/>
<path class="st8" d="M13.8,21.6L13.8,21.6 M13.8,21.6L13.8,21.6 M13.8,21.6C13.8,21.6,13.8,21.6,13.8,21.6
	C13.8,21.6,13.8,21.6,13.8,21.6 M13.8,21.6L13.8,21.6 M13.8,21.6L13.8,21.6L13.8,21.6 M13.8,21.6L13.8,21.6 M13.8,21.6
	C13.8,21.6,13.8,21.6,13.8,21.6C13.8,21.5,13.8,21.5,13.8,21.6C13.8,21.5,13.8,21.5,13.8,21.6C13.8,21.6,13.8,21.6,13.8,21.6"/>
<path class="st6" d="M17.6,23.4c-0.5-0.1-1.1-0.3-1.6-0.5c-0.3-0.1-0.5-0.1-0.7-0.2C15.9,23,16.8,23.2,17.6,23.4l0.7-1.5
	c0,0,0,0,0,0C18.1,22.4,17.8,22.9,17.6,23.4 M14.7,22.5L14.7,22.5 M14.7,22.5L14.7,22.5 M14.7,22.5L14.7,22.5 M14.7,22.5L14.7,22.5
	 M14.7,22.5C14.7,22.5,14.7,22.5,14.7,22.5S14.7,22.5,14.7,22.5 M14.7,22.5L14.7,22.5 M14.7,22.5L14.7,22.5 M14.7,22.5L14.7,22.5
	 M14.7,22.5L14.7,22.5 M14.7,22.5L14.7,22.5L14.7,22.5 M14.7,22.5L14.7,22.5 M14.7,22.5L14.7,22.5 M14.7,22.5L14.7,22.5 M14.7,22.5
	L14.7,22.5L14.7,22.5 M14.7,22.5L14.7,22.5 M14.7,22.5L14.7,22.5L14.7,22.5 M14.7,22.5C14.7,22.5,14.7,22.5,14.7,22.5
	C14.7,22.5,14.7,22.5,14.7,22.5 M14.7,22.5L14.7,22.5L14.7,22.5 M14.7,22.5L14.7,22.5 M14.7,22.5L14.7,22.5 M14.7,22.5L14.7,22.5
	C14.7,22.5,14.7,22.5,14.7,22.5 M14.7,22.5L14.7,22.5 M14.7,22.5L14.7,22.5 M14.7,22.5L14.7,22.5 M14.7,22.5L14.7,22.5 M14.7,22.5
	L14.7,22.5 M13.8,21.5L13.8,21.5 M13.8,21.5C13.8,21.5,13.8,21.5,13.8,21.5c0,0,0-0.1-0.1-0.2C13.7,21.5,13.7,21.5,13.8,21.5
	 M13.7,21.4C13.7,21.4,13.7,21.4,13.7,21.4C13.7,21.4,13.7,21.4,13.7,21.4 M13.7,21.4C13.7,21.4,13.7,21.4,13.7,21.4
	C13.7,21.4,13.7,21.4,13.7,21.4 M13.7,21.4L13.7,21.4 M13.7,21.4C13.7,21.4,13.7,21.4,13.7,21.4S13.7,21.4,13.7,21.4"/>
<g>
	<g>
		<path class="st10" d="M12.6,10.2c0.2-0.2,2.8-0.9,4.2-1.3C15.4,9.2,12.8,10,12.6,10.2 M17.7,8.6C17.7,8.6,17.7,8.6,17.7,8.6
			C17.7,8.6,17.7,8.6,17.7,8.6"/>
	</g>
</g>
<g>
	<g>
		<path class="st11" d="M18.6,18.2c-0.1-0.1-4.9-1.7-4.9-1.7s-0.9-3-0.9-3.1c0-0.1-0.1-3.2-0.1-3.2c0.2-0.2,2.8-0.9,4.2-1.3
			c0.4-0.1,0.8-0.2,0.9-0.2c0,0,0,0,0,0c0,0,0,0,0.1,0c0,1.3-0.2,4.6-0.1,4.7c0,0.1,2.5,3.4,2.5,3.4h0c-0.1,0-0.4,0.3-0.7,0.7
			L18.6,18.2"/>
	</g>
</g>
<g>
	<g>
		<path class="st12" d="M12.6,18.4c-0.6-1.5-1.1-3.1-1.2-3.1c0,0-0.1-0.5-0.1-1.1c0.1,0.5,0.1,1,0.1,1.1
			C11.4,15.3,12,16.9,12.6,18.4 M12.6,10.2C12.6,10.2,12.6,10.2,12.6,10.2C12.6,10.2,12.6,10.2,12.6,10.2"/>
	</g>
</g>
<g>
	<g>
		<path class="st13" d="M13.8,21.6L13.8,21.6 M13.8,21.6L13.8,21.6 M13.8,21.6C13.8,21.6,13.8,21.6,13.8,21.6
			C13.8,21.6,13.8,21.6,13.8,21.6 M13.8,21.6L13.8,21.6 M13.8,21.6L13.8,21.6 M13.8,21.6L13.8,21.6 M13.7,21.3
			c-0.2-0.5-0.7-1.7-1.1-2.9c-0.6-1.5-1.1-3.1-1.2-3.1c0,0-0.1-0.5-0.1-1.1c-0.1-0.5-0.1-1.1-0.1-1.3c0,0,0-0.1,0-0.1
			c0-0.1,1.1-2.1,1.4-2.5c0,0,0,0,0,0c0,0,0,0,0,0c0,0,0.1,3.1,0.1,3.2c0,0.1,0.9,3.1,0.9,3.1s4.9,1.7,4.9,1.7l-4.9-1.7l-1.5,1.1
			C12.8,19,13.4,20.7,13.7,21.3 M19.4,17.4c0.3-0.3,0.6-0.7,0.7-0.7h0L19.4,17.4"/>
	</g>
</g>
<path class="st6" d="M13.8,21.6L13.8,21.6 M13.8,21.6L13.8,21.6 M13.8,21.6L13.8,21.6 M13.8,21.6C13.8,21.6,13.8,21.6,13.8,21.6
	C13.8,21.6,13.8,21.6,13.8,21.6 M13.7,21.4L13.7,21.4 M13.7,21.4L13.7,21.4 M13.7,21.4L13.7,21.4 M13.7,21.4
	C13.7,21.4,13.7,21.4,13.7,21.4C13.7,21.4,13.7,21.4,13.7,21.4 M13.7,21.4C13.7,21.4,13.7,21.3,13.7,21.4
	C13.7,21.3,13.7,21.4,13.7,21.4"/>
<path class="st14" d="M14.7,22.6L14.7,22.6 M14.7,22.6L14.7,22.6 M14.7,22.6L14.7,22.6 M14.7,22.6L14.7,22.6 M14.7,22.6L14.7,22.6
	 M14.7,22.6C14.7,22.6,14.7,22.6,14.7,22.6C14.7,22.6,14.7,22.6,14.7,22.6 M14.7,22.6L14.7,22.6 M14.7,22.6L14.7,22.6 M14.7,22.6
	L14.7,22.6 M14.7,22.6L14.7,22.6 M14.7,22.6L14.7,22.6 M14.7,22.6L14.7,22.6 M14.7,22.6L14.7,22.6 M14.7,22.6L14.7,22.6 M14.7,22.6
	L14.7,22.6 M14.7,22.6L14.7,22.6 M14.7,22.6L14.7,22.6 M14.7,22.6L14.7,22.6 M14.7,22.6L14.7,22.6 M14.7,22.6L14.7,22.6 M14.7,22.6
	L14.7,22.6 M14.7,22.6C14.7,22.6,14.7,22.6,14.7,22.6S14.7,22.6,14.7,22.6 M14.7,22.6L14.7,22.6 M14.7,22.6L14.7,22.6 M14.7,22.6
	L14.7,22.6 M14.7,22.6L14.7,22.6 M14.7,22.6L14.7,22.6 M14.7,22.6L14.7,22.6 M14.7,22.6L14.7,22.6 M14.7,22.6L14.7,22.6 M14.7,22.6
	L14.7,22.6 M14.7,22.6C14.7,22.6,14.7,22.6,14.7,22.6L14.7,22.6 M14.7,22.6L14.7,22.6L14.7,22.6 M14.7,22.6L14.7,22.6 M14.7,22.6
	C14.7,22.6,14.7,22.6,14.7,22.6S14.7,22.6,14.7,22.6 M14.7,22.6L14.7,22.6 M14.7,22.6L14.7,22.6 M14.7,22.6L14.7,22.6L14.7,22.6
	 M14.7,22.6L14.7,22.6 M14.7,22.6L14.7,22.6 M14.7,22.6L14.7,22.6 M14.7,22.6L14.7,22.6 M14.7,22.6L14.7,22.6 M14.7,22.6L14.7,22.6
	 M14.7,22.6L14.7,22.6 M14.7,22.6C14.7,22.6,14.7,22.6,14.7,22.6C14.7,22.6,14.7,22.6,14.7,22.6 M14.7,22.6L14.7,22.6 M14.7,22.6
	L14.7,22.6 M14.7,22.6L14.7,22.6 M14.7,22.6L14.7,22.6 M14.7,22.6L14.7,22.6 M14.7,22.6L14.7,22.6C14.7,22.6,14.7,22.6,14.7,22.6
	 M14.7,22.6L14.7,22.6 M14.7,22.6L14.7,22.6L14.7,22.6 M14.7,22.5L14.7,22.5 M14.7,22.5L14.7,22.5 M14.7,22.5L14.7,22.5 M14.7,22.5
	L14.7,22.5 M14.7,22.5L14.7,22.5 M14.7,22.5L14.7,22.5 M14.7,22.5L14.7,22.5 M14.7,22.5L14.7,22.5 M14.7,22.5
	C14.7,22.5,14.7,22.5,14.7,22.5C14.7,22.5,14.7,22.5,14.7,22.5 M14.7,22.5L14.7,22.5 M14.7,22.5L14.7,22.5 M14.7,22.5L14.7,22.5
	 M14.7,22.5L14.7,22.5L14.7,22.5 M14.7,22.5L14.7,22.5 M14.7,22.5L14.7,22.5 M14.7,22.5L14.7,22.5 M14.7,22.5
	C14.7,22.5,14.7,22.5,14.7,22.5S14.7,22.5,14.7,22.5 M14.7,22.5L14.7,22.5 M14.7,22.5L14.7,22.5 M14.7,22.5L14.7,22.5 M14.7,22.5
	L14.7,22.5 M14.7,22.5L14.7,22.5 M14.7,22.5L14.7,22.5 M14.7,22.5L14.7,22.5"/>
<path class="st15" d="M15.3,22.8c-0.3-0.1-0.5-0.2-0.6-0.2c0,0,0,0,0,0c0,0,0,0,0,0c0,0,0,0,0,0s0,0,0,0s0,0,0,0h0v0c0,0,0,0,0,0h0
	v0c0,0,0,0,0,0v0h0h0v0c0,0,0,0,0,0v0h0c0,0,0,0,0,0c0,0,0,0,0,0v0h0c0,0,0,0,0,0C14.7,22.6,14.9,22.7,15.3,22.8 M14.7,22.5
	L14.7,22.5L14.7,22.5 M14.7,22.5L14.7,22.5 M14.7,22.5C14.7,22.5,14.7,22.5,14.7,22.5S14.7,22.5,14.7,22.5 M14.7,22.5L14.7,22.5"/>
<path class="st16" d="M18.3,21.9c-0.8-0.1-3.8-0.5-4.6-0.6c-0.3-0.6-0.9-2.4-1.5-3.8l1.5-1.1l4.9,1.7l0.7,1.8L18.3,21.9"/>
<path class="st16" d="M13.8,21.6C13.8,21.6,13.8,21.6,13.8,21.6L13.8,21.6C13.8,21.6,13.8,21.6,13.8,21.6
	C13.8,21.6,13.8,21.6,13.8,21.6 M13.8,21.5C13.8,21.5,13.8,21.5,13.8,21.5L13.8,21.5"/>
<path class="st6" d="M17.6,23.4c-0.8-0.2-1.7-0.5-2.3-0.7c-0.3-0.1-0.6-0.2-0.6-0.2h0c0,0,0,0,0,0c0,0,0,0,0,0v0h0v0c0,0,0,0,0,0h0
	c0,0,0,0,0,0c0-0.1-0.8-0.8-0.9-1c0,0,0,0,0,0c0,0,0,0,0,0v0c0,0,0-0.1-0.1-0.2c0,0,0,0,0,0c0,0,0,0,0,0c0,0,0,0,0,0c0,0,0,0,0,0
	c0,0,0,0,0,0c0.9,0.1,3.8,0.5,4.6,0.6L17.6,23.4"/>
</svg>
