<?xml version="1.0" encoding="UTF-8" standalone="no"?><!DOCTYPE svg PUBLIC "-//W3C//DTD SVG 1.1//EN" "http://www.w3.org/Graphics/SVG/1.1/DTD/svg11.dtd"><svg width="100%" height="100%" viewBox="0 0 64 64" version="1.1" xmlns="http://www.w3.org/2000/svg" xmlns:xlink="http://www.w3.org/1999/xlink" xml:space="preserve" xmlns:serif="http://www.serif.com/" style="fill-rule:evenodd;clip-rule:evenodd;stroke-linejoin:round;stroke-miterlimit:2;"><g id="brown"></g><g id="blue"><path d="M10,14.488C9.098,13.911 8.5,12.9 8.5,11.75C8.5,9.956 9.956,8.5 11.75,8.5C12.9,8.5 13.911,9.098 14.488,10L49.512,10C50.089,9.098 51.1,8.5 52.25,8.5C54.044,8.5 55.5,9.956 55.5,11.75C55.5,12.9 54.902,13.911 54,14.488L54,49.512C54.902,50.089 55.5,51.1 55.5,52.25C55.5,54.044 54.044,55.5 52.25,55.5C51.1,55.5 50.089,54.902 49.512,54L14.488,54C13.911,54.902 12.9,55.5 11.75,55.5C9.956,55.5 8.5,54.044 8.5,52.25C8.5,51.1 9.098,50.089 10,49.512L10,14.488ZM49.087,12.5L14.913,12.5C14.631,13.692 13.692,14.631 12.5,14.913L12.5,49.087C13.692,49.369 14.631,50.308 14.913,51.5L49.087,51.5C49.369,50.308 50.308,49.369 51.5,49.087L51.5,14.913C50.308,14.631 49.369,13.692 49.087,12.5Z" style="fill:#d1f8fd;"/></g><g id="grey"><path d="M49.087,12.5C49.369,13.692 50.308,14.631 51.5,14.913L51.5,49.087C50.308,49.369 49.369,50.308 49.087,51.5L14.913,51.5C14.631,50.308 13.692,49.369 12.5,49.087L12.5,14.913C13.692,14.631 14.631,13.692 14.913,12.5L49.087,12.5Z" style="fill:#6e6e6e;"/><path d="M41.019,36.337L41.033,36.257C41.033,36.257 36.195,32.226 36.034,32.064L33.44,32C32.614,30.907 29.422,26.904 29.422,26.904L29.44,19.325C29.44,19.325 35.425,20.149 35.711,20.292C35.873,20.453 42.162,25.13 42.484,25.291C42.786,25.291 46.34,32.077 46.924,33.074L41.019,36.337ZM46.962,33.138C46.981,33.168 46.993,33.187 47,33.193C46.944,33.305 46.828,33.471 46.962,33.138Z" style="fill:#474b51;"/><path d="M37.163,43.514C37.163,43.514 30.873,40.611 30.712,40.611L31.841,37.386L30.712,34.483L30.712,34.61C30.873,34.61 33.41,31.96 33.41,31.96C33.41,31.96 35.873,32.064 36.034,32.064C36.195,32.226 41.033,36.257 41.033,36.257L40.227,40.773" style="fill:#2e2e2e;fill-rule:nonzero;"/><path d="M42.807,42.224C42.807,41.901 46.763,33.397 46.924,33.074C47.099,33.432 43.112,41.93 42.807,42.224Z" style="fill:#7c7d7d;"/><path d="M30.762,34.61C30.6,34.449 22.81,31.742 22.81,31.742L21.359,26.743L21.44,21.654C21.606,21.488 23.53,20.944 25.62,20.366C27.597,19.82 29.505,19.325 29.583,19.325C29.583,21.421 29.422,26.904 29.422,26.904L33.454,32" style="fill:#444;fill-rule:nonzero;"/><path d="M19.263,29.645L18.94,27.872L18.94,25.614C18.94,25.453 20.956,22.299 21.44,21.654L21.359,26.743L22.81,31.742L20.391,33.516" style="fill:#242629;fill-rule:nonzero;"/><path d="M30.712,40.611C29.421,40.45 24.1,39.805 22.81,39.644C22.327,38.676 21.359,35.773 20.391,33.516L22.81,31.742L30.762,34.61L31.841,37.386L30.712,40.611Z" style="fill:#131313;fill-rule:nonzero;"/></g><g id="black"><path d="M22.81,39.644C24.584,39.805 30.551,40.611 30.712,40.611C30.873,40.611 37.163,43.514 37.163,43.514L40.227,40.773L41.033,36.329L46.924,33.074C46.924,33.115 42.807,42.224 42.807,42.224C42.807,42.224 37.324,43.675 37.163,43.675L31.519,43.675C31.519,43.675 30.432,43.379 29.11,43.009L29.1,43.03C28.203,42.806 27.229,42.504 26.393,42.233C25.277,41.905 24.423,41.635 24.423,41.579C24.423,41.418 22.972,39.805 22.81,39.644Z"/></g></svg>