<?xml version="1.0" encoding="UTF-8"?><svg id="a" xmlns="http://www.w3.org/2000/svg" viewBox="0 0 50.93 55.79"><defs><style>.b{fill:#865b4e;}</style></defs><path class="b" d="M17.37,7.03c-.69,0-1.01-.74-.9-1.67,.06-.57,.49-.7,.89-.7,.35,0,.68,.1,.68,.1,.3,.07,.49,.61,.7,1.07,.21,.46-.12,.88-1.04,1.15-.12,.03-.23,.05-.33,.05"/><path class="b" d="M5.99,29.13c-.69,0-1.01-.75-.9-1.68,.06-.57,.49-.7,.89-.7,.35,0,.68,.1,.68,.1,.3,.08,.48,.61,.7,1.07,.21,.46-.12,.88-1.04,1.15-.12,.04-.23,.05-.33,.05"/><path class="b" d="M38.97,16.4c-.69,0-1.01-.75-.9-1.68,.06-.57,.49-.7,.89-.7,.35,0,.68,.1,.68,.1,.3,.08,.48,.61,.7,1.07,.21,.46-.12,.88-1.04,1.15-.12,.04-.23,.05-.33,.05"/><path class="b" d="M45.86,44.16c-.69,0-1.01-.75-.9-1.68,.06-.57,.49-.7,.89-.7,.35,0,.68,.11,.68,.11,.3,.07,.49,.6,.7,1.07s-.12,.88-1.04,1.15c-.12,.04-.23,.05-.33,.05"/><path class="b" d="M39.12,49.55c-.69,0-1.01-.74-.9-1.67,.06-.57,.49-.7,.89-.7,.35,0,.68,.1,.68,.1,.3,.07,.48,.61,.7,1.07,.21,.46-.12,.88-1.04,1.15-.12,.03-.23,.05-.33,.05"/><path class="b" d="M10.81,50.27c-.69,0-1.01-.74-.9-1.67,.06-.57,.49-.7,.89-.7,.36,0,.68,.11,.68,.11,.3,.07,.49,.6,.7,1.07s-.12,.88-1.04,1.15c-.12,.03-.23,.05-.33,.05"/><path class="b" d="M18.15,9.2c-.31,0-.72-.33-.76-.6-.05-.4,.65-.4,.65-.4h.04c.21,0,.52,.19,.38,.74-.05,.18-.17,.25-.31,.25"/><path class="b" d="M9.63,27.51c-.31,0-.72-.33-.76-.6-.05-.4,.66-.4,.66-.4h.03c.21,0,.52,.19,.38,.74-.05,.19-.17,.26-.31,.26"/><path class="b" d="M10.42,46.47c-.31,0-.72-.33-.75-.6-.06-.4,.65-.4,.65-.4h.03c.21,0,.52,.19,.38,.74-.05,.18-.17,.25-.31,.25"/><path class="b" d="M35.82,50.5c-.3,0-.71-.33-.75-.6-.05-.4,.65-.4,.65-.4h.03c.21,0,.53,.19,.38,.74-.05,.18-.17,.25-.31,.25"/><path class="b" d="M43.62,41.91c-.31,0-.72-.33-.76-.6-.05-.4,.65-.4,.65-.4,.01,0,.02,0,.04,0,.21,0,.52,.19,.38,.75-.05,.18-.17,.25-.31,.25"/><path class="b" d="M40.92,20.35c-.31,0-.71-.33-.75-.6-.05-.4,.65-.4,.65-.4h.03c.21,0,.52,.19,.38,.74-.05,.19-.17,.26-.31,.26"/><path class="b" d="M25.72,7.05c-.3,0-.71-.33-.75-.6-.06-.4,.65-.4,.65-.4h.03c.21,0,.52,.19,.38,.74-.05,.19-.17,.26-.31,.26"/><path class="b" d="M43.89,19.28s-.04,0-.05,0c-.33-.11-.15-.52-.06-.64,.02-.03,.04-.04,.07-.04,.09,0,.22,.14,.22,.14,.31,.37-.01,.54-.18,.54"/><path class="b" d="M39.33,11.82s-.04,0-.05,0c-.34-.11-.16-.52-.07-.64,.02-.03,.05-.04,.07-.04,.1,0,.22,.14,.22,.14,.3,.38-.02,.55-.18,.55"/><path class="b" d="M23.75,3.12s-.04,0-.05,0c-.34-.11-.16-.52-.07-.64,.02-.03,.05-.04,.07-.04,.1,0,.22,.14,.22,.14,.3,.38-.02,.55-.18,.55"/><path class="b" d="M14.35,8.02s-.04,0-.05-.01c-.34-.1-.15-.51-.06-.64,.02-.03,.04-.04,.07-.04,.09,0,.22,.14,.22,.14,.31,.38-.01,.55-.18,.55"/><path class="b" d="M6.01,23.42s-.04,0-.05,0c-.34-.11-.16-.52-.06-.64,.02-.03,.04-.04,.07-.04,.1,0,.22,.14,.22,.14,.3,.37-.02,.54-.18,.54"/><path class="b" d="M4.04,29.75s-.04,0-.05,0c-.34-.11-.15-.52-.06-.64,.02-.03,.04-.04,.07-.04,.09,0,.22,.14,.22,.14,.3,.38-.01,.54-.18,.54"/><path class="b" d="M5.82,45.6s-.04,0-.05,0c-.34-.11-.15-.52-.06-.64,.02-.03,.04-.04,.07-.04,.1,0,.22,.14,.22,.14,.3,.38-.02,.55-.18,.55"/><path class="b" d="M13.69,55.79s-.04,0-.05,0c-.34-.11-.16-.52-.07-.64,.02-.03,.05-.04,.07-.04,.1,0,.22,.14,.22,.14,.3,.37-.02,.54-.18,.54"/><path class="b" d="M8.69,51.01s-.04,0-.05,0c-.34-.11-.15-.52-.06-.64,.02-.03,.04-.04,.07-.04,.09,0,.22,.14,.22,.14,.31,.37-.01,.54-.18,.54"/><path class="b" d="M33.06,52.91s-.03,0-.05-.01c-.34-.1-.16-.51-.06-.64,.02-.03,.04-.04,.07-.04,.1,0,.22,.14,.22,.14,.3,.38-.02,.55-.18,.55"/><path class="b" d="M37.26,53.22s-.04,0-.05,0c-.34-.1-.16-.51-.07-.64,.02-.03,.05-.04,.07-.04,.09,0,.22,.14,.22,.14,.31,.38-.01,.54-.18,.54"/><path class="b" d="M41.9,50.62s-.04,0-.05,0c-.34-.1-.15-.51-.06-.64,.02-.03,.05-.04,.07-.04,.09,0,.22,.14,.22,.14,.31,.38-.01,.54-.18,.54"/><path class="b" d="M50.63,44.69s-.04,0-.05-.01c-.34-.1-.15-.51-.06-.64,.02-.03,.05-.04,.07-.04,.09,0,.22,.14,.22,.14,.31,.38-.01,.55-.18,.55"/><path class="b" d="M42.57,14.5s-.04,0-.05-.01c-.34-.1-.16-.51-.07-.64,.02-.03,.05-.04,.07-.04,.1,0,.22,.14,.22,.14,.3,.38-.02,.55-.18,.55"/><path class="b" d="M21.06,54.84c-.05,0-.11,0-.18-.02-1.73-.33,1.13-4.7-.9-4.93-.04,0-.08,0-.11,0-.89,0-1.61,1.21-2.32,2.42-.71,1.21-1.42,2.42-2.29,2.42-.17,0-.35-.04-.53-.15-2.1-1.17,1.56-5.98,.33-7.79s-2.26-1.3-2.82-2.06c-.56-.76,.06-1.52-.61-3.17-.67-1.66-4.68-.48-5.56-3.14-1.07-3.24,.26-3.69,3.58-4.84,2.36-.82,2.17-1.81,1.37-1.89-.29-.03-.55-.05-.8-.05-.5,0-.91,.05-1.23,.12-.32,.05-.57,.11-.76,.11-.23,0-.38-.09-.45-.39-.23-.88,1.27-1.48,3.72-1.73,2.45-.25,3.86-3.62,.49-4.58-.19-.05-.38-.08-.56-.08-.47,0-.92,.15-1.32,.29-.41,.15-.76,.29-1.04,.29-.3,0-.53-.17-.64-.69-.27-1.29,1.93-1.64,4.08-1.64,1.05,0,2.09,.08,2.82,.18,.2,.03,.4,.04,.58,.04,1.78,0,2.45-1.19,2.48-1.96,.04-1.13-2.18-1.36-3.34-1.43s-3.26-1.86-1.74-2.48c.19-.08,.4-.11,.61-.11,.54,0,1.14,.2,1.7,.41,.56,.2,1.08,.41,1.48,.41,.3,0,.52-.12,.63-.43,.47-1.32-.47-1.25-1.67-4.43-.9-2.36,.2-3.09,1.28-3.09,.38,0,.75,.09,1.04,.23,.77,.37,1.58,.95,3,.95,.64,0,1.39-.12,2.31-.41,2.98-.97,3.53-3.22,4.98-3.31h.05c1.42,0,1.86,3.44,3.23,4.27,.35,.21,.69,.3,1.01,.3,.93,0,1.65-.77,1.81-1.39,.19-.74,.89-2.04,1.92-2.04,.13,0,.26,.02,.39,.06,1.24,.38,.85,2.02-.48,2.74-1.33,.72-2.26,2.32-1.45,4.18,.81,1.86,2.33,.88,2.42,2.53,.09,1.65-1.94,4.27-2.66,5.21-.58,.76,.14,1.85,1.32,1.85,.11,0,.22-.01,.35-.03,.11-.02,.21-.03,.31-.03,1.28,0,1.07,1.66-.07,1.77-1.23,.12-1.2,1.67-.79,2.39,.22,.4,.83,.52,1.55,.52s1.52-.12,2.21-.2c.08,0,.15-.01,.22-.01,1.22,0,1.56,1.31,.13,2.31-1.27,.88-2.59,.64-2.46,1.88,.27,2.44,6.93,3.05,8.44,3.05,.08,0,.14,0,.19,0,.15,0,.29-.01,.42-.01,2.14,0,3.03,1.09,2.71,2.52-.24,1.04-.92,1.44-1.72,1.44-.92,0-2.02-.52-2.8-1.15-1.48-1.19-2.03-1.99-4.68-3.01-.39-.15-.72-.22-1.02-.22-1.71,0-1.91,2.3-1.3,3.98,1.37,3.78,.77,4.98-2.03,5.96-2.79,.98-6.04,2.14-7.59,3.6-1.12,1.05-1.97,1.37-2.73,1.37-.95,0-1.74-.51-2.71-.7-.06-.01-.13-.02-.18-.02-.7,0-.76,.96-.82,1.91s-.13,1.91-.83,1.91"/><path class="b" d="M45.79,49.05c-.32,0-.82-.31-1.3-.99-1.23-1.8-1.84-3.2-2.78-4.24-.86-.96-2.64-3.34-1.88-3.34,.07,0,.15,.02,.24,.05,.63,.22,1.37,1.27,2.41,3.16s2.05,2.59,2.65,3.22c1.26,1.33,1.18,2.14,.65,2.14"/><path class="b" d="M.61,35c-.16,0-.31-.05-.44-.2-.53-.57,.31-1.31,1.02-1.31,.06,0,.12,0,.18,.02,.22,.04,.48,.07,.75,.07,.6,0,1.3-.15,2.01-.66,.58-.43,1.45-.67,2.15-.67,.53,0,.96,.14,1.11,.43,.63,1.22-.74,1.27-1.7,1.27h-.23c-.14,0-.26,0-.36,0-.78,.05-1.92,.19-2.66,.3-.58,.08-1.27,.74-1.82,.74"/><path class="b" d="M22.2,8.25c-.52,0-.79-1.26-1.28-2.43-.54-1.31-2.27-1.06-3.63-3.39-.89-1.53-.44-2.42,.19-2.42,.33,0,.71,.24,.98,.75,.8,1.49,.85,1.49,2.21,2.71s2.79,4.18,1.7,4.74c-.06,.03-.13,.05-.19,.05"/></svg>