<?xml version="1.0" encoding="UTF-8" standalone="no"?><!DOCTYPE svg PUBLIC "-//W3C//DTD SVG 1.1//EN" "http://www.w3.org/Graphics/SVG/1.1/DTD/svg11.dtd"><svg width="100%" height="100%" viewBox="0 0 64 64" version="1.1" xmlns="http://www.w3.org/2000/svg" xmlns:xlink="http://www.w3.org/1999/xlink" xml:space="preserve" xmlns:serif="http://www.serif.com/" style="fill-rule:evenodd;clip-rule:evenodd;stroke-linejoin:round;stroke-miterlimit:2;"><g id="grey"><path d="M49.087,12.5C49.369,13.692 50.308,14.631 51.5,14.913L51.5,49.087C50.308,49.369 49.369,50.308 49.087,51.5L14.913,51.5C14.631,50.308 13.692,49.369 12.5,49.087L12.5,14.913C13.692,14.631 14.631,13.692 14.913,12.5L49.087,12.5Z" style="fill:#c2bdbd;"/></g><g id="blue"><path d="M24.75,15.327L24.75,22.673C24.75,23.819 23.819,24.75 22.673,24.75L15.327,24.75C14.181,24.75 13.25,23.819 13.25,22.673L13.25,15.327C13.25,14.181 14.181,13.25 15.327,13.25L22.673,13.25C23.819,13.25 24.75,14.181 24.75,15.327ZM24.75,28.327L24.75,35.673C24.75,36.819 23.819,37.75 22.673,37.75L15.327,37.75C14.181,37.75 13.25,36.819 13.25,35.673L13.25,28.327C13.25,27.181 14.181,26.25 15.327,26.25L22.673,26.25C23.819,26.25 24.75,27.181 24.75,28.327ZM24.75,41.327L24.75,48.673C24.75,49.819 23.819,50.75 22.673,50.75L15.327,50.75C14.181,50.75 13.25,49.819 13.25,48.673L13.25,41.327C13.25,40.181 14.181,39.25 15.327,39.25L22.673,39.25C23.819,39.25 24.75,40.181 24.75,41.327ZM37.75,15.327L37.75,22.673C37.75,23.819 36.819,24.75 35.673,24.75L28.327,24.75C27.181,24.75 26.25,23.819 26.25,22.673L26.25,15.327C26.25,14.181 27.181,13.25 28.327,13.25L35.673,13.25C36.819,13.25 37.75,14.181 37.75,15.327ZM37.75,28.327L37.75,35.673C37.75,36.819 36.819,37.75 35.673,37.75L28.327,37.75C27.181,37.75 26.25,36.819 26.25,35.673L26.25,28.327C26.25,27.181 27.181,26.25 28.327,26.25L35.673,26.25C36.819,26.25 37.75,27.181 37.75,28.327ZM37.75,41.327L37.75,48.673C37.75,49.819 36.819,50.75 35.673,50.75L28.327,50.75C27.181,50.75 26.25,49.819 26.25,48.673L26.25,41.327C26.25,40.181 27.181,39.25 28.327,39.25L35.673,39.25C36.819,39.25 37.75,40.181 37.75,41.327ZM50.75,15.327L50.75,22.673C50.75,23.819 49.819,24.75 48.673,24.75L41.327,24.75C40.181,24.75 39.25,23.819 39.25,22.673L39.25,15.327C39.25,14.181 40.181,13.25 41.327,13.25L48.673,13.25C49.819,13.25 50.75,14.181 50.75,15.327ZM50.75,28.327L50.75,35.673C50.75,36.819 49.819,37.75 48.673,37.75L41.327,37.75C40.181,37.75 39.25,36.819 39.25,35.673L39.25,28.327C39.25,27.181 40.181,26.25 41.327,26.25L48.673,26.25C49.819,26.25 50.75,27.181 50.75,28.327ZM50.75,41.327L50.75,48.673C50.75,49.819 49.819,50.75 48.673,50.75L41.327,50.75C40.181,50.75 39.25,49.819 39.25,48.673L39.25,41.327C39.25,40.181 40.181,39.25 41.327,39.25L48.673,39.25C49.819,39.25 50.75,40.181 50.75,41.327Z" style="fill:#17a;"/><path d="M10,14.488C9.098,13.911 8.5,12.9 8.5,11.75C8.5,9.956 9.956,8.5 11.75,8.5C12.9,8.5 13.911,9.098 14.488,10L49.512,10C50.089,9.098 51.1,8.5 52.25,8.5C54.044,8.5 55.5,9.956 55.5,11.75C55.5,12.9 54.902,13.911 54,14.488L54,49.512C54.902,50.089 55.5,51.1 55.5,52.25C55.5,54.044 54.044,55.5 52.25,55.5C51.1,55.5 50.089,54.902 49.512,54L14.488,54C13.911,54.902 12.9,55.5 11.75,55.5C9.956,55.5 8.5,54.044 8.5,52.25C8.5,51.1 9.098,50.089 10,49.512L10,14.488ZM49.087,12.5L14.913,12.5C14.631,13.692 13.692,14.631 12.5,14.913L12.5,49.087C13.692,49.369 14.631,50.308 14.913,51.5L49.087,51.5C49.369,50.308 50.308,49.369 51.5,49.087L51.5,14.913C50.308,14.631 49.369,13.692 49.087,12.5Z" style="fill:#d1f8fd;"/></g></svg>