<?xml version="1.0" encoding="UTF-8"?><svg id="a" xmlns="http://www.w3.org/2000/svg" viewBox="0 0 40.17 55.01"><defs><style>.b{fill:#7294a2;}.b,.c,.d,.e{fill-rule:evenodd;}.c{fill:#7ca1b1;}.d{fill:#537983;}.e{fill:#4d7079;}</style></defs><path class="c" d="M27.15,9.29H13.04c-.7,0-1.21-.63-1.21-1.41v-3.23c0-2.56,1.83-4.65,4.1-4.65h8.34c2.27,0,4.12,2.08,4.12,4.65v3.23c0,.79-.56,1.41-1.25,1.41Zm-.04-1.46v-3.18c0-1.75-1.28-3.19-2.83-3.19H15.93c-1.56,0-2.82,1.44-2.82,3.19v3.18h13.99Z"/><path class="d" d="M32.31,55.01H7.91c-.46,0-.82-.37-.82-.81v-4.61c0-.46,.36-.83,.82-.83h24.44c.46,0,.81,.37,.81,.83v4.61c-.04,.44-.41,.81-.85,.81Z"/><path class="c" d="M35.08,50.41H5.09c-.41,0-.77-.32-.77-.78L2.32,14.38c0-.23,.04-.46,.23-.59,.18-.14,.36-.23,.59-.23H37.12c.23,0,.41,.09,.58,.23,.14,.13,.23,.35,.23,.59l-2,35.25c-.09,.46-.41,.78-.85,.78Z"/><path class="d" d="M39.39,15.15H.82c-.44,0-.82-.36-.82-.82v-3.48c0-2.4,1.92-4.29,4.33-4.29h31.52c2.41,0,4.32,1.94,4.32,4.29v3.53c0,.41-.37,.77-.78,.77Z"/><path class="d" d="M11.14,45.35c-.41,0-.78-.32-.78-.78l-1.45-25.13c-.04-.46,.32-.81,.72-.81,.46-.05,.82,.31,.82,.72l1.45,25.13c.05,.46-.32,.81-.72,.81l-.04,.05Z"/><path class="d" d="M29.08,45.35h-.05c-.46-.05-.77-.41-.73-.82l1.46-25.14c.05-.45,.41-.76,.81-.72,.46,.05,.78,.41,.73,.81l-1.45,25.14c0,.41-.36,.72-.77,.72Z"/><path class="d" d="M20.08,44.57c-.45,0-.82-.35-.82-.81V19.8c0-.44,.37-.81,.82-.81s.83,.37,.83,.81v23.96c0,.46-.37,.81-.83,.81Z"/><path class="e" d="M9.59,6.56H4.33c-1.42,0-2.67,.66-3.45,1.69,.23-.04,.47-.07,.72-.07h31.52c2.41,0,4.32,1.95,4.32,4.3v2.66h1.95c.41,0,.78-.36,.78-.77v-3.53c0-2.35-1.91-4.29-4.32-4.29H9.59Z"/><path class="b" d="M37.44,15.15H2.36l.13,2.17h31.45c.23,0,.41,.09,.58,.22,.14,.14,.23,.37,.23,.6l-1.76,30.97-.07,1.31h2.15c.44,0,.77-.32,.85-.78l1.96-34.48h-.46Z"/></svg>