<?xml version="1.0" encoding="UTF-8"?><svg id="a" xmlns="http://www.w3.org/2000/svg" viewBox="0 0 54.84 55.33"><defs><style>.b{fill:#f5bb86;}.c{fill:#e3e4e1;}.d{fill:#ef3949;}</style></defs><path class="b" d="M2.3,26.61c-.2,0-.4-.14-.52-.39-.19-.43-.12-1,.16-1.29L25.83,.73C26.3,.25,26.85,0,27.42,0c.57,0,1.12,.26,1.59,.74l23.55,24.19c.28,.29,.35,.86,.16,1.28s-.58,.53-.86,.23L28.3,2.25c-.53-.54-1.24-.54-1.77,0L2.65,26.45c-.1,.11-.23,.15-.35,.15"/><path class="c" d="M29.63,3.51c0,1.81-.99,3.28-2.21,3.28s-2.21-1.46-2.21-3.28S26.2,.23,27.42,.23s2.21,1.46,2.21,3.28"/><path class="d" d="M52.14,55.33H2.7c-1.49,0-2.7-1.79-2.7-4V26.44c0-2.21,1.21-4,2.7-4H52.14c1.49,0,2.7,1.8,2.7,4v24.89c0,2.21-1.21,4-2.7,4"/></svg>