<?xml version="1.0" encoding="utf-8"?>
<!-- Generator: Adobe Illustrator 26.1.0, SVG Export Plug-In . SVG Version: 6.00 Build 0)  -->
<svg version="1.1" id="Layer_1" xmlns="http://www.w3.org/2000/svg" xmlns:xlink="http://www.w3.org/1999/xlink" x="0px" y="0px"
	 viewBox="0 0 40 40" style="enable-background:new 0 0 40 40;" xml:space="preserve">
<style type="text/css">
	.st0{fill:#434343;}
	.st1{fill:#819BAD;}
	.st2{fill:#9A6840;}
	.st3{fill:url(#SVGID_1_);}
	.st4{fill:#572E11;}
	.st5{fill:#BC814F;}
	.st6{fill:url(#SVGID_00000101804888961571349820000004847800800140663981_);}
	.st7{fill:#AB7448;}
	.st8{fill:url(#SVGID_00000103261845612288941920000010503159265853116083_);}
	.st9{fill:url(#SVGID_00000121252641631933618430000005443446959557540275_);}
	.st10{fill:url(#SVGID_00000118358501112457196070000001419570795679710348_);}
	.st11{fill:url(#SVGID_00000049191468552876706040000011566177377360404643_);}
	.st12{fill:url(#SVGID_00000181079304120196597120000002692762784895114155_);}
	.st13{fill:#CCEAF4;}
</style>
<g id="a">
	<path class="st0" d="M2.5,18.9l17.4,15.4l16.2-11v-1.6L2.5,17.3L2.5,18.9z"/>
	<g transform="translate(-1221 1150.886)">
		<path class="st1" d="M1241-1120l-15.8-13.5l14.3-9.2l15.9,13.4L1241-1120z"/>
		<g>
			<g>
				<path class="st2" d="M1240-1119.8l-0.5,0.2l-11-16.5l-2.5,1.8L1240-1119.8z"/>
			</g>
		</g>
		<g>
			<g>
				
					<linearGradient id="SVGID_1_" gradientUnits="userSpaceOnUse" x1="1165.8109" y1="-1046.0875" x2="1165.9203" y2="-1046.0875" gradientTransform="matrix(5.4649 -3.6471 -3.6471 -5.4649 -8952.7881 -2592.3984)">
					<stop  offset="0" style="stop-color:#9A6840"/>
					<stop  offset="0.25" style="stop-color:#9A6840"/>
					<stop  offset="0.375" style="stop-color:#9A6840"/>
					<stop  offset="0.4062" style="stop-color:#9A6840"/>
					<stop  offset="0.4375" style="stop-color:#99683F"/>
					<stop  offset="0.4414" style="stop-color:#99683F"/>
					<stop  offset="0.4453" style="stop-color:#99673F"/>
					<stop  offset="0.4531" style="stop-color:#98673E"/>
					<stop  offset="0.4609" style="stop-color:#98663E"/>
					<stop  offset="0.4688" style="stop-color:#98663D"/>
					<stop  offset="0.4766" style="stop-color:#97663D"/>
					<stop  offset="0.4844" style="stop-color:#97653D"/>
					<stop  offset="0.5" style="stop-color:#97643C"/>
					<stop  offset="0.5156" style="stop-color:#96643B"/>
					<stop  offset="0.5195" style="stop-color:#95633B"/>
					<stop  offset="0.5234" style="stop-color:#95633B"/>
					<stop  offset="0.5312" style="stop-color:#95623A"/>
					<stop  offset="0.5391" style="stop-color:#94623A"/>
					<stop  offset="0.5469" style="stop-color:#94613A"/>
					<stop  offset="0.5547" style="stop-color:#936139"/>
					<stop  offset="0.5625" style="stop-color:#936139"/>
					<stop  offset="0.5664" style="stop-color:#926039"/>
					<stop  offset="0.5703" style="stop-color:#926038"/>
					<stop  offset="0.5781" style="stop-color:#926038"/>
					<stop  offset="0.5859" style="stop-color:#925F38"/>
					<stop  offset="0.5938" style="stop-color:#925F38"/>
					<stop  offset="0.6016" style="stop-color:#925F37"/>
					<stop  offset="0.6094" style="stop-color:#915E37"/>
					<stop  offset="0.625" style="stop-color:#915E37"/>
					<stop  offset="0.6406" style="stop-color:#915D36"/>
					<stop  offset="0.6445" style="stop-color:#905D36"/>
					<stop  offset="0.6484" style="stop-color:#8F5C35"/>
					<stop  offset="0.6562" style="stop-color:#8F5B35"/>
					<stop  offset="0.6641" style="stop-color:#8F5B34"/>
					<stop  offset="0.6719" style="stop-color:#8F5B34"/>
					<stop  offset="0.6875" style="stop-color:#8E5B33"/>
					<stop  offset="0.6914" style="stop-color:#8E5A33"/>
					<stop  offset="0.6953" style="stop-color:#8D5A33"/>
					<stop  offset="0.7031" style="stop-color:#8D5932"/>
					<stop  offset="0.7109" style="stop-color:#8D5932"/>
					<stop  offset="0.7188" style="stop-color:#8C5832"/>
					<stop  offset="0.7266" style="stop-color:#8C5832"/>
					<stop  offset="0.7305" style="stop-color:#8B5731"/>
					<stop  offset="0.7344" style="stop-color:#8B5731"/>
					<stop  offset="0.7422" style="stop-color:#8B5731"/>
					<stop  offset="0.75" style="stop-color:#8A5730"/>
					<stop  offset="0.7656" style="stop-color:#8A5630"/>
					<stop  offset="0.7695" style="stop-color:#89552F"/>
					<stop  offset="0.7734" style="stop-color:#89552F"/>
					<stop  offset="0.7812" style="stop-color:#89552F"/>
					<stop  offset="0.7891" style="stop-color:#89542F"/>
					<stop  offset="0.7969" style="stop-color:#88542F"/>
					<stop  offset="0.8047" style="stop-color:#88542E"/>
					<stop  offset="0.8125" style="stop-color:#87532E"/>
					<stop  offset="0.8203" style="stop-color:#87532E"/>
					<stop  offset="0.8281" style="stop-color:#87532D"/>
					<stop  offset="0.8438" style="stop-color:#86522D"/>
					<stop  offset="0.8516" style="stop-color:#86522C"/>
					<stop  offset="0.8555" style="stop-color:#86522C"/>
					<stop  offset="0.8594" style="stop-color:#86512C"/>
					<stop  offset="0.875" style="stop-color:#85512C"/>
					<stop  offset="0.8906" style="stop-color:#85512C"/>
					<stop  offset="0.8984" style="stop-color:#85502B"/>
					<stop  offset="0.9062" style="stop-color:#844F2B"/>
					<stop  offset="0.9141" style="stop-color:#844F2A"/>
					<stop  offset="0.9219" style="stop-color:#834E2A"/>
					<stop  offset="0.9297" style="stop-color:#834E2A"/>
					<stop  offset="0.9375" style="stop-color:#824D29"/>
					<stop  offset="0.9453" style="stop-color:#824D29"/>
					<stop  offset="0.9531" style="stop-color:#814D28"/>
					<stop  offset="0.9609" style="stop-color:#814D28"/>
					<stop  offset="0.9688" style="stop-color:#814C28"/>
					<stop  offset="0.9766" style="stop-color:#804B27"/>
					<stop  offset="0.9844" style="stop-color:#804B27"/>
					<stop  offset="0.9922" style="stop-color:#7F4B27"/>
					<stop  offset="1" style="stop-color:#7F4A27"/>
				</linearGradient>
				<path class="st3" d="M1228-1135.7l11.6,16.1l-0.2,0.1l-11-16.5L1228-1135.7z"/>
			</g>
		</g>
		<path class="st4" d="M1228.1-1135.6c0,0,0.2,0.2,0.4,0.6c0.1,0.2,0.3,0.4,0.4,0.6c0.2,0.2,0.3,0.5,0.5,0.7
			c0.2,0.2,0.3,0.5,0.5,0.7c0.2,0.2,0.3,0.5,0.4,0.6c0.2,0.4,0.4,0.6,0.4,0.6s-0.2-0.2-0.4-0.6c-0.1-0.2-0.3-0.4-0.4-0.6
			c-0.2-0.2-0.3-0.5-0.5-0.7c-0.2-0.2-0.3-0.5-0.5-0.7c-0.2-0.2-0.3-0.5-0.4-0.6C1228.3-1135.3,1228.1-1135.6,1228.1-1135.6"/>
		<path class="st4" d="M1228-1134.3c0,0,0,0,0.1,0.1c0,0,0.1,0.1,0.1,0.1c0,0,0.1,0.1,0.1,0.1c0,0,0.1,0.1,0.1,0.1
			c0,0,0,0.1,0.1,0.1c0,0.1,0.1,0.1,0.1,0.1s0,0-0.1-0.1c0,0-0.1-0.1-0.1-0.1c0,0-0.1-0.1-0.1-0.1c0,0-0.1-0.1-0.1-0.1
			c0,0,0-0.1-0.1-0.1C1228-1134.2,1228-1134.3,1228-1134.3"/>
		<path class="st4" d="M1230.6-1130.6c0,0,0.1,0.1,0.1,0.2c0,0.1,0.1,0.1,0.1,0.2c0,0.1,0.1,0.1,0.1,0.2c0,0.1,0.1,0.1,0.1,0.2
			c0,0.1,0.1,0.1,0.1,0.2c0.1,0.1,0.1,0.2,0.1,0.2s-0.1-0.1-0.1-0.2c0-0.1-0.1-0.1-0.1-0.2c0-0.1-0.1-0.1-0.1-0.2
			c0-0.1-0.1-0.1-0.1-0.2c0-0.1-0.1-0.1-0.1-0.2C1230.6-1130.5,1230.6-1130.6,1230.6-1130.6"/>
		<path class="st4" d="M1231.5-1130.4c0,0,0.1,0.1,0.1,0.2c0,0,0,0.1,0.1,0.1c0,0,0,0.1,0.1,0.1c0.1,0.1,0.1,0.1,0.2,0.2
			c0,0.1,0.1,0.1,0.1,0.2c0,0,0,0.1,0.1,0.1c0,0,0,0.1,0.1,0.1c0.1,0.1,0.1,0.2,0.1,0.2s-0.1-0.1-0.1-0.2c0,0,0-0.1-0.1-0.1
			c0,0,0-0.1-0.1-0.1c0-0.1-0.1-0.1-0.2-0.2c-0.1-0.1-0.1-0.1-0.2-0.2c0,0,0-0.1-0.1-0.1c0,0,0-0.1-0.1-0.1
			C1231.5-1130.3,1231.5-1130.4,1231.5-1130.4"/>
		<path class="st4" d="M1229-1132.9c0,0,0,0,0.1,0.1c0,0,0.1,0.1,0.1,0.1c0,0,0.1,0.1,0.1,0.1c0,0,0.1,0.1,0.1,0.1
			c0,0,0.1,0.1,0.1,0.1c0,0.1,0.1,0.1,0.1,0.1s0,0-0.1-0.1c0,0-0.1-0.1-0.1-0.1c0,0-0.1-0.1-0.1-0.1c0,0-0.1-0.1-0.1-0.1
			s-0.1-0.1-0.1-0.1C1229.1-1132.8,1229-1132.9,1229-1132.9"/>
		<path class="st4" d="M1227.5-1135.3c0,0,0,0,0.1,0.1c0,0,0.1,0.1,0.1,0.1c0,0,0.1,0.1,0.1,0.1c0,0,0.1,0.1,0.1,0.1
			c0,0,0.1,0.1,0.1,0.1c0,0.1,0.1,0.1,0.1,0.1s0,0-0.1-0.1c0,0-0.1-0.1-0.1-0.1c0,0-0.1-0.1-0.1-0.1c0,0-0.1-0.1-0.1-0.1
			c0,0-0.1-0.1-0.1-0.1C1227.6-1135.2,1227.5-1135.3,1227.5-1135.3"/>
		<g>
			<g>
				<path class="st5" d="M1239.4-1119.6l2.1-1.4l-11-16.5l-2.1,1.4L1239.4-1119.6z"/>
			</g>
		</g>
		<g>
			<g>
				
					<linearGradient id="SVGID_00000094597271500258754490000002645402947065390491_" gradientUnits="userSpaceOnUse" x1="1163.1753" y1="-1047.6844" x2="1163.2552" y2="-1047.6844" gradientTransform="matrix(5.4649 -3.6471 3.6471 5.4649 -1300.038 8838.8975)">
					<stop  offset="0" style="stop-color:#BD814F"/>
					<stop  offset="0.25" style="stop-color:#BD814F"/>
					<stop  offset="0.375" style="stop-color:#BD814F"/>
					<stop  offset="0.4062" style="stop-color:#BD814F"/>
					<stop  offset="0.4375" style="stop-color:#BC804F"/>
					<stop  offset="0.4414" style="stop-color:#BC804F"/>
					<stop  offset="0.4453" style="stop-color:#BC7F4E"/>
					<stop  offset="0.4531" style="stop-color:#BB7F4E"/>
					<stop  offset="0.4609" style="stop-color:#BA7E4D"/>
					<stop  offset="0.4688" style="stop-color:#B97D4C"/>
					<stop  offset="0.4766" style="stop-color:#B97D4C"/>
					<stop  offset="0.4805" style="stop-color:#B97C4B"/>
					<stop  offset="0.4844" style="stop-color:#B97C4B"/>
					<stop  offset="0.5" style="stop-color:#B87B4A"/>
					<stop  offset="0.5078" style="stop-color:#B87B4A"/>
					<stop  offset="0.5156" style="stop-color:#B77A49"/>
					<stop  offset="0.5234" style="stop-color:#B77A49"/>
					<stop  offset="0.5312" style="stop-color:#B67949"/>
					<stop  offset="0.5391" style="stop-color:#B67949"/>
					<stop  offset="0.5469" style="stop-color:#B67948"/>
					<stop  offset="0.5547" style="stop-color:#B67947"/>
					<stop  offset="0.5586" style="stop-color:#B57847"/>
					<stop  offset="0.5625" style="stop-color:#B47747"/>
					<stop  offset="0.5664" style="stop-color:#B47747"/>
					<stop  offset="0.5703" style="stop-color:#B37746"/>
					<stop  offset="0.5781" style="stop-color:#B37646"/>
					<stop  offset="0.5859" style="stop-color:#B37646"/>
					<stop  offset="0.5938" style="stop-color:#B27545"/>
					<stop  offset="0.6016" style="stop-color:#B27545"/>
					<stop  offset="0.6055" style="stop-color:#B17444"/>
					<stop  offset="0.6094" style="stop-color:#B17444"/>
					<stop  offset="0.625" style="stop-color:#B17344"/>
					<stop  offset="0.6328" style="stop-color:#B17343"/>
					<stop  offset="0.6406" style="stop-color:#B07243"/>
					<stop  offset="0.6445" style="stop-color:#AF7142"/>
					<stop  offset="0.6484" style="stop-color:#AF7142"/>
					<stop  offset="0.6562" style="stop-color:#AF7141"/>
					<stop  offset="0.6641" style="stop-color:#AE7041"/>
					<stop  offset="0.6719" style="stop-color:#AE7040"/>
					<stop  offset="0.6797" style="stop-color:#AD6F40"/>
					<stop  offset="0.6875" style="stop-color:#AD6F3F"/>
					<stop  offset="0.6953" style="stop-color:#AD6F3F"/>
					<stop  offset="0.7031" style="stop-color:#AC6E3F"/>
					<stop  offset="0.7109" style="stop-color:#AC6D3E"/>
					<stop  offset="0.7188" style="stop-color:#AC6D3E"/>
					<stop  offset="0.7266" style="stop-color:#AB6C3E"/>
					<stop  offset="0.7305" style="stop-color:#AB6C3D"/>
					<stop  offset="0.7344" style="stop-color:#AA6C3D"/>
					<stop  offset="0.7422" style="stop-color:#AA6C3D"/>
					<stop  offset="0.75" style="stop-color:#A96B3C"/>
					<stop  offset="0.7578" style="stop-color:#A96B3C"/>
					<stop  offset="0.7656" style="stop-color:#A96A3B"/>
					<stop  offset="0.7734" style="stop-color:#A86A3B"/>
					<stop  offset="0.7812" style="stop-color:#A7693B"/>
					<stop  offset="0.7891" style="stop-color:#A7683A"/>
					<stop  offset="0.7969" style="stop-color:#A6673A"/>
					<stop  offset="0.8047" style="stop-color:#A66739"/>
					<stop  offset="0.8125" style="stop-color:#A56739"/>
					<stop  offset="0.8164" style="stop-color:#A56639"/>
					<stop  offset="0.8203" style="stop-color:#A56639"/>
					<stop  offset="0.8281" style="stop-color:#A46639"/>
					<stop  offset="0.8359" style="stop-color:#A46538"/>
					<stop  offset="0.8438" style="stop-color:#A36538"/>
					<stop  offset="0.8516" style="stop-color:#A36437"/>
					<stop  offset="0.8594" style="stop-color:#A36437"/>
					<stop  offset="0.875" style="stop-color:#A26337"/>
					<stop  offset="0.8906" style="stop-color:#A26336"/>
					<stop  offset="0.8945" style="stop-color:#A16235"/>
					<stop  offset="0.8984" style="stop-color:#A16235"/>
					<stop  offset="0.9062" style="stop-color:#A06134"/>
					<stop  offset="0.9219" style="stop-color:#9F6034"/>
					<stop  offset="0.9375" style="stop-color:#9F5F33"/>
					<stop  offset="0.9453" style="stop-color:#9F5F33"/>
					<stop  offset="0.9531" style="stop-color:#9E5F32"/>
					<stop  offset="0.9609" style="stop-color:#9D5E32"/>
					<stop  offset="0.9688" style="stop-color:#9D5E31"/>
					<stop  offset="0.9766" style="stop-color:#9C5D31"/>
					<stop  offset="0.9805" style="stop-color:#9B5C31"/>
					<stop  offset="0.9844" style="stop-color:#9B5C31"/>
					<stop  offset="1" style="stop-color:#9A5B30"/>
				</linearGradient>
				<path style="fill:url(#SVGID_00000094597271500258754490000002645402947065390491_);" d="M1241.1-1120.6l-11-16.5l0.4-0.3
					l11,16.5L1241.1-1120.6z"/>
			</g>
		</g>
		<path class="st4" d="M1230.3-1136.6C1230.3-1136.6,1230.3-1136.6,1230.3-1136.6c0.1,0.2,0.2,0.2,0.2,0.4c0.1,0.1,0.2,0.2,0.3,0.4
			c0.1,0.1,0.2,0.3,0.3,0.4c0.1,0.1,0.2,0.3,0.3,0.4c0.1,0.1,0.2,0.3,0.2,0.4c0.1,0.1,0.1,0.2,0.2,0.3c0,0.1,0.1,0.1,0.1,0.1
			s0,0-0.1-0.1c0-0.1-0.1-0.1-0.2-0.3c-0.1-0.1-0.2-0.2-0.3-0.4c-0.1-0.1-0.2-0.3-0.3-0.4c-0.1-0.1-0.2-0.3-0.3-0.4
			c-0.1-0.1-0.2-0.3-0.2-0.4C1230.4-1136.4,1230.4-1136.5,1230.3-1136.6C1230.3-1136.6,1230.3-1136.6,1230.3-1136.6"/>
		<path class="st4" d="M1230-1136c0,0,0.1,0.2,0.3,0.4c0,0.1,0.1,0.1,0.1,0.2c0,0.1,0.1,0.1,0.1,0.2c0.1,0.1,0.2,0.3,0.3,0.5
			c0.1,0.2,0.2,0.3,0.3,0.5c0.1,0.1,0.1,0.1,0.2,0.2c0.1,0.1,0.1,0.1,0.1,0.2c0.2,0.2,0.3,0.4,0.3,0.4s-0.1-0.1-0.3-0.4
			c0-0.1-0.1-0.1-0.1-0.2c-0.1-0.1-0.1-0.1-0.2-0.2c-0.1-0.1-0.2-0.3-0.3-0.5c-0.1-0.2-0.2-0.3-0.3-0.5c0-0.1-0.1-0.1-0.1-0.2
			c0-0.1-0.1-0.1-0.1-0.2C1230.1-1135.8,1230-1136,1230-1136"/>
		<path class="st4" d="M1230.8-1133.4c0,0,0,0-0.1-0.1c0,0-0.1-0.1-0.1-0.1c0,0-0.1-0.1-0.1-0.1c0-0.1-0.1-0.1-0.1-0.1
			c0,0-0.1-0.1-0.1-0.1c0-0.1-0.1-0.1-0.1-0.1s0,0,0.1,0.1c0,0,0.1,0.1,0.1,0.1c0,0,0.1,0.1,0.1,0.1c0,0.1,0.1,0.1,0.1,0.1
			c0,0,0.1,0.1,0.1,0.1C1230.8-1133.4,1230.8-1133.4,1230.8-1133.4"/>
		<path class="st4" d="M1233.2-1129.7c0,0,0-0.1-0.1-0.2c0-0.1-0.1-0.1-0.1-0.2c0-0.1-0.1-0.1-0.1-0.2c0-0.1-0.1-0.1-0.1-0.2
			c0-0.1-0.1-0.1-0.1-0.2c-0.1-0.1-0.1-0.2-0.1-0.2s0,0.1,0.1,0.2c0,0.1,0.1,0.1,0.1,0.2c0,0.1,0.1,0.1,0.1,0.2
			c0,0.1,0.1,0.1,0.1,0.2c0,0.1,0.1,0.1,0.1,0.2C1233.2-1129.8,1233.2-1129.7,1233.2-1129.7"/>
		<path class="st4" d="M1233.5-1131.3c0,0,0.2,0.2,0.4,0.6c0.1,0.2,0.3,0.4,0.4,0.6c0.2,0.2,0.3,0.5,0.5,0.7
			c0.2,0.2,0.3,0.5,0.5,0.7c0.1,0.2,0.3,0.4,0.4,0.6c0.2,0.4,0.4,0.6,0.4,0.6s-0.2-0.2-0.4-0.6c-0.1-0.2-0.3-0.4-0.4-0.6
			c-0.2-0.2-0.3-0.5-0.5-0.7c-0.2-0.2-0.3-0.5-0.5-0.7c-0.2-0.2-0.3-0.4-0.4-0.6C1233.7-1131.1,1233.5-1131.3,1233.5-1131.3"/>
		<path class="st4" d="M1235.7-1127.1c0,0-0.1-0.1-0.2-0.2c-0.1-0.1-0.1-0.2-0.2-0.2c-0.1-0.1-0.1-0.2-0.2-0.3
			c-0.1-0.1-0.1-0.2-0.2-0.3c-0.1-0.1-0.1-0.2-0.2-0.3c-0.1-0.1-0.2-0.3-0.2-0.3s0.1,0.1,0.2,0.2c0.1,0.1,0.1,0.2,0.2,0.2
			s0.1,0.2,0.2,0.3c0.1,0.1,0.1,0.2,0.2,0.3c0.1,0.1,0.1,0.2,0.2,0.3C1235.7-1127.2,1235.7-1127.1,1235.7-1127.1"/>
		<path class="st4" d="M1240.9-1120.8c0,0-0.2-0.2-0.4-0.6c-0.1-0.2-0.3-0.4-0.4-0.6c-0.2-0.2-0.3-0.5-0.5-0.7
			c-0.2-0.2-0.3-0.5-0.5-0.7c-0.2-0.2-0.3-0.4-0.4-0.6c-0.2-0.4-0.4-0.6-0.4-0.6s0.2,0.2,0.4,0.6c0.1,0.2,0.3,0.4,0.4,0.6
			c0.2,0.2,0.3,0.5,0.5,0.7c0.2,0.2,0.3,0.5,0.5,0.7c0.2,0.2,0.3,0.4,0.4,0.6C1240.8-1121.1,1240.9-1120.8,1240.9-1120.8"/>
		<path class="st4" d="M1239.7-1121.2c0,0,0,0-0.1-0.1c0,0-0.1-0.1-0.1-0.1c0,0-0.1-0.1-0.1-0.1c0,0-0.1-0.1-0.1-0.1
			c0,0,0-0.1-0.1-0.1c0-0.1-0.1-0.1-0.1-0.1s0,0,0.1,0.1c0,0,0.1,0.1,0.1,0.1c0,0,0.1,0.1,0.1,0.1c0,0,0.1,0.1,0.1,0.1
			c0,0,0,0.1,0.1,0.1C1239.7-1121.2,1239.7-1121.2,1239.7-1121.2"/>
		<path class="st4" d="M1239.3-1120.6c0,0-0.2-0.2-0.4-0.6c-0.1-0.2-0.3-0.4-0.4-0.6c-0.1-0.2-0.3-0.4-0.5-0.7
			c-0.2-0.2-0.3-0.5-0.5-0.7c-0.1-0.2-0.3-0.4-0.4-0.6c-0.2-0.3-0.4-0.6-0.4-0.6s0.2,0.2,0.4,0.6c0.1,0.2,0.3,0.4,0.4,0.6
			c0.1,0.2,0.3,0.4,0.5,0.7c0.2,0.2,0.3,0.5,0.5,0.7c0.1,0.2,0.3,0.4,0.4,0.6C1239.2-1120.8,1239.3-1120.6,1239.3-1120.6"/>
		<path class="st4" d="M1237.3-1125c0,0-0.1-0.1-0.1-0.2c0-0.1-0.1-0.1-0.1-0.2c0-0.1-0.1-0.1-0.1-0.2c0-0.1-0.1-0.1-0.1-0.2
			c0-0.1-0.1-0.1-0.1-0.2c-0.1-0.1-0.1-0.2-0.1-0.2s0.1,0.1,0.1,0.2c0,0.1,0.1,0.1,0.1,0.2c0,0.1,0.1,0.1,0.1,0.2
			c0,0.1,0.1,0.1,0.1,0.2c0,0.1,0.1,0.1,0.1,0.2C1237.3-1125.1,1237.3-1125,1237.3-1125"/>
		<path class="st4" d="M1232.9-1131.1c0,0-0.1-0.1-0.1-0.2c0,0,0-0.1-0.1-0.1c0,0,0-0.1-0.1-0.1c0-0.1-0.1-0.2-0.2-0.2
			c-0.1-0.1-0.1-0.2-0.2-0.2c0,0,0-0.1-0.1-0.1c0,0,0-0.1-0.1-0.1c-0.1-0.1-0.1-0.2-0.1-0.2s0.1,0.1,0.1,0.2c0,0,0,0.1,0.1,0.1
			c0,0,0,0.1,0.1,0.1c0.1,0.1,0.1,0.2,0.2,0.2c0.1,0.1,0.1,0.2,0.1,0.2c0,0,0,0.1,0.1,0.1c0,0,0,0.1,0.1,0.1
			C1232.8-1131.2,1232.9-1131.1,1232.9-1131.1"/>
		<path class="st4" d="M1232.1-1133.7c0,0,0.1,0.1,0.2,0.3c0,0,0.1,0.1,0.1,0.1c0,0,0.1,0.1,0.1,0.1c0.1,0.1,0.2,0.2,0.2,0.3
			c0.1,0.1,0.2,0.2,0.3,0.3c0,0,0.1,0.1,0.1,0.1c0,0,0.1,0.1,0.1,0.1c0.1,0.2,0.2,0.3,0.2,0.3s-0.1-0.1-0.2-0.2c0,0-0.1-0.1-0.1-0.1
			c0,0-0.1-0.1-0.1-0.1c-0.1-0.1-0.2-0.2-0.3-0.3c-0.1-0.1-0.2-0.2-0.2-0.3c0-0.1-0.1-0.1-0.1-0.2c0,0-0.1-0.1-0.1-0.1
			C1232.1-1133.5,1232.1-1133.7,1232.1-1133.7"/>
		<path class="st4" d="M1229.1-1135.9c0,0,0,0.1,0.1,0.1c0,0,0.1,0.1,0.1,0.2s0.1,0.1,0.1,0.2c0,0.1,0.1,0.1,0.1,0.2
			s0.1,0.1,0.1,0.2c0.1,0.1,0.1,0.2,0.1,0.2s0-0.1-0.1-0.1c0,0-0.1-0.1-0.1-0.2s-0.1-0.1-0.1-0.2c0-0.1-0.1-0.1-0.1-0.2
			s-0.1-0.1-0.1-0.2C1229.2-1135.8,1229.1-1135.9,1229.1-1135.9"/>
		<path class="st4" d="M1237.5-1125.9c0,0,0-0.1-0.1-0.2c0,0,0-0.1-0.1-0.1c0,0,0-0.1-0.1-0.1c0-0.1-0.1-0.1-0.1-0.2
			c0-0.1-0.1-0.2-0.1-0.2c0,0,0-0.1-0.1-0.1c0,0,0-0.1-0.1-0.1c-0.1-0.1-0.1-0.2-0.1-0.2s0.1,0.1,0.1,0.2c0,0,0,0.1,0.1,0.1
			c0,0,0,0.1,0.1,0.1c0,0.1,0.1,0.1,0.1,0.2c0,0.1,0.1,0.2,0.1,0.2c0,0,0,0.1,0.1,0.1c0,0,0,0.1,0,0.1
			C1237.4-1126,1237.5-1125.9,1237.5-1125.9"/>
		<path class="st4" d="M1236.4-1124.7c0,0,0-0.1-0.1-0.1c0,0-0.1-0.1-0.1-0.1c0,0-0.1-0.1-0.1-0.2c0-0.1-0.1-0.1-0.1-0.2
			c0-0.1,0-0.1-0.1-0.1c0-0.1-0.1-0.1-0.1-0.1s0,0.1,0.1,0.1c0,0,0,0.1,0.1,0.1c0,0.1,0.1,0.1,0.1,0.2c0,0.1,0.1,0.1,0.1,0.2
			c0,0.1,0.1,0.1,0.1,0.1C1236.3-1124.8,1236.4-1124.7,1236.4-1124.7"/>
		<path class="st4" d="M1238.8-1122.7c0,0,0,0-0.1-0.1c0,0-0.1-0.1-0.1-0.1c0,0-0.1-0.1-0.1-0.1c0,0-0.1-0.1-0.1-0.1
			s-0.1-0.1-0.1-0.1c0-0.1-0.1-0.1-0.1-0.1s0,0,0.1,0.1c0,0,0.1,0.1,0.1,0.1c0,0,0.1,0.1,0.1,0.1c0,0,0.1,0.1,0.1,0.1
			c0,0,0.1,0.1,0.1,0.1C1238.8-1122.8,1238.8-1122.7,1238.8-1122.7"/>
		<path class="st4" d="M1240.4-1120.4c0,0,0,0-0.1-0.1c0,0,0-0.1-0.1-0.1c0,0-0.1-0.1-0.1-0.1c0,0-0.1-0.1-0.1-0.1
			c0,0,0-0.1-0.1-0.1c0-0.1-0.1-0.1-0.1-0.1s0,0,0.1,0.1c0,0,0,0.1,0.1,0.1c0,0,0.1,0.1,0.1,0.1c0,0,0.1,0.1,0.1,0.1
			c0,0,0,0.1,0.1,0.1C1240.4-1120.4,1240.4-1120.4,1240.4-1120.4"/>
		<path class="st4" d="M1234.6-1129c-0.3-0.2-0.5-0.5-0.7-0.7c-0.2-0.3-0.4-0.7-0.5-1.1l0,0c0.1,0.4,0.3,0.8,0.5,1.1
			C1234-1129.4,1234.2-1129.1,1234.6-1129L1234.6-1129"/>
		<path class="st4" d="M1234.3-1129.6c-0.1-0.2-0.2-0.4-0.3-0.6c-0.1-0.2-0.3-0.4-0.5-0.5l0,0c0.2,0.1,0.3,0.3,0.5,0.5
			C1234.2-1130,1234.3-1129.8,1234.3-1129.6L1234.3-1129.6"/>
		<path class="st4" d="M1236.2-1125.9c-0.5-0.8-1.1-1.5-1.6-2.3l0,0C1235.1-1127.3,1235.6-1126.6,1236.2-1125.9L1236.2-1125.9"/>
		<g>
			<g>
				<path class="st7" d="M1241.5-1120.9l2.1-1.4l-11-16.5l-2.1,1.4L1241.5-1120.9z"/>
			</g>
		</g>
		<g>
			<g>
				
					<linearGradient id="SVGID_00000103241208699172456870000010879513960198632363_" gradientUnits="userSpaceOnUse" x1="1160.5446" y1="-1046.0875" x2="1160.6246" y2="-1046.0875" gradientTransform="matrix(5.4645 -3.6468 -3.6468 -5.4645 -8919.0264 -2614.228)">
					<stop  offset="0" style="stop-color:#AB7447"/>
					<stop  offset="0.25" style="stop-color:#AB7447"/>
					<stop  offset="0.375" style="stop-color:#AB7447"/>
					<stop  offset="0.4062" style="stop-color:#AB7447"/>
					<stop  offset="0.4375" style="stop-color:#AA7447"/>
					<stop  offset="0.4414" style="stop-color:#AA7347"/>
					<stop  offset="0.4453" style="stop-color:#AA7346"/>
					<stop  offset="0.4531" style="stop-color:#AA7246"/>
					<stop  offset="0.4609" style="stop-color:#A97246"/>
					<stop  offset="0.4688" style="stop-color:#A87145"/>
					<stop  offset="0.4766" style="stop-color:#A87045"/>
					<stop  offset="0.4805" style="stop-color:#A77044"/>
					<stop  offset="0.4844" style="stop-color:#A77043"/>
					<stop  offset="0.5" style="stop-color:#A76F43"/>
					<stop  offset="0.5156" style="stop-color:#A76F43"/>
					<stop  offset="0.5234" style="stop-color:#A66F42"/>
					<stop  offset="0.5312" style="stop-color:#A56E42"/>
					<stop  offset="0.5391" style="stop-color:#A56E42"/>
					<stop  offset="0.5469" style="stop-color:#A56D41"/>
					<stop  offset="0.5547" style="stop-color:#A46C41"/>
					<stop  offset="0.5625" style="stop-color:#A36C40"/>
					<stop  offset="0.5664" style="stop-color:#A36C3F"/>
					<stop  offset="0.5703" style="stop-color:#A36B3F"/>
					<stop  offset="0.5781" style="stop-color:#A26B3F"/>
					<stop  offset="0.5859" style="stop-color:#A26B3E"/>
					<stop  offset="0.5938" style="stop-color:#A26A3E"/>
					<stop  offset="0.6016" style="stop-color:#A2693E"/>
					<stop  offset="0.6094" style="stop-color:#A1693D"/>
					<stop  offset="0.6172" style="stop-color:#A1693D"/>
					<stop  offset="0.625" style="stop-color:#A0683C"/>
					<stop  offset="0.6406" style="stop-color:#9F683C"/>
					<stop  offset="0.6445" style="stop-color:#9F673B"/>
					<stop  offset="0.6484" style="stop-color:#9E663B"/>
					<stop  offset="0.6562" style="stop-color:#9E663B"/>
					<stop  offset="0.6641" style="stop-color:#9E653A"/>
					<stop  offset="0.6719" style="stop-color:#9E653A"/>
					<stop  offset="0.6875" style="stop-color:#9D6439"/>
					<stop  offset="0.6953" style="stop-color:#9D6439"/>
					<stop  offset="0.7031" style="stop-color:#9D6339"/>
					<stop  offset="0.7109" style="stop-color:#9C6338"/>
					<stop  offset="0.7188" style="stop-color:#9C6238"/>
					<stop  offset="0.7227" style="stop-color:#9C6238"/>
					<stop  offset="0.7266" style="stop-color:#9B6237"/>
					<stop  offset="0.7305" style="stop-color:#9B6137"/>
					<stop  offset="0.7344" style="stop-color:#9A6137"/>
					<stop  offset="0.7422" style="stop-color:#9A6137"/>
					<stop  offset="0.75" style="stop-color:#996037"/>
					<stop  offset="0.7578" style="stop-color:#996036"/>
					<stop  offset="0.7656" style="stop-color:#996036"/>
					<stop  offset="0.7695" style="stop-color:#985F35"/>
					<stop  offset="0.7734" style="stop-color:#985F35"/>
					<stop  offset="0.7812" style="stop-color:#985F35"/>
					<stop  offset="0.7891" style="stop-color:#985F35"/>
					<stop  offset="0.7969" style="stop-color:#975E34"/>
					<stop  offset="0.8047" style="stop-color:#975E34"/>
					<stop  offset="0.8125" style="stop-color:#965D34"/>
					<stop  offset="0.8203" style="stop-color:#965D33"/>
					<stop  offset="0.8281" style="stop-color:#955D33"/>
					<stop  offset="0.8359" style="stop-color:#955C32"/>
					<stop  offset="0.8438" style="stop-color:#945C32"/>
					<stop  offset="0.8516" style="stop-color:#945B32"/>
					<stop  offset="0.8555" style="stop-color:#945B31"/>
					<stop  offset="0.8594" style="stop-color:#945A31"/>
					<stop  offset="0.875" style="stop-color:#935A31"/>
					<stop  offset="0.8828" style="stop-color:#935A31"/>
					<stop  offset="0.8906" style="stop-color:#935930"/>
					<stop  offset="0.8945" style="stop-color:#925830"/>
					<stop  offset="0.8984" style="stop-color:#925830"/>
					<stop  offset="0.9062" style="stop-color:#92582F"/>
					<stop  offset="0.9219" style="stop-color:#91572F"/>
					<stop  offset="0.9297" style="stop-color:#91572F"/>
					<stop  offset="0.9375" style="stop-color:#90562E"/>
					<stop  offset="0.9414" style="stop-color:#90562D"/>
					<stop  offset="0.9453" style="stop-color:#8F562D"/>
					<stop  offset="0.9531" style="stop-color:#8F552D"/>
					<stop  offset="0.9609" style="stop-color:#8F552D"/>
					<stop  offset="0.9688" style="stop-color:#8E542C"/>
					<stop  offset="0.9766" style="stop-color:#8E542C"/>
					<stop  offset="0.9805" style="stop-color:#8D532C"/>
					<stop  offset="0.9844" style="stop-color:#8D532C"/>
					<stop  offset="1" style="stop-color:#8C522C"/>
				</linearGradient>
				<path style="fill:url(#SVGID_00000103241208699172456870000010879513960198632363_);" d="M1232.1-1138.5l11,16.5l0.4-0.3
					l-11-16.5L1232.1-1138.5z"/>
			</g>
		</g>
		<path class="st4" d="M1242.7-1122.4C1242.7-1122.4,1242.7-1122.4,1242.7-1122.4c-0.1-0.2-0.2-0.2-0.2-0.4
			c-0.1-0.1-0.2-0.2-0.2-0.4c-0.1-0.1-0.2-0.3-0.3-0.4c-0.1-0.1-0.2-0.3-0.3-0.4c-0.1-0.1-0.2-0.3-0.2-0.4c-0.1-0.1-0.1-0.2-0.2-0.3
			c0-0.1-0.1-0.1-0.1-0.1s0,0,0.1,0.1c0,0.1,0.1,0.2,0.2,0.3c0.1,0.1,0.2,0.2,0.2,0.4c0.1,0.1,0.2,0.3,0.3,0.4
			c0.1,0.1,0.2,0.3,0.3,0.4c0.1,0.1,0.2,0.3,0.2,0.4c0.1,0.1,0.1,0.2,0.2,0.3S1242.7-1122.4,1242.7-1122.4"/>
		<path class="st4" d="M1242-1122.4c0,0-0.1-0.2-0.3-0.4c0-0.1-0.1-0.1-0.1-0.2c0-0.1-0.1-0.1-0.1-0.2c-0.1-0.2-0.2-0.3-0.3-0.5
			c-0.1-0.2-0.2-0.3-0.3-0.5c0-0.1-0.1-0.2-0.1-0.2c0-0.1-0.1-0.1-0.1-0.2c-0.1-0.3-0.2-0.4-0.2-0.4s0.1,0.2,0.2,0.4
			c0,0.1,0.1,0.1,0.1,0.2c0,0.1,0.1,0.1,0.1,0.2c0.1,0.2,0.2,0.3,0.3,0.5c0.1,0.2,0.2,0.3,0.3,0.5c0.1,0.1,0.1,0.2,0.1,0.2
			c0,0.1,0.1,0.1,0.1,0.2C1241.9-1122.5,1242-1122.4,1242-1122.4"/>
		<path class="st4" d="M1240-1124.1c0,0,0,0,0.1,0.1c0,0,0.1,0.1,0.1,0.1c0,0,0.1,0.1,0.1,0.1c0,0.1,0.1,0.1,0.1,0.1
			c0,0,0.1,0.1,0.1,0.1c0,0.1,0.1,0.1,0.1,0.1s0,0-0.1-0.1c0,0-0.1-0.1-0.1-0.1c0,0-0.1-0.1-0.1-0.1c0-0.1-0.1-0.1-0.1-0.1
			c0,0-0.1-0.1-0.1-0.1C1240-1124.1,1240-1124.1,1240-1124.1"/>
		<path class="st4" d="M1237.5-1127.7c0,0,0.1,0.1,0.1,0.2c0,0.1,0.1,0.1,0.1,0.2c0,0.1,0.1,0.1,0.1,0.2c0,0.1,0.1,0.1,0.1,0.2
			c0,0.1,0.1,0.1,0.1,0.2c0.1,0.1,0.1,0.2,0.1,0.2s-0.1-0.1-0.1-0.2c0-0.1-0.1-0.1-0.1-0.2c0-0.1-0.1-0.1-0.1-0.2
			c0-0.1-0.1-0.1-0.1-0.2c0-0.1-0.1-0.1-0.1-0.2C1237.6-1127.7,1237.5-1127.7,1237.5-1127.7"/>
		<path class="st4" d="M1239.1-1127.4c0,0-0.2-0.2-0.4-0.6c-0.1-0.2-0.2-0.4-0.4-0.6c-0.1-0.2-0.3-0.5-0.4-0.7
			c-0.2-0.2-0.3-0.5-0.5-0.7c-0.1-0.2-0.3-0.4-0.4-0.6c-0.2-0.4-0.4-0.6-0.4-0.6s0.2,0.2,0.4,0.6c0.1,0.2,0.3,0.4,0.4,0.6
			c0.1,0.2,0.3,0.5,0.5,0.7c0.2,0.2,0.3,0.5,0.4,0.7c0.1,0.2,0.3,0.4,0.4,0.6C1239-1127.7,1239.1-1127.4,1239.1-1127.4"/>
		<path class="st4" d="M1237.3-1129.6c0,0,0.1,0.1,0.2,0.2c0,0.1,0.1,0.2,0.2,0.3c0.1,0.1,0.1,0.2,0.2,0.3c0.1,0.1,0.1,0.2,0.2,0.3
			s0.1,0.2,0.2,0.3c0.1,0.2,0.2,0.3,0.2,0.3s-0.1-0.1-0.2-0.2c0-0.1-0.1-0.2-0.2-0.3s-0.1-0.2-0.2-0.3c-0.1-0.1-0.1-0.2-0.2-0.3
			c-0.1-0.1-0.1-0.2-0.2-0.3C1237.4-1129.5,1237.3-1129.6,1237.3-1129.6"/>
		<path class="st4" d="M1232.2-1138.3c0,0,0.2,0.2,0.4,0.6c0.1,0.2,0.3,0.4,0.4,0.6c0.2,0.2,0.3,0.5,0.5,0.7
			c0.2,0.2,0.3,0.5,0.5,0.7c0.2,0.2,0.3,0.5,0.4,0.6c0.2,0.4,0.4,0.6,0.4,0.6s-0.2-0.2-0.4-0.6c-0.1-0.2-0.3-0.4-0.4-0.6
			c-0.2-0.2-0.3-0.5-0.5-0.7c-0.2-0.2-0.3-0.5-0.5-0.7c-0.2-0.2-0.3-0.5-0.4-0.6C1232.4-1138.1,1232.2-1138.3,1232.2-1138.3"/>
		<path class="st4" d="M1232.1-1137c0,0,0,0,0.1,0.1c0,0,0.1,0.1,0.1,0.1c0,0,0.1,0.1,0.1,0.1c0,0,0.1,0.1,0.1,0.1
			c0,0,0,0.1,0.1,0.1c0,0.1,0.1,0.1,0.1,0.1s0,0-0.1-0.1c0,0-0.1-0.1-0.1-0.1c0,0-0.1-0.1-0.1-0.1c0,0-0.1-0.1-0.1-0.1
			c0,0,0-0.1-0.1-0.1C1232.1-1137,1232.1-1137,1232.1-1137"/>
		<path class="st4" d="M1231.4-1136.9c0,0,0.2,0.2,0.4,0.6c0.1,0.2,0.3,0.4,0.4,0.6c0.1,0.2,0.3,0.4,0.5,0.7
			c0.2,0.2,0.3,0.5,0.4,0.7c0.1,0.2,0.3,0.4,0.4,0.6c0.2,0.4,0.4,0.6,0.4,0.6s-0.2-0.2-0.4-0.6c-0.1-0.2-0.3-0.4-0.4-0.6
			c-0.1-0.2-0.3-0.4-0.5-0.7c-0.2-0.2-0.3-0.5-0.4-0.7c-0.1-0.2-0.3-0.4-0.4-0.6C1231.6-1136.7,1231.4-1136.9,1231.4-1136.9"/>
		<path class="st4" d="M1234.7-1133.4c0,0,0.1,0.1,0.1,0.2c0,0.1,0.1,0.1,0.1,0.2c0,0.1,0.1,0.1,0.1,0.2c0,0.1,0.1,0.1,0.1,0.2
			c0,0.1,0.1,0.1,0.1,0.2c0.1,0.1,0.1,0.2,0.1,0.2s-0.1-0.1-0.1-0.2c0-0.1-0.1-0.1-0.1-0.2c0-0.1-0.1-0.1-0.1-0.2
			c0-0.1-0.1-0.1-0.1-0.2c0-0.1-0.1-0.1-0.1-0.2C1234.8-1133.3,1234.7-1133.4,1234.7-1133.4"/>
		<path class="st4" d="M1238.7-1126.9c0,0,0.1,0.1,0.2,0.2c0,0,0,0.1,0.1,0.1c0,0,0.1,0.1,0.1,0.1c0.1,0.1,0.1,0.2,0.2,0.2
			c0.1,0.1,0.1,0.2,0.2,0.2c0,0,0,0.1,0.1,0.1c0,0,0,0.1,0.1,0.1c0.1,0.1,0.1,0.2,0.1,0.2s-0.1-0.1-0.1-0.2c0,0,0-0.1-0.1-0.1
			c0,0,0-0.1-0.1-0.1c0-0.1-0.1-0.2-0.2-0.2c-0.1-0.1-0.1-0.2-0.2-0.2c0,0,0-0.1-0.1-0.1c0,0,0-0.1-0.1-0.1
			C1238.7-1126.8,1238.7-1126.9,1238.7-1126.9"/>
		<path class="st4" d="M1240.7-1125.2c0,0-0.1-0.1-0.2-0.3c0,0-0.1-0.1-0.1-0.1c0,0-0.1-0.1-0.1-0.2c-0.1-0.1-0.1-0.2-0.2-0.3
			c-0.1-0.1-0.1-0.2-0.2-0.4c0-0.1-0.1-0.1-0.1-0.2c0-0.1,0-0.1-0.1-0.2c-0.1-0.2-0.1-0.3-0.1-0.3s0.1,0.1,0.2,0.3
			c0,0,0,0.1,0.1,0.1c0,0.1,0.1,0.1,0.1,0.2c0.1,0.1,0.1,0.2,0.2,0.4c0.1,0.1,0.1,0.2,0.2,0.3c0,0.1,0.1,0.1,0.1,0.2
			c0,0,0.1,0.1,0.1,0.1C1240.6-1125.3,1240.7-1125.2,1240.7-1125.2"/>
		<path class="st4" d="M1241.6-1121.6c0,0,0-0.1-0.1-0.1c0,0-0.1-0.1-0.1-0.2c0-0.1-0.1-0.1-0.1-0.2c0-0.1-0.1-0.1-0.1-0.2
			s-0.1-0.1-0.1-0.2c-0.1-0.1-0.1-0.2-0.1-0.2s0,0.1,0.1,0.1c0,0,0.1,0.1,0.1,0.2c0,0.1,0.1,0.1,0.1,0.2c0,0.1,0.1,0.1,0.1,0.2
			c0,0.1,0.1,0.1,0.1,0.2C1241.6-1121.7,1241.6-1121.6,1241.6-1121.6"/>
		<path class="st4" d="M1235.6-1133.2c0,0,0.1,0.1,0.1,0.2c0,0,0,0.1,0.1,0.1c0,0,0,0.1,0.1,0.1c0.1,0.1,0.1,0.1,0.2,0.2
			c0,0.1,0.1,0.1,0.1,0.2c0,0,0,0.1,0.1,0.1c0,0,0,0.1,0.1,0.1c0.1,0.1,0.1,0.2,0.1,0.2s-0.1-0.1-0.1-0.2c0,0,0-0.1-0.1-0.1
			c0,0,0-0.1-0.1-0.1c0-0.1-0.1-0.1-0.1-0.2c-0.1-0.1-0.1-0.1-0.2-0.2c0,0,0-0.1-0.1-0.1c0,0,0-0.1-0.1-0.1
			C1235.7-1133.1,1235.6-1133.2,1235.6-1133.2"/>
		<path class="st4" d="M1234.1-1132.6c0,0,0,0,0.1,0.1c0,0,0.1,0.1,0.1,0.1c0,0,0.1,0.1,0.1,0.1c0,0,0.1,0.1,0.1,0.1
			c0,0,0.1,0.1,0.1,0.1c0.1,0.1,0.1,0.1,0.1,0.1s0,0-0.1-0.1c0,0-0.1-0.1-0.1-0.1c0,0-0.1-0.1-0.1-0.1c0,0-0.1-0.1-0.1-0.1
			c0,0-0.1-0.1-0.1-0.1C1234.1-1132.5,1234.1-1132.6,1234.1-1132.6"/>
		<path class="st4" d="M1233.2-1135.6c0,0,0,0,0.1,0.1c0,0,0.1,0.1,0.1,0.1s0.1,0.1,0.1,0.1c0,0,0.1,0.1,0.1,0.1
			c0,0,0.1,0.1,0.1,0.1c0,0.1,0.1,0.1,0.1,0.1s0,0-0.1-0.1c0,0-0.1-0.1-0.1-0.1s-0.1-0.1-0.1-0.1c0,0-0.1-0.1-0.1-0.1
			c0,0-0.1-0.1-0.1-0.1C1233.2-1135.6,1233.2-1135.6,1233.2-1135.6"/>
		<path class="st4" d="M1231.7-1138c0,0,0,0,0.1,0.1c0,0,0.1,0.1,0.1,0.1c0,0,0.1,0.1,0.1,0.1c0,0,0.1,0.1,0.1,0.1
			c0,0,0.1,0.1,0.1,0.1c0,0.1,0.1,0.1,0.1,0.1s0,0-0.1-0.1c0,0-0.1-0.1-0.1-0.1c0,0-0.1-0.1-0.1-0.1c0,0-0.1-0.1-0.1-0.1
			c0,0-0.1-0.1-0.1-0.1C1231.7-1138,1231.7-1138,1231.7-1138"/>
		<path class="st4" d="M1235-1131.9c0.5,0.8,1,1.6,1.5,2.3l0,0C1236.1-1130.4,1235.6-1131.2,1235-1131.9L1235-1131.9"/>
		<g>
			<g>
				<path class="st5" d="M1243.6-1122.3l2.1-1.4l-11-16.5l-2.1,1.4L1243.6-1122.3z"/>
			</g>
		</g>
		<g>
			<g>
				
					<linearGradient id="SVGID_00000146486593567888768160000001413180528444591791_" gradientUnits="userSpaceOnUse" x1="1157.9088" y1="-1047.6844" x2="1157.9865" y2="-1047.6844" gradientTransform="matrix(5.4645 -3.6468 3.6468 5.4645 -1266.9246 8816.0967)">
					<stop  offset="0" style="stop-color:#BD814F"/>
					<stop  offset="0.25" style="stop-color:#BD814F"/>
					<stop  offset="0.375" style="stop-color:#BD814F"/>
					<stop  offset="0.4375" style="stop-color:#BD814F"/>
					<stop  offset="0.4531" style="stop-color:#BC804F"/>
					<stop  offset="0.4609" style="stop-color:#BC7F4E"/>
					<stop  offset="0.4688" style="stop-color:#BB7F4E"/>
					<stop  offset="0.4766" style="stop-color:#BA7E4D"/>
					<stop  offset="0.4844" style="stop-color:#B97D4C"/>
					<stop  offset="0.4922" style="stop-color:#B97D4C"/>
					<stop  offset="0.5" style="stop-color:#B97C4B"/>
					<stop  offset="0.5078" style="stop-color:#B87C4B"/>
					<stop  offset="0.5156" style="stop-color:#B87B4A"/>
					<stop  offset="0.5312" style="stop-color:#B87A49"/>
					<stop  offset="0.5469" style="stop-color:#B77A49"/>
					<stop  offset="0.5625" style="stop-color:#B67948"/>
					<stop  offset="0.5703" style="stop-color:#B67948"/>
					<stop  offset="0.5781" style="stop-color:#B57847"/>
					<stop  offset="0.582" style="stop-color:#B47747"/>
					<stop  offset="0.5859" style="stop-color:#B37746"/>
					<stop  offset="0.5938" style="stop-color:#B37746"/>
					<stop  offset="0.6016" style="stop-color:#B37646"/>
					<stop  offset="0.6094" style="stop-color:#B37545"/>
					<stop  offset="0.6172" style="stop-color:#B27545"/>
					<stop  offset="0.625" style="stop-color:#B27444"/>
					<stop  offset="0.6406" style="stop-color:#B17444"/>
					<stop  offset="0.6562" style="stop-color:#B17343"/>
					<stop  offset="0.6641" style="stop-color:#B07243"/>
					<stop  offset="0.668" style="stop-color:#AF7142"/>
					<stop  offset="0.6719" style="stop-color:#AF7142"/>
					<stop  offset="0.6797" style="stop-color:#AF7141"/>
					<stop  offset="0.6875" style="stop-color:#AE7041"/>
					<stop  offset="0.6953" style="stop-color:#AE7040"/>
					<stop  offset="0.7031" style="stop-color:#AD6F40"/>
					<stop  offset="0.7188" style="stop-color:#AD6F3F"/>
					<stop  offset="0.7266" style="stop-color:#AC6E3F"/>
					<stop  offset="0.7344" style="stop-color:#AC6D3E"/>
					<stop  offset="0.75" style="stop-color:#AB6D3E"/>
					<stop  offset="0.7539" style="stop-color:#AA6C3D"/>
					<stop  offset="0.7578" style="stop-color:#AA6C3D"/>
					<stop  offset="0.7656" style="stop-color:#A96C3D"/>
					<stop  offset="0.7734" style="stop-color:#A96B3C"/>
					<stop  offset="0.7812" style="stop-color:#A96B3C"/>
					<stop  offset="0.7891" style="stop-color:#A96A3B"/>
					<stop  offset="0.793" style="stop-color:#A86A3B"/>
					<stop  offset="0.7969" style="stop-color:#A8693B"/>
					<stop  offset="0.8125" style="stop-color:#A8693A"/>
					<stop  offset="0.8203" style="stop-color:#A7683A"/>
					<stop  offset="0.8281" style="stop-color:#A6673A"/>
					<stop  offset="0.8359" style="stop-color:#A66739"/>
					<stop  offset="0.8438" style="stop-color:#A56739"/>
					<stop  offset="0.8516" style="stop-color:#A56639"/>
					<stop  offset="0.8594" style="stop-color:#A46638"/>
					<stop  offset="0.8672" style="stop-color:#A46538"/>
					<stop  offset="0.875" style="stop-color:#A46538"/>
					<stop  offset="0.8906" style="stop-color:#A36437"/>
					<stop  offset="0.9062" style="stop-color:#A26336"/>
					<stop  offset="0.9219" style="stop-color:#A26335"/>
					<stop  offset="0.9258" style="stop-color:#A16235"/>
					<stop  offset="0.9297" style="stop-color:#A06135"/>
					<stop  offset="0.9375" style="stop-color:#A06134"/>
					<stop  offset="0.9531" style="stop-color:#9F6034"/>
					<stop  offset="0.9688" style="stop-color:#9F5F33"/>
					<stop  offset="0.9766" style="stop-color:#9E5F33"/>
					<stop  offset="0.9844" style="stop-color:#9E5E32"/>
					<stop  offset="0.9922" style="stop-color:#9D5E32"/>
					<stop  offset="1" style="stop-color:#9C5D31"/>
				</linearGradient>
				<path style="fill:url(#SVGID_00000146486593567888768160000001413180528444591791_);" d="M1245.2-1123.4l-11-16.5l0.4-0.3
					l11,16.5L1245.2-1123.4z"/>
			</g>
		</g>
		<path class="st4" d="M1234.4-1139.4C1234.4-1139.4,1234.4-1139.3,1234.4-1139.4c0.1,0.2,0.2,0.2,0.2,0.4c0.1,0.1,0.2,0.2,0.3,0.4
			c0.1,0.1,0.2,0.3,0.3,0.4c0.1,0.1,0.2,0.3,0.3,0.4c0.1,0.1,0.2,0.3,0.2,0.4c0.1,0.1,0.1,0.2,0.2,0.3c0,0.1,0.1,0.1,0.1,0.1
			s0,0-0.1-0.1c0-0.1-0.1-0.1-0.2-0.3c-0.1-0.1-0.2-0.2-0.3-0.4c-0.1-0.1-0.2-0.3-0.3-0.4c-0.1-0.1-0.2-0.3-0.3-0.4
			c-0.1-0.1-0.2-0.3-0.2-0.4C1234.6-1139.1,1234.5-1139.2,1234.4-1139.4C1234.4-1139.3,1234.4-1139.4,1234.4-1139.4"/>
		<path class="st4" d="M1234.1-1138.7c0,0,0.1,0.2,0.3,0.4c0,0.1,0.1,0.1,0.1,0.2c0,0.1,0.1,0.1,0.1,0.2c0.1,0.1,0.2,0.3,0.3,0.5
			c0.1,0.2,0.2,0.3,0.3,0.5c0.1,0.1,0.1,0.1,0.2,0.2c0.1,0.1,0.1,0.1,0.1,0.2c0.2,0.2,0.3,0.4,0.3,0.4s-0.1-0.1-0.3-0.4
			c0-0.1-0.1-0.1-0.1-0.2c-0.1-0.1-0.1-0.1-0.2-0.2c-0.1-0.1-0.2-0.3-0.3-0.5c-0.1-0.2-0.2-0.3-0.3-0.5c0-0.1-0.1-0.1-0.1-0.2
			c0-0.1-0.1-0.1-0.1-0.2C1234.2-1138.5,1234.1-1138.7,1234.1-1138.7"/>
		<path class="st4" d="M1234.9-1136.1c0,0,0,0-0.1-0.1c0,0-0.1-0.1-0.1-0.1c0,0-0.1-0.1-0.1-0.1c0-0.1-0.1-0.1-0.1-0.1
			c0,0-0.1-0.1-0.1-0.1c0-0.1-0.1-0.1-0.1-0.1s0,0,0.1,0.1c0,0,0.1,0.1,0.1,0.1c0,0,0.1,0.1,0.1,0.1c0,0.1,0.1,0.1,0.1,0.1
			c0,0,0.1,0.1,0.1,0.1C1234.9-1136.2,1234.9-1136.1,1234.9-1136.1"/>
		<path class="st4" d="M1237.3-1132.5c0,0,0-0.1-0.1-0.2c0-0.1-0.1-0.1-0.1-0.2c0-0.1-0.1-0.1-0.1-0.2c0-0.1-0.1-0.1-0.1-0.2
			c0-0.1-0.1-0.1-0.1-0.2c-0.1-0.1-0.1-0.2-0.1-0.2s0,0.1,0.1,0.2c0,0.1,0.1,0.1,0.1,0.2c0,0.1,0.1,0.1,0.1,0.2
			c0,0.1,0.1,0.1,0.1,0.2c0,0.1,0.1,0.1,0.1,0.2C1237.3-1132.6,1237.3-1132.5,1237.3-1132.5"/>
		<path class="st4" d="M1237.7-1134.1c0,0,0.2,0.2,0.4,0.6c0.1,0.2,0.3,0.4,0.4,0.6c0.2,0.2,0.3,0.5,0.5,0.7
			c0.2,0.2,0.3,0.5,0.5,0.7c0.2,0.2,0.3,0.4,0.4,0.6c0.2,0.4,0.4,0.6,0.4,0.6s-0.2-0.2-0.4-0.6c-0.1-0.2-0.3-0.4-0.4-0.6
			c-0.2-0.2-0.3-0.5-0.5-0.7c-0.2-0.2-0.3-0.5-0.5-0.7c-0.2-0.2-0.3-0.4-0.4-0.6C1237.8-1133.9,1237.7-1134.1,1237.7-1134.1"/>
		<path class="st4" d="M1239.8-1129.8c0,0-0.1-0.1-0.2-0.2c-0.1-0.1-0.1-0.2-0.2-0.2c-0.1-0.1-0.1-0.2-0.2-0.3
			c-0.1-0.1-0.1-0.2-0.2-0.3c-0.1-0.1-0.1-0.2-0.2-0.3c-0.1-0.1-0.2-0.3-0.2-0.3s0.1,0.1,0.2,0.2c0.1,0.1,0.1,0.2,0.2,0.2
			c0.1,0.1,0.1,0.2,0.2,0.3c0.1,0.1,0.1,0.2,0.2,0.3c0.1,0.1,0.1,0.2,0.2,0.3C1239.8-1129.9,1239.8-1129.8,1239.8-1129.8"/>
		<path class="st4" d="M1245.1-1123.6c0,0-0.2-0.2-0.4-0.6c-0.1-0.2-0.3-0.4-0.4-0.6c-0.2-0.2-0.3-0.5-0.5-0.7
			c-0.2-0.2-0.3-0.5-0.5-0.7c-0.2-0.2-0.3-0.4-0.4-0.6c-0.2-0.4-0.4-0.6-0.4-0.6s0.2,0.2,0.4,0.6c0.1,0.2,0.3,0.4,0.4,0.6
			c0.2,0.2,0.3,0.5,0.5,0.7c0.2,0.2,0.3,0.5,0.5,0.7c0.2,0.2,0.3,0.4,0.4,0.6C1244.9-1123.8,1245.1-1123.6,1245.1-1123.6"/>
		<path class="st4" d="M1243.8-1123.9c0,0,0,0-0.1-0.1c0,0-0.1-0.1-0.1-0.1c0,0-0.1-0.1-0.1-0.1c0,0-0.1-0.1-0.1-0.1
			c0,0-0.1-0.1-0.1-0.1c0-0.1-0.1-0.1-0.1-0.1s0,0,0.1,0.1c0,0,0.1,0.1,0.1,0.1c0,0,0.1,0.1,0.1,0.1c0,0,0.1,0.1,0.1,0.1
			c0,0,0,0.1,0.1,0.1C1243.8-1123.9,1243.8-1123.9,1243.8-1123.9"/>
		<path class="st4" d="M1243.5-1123.4c0,0-0.2-0.2-0.4-0.6c-0.1-0.2-0.3-0.4-0.4-0.6c-0.1-0.2-0.3-0.4-0.5-0.7
			c-0.2-0.2-0.3-0.5-0.5-0.7c-0.1-0.2-0.3-0.4-0.4-0.6c-0.2-0.3-0.4-0.6-0.4-0.6s0.2,0.2,0.4,0.6c0.1,0.2,0.3,0.4,0.4,0.6
			c0.1,0.2,0.3,0.4,0.5,0.7c0.2,0.2,0.3,0.5,0.5,0.7c0.1,0.2,0.3,0.4,0.4,0.6C1243.3-1123.6,1243.5-1123.4,1243.5-1123.4"/>
		<path class="st4" d="M1241.4-1127.8c0,0-0.1-0.1-0.1-0.2c0-0.1-0.1-0.1-0.1-0.2c0-0.1-0.1-0.1-0.1-0.2c0-0.1-0.1-0.1-0.1-0.2
			c0-0.1-0.1-0.1-0.1-0.2c-0.1-0.1-0.1-0.2-0.1-0.2s0.1,0.1,0.1,0.2c0,0.1,0.1,0.1,0.1,0.2c0,0.1,0.1,0.1,0.1,0.2
			c0,0.1,0.1,0.1,0.1,0.2c0,0.1,0.1,0.1,0.1,0.2C1241.4-1127.8,1241.4-1127.8,1241.4-1127.8"/>
		<path class="st4" d="M1237-1133.9c0,0-0.1-0.1-0.1-0.2c0,0,0-0.1-0.1-0.1c0,0,0-0.1-0.1-0.1c0-0.1-0.1-0.2-0.2-0.2
			c-0.1-0.1-0.1-0.2-0.2-0.2c0,0,0-0.1-0.1-0.1c0,0,0-0.1-0.1-0.1c-0.1-0.1-0.1-0.2-0.1-0.2s0.1,0.1,0.1,0.2c0,0,0,0.1,0.1,0.1
			s0,0.1,0.1,0.1c0.1,0.1,0.1,0.2,0.2,0.2c0.1,0.1,0.1,0.2,0.1,0.2c0,0,0,0.1,0.1,0.1c0,0,0,0.1,0.1,0.1
			C1237-1134,1237-1133.9,1237-1133.9"/>
		<path class="st4" d="M1236.2-1136.4c0,0,0.1,0.1,0.2,0.3c0,0,0.1,0.1,0.1,0.1c0,0,0.1,0.1,0.1,0.1c0.1,0.1,0.2,0.2,0.2,0.3
			c0.1,0.1,0.2,0.2,0.2,0.3c0,0,0.1,0.1,0.1,0.1c0,0,0.1,0.1,0.1,0.1c0.1,0.2,0.2,0.3,0.2,0.3s-0.1-0.1-0.2-0.2c0,0-0.1-0.1-0.1-0.1
			c0,0-0.1-0.1-0.1-0.1c-0.1-0.1-0.2-0.2-0.3-0.3c-0.1-0.1-0.2-0.2-0.2-0.3c0-0.1-0.1-0.1-0.1-0.2c0,0-0.1-0.1-0.1-0.1
			C1236.3-1136.3,1236.2-1136.4,1236.2-1136.4"/>
		<path class="st4" d="M1233.2-1138.6c0,0,0,0.1,0.1,0.1c0,0,0.1,0.1,0.1,0.2s0.1,0.1,0.1,0.2c0,0.1,0.1,0.1,0.1,0.2
			s0.1,0.1,0.1,0.2c0.1,0.1,0.1,0.2,0.1,0.2s0-0.1-0.1-0.1c0,0-0.1-0.1-0.1-0.2c0-0.1-0.1-0.1-0.1-0.2c0-0.1-0.1-0.1-0.1-0.2
			s-0.1-0.1-0.1-0.2C1233.3-1138.6,1233.2-1138.6,1233.2-1138.6"/>
		<path class="st4" d="M1241.6-1128.6c0,0,0-0.1-0.1-0.2c0,0,0-0.1-0.1-0.1c0,0,0-0.1-0.1-0.1c0-0.1-0.1-0.1-0.1-0.2
			c0-0.1-0.1-0.2-0.1-0.2c0,0,0-0.1-0.1-0.1c0,0,0-0.1-0.1-0.1c-0.1-0.1-0.1-0.2-0.1-0.2s0.1,0.1,0.1,0.2c0,0,0,0.1,0.1,0.1
			c0,0,0,0.1,0.1,0.1c0,0.1,0.1,0.1,0.1,0.2c0,0.1,0.1,0.2,0.1,0.2c0,0,0,0.1,0.1,0.1c0,0,0,0.1,0,0.1
			C1241.6-1128.7,1241.6-1128.6,1241.6-1128.6"/>
		<path class="st4" d="M1240.5-1127.5c0,0,0-0.1-0.1-0.1c0,0-0.1-0.1-0.1-0.1c0,0-0.1-0.1-0.1-0.2c0-0.1-0.1-0.1-0.1-0.2
			c0-0.1,0-0.1-0.1-0.1c0-0.1-0.1-0.1-0.1-0.1s0,0.1,0.1,0.1c0,0,0,0.1,0.1,0.1c0,0.1,0.1,0.1,0.1,0.2c0,0.1,0.1,0.1,0.1,0.2
			c0,0.1,0.1,0.1,0.1,0.1C1240.5-1127.5,1240.5-1127.5,1240.5-1127.5"/>
		<path class="st4" d="M1242.9-1125.4c0,0,0,0-0.1-0.1c0,0-0.1-0.1-0.1-0.1c0,0-0.1-0.1-0.1-0.1c0,0-0.1-0.1-0.1-0.1
			c0,0-0.1-0.1-0.1-0.1c0-0.1-0.1-0.1-0.1-0.1s0,0,0.1,0.1c0,0,0.1,0.1,0.1,0.1c0,0,0.1,0.1,0.1,0.1c0,0,0.1,0.1,0.1,0.1
			c0,0,0.1,0.1,0.1,0.1C1242.9-1125.5,1242.9-1125.4,1242.9-1125.4"/>
		<path class="st4" d="M1244.6-1123.1c0,0,0,0-0.1-0.1c0,0,0-0.1-0.1-0.1c0,0-0.1-0.1-0.1-0.1c0,0-0.1-0.1-0.1-0.1
			c0,0,0-0.1-0.1-0.1c0-0.1-0.1-0.1-0.1-0.1s0,0,0.1,0.1c0,0,0,0.1,0.1,0.1c0,0,0.1,0.1,0.1,0.1c0,0,0.1,0.1,0.1,0.1
			c0,0,0,0.1,0.1,0.1C1244.5-1123.2,1244.6-1123.1,1244.6-1123.1"/>
		<path class="st4" d="M1238.7-1131.7c-0.3-0.2-0.5-0.5-0.7-0.7c-0.2-0.3-0.4-0.7-0.5-1.1l0,0c0.1,0.4,0.3,0.8,0.5,1.1
			C1238.1-1132.1,1238.4-1131.9,1238.7-1131.7L1238.7-1131.7"/>
		<path class="st4" d="M1240.3-1128.6c-0.5-0.8-1.1-1.5-1.6-2.3l0,0C1239.2-1130.1,1239.7-1129.3,1240.3-1128.6L1240.3-1128.6"/>
		<g>
			<g>
				<path class="st7" d="M1245.6-1123.7l2.1-1.4l-11-16.5l-2.1,1.4L1245.6-1123.7z"/>
			</g>
		</g>
		<g>
			<g>
				
					<linearGradient id="SVGID_00000179636356107101807650000014343742980188465815_" gradientUnits="userSpaceOnUse" x1="1155.2939" y1="-1046.0875" x2="1155.3739" y2="-1046.0875" gradientTransform="matrix(5.4649 -3.6471 -3.6471 -5.4649 -8887.0879 -2636.2449)">
					<stop  offset="0" style="stop-color:#AB7447"/>
					<stop  offset="0.25" style="stop-color:#AB7447"/>
					<stop  offset="0.375" style="stop-color:#AB7447"/>
					<stop  offset="0.4062" style="stop-color:#AB7447"/>
					<stop  offset="0.4375" style="stop-color:#AA7447"/>
					<stop  offset="0.4414" style="stop-color:#AA7347"/>
					<stop  offset="0.4453" style="stop-color:#AA7346"/>
					<stop  offset="0.4531" style="stop-color:#AA7246"/>
					<stop  offset="0.4609" style="stop-color:#A97246"/>
					<stop  offset="0.4688" style="stop-color:#A87145"/>
					<stop  offset="0.4727" style="stop-color:#A87045"/>
					<stop  offset="0.4766" style="stop-color:#A77044"/>
					<stop  offset="0.4805" style="stop-color:#A77044"/>
					<stop  offset="0.4844" style="stop-color:#A77043"/>
					<stop  offset="0.5" style="stop-color:#A76F43"/>
					<stop  offset="0.5156" style="stop-color:#A76F43"/>
					<stop  offset="0.5234" style="stop-color:#A66F42"/>
					<stop  offset="0.5312" style="stop-color:#A56E42"/>
					<stop  offset="0.5391" style="stop-color:#A56E42"/>
					<stop  offset="0.5469" style="stop-color:#A56D41"/>
					<stop  offset="0.5547" style="stop-color:#A46C40"/>
					<stop  offset="0.5625" style="stop-color:#A36C40"/>
					<stop  offset="0.5664" style="stop-color:#A36C3F"/>
					<stop  offset="0.5703" style="stop-color:#A36B3F"/>
					<stop  offset="0.5781" style="stop-color:#A26B3F"/>
					<stop  offset="0.582" style="stop-color:#A26B3E"/>
					<stop  offset="0.5859" style="stop-color:#A26A3E"/>
					<stop  offset="0.5938" style="stop-color:#A26A3E"/>
					<stop  offset="0.6016" style="stop-color:#A2693E"/>
					<stop  offset="0.6094" style="stop-color:#A1693D"/>
					<stop  offset="0.6172" style="stop-color:#A1683D"/>
					<stop  offset="0.625" style="stop-color:#A0683C"/>
					<stop  offset="0.6406" style="stop-color:#9F673C"/>
					<stop  offset="0.6445" style="stop-color:#9F673B"/>
					<stop  offset="0.6484" style="stop-color:#9E663B"/>
					<stop  offset="0.6562" style="stop-color:#9E663B"/>
					<stop  offset="0.6641" style="stop-color:#9E653A"/>
					<stop  offset="0.6719" style="stop-color:#9E653A"/>
					<stop  offset="0.6875" style="stop-color:#9D6439"/>
					<stop  offset="0.6953" style="stop-color:#9D6439"/>
					<stop  offset="0.7031" style="stop-color:#9D6339"/>
					<stop  offset="0.7109" style="stop-color:#9C6338"/>
					<stop  offset="0.7188" style="stop-color:#9C6238"/>
					<stop  offset="0.7227" style="stop-color:#9C6238"/>
					<stop  offset="0.7266" style="stop-color:#9B6237"/>
					<stop  offset="0.7305" style="stop-color:#9B6137"/>
					<stop  offset="0.7344" style="stop-color:#9A6137"/>
					<stop  offset="0.7422" style="stop-color:#9A6137"/>
					<stop  offset="0.75" style="stop-color:#996037"/>
					<stop  offset="0.7578" style="stop-color:#996036"/>
					<stop  offset="0.7656" style="stop-color:#996036"/>
					<stop  offset="0.7812" style="stop-color:#985F35"/>
					<stop  offset="0.7891" style="stop-color:#985F35"/>
					<stop  offset="0.7969" style="stop-color:#975E34"/>
					<stop  offset="0.8047" style="stop-color:#975E34"/>
					<stop  offset="0.8125" style="stop-color:#965D33"/>
					<stop  offset="0.8203" style="stop-color:#965D33"/>
					<stop  offset="0.8281" style="stop-color:#955D33"/>
					<stop  offset="0.8359" style="stop-color:#955C32"/>
					<stop  offset="0.8438" style="stop-color:#945C32"/>
					<stop  offset="0.8516" style="stop-color:#945B32"/>
					<stop  offset="0.8594" style="stop-color:#945B31"/>
					<stop  offset="0.875" style="stop-color:#935A31"/>
					<stop  offset="0.8828" style="stop-color:#935A31"/>
					<stop  offset="0.8906" style="stop-color:#935930"/>
					<stop  offset="0.8984" style="stop-color:#925830"/>
					<stop  offset="0.9062" style="stop-color:#92582F"/>
					<stop  offset="0.9219" style="stop-color:#91572F"/>
					<stop  offset="0.9297" style="stop-color:#91572F"/>
					<stop  offset="0.9375" style="stop-color:#90562E"/>
					<stop  offset="0.9453" style="stop-color:#90562D"/>
					<stop  offset="0.9531" style="stop-color:#8F552D"/>
					<stop  offset="0.9609" style="stop-color:#8F552D"/>
					<stop  offset="0.9688" style="stop-color:#8E542C"/>
					<stop  offset="0.9766" style="stop-color:#8D542C"/>
					<stop  offset="0.9844" style="stop-color:#8D532C"/>
					<stop  offset="1" style="stop-color:#8C522C"/>
				</linearGradient>
				<path style="fill:url(#SVGID_00000179636356107101807650000014343742980188465815_);" d="M1236.2-1141.2l11,16.5l0.4-0.3
					l-11-16.5L1236.2-1141.2z"/>
			</g>
		</g>
		<path class="st4" d="M1246.9-1125.1C1246.9-1125.1,1246.8-1125.2,1246.9-1125.1c-0.1-0.2-0.2-0.2-0.2-0.4
			c-0.1-0.1-0.2-0.2-0.2-0.4c-0.1-0.1-0.2-0.3-0.3-0.4c-0.1-0.1-0.2-0.3-0.3-0.4s-0.2-0.3-0.2-0.4s-0.1-0.2-0.2-0.3
			c0-0.1-0.1-0.1-0.1-0.1s0,0,0.1,0.1c0,0.1,0.1,0.2,0.2,0.3c0.1,0.1,0.2,0.2,0.2,0.4c0.1,0.1,0.2,0.3,0.3,0.4
			c0.1,0.1,0.2,0.3,0.3,0.4c0.1,0.1,0.2,0.3,0.2,0.4c0.1,0.1,0.1,0.2,0.2,0.3C1246.8-1125.2,1246.9-1125.1,1246.9-1125.1"/>
		<path class="st4" d="M1246.1-1125.1c0,0-0.1-0.2-0.3-0.4c0-0.1-0.1-0.1-0.1-0.2c0-0.1-0.1-0.1-0.1-0.2c-0.1-0.2-0.2-0.3-0.3-0.5
			c-0.1-0.2-0.2-0.3-0.3-0.5c0-0.1-0.1-0.2-0.1-0.2c0-0.1-0.1-0.1-0.1-0.2c-0.1-0.3-0.2-0.4-0.2-0.4s0.1,0.2,0.2,0.4
			c0,0.1,0.1,0.1,0.1,0.2c0,0.1,0.1,0.1,0.1,0.2c0.1,0.2,0.2,0.3,0.3,0.5c0.1,0.2,0.2,0.3,0.3,0.5c0.1,0.1,0.1,0.1,0.1,0.2
			c0,0.1,0.1,0.1,0.1,0.2C1246-1125.3,1246.1-1125.1,1246.1-1125.1"/>
		<path class="st4" d="M1244.1-1126.8c0,0,0,0,0.1,0.1c0,0,0.1,0.1,0.1,0.1c0,0,0.1,0.1,0.1,0.1c0,0.1,0.1,0.1,0.1,0.1
			c0,0,0.1,0.1,0.1,0.1c0,0.1,0.1,0.1,0.1,0.1s0,0-0.1-0.1c0,0-0.1-0.1-0.1-0.1c0,0-0.1-0.1-0.1-0.1c0-0.1-0.1-0.1-0.1-0.1
			c0,0-0.1-0.1-0.1-0.1C1244.1-1126.8,1244.1-1126.8,1244.1-1126.8"/>
		<path class="st4" d="M1241.6-1130.5c0,0,0.1,0.1,0.1,0.2c0,0.1,0.1,0.1,0.1,0.2c0,0.1,0.1,0.1,0.1,0.2c0,0.1,0.1,0.1,0.1,0.2
			c0,0.1,0.1,0.1,0.1,0.2c0.1,0.1,0.1,0.2,0.1,0.2s-0.1-0.1-0.1-0.2c0-0.1-0.1-0.1-0.1-0.2s-0.1-0.1-0.1-0.2c0-0.1-0.1-0.1-0.1-0.2
			c0-0.1-0.1-0.1-0.1-0.2C1241.7-1130.4,1241.6-1130.5,1241.6-1130.5"/>
		<path class="st4" d="M1243.2-1130.2c0,0-0.2-0.2-0.4-0.6c-0.1-0.2-0.2-0.4-0.4-0.6c-0.1-0.2-0.3-0.5-0.4-0.7
			c-0.2-0.2-0.3-0.5-0.5-0.7c-0.1-0.2-0.3-0.4-0.4-0.6c-0.2-0.4-0.4-0.6-0.4-0.6s0.2,0.2,0.4,0.6c0.1,0.2,0.3,0.4,0.4,0.6
			c0.1,0.2,0.3,0.5,0.5,0.7c0.2,0.2,0.3,0.5,0.4,0.7c0.1,0.2,0.3,0.4,0.4,0.6C1243.1-1130.4,1243.2-1130.2,1243.2-1130.2"/>
		<path class="st4" d="M1240.1-1133.8c0,0,0.1,0.1,0.2,0.2c0,0.1,0.1,0.2,0.2,0.3c0.1,0.1,0.1,0.2,0.2,0.3c0.1,0.1,0.1,0.2,0.2,0.3
			s0.1,0.2,0.2,0.3c0.1,0.2,0.2,0.3,0.2,0.3s-0.1-0.1-0.2-0.2c0-0.1-0.1-0.2-0.2-0.3s-0.1-0.2-0.2-0.3c-0.1-0.1-0.1-0.2-0.2-0.3
			c-0.1-0.1-0.1-0.2-0.2-0.3C1240.2-1133.7,1240.1-1133.8,1240.1-1133.8"/>
		<path class="st4" d="M1236.3-1141c0,0,0.2,0.2,0.4,0.6c0.1,0.2,0.3,0.4,0.4,0.6c0.2,0.2,0.3,0.5,0.5,0.7c0.2,0.2,0.3,0.5,0.5,0.7
			c0.2,0.2,0.3,0.5,0.4,0.6c0.2,0.4,0.4,0.6,0.4,0.6s-0.2-0.2-0.4-0.6c-0.1-0.2-0.3-0.4-0.4-0.6c-0.2-0.2-0.3-0.5-0.5-0.7
			c-0.2-0.2-0.3-0.5-0.5-0.7c-0.2-0.2-0.3-0.5-0.4-0.6C1236.5-1140.8,1236.3-1141,1236.3-1141"/>
		<path class="st4" d="M1236.2-1139.8c0,0,0,0,0.1,0.1c0,0,0.1,0.1,0.1,0.1c0,0,0.1,0.1,0.1,0.1c0,0,0.1,0.1,0.1,0.1
			c0,0,0,0.1,0.1,0.1c0,0.1,0.1,0.1,0.1,0.1s0,0-0.1-0.1c0,0-0.1-0.1-0.1-0.1c0,0-0.1-0.1-0.1-0.1c0,0-0.1-0.1-0.1-0.1
			c0,0,0-0.1-0.1-0.1C1236.2-1139.7,1236.2-1139.8,1236.2-1139.8"/>
		<path class="st4" d="M1235.5-1139.7c0,0,0.2,0.2,0.4,0.6c0.1,0.2,0.3,0.4,0.4,0.6c0.1,0.2,0.3,0.4,0.5,0.7
			c0.2,0.2,0.3,0.5,0.4,0.7c0.1,0.2,0.3,0.4,0.4,0.6c0.2,0.4,0.4,0.6,0.4,0.6s-0.2-0.2-0.4-0.6c-0.1-0.2-0.3-0.4-0.4-0.6
			c-0.1-0.2-0.3-0.4-0.4-0.7c-0.2-0.2-0.3-0.5-0.4-0.7c-0.1-0.2-0.3-0.4-0.4-0.6C1235.7-1139.4,1235.5-1139.7,1235.5-1139.7"/>
		<path class="st4" d="M1238.8-1136.1c0,0,0.1,0.1,0.1,0.2c0,0.1,0.1,0.1,0.1,0.2c0,0.1,0.1,0.1,0.1,0.2c0,0.1,0.1,0.1,0.1,0.2
			c0,0.1,0.1,0.1,0.1,0.2c0.1,0.1,0.1,0.2,0.1,0.2s-0.1-0.1-0.1-0.2c0-0.1-0.1-0.1-0.1-0.2c0-0.1-0.1-0.1-0.1-0.2
			c0-0.1-0.1-0.1-0.1-0.2s-0.1-0.1-0.1-0.2C1238.9-1136,1238.8-1136.1,1238.8-1136.1"/>
		<path class="st4" d="M1242.8-1129.6c0,0,0.1,0.1,0.2,0.2c0,0,0,0.1,0.1,0.1c0,0,0.1,0.1,0.1,0.1c0.1,0.1,0.1,0.2,0.2,0.2
			c0.1,0.1,0.1,0.2,0.2,0.2c0,0,0,0.1,0.1,0.1c0,0,0,0.1,0.1,0.1c0.1,0.1,0.1,0.2,0.1,0.2s-0.1-0.1-0.1-0.2c0,0,0-0.1-0.1-0.1
			c0,0,0-0.1-0.1-0.1c0-0.1-0.1-0.2-0.2-0.2c-0.1-0.1-0.1-0.2-0.2-0.2c0,0,0-0.1-0.1-0.1c0,0,0-0.1-0.1-0.1
			C1242.8-1129.6,1242.8-1129.6,1242.8-1129.6"/>
		<path class="st4" d="M1244.8-1127.9c0,0-0.1-0.1-0.2-0.3c0,0-0.1-0.1-0.1-0.1c0,0-0.1-0.1-0.1-0.2c-0.1-0.1-0.1-0.2-0.2-0.3
			c-0.1-0.1-0.1-0.2-0.2-0.4c0-0.1-0.1-0.1-0.1-0.2c0-0.1,0-0.1-0.1-0.2c-0.1-0.2-0.1-0.3-0.1-0.3s0.1,0.1,0.2,0.3
			c0,0,0,0.1,0.1,0.1c0,0.1,0.1,0.1,0.1,0.2c0.1,0.1,0.1,0.2,0.2,0.4c0.1,0.1,0.1,0.2,0.2,0.3c0,0.1,0.1,0.1,0.1,0.2
			c0,0,0.1,0.1,0.1,0.1C1244.7-1128.1,1244.8-1127.9,1244.8-1127.9"/>
		<path class="st4" d="M1245.7-1124.3c0,0,0-0.1-0.1-0.1c0,0-0.1-0.1-0.1-0.2s-0.1-0.1-0.1-0.2c0-0.1-0.1-0.1-0.1-0.2
			s-0.1-0.1-0.1-0.2c-0.1-0.1-0.1-0.2-0.1-0.2s0,0.1,0.1,0.1c0,0,0.1,0.1,0.1,0.2c0,0.1,0.1,0.1,0.1,0.2c0,0.1,0.1,0.1,0.1,0.2
			c0,0.1,0.1,0.1,0.1,0.2C1245.7-1124.4,1245.7-1124.3,1245.7-1124.3"/>
		<path class="st4" d="M1239.7-1135.9c0,0,0.1,0.1,0.1,0.2c0,0,0,0.1,0.1,0.1c0,0,0,0.1,0.1,0.1c0.1,0.1,0.1,0.1,0.2,0.2
			c0.1,0.1,0.1,0.1,0.1,0.2c0,0,0,0.1,0.1,0.1c0,0,0,0.1,0.1,0.1c0.1,0.1,0.1,0.2,0.1,0.2s-0.1-0.1-0.1-0.2c0,0,0-0.1-0.1-0.1
			c0,0,0-0.1-0.1-0.1c0-0.1-0.1-0.1-0.2-0.2c-0.1-0.1-0.1-0.1-0.2-0.2c0,0,0-0.1-0.1-0.1c0,0,0-0.1-0.1-0.1
			C1239.8-1135.8,1239.7-1135.9,1239.7-1135.9"/>
		<path class="st4" d="M1238.2-1135.3c0,0,0,0,0.1,0.1c0,0,0.1,0.1,0.1,0.1c0,0,0.1,0.1,0.1,0.1c0,0,0.1,0.1,0.1,0.1
			c0,0,0.1,0.1,0.1,0.1c0.1,0.1,0.1,0.1,0.1,0.1s0,0-0.1-0.1c0,0-0.1-0.1-0.1-0.1c0,0-0.1-0.1-0.1-0.1c0,0-0.1-0.1-0.1-0.1
			c0,0-0.1-0.1-0.1-0.1C1238.2-1135.3,1238.2-1135.3,1238.2-1135.3"/>
		<path class="st4" d="M1237.3-1138.3c0,0,0,0,0.1,0.1c0,0,0.1,0.1,0.1,0.1c0,0,0.1,0.1,0.1,0.1c0,0,0.1,0.1,0.1,0.1
			c0,0,0.1,0.1,0.1,0.1c0,0.1,0.1,0.1,0.1,0.1s0,0-0.1-0.1c0,0-0.1-0.1-0.1-0.1s-0.1-0.1-0.1-0.1c0,0-0.1-0.1-0.1-0.1
			s-0.1-0.1-0.1-0.1C1237.3-1138.3,1237.3-1138.3,1237.3-1138.3"/>
		<path class="st4" d="M1235.8-1140.8c0,0,0,0,0.1,0.1c0,0,0.1,0.1,0.1,0.1s0.1,0.1,0.1,0.1c0,0,0.1,0.1,0.1,0.1
			c0,0,0.1,0.1,0.1,0.1c0,0.1,0.1,0.1,0.1,0.1s0,0-0.1-0.1c0,0-0.1-0.1-0.1-0.1c0,0-0.1-0.1-0.1-0.1c0,0-0.1-0.1-0.1-0.1
			c0,0-0.1-0.1-0.1-0.1C1235.8-1140.7,1235.8-1140.8,1235.8-1140.8"/>
		<path class="st4" d="M1241.6-1132.2c0,0.5,0.2,0.9,0.4,1.3c0.2,0.2,0.4,0.4,0.6,0.6l0,0c-0.2-0.2-0.4-0.4-0.6-0.6
			C1241.8-1131.2,1241.7-1131.7,1241.6-1132.2L1241.6-1132.2"/>
		<path class="st4" d="M1241.9-1131.6c0.2,0.1,0.3,0.3,0.4,0.5c0.1,0.2,0.2,0.4,0.3,0.6l0,0c-0.1-0.2-0.2-0.4-0.3-0.6
			C1242.3-1131.3,1242.1-1131.5,1241.9-1131.6L1241.9-1131.6"/>
		<path class="st4" d="M1242-1131c0,0,0.1,0.1,0.1,0.1c0,0.1,0.1,0.1,0.1,0.2l0,0c0-0.1-0.1-0.1-0.1-0.2
			C1242.1-1131,1242.1-1131,1242-1131L1242-1131"/>
		<path class="st4" d="M1239.1-1134.7c0.5,0.8,1,1.6,1.5,2.3l0,0C1240.2-1133.1,1239.7-1133.9,1239.1-1134.7L1239.1-1134.7"/>
		<g>
			<g>
				<path class="st5" d="M1247.7-1125.1l2.1-1.4l-11-16.5l-2.1,1.4L1247.7-1125.1z"/>
			</g>
		</g>
		<g>
			<g>
				
					<linearGradient id="SVGID_00000177481696165194582260000001599748030746875531_" gradientUnits="userSpaceOnUse" x1="1152.6587" y1="-1047.6843" x2="1152.7385" y2="-1047.6843" gradientTransform="matrix(5.4652 -3.6473 3.6473 5.4652 -1234.4514 8795.5)">
					<stop  offset="0" style="stop-color:#BD814F"/>
					<stop  offset="0.25" style="stop-color:#BD814F"/>
					<stop  offset="0.375" style="stop-color:#BD814F"/>
					<stop  offset="0.4062" style="stop-color:#BD814F"/>
					<stop  offset="0.4375" style="stop-color:#BC804F"/>
					<stop  offset="0.4414" style="stop-color:#BC804F"/>
					<stop  offset="0.4453" style="stop-color:#BC7F4E"/>
					<stop  offset="0.4531" style="stop-color:#BB7F4E"/>
					<stop  offset="0.4609" style="stop-color:#BA7E4E"/>
					<stop  offset="0.4688" style="stop-color:#B97D4D"/>
					<stop  offset="0.4766" style="stop-color:#B97D4C"/>
					<stop  offset="0.4805" style="stop-color:#B97C4B"/>
					<stop  offset="0.4844" style="stop-color:#B97C4B"/>
					<stop  offset="0.5" style="stop-color:#B87B4A"/>
					<stop  offset="0.5078" style="stop-color:#B87B4A"/>
					<stop  offset="0.5156" style="stop-color:#B77A49"/>
					<stop  offset="0.5234" style="stop-color:#B77A49"/>
					<stop  offset="0.5312" style="stop-color:#B67949"/>
					<stop  offset="0.5469" style="stop-color:#B67948"/>
					<stop  offset="0.5508" style="stop-color:#B67947"/>
					<stop  offset="0.5547" style="stop-color:#B57847"/>
					<stop  offset="0.5625" style="stop-color:#B57847"/>
					<stop  offset="0.5664" style="stop-color:#B47747"/>
					<stop  offset="0.5703" style="stop-color:#B37746"/>
					<stop  offset="0.5781" style="stop-color:#B37746"/>
					<stop  offset="0.5859" style="stop-color:#B37646"/>
					<stop  offset="0.5898" style="stop-color:#B27545"/>
					<stop  offset="0.5938" style="stop-color:#B27545"/>
					<stop  offset="0.6016" style="stop-color:#B27545"/>
					<stop  offset="0.6055" style="stop-color:#B17444"/>
					<stop  offset="0.6094" style="stop-color:#B17444"/>
					<stop  offset="0.6172" style="stop-color:#B17444"/>
					<stop  offset="0.625" style="stop-color:#B17343"/>
					<stop  offset="0.6328" style="stop-color:#B17343"/>
					<stop  offset="0.6406" style="stop-color:#B07243"/>
					<stop  offset="0.6445" style="stop-color:#AF7143"/>
					<stop  offset="0.6484" style="stop-color:#AF7142"/>
					<stop  offset="0.6562" style="stop-color:#AF7141"/>
					<stop  offset="0.6641" style="stop-color:#AE7041"/>
					<stop  offset="0.6719" style="stop-color:#AE7040"/>
					<stop  offset="0.6797" style="stop-color:#AD6F40"/>
					<stop  offset="0.6875" style="stop-color:#AD6F40"/>
					<stop  offset="0.6953" style="stop-color:#AD6F3F"/>
					<stop  offset="0.6992" style="stop-color:#AC6E3F"/>
					<stop  offset="0.7031" style="stop-color:#AC6E3F"/>
					<stop  offset="0.7109" style="stop-color:#AC6D3E"/>
					<stop  offset="0.7188" style="stop-color:#AC6D3E"/>
					<stop  offset="0.7266" style="stop-color:#AB6D3E"/>
					<stop  offset="0.7305" style="stop-color:#AB6C3D"/>
					<stop  offset="0.7344" style="stop-color:#AA6C3D"/>
					<stop  offset="0.7422" style="stop-color:#AA6C3D"/>
					<stop  offset="0.75" style="stop-color:#A96B3C"/>
					<stop  offset="0.7578" style="stop-color:#A96B3C"/>
					<stop  offset="0.7656" style="stop-color:#A96A3B"/>
					<stop  offset="0.7695" style="stop-color:#A86A3B"/>
					<stop  offset="0.7734" style="stop-color:#A8693B"/>
					<stop  offset="0.7812" style="stop-color:#A7693B"/>
					<stop  offset="0.7852" style="stop-color:#A7683A"/>
					<stop  offset="0.7891" style="stop-color:#A7683A"/>
					<stop  offset="0.7969" style="stop-color:#A6673A"/>
					<stop  offset="0.8047" style="stop-color:#A66739"/>
					<stop  offset="0.8125" style="stop-color:#A56739"/>
					<stop  offset="0.8164" style="stop-color:#A56739"/>
					<stop  offset="0.8203" style="stop-color:#A56639"/>
					<stop  offset="0.8281" style="stop-color:#A46639"/>
					<stop  offset="0.8359" style="stop-color:#A46538"/>
					<stop  offset="0.8438" style="stop-color:#A36538"/>
					<stop  offset="0.8516" style="stop-color:#A36437"/>
					<stop  offset="0.8594" style="stop-color:#A36437"/>
					<stop  offset="0.8672" style="stop-color:#A36437"/>
					<stop  offset="0.875" style="stop-color:#A26336"/>
					<stop  offset="0.8906" style="stop-color:#A26336"/>
					<stop  offset="0.8945" style="stop-color:#A16235"/>
					<stop  offset="0.8984" style="stop-color:#A16235"/>
					<stop  offset="0.9062" style="stop-color:#A06134"/>
					<stop  offset="0.9219" style="stop-color:#9F6034"/>
					<stop  offset="0.9375" style="stop-color:#9F5F33"/>
					<stop  offset="0.9414" style="stop-color:#9F5F33"/>
					<stop  offset="0.9453" style="stop-color:#9E5F33"/>
					<stop  offset="0.9531" style="stop-color:#9E5F32"/>
					<stop  offset="0.9609" style="stop-color:#9E5E32"/>
					<stop  offset="0.9688" style="stop-color:#9D5E31"/>
					<stop  offset="0.9766" style="stop-color:#9C5D31"/>
					<stop  offset="0.9805" style="stop-color:#9B5C31"/>
					<stop  offset="0.9844" style="stop-color:#9B5C31"/>
					<stop  offset="1" style="stop-color:#9A5B30"/>
				</linearGradient>
				<path style="fill:url(#SVGID_00000177481696165194582260000001599748030746875531_);" d="M1249.3-1126.1l-11-16.5l0.4-0.3
					l11,16.5L1249.3-1126.1z"/>
			</g>
		</g>
		<path class="st4" d="M1238.5-1142.1C1238.5-1142.1,1238.5-1142.1,1238.5-1142.1c0.1,0.2,0.2,0.2,0.2,0.4c0.1,0.1,0.2,0.2,0.3,0.4
			c0.1,0.1,0.2,0.3,0.3,0.4c0.1,0.1,0.2,0.3,0.3,0.4c0.1,0.1,0.2,0.3,0.2,0.4c0.1,0.1,0.1,0.2,0.2,0.3c0,0.1,0.1,0.1,0.1,0.1
			s0,0-0.1-0.1c0-0.1-0.1-0.1-0.2-0.3c-0.1-0.1-0.2-0.2-0.3-0.4c-0.1-0.1-0.2-0.3-0.3-0.4c-0.1-0.1-0.2-0.3-0.3-0.4
			c-0.1-0.1-0.2-0.3-0.2-0.4C1238.7-1141.9,1238.6-1141.9,1238.5-1142.1C1238.5-1142.1,1238.5-1142.1,1238.5-1142.1"/>
		<path class="st4" d="M1238.2-1141.4c0,0,0.1,0.2,0.3,0.4c0,0.1,0.1,0.1,0.1,0.2c0,0.1,0.1,0.1,0.1,0.2c0.1,0.1,0.2,0.3,0.3,0.5
			c0.1,0.2,0.2,0.3,0.3,0.5c0.1,0.1,0.1,0.1,0.2,0.2c0.1,0.1,0.1,0.1,0.1,0.2c0.2,0.2,0.3,0.4,0.3,0.4s-0.1-0.1-0.3-0.4
			c0-0.1-0.1-0.1-0.1-0.2c-0.1-0.1-0.1-0.1-0.2-0.2c-0.1-0.1-0.2-0.3-0.3-0.5c-0.1-0.2-0.2-0.3-0.3-0.5c0-0.1-0.1-0.1-0.1-0.2
			c0-0.1-0.1-0.1-0.1-0.2C1238.3-1141.3,1238.2-1141.4,1238.2-1141.4"/>
		<path class="st4" d="M1239-1138.9c0,0,0,0-0.1-0.1c0,0-0.1-0.1-0.1-0.1c0,0-0.1-0.1-0.1-0.1c0-0.1-0.1-0.1-0.1-0.1
			c0,0-0.1-0.1-0.1-0.1c0-0.1-0.1-0.1-0.1-0.1s0,0,0.1,0.1c0,0,0.1,0.1,0.1,0.1c0,0,0.1,0.1,0.1,0.1c0,0.1,0.1,0.1,0.1,0.1
			c0,0,0.1,0.1,0.1,0.1C1239-1138.9,1239-1138.9,1239-1138.9"/>
		<path class="st4" d="M1241.4-1135.2c0,0,0-0.1-0.1-0.2c0-0.1-0.1-0.1-0.1-0.2c0-0.1-0.1-0.1-0.1-0.2c0-0.1-0.1-0.1-0.1-0.2
			s-0.1-0.1-0.1-0.2c-0.1-0.1-0.1-0.2-0.1-0.2s0,0.1,0.1,0.2c0,0.1,0.1,0.1,0.1,0.2c0,0.1,0.1,0.1,0.1,0.2c0,0.1,0.1,0.1,0.1,0.2
			c0,0.1,0.1,0.1,0.1,0.2C1241.4-1135.3,1241.4-1135.2,1241.4-1135.2"/>
		<path class="st4" d="M1241.8-1136.8c0,0,0.2,0.2,0.4,0.6c0.1,0.2,0.3,0.4,0.4,0.6c0.2,0.2,0.3,0.5,0.5,0.7
			c0.2,0.2,0.3,0.5,0.5,0.7c0.2,0.2,0.3,0.4,0.4,0.6c0.2,0.4,0.4,0.6,0.4,0.6s-0.2-0.2-0.4-0.6c-0.1-0.2-0.3-0.4-0.4-0.6
			c-0.2-0.2-0.3-0.5-0.5-0.7c-0.2-0.2-0.3-0.5-0.5-0.7c-0.2-0.2-0.3-0.4-0.4-0.6C1241.9-1136.6,1241.8-1136.8,1241.8-1136.8"/>
		<path class="st4" d="M1243.9-1132.5c0,0-0.1-0.1-0.2-0.2c-0.1-0.1-0.1-0.2-0.2-0.2c-0.1-0.1-0.1-0.2-0.2-0.3
			c-0.1-0.1-0.1-0.2-0.2-0.3c-0.1-0.1-0.1-0.2-0.2-0.3c-0.1-0.1-0.2-0.3-0.2-0.3s0.1,0.1,0.2,0.2c0.1,0.1,0.1,0.2,0.2,0.2
			c0.1,0.1,0.1,0.2,0.2,0.3c0.1,0.1,0.1,0.2,0.2,0.3c0.1,0.1,0.1,0.2,0.2,0.3C1243.9-1132.6,1243.9-1132.5,1243.9-1132.5"/>
		<path class="st4" d="M1249.2-1126.3c0,0-0.2-0.2-0.4-0.6c-0.1-0.2-0.3-0.4-0.4-0.6c-0.2-0.2-0.3-0.5-0.5-0.7
			c-0.2-0.2-0.3-0.5-0.5-0.7c-0.2-0.2-0.3-0.4-0.4-0.6c-0.2-0.4-0.4-0.6-0.4-0.6s0.2,0.2,0.4,0.6c0.1,0.2,0.3,0.4,0.4,0.6
			c0.2,0.2,0.3,0.5,0.5,0.7c0.2,0.2,0.3,0.5,0.5,0.7c0.2,0.2,0.3,0.4,0.4,0.6C1249-1126.5,1249.2-1126.3,1249.2-1126.3"/>
		<path class="st4" d="M1247.9-1126.6c0,0,0,0-0.1-0.1c0,0-0.1-0.1-0.1-0.1c0,0-0.1-0.1-0.1-0.1c0,0-0.1-0.1-0.1-0.1
			c0,0,0-0.1-0.1-0.1c0-0.1-0.1-0.1-0.1-0.1s0,0,0.1,0.1c0,0,0.1,0.1,0.1,0.1c0,0,0.1,0.1,0.1,0.1c0,0,0.1,0.1,0.1,0.1
			c0,0,0,0.1,0.1,0.1C1247.9-1126.7,1247.9-1126.6,1247.9-1126.6"/>
		<path class="st4" d="M1247.6-1126.1c0,0-0.2-0.2-0.4-0.6c-0.1-0.2-0.3-0.4-0.4-0.6c-0.1-0.2-0.3-0.4-0.5-0.7
			c-0.2-0.2-0.3-0.5-0.5-0.7c-0.1-0.2-0.3-0.4-0.4-0.6c-0.2-0.3-0.4-0.6-0.4-0.6s0.2,0.2,0.4,0.6c0.1,0.2,0.3,0.4,0.4,0.6
			c0.1,0.2,0.3,0.4,0.5,0.7c0.2,0.2,0.3,0.5,0.5,0.7c0.1,0.2,0.3,0.4,0.4,0.6C1247.4-1126.3,1247.6-1126.1,1247.6-1126.1"/>
		<path class="st4" d="M1245.6-1130.5c0,0-0.1-0.1-0.1-0.2c0-0.1-0.1-0.1-0.1-0.2c0-0.1-0.1-0.1-0.1-0.2c0-0.1-0.1-0.1-0.1-0.2
			c0-0.1-0.1-0.1-0.1-0.2c-0.1-0.1-0.1-0.2-0.1-0.2s0.1,0.1,0.1,0.2c0,0.1,0.1,0.1,0.1,0.2c0,0.1,0.1,0.1,0.1,0.2
			c0,0.1,0.1,0.1,0.1,0.2c0,0.1,0.1,0.1,0.1,0.2C1245.5-1130.6,1245.6-1130.5,1245.6-1130.5"/>
		<path class="st4" d="M1241.1-1136.6c0,0-0.1-0.1-0.1-0.2c0,0,0-0.1-0.1-0.1c0,0,0-0.1-0.1-0.1c0-0.1-0.1-0.2-0.2-0.2
			c-0.1-0.1-0.1-0.2-0.2-0.2c0,0,0-0.1-0.1-0.1s0-0.1-0.1-0.1c-0.1-0.1-0.1-0.2-0.1-0.2s0.1,0.1,0.1,0.2c0,0,0,0.1,0.1,0.1
			s0.1,0.1,0.1,0.1c0.1,0.1,0.1,0.2,0.2,0.2c0.1,0.1,0.1,0.2,0.1,0.2c0,0,0,0.1,0.1,0.1c0,0,0,0.1,0.1,0.1
			C1241.1-1136.7,1241.1-1136.6,1241.1-1136.6"/>
		<path class="st4" d="M1240.3-1139.1c0,0,0.1,0.1,0.2,0.3c0,0,0.1,0.1,0.1,0.1c0,0,0.1,0.1,0.1,0.1c0.1,0.1,0.2,0.2,0.2,0.3
			c0.1,0.1,0.2,0.2,0.2,0.3c0,0,0.1,0.1,0.1,0.1c0,0,0.1,0.1,0.1,0.1c0.1,0.2,0.2,0.3,0.2,0.3s-0.1-0.1-0.2-0.2c0,0-0.1-0.1-0.1-0.1
			c0,0-0.1-0.1-0.1-0.1c-0.1-0.1-0.2-0.2-0.3-0.3c-0.1-0.1-0.2-0.2-0.2-0.3c0-0.1-0.1-0.1-0.1-0.2c0,0-0.1-0.1-0.1-0.1
			C1240.4-1139,1240.3-1139.1,1240.3-1139.1"/>
		<path class="st4" d="M1237.3-1141.4c0,0,0,0.1,0.1,0.1c0,0,0.1,0.1,0.1,0.2c0,0.1,0.1,0.1,0.1,0.2c0,0.1,0.1,0.1,0.1,0.2
			c0,0.1,0.1,0.1,0.1,0.2c0.1,0.1,0.1,0.2,0.1,0.2s0-0.1-0.1-0.1c0,0-0.1-0.1-0.1-0.2s-0.1-0.1-0.1-0.2c0-0.1-0.1-0.1-0.1-0.2
			s-0.1-0.1-0.1-0.2C1237.4-1141.3,1237.3-1141.4,1237.3-1141.4"/>
		<path class="st4" d="M1245.7-1131.4c0,0,0-0.1-0.1-0.2c0,0,0-0.1-0.1-0.1c0,0,0-0.1-0.1-0.1c0-0.1-0.1-0.1-0.1-0.2
			c0-0.1-0.1-0.2-0.1-0.2c0,0,0-0.1-0.1-0.1s0-0.1-0.1-0.1c-0.1-0.1-0.1-0.2-0.1-0.2s0.1,0.1,0.1,0.2c0,0,0,0.1,0.1,0.1
			c0,0,0,0.1,0.1,0.1c0,0.1,0.1,0.1,0.1,0.2c0,0.1,0.1,0.2,0.1,0.2c0,0,0,0.1,0.1,0.1c0,0,0,0.1,0,0.1
			C1245.7-1131.5,1245.7-1131.4,1245.7-1131.4"/>
		<path class="st4" d="M1244.6-1130.2c0,0,0-0.1-0.1-0.1c0,0-0.1-0.1-0.1-0.1c0,0-0.1-0.1-0.1-0.2c0-0.1-0.1-0.1-0.1-0.2
			c0-0.1,0-0.1-0.1-0.1c0-0.1-0.1-0.1-0.1-0.1s0,0.1,0.1,0.1c0,0,0,0.1,0.1,0.1c0,0.1,0.1,0.1,0.1,0.2c0,0.1,0.1,0.1,0.1,0.2
			c0,0.1,0.1,0.1,0.1,0.1C1244.6-1130.3,1244.6-1130.2,1244.6-1130.2"/>
		<path class="st4" d="M1247-1128.2c0,0,0,0-0.1-0.1c0,0-0.1-0.1-0.1-0.1s-0.1-0.1-0.1-0.1c0,0-0.1-0.1-0.1-0.1c0,0-0.1-0.1-0.1-0.1
			c0-0.1-0.1-0.1-0.1-0.1s0,0,0.1,0.1c0,0,0.1,0.1,0.1,0.1c0,0,0.1,0.1,0.1,0.1c0,0,0.1,0.1,0.1,0.1c0,0,0.1,0.1,0.1,0.1
			C1247-1128.2,1247-1128.2,1247-1128.2"/>
		<path class="st4" d="M1248.7-1125.9c0,0,0,0-0.1-0.1c0,0,0-0.1-0.1-0.1c0,0-0.1-0.1-0.1-0.1c0,0-0.1-0.1-0.1-0.1
			c0,0,0-0.1-0.1-0.1c0-0.1-0.1-0.1-0.1-0.1s0,0,0.1,0.1c0,0,0,0.1,0.1,0.1c0,0,0.1,0.1,0.1,0.1c0,0,0.1,0.1,0.1,0.1
			c0,0,0,0.1,0.1,0.1C1248.7-1125.9,1248.7-1125.9,1248.7-1125.9"/>
		<path class="st4" d="M1242.8-1134.5c-0.3-0.2-0.5-0.5-0.7-0.7c-0.2-0.3-0.4-0.7-0.5-1.1l0,0c0.1,0.4,0.3,0.8,0.5,1.1
			C1242.2-1134.9,1242.5-1134.6,1242.8-1134.5L1242.8-1134.5"/>
		<path class="st4" d="M1242.6-1135.1c-0.1-0.2-0.1-0.4-0.3-0.6c-0.1-0.2-0.3-0.4-0.5-0.5l0,0c0.2,0.1,0.3,0.3,0.5,0.5
			C1242.4-1135.5,1242.5-1135.3,1242.6-1135.1L1242.6-1135.1"/>
		<path class="st4" d="M1244.4-1131.4c-0.5-0.8-1.1-1.5-1.6-2.3l0,0C1243.3-1132.8,1243.8-1132.1,1244.4-1131.4L1244.4-1131.4"/>
		<g>
			<g>
				<path class="st7" d="M1249.7-1126.4l2.1-1.4l-11.8-15.7l-1.2,0.6L1249.7-1126.4z"/>
			</g>
		</g>
		<g>
			<g>
				
					<linearGradient id="SVGID_00000166673626388386527000000009079212450837930928_" gradientUnits="userSpaceOnUse" x1="1149.8824" y1="-1046.1079" x2="1150.1072" y2="-1046.1079" gradientTransform="matrix(5.4647 -3.647 -3.647 -5.4647 -8853.7861 -2658.1421)">
					<stop  offset="0" style="stop-color:#AB7447"/>
					<stop  offset="0.25" style="stop-color:#AB7447"/>
					<stop  offset="0.375" style="stop-color:#AB7447"/>
					<stop  offset="0.4062" style="stop-color:#AB7447"/>
					<stop  offset="0.4375" style="stop-color:#AA7447"/>
					<stop  offset="0.4453" style="stop-color:#AA7447"/>
					<stop  offset="0.4531" style="stop-color:#AA7346"/>
					<stop  offset="0.4609" style="stop-color:#A97246"/>
					<stop  offset="0.4688" style="stop-color:#A87245"/>
					<stop  offset="0.4766" style="stop-color:#A87144"/>
					<stop  offset="0.4805" style="stop-color:#A77044"/>
					<stop  offset="0.4844" style="stop-color:#A77043"/>
					<stop  offset="0.5" style="stop-color:#A76F43"/>
					<stop  offset="0.5156" style="stop-color:#A76F43"/>
					<stop  offset="0.5234" style="stop-color:#A66F42"/>
					<stop  offset="0.5312" style="stop-color:#A56E42"/>
					<stop  offset="0.5469" style="stop-color:#A56D42"/>
					<stop  offset="0.5547" style="stop-color:#A56D41"/>
					<stop  offset="0.5625" style="stop-color:#A46C40"/>
					<stop  offset="0.5703" style="stop-color:#A36C40"/>
					<stop  offset="0.5781" style="stop-color:#A26B3F"/>
					<stop  offset="0.5859" style="stop-color:#A26B3F"/>
					<stop  offset="0.5938" style="stop-color:#A26A3E"/>
					<stop  offset="0.6016" style="stop-color:#A2693E"/>
					<stop  offset="0.6094" style="stop-color:#A1693D"/>
					<stop  offset="0.6172" style="stop-color:#A1693D"/>
					<stop  offset="0.625" style="stop-color:#A0683C"/>
					<stop  offset="0.6328" style="stop-color:#A0683C"/>
					<stop  offset="0.6406" style="stop-color:#9F673C"/>
					<stop  offset="0.6484" style="stop-color:#9F673B"/>
					<stop  offset="0.6562" style="stop-color:#9E663B"/>
					<stop  offset="0.6641" style="stop-color:#9E663A"/>
					<stop  offset="0.6719" style="stop-color:#9E653A"/>
					<stop  offset="0.6797" style="stop-color:#9D653A"/>
					<stop  offset="0.6875" style="stop-color:#9D6439"/>
					<stop  offset="0.7031" style="stop-color:#9D6339"/>
					<stop  offset="0.7188" style="stop-color:#9C6338"/>
					<stop  offset="0.7266" style="stop-color:#9B6238"/>
					<stop  offset="0.7344" style="stop-color:#9B6137"/>
					<stop  offset="0.75" style="stop-color:#9A6037"/>
					<stop  offset="0.7656" style="stop-color:#996036"/>
					<stop  offset="0.7734" style="stop-color:#996035"/>
					<stop  offset="0.7812" style="stop-color:#985F35"/>
					<stop  offset="0.7891" style="stop-color:#985F35"/>
					<stop  offset="0.7969" style="stop-color:#985E35"/>
					<stop  offset="0.8047" style="stop-color:#975E34"/>
					<stop  offset="0.8125" style="stop-color:#975D34"/>
					<stop  offset="0.8203" style="stop-color:#965D33"/>
					<stop  offset="0.8281" style="stop-color:#955D33"/>
					<stop  offset="0.8359" style="stop-color:#955C33"/>
					<stop  offset="0.8438" style="stop-color:#955B32"/>
					<stop  offset="0.8516" style="stop-color:#945B32"/>
					<stop  offset="0.8594" style="stop-color:#945B31"/>
					<stop  offset="0.875" style="stop-color:#935A31"/>
					<stop  offset="0.8906" style="stop-color:#935A30"/>
					<stop  offset="0.8945" style="stop-color:#935930"/>
					<stop  offset="0.8984" style="stop-color:#925830"/>
					<stop  offset="0.9062" style="stop-color:#92582F"/>
					<stop  offset="0.9219" style="stop-color:#91572F"/>
					<stop  offset="0.9375" style="stop-color:#91572E"/>
					<stop  offset="0.9414" style="stop-color:#90562D"/>
					<stop  offset="0.9453" style="stop-color:#8F562D"/>
					<stop  offset="0.9531" style="stop-color:#8F552D"/>
					<stop  offset="0.9609" style="stop-color:#8F552D"/>
					<stop  offset="0.9688" style="stop-color:#8E542C"/>
					<stop  offset="0.9766" style="stop-color:#8E542C"/>
					<stop  offset="0.9844" style="stop-color:#8D532C"/>
					<stop  offset="0.9922" style="stop-color:#8D532C"/>
					<stop  offset="1" style="stop-color:#8C532B"/>
				</linearGradient>
				<path style="fill:url(#SVGID_00000166673626388386527000000009079212450837930928_);" d="M1239.7-1143.2l11.6,15.7l0.4-0.3
					l-12-15.4L1239.7-1143.2z"/>
			</g>
		</g>
		<path class="st4" d="M1251-1127.9C1251-1127.9,1250.9-1127.9,1251-1127.9c-0.1-0.2-0.2-0.2-0.2-0.4c-0.1-0.1-0.2-0.2-0.2-0.4
			c-0.1-0.1-0.2-0.3-0.3-0.4c-0.1-0.1-0.2-0.3-0.3-0.4c-0.1-0.1-0.2-0.3-0.2-0.4c-0.1-0.1-0.1-0.2-0.2-0.3c0-0.1-0.1-0.1-0.1-0.1
			s0,0,0.1,0.1c0,0.1,0.1,0.1,0.2,0.3c0.1,0.1,0.2,0.2,0.2,0.4c0.1,0.1,0.2,0.3,0.3,0.4c0.1,0.1,0.2,0.3,0.3,0.4
			c0.1,0.1,0.2,0.3,0.2,0.4c0.1,0.1,0.1,0.2,0.2,0.3C1250.9-1127.9,1251-1127.9,1251-1127.9"/>
		<path class="st4" d="M1250.2-1127.9c0,0-0.1-0.2-0.3-0.4c0-0.1-0.1-0.1-0.1-0.2c0-0.1-0.1-0.1-0.1-0.2c-0.1-0.2-0.2-0.3-0.3-0.5
			c-0.1-0.2-0.2-0.3-0.3-0.5c0-0.1-0.1-0.2-0.1-0.2c0-0.1-0.1-0.1-0.1-0.2c-0.1-0.3-0.2-0.4-0.2-0.4s0.1,0.2,0.2,0.4
			c0,0.1,0.1,0.1,0.1,0.2c0,0.1,0.1,0.1,0.1,0.2c0.1,0.2,0.2,0.3,0.3,0.5c0.1,0.2,0.2,0.3,0.3,0.5c0.1,0.1,0.1,0.1,0.1,0.2
			c0,0.1,0.1,0.1,0.1,0.2C1250.1-1128,1250.2-1127.9,1250.2-1127.9"/>
		<path class="st4" d="M1248.2-1129.6c0,0,0,0,0.1,0.1c0,0,0.1,0.1,0.1,0.1c0,0,0.1,0.1,0.1,0.1s0.1,0.1,0.1,0.1
			c0,0,0.1,0.1,0.1,0.1c0,0.1,0.1,0.1,0.1,0.1s0,0-0.1-0.1c0,0-0.1-0.1-0.1-0.1c0,0-0.1-0.1-0.1-0.1s-0.1-0.1-0.1-0.1
			c0,0-0.1-0.1-0.1-0.1C1248.2-1129.5,1248.2-1129.6,1248.2-1129.6"/>
		<path class="st4" d="M1245.7-1133.2c0,0,0.1,0.1,0.1,0.2c0,0.1,0.1,0.1,0.1,0.2c0,0.1,0.1,0.1,0.1,0.2c0,0.1,0.1,0.1,0.1,0.2
			c0,0.1,0.1,0.1,0.1,0.2c0.1,0.1,0.1,0.2,0.1,0.2s-0.1-0.1-0.1-0.2c0-0.1-0.1-0.1-0.1-0.2c0-0.1-0.1-0.1-0.1-0.2
			c0-0.1-0.1-0.1-0.1-0.2c0-0.1-0.1-0.1-0.1-0.2C1245.8-1133.2,1245.7-1133.2,1245.7-1133.2"/>
		<path class="st4" d="M1247.4-1132.9c0,0-0.2-0.2-0.4-0.6c-0.1-0.2-0.2-0.4-0.4-0.6c-0.1-0.2-0.3-0.5-0.4-0.7
			c-0.2-0.2-0.3-0.5-0.5-0.7c-0.1-0.2-0.3-0.4-0.4-0.6c-0.2-0.4-0.4-0.6-0.4-0.6s0.2,0.2,0.4,0.6c0.1,0.2,0.3,0.4,0.4,0.6
			c0.1,0.2,0.3,0.5,0.5,0.7c0.1,0.2,0.3,0.5,0.4,0.7c0.1,0.2,0.3,0.4,0.4,0.6C1247.2-1133.2,1247.4-1132.9,1247.4-1132.9"/>
		<path class="st4" d="M1245.5-1135.1c0,0,0.1,0.1,0.2,0.2c0,0.1,0.1,0.2,0.2,0.3c0.1,0.1,0.1,0.2,0.2,0.3c0.1,0.1,0.1,0.2,0.2,0.3
			s0.1,0.2,0.2,0.3c0.1,0.2,0.2,0.3,0.2,0.3s-0.1-0.1-0.2-0.2c0-0.1-0.1-0.2-0.2-0.3c-0.1-0.1-0.1-0.2-0.2-0.3
			c-0.1-0.1-0.1-0.2-0.2-0.3c-0.1-0.1-0.1-0.2-0.2-0.3C1245.6-1135,1245.5-1135.1,1245.5-1135.1"/>
		<path class="st4" d="M1240.3-1142.5c0,0,0,0,0.1,0.1c0,0,0.1,0.1,0.1,0.1c0,0,0.1,0.1,0.1,0.1c0,0,0.1,0.1,0.1,0.1
			c0,0,0,0.1,0.1,0.1c0,0.1,0.1,0.1,0.1,0.1s0,0-0.1-0.1c0,0-0.1-0.1-0.1-0.1c0,0-0.1-0.1-0.1-0.1c0,0-0.1-0.1-0.1-0.1
			c0,0,0-0.1-0.1-0.1C1240.3-1142.5,1240.3-1142.5,1240.3-1142.5"/>
		<path class="st4" d="M1239.7-1142.4c0,0,0.2,0.2,0.4,0.6c0.1,0.2,0.3,0.4,0.4,0.6c0.1,0.2,0.3,0.4,0.5,0.7
			c0.2,0.2,0.3,0.5,0.4,0.7c0.1,0.2,0.3,0.4,0.4,0.6c0.2,0.4,0.4,0.6,0.4,0.6s-0.2-0.2-0.4-0.6c-0.1-0.2-0.3-0.4-0.4-0.6
			c-0.1-0.2-0.3-0.4-0.4-0.7c-0.2-0.2-0.3-0.5-0.4-0.7c-0.1-0.2-0.3-0.4-0.4-0.6C1239.8-1142.2,1239.7-1142.4,1239.7-1142.4"/>
		<path class="st4" d="M1242.9-1138.9c0,0,0.1,0.1,0.1,0.2c0,0.1,0.1,0.1,0.1,0.2c0,0.1,0.1,0.1,0.1,0.2c0,0.1,0.1,0.1,0.1,0.2
			c0,0.1,0.1,0.1,0.1,0.2c0.1,0.1,0.1,0.2,0.1,0.2s-0.1-0.1-0.1-0.2c0-0.1-0.1-0.1-0.1-0.2c0-0.1-0.1-0.1-0.1-0.2
			c0-0.1-0.1-0.1-0.1-0.2c0-0.1-0.1-0.1-0.1-0.2C1243-1138.8,1242.9-1138.9,1242.9-1138.9"/>
		<path class="st4" d="M1246.9-1132.4c0,0,0.1,0.1,0.2,0.2c0,0,0,0.1,0.1,0.1c0,0,0.1,0.1,0.1,0.1c0.1,0.1,0.1,0.2,0.2,0.2
			c0.1,0.1,0.1,0.2,0.2,0.2c0,0,0,0.1,0.1,0.1c0,0,0,0.1,0.1,0.1c0.1,0.1,0.1,0.2,0.1,0.2s-0.1-0.1-0.1-0.2c0,0,0-0.1-0.1-0.1
			c0,0,0-0.1-0.1-0.1c0-0.1-0.1-0.2-0.2-0.2c-0.1-0.1-0.1-0.2-0.2-0.2c0,0,0-0.1-0.1-0.1c0,0,0-0.1-0.1-0.1
			C1246.9-1132.3,1246.9-1132.4,1246.9-1132.4"/>
		<path class="st4" d="M1248.9-1130.7c0,0-0.1-0.1-0.2-0.3c0,0-0.1-0.1-0.1-0.1c0,0-0.1-0.1-0.1-0.2c-0.1-0.1-0.1-0.2-0.2-0.3
			c-0.1-0.1-0.1-0.2-0.2-0.4c0-0.1-0.1-0.1-0.1-0.2c0-0.1,0-0.1-0.1-0.2c-0.1-0.2-0.1-0.3-0.1-0.3s0.1,0.1,0.2,0.3
			c0,0,0,0.1,0.1,0.1c0,0.1,0.1,0.1,0.1,0.2c0.1,0.1,0.1,0.2,0.2,0.3c0.1,0.1,0.1,0.2,0.2,0.3c0,0.1,0.1,0.1,0.1,0.2
			c0,0,0.1,0.1,0.1,0.1C1248.8-1130.8,1248.9-1130.7,1248.9-1130.7"/>
		<path class="st4" d="M1249.9-1127.1c0,0,0-0.1-0.1-0.1c0,0-0.1-0.1-0.1-0.2c0-0.1-0.1-0.1-0.1-0.2c0-0.1-0.1-0.1-0.1-0.2
			s-0.1-0.1-0.1-0.2c-0.1-0.1-0.1-0.2-0.1-0.2s0,0.1,0.1,0.1c0,0,0.1,0.1,0.1,0.2s0.1,0.1,0.1,0.2c0,0.1,0.1,0.1,0.1,0.2
			s0.1,0.1,0.1,0.2C1249.8-1127.2,1249.9-1127.1,1249.9-1127.1"/>
		<path class="st4" d="M1243.8-1138.7c0,0,0.1,0.1,0.1,0.2c0,0,0,0.1,0.1,0.1c0,0,0,0.1,0.1,0.1c0.1,0.1,0.1,0.1,0.2,0.2
			c0.1,0.1,0.1,0.1,0.1,0.2c0,0,0,0.1,0.1,0.1c0,0,0,0.1,0.1,0.1c0.1,0.1,0.1,0.2,0.1,0.2s-0.1-0.1-0.1-0.2c0,0,0-0.1-0.1-0.1
			c0,0,0-0.1-0.1-0.1c0-0.1-0.1-0.1-0.2-0.2c-0.1-0.1-0.1-0.1-0.2-0.2c0,0,0-0.1-0.1-0.1c0,0,0-0.1-0.1-0.1
			C1243.9-1138.6,1243.8-1138.7,1243.8-1138.7"/>
		<path class="st4" d="M1242.3-1138.1c0,0,0,0,0.1,0.1c0,0,0.1,0.1,0.1,0.1c0,0,0.1,0.1,0.1,0.1c0,0,0.1,0.1,0.1,0.1
			c0,0,0.1,0.1,0.1,0.1c0.1,0.1,0.1,0.1,0.1,0.1s0,0-0.1-0.1c0,0-0.1-0.1-0.1-0.1s-0.1-0.1-0.1-0.1c0,0-0.1-0.1-0.1-0.1
			c0,0-0.1-0.1-0.1-0.1C1242.4-1138,1242.3-1138.1,1242.3-1138.1"/>
		<path class="st4" d="M1241.4-1141.1c0,0,0,0,0.1,0.1c0,0,0.1,0.1,0.1,0.1c0,0,0.1,0.1,0.1,0.1c0,0,0.1,0.1,0.1,0.1
			c0,0,0.1,0.1,0.1,0.1c0,0.1,0.1,0.1,0.1,0.1s0,0-0.1-0.1c0,0-0.1-0.1-0.1-0.1c0,0-0.1-0.1-0.1-0.1c0,0-0.1-0.1-0.1-0.1
			c0,0-0.1-0.1-0.1-0.1C1241.4-1141,1241.4-1141.1,1241.4-1141.1"/>
		<path class="st4" d="M1239.9-1143.5c0,0,0,0,0.1,0.1c0,0,0.1,0.1,0.1,0.1c0,0,0.1,0.1,0.1,0.1c0,0,0.1,0.1,0.1,0.1
			c0,0,0.1,0.1,0.1,0.1c0,0.1,0.1,0.1,0.1,0.1s0,0-0.1-0.1c0,0-0.1-0.1-0.1-0.1c0,0-0.1-0.1-0.1-0.1c0,0-0.1-0.1-0.1-0.1
			c0,0-0.1-0.1-0.1-0.1C1239.9-1143.5,1239.9-1143.5,1239.9-1143.5"/>
		<path class="st4" d="M1243.3-1137.4c0.5,0.8,1,1.6,1.5,2.3l0,0C1244.3-1135.9,1243.8-1136.7,1243.3-1137.4L1243.3-1137.4"/>
		<g>
			<g>
				<path class="st2" d="M1251.8-1127.8l2.1-1.4l-7.4-8.7l-6.6-5.3L1251.8-1127.8z"/>
			</g>
		</g>
		<path class="st4" d="M1245.5-1138c0,0,0-0.1-0.1-0.2c0-0.1-0.1-0.1-0.1-0.2c0-0.1-0.1-0.1-0.1-0.2c0-0.1-0.1-0.1-0.1-0.2
			c0-0.1-0.1-0.1-0.1-0.2c-0.1-0.1-0.1-0.2-0.1-0.2s0,0.1,0.1,0.2c0,0.1,0.1,0.1,0.1,0.2c0,0.1,0.1,0.1,0.1,0.2
			c0,0.1,0.1,0.1,0.1,0.2c0,0.1,0.1,0.1,0.1,0.2C1245.5-1138,1245.5-1138,1245.5-1138"/>
		<path class="st4" d="M1248.1-1135.3c0,0-0.1-0.1-0.2-0.2c-0.1-0.1-0.1-0.2-0.2-0.2s-0.1-0.2-0.2-0.3c-0.1-0.1-0.1-0.2-0.2-0.3
			c-0.1-0.1-0.1-0.2-0.2-0.3c-0.1-0.1-0.2-0.3-0.2-0.3s0.1,0.1,0.2,0.2c0.1,0.1,0.1,0.2,0.2,0.2c0.1,0.1,0.1,0.2,0.2,0.3
			c0.1,0.1,0.1,0.2,0.2,0.3c0.1,0.1,0.1,0.2,0.2,0.3C1248-1135.4,1248.1-1135.3,1248.1-1135.3"/>
		<path class="st4" d="M1253.3-1129c0,0-0.2-0.2-0.4-0.6c-0.1-0.2-0.3-0.4-0.4-0.6c-0.2-0.2-0.3-0.5-0.5-0.7
			c-0.2-0.2-0.3-0.5-0.5-0.7c-0.2-0.2-0.3-0.4-0.4-0.6c-0.2-0.4-0.4-0.6-0.4-0.6s0.2,0.2,0.4,0.6c0.1,0.2,0.3,0.4,0.4,0.6
			c0.2,0.2,0.3,0.5,0.5,0.7c0.2,0.2,0.3,0.5,0.5,0.7c0.2,0.2,0.3,0.4,0.4,0.6C1253.1-1129.3,1253.3-1129,1253.3-1129"/>
		<path class="st4" d="M1252-1129.4c0,0,0,0-0.1-0.1c0,0-0.1-0.1-0.1-0.1c0,0-0.1-0.1-0.1-0.1c0,0-0.1-0.1-0.1-0.1
			c0,0,0-0.1-0.1-0.1c0-0.1-0.1-0.1-0.1-0.1s0,0,0.1,0.1c0,0,0.1,0.1,0.1,0.1c0,0,0.1,0.1,0.1,0.1c0,0,0.1,0.1,0.1,0.1
			c0,0,0,0.1,0.1,0.1C1252-1129.4,1252-1129.4,1252-1129.4"/>
		<path class="st4" d="M1251.7-1128.8c0,0-0.2-0.2-0.4-0.6c-0.1-0.2-0.3-0.4-0.4-0.6c-0.1-0.2-0.3-0.4-0.5-0.7
			c-0.2-0.2-0.3-0.5-0.5-0.7c-0.1-0.2-0.3-0.4-0.4-0.6c-0.2-0.3-0.4-0.6-0.4-0.6s0.2,0.2,0.4,0.6c0.1,0.2,0.3,0.4,0.4,0.6
			c0.1,0.2,0.3,0.4,0.5,0.7c0.2,0.2,0.3,0.5,0.5,0.7c0.1,0.2,0.3,0.4,0.4,0.6C1251.5-1129.1,1251.7-1128.8,1251.7-1128.8"/>
		<path class="st4" d="M1249.7-1133.2c0,0-0.1-0.1-0.1-0.2c0-0.1-0.1-0.1-0.1-0.2c0-0.1-0.1-0.1-0.1-0.2c0-0.1-0.1-0.1-0.1-0.2
			c0-0.1-0.1-0.1-0.1-0.2c-0.1-0.1-0.1-0.2-0.1-0.2s0.1,0.1,0.1,0.2c0,0.1,0.1,0.1,0.1,0.2c0,0.1,0.1,0.1,0.1,0.2
			c0,0.1,0.1,0.1,0.1,0.2c0,0.1,0.1,0.1,0.1,0.2C1249.6-1133.3,1249.7-1133.2,1249.7-1133.2"/>
		<path class="st4" d="M1248.7-1133c0,0,0-0.1-0.1-0.1c0,0-0.1-0.1-0.1-0.1c0,0-0.1-0.1-0.1-0.2c0-0.1-0.1-0.1-0.1-0.2
			c0-0.1,0-0.1-0.1-0.1c0-0.1-0.1-0.1-0.1-0.1s0,0.1,0.1,0.1c0,0,0,0.1,0.1,0.1c0,0.1,0.1,0.1,0.1,0.2c0,0.1,0.1,0.1,0.1,0.2
			c0,0.1,0.1,0.1,0.1,0.1C1248.7-1133,1248.7-1133,1248.7-1133"/>
		<path class="st4" d="M1251.1-1130.9c0,0,0,0-0.1-0.1c0,0-0.1-0.1-0.1-0.1c0,0-0.1-0.1-0.1-0.1c0,0-0.1-0.1-0.1-0.1
			c0,0-0.1-0.1-0.1-0.1c0-0.1-0.1-0.1-0.1-0.1s0,0,0.1,0.1c0,0,0.1,0.1,0.1,0.1s0.1,0.1,0.1,0.1c0,0,0.1,0.1,0.1,0.1
			c0,0,0.1,0.1,0.1,0.1C1251.1-1131,1251.1-1130.9,1251.1-1130.9"/>
		<path class="st4" d="M1252.8-1128.6c0,0,0,0-0.1-0.1c0,0,0-0.1-0.1-0.1c0,0-0.1-0.1-0.1-0.1c0,0-0.1-0.1-0.1-0.1
			c0,0,0-0.1-0.1-0.1c0-0.1-0.1-0.1-0.1-0.1s0,0,0.1,0.1c0,0,0,0.1,0.1,0.1c0,0,0.1,0.1,0.1,0.1c0,0,0.1,0.1,0.1,0.1
			c0,0,0,0.1,0.1,0.1C1252.8-1128.7,1252.8-1128.6,1252.8-1128.6"/>
		<path class="st4" d="M1248.5-1134.1c-0.5-0.8-1.1-1.5-1.6-2.3l0,0C1247.4-1135.6,1247.9-1134.8,1248.5-1134.1L1248.5-1134.1"/>
		<path class="st13" d="M1239.4-1141.5l-12.6,8.1l14.2,12.2l12.7-8.2L1239.4-1141.5 M1239.5-1143.5l17.6,14.2l-16.2,10.5l-17.4-14.9
			L1239.5-1143.5z"/>
	</g>
	<ellipse class="st13" cx="5" cy="17" rx="3" ry="2"/>
	<ellipse class="st13" cx="18" cy="9" rx="3" ry="2"/>
	<ellipse class="st13" cx="34" cy="22" rx="3" ry="2"/>
	<ellipse class="st13" cx="20" cy="31" rx="3" ry="2"/>
</g>
</svg>
