<?xml version="1.0" encoding="UTF-8" standalone="no"?><!DOCTYPE svg PUBLIC "-//W3C//DTD SVG 1.1//EN" "http://www.w3.org/Graphics/SVG/1.1/DTD/svg11.dtd"><svg width="100%" height="100%" viewBox="0 0 64 64" version="1.1" xmlns="http://www.w3.org/2000/svg" xmlns:xlink="http://www.w3.org/1999/xlink" xml:space="preserve" xmlns:serif="http://www.serif.com/" style="fill-rule:evenodd;clip-rule:evenodd;stroke-linejoin:round;stroke-miterlimit:2;"><g id="brown"><path d="M24.135,12.5L24.613,51.5L16.158,51.5L15.68,12.5L24.135,12.5ZM40.769,12.5L41.246,51.5L32.791,51.5L32.315,12.5L40.769,12.5ZM49.262,50.969L48.95,12.5L49.087,12.5C49.369,13.692 50.308,14.631 51.5,14.913L51.5,49.087C50.491,49.326 49.664,50.035 49.262,50.969Z" style="fill:#ab7448;"/><path d="M15.865,12.5L16.343,51.5L14.913,51.5C14.631,50.308 13.692,49.369 12.5,49.087L12.5,14.913C13.692,14.631 14.631,13.692 14.913,12.5L15.865,12.5ZM32.593,12.5L33.07,51.5L24.613,51.5L24.135,12.5L32.593,12.5ZM49.231,12.955L49.687,50.253C49.404,50.615 49.196,51.038 49.087,51.5L41.246,51.5L40.769,12.5L49.087,12.5C49.124,12.656 49.172,12.808 49.231,12.955Z" style="fill:#bc814f;"/><path d="M15.68,12.5L16.158,51.5L14.913,51.5C14.825,51.129 14.674,50.783 14.471,50.473L14.026,14.069C14.456,13.647 14.77,13.106 14.913,12.5L15.68,12.5Z" style="fill:url(#_Linear1);"/><path d="M32.315,12.5L32.791,51.5L31.118,51.5L30.64,12.5L32.315,12.5Z" style="fill:url(#_Linear2);"/><path d="M40.305,12.5L40.782,51.5L39.11,51.5L38.633,12.5L40.305,12.5Z" style="fill:url(#_Linear3);"/><path d="M23.857,12.5L24.334,51.5L22.662,51.5L22.185,12.5L23.857,12.5Z" style="fill:url(#_Linear4);"/><path d="M48.761,12.5L49.233,51.041C49.173,51.189 49.124,51.342 49.087,51.5L47.565,51.5L47.088,12.5L48.761,12.5Z" style="fill:url(#_Linear5);"/><path d="M14.719,13.074C14.724,13.255 14.736,13.423 14.766,13.557C14.86,13.977 14.78,14.732 14.607,15.067C14.514,14.649 14.421,14.231 14.499,13.484C14.581,13.354 14.655,13.217 14.719,13.074ZM12.609,14.885C12.612,15.227 12.623,15.551 12.577,15.987C12.52,15.726 12.528,15.336 12.562,14.898C12.578,14.894 12.593,14.89 12.609,14.885ZM12.5,34.958C12.583,35.447 12.701,35.942 12.917,36.381C12.748,36.254 12.61,36.109 12.5,35.951L12.5,34.958ZM12.5,38.981C12.501,38.981 12.502,38.981 12.503,38.982C12.771,39.065 12.424,39.737 12.518,40.157C12.613,40.576 12.438,40.912 12.533,41.331C12.626,41.751 12.453,42.086 12.547,42.506C12.734,43.346 12.561,43.681 12.561,43.681L12.5,43.407L12.5,38.981ZM21.069,51.5C21.076,51.369 21.102,51.218 21.174,51.08C21.208,51.236 21.206,51.38 21.189,51.5L21.069,51.5ZM21.174,51.08C20.905,50.996 21.078,50.661 21.078,50.661C21.347,50.745 21.174,51.08 21.174,51.08ZM21.078,50.661C20.812,50.576 20.985,50.241 20.985,50.241C21.252,50.324 21.078,50.661 21.078,50.661ZM20.985,50.241C20.717,50.157 20.891,49.821 20.797,49.402C21.064,49.486 21.157,49.906 20.985,50.241ZM20.797,49.402C20.529,49.316 20.702,48.981 20.609,48.561C20.878,48.646 20.702,48.981 20.797,49.402ZM20.609,48.561L20.516,48.141C20.782,48.226 20.609,48.561 20.609,48.561ZM20.516,48.141C20.248,48.058 20.421,47.723 20.421,47.723C20.689,47.807 20.516,48.141 20.516,48.141ZM20.421,47.723C20.06,47.217 20.233,46.882 20.233,46.882L20.421,47.723ZM22.58,51.5C22.598,51.254 22.649,51.018 22.588,50.748C22.494,50.327 22.668,49.991 22.748,49.236C22.921,48.901 22.653,48.817 22.827,48.481C23,48.146 23,48.146 22.907,47.726C22.987,46.971 23.16,46.636 23.16,46.636C23.16,46.636 23.253,47.056 23.173,47.811C23.173,47.811 23,48.146 23.268,48.229C23.094,48.566 23.362,48.65 23.188,48.987C23.283,49.405 23.108,49.742 23.029,50.497C23.11,50.857 22.992,51.157 23.018,51.5L22.58,51.5ZM31.219,51.5C31.235,51.252 31.261,51.007 31.287,50.761C31.262,51.001 31.263,51.249 31.275,51.5L31.219,51.5ZM37.127,51.5C37.134,51.481 37.143,51.462 37.154,51.441C37.154,51.441 37.159,51.463 37.164,51.5L37.127,51.5ZM39.185,51.5C39.171,51.3 39.191,51.111 39.278,50.943C39.32,51.131 39.362,51.319 39.38,51.5L39.185,51.5ZM39.278,50.943L39.183,50.522C39.183,50.522 39.451,50.608 39.278,50.943ZM42.505,51.5C42.507,51.273 42.517,51.041 42.524,50.81C42.545,51.055 42.566,51.283 42.58,51.5L42.505,51.5ZM42.524,50.81C42.492,50.447 42.462,50.051 42.457,49.604C42.538,49.973 42.536,50.389 42.524,50.81ZM42.457,49.604C42.374,49.237 42.377,48.821 42.388,48.399C42.42,48.762 42.451,49.159 42.457,49.604ZM42.388,48.399C42.338,47.805 42.284,47.304 42.334,46.835C42.439,47.306 42.405,47.858 42.388,48.399ZM46.082,12.5L46.086,12.517C46.006,13.271 46.1,13.691 46.1,13.691L45.833,12.5L46.082,12.5ZM42.829,12.5C42.793,12.573 42.774,12.642 42.892,12.679C42.787,12.646 42.75,12.575 42.744,12.5L42.829,12.5ZM28.414,12.5C28.484,13.11 28.435,13.579 28.435,13.579C28.435,13.579 28.369,13.285 28.34,12.5L28.414,12.5ZM26.063,12.5C26.127,12.63 26.029,12.82 26.029,12.82L25.958,12.5L26.063,12.5ZM18.103,12.5C18.126,13.102 18.231,13.786 18.241,14.653C18.429,15.493 18.177,16.583 18.097,17.338C18.177,16.583 17.988,15.744 17.974,14.569C17.834,13.938 17.941,13.165 18.037,12.5L18.103,12.5ZM14.607,15.067C14.654,15.273 14.634,15.458 14.616,15.641C14.593,15.505 14.58,15.324 14.607,15.067ZM14.616,15.641C14.659,15.909 14.737,16.021 14.622,16.242C14.574,16.028 14.596,15.836 14.616,15.641ZM14.622,16.242L14.716,16.661C14.716,16.661 14.449,16.577 14.622,16.242ZM15.155,45.28C15.061,44.859 15.234,44.524 15.234,44.524C15.234,44.524 15.328,44.945 15.155,45.28ZM15.342,46.12C15.342,46.12 15.437,46.538 15.262,46.875C15.437,46.538 15.169,46.455 15.342,46.12ZM15.249,45.7C15.516,45.784 15.342,46.12 15.342,46.12C15.076,46.035 15.249,45.7 15.249,45.7ZM15.183,47.63C15.451,47.714 15.278,48.049 15.278,48.049C15.01,47.965 15.183,47.63 15.183,47.63ZM15.249,45.7C14.983,45.615 15.155,45.28 15.155,45.28C15.422,45.365 15.249,45.7 15.249,45.7ZM15.278,48.049C15.545,48.134 15.372,48.469 15.372,48.469C15.465,48.889 15.292,49.224 15.292,49.224L15.104,48.386L15.278,48.049ZM15.262,46.875C15.089,47.21 15.357,47.293 15.183,47.63C15.183,47.63 15.089,47.21 15.262,46.875ZM25.992,45.969C25.992,45.969 25.724,45.886 25.899,45.549L25.992,45.969ZM25.899,45.549C25.899,45.549 25.803,45.13 25.977,44.793C25.803,45.13 26.071,45.214 25.899,45.549ZM25.992,45.969C26.259,46.053 26.085,46.389 26.085,46.389L25.992,45.969ZM46.8,34.589C46.8,34.589 46.893,35.009 46.719,35.345C46.893,35.009 46.625,34.925 46.8,34.589ZM46.705,34.17C46.973,34.254 46.8,34.589 46.8,34.589C46.532,34.505 46.705,34.17 46.705,34.17ZM46.612,33.75C46.517,33.329 46.69,32.994 46.69,32.994C46.69,32.994 46.785,33.415 46.612,33.75ZM46.705,34.17C46.439,34.085 46.612,33.75 46.612,33.75C46.879,33.834 46.439,34.085 46.705,34.17ZM46.639,36.1C46.908,36.185 46.735,36.519 46.735,36.519C46.466,36.435 46.639,36.1 46.639,36.1ZM46.735,36.519C47.001,36.604 46.828,36.939 46.828,36.939C46.921,37.359 46.748,37.694 46.748,37.694C46.748,37.694 46.921,37.359 46.56,36.856L46.735,36.519ZM46.719,35.345C46.546,35.68 46.813,35.764 46.639,36.1C46.639,36.1 46.546,35.68 46.719,35.345ZM12.685,17.582C12.873,18.421 12.794,19.176 12.794,19.176C12.794,19.176 12.7,18.756 12.685,17.582ZM12.685,17.582C12.86,17.246 12.591,17.161 12.764,16.826C12.86,17.246 12.86,17.246 12.685,17.582ZM18.334,43.942C18.507,43.606 18.413,43.188 18.413,43.188C18.413,43.188 18.68,43.272 18.334,43.942ZM25.963,43.619C25.696,43.535 25.869,43.2 25.869,43.2C25.869,43.2 26.136,43.284 25.963,43.619ZM25.963,43.619C26.23,43.703 26.23,43.703 26.057,44.038C25.789,43.955 25.963,43.619 25.963,43.619ZM30.074,24.24C29.995,24.996 30.183,25.834 30.103,26.589C29.915,25.751 29.995,24.996 30.074,24.24ZM30.074,24.24C29.967,22.645 30.046,21.89 30.046,21.89C30.046,21.89 30.233,22.73 30.074,24.24ZM13.392,31.849C13.206,31.009 13.285,30.254 12.923,29.75C13.285,30.254 13.472,31.094 13.392,31.849ZM13.392,31.849C13.581,32.689 13.502,33.443 13.154,34.115L13.392,31.849ZM27.25,18.277C26.983,18.192 27.156,17.857 27.156,17.857C27.424,17.941 27.25,18.277 27.25,18.277ZM27.822,21.475C27.926,21.782 27.828,21.971 27.828,21.971C27.828,21.971 27.775,21.735 27.822,21.475ZM27.156,17.857C27.063,17.437 27.236,17.102 27.236,17.102C27.236,17.102 27.331,17.521 27.156,17.857ZM27.532,19.537C27.8,19.62 27.893,20.04 27.72,20.375C27.986,20.46 27.813,20.795 27.813,20.795C28.082,20.879 27.908,21.216 27.908,21.216C27.864,21.299 27.838,21.389 27.822,21.475C27.788,21.371 27.731,21.256 27.64,21.13C27.373,21.046 27.546,20.711 27.546,20.711C27.279,20.626 27.452,20.291 27.452,20.291C27.452,20.291 27.627,19.955 27.532,19.537ZM27.25,18.277C27.517,18.361 27.344,18.696 27.344,18.696C27.077,18.612 27.517,18.361 27.25,18.277ZM27.344,18.696C27.61,18.781 27.438,19.116 27.532,19.537C27.265,19.451 27.438,19.116 27.344,18.696ZM23.276,27.167C23.371,27.585 23.196,27.921 23.196,27.921C23.196,27.921 23.103,27.502 23.276,27.167ZM23.183,26.747C22.915,26.661 23.088,26.326 23.088,26.326C23.356,26.412 23.183,26.747 23.183,26.747ZM23.183,26.747C23.45,26.83 23.276,27.167 23.276,27.167C23.01,27.082 23.183,26.747 23.183,26.747ZM36.201,31.634L36.013,30.796C36.186,30.461 36.093,30.041 35.998,29.62C35.905,29.2 36.078,28.865 35.985,28.445C35.89,28.027 36.065,27.69 35.969,27.271C35.875,26.851 36.048,26.516 35.955,26.096C36.035,25.341 35.942,24.921 35.942,24.921L36.128,25.761C35.955,26.096 36.048,26.516 36.143,26.934C36.237,27.355 36.065,27.69 36.158,28.11C36.251,28.53 36.078,28.865 36.171,29.285C36.266,29.706 36.093,30.041 36.186,30.461C36.107,31.208 36.199,31.626 36.201,31.634ZM36.201,31.634L36.201,31.634C36.201,31.634 36.201,31.634 36.201,31.634ZM22.967,14.925C22.94,14.413 22.879,13.889 22.931,13.402C23.039,13.886 23.001,14.451 22.967,14.925ZM22.967,14.925C22.982,15.206 22.987,15.485 22.96,15.752C22.919,15.573 22.942,15.275 22.967,14.925ZM22.887,24.313C22.619,24.227 22.792,23.892 22.792,23.892C23.06,23.978 22.887,24.313 22.887,24.313ZM22.887,24.313C23.154,24.396 22.98,24.732 22.98,24.732C22.714,24.647 22.887,24.313 22.887,24.313ZM30.919,42.453C31.187,42.536 31.013,42.872 31.013,42.872C31.106,43.292 30.933,43.627 30.933,43.627C30.933,43.627 31.106,43.292 30.746,42.787L30.919,42.453ZM30.891,40.102C31.157,40.187 30.984,40.522 30.984,40.522C30.717,40.438 30.891,40.102 30.891,40.102ZM30.984,40.522C30.984,40.522 31.078,40.942 30.905,41.277C31.078,40.942 30.81,40.858 30.984,40.522ZM30.905,41.277C30.73,41.613 30.998,41.697 30.825,42.032C30.825,42.032 30.73,41.613 30.905,41.277ZM30.796,39.683C30.702,39.263 30.875,38.928 30.875,38.928C30.875,38.928 30.971,39.347 30.796,39.683ZM30.891,40.102C30.623,40.018 30.796,39.683 30.796,39.683C31.064,39.767 30.891,40.102 30.891,40.102ZM30.825,42.032C31.092,42.118 30.919,42.453 30.919,42.453C30.651,42.368 30.825,42.032 30.825,42.032ZM22.257,38.158C22.068,37.319 22.055,36.144 22.134,35.389C22.322,36.227 22.068,37.319 22.257,38.158ZM22.141,43.194C22.219,42.438 22.033,41.598 22.113,40.844C22.299,41.683 22.219,42.438 22.141,43.194ZM22.141,43.194C22.422,44.452 22.17,45.542 22.17,45.542C22.17,45.542 21.982,44.704 22.141,43.194ZM22.113,40.844C22.192,40.089 22.178,38.913 22.257,38.158C22.444,38.998 22.192,40.089 22.113,40.844ZM21.172,36.646L21.172,36.646C21.172,36.646 21.172,36.646 21.172,36.646ZM21.172,36.646L21.361,37.485C21.188,37.82 21.282,38.24 21.375,38.66C21.469,39.081 21.296,39.416 21.39,39.836C21.484,40.254 21.31,40.591 21.403,41.011C21.498,41.429 21.324,41.765 21.419,42.185C21.34,42.94 21.433,43.36 21.433,43.36L21.245,42.521C21.419,42.185 21.324,41.765 21.23,41.346C21.137,40.926 21.31,40.591 21.217,40.171C21.123,39.751 21.296,39.416 21.202,38.995C21.107,38.576 21.282,38.24 21.188,37.82C21.267,37.077 21.175,36.659 21.172,36.646ZM36.136,35.008C36.077,35.425 36.034,35.838 35.992,36.25C35.986,35.887 36.041,35.468 36.136,35.008ZM36.136,35.008C36.29,33.903 36.547,32.771 37.177,31.552C36.763,32.769 36.348,33.984 36.136,35.008ZM38.918,21.568C39.011,21.988 38.838,22.323 38.838,22.323C38.838,22.323 38.744,21.905 38.918,21.568ZM38.729,20.729C38.998,20.814 38.825,21.149 38.825,21.149C38.556,21.064 38.729,20.729 38.729,20.729ZM38.729,20.729C38.903,20.393 38.636,20.309 38.543,19.889L38.355,19.051C38.355,19.051 38.529,18.714 38.26,18.63C38.26,18.63 38.433,18.295 38.167,18.21C38.607,17.959 38.513,17.541 38.513,17.54C38.513,17.54 38.607,17.959 38.433,18.295C38.433,18.295 38.26,18.63 38.529,18.714C38.529,18.714 38.355,19.051 38.622,19.134L38.809,19.974C38.903,20.393 38.903,20.393 38.729,20.729ZM38.825,21.149C39.091,21.233 38.918,21.568 38.918,21.568C38.651,21.485 38.825,21.149 38.825,21.149ZM41.539,39.953L41.633,40.373C41.633,40.373 41.366,40.288 41.539,39.953ZM41.539,39.953C41.539,39.953 41.445,39.532 41.618,39.197C41.445,39.532 41.712,39.618 41.539,39.953ZM45.716,18.642C45.637,19.398 45.824,20.237 45.744,20.992C45.558,20.152 45.637,19.398 45.716,18.642ZM45.716,18.642C45.608,17.048 45.687,16.294 45.687,16.294C45.687,16.294 45.875,17.132 45.716,18.642ZM43.174,13.938C43.44,14.023 43.535,14.442 43.361,14.778C43.628,14.862 43.454,15.198 43.454,15.198C43.723,15.283 43.55,15.618 43.55,15.618C43.505,15.702 43.48,15.79 43.463,15.878C43.429,15.775 43.372,15.66 43.281,15.533C43.015,15.448 43.188,15.113 43.188,15.113C42.92,15.03 43.095,14.693 43.095,14.693C43.095,14.693 43.268,14.358 43.174,13.938ZM43.174,13.938C42.906,13.854 43.078,13.519 42.985,13.099C43.253,13.183 43.078,13.519 43.174,13.938ZM43.463,15.878C43.568,16.184 43.47,16.373 43.47,16.373C43.47,16.373 43.417,16.137 43.463,15.878ZM41.604,38.022C41.337,37.938 41.511,37.602 41.511,37.602C41.511,37.602 41.777,37.687 41.604,38.022ZM41.604,38.022C41.872,38.105 41.872,38.105 41.698,38.442C41.431,38.357 41.604,38.022 41.604,38.022ZM36.157,42.545C35.89,42.46 36.063,42.125 36.063,42.125C36.33,42.21 36.157,42.545 36.157,42.545ZM36.814,45.483C36.908,45.903 36.735,46.238 36.735,46.238C36.735,46.238 36.642,45.818 36.814,45.483ZM36.625,44.644C36.893,44.728 36.72,45.062 36.72,45.062C36.452,44.979 36.625,44.644 36.625,44.644ZM36.439,43.804C36.705,43.889 36.8,44.308 36.625,44.644C36.359,44.559 36.532,44.224 36.439,43.804ZM36.72,45.062C36.987,45.148 36.814,45.483 36.814,45.483C36.546,45.399 36.72,45.062 36.72,45.062ZM36.25,42.965C36.519,43.049 36.344,43.383 36.439,43.804C36.17,43.72 36.344,43.383 36.25,42.965ZM36.157,42.545C36.424,42.628 36.25,42.965 36.25,42.965L36.157,42.545ZM45.117,20.404C45.304,21.244 44.958,21.914 44.878,22.669L45.117,20.404ZM45.117,20.404C44.928,19.565 45.008,18.81 44.646,18.305C45.008,18.81 45.196,19.648 45.117,20.404ZM37.956,37.261C38.064,38.854 37.986,39.61 37.986,39.61C37.986,39.61 37.797,38.771 37.956,37.261ZM38.072,32.225C37.885,31.387 37.87,30.211 37.949,29.456C38.136,30.296 37.885,31.387 38.072,32.225ZM37.956,37.261C38.035,36.505 37.848,35.665 37.928,34.91C38.114,35.75 38.035,36.505 37.956,37.261ZM37.928,34.91C38.007,34.156 37.993,32.98 38.072,32.225C38.259,33.065 38.007,34.156 37.928,34.91ZM17.916,24.303C17.648,24.219 17.821,23.884 17.821,23.884L17.916,24.303ZM19.013,26.991C19.405,29.845 19.353,32.95 19.035,35.97C18.912,33.201 18.963,30.095 19.013,26.991ZM30.349,32.13C30.537,32.968 30.457,33.723 30.378,34.478C30.457,33.723 30.269,32.885 30.349,32.13ZM13.594,48.298C13.5,47.878 13.673,47.543 13.673,47.543C13.673,47.543 13.767,47.963 13.594,48.298ZM14.492,20.101L14.585,20.521C14.68,20.942 14.773,21.362 14.6,21.697L15.069,23.796C14.989,24.551 15.084,24.97 15.084,24.97L14.427,22.032C14.331,21.613 14.238,21.193 14.412,20.856C14.585,20.521 14.318,20.438 14.492,20.101ZM13.992,30.088C13.913,30.843 14.102,31.682 14.021,32.439C13.834,31.599 13.913,30.843 13.992,30.088ZM20.415,25.483C20.509,25.903 20.336,26.238 20.336,26.238C20.336,26.238 20.243,25.818 20.415,25.483ZM14.397,19.683C14.035,19.179 14.383,18.507 14.383,18.507C14.383,18.507 14.477,18.928 14.397,19.683ZM18.016,46.964C18.109,47.384 17.936,47.719 17.936,47.719C17.936,47.719 17.843,47.299 18.016,46.964ZM29.09,45.387L29.01,46.142C29.01,46.142 28.917,45.722 29.09,45.387ZM28.202,38.085L28.015,37.244C27.921,36.824 28.094,36.489 27.827,36.406C27.733,35.986 27.906,35.651 27.813,35.231C27.719,34.81 27.892,34.475 27.798,34.055C27.705,33.635 27.878,33.3 27.785,32.88C27.69,32.459 27.77,31.704 27.77,31.704L27.958,32.545C28.051,32.965 27.878,33.3 28.146,33.383C28.239,33.803 28.066,34.138 28.16,34.559C28.254,34.979 28.081,35.314 28.174,35.734C28.267,36.154 28.094,36.489 28.187,36.909C28.377,37.748 28.202,38.085 28.202,38.085ZM43.273,36.599C42.883,33.743 42.76,30.974 42.984,27.534C42.934,30.638 43.324,33.493 43.273,36.599ZM43.715,21.912C43.903,22.751 43.917,23.926 44.373,24.851C43.743,24.263 43.462,23.002 43.715,21.912ZM27.459,42.53C27.067,39.677 27.119,36.571 27.17,33.465C27.119,36.571 27.509,39.426 27.459,42.53ZM21.088,15.161L21.182,15.581C21.182,15.581 20.915,15.496 21.088,15.161ZM44.204,47.425L44.111,47.005C44.111,47.005 44.377,47.09 44.204,47.425ZM42.304,44.486L42.276,42.135C42.276,42.135 42.464,42.974 42.304,44.486ZM27.9,27.845C28.087,28.684 28.102,29.86 28.557,30.784C28.102,29.86 27.647,28.935 27.9,27.845ZM36.056,19.886C36.151,20.305 35.977,20.641 35.977,20.641C35.977,20.641 35.883,20.221 36.056,19.886ZM33.831,41.031C33.924,41.451 33.751,41.786 33.751,41.786C33.751,41.786 33.658,41.366 33.831,41.031ZM50.779,47.94L50.872,48.36C50.872,48.36 50.606,48.275 50.779,47.94ZM30.025,12.909C30.025,12.909 30.119,13.33 30.04,14.085L30.226,14.925C30.322,15.344 30.415,15.764 30.241,16.101C30.336,16.519 30.429,16.939 30.256,17.274L30.444,18.115C30.364,18.87 30.457,19.29 30.457,19.29L29.801,16.349C29.706,15.931 29.613,15.511 29.786,15.176C29.96,14.84 29.692,14.756 29.865,14.421L29.772,14.001C30.119,13.33 30.025,12.909 30.025,12.909ZM29.409,42.365C29.314,41.947 29.489,41.61 29.489,41.61C29.489,41.61 29.582,42.03 29.409,42.365ZM34.828,21.058C35.046,24.248 34.994,27.354 34.85,30.039C34.727,27.268 34.777,24.164 34.828,21.058ZM43.845,32.487L43.655,31.647C43.562,31.227 43.735,30.892 43.469,30.807C43.376,30.387 43.549,30.053 43.455,29.633C43.36,29.213 43.534,28.877 43.439,28.458C43.346,28.038 43.519,27.703 43.426,27.283C43.331,26.863 43.411,26.108 43.411,26.108L43.6,26.947C43.693,27.367 43.519,27.703 43.786,27.787C43.88,28.207 43.707,28.542 43.801,28.963C43.896,29.381 43.722,29.718 43.815,30.138C43.909,30.556 43.735,30.892 43.83,31.311C44.017,32.152 43.845,32.487 43.845,32.487ZM37.233,50.687L37.392,49.176C37.392,49.176 37.486,49.597 37.233,50.687ZM38.274,48.674C38.274,48.674 38.179,48.255 38.259,47.501L38.164,47.08C38.164,47.08 38.071,46.66 38.244,46.325C38.151,45.905 38.324,45.57 38.231,45.15C38.136,44.729 38.309,44.394 38.389,43.639C38.562,43.304 38.295,43.219 38.468,42.884C38.641,42.549 38.641,42.549 38.548,42.129C38.628,41.374 38.801,41.04 38.801,41.04C38.801,41.04 38.895,41.458 38.816,42.213C38.816,42.213 38.641,42.549 38.909,42.633C38.736,42.968 39.003,43.054 38.83,43.389C38.924,43.809 38.751,44.144 38.671,44.898C38.764,45.318 38.591,45.653 38.685,46.073C38.512,46.408 38.779,46.494 38.606,46.829L38.699,47.249C38.353,47.919 38.274,48.674 38.274,48.674ZM46.928,45.165C46.848,45.92 47.037,46.759 46.958,47.514C46.769,46.674 46.848,45.92 46.928,45.165ZM37.139,35.832C37.219,35.077 37.298,34.323 36.937,33.819C37.298,34.323 37.487,35.162 37.139,35.832ZM36.258,36.335L36.165,35.915C36.432,35.999 36.432,35.999 36.258,36.335ZM45.319,36.853C45.223,36.434 45.397,36.097 45.397,36.097C45.397,36.097 45.492,36.518 45.319,36.853ZM45.991,26.531C46.178,27.371 46.098,28.126 46.019,28.881C46.098,28.126 45.912,27.286 45.991,26.531ZM26.663,50.083L26.635,47.732C26.635,47.732 26.822,48.572 26.663,50.083ZM50.738,15.546C50.861,18.315 50.81,21.421 50.758,24.526C50.637,21.756 50.687,18.652 50.738,15.546ZM50.403,46.26C50.136,46.177 50.31,45.84 50.31,45.84L50.403,46.26ZM49.472,35.434C49.567,35.852 49.392,36.189 49.392,36.189C49.392,36.189 49.299,35.769 49.472,35.434ZM49.791,32.412C49.964,32.077 49.871,31.657 49.871,31.657C49.871,31.657 50.137,31.742 49.791,32.412Z" style="fill:#74352a;"/></g><g id="blue"><path d="M10,14.488C9.098,13.911 8.5,12.9 8.5,11.75C8.5,9.956 9.956,8.5 11.75,8.5C12.9,8.5 13.911,9.098 14.488,10L49.512,10C50.089,9.098 51.1,8.5 52.25,8.5C54.044,8.5 55.5,9.956 55.5,11.75C55.5,12.9 54.902,13.911 54,14.488L54,49.512C54.902,50.089 55.5,51.1 55.5,52.25C55.5,54.044 54.044,55.5 52.25,55.5C51.1,55.5 50.089,54.902 49.512,54L14.488,54C13.911,54.902 12.9,55.5 11.75,55.5C9.956,55.5 8.5,54.044 8.5,52.25C8.5,51.1 9.098,50.089 10,49.512L10,14.488ZM49.087,12.5L14.913,12.5C14.631,13.692 13.692,14.631 12.5,14.913L12.5,49.087C13.692,49.369 14.631,50.308 14.913,51.5L49.087,51.5C49.369,50.308 50.308,49.369 51.5,49.087L51.5,14.913C50.308,14.631 49.369,13.692 49.087,12.5Z" style="fill:#d1f8fd;"/></g><defs><linearGradient id="_Linear1" x1="0" y1="0" x2="1" y2="0.285298" gradientUnits="userSpaceOnUse" gradientTransform="matrix(1.75253,-0.517627,0.0220773,1.73594,14.0017,37.0313)"><stop offset="0" style="stop-color:#bd814f;stop-opacity:1"/><stop offset="0.44" style="stop-color:#bc804f;stop-opacity:1"/><stop offset="0.45" style="stop-color:#bc7f4e;stop-opacity:1"/><stop offset="0.47" style="stop-color:#b97d4c;stop-opacity:1"/><stop offset="0.48" style="stop-color:#b97c4b;stop-opacity:1"/><stop offset="0.48" style="stop-color:#b97c4b;stop-opacity:1"/><stop offset="0.55" style="stop-color:#b67947;stop-opacity:1"/><stop offset="0.56" style="stop-color:#b47747;stop-opacity:1"/><stop offset="0.57" style="stop-color:#b37746;stop-opacity:1"/><stop offset="0.58" style="stop-color:#b37646;stop-opacity:1"/><stop offset="0.59" style="stop-color:#b37646;stop-opacity:1"/><stop offset="0.61" style="stop-color:#b17444;stop-opacity:1"/><stop offset="0.61" style="stop-color:#b17444;stop-opacity:1"/><stop offset="0.63" style="stop-color:#b17344;stop-opacity:1"/><stop offset="0.63" style="stop-color:#b17343;stop-opacity:1"/><stop offset="0.64" style="stop-color:#af7142;stop-opacity:1"/><stop offset="0.66" style="stop-color:#af7141;stop-opacity:1"/><stop offset="0.66" style="stop-color:#ae7041;stop-opacity:1"/><stop offset="0.67" style="stop-color:#ae7040;stop-opacity:1"/><stop offset="0.68" style="stop-color:#ad6f40;stop-opacity:1"/><stop offset="0.69" style="stop-color:#ad6f3f;stop-opacity:1"/><stop offset="0.7" style="stop-color:#ac6e3f;stop-opacity:1"/><stop offset="0.73" style="stop-color:#ab6c3e;stop-opacity:1"/><stop offset="0.73" style="stop-color:#ab6c3d;stop-opacity:1"/><stop offset="0.75" style="stop-color:#a96b3c;stop-opacity:1"/><stop offset="0.77" style="stop-color:#a96a3b;stop-opacity:1"/><stop offset="0.78" style="stop-color:#a7693b;stop-opacity:1"/><stop offset="0.79" style="stop-color:#a7683a;stop-opacity:1"/><stop offset="0.8" style="stop-color:#a6673a;stop-opacity:1"/><stop offset="0.8" style="stop-color:#a66739;stop-opacity:1"/><stop offset="0.81" style="stop-color:#a56739;stop-opacity:1"/><stop offset="0.82" style="stop-color:#a56639;stop-opacity:1"/><stop offset="0.82" style="stop-color:#a56639;stop-opacity:1"/><stop offset="0.83" style="stop-color:#a46639;stop-opacity:1"/><stop offset="0.84" style="stop-color:#a46538;stop-opacity:1"/><stop offset="0.84" style="stop-color:#a36538;stop-opacity:1"/><stop offset="0.86" style="stop-color:#a36437;stop-opacity:1"/><stop offset="0.88" style="stop-color:#a26337;stop-opacity:1"/><stop offset="0.9" style="stop-color:#a16235;stop-opacity:1"/><stop offset="0.92" style="stop-color:#9f6034;stop-opacity:1"/><stop offset="0.94" style="stop-color:#9f5f33;stop-opacity:1"/><stop offset="0.95" style="stop-color:#9e5f32;stop-opacity:1"/><stop offset="0.96" style="stop-color:#9d5e32;stop-opacity:1"/><stop offset="0.97" style="stop-color:#9d5e31;stop-opacity:1"/><stop offset="0.98" style="stop-color:#9b5c31;stop-opacity:1"/><stop offset="0.98" style="stop-color:#9b5c31;stop-opacity:1"/><stop offset="1" style="stop-color:#9a5b30;stop-opacity:1"/></linearGradient><linearGradient id="_Linear2" x1="0" y1="0" x2="1" y2="0.285298" gradientUnits="userSpaceOnUse" gradientTransform="matrix(1.70415,-0.503329,0.0214595,1.68801,30.8419,30.7994)"><stop offset="0" style="stop-color:#bd814f;stop-opacity:1"/><stop offset="0.45" style="stop-color:#bc804f;stop-opacity:1"/><stop offset="0.46" style="stop-color:#bc7f4e;stop-opacity:1"/><stop offset="0.48" style="stop-color:#b97d4c;stop-opacity:1"/><stop offset="0.5" style="stop-color:#b97c4b;stop-opacity:1"/><stop offset="0.51" style="stop-color:#b87c4b;stop-opacity:1"/><stop offset="0.53" style="stop-color:#b87a49;stop-opacity:1"/><stop offset="0.56" style="stop-color:#b67948;stop-opacity:1"/><stop offset="0.58" style="stop-color:#b57847;stop-opacity:1"/><stop offset="0.58" style="stop-color:#b47747;stop-opacity:1"/><stop offset="0.61" style="stop-color:#b37545;stop-opacity:1"/><stop offset="0.62" style="stop-color:#b27545;stop-opacity:1"/><stop offset="0.63" style="stop-color:#b27444;stop-opacity:1"/><stop offset="0.64" style="stop-color:#b17444;stop-opacity:1"/><stop offset="0.66" style="stop-color:#b17343;stop-opacity:1"/><stop offset="0.67" style="stop-color:#af7142;stop-opacity:1"/><stop offset="0.67" style="stop-color:#af7142;stop-opacity:1"/><stop offset="0.68" style="stop-color:#af7141;stop-opacity:1"/><stop offset="0.69" style="stop-color:#ae7041;stop-opacity:1"/><stop offset="0.7" style="stop-color:#ae7040;stop-opacity:1"/><stop offset="0.7" style="stop-color:#ad6f40;stop-opacity:1"/><stop offset="0.72" style="stop-color:#ad6f3f;stop-opacity:1"/><stop offset="0.73" style="stop-color:#ac6e3f;stop-opacity:1"/><stop offset="0.73" style="stop-color:#ac6d3e;stop-opacity:1"/><stop offset="0.76" style="stop-color:#aa6c3d;stop-opacity:1"/><stop offset="0.77" style="stop-color:#a96c3d;stop-opacity:1"/><stop offset="0.79" style="stop-color:#a96a3b;stop-opacity:1"/><stop offset="0.79" style="stop-color:#a86a3b;stop-opacity:1"/><stop offset="0.8" style="stop-color:#a8693b;stop-opacity:1"/><stop offset="0.81" style="stop-color:#a8693a;stop-opacity:1"/><stop offset="0.83" style="stop-color:#a6673a;stop-opacity:1"/><stop offset="0.84" style="stop-color:#a66739;stop-opacity:1"/><stop offset="0.84" style="stop-color:#a56739;stop-opacity:1"/><stop offset="0.85" style="stop-color:#a56639;stop-opacity:1"/><stop offset="0.86" style="stop-color:#a46638;stop-opacity:1"/><stop offset="0.87" style="stop-color:#a46538;stop-opacity:1"/><stop offset="0.88" style="stop-color:#a46538;stop-opacity:1"/><stop offset="0.92" style="stop-color:#a26335;stop-opacity:1"/><stop offset="0.93" style="stop-color:#a06135;stop-opacity:1"/><stop offset="0.94" style="stop-color:#a06134;stop-opacity:1"/><stop offset="0.95" style="stop-color:#9f6034;stop-opacity:1"/><stop offset="0.97" style="stop-color:#9f5f33;stop-opacity:1"/><stop offset="0.98" style="stop-color:#9e5f33;stop-opacity:1"/><stop offset="0.98" style="stop-color:#9e5e32;stop-opacity:1"/><stop offset="1" style="stop-color:#9c5d31;stop-opacity:1"/></linearGradient><linearGradient id="_Linear3" x1="0" y1="0" x2="1" y2="0.285298" gradientUnits="userSpaceOnUse" gradientTransform="matrix(1.75472,-0.518273,0.0221028,1.73811,38.525,27.8442)"><stop offset="0" style="stop-color:#ab7447;stop-opacity:1"/><stop offset="0.44" style="stop-color:#aa7447;stop-opacity:1"/><stop offset="0.44" style="stop-color:#aa7347;stop-opacity:1"/><stop offset="0.45" style="stop-color:#aa7346;stop-opacity:1"/><stop offset="0.45" style="stop-color:#aa7246;stop-opacity:1"/><stop offset="0.46" style="stop-color:#a97246;stop-opacity:1"/><stop offset="0.47" style="stop-color:#a87145;stop-opacity:1"/><stop offset="0.47" style="stop-color:#a87045;stop-opacity:1"/><stop offset="0.48" style="stop-color:#a77043;stop-opacity:1"/><stop offset="0.5" style="stop-color:#a76f43;stop-opacity:1"/><stop offset="0.52" style="stop-color:#a66f42;stop-opacity:1"/><stop offset="0.55" style="stop-color:#a46c40;stop-opacity:1"/><stop offset="0.56" style="stop-color:#a36c40;stop-opacity:1"/><stop offset="0.57" style="stop-color:#a36c3f;stop-opacity:1"/><stop offset="0.57" style="stop-color:#a36b3f;stop-opacity:1"/><stop offset="0.58" style="stop-color:#a26b3f;stop-opacity:1"/><stop offset="0.58" style="stop-color:#a26b3e;stop-opacity:1"/><stop offset="0.6" style="stop-color:#a2693e;stop-opacity:1"/><stop offset="0.61" style="stop-color:#a1693d;stop-opacity:1"/><stop offset="0.62" style="stop-color:#a1683d;stop-opacity:1"/><stop offset="0.63" style="stop-color:#a0683c;stop-opacity:1"/><stop offset="0.64" style="stop-color:#9f673c;stop-opacity:1"/><stop offset="0.64" style="stop-color:#9f673b;stop-opacity:1"/><stop offset="0.66" style="stop-color:#9e663b;stop-opacity:1"/><stop offset="0.67" style="stop-color:#9e653a;stop-opacity:1"/><stop offset="0.69" style="stop-color:#9d6439;stop-opacity:1"/><stop offset="0.7" style="stop-color:#9d6339;stop-opacity:1"/><stop offset="0.71" style="stop-color:#9c6338;stop-opacity:1"/><stop offset="0.72" style="stop-color:#9c6238;stop-opacity:1"/><stop offset="0.73" style="stop-color:#9b6237;stop-opacity:1"/><stop offset="0.73" style="stop-color:#9b6137;stop-opacity:1"/><stop offset="0.75" style="stop-color:#996037;stop-opacity:1"/><stop offset="0.76" style="stop-color:#996036;stop-opacity:1"/><stop offset="0.77" style="stop-color:#996036;stop-opacity:1"/><stop offset="0.81" style="stop-color:#965d33;stop-opacity:1"/><stop offset="0.83" style="stop-color:#955d33;stop-opacity:1"/><stop offset="0.84" style="stop-color:#955c32;stop-opacity:1"/><stop offset="0.84" style="stop-color:#945c32;stop-opacity:1"/><stop offset="0.85" style="stop-color:#945b32;stop-opacity:1"/><stop offset="0.86" style="stop-color:#945b31;stop-opacity:1"/><stop offset="0.88" style="stop-color:#935a31;stop-opacity:1"/><stop offset="0.89" style="stop-color:#935930;stop-opacity:1"/><stop offset="0.9" style="stop-color:#925830;stop-opacity:1"/><stop offset="0.91" style="stop-color:#92582f;stop-opacity:1"/><stop offset="0.94" style="stop-color:#90562e;stop-opacity:1"/><stop offset="0.95" style="stop-color:#90562d;stop-opacity:1"/><stop offset="0.97" style="stop-color:#8e542c;stop-opacity:1"/><stop offset="0.98" style="stop-color:#8d542c;stop-opacity:1"/><stop offset="0.98" style="stop-color:#8d532c;stop-opacity:1"/><stop offset="1" style="stop-color:#8c522c;stop-opacity:1"/></linearGradient><linearGradient id="_Linear4" x1="0" y1="0" x2="1" y2="0.285298" gradientUnits="userSpaceOnUse" gradientTransform="matrix(1.75459,-0.518228,0.0220947,1.73798,22.1917,34.113)"><stop offset="0" style="stop-color:#ab7447;stop-opacity:1"/><stop offset="0.44" style="stop-color:#aa7447;stop-opacity:1"/><stop offset="0.44" style="stop-color:#aa7347;stop-opacity:1"/><stop offset="0.45" style="stop-color:#aa7346;stop-opacity:1"/><stop offset="0.45" style="stop-color:#aa7246;stop-opacity:1"/><stop offset="0.46" style="stop-color:#a97246;stop-opacity:1"/><stop offset="0.47" style="stop-color:#a87145;stop-opacity:1"/><stop offset="0.48" style="stop-color:#a87045;stop-opacity:1"/><stop offset="0.48" style="stop-color:#a77044;stop-opacity:1"/><stop offset="0.48" style="stop-color:#a77043;stop-opacity:1"/><stop offset="0.5" style="stop-color:#a76f43;stop-opacity:1"/><stop offset="0.52" style="stop-color:#a66f42;stop-opacity:1"/><stop offset="0.55" style="stop-color:#a56d41;stop-opacity:1"/><stop offset="0.55" style="stop-color:#a46c41;stop-opacity:1"/><stop offset="0.57" style="stop-color:#a36c3f;stop-opacity:1"/><stop offset="0.57" style="stop-color:#a36b3f;stop-opacity:1"/><stop offset="0.58" style="stop-color:#a26b3f;stop-opacity:1"/><stop offset="0.59" style="stop-color:#a26b3e;stop-opacity:1"/><stop offset="0.6" style="stop-color:#a2693e;stop-opacity:1"/><stop offset="0.61" style="stop-color:#a1693d;stop-opacity:1"/><stop offset="0.64" style="stop-color:#9f683c;stop-opacity:1"/><stop offset="0.64" style="stop-color:#9f673b;stop-opacity:1"/><stop offset="0.66" style="stop-color:#9e663b;stop-opacity:1"/><stop offset="0.67" style="stop-color:#9e653a;stop-opacity:1"/><stop offset="0.69" style="stop-color:#9d6439;stop-opacity:1"/><stop offset="0.7" style="stop-color:#9d6339;stop-opacity:1"/><stop offset="0.71" style="stop-color:#9c6338;stop-opacity:1"/><stop offset="0.72" style="stop-color:#9c6238;stop-opacity:1"/><stop offset="0.73" style="stop-color:#9b6237;stop-opacity:1"/><stop offset="0.73" style="stop-color:#9b6137;stop-opacity:1"/><stop offset="0.75" style="stop-color:#996037;stop-opacity:1"/><stop offset="0.76" style="stop-color:#996036;stop-opacity:1"/><stop offset="0.8" style="stop-color:#975e34;stop-opacity:1"/><stop offset="0.81" style="stop-color:#965d34;stop-opacity:1"/><stop offset="0.82" style="stop-color:#965d33;stop-opacity:1"/><stop offset="0.83" style="stop-color:#955d33;stop-opacity:1"/><stop offset="0.84" style="stop-color:#955c32;stop-opacity:1"/><stop offset="0.84" style="stop-color:#945c32;stop-opacity:1"/><stop offset="0.85" style="stop-color:#945b32;stop-opacity:1"/><stop offset="0.86" style="stop-color:#945b31;stop-opacity:1"/><stop offset="0.86" style="stop-color:#945a31;stop-opacity:1"/><stop offset="0.88" style="stop-color:#935a31;stop-opacity:1"/><stop offset="0.89" style="stop-color:#935930;stop-opacity:1"/><stop offset="0.9" style="stop-color:#925830;stop-opacity:1"/><stop offset="0.91" style="stop-color:#92582f;stop-opacity:1"/><stop offset="0.94" style="stop-color:#90562e;stop-opacity:1"/><stop offset="0.94" style="stop-color:#90562d;stop-opacity:1"/><stop offset="0.95" style="stop-color:#8f562d;stop-opacity:1"/><stop offset="0.96" style="stop-color:#8f552d;stop-opacity:1"/><stop offset="0.98" style="stop-color:#8d532c;stop-opacity:1"/><stop offset="0.98" style="stop-color:#8d532c;stop-opacity:1"/><stop offset="1" style="stop-color:#8c522c;stop-opacity:1"/></linearGradient><linearGradient id="_Linear5" x1="0" y1="0" x2="1" y2="0.285298" gradientUnits="userSpaceOnUse" gradientTransform="matrix(1.75044,-0.517008,0.0220503,1.73386,47.235,24.7007)"><stop offset="0" style="stop-color:#bd814f;stop-opacity:1"/><stop offset="0.44" style="stop-color:#bc804f;stop-opacity:1"/><stop offset="0.45" style="stop-color:#bc7f4e;stop-opacity:1"/><stop offset="0.46" style="stop-color:#ba7e4e;stop-opacity:1"/><stop offset="0.47" style="stop-color:#b97d4d;stop-opacity:1"/><stop offset="0.48" style="stop-color:#b97c4b;stop-opacity:1"/><stop offset="0.48" style="stop-color:#b97c4b;stop-opacity:1"/><stop offset="0.52" style="stop-color:#b77a49;stop-opacity:1"/><stop offset="0.53" style="stop-color:#b67949;stop-opacity:1"/><stop offset="0.55" style="stop-color:#b67948;stop-opacity:1"/><stop offset="0.55" style="stop-color:#b67947;stop-opacity:1"/><stop offset="0.57" style="stop-color:#b47747;stop-opacity:1"/><stop offset="0.61" style="stop-color:#b17444;stop-opacity:1"/><stop offset="0.63" style="stop-color:#b17343;stop-opacity:1"/><stop offset="0.64" style="stop-color:#af7143;stop-opacity:1"/><stop offset="0.66" style="stop-color:#af7141;stop-opacity:1"/><stop offset="0.66" style="stop-color:#ae7041;stop-opacity:1"/><stop offset="0.67" style="stop-color:#ae7040;stop-opacity:1"/><stop offset="0.68" style="stop-color:#ad6f40;stop-opacity:1"/><stop offset="0.7" style="stop-color:#ad6f3f;stop-opacity:1"/><stop offset="0.7" style="stop-color:#ac6e3f;stop-opacity:1"/><stop offset="0.7" style="stop-color:#ac6e3f;stop-opacity:1"/><stop offset="0.73" style="stop-color:#ab6d3e;stop-opacity:1"/><stop offset="0.73" style="stop-color:#ab6c3d;stop-opacity:1"/><stop offset="0.75" style="stop-color:#a96b3c;stop-opacity:1"/><stop offset="0.77" style="stop-color:#a96a3b;stop-opacity:1"/><stop offset="0.77" style="stop-color:#a86a3b;stop-opacity:1"/><stop offset="0.77" style="stop-color:#a8693b;stop-opacity:1"/><stop offset="0.78" style="stop-color:#a7693b;stop-opacity:1"/><stop offset="0.79" style="stop-color:#a7683a;stop-opacity:1"/><stop offset="0.79" style="stop-color:#a7683a;stop-opacity:1"/><stop offset="0.8" style="stop-color:#a6673a;stop-opacity:1"/><stop offset="0.8" style="stop-color:#a66739;stop-opacity:1"/><stop offset="0.81" style="stop-color:#a56739;stop-opacity:1"/><stop offset="0.82" style="stop-color:#a56639;stop-opacity:1"/><stop offset="0.83" style="stop-color:#a46639;stop-opacity:1"/><stop offset="0.84" style="stop-color:#a46538;stop-opacity:1"/><stop offset="0.84" style="stop-color:#a36538;stop-opacity:1"/><stop offset="0.85" style="stop-color:#a36437;stop-opacity:1"/><stop offset="0.89" style="stop-color:#a16235;stop-opacity:1"/><stop offset="0.9" style="stop-color:#a16235;stop-opacity:1"/><stop offset="0.92" style="stop-color:#9f6034;stop-opacity:1"/><stop offset="0.94" style="stop-color:#9f5f33;stop-opacity:1"/><stop offset="0.95" style="stop-color:#9e5f33;stop-opacity:1"/><stop offset="0.95" style="stop-color:#9e5f32;stop-opacity:1"/><stop offset="0.96" style="stop-color:#9e5e32;stop-opacity:1"/><stop offset="0.97" style="stop-color:#9d5e31;stop-opacity:1"/><stop offset="0.98" style="stop-color:#9b5c31;stop-opacity:1"/><stop offset="0.98" style="stop-color:#9b5c31;stop-opacity:1"/><stop offset="1" style="stop-color:#9a5b30;stop-opacity:1"/></linearGradient></defs></svg>